<?xml version="1.0" encoding="UTF-8" standalone="no"?>
<svg
   width="330"
   height="330"
   viewBox="0 0 330 330"
   version="1.1"
   id="svg6"
   sodipodi:docname="trace.svg"
   inkscape:version="1.2.1 (9c6d41e410, 2022-07-14)"
   xmlns:inkscape="http://www.inkscape.org/namespaces/inkscape"
   xmlns:sodipodi="http://sodipodi.sourceforge.net/DTD/sodipodi-0.dtd"
   xmlns="http://www.w3.org/2000/svg"
   xmlns:svg="http://www.w3.org/2000/svg">
  <defs
     id="defs10" />
  <sodipodi:namedview
     id="namedview8"
     pagecolor="#ffffff"
     bordercolor="#000000"
     borderopacity="0.25"
     inkscape:showpageshadow="2"
     inkscape:pageopacity="0.0"
     inkscape:pagecheckerboard="0"
     inkscape:deskcolor="#d1d1d1"
     showgrid="false"
     inkscape:zoom="2.5938317"
     inkscape:cx="160.38049"
     inkscape:cy="165.77791"
     inkscape:window-width="1920"
     inkscape:window-height="1017"
     inkscape:window-x="-8"
     inkscape:window-y="-8"
     inkscape:window-maximized="1"
     inkscape:current-layer="svg6" />
  <rect
     style="fill:#ffffff;fill-rule:evenodd;stroke-width:1.86953"
     id="rect291"
     width="330"
     height="330"
     x="0"
     y="0" />
  <path
     d="m 66.634334,113.72073 c -0.55,0.196 -3.654,0.881 -6.897,1.522 -6.215,1.228 -10.615,4.413 -10.588,7.667 0.011,1.381 0.301,1.228 1.258,-0.662 1.232,-2.434 4.082,-3.751 8.534,-3.943 2.099,-0.091 2.28,0.272 2,4.003 -0.303,4.048 -0.436,4.178 -9.701,9.5 -5.167,2.969 -9.554,5.397 -9.75,5.397 -0.196,0 -0.415,-2.362 -0.487,-5.25 l -0.132,-5.25 -0.937,5.5 c -0.516,3.025 -1.39,6.335 -1.943,7.355 -0.552,1.02 -0.587,1.596 -0.077,1.281 0.539,-0.333 1.181,4.344 1.529,11.145 0.33,6.445 0.993,13.069 1.472,14.719 1.044,3.595 0.783,3.993 7.544,-11.5 2.52,-5.775 6.351,-13.829 8.514,-17.897 3.156,-5.936 4.058,-7.003 4.566,-5.404 0.348,1.097 -0.099,4.848 -0.993,8.337 -1.113,4.345 -1.497,9.088 -1.219,15.054 0.36,7.723 0.854,9.6 4.357,16.56 3.313,6.585 4.385,7.9 6.651,8.162 4.166,0.48 6.772,-1.511 9.351,-7.148 4.292,-9.378 5.755,-17.224 5.161,-27.664 -0.298,-5.225 -1.014,-10.625 -1.59,-12 -0.842,-2.008 -0.909,-1.614 -0.336,2 1.907,12.039 -0.141,25.845 -5.364,36.151 -4.617,9.112 -7.754,8.411 -12.41,-2.773 -3.499,-8.406 -4.759,-18.517 -3.289,-26.378 l 0.842,-4.5 2.332,4.802 c 1.282,2.641 2.514,4.619 2.738,4.395 0.224,-0.224 -0.35,-3.56 -1.275,-7.413 -1.947,-8.115 -1.613,-9.55 2.855,-12.275 4.578,-2.79 8.19,-2.579 10.711,0.626 1.14,1.449 2.073,2.124 2.073,1.5 0,-2.048 -3.947,-5.135 -6.566,-5.135 -2.958,0 -6.017,1.416 -9.084,4.205 l -2.15,1.956 -1.1,-5.13 c -1.66,-7.741 -1.707,-7.657 4.904,-8.722 3.303,-0.532 6.21,-0.762 6.46,-0.511 0.251,0.25 -0.27,1.861 -1.158,3.579 -1.518,2.935 -1.512,3.038 0.094,1.705 2.873,-2.383 3.887,-5.031 2.547,-6.646 -1.07,-1.289 -6.843,-1.852 -9.447,-0.92 m -30.75,6.646 c -3.679,1.344 -3.522,3.178 0.226,2.628 1.636,-0.24 3.099,-0.108 3.25,0.294 0.151,0.402 1.083,-0.352 2.071,-1.677 1.766,-2.367 1.758,-2.406 -0.5,-2.328 -1.263,0.043 -3.534,0.531 -5.047,1.083 m 12.923,14.939 -7.826,4 0.702,10.2 c 0.386,5.609 0.858,10.374 1.048,10.588 0.191,0.213 0.807,-0.821 1.369,-2.299 0.562,-1.478 3.72,-8.065 7.018,-14.638 3.298,-6.574 5.888,-11.93 5.756,-11.902 -0.132,0.027 -3.762,1.85 -8.067,4.051 m -21.673,-1.325 c -2.09,0.675 -4.985,3.323 -6.248,5.713 -0.584,1.106 0.313,0.549 1.994,-1.239 9.471,-10.071 15.239,4.744 9.579,24.6 -1.564,5.486 -4.252,9.15 -6.714,9.15 -2.76,0 -5.841,-3.683 -7.145,-8.542 -0.989,-3.684 -1.348,-4.243 -1.399,-2.176 -0.167,6.895 5.436,13.562 10.359,12.326 5.772,-1.449 10.079,-13.332 9.356,-25.816 -0.331,-5.715 -0.99,-8.594 -2.4,-10.482 -2.146,-2.875 -5.078,-4.278 -7.382,-3.534 m 128.654996,8.978 c -0.345,2.16 -1.745,5.573 -3.111,7.586 -3.788,5.582 -0.615,4.558 4.436,-1.431 l 4.293,-5.091 -2.495,-2.495 -2.495,-2.495 -0.628,3.926 m -137.030996,0.785 c -0.965,2.514 -0.681,3.163 0.498,1.136 0.584,-1.004 0.851,-2.036 0.593,-2.293 -0.257,-0.258 -0.749,0.263 -1.091,1.157 m 288.364996,3.146 c -0.665,2.098 -2.044,5.277 -3.065,7.065 -2.61,4.569 -0.906,4.039 3.949,-1.228 4.703,-5.103 4.835,-5.571 2.226,-7.932 -1.828,-1.654 -1.947,-1.574 -3.11,2.095 m -52.872,-0.472 c -1.056,2.853 -0.407,5.215 2.041,7.43 4.233,3.831 7.999,-3.486 3.903,-7.582 -2.675,-2.675 -4.92,-2.618 -5.944,0.152 m -83.976,0.858 c -2.357,0.944 -2.358,0.954 -1.933,15.687 0.34,11.785 0.8,15.494 2.294,18.492 1.027,2.063 2.235,3.75 2.683,3.75 0.448,0 0.818,-5.737 0.822,-12.75 0.004,-7.013 0.294,-15.788 0.645,-19.5 0.687,-7.273 0.393,-7.642 -4.511,-5.679 m 108.176,2.679 c -0.829,3.527 -1.132,3.768 -5.099,4.057 -3.404,0.249 -4.218,0.683 -4.218,2.25 0,1.208 0.685,1.943 1.809,1.943 0.995,0 2.678,0.636 3.742,1.413 1.801,1.317 1.91,2.558 1.611,18.25 -0.191,10.037 0.098,17.928 0.716,19.539 1.292,3.37 5.845,5.803 10.822,5.783 7.125,-0.029 8.523,-3.339 2.267,-5.368 -1.991,-0.646 -3.95,-2.176 -4.645,-3.627 -1.811,-3.785 -3.306,-14.49 -3.314,-23.74 -0.007,-6.923 0.314,-8.572 1.992,-10.25 1.1,-1.1 2.9,-2 4,-2 1.313,0 2,-0.667 2,-1.94 0,-1.519 -0.812,-2.006 -3.75,-2.25 -3.546,-0.293 -3.767,-0.514 -4.06,-4.06 -0.192,-2.314 -0.824,-3.75 -1.651,-3.75 -0.737,0 -1.737,1.688 -2.222,3.75 m -207.686996,0.5 c -1.011,3.775 -0.705,5.75 0.891,5.75 1.866,0 3.963,-4.296 3.142,-6.436 -0.888,-2.314 -3.341,-1.897 -4.033,0.686 m -45.418,-0.062 c -1.687,1.687 -1.562,6.812 0.166,6.812 2.065,0 3.818,-2.601 3.449,-5.117 -0.389,-2.649 -1.935,-3.375 -3.615,-1.695 m 104.659996,1.562 c -0.593,1.513 -2.231,7.951 -3.639,14.308 l -2.561,11.559 -6.818,-10.059 c -9.717,-14.333 -9.502,-14.095 -11.323,-12.584 -0.842,0.699 -1.531,1.625 -1.531,2.058 0,0.433 2.813,4.56 6.25,9.172 3.438,4.612 8.215,11.403 10.617,15.091 2.403,3.688 4.928,6.705 5.614,6.705 2.406,0 5.745,-14.545 7.059,-30.75 0.586,-7.23 0.467,-8.25 -0.961,-8.25 -0.896,0 -2.114,1.237 -2.707,2.75 m 109.026,7.5 c -4.04,2.675 -9.898,13.502 -9.898,18.294 0,1.779 0.861,4.297 1.914,5.595 1.722,2.125 2.713,2.361 9.917,2.361 4.402,0 8.307,-0.304 8.677,-0.675 1.424,-1.424 -0.658,-4.825 -2.953,-4.825 -5.651,0 -5.659,-5.548 -0.018,-13.481 4.138,-5.82 4.289,-7.255 0.898,-8.544 -3.683,-1.4 -4.734,-1.243 -8.537,1.275 m -94.135,1.315 c -5.316,2.885 -7.406,11.357 -4.289,17.384 2.09,4.042 8.83,9.526 13.384,10.89 7.024,2.105 10.384,1.052 6.547,-2.05 -7.255,-5.863 -7.77,-7.551 -3.905,-12.789 4.003,-5.426 3.046,-10.632 -2.48,-13.49 -3.612,-1.867 -5.737,-1.855 -9.257,0.055 m 110.166,6.185 c -0.909,4.314 -0.94,7.373 -0.123,12.25 1.247,7.436 7.906,21.5 10.18,21.5 2.15,0 2.425,-3.114 0.613,-6.932 -1.921,-4.049 -3.553,-14.813 -3.579,-23.618 -0.021,-6.725 -1.052,-8.95 -4.149,-8.95 -1.298,0 -2.032,1.434 -2.942,5.75 m 45.101,-4.471 c -3.387,1.714 -7.03,7.398 -7.03,10.968 0,8.859 11.009,18.753 20.866,18.753 3.254,0 2.548,-2.581 -1.368,-5.001 -4.758,-2.941 -5.421,-6.113 -2.102,-10.058 4.3,-5.11 3.243,-11.525 -2.376,-14.431 -3.525,-1.823 -4.772,-1.859 -7.99,-0.231 m -152.069,5.268 c -1.579,1.902 -0.414,4.686 1.786,4.267 2.198,-0.419 2.874,-4.362 0.879,-5.127 -0.814,-0.313 -2.013,0.074 -2.665,0.86 m 38.039,0.685 c -1.375,0.706 -3.296,2.907 -4.268,4.892 -2.397,4.89 -0.704,10.311 4.268,13.662 6.711,4.523 14,0.189 14,-8.326 0,-7.801 -7.729,-13.448 -14,-10.228 m 115.363,2.265 c -0.346,0.901 -0.167,2.099 0.398,2.664 1.63,1.63 4.739,0.531 4.739,-1.675 0,-2.543 -4.228,-3.358 -5.137,-0.989 m -90.934,4.552 c 0,1.663 0.706,1.951 4.785,1.951 3.892,0 4.786,-0.327 4.786,-1.75 -0.001,-1.395 -0.972,-1.791 -4.786,-1.951 -4.148,-0.175 -4.785,0.058 -4.785,1.75 m -21.916,0.93 c -0.721,1.167 1.17,5.021 2.463,5.021 1.636,0 2.136,-1.922 1.035,-3.979 -1.171,-2.189 -2.538,-2.595 -3.498,-1.042 m -183.4299957,3.415 c 0.23,0.217 3.982,0.666 8.3389997,0.998 7.668,0.583 23.56,4.213 24.578,5.613 0.275,0.378 2.75,0.988 5.5,1.355 2.75,0.367 5.15,1.111 5.333,1.654 0.184,0.542 1.534,0.989 3,0.992 1.467,0.003 4.242,0.43 6.167,0.948 1.925,0.519 6.38,1.197 9.899,1.507 3.52,0.311 9.285,1.234 12.812,2.052 7.14,1.656 13.141,1.947 7.289,0.354 -1.925,-0.524 -4.175,-1.227 -5,-1.561 -2.289,-0.928 -2.925,-1.061 -11.25,-2.349 -4.262,-0.66 -7.75,-1.497 -7.75,-1.86 0,-0.364 -1.013,-0.746 -2.25,-0.849 -1.237,-0.104 -7.2,-1.34 -13.25,-2.747 -6.05,-1.407 -14.825,-3.436 -19.5,-4.508 -7.159,-1.642 -25.2399997,-2.851 -23.9169997,-1.599 m 7.0489997,8.072 c 0.256,0.256 2.019,0.695 3.917,0.976 3.731,0.552 11.641,2.56 21.951,5.571 3.575,1.044 10.325,2.89 15,4.104 4.675,1.213 8.99,2.578 9.589,3.033 0.599,0.456 2.849,1.059 5,1.341 2.151,0.282 6.386,1.217 9.411,2.078 9.173,2.611 9.67,2.659 5.117,0.494 -2.411,-1.147 -6.911,-2.783 -10,-3.636 -3.09,-0.853 -6.517,-1.952 -7.617,-2.442 -2.711,-1.207 -15.071,-4.904 -20,-5.982 -2.2,-0.481 -5.8,-1.389 -8,-2.017 -10.383,-2.966 -26.081,-5.234 -24.368,-3.52"
     stroke="none"
     fill="#050606"
     fill-rule="evenodd"
     id="path2" />
  <path
     d="m 44.833334,144.45473 c -1.373,1.02 -1.563,2.244 -1.034,6.65 l 0.649,5.4 2.796,-5.4 c 3.307,-6.387 3.514,-7.9 1.081,-7.9 -0.995,0 -2.566,0.563 -3.492,1.25 m 4.505,8.488 -4.094,9.347 7.195,-0.292 c 3.957,-0.161 7.083,-0.63 6.945,-1.043 -0.138,-0.413 -0.25,-4.299 -0.25,-8.637 v -7.886 l -2.851,-0.418 c -2.738,-0.402 -3.014,-0.047 -6.945,8.929 m 18.87,7.094 c 0.602,17.141 1.208,19.158 5.123,17.062 3.807,-2.037 9.032,-15.697 10.355,-27.068 l 0.659,-5.673 -8.355,-0.327 -8.356,-0.326 0.574,16.332 m -7.063,-10.582 c 0.017,8.078 1.03,12.75 2.763,12.75 1.265,0 1.407,-1.105 0.864,-6.75 -0.357,-3.712 -0.924,-7.763 -1.26,-9 -1.091,-4.014 -2.378,-2.382 -2.367,3 m -39.676,-3.478 c -0.677,0.43 -1.306,4.093 -1.5,8.735 l -0.335,7.993 6.257,0.298 c 7.32,0.348 7.566,0.036 8.758,-11.097 l 0.718,-6.701 -6.367,0.015 c -3.501,0.009 -6.89,0.349 -7.531,0.757 m 15.665,4.985 c 0,3.166 -0.419,7.216 -0.93,9 -0.74,2.579 -0.638,3.243 0.5,3.243 1.134,0 1.43,-1.862 1.43,-9 0,-4.95 -0.225,-9 -0.5,-9 -0.275,0 -0.5,2.59 -0.5,5.757 m 48,-1.59 c 0,4.912 0.474,4.772 1.413,-0.417 0.429,-2.374 0.294,-3.75 -0.368,-3.75 -0.575,0 -1.045,1.875 -1.045,4.167 m -14.37,1.083 c -1.011,3.775 -0.705,5.75 0.891,5.75 1.866,0 3.963,-4.296 3.142,-6.436 -0.888,-2.314 -3.341,-1.897 -4.033,0.686 m -45.418,-0.062 c -1.687,1.687 -1.562,6.812 0.166,6.812 2.065,0 3.818,-2.601 3.449,-5.117 -0.389,-2.649 -1.935,-3.375 -3.615,-1.695 m 17.832,16.706 c -0.897,2.166 -1.007,5.042 -0.394,10.294 l 0.85,7.288 9.5,2.132 c 8.567,1.922 9.623,1.978 10.75,0.57 2.037,-2.543 1.523,-11.563 -0.949,-16.651 l -2.2,-4.527 h -7.1 c -3.906,0 -7.576,-0.475 -8.157,-1.056 -0.74,-0.74 -1.426,-0.159 -2.3,1.95 m -24.044,-0.898 c 0,1.644 4.687,6.004 6.455,6.004 2.019,0 5.782,-3.787 5.278,-5.312 -0.51,-1.55 -11.733,-2.212 -11.733,-0.692 m 14.078,2.19 c -3.014,6.81 -9.47,7.324 -13.672,1.088 l -2.156,-3.199 -0.687,6.068 c -0.377,3.337 -0.546,6.16 -0.375,6.274 0.172,0.114 4.362,0.97 9.312,1.901 4.95,0.931 10.013,1.968 11.25,2.304 2.11,0.573 2.249,0.308 2.239,-4.255 -0.006,-2.677 -0.284,-6.516 -0.617,-8.531 -0.792,-4.793 -3.526,-5.645 -5.294,-1.65 m 47.583,1.888 c -2.175,6.145 -5.617,9.926 -9.036,9.926 -1.923,0 -2.61,0.656 -3.12,2.976 -0.359,1.636 -0.374,3.427 -0.033,3.979 0.671,1.086 12.458,0.3 13.815,-0.921 0.433,-0.389 0.658,-5.308 0.5,-10.931 l -0.287,-10.223 -1.839,5.194 m -63.646,12.265 c 0.026,3.647 1.388,4.656 7.818,5.788 6.794,1.197 13.167,0.488 13.167,-1.465 0,-1.215 -3.474,-2.386 -15.25,-5.14 -5.643,-1.319 -5.75,-1.304 -5.735,0.817 m 25.985,6.054 c 0,1.119 0.911,1.607 3,1.607 1.65,0 3,-0.45 3,-1 0,-0.55 -0.638,-1 -1.418,-1 -0.78,0 -2.13,-0.273 -3,-0.607 -1.038,-0.398 -1.582,-0.055 -1.582,1 m -25,0.638 c 0,0.533 0.675,0.969 1.5,0.969 0.825,0 1.5,-0.177 1.5,-0.393 0,-0.216 -0.675,-0.652 -1.5,-0.969 -0.825,-0.316 -1.5,-0.139 -1.5,0.393 m 58,2.352 c 0,0.849 5.085,1.288 5.583,0.483 0.294,-0.476 -0.842,-0.866 -2.524,-0.866 -1.682,0 -3.059,0.173 -3.059,0.383 m -51,1.353 -6.5,0.344 v 5.21 c 0,2.865 -0.352,7.567 -0.783,10.448 l -0.783,5.237 2.598,-0.987 c 3.533,-1.343 11.807,-1.246 14.925,0.174 1.403,0.64 2.759,0.955 3.013,0.701 0.254,-0.253 0.764,-4.761 1.133,-10.016 l 0.672,-9.556 -3.287,-1.145 c -1.807,-0.63 -3.557,-1.058 -3.887,-0.95 -0.331,0.108 -3.526,0.35 -7.101,0.54 m 30,0.264 -8.5,0.5 8.282,2.384 c 4.555,1.312 8.527,2.141 8.825,1.842 0.299,-0.299 0.397,-1.597 0.218,-2.885 -0.318,-2.292 -0.504,-2.33 -8.825,-1.841 m 12.699,2.715 c 0.321,2.082 0.761,3.988 0.976,4.236 0.467,0.536 11.656,4.055 11.944,3.756 0.109,-0.114 0.352,-2.204 0.54,-4.645 0.377,-4.911 1.064,-4.481 -10.352,-6.484 l -3.692,-0.647 0.584,3.784 m -25.072,5.035 c -0.345,2.612 -0.893,6.368 -1.218,8.346 l -0.592,3.595 7.743,0.655 c 4.258,0.359 9.269,0.654 11.137,0.654 h 3.394 l -0.295,-6.645 -0.296,-6.645 -8,-2.331 c -11.116,-3.239 -11.132,-3.236 -11.873,2.371 m 24.373,6.643 v 5.607 h 6.393 c 6.765,0 7.607,-0.6 7.607,-5.423 0,-1.934 -0.827,-2.444 -5.75,-3.545 -3.162,-0.708 -6.312,-1.503 -7,-1.766 -0.908,-0.349 -1.25,1.052 -1.25,5.127"
     stroke="none"
     fill="#6bbae1"
     fill-rule="evenodd"
     id="path4" />
</svg>
