<?xml version="1.0" encoding="UTF-8" standalone="no"?>
<svg
   version="1.1"
   id="Layer_1"
   x="0px"
   y="0px"
   width="408.25513"
   viewBox="0 0 408.25513 407.84247"
   enable-background="new 0 0 512 512"
   xml:space="preserve"
   sodipodi:docname="lime.svg"
   height="407.84247"
   inkscape:version="1.2.1 (9c6d41e410, 2022-07-14)"
   xmlns:inkscape="http://www.inkscape.org/namespaces/inkscape"
   xmlns:sodipodi="http://sodipodi.sourceforge.net/DTD/sodipodi-0.dtd"
   xmlns="http://www.w3.org/2000/svg"
   xmlns:svg="http://www.w3.org/2000/svg"><defs
   id="defs21" /><sodipodi:namedview
   id="namedview19"
   pagecolor="#ffffff"
   bordercolor="#000000"
   borderopacity="0.25"
   inkscape:showpageshadow="2"
   inkscape:pageopacity="0.0"
   inkscape:pagecheckerboard="0"
   inkscape:deskcolor="#d1d1d1"
   showgrid="false"
   inkscape:zoom="1.6347656"
   inkscape:cx="203.69892"
   inkscape:cy="203.08722"
   inkscape:window-width="1920"
   inkscape:window-height="1017"
   inkscape:window-x="-8"
   inkscape:window-y="-8"
   inkscape:window-maximized="1"
   inkscape:current-layer="Layer_1" />
<path
   fill="#000000"
   opacity="1"
   stroke="none"
   d="m 3.7115924,241.23401 c -5.409939,-27.76956 -4.894928,-55.10122 1.473637,-82.12748 C 20.258353,95.140717 57.80177,48.699037 116.43482,19.472429 139.90877,7.7714478 165.09736,1.9615908 191.35497,0.41143976 236.91202,-2.2780862 279.0257,8.1506358 316.87806,33.687265 367.33198,67.725387 398.13135,115.021 406.14359,175.42 c 9.37372,70.66243 -12.50006,131.2394 -64.8663,179.83428 -31.2623,29.01083 -68.68088,45.98623 -111.20603,50.95361 C 172.91985,412.88376 121.17187,399.23777 76.30451,362.92804 37.489889,331.51658 12.96147,291.05179 3.7115924,241.23401 M 69.56163,323.04273 c 47.64304,54.50879 124.89911,74.65768 194.07381,50.61572 C 347.84089,344.39258 397.72309,257.36103 380.75986,169.30646 363.04371,77.343217 276.57541,14.269617 183.27695,25.272882 144.8306,29.8071 110.96723,44.970537 82.83027,71.366377 39.717261,111.81156 20.315665,161.94939 25.402754,221.05634 c 3.319397,38.56821 18.29615,72.29748 44.158876,101.98639 z"
   id="path2"
   style="fill:#00dd00;fill-opacity:1" />
<path
   fill="#000000"
   opacity="1"
   stroke="none"
   d="m 328.36484,145.58672 c 12.62259,-3.22501 24.6633,3.55054 28.07834,15.69974 7.83145,27.86091 7.9657,55.79671 0.44013,83.74885 -4.29172,15.94074 -19.59906,22.81186 -34.00696,14.78122 -18.75327,-10.45273 -37.23203,-21.39847 -55.81351,-32.15863 -3.16571,-1.83319 -6.44076,-3.55282 -9.34582,-5.74774 -11.82105,-8.93124 -12.59696,-27.9561 -0.26322,-35.69536 22.95322,-14.40281 46.39594,-28.07875 70.91104,-40.62808 z"
   id="path4"
   style="fill:#00dd00;fill-opacity:1" />
<path
   fill="#000000"
   opacity="1"
   stroke="none"
   d="m 152.55663,246.13743 c 5.65707,-3.24537 10.84221,-6.56531 17.37398,-6.63706 13.05879,-0.14337 23.33763,9.1135 23.46948,22.13062 0.24982,24.6633 0.25899,49.3327 0.007,73.99591 -0.14364,14.08111 -13.28613,24.64102 -26.97269,21.65963 -22.7214,-4.9494 -42.68234,-15.74691 -60.89012,-29.98602 -4.99611,-3.9071 -9.76019,-8.08316 -14.07129,-12.73474 -10.75814,-11.60776 -8.27136,-28.16019 5.42997,-36.14072 18.4266,-10.73275 36.88739,-21.40686 55.65327,-32.28762 z"
   id="path6"
   style="fill:#00dd00;fill-opacity:1" />
<path
   fill="#000000"
   opacity="1"
   stroke="none"
   d="m 296.34031,269.68744 c 5.66549,3.23395 11.10214,6.14154 16.33291,9.38144 12.31278,7.62656 15.22602,24.0828 5.24549,34.48889 -20.97141,21.86564 -46.23774,36.8436 -75.89862,43.66925 -13.46137,3.09775 -26.72483,-7.37579 -26.90232,-21.11816 -0.32031,-24.79788 -0.40201,-49.60837 0.0222,-74.40323 0.31009,-18.12774 18.94342,-27.92917 35.12381,-18.77212 15.34918,8.6867 30.51031,17.70575 46.07657,26.75393 z"
   id="path8"
   style="fill:#00dd00;fill-opacity:1" />
<path
   fill="#000000"
   opacity="1"
   stroke="none"
   d="m 270.4658,60.548297 c 17.07022,8.02331 32.07827,18.36871 45.26083,31.35071 12.0874,11.903453 10.65961,28.531373 -3.8107,37.198533 -20.70737,12.40289 -41.59387,24.52713 -62.69815,36.24017 -16.06351,8.91538 -34.09811,-2.12521 -34.16693,-20.50639 -0.0879,-23.49083 -0.0748,-46.982473 0.004,-70.473373 0.0596,-17.80495 14.70542,-28.144872 31.73914,-22.75673 7.94833,2.51426 15.85971,5.04696 23.67203,8.94708 z"
   id="path10"
   style="fill:#00dd00;fill-opacity:1" />
<path
   fill="#000000"
   opacity="1"
   stroke="none"
   d="m 109.7045,77.294477 c 17.4523,-12.63668 35.97532,-22.37574 56.81656,-26.73593 13.91266,-2.91066 26.63961,7.50897 26.84214,21.78646 0.34962,24.64643 0.406,49.306643 -0.0103,73.951003 -0.28093,16.63094 -17.09294,27.05681 -32.11891,19.78934 -11.51285,-5.56832 -22.35881,-12.51999 -33.47577,-18.90097 -10.10915,-5.80248 -20.23027,-11.58646 -30.26268,-17.51963 -15.02107,-8.88345 -17.04735,-25.41566 -4.7085,-37.808583 5.17833,-5.20101 10.74631,-9.9587 16.91745,-14.56169 z"
   id="path12"
   style="fill:#00dd00;fill-opacity:1" />
<path
   fill="#000000"
   opacity="1"
   stroke="none"
   d="m 91.11089,256.82764 c -4.96501,2.77323 -9.49849,5.67911 -14.96016,6.24994 -10.58163,1.10605 -20.59109,-5.1329 -23.76074,-15.87018 -5.264313,-17.83298 -7.453087,-36.07483 -5.770851,-54.73674 0.943941,-10.47156 2.531331,-20.78134 5.341911,-30.90312 3.97494,-14.31502 19.60611,-21.32811 32.53741,-14.09416 21.20548,11.86261 42.30309,23.93202 63.1926,36.34109 16.65131,9.89144 16.23862,30.64714 -0.56222,40.5157 -18.50806,10.87131 -37.12384,21.55924 -56.01795,32.49747 z"
   id="path14"
   style="fill:#00dd00;fill-opacity:1" />
<path
   fill="#000000"
   opacity="1"
   stroke="none"
   d="m 178.61909,195.60263 c 4.91146,-15.08288 19.24441,-20.02975 28.37362,-18.63713 14.56619,2.22203 24.3143,12.67633 24.27854,26.6487 -0.0323,12.58569 -7.46576,24.82929 -24.6514,27.29743 -12.26561,1.76153 -25.51297,-7.86982 -28.61366,-20.6904 -1.1707,-4.84055 -0.96151,-9.53638 0.6129,-14.6186 z"
   id="path16"
   style="fill:#00dd00;fill-opacity:1" />
</svg>
