<svg width="208" height="41" viewBox="0 0 41 41" fill="none" xmlns="http://www.w3.org/2000/svg">
<circle cx="20.4779" cy="20.4779" r="20.4779" fill="#0066AF"/>
<mask id="mask0_754_24134" style="mask-type:luminance" maskUnits="userSpaceOnUse" x="0" y="0" width="41" height="41">
<circle cx="20.4359" cy="20.5218" r="20.4359" fill="#fff"/>
</mask>
<g mask="url(#mask0_754_24134)">
<path d="M40.8718 0.0742188H0V40.946H40.8718V0.0742188Z" fill="url(#paint0_linear_754_24134)"/>
<path d="M20.4065 2.72949C10.641 2.72949 2.72461 10.6459 2.72461 20.4113C2.72461 30.1768 10.641 38.0932 20.4065 38.0932C30.1719 38.0932 38.0883 30.1768 38.0883 20.4113C38.0883 10.6459 30.1719 2.72949 20.4065 2.72949ZM20.4065 36.5133C11.5136 36.5133 4.30448 29.3043 4.30448 20.4113C4.30448 11.5184 11.5136 4.30937 20.4065 4.30937C29.2993 4.30937 36.5084 11.5188 36.5084 20.4113C36.5084 29.3039 29.2994 36.5133 20.4065 36.5133Z" fill="white"/>
<path d="M20.4063 4.48535C11.6108 4.48535 4.48071 11.6155 4.48071 20.411C4.48071 29.2065 11.6108 36.3366 20.4063 36.3366C29.2018 36.3366 36.332 29.2065 36.332 20.411C36.332 11.6155 29.2018 4.48535 20.4063 4.48535ZM35.6272 20.411C35.6272 20.9057 35.6037 21.3966 35.5567 21.8836L27.4432 20.457L35.5661 19.0458C35.606 19.4975 35.6264 19.9526 35.6272 20.411ZM33.1612 28.721C32.6369 28.9688 27.9803 31.2304 23.8464 35.2422C22.9784 35.4425 22.0945 35.566 21.2049 35.6111C26.3242 30.72 31.6636 28.3713 33.853 27.549C33.6396 27.9505 33.409 28.3411 33.1612 28.721ZM34.4314 26.3354C34.388 26.438 34.3432 26.5398 34.2975 26.6413C32.7009 27.1818 26.2005 29.6423 20.1768 35.6291C19.5215 35.6199 18.8675 35.5687 18.2188 35.4759C21.9063 31.8499 26.2154 29.4017 29.2502 27.9645C30.9983 27.1319 32.7984 26.4135 34.6393 25.8137C34.5732 25.9884 34.5045 26.1626 34.4314 26.3354ZM34.9273 24.9869C34.2072 25.2014 31.8873 25.9371 28.9636 27.3205C25.7765 28.8287 21.2068 31.4336 17.3682 35.3297C16.7478 35.2039 16.136 35.0392 15.5364 34.8363C20.107 30.5451 25.2324 27.9657 28.7742 26.5462C31.6778 25.3828 34.0066 24.7928 35.056 24.5588C35.0155 24.702 34.9721 24.8447 34.9273 24.9869ZM35.4467 22.7636C34.8698 22.8498 33.5382 23.0699 31.7485 23.4993L26.6261 22.5858L23.9833 21.0583L27.0341 20.5283L35.5428 22.0242C35.5167 22.2719 35.4846 22.5183 35.4467 22.7636ZM5.18548 20.411C5.18548 19.9282 5.20792 19.4492 5.25279 18.9739L10.5402 19.903L10.5187 21.0105L5.26237 21.9541C5.21125 21.4442 5.18562 20.9299 5.18548 20.411ZM11.0069 17.071H10.8458C10.8439 17.069 10.9439 17.07 11.0069 17.071H11.0069ZM11.0506 17.0716H11.057C11.3366 17.0167 11.4155 16.7315 11.4376 16.5615L14.0272 18.0737L11.0609 17.5691L11.0506 17.0716ZM10.7046 15.0784C10.6603 15.0785 10.6244 15.1144 10.6243 15.1586V15.6283L10.3248 15.6338C10.3248 15.6338 10.2738 15.629 10.2355 15.6964L6.75873 13.6659C7.06589 13.0438 7.41551 12.4437 7.8051 11.8697L10.7734 13.5915L10.7433 15.0786L10.7046 15.0784ZM11.3277 15.6346L11.0424 15.6293V15.1586C11.0423 15.1144 11.0064 15.0785 10.9622 15.0784H10.9215L10.9058 13.6688L15.5502 16.363L17.5193 18.6682L14.4215 18.1413L11.4467 16.4042L11.4585 15.9157C11.4588 15.6223 11.3277 15.6346 11.3277 15.6346H11.3277ZM17.2226 14.855L18.3028 17.7961L15.6423 16.2526L9.83857 9.45812C10.3596 8.95462 10.9158 8.4888 11.5029 8.06416L17.2226 14.855ZM11.617 7.98121C12.4168 7.41444 13.2699 6.92673 14.1641 6.52495L17.0803 14.4672L11.617 7.98121ZM29.4983 8.2011C30.0553 8.61755 30.5832 9.07141 31.0785 9.55954L25.4051 16.2436L22.8327 17.7159L23.904 14.7629L29.4983 8.2011ZM24.0406 14.3847L26.8571 6.6215C27.746 7.03715 28.5923 7.53837 29.3841 8.11808L24.0406 14.3847ZM34.4314 14.4864C34.7295 15.1909 34.9737 15.9169 35.162 16.6583L26.9796 18.1194L34.1934 13.9548C34.2755 14.1303 34.3555 14.3073 34.4314 14.4866V14.4864ZM9.75463 25.4949L10.4391 25.0937L10.4332 25.3984C10.1987 25.4302 9.97254 25.4625 9.75463 25.4951V25.4949ZM11.2219 25.2984L11.2083 24.643L14.396 22.7746L17.4814 22.239L15.4673 24.5875L14.7313 25.0033C13.443 25.0682 12.2653 25.1748 11.2219 25.2988V25.2984ZM14.0499 20.5195L17.0619 21.0488L14.3468 22.6402L11.178 23.1904L11.1333 21.0432L14.0499 20.5195ZM11.1303 20.901L11.1117 20.0038L13.6467 20.4493L11.1303 20.901ZM21.6015 25.1378C21.4417 25.1186 21.2792 25.1009 21.1117 25.0846L20.6048 23.7364L20.9489 22.8004L21.6015 23.5854V25.1378ZM21.7424 23.755L23.0797 25.3638C22.6242 25.2811 22.1926 25.2119 21.7424 25.1551V23.755ZM15.0441 24.9887L15.198 24.9018L15.1264 24.9853C15.099 24.9863 15.0714 24.9873 15.0441 24.9887ZM15.558 24.6984L18.2734 23.1645L17.6134 24.9376C16.8184 24.934 16.0522 24.9486 15.3188 24.9772L15.558 24.6984ZM18.2061 24.9435C18.0576 24.9411 17.91 24.9394 17.7635 24.9386L18.4639 23.0568L19.3288 22.5684V23.5562L18.21 24.9435H18.2061ZM20.4063 21.26C20.0687 21.26 19.7642 21.0565 19.635 20.7446C19.5058 20.4326 19.5772 20.0735 19.816 19.8347C20.0548 19.596 20.4139 19.5245 20.7259 19.6538C21.0379 19.783 21.2412 20.0875 21.2412 20.4252C21.2406 20.8859 20.8671 21.2593 20.4063 21.2598V21.26ZM19.4854 21.475C19.5376 21.521 19.5931 21.563 19.6514 21.6007L19.6933 21.7121L19.4698 21.7509V21.4719L19.4854 21.475ZM19.7438 21.8464L19.8448 22.115L19.4698 22.3269V21.894L19.7438 21.8464ZM19.8847 21.8219L20.0896 21.7866C20.0966 21.7882 20.1037 21.7905 20.1107 21.792L20.2086 21.9098L19.969 22.0453L19.8847 21.8219ZM20.3165 21.8192C20.3323 21.8202 20.348 21.8212 20.3639 21.8217L20.333 21.8391L20.3165 21.8192ZM20.5561 21.8749L20.6441 21.9248L20.5264 22.0709L20.425 21.9489L20.5561 21.8749ZM20.6993 21.794L20.7051 21.7907C20.7252 21.7863 20.7448 21.7806 20.7645 21.7754L20.7337 21.8136L20.6993 21.794ZM21.7141 19.9353C21.7102 19.9248 21.7071 19.9142 21.7025 19.9036L21.8558 19.9921L21.8276 20.0697L21.7141 19.9353ZM19.0781 20.86L18.9261 20.7713L19.0281 20.6523C19.0394 20.7227 19.0561 20.7921 19.0781 20.86ZM19.0721 21.0197L18.9884 21.2444L18.5816 21.173L18.8329 20.88L19.0721 21.0197ZM19.1888 21.1104C19.2268 21.1779 19.2704 21.2422 19.319 21.3025L19.1296 21.2693L19.1888 21.1104ZM19.329 21.4474V21.7749L18.9145 21.847L19.0796 21.4029L19.329 21.4474ZM19.329 21.9183V22.4063L18.5405 22.8517L18.8576 22.0002L19.329 21.9183ZM19.47 22.4886L19.8953 22.2485L20.0503 22.6615L19.4698 23.3813L19.47 22.4886ZM20.0194 22.1785L20.3005 22.0198L20.4364 22.1832L20.1532 22.5344L20.0194 22.1785ZM20.5283 22.2938L20.8454 22.6749L20.5295 23.5343L20.2111 22.6875L20.5283 22.2938ZM20.6185 22.1819L20.769 21.9954L21.0386 22.1485L20.9012 22.522L20.6185 22.1819ZM20.8586 21.8842L20.9881 21.7237L21.182 21.7583L21.0879 22.0143L20.8586 21.8842ZM21.148 21.6093C21.1861 21.5853 21.2229 21.5597 21.2583 21.5323L21.2654 21.531L21.2312 21.6242L21.148 21.6093ZM21.5051 21.2884C21.5087 21.2838 21.5121 21.2791 21.5155 21.2743L21.6017 21.2245V21.3294L21.4823 21.3501L21.5051 21.2884ZM21.7427 20.8393C21.7636 20.7699 21.779 20.699 21.789 20.6272L21.8841 20.8988L21.7427 20.9805V20.8393ZM21.8164 20.2793L21.7981 20.2857C21.7969 20.2724 21.7941 20.2596 21.7925 20.2465L21.8997 20.3738L21.8644 20.4156L21.8164 20.2793ZM21.9332 20.1948L21.9806 20.0641L22.1026 20.1346L21.9921 20.2647L21.9332 20.1948ZM22.0294 19.9296L22.1251 19.6656L22.4519 19.7231L22.1953 20.0254L22.0294 19.9296ZM21.9054 19.8579L21.7216 19.7517V19.5947L21.9839 19.6409L21.9054 19.8579ZM21.5807 19.6681C21.5579 19.6329 21.5334 19.5989 21.5077 19.5659L21.5093 19.5653L21.5062 19.5568L21.5808 19.5699L21.5807 19.6681ZM21.4503 19.4039L21.3975 19.2597L21.5812 19.227V19.4268L21.4503 19.4039ZM21.2727 19.3294C21.261 19.3201 21.2488 19.3113 21.2368 19.3025V19.3006L21.2331 19.2999C21.2292 19.297 21.2253 19.2939 21.2212 19.291L21.2564 19.2848L21.2727 19.3294ZM20.749 19.0709L20.7656 19.0614L20.7804 19.079C20.77 19.0757 20.7595 19.0732 20.749 19.0706V19.0709ZM19.6554 19.2471C19.5963 19.2849 19.5401 19.3271 19.4873 19.3734L19.4866 19.1456L19.6807 19.1786L19.6554 19.2471ZM19.1748 19.763L19.1185 19.6099L19.2958 19.578C19.2506 19.6364 19.2102 19.6982 19.1748 19.7629V19.763ZM19.0657 19.8747L18.8455 20.0035L18.5902 19.7046L18.9779 19.6351L19.0657 19.8747ZM19.063 20.0397C19.0468 20.0969 19.0342 20.1551 19.0254 20.2139L18.9388 20.1124L19.063 20.0397ZM19.0084 20.4111C19.0084 20.4158 19.0077 20.4204 19.0077 20.4252C19.0077 20.4361 19.0091 20.4467 19.0094 20.4576L18.8022 20.6992L18.3693 20.4464L18.8153 20.185L19.0084 20.4111ZM18.7089 20.8078L18.42 21.1447L17.4642 20.9766L18.2297 20.528L18.7089 20.8078ZM18.3134 21.269L17.6255 22.0711L14.743 22.5715L17.2765 21.0866L18.3134 21.269ZM18.4747 21.2972L18.9382 21.3787L18.7534 21.8751L17.8437 22.033L18.4747 21.2972ZM18.6964 22.028L18.3498 22.9593L15.8273 24.3841L17.6995 22.2012L18.6964 22.028ZM19.3288 23.7806V24.9716C19.0369 24.961 18.7241 24.9529 18.3885 24.9466L19.3288 23.7806ZM19.4698 23.6058L20.1079 22.8145L20.4545 23.7364L19.9893 25.0012C19.823 24.9922 19.6497 24.9841 19.4696 24.977L19.4698 23.6058ZM20.5304 23.9383L20.9557 25.0697C20.6973 25.0465 20.4261 25.0265 20.1366 25.0095L20.5304 23.9383ZM21.0051 22.6471L21.1626 22.2187L21.6015 22.4679V23.3646L21.0051 22.6471ZM21.212 22.0846L21.3228 21.7831L21.6015 21.8329V22.3058L21.212 22.0846ZM21.3722 21.6488L21.4259 21.5026L21.6015 21.4721V21.6896L21.3722 21.6488ZM21.7424 21.4476L22.0572 21.3929L22.1982 21.7961L21.7422 21.7148L21.7424 21.4476ZM21.7424 21.3045V21.1424L21.9313 21.0334L22.0099 21.2577L21.7424 21.3045ZM22.0555 20.962L22.2841 20.83L22.5635 21.1618L22.1509 21.2337L22.0555 20.962ZM22.0081 20.8266L21.9179 20.5693L21.9915 20.4826L22.1919 20.7205L22.0081 20.8266ZM22.084 20.3736L22.2265 20.2058L22.6547 20.4533L22.3158 20.6489L22.084 20.3736ZM22.3192 20.0967L22.6126 19.7509L23.5775 19.9205L22.7956 20.3719L22.3192 20.0967ZM22.7183 19.6264L23.3216 18.9157L26.2122 18.3995L23.7675 19.8108L22.7183 19.6264ZM22.5574 19.5982L22.1737 19.5307L22.3328 19.0923L23.1036 18.9547L22.5574 19.5982ZM22.0327 19.5059L21.7217 19.4512V19.2014L22.1722 19.121L22.0327 19.5059ZM21.7221 19.0582L21.7226 18.5134L22.5684 18.0294L22.228 18.9678L21.7221 19.0582ZM21.5811 19.0833L21.3486 19.1249L21.2284 18.7964L21.582 18.5941L21.5811 19.0833ZM21.2076 19.1501L21.049 19.1783L20.8902 18.9898L21.1042 18.8673L21.2076 19.1501ZM20.7979 18.8803L20.5967 18.6414L20.894 18.2927L21.0551 18.7331L20.7979 18.8803ZM20.6736 18.9515L20.5317 19.0327C20.4967 19.0296 20.4613 19.0278 20.4254 19.0273L20.3197 18.9661L20.5038 18.7501L20.6736 18.9515ZM20.1959 18.8942L19.9822 18.7701L20.1464 18.3256L20.4119 18.6408L20.1959 18.8942ZM20.1029 19.0032L20.0403 19.0767C20.0249 19.081 20.0089 19.0838 19.9937 19.0887L19.8721 19.0681L19.9326 18.9044L20.1029 19.0032ZM19.7308 19.0439L19.4866 19.0024L19.4856 18.6451L19.8088 18.8326L19.7308 19.0439ZM19.3455 18.9785L18.8566 18.8953L18.5697 18.1139L19.3444 18.5632L19.3455 18.9785ZM19.346 19.1215L19.3469 19.4257L19.0697 19.4755L18.9127 19.0478L19.346 19.1215ZM18.9288 19.5007L18.4848 19.5804L17.8798 18.8721L18.7526 19.0206L18.9288 19.5007ZM18.324 19.6093L17.2628 19.7996L14.7679 18.3425L17.6631 18.835L18.324 19.6093ZM18.4298 19.7335L18.7222 20.0759L18.2296 20.3649L17.4501 19.9096L18.4298 19.7335ZM18.0901 20.4464L17.2497 20.9389L14.4527 20.4474L17.2365 19.9477L18.0901 20.4464ZM13.9998 22.8436L11.2049 24.4817L11.181 23.333L13.9998 22.8436ZM23.296 25.4034L21.7424 23.5342V22.5476L22.6404 23.0572L23.474 25.4368C23.4141 25.4256 23.3548 25.4145 23.296 25.4034ZM21.7424 22.3858V21.858L22.2519 21.9489L22.5695 22.8553L21.7424 22.3858ZM22.4112 21.9771L23.3984 22.1532L25.29 24.3994L22.7558 22.961L22.4112 21.9771ZM22.3576 21.8243L22.1979 21.3683L22.6687 21.2865L23.2566 21.9847L22.3576 21.8243ZM22.8293 21.2586L23.7667 21.0957L26.2188 22.5129L23.4735 22.0234L22.8293 21.2586ZM22.7243 21.1338L22.4081 20.7583L22.7957 20.5346L23.5764 20.9857L22.7243 21.1338ZM22.9365 20.4533L23.7937 19.9584L26.6246 20.4561L23.793 20.9483L22.9365 20.4533ZM23.9837 19.8487L26.6204 18.3264L35.1951 16.7952C35.3644 17.489 35.4843 18.1939 35.5539 18.9046L27.034 20.3846L23.9837 19.8487ZM26.5712 18.192L23.4648 18.7467L25.4962 16.3537L33.0975 12.0037C33.4845 12.5865 33.8307 13.1955 34.1335 13.8262L26.5712 18.192ZM23.2469 18.7857L22.3883 18.939L22.7577 17.9209L25.1366 16.5596L23.2469 18.7857ZM22.6428 17.8241L21.7229 18.3506L21.7238 17.3188L23.6424 15.0688L22.6428 17.8241ZM21.5818 18.4314L21.1788 18.6619L20.9987 18.1693L21.5827 17.4843L21.5818 18.4314ZM20.9431 18.0173L20.6031 17.0882L21.5858 14.4277L21.583 17.2671L20.9431 18.0173ZM20.838 18.1405L20.5043 18.5319L20.2022 18.1736L20.5277 17.2926L20.838 18.1405ZM20.098 18.0492L19.4817 17.3176L19.4727 14.4094L20.4529 17.0882L20.098 18.0492ZM20.0416 18.2013L19.8584 18.6982L19.4849 18.4816L19.4822 17.5372L20.0416 18.2013ZM19.3439 18.3997L18.4937 17.9064L17.4888 15.1713L19.3406 17.3697L19.3439 18.3997ZM18.3789 18.003L18.6965 18.8678L17.7368 18.7046L15.9185 16.5756L18.3789 18.003ZM14.3732 18.2754L17.0483 19.8382L14.0493 20.3766L11.1084 19.8598L11.0637 17.7127L14.3732 18.2754ZM10.5433 19.7604L5.26625 18.8332C5.33692 18.1437 5.45503 17.4599 5.61976 16.7866L10.5845 17.6309L10.5433 19.7604ZM10.5162 21.1542L10.4739 23.3129L5.6476 24.1509C5.477 23.4748 5.35353 22.7877 5.27809 22.0945L10.5162 21.1542ZM10.4713 23.4564L10.4426 24.9286L9.37702 25.5532C7.8013 25.802 6.72977 26.055 6.31043 26.1611C6.06099 25.551 5.85169 24.9252 5.68389 24.2877L10.4713 23.4564ZM24.7746 25.6968C24.3614 25.6122 23.9865 25.5365 23.6344 25.468L22.8267 23.1633L25.5514 24.7099L25.9916 25.2327C25.5957 25.3777 25.19 25.5324 24.7744 25.6968H24.7746ZM26.1327 25.1813L25.9046 24.9104L26.2852 25.1265C26.2341 25.1448 26.1838 25.1627 26.1328 25.1813H26.1327ZM26.4602 25.0637L25.6432 24.5999L23.6155 22.192L26.5772 22.7202L29.1336 24.1976C28.5596 24.3667 27.9622 24.5528 27.3469 24.7582C27.059 24.8543 26.7634 24.9561 26.46 25.0637H26.4602ZM29.3203 24.1429L26.9842 22.7929L31.409 23.5822C30.7625 23.7412 30.0619 23.9275 29.3203 24.1429ZM33.0192 11.8863L25.7643 16.0381L31.1794 9.65884C31.8616 10.3415 32.4777 11.0873 33.0192 11.8862V11.8863ZM26.7287 6.56174L23.7796 14.691L21.7241 17.1013L21.7272 14.0447L24.764 5.82335C25.2962 5.98208 25.8192 6.1699 26.3308 6.38597C26.4646 6.44256 26.597 6.50148 26.7287 6.56167V6.56174ZM21.728 13.6368L21.7362 5.24812C22.7154 5.33185 23.6841 5.5111 24.6285 5.78332L21.728 13.6368ZM21.5956 5.236L21.5866 14.0196L20.5283 16.8838L19.4718 13.9958L19.4465 5.22092C19.7649 5.20125 20.0848 5.19026 20.4063 5.19026C20.8051 5.19026 21.2014 5.20539 21.5952 5.23593L21.5956 5.236ZM19.3297 13.6073L16.4415 5.71186C17.3785 5.45947 18.3376 5.29794 19.3056 5.22952L19.3297 13.6073ZM16.3047 5.74851L19.3309 14.0209L19.34 17.1497L17.3464 14.7831L14.2934 6.46836C14.3562 6.4408 14.4187 6.41275 14.4819 6.38597C15.0753 6.1349 15.6842 5.92198 16.3047 5.74851ZM9.64356 9.6482C9.67443 9.61733 9.706 9.58745 9.73715 9.55658L15.2745 16.0393L10.904 13.5041L10.8829 11.5991H10.8138L10.7765 13.4301L7.88538 11.7531C8.40721 11.0002 8.99564 10.2958 9.64356 9.6482ZM6.69573 13.7922L10.198 15.8375C10.1957 15.8607 10.1941 15.8857 10.1941 15.9146L10.2066 16.4325C10.2066 16.4325 10.1925 16.9917 10.5958 17.071L10.5877 17.4887L5.65324 16.6493C5.84123 15.9111 6.08474 15.1881 6.38168 14.4866C6.48068 14.252 6.58536 14.0206 6.69573 13.7924V13.7922ZM13.0792 33.756C17.5929 29.375 23.4096 26.8173 27.5542 25.4323C30.0854 24.5817 32.6805 23.9347 35.3147 23.4973C35.2942 23.5968 35.2731 23.6962 35.2507 23.7953C34.4202 23.9649 31.8791 24.5451 28.5306 25.8851C24.8608 27.3539 19.5196 30.0486 14.7994 34.566C14.6932 34.5237 14.5874 34.481 14.4822 34.4364C14.0032 34.2336 13.5349 34.0066 13.0792 33.756ZM31.1691 31.1741C29.7827 32.5644 28.1395 33.6723 26.3308 34.4364C26.0056 34.5739 25.677 34.6994 25.3449 34.8128C27.996 32.4568 30.7031 30.8256 32.2364 29.9895C31.9013 30.4024 31.5451 30.7977 31.1691 31.1738V31.1741Z" fill="white"/>
<path fill-rule="evenodd" clip-rule="evenodd" d="M2.72485 20.4456C2.72485 10.662 10.641 2.73047 20.4064 2.73047C30.1717 2.73047 38.0885 10.662 38.0885 20.4456C38.0885 30.2292 30.1724 38.1608 20.4064 38.1608C10.6404 38.1608 2.72485 30.2292 2.72485 20.4456ZM4.30479 20.4456C4.30479 29.3525 11.5142 36.5779 20.407 36.5779C29.2999 36.5779 36.5092 29.355 36.5092 20.4456C36.5092 11.5362 29.2999 4.31335 20.407 4.31335C11.5142 4.31335 4.30479 11.5362 4.30479 20.4456Z" fill="white"/>
<path fill-rule="evenodd" clip-rule="evenodd" d="M20.44 19.6348C19.9925 19.6348 19.6297 19.9976 19.6297 20.4451C19.6297 20.8927 19.9925 21.2554 20.44 21.2554C20.8875 21.2554 21.2503 20.8927 21.2503 20.4451C21.2503 19.9976 20.8875 19.6348 20.44 19.6348ZM18.53 20.4451C18.53 19.3903 19.3852 18.5352 20.44 18.5352C21.4949 18.5352 22.35 19.3903 22.35 20.4451C22.35 21.5 21.4949 22.3551 20.44 22.3551C19.3852 22.3551 18.53 21.5 18.53 20.4451Z" fill="white"/>
</g>


<defs>
<linearGradient id="paint0_linear_754_24134" x1="20.4359" y1="0.0742188" x2="20.4359" y2="40.946" gradientUnits="userSpaceOnUse">
<stop stop-color="#0066AF"/>
<stop offset="1" stop-color="#0066AF"/>
</linearGradient>
</defs>
</svg>
