<svg version="1.1" id="Layer_1" xmlns="http://www.w3.org/2000/svg" xmlns:xlink="http://www.w3.org/1999/xlink" x="0px" y="0px"
	 width="100%" viewBox="0 0 225 225" enable-background="new 0 0 225 225" xml:space="preserve">
<path fill="#F46C63" opacity="1.000000" stroke="none" 
	d="
M147.000000,226.000000 
	C98.000000,226.000000 49.500008,226.000000 1.000006,226.000000 
	C1.000004,151.000000 1.000004,76.000015 1.000002,1.000017 
	C75.999992,1.000011 150.999985,1.000011 225.999969,1.000005 
	C225.999985,75.999985 225.999985,150.999969 226.000000,225.999969 
	C199.833328,226.000000 173.666672,226.000000 147.000000,226.000000 
M82.821411,103.659775 
	C76.972137,89.336571 71.168190,74.994431 65.204361,60.719090 
	C64.599800,59.271954 63.060265,57.189762 61.906586,57.158199 
	C51.688637,56.878685 41.459839,56.995831 31.215219,56.995831 
	C31.215219,58.040607 31.114206,58.406387 31.229538,58.681469 
	C46.152218,94.273216 61.059437,129.871643 76.152542,165.391068 
	C76.708733,166.699951 79.067474,167.958801 80.624397,168.007019 
	C88.948395,168.264801 97.291786,167.927094 105.613228,168.223404 
	C109.337769,168.356033 111.133873,167.198349 112.589287,163.693237 
	C124.646408,134.655807 136.923523,105.709717 149.137375,76.737381 
	C151.827774,70.355499 154.531219,63.979115 157.491913,56.977654 
	C148.147812,56.977654 139.666367,57.146881 131.197342,56.896282 
	C127.696648,56.792694 125.970154,57.856750 124.603630,61.199333 
	C117.238564,79.214584 109.591820,97.114769 102.026207,115.047882 
	C99.671028,120.630478 97.265762,126.191940 94.566628,132.503906 
	C90.488289,122.540085 86.773735,113.465019 82.821411,103.659775 
M187.250443,166.924484 
	C196.168106,160.202057 199.119812,149.685577 194.659897,140.525787 
	C190.596283,132.179916 180.434479,127.770683 170.863113,130.468994 
	C163.597092,132.517395 158.635254,137.115494 157.011169,144.701981 
	C155.223343,153.053513 157.235962,160.370407 164.112320,165.670944 
	C171.108521,171.063858 178.768372,171.375916 187.250443,166.924484 
z"/>
<path fill="#FFFEFE" opacity="1.000000" stroke="none" 
	d="
M82.940292,104.024872 
	C86.773735,113.465019 90.488289,122.540085 94.566628,132.503906 
	C97.265762,126.191940 99.671028,120.630478 102.026207,115.047882 
	C109.591820,97.114769 117.238564,79.214584 124.603630,61.199333 
	C125.970154,57.856750 127.696648,56.792694 131.197342,56.896282 
	C139.666367,57.146881 148.147812,56.977654 157.491913,56.977654 
	C154.531219,63.979115 151.827774,70.355499 149.137375,76.737381 
	C136.923523,105.709717 124.646408,134.655807 112.589287,163.693237 
	C111.133873,167.198349 109.337769,168.356033 105.613228,168.223404 
	C97.291786,167.927094 88.948395,168.264801 80.624397,168.007019 
	C79.067474,167.958801 76.708733,166.699951 76.152542,165.391068 
	C61.059437,129.871643 46.152218,94.273216 31.229538,58.681469 
	C31.114206,58.406387 31.215219,58.040607 31.215219,56.995831 
	C41.459839,56.995831 51.688637,56.878685 61.906586,57.158199 
	C63.060265,57.189762 64.599800,59.271954 65.204361,60.719090 
	C71.168190,74.994431 76.972137,89.336571 82.940292,104.024872 
z"/>
<path fill="#FFFDFD" opacity="1.000000" stroke="none" 
	d="
M186.922455,167.100906 
	C178.768372,171.375916 171.108521,171.063858 164.112320,165.670944 
	C157.235962,160.370407 155.223343,153.053513 157.011169,144.701981 
	C158.635254,137.115494 163.597092,132.517395 170.863113,130.468994 
	C180.434479,127.770683 190.596283,132.179916 194.659897,140.525787 
	C199.119812,149.685577 196.168106,160.202057 186.922455,167.100906 
z"/>
</svg>