<?xml version="1.0"?>
<svg xmlns="http://www.w3.org/2000/svg" xmlns:xlink="http://www.w3.org/1999/xlink" viewBox="0 0 18 19" version="1.1">
  <path d="M0 2.25C0 1.00736 1.00736 0 2.25 0H15.75C16.9926 0 18 1.00736 18 2.25V15.75C18 16.9926 16.9926 18 15.75 18H2.25C1.00736 18 0 16.9926 0 15.75V2.25Z" fill="#007AC9"/>
  <path d="M2.25 10.4757C2.25 10.6926 2.32451 10.8759 2.47355 11.0256C2.62258 11.1752 2.80977 11.25 3.03514 11.25C3.24596 11.25 3.42589 11.1733 3.57492 11.0199C3.72395 10.8666 3.79847 10.6852 3.79847 10.4757V8.30985H5.5105C6.52101 8.30985 7.35521 8.0424 8.01313 7.50748C8.65049 6.98928 8.97912 6.26924 8.99904 5.34733L9 5.23504C9 4.3298 8.70194 3.60599 8.10582 3.06359C7.50969 2.52119 6.70639 2.25 5.69588 2.25H3.03514C2.80977 2.25 2.62258 2.32668 2.47355 2.48005C2.32451 2.63342 2.25 2.82232 2.25 3.04676V10.4757ZM3.79847 6.90711V3.69763H5.55412C6.13571 3.69763 6.59551 3.83042 6.93356 4.09601C7.25691 4.35005 7.42561 4.72216 7.43967 5.21235L7.44063 5.30237C7.44063 5.77369 7.27161 6.15898 6.93356 6.45823C6.59551 6.75748 6.13571 6.90711 5.55412 6.90711H3.79847Z" fill="white"/>
  <path d="M15.8316 11.1159C15.8156 10.8769 15.5606 10.7016 15.3056 10.7175L14.4769 10.8769L13.9031 9.85689C13.6641 9.41064 13.4728 9.20345 12.8991 9.10782C12.2775 9.02814 11.7675 8.96439 10.875 8.96439C9.96657 8.96439 9.50438 9.02814 8.88282 9.10782C8.30907 9.20345 8.11782 9.41064 7.87875 9.85689L7.30501 10.8769L6.46032 10.7175C6.18938 10.7016 5.95032 10.8769 5.93438 11.1159C5.9025 11.355 6.06188 11.5463 6.30094 11.61L6.89063 11.7534C6.47625 12.0563 6.30094 12.63 6.30094 13.0284V14.4947C6.30094 14.8772 6.58782 15.2119 7.03407 15.2916V16.1363C7.03407 16.2638 7.14563 16.3275 7.27313 16.3275H8.11782C8.22938 16.3275 8.34094 16.2638 8.34094 16.1363V15.435C9.02625 15.4669 9.93469 15.5306 10.875 15.5306C11.7994 15.5306 12.7397 15.4669 13.4091 15.435V16.1363C13.4091 16.2638 13.5206 16.3275 13.6322 16.3275H14.4769C14.6044 16.3275 14.7159 16.2638 14.7159 16.1363V15.2916C15.1781 15.2119 15.465 14.8772 15.465 14.4947V13.0284C15.465 12.63 15.3056 12.0563 14.8913 11.7534L15.4491 11.61C15.7041 11.5463 15.8634 11.355 15.8316 11.1159ZM8.86688 13.2994C8.86688 13.5225 8.67563 13.6659 8.4525 13.6659H7.56001C7.33688 13.6659 7.12969 13.5225 7.12969 13.2994V12.8531L8.86688 13.0284V13.2994ZM8.38875 10.0641C8.51626 9.79314 8.65969 9.68157 8.94657 9.61782C9.50438 9.50626 9.99844 9.47439 10.875 9.47439C11.7516 9.47439 12.2775 9.50626 12.8353 9.61782C13.1222 9.68157 13.2656 9.79314 13.3931 10.0641L14.1263 11.5622C13.0744 11.7216 11.9906 11.7534 10.9388 11.7534C9.82313 11.7534 8.61188 11.6897 7.65563 11.5622L8.38875 10.0641ZM14.6681 13.2994C14.6681 13.5225 14.4609 13.6659 14.2378 13.6659H13.3772C13.1541 13.6659 12.9628 13.5225 12.9628 13.2994V13.0284L14.6681 12.8531V13.2994Z" fill="white"/>
</svg>
