<svg version="1.1" id="Layer_1" xmlns="http://www.w3.org/2000/svg" xmlns:xlink="http://www.w3.org/1999/xlink" x="0px" y="0px"
	 width="100%" viewBox="0 0 300 300" enable-background="new 0 0 300 300" xml:space="preserve">
<path fill="#32A600" opacity="1.000000" stroke="none" 
	d="
M142.000000,301.000000 
	C94.666664,301.000000 47.833332,301.000000 1.000000,301.000000 
	C1.000000,201.000000 1.000000,101.000000 1.000000,1.000000 
	C101.000000,1.000000 201.000000,1.000000 301.000000,1.000000 
	C301.000000,101.000000 301.000000,201.000000 301.000000,301.000000 
	C248.166672,301.000000 195.333328,301.000000 142.000000,301.000000 
M171.263199,200.573166 
	C155.618927,198.031860 142.216827,191.207352 131.644333,179.319534 
	C129.160553,176.526764 127.481522,173.018265 125.432259,169.839035 
	C125.797356,169.461945 126.162445,169.084869 126.527542,168.707779 
	C132.480942,169.976273 138.383850,171.618881 144.398880,172.430817 
	C155.011032,173.863312 165.669891,175.348297 176.349854,175.762192 
	C186.052902,176.138245 195.424606,167.337906 197.817810,156.638092 
	C201.027863,142.286224 199.739990,127.805565 198.009796,113.439095 
	C196.710571,102.651009 192.329651,92.988762 184.684860,85.036255 
	C174.021866,73.944038 161.487534,72.010643 148.040680,79.459427 
	C136.494003,85.855621 129.423355,96.091957 125.447411,108.219467 
	C122.316032,117.770874 120.590691,127.783241 118.112045,138.128326 
	C112.244850,138.876114 107.192719,134.616150 101.398430,133.186188 
	C98.102203,132.372696 97.216949,130.507538 96.867760,127.214462 
	C95.691719,116.123650 91.408585,106.525902 81.003288,101.113785 
	C73.812523,97.373634 66.239960,94.367546 59.262737,91.224747 
	C57.250862,94.407242 55.888481,99.072845 53.546558,99.631393 
	C50.619686,100.329468 46.883450,97.658897 43.504951,96.419899 
	C42.728081,96.134987 41.989872,95.746330 41.225822,95.424545 
	C37.123466,93.696800 33.693501,94.641159 32.439404,98.065887 
	C30.980919,102.048790 33.151844,104.295616 36.524197,105.917458 
	C41.171173,108.152298 45.769733,110.487793 50.770176,112.969299 
	C48.980457,118.418396 47.206295,123.820114 45.274158,129.702805 
	C40.866711,127.740639 37.138184,125.998573 33.343086,124.416161 
	C30.087587,123.058746 26.809082,123.087837 25.339209,126.794266 
	C23.983788,130.212082 24.860853,133.250015 28.695387,134.993393 
	C32.812321,136.865189 36.793648,139.035202 40.843628,141.079880 
	C39.878090,144.601395 39.012703,147.757660 38.046112,151.283035 
	C43.609116,154.138382 49.042747,156.956299 54.502281,159.723099 
	C63.775269,164.422531 73.062363,164.963409 81.957458,159.014343 
	C86.766472,155.798065 91.153008,151.718124 96.291481,158.298798 
	C96.387070,158.421219 96.562279,158.500610 96.716225,158.555557 
	C101.808090,160.372665 106.794296,162.639511 112.024033,163.875732 
	C117.900917,165.264923 119.234810,168.799744 120.291893,174.304581 
	C124.805748,197.810822 136.490921,215.996796 160.301117,224.189575 
	C170.637405,227.746155 181.649826,228.784103 191.963531,226.477051 
	C204.335831,223.709518 216.022125,218.182388 226.159943,209.976349 
	C250.870850,189.974106 261.515869,163.051193 264.890259,132.122543 
	C263.850586,132.702850 262.698914,132.950012 262.300568,133.635147 
	C260.365936,136.962814 258.931000,140.610947 256.773956,143.773819 
	C249.892044,153.864731 243.632187,164.560638 235.557907,173.619843 
	C218.863632,192.350540 198.407822,203.692978 171.263199,200.573166 
z"/>
<path fill="#FCFDFB" opacity="1.000000" stroke="none" 
	d="
M171.704803,200.643616 
	C198.407822,203.692978 218.863632,192.350540 235.557907,173.619843 
	C243.632187,164.560638 249.892044,153.864731 256.773956,143.773819 
	C258.931000,140.610947 260.365936,136.962814 262.300568,133.635147 
	C262.698914,132.950012 263.850586,132.702850 264.890259,132.122543 
	C261.515869,163.051193 250.870850,189.974106 226.159943,209.976349 
	C216.022125,218.182388 204.335831,223.709518 191.963531,226.477051 
	C181.649826,228.784103 170.637405,227.746155 160.301117,224.189575 
	C136.490921,215.996796 124.805748,197.810822 120.291893,174.304581 
	C119.234810,168.799744 117.900917,165.264923 112.024033,163.875732 
	C106.794296,162.639511 101.808090,160.372665 96.716225,158.555557 
	C96.562279,158.500610 96.387070,158.421219 96.291481,158.298798 
	C91.153008,151.718124 86.766472,155.798065 81.957458,159.014343 
	C73.062363,164.963409 63.775269,164.422531 54.502281,159.723099 
	C49.042747,156.956299 43.609116,154.138382 38.046112,151.283035 
	C39.012703,147.757660 39.878090,144.601395 40.843628,141.079880 
	C36.793648,139.035202 32.812321,136.865189 28.695387,134.993393 
	C24.860853,133.250015 23.983788,130.212082 25.339209,126.794266 
	C26.809082,123.087837 30.087587,123.058746 33.343086,124.416161 
	C37.138184,125.998573 40.866711,127.740639 45.274158,129.702805 
	C47.206295,123.820114 48.980457,118.418396 50.770176,112.969299 
	C45.769733,110.487793 41.171173,108.152298 36.524197,105.917458 
	C33.151844,104.295616 30.980919,102.048790 32.439404,98.065887 
	C33.693501,94.641159 37.123466,93.696800 41.225822,95.424545 
	C41.989872,95.746330 42.728081,96.134987 43.504951,96.419899 
	C46.883450,97.658897 50.619686,100.329468 53.546558,99.631393 
	C55.888481,99.072845 57.250862,94.407242 59.262737,91.224747 
	C66.239960,94.367546 73.812523,97.373634 81.003288,101.113785 
	C91.408585,106.525902 95.691719,116.123650 96.867760,127.214462 
	C97.216949,130.507538 98.102203,132.372696 101.398430,133.186188 
	C107.192719,134.616150 112.244850,138.876114 118.112045,138.128326 
	C120.590691,127.783241 122.316032,117.770874 125.447411,108.219467 
	C129.423355,96.091957 136.494003,85.855621 148.040680,79.459427 
	C161.487534,72.010643 174.021866,73.944038 184.684860,85.036255 
	C192.329651,92.988762 196.710571,102.651009 198.009796,113.439095 
	C199.739990,127.805565 201.027863,142.286224 197.817810,156.638092 
	C195.424606,167.337906 186.052902,176.138245 176.349854,175.762192 
	C165.669891,175.348297 155.011032,173.863312 144.398880,172.430817 
	C138.383850,171.618881 132.480942,169.976273 126.527542,168.707779 
	C126.162445,169.084869 125.797356,169.461945 125.432259,169.839035 
	C127.481522,173.018265 129.160553,176.526764 131.644333,179.319534 
	C142.216827,191.207352 155.618927,198.031860 171.704803,200.643616 
M183.027847,148.132431 
	C185.741470,146.571274 188.914856,145.479401 191.079956,143.358322 
	C196.889435,137.666962 198.599472,133.213120 196.126724,127.296669 
	C192.285019,118.104782 186.124573,111.128555 177.761841,105.672211 
	C168.230103,99.453140 151.790756,101.220238 143.393143,108.485161 
	C133.265839,117.246475 127.798096,128.782944 122.844368,141.317612 
	C135.055573,145.807388 147.433548,147.751160 160.805054,149.102631 
	C167.975433,148.782211 175.145798,148.461777 183.027847,148.132431 
z"/>
<path fill="#32A602" opacity="1.000000" stroke="none" 
	d="
M159.979477,148.919937 
	C147.433548,147.751160 135.055573,145.807388 122.844368,141.317612 
	C127.798096,128.782944 133.265839,117.246475 143.393143,108.485161 
	C151.790756,101.220238 168.230103,99.453140 177.761841,105.672211 
	C186.124573,111.128555 192.285019,118.104782 196.126724,127.296669 
	C198.599472,133.213120 196.889435,137.666962 191.079956,143.358322 
	C188.914856,145.479401 185.741470,146.571274 182.184387,148.099182 
	C174.220428,148.350601 167.099960,148.635269 159.979477,148.919937 
z"/>
<path fill="#2FA924" opacity="1.000000" stroke="none" 
	d="
M160.392273,149.011292 
	C167.099960,148.635269 174.220428,148.350601 181.828552,148.103638 
	C175.145798,148.461777 167.975433,148.782211 160.392273,149.011292 
z"/>
</svg>