<?xml version="1.0"?>
<svg xmlns="http://www.w3.org/2000/svg" xmlns:xlink="http://www.w3.org/1999/xlink" viewBox="0 0 32.53 32.53" version="1.1">
  <path transform="scale(0.115,0.115)" style="fill: var(--operatorbg, #FBB800)" d="M0.012,35.088c0-19.132,15.943-35.075,35.075-35.075h212.576c19.841,0,35.784,15.943,35.784,35.075   v212.576c0,19.84-15.943,35.784-35.784,35.784H35.088c-19.132,0-35.075-15.943-35.075-35.784V35.088z"/>
  <g id="g5063" style="fill: var(--operatorfg, #fff)">
    <g transform="translate(-0.09746688,-0.3898675)" id="g4249">
      <circle r="1.911" cy="27.102358" cx="24.294355"/>
      <circle transform="rotate(-67.5)" r="1.911" cy="19.397024" cx="-21.300201"/>
      <path d="m 24.633356,23.970356 a 0.46,0.46 0 0 0 0.113,-0.354 l -1.096,-11.018 h 1.303 a 0.46,0.46 0 0 0 0,-0.918 h -2.216 a 1.127,1.127 0 0 0 -1.361,-0.338 l -2.12,0.954 -1.149,-1.548 a 2.559,2.559 0 0 0 -4.486,0.717 l -1.218,3.664 3.867,1.285 0.996,-2.999 1.256,1.69 3.787,-1.708 c 0.184,-0.083 0.342,-0.215 0.458,-0.38 l 1.025,10.212 a 3.911,3.911 0 0 0 -3.17,2.561 h -7.182 a 3.908,3.908 0 0 0 -3.6719999,-2.591 0.46,0.46 0 0 0 0,0.918 2.985,2.985 0 0 1 2.9809999,2.98 c 0,0.254 0.205,0.46 0.459,0.46 h 7.645 a 0.46,0.46 0 0 0 0.46,-0.46 2.984,2.984 0 0 1 2.98,-2.98 0.46,0.46 0 0 0 0.34,-0.147 z"/>
      <circle transform="rotate(-9.22)" r="2.5150001" cy="9.2922077" cx="16.275782"/>
      <path d="m 13.668356,18.439356 1.863,2.02 -1.024,4.623 h 2.75 l 1.25,-5.39 -2.44,-2.65 -3.873,-1.288 -0.002,0.006 -1.953,2.92 H 5.9633561 v 2.593 h 5.8079999 z"/>
    </g>
  </g>
</svg>
