<?xml version="1.0" standalone="no"?> <!DOCTYPE svg PUBLIC "-//W3C//DTD SVG 20010904//EN" "http://www.w3.org/TR/2001/REC-SVG-20010904/DTD/svg10.dtd"> <svg version="1.0" xmlns="http://www.w3.org/2000/svg" width="1024.000000pt" height="1024.000000pt" viewBox="0 0 1024.000000 1024.000000" preserveAspectRatio="xMidYMid meet"> <g transform="translate(0.000000,1024.000000) scale(0.100000,-0.100000)" fill="#800062" stroke="none"> <path d="M4900 10224 c-25 -2 -107 -11 -182 -19 -1124 -125 -2131 -790 -2697 -1782 -252 -443 -403 -932 -452 -1463 -15 -161 -6 -595 16 -750 56 -408 191 -845 363 -1170 16 -30 57 -109 92 -175 170 -322 457 -828 1010 -1775 250 -428 340 -582 670 -1140 826 -1397 1036 -1750 1057 -1778 40 -54 139 -120 210 -142 186 -57 385 10 494 167 16 23 138 226 271 450 132 224 284 480 336 568 52 88 110 187 130 220 19 33 70 119 112 190 76 127 385 651 420 710 9 17 163 280 342 585 495 844 671 1150 943 1640 282 508 382 718 475 1001 190 579 227 1220 104 1817 -183 892 -714 1695 -1464 2214 -488 337 -1026 540 -1625 614 -124 15 -529 26 -625 18z m375 -1684 c766 -73 1393 -620 1559 -1363 167 -743 -158 -1498 -817 -1896 -570 -344 -1299 -328 -1859 42 -459 303 -753 804 -786 1342 -26 403 68 764 283 1090 358 542 983 845 1620 785z"/></g></svg>