<?xml version="1.0" encoding="UTF-8" standalone="no"?>
<svg
   width="500"
   height="500"
   viewBox="0 0 500 500"
   version="1.1"
   id="svg6"
   sodipodi:docname="basel.svg"
   inkscape:version="1.2.1 (9c6d41e410, 2022-07-14)"
   xmlns:inkscape="http://www.inkscape.org/namespaces/inkscape"
   xmlns:sodipodi="http://sodipodi.sourceforge.net/DTD/sodipodi-0.dtd"
   xmlns="http://www.w3.org/2000/svg"
   xmlns:svg="http://www.w3.org/2000/svg">
  <defs
     id="defs10" />
  <sodipodi:namedview
     id="namedview8"
     pagecolor="#ffffff"
     bordercolor="#000000"
     borderopacity="0.25"
     inkscape:showpageshadow="2"
     inkscape:pageopacity="0.0"
     inkscape:pagecheckerboard="0"
     inkscape:deskcolor="#d1d1d1"
     showgrid="false"
     inkscape:zoom="1.4928528"
     inkscape:cx="243.1586"
     inkscape:cy="257.22563"
     inkscape:window-width="1920"
     inkscape:window-height="1017"
     inkscape:window-x="-8"
     inkscape:window-y="-8"
     inkscape:window-maximized="1"
     inkscape:current-layer="svg6" />
  <rect
     style="fill:#ffffff;fill-rule:evenodd;stroke-width:1.80039"
     id="rect291"
     width="500"
     height="500"
     x="0"
     y="0" />
  <path
     d="m 111.99042,238.99126 c 0,80.333 0.016,81 2,81 1.984,0 2,-0.667 2,-81 0,-80.333 -0.016,-81 -2,-81 -1.984,0 -2,0.667 -2,81 m -68.332995,-33.617 c -2.657,0.742 -6.032,2.229 -7.5,3.304 -6.394,4.686 -8.261,15.671 -3.603,21.207 4.176,4.963 12.286,6.135 16.596,2.398 4.182,-3.626 2.401,-11.292 -2.624,-11.292 -2.877,0 -4.356,1.875 -2.422,3.07 1.064,0.658 1.102,1.114 0.17,2.046 -0.932,0.932 -1.543,0.914 -2.742,-0.081 -5.54,-4.598 5.096,-10.778 11.197,-6.506 2.745,1.923 4.401,7.741 3.611,12.683 l -0.606,3.788 h 11.128 c 11.073,0 11.128,-0.012 11.128,-2.395 0,-4.265 -3.901,-15.168 -6.916,-19.331 -5.511,-7.607 -17.776,-11.585 -27.417,-8.891 m 8.341,32.576 c -3.549,2.28 0.807,3.095 15.071,2.82 12.028,-0.233 14.421,-0.528 14.421,-1.779 0,-1.25 -2.333,-1.542 -14,-1.75 -7.7,-0.137 -14.671,0.182 -15.492,0.709 m -4.32,4.687 c -0.379,0.378 -0.688,1.522 -0.688,2.542 0,1.752 1.086,1.839 19.75,1.583 18.993,-0.261 19.75,-0.348 19.75,-2.271 0,-1.921 -0.757,-2.011 -19.062,-2.271 -10.485,-0.149 -19.372,0.039 -19.75,0.417 m 3.299,6.187 c -0.543,0.184 -0.987,0.971 -0.987,1.75 0,1.165 2.923,1.417 16.441,1.417 10.566,0 16.677,-0.381 17.1,-1.067 0.363,-0.586 0.498,-1.227 0.302,-1.423 -0.469,-0.47 -31.573,-1.11 -32.856,-0.677 m -2.4,25.211 c -2.108,11.575 -3.579,21.297 -3.271,21.606 0.309,0.308 3.25,-1.508 6.536,-4.036 l 5.975,-4.598 4.284,5.117 4.285,5.117 4.552,-5.141 4.552,-5.14 5.798,4.634 c 3.189,2.549 6.059,4.374 6.378,4.054 0.319,-0.319 -1.128,-10.047 -3.216,-21.619 l -3.797,-21.038 h -14.123 -14.122 l -3.831,21.044 m 91.356995,-11.794 c -0.031,0.688 -0.134,6.425 -0.229,12.75 l -0.172,11.5 2.728,0.316 c 2.561,0.297 2.729,0.076 2.729,-3.595 0,-2.585 0.65,-4.499 1.918,-5.647 1.851,-1.675 2.042,-1.541 5.487,3.845 3.038,4.749 4.019,5.581 6.583,5.581 1.656,0 3.012,-0.211 3.012,-0.469 0,-0.258 -2.025,-3.599 -4.5,-7.425 -2.475,-3.826 -4.5,-7.312 -4.5,-7.747 0,-0.435 2.121,-2.943 4.712,-5.575 l 4.713,-4.784 -3.463,-0.028 c -2.962,-0.023 -4.216,0.807 -8.688,5.75 l -5.225,5.778 -0.025,-5.75 c -0.023,-5.46 -0.15,-5.75 -2.524,-5.75 -1.375,0 -2.525,0.563 -2.556,1.25 m 135.056,11.644 v 13.106 h 8.5 c 7.167,0 8.814,-0.314 10.5,-2 2.698,-2.698 2.686,-8.406 -0.022,-10.303 -1.786,-1.251 -1.844,-1.563 -0.5,-2.679 2.184,-1.812 1.875,-6.388 -0.58,-8.61 -1.598,-1.447 -3.993,-1.988 -10,-2.261 l -7.898,-0.359 v 13.106 m 87,0.106 v 13 h 2.5 2.5 v -13 -13 h -2.5 -2.5 v 13 m 24.635,-10.927 c -5.332,4.194 -2.323,10.637 5.999,12.845 2.273,0.603 4.691,1.768 5.372,2.589 1.85,2.23 -0.492,4.493 -4.65,4.493 -2.655,0 -3.648,-0.547 -4.538,-2.5 -1.184,-2.6 -2.416,-3.041 -4.607,-1.652 -2.278,1.446 0.347,6.069 4.41,7.767 10.071,4.208 20.001,-5.084 12.959,-12.126 -1.331,-1.331 -4.519,-2.949 -7.085,-3.595 -4.841,-1.219 -6.808,-3.449 -4.391,-4.98 2.273,-1.439 4.764,-1.046 6.896,1.086 2.38,2.38 6,2.654 6,0.455 0,-0.85 -1.105,-2.65 -2.455,-4 -3.218,-3.219 -10.065,-3.407 -13.91,-0.382 m 66.365,2.627 c 0,3.656 -0.267,4.433 -1.2,3.5 -1.763,-1.763 -6.255,-1.462 -8.788,0.589 -1.5,1.215 -2.352,3.223 -2.653,6.25 -0.514,5.188 1.051,8.773 4.734,10.84 2.253,1.264 2.948,1.247 5.735,-0.143 1.745,-0.871 3.172,-1.167 3.172,-0.659 0,0.507 0.9,0.923 2,0.923 1.897,0 2,-0.667 2,-13 v -13 h -2.5 c -2.312,0 -2.5,0.353 -2.5,4.7 m -242.75,-2.407 c -1.238,0.557 -2.25,1.844 -2.25,2.86 0,1.016 -0.45,1.847 -1,1.847 -0.55,0 -1,0.9 -1,2 0,1.1 0.45,2 1,2 0.563,0 1,2.81 1,6.429 0,8.198 2.269,10.94 7.418,8.964 2.221,-0.852 1.971,-3.058 -0.418,-3.683 -1.699,-0.444 -2,-1.364 -2,-6.116 0,-4.306 0.345,-5.594 1.5,-5.594 0.833,0 1.5,-0.889 1.5,-2 0,-1.1 -0.646,-2 -1.437,-2 -0.841,0 -1.566,-1.186 -1.75,-2.86 -0.281,-2.568 -0.543,-2.757 -2.563,-1.847 m 201,0 c -1.238,0.557 -2.25,1.844 -2.25,2.86 0,1.016 -0.45,1.847 -1,1.847 -0.55,0 -1,0.9 -1,2 0,1.1 0.45,2 1,2 0.571,0 1,2.988 1,6.965 0,6.044 0.277,7.113 2.093,8.085 3.101,1.659 6.849,0.445 6.207,-2.01 -0.283,-1.083 -1.029,-1.872 -1.657,-1.754 -0.723,0.135 -1.253,-1.901 -1.443,-5.536 -0.243,-4.656 -0.005,-5.75 1.25,-5.75 0.883,0 1.55,-0.86 1.55,-2 0,-1.1 -0.646,-2 -1.437,-2 -0.841,0 -1.566,-1.186 -1.75,-2.86 -0.281,-2.568 -0.543,-2.757 -2.563,-1.847 m 54,0.235 c -1.238,0.872 -2.25,2.235 -2.25,3.029 0,0.794 -0.45,1.443 -1,1.443 -0.55,0 -1,0.9 -1,2 0,1.1 0.45,2 1,2 0.556,0 1,2.667 1,6 0,4.667 0.444,6.444 2,8 2.14,2.14 2.937,2.345 5.418,1.393 2.188,-0.84 2.048,-4.208 -0.168,-4.032 -1.449,0.115 -1.802,-0.851 -2.05,-5.611 -0.273,-5.228 -0.114,-5.75 1.75,-5.75 1.383,0 2.05,-0.65 2.05,-2 0,-1.312 -0.667,-2 -1.937,-2 -1.42,0 -2.02,-0.808 -2.25,-3.029 -0.303,-2.932 -0.385,-2.978 -2.563,-1.443 m -185.25,5.417 c 0,2.866 0.232,3.054 3.75,3.04 4.638,-0.019 6.555,-1.154 6.089,-3.605 -0.279,-1.47 -1.391,-1.946 -5.098,-2.185 -4.687,-0.301 -4.741,-0.269 -4.741,2.75 m -113.345,0.884 c -0.91,1.006 -1.655,2.356 -1.655,3 0,1.473 3.238,1.533 4.685,0.086 1.503,-1.503 5.815,-0.734 5.815,1.037 0,0.875 -1.679,1.869 -4.223,2.5 -5.545,1.376 -7.732,3.601 -6.879,6.999 0.928,3.694 5.214,5.24 8.852,3.191 1.512,-0.852 2.75,-1.12 2.75,-0.595 0,0.524 1.116,0.953 2.48,0.953 2.45,0 2.476,-0.091 2.227,-7.873 -0.153,-4.796 -0.779,-8.509 -1.602,-9.5 -1.947,-2.346 -10.266,-2.211 -12.45,0.202 m 19.345,7.671 c 0,9.467 0.009,9.5 2.5,9.5 2.385,0 2.5,-0.272 2.5,-5.918 0,-7.437 0.634,-9.082 3.5,-9.082 2.866,0 3.5,1.645 3.5,9.082 0,5.646 0.115,5.918 2.5,5.918 2.438,0 2.5,-0.182 2.5,-7.277 0,-8.762 -1.573,-11.723 -6.228,-11.723 -1.713,0 -3.937,0.745 -4.943,1.655 -1.702,1.54 -1.829,1.54 -1.829,0 0,-0.988 -0.806,-1.655 -2,-1.655 -1.86,0 -2,0.667 -2,9.5 m 36.712,-7.488 c -5.428,4.27 -4.254,14.028 2.001,16.641 7.217,3.016 13.287,-1.249 13.287,-9.333 0,-3.35 -0.59,-5.001 -2.455,-6.865 -3.133,-3.134 -9.149,-3.341 -12.833,-0.443 m 19.288,7.488 c 0,9.467 0.009,9.5 2.5,9.5 2.38,0 2.5,-0.279 2.5,-5.809 0,-6.422 1.607,-9.604 4.566,-9.039 1.666,0.318 1.975,1.373 2.228,7.609 0.282,6.941 0.395,7.239 2.75,7.239 2.402,0 2.456,-0.176 2.456,-7.929 0,-5.874 -0.407,-8.335 -1.571,-9.5 -1.803,-1.802 -5.673,-2.046 -8.495,-0.536 -1.333,0.714 -1.934,0.714 -1.934,0 0,-0.569 -1.125,-1.035 -2.5,-1.035 -2.491,0 -2.5,0.033 -2.5,9.5 m 60.655,-7.671 c -0.91,1.006 -1.655,2.356 -1.655,3 0,1.427 3.638,1.565 4.5,0.171 0.966,-1.562 5.22,-1.173 5.876,0.538 0.325,0.846 0.035,1.694 -0.643,1.886 -0.678,0.191 -3.141,0.866 -5.473,1.499 -3.191,0.867 -4.393,1.76 -4.858,3.612 -0.844,3.362 0.059,5.262 3.175,6.682 2.17,0.989 3.141,0.908 5.528,-0.462 1.592,-0.914 2.895,-1.233 2.895,-0.708 0,0.524 1.082,0.953 2.405,0.953 2.389,0 2.402,-0.059 1.887,-8.25 -0.368,-5.841 -0.98,-8.615 -2.097,-9.5 -2.437,-1.932 -9.593,-1.573 -11.54,0.579 m 19.345,0.171 c -1.1,1.1 -2,2.675 -2,3.5 0,2.409 3.6,5.334 7.455,6.058 4.031,0.756 5.469,2.243 3.423,3.538 -2.01,1.274 -3.54,1.1 -5.235,-0.596 -1.865,-1.865 -5.643,-1.968 -5.643,-0.155 0,2.678 4.085,5.155 8.5,5.155 4.914,0 8.5,-2.545 8.5,-6.033 0,-2.818 -1.841,-4.336 -7.167,-5.908 -5.156,-1.523 -6.253,-3.559 -1.916,-3.559 1.696,0 3.083,0.45 3.083,1 0,0.55 1.125,1 2.5,1 3.14,0 3.286,-2.336 0.277,-4.443 -3.185,-2.232 -9.334,-2 -11.777,0.443 m 21.282,0.25 c -6.617,7.205 -1.194,19.207 7.788,17.235 3.191,-0.701 6.413,-3.895 5.469,-5.422 -0.987,-1.597 -3.661,-1.279 -5.034,0.599 -1.456,1.991 -3.94,1.262 -5.475,-1.606 -1.059,-1.979 -0.851,-2.056 5.56,-2.056 h 6.66 l -0.64,-3.202 c -1.465,-7.325 -9.75,-10.533 -14.328,-5.548 m 78.718,-0.25 c -2.684,2.684 -2.519,4 0.5,4 1.375,0 2.5,-0.48 2.5,-1.066 0,-0.587 1.238,-0.924 2.75,-0.75 4.41,0.507 3.413,3.167 -1.581,4.221 -5.285,1.115 -7.683,4.112 -6.268,7.833 1.245,3.276 5.228,4.264 9.108,2.258 1.705,-0.882 2.991,-1.106 2.991,-0.522 0,0.564 1.012,1.027 2.25,1.028 2.169,0.003 2.238,-0.278 1.918,-7.75 -0.405,-9.453 -1.655,-11.252 -7.823,-11.252 -3.012,0 -4.959,0.614 -6.345,2 m -197.148,4.426 c -2.342,5.139 1.793,10.905 6.148,8.574 2.297,-1.229 2.831,-7.769 0.8,-9.8 -2.065,-2.065 -5.744,-1.416 -6.948,1.226 m 121.148,-0.426 c -0.988,1.846 -0.76,2 2.965,2 4.168,0 4.906,-0.729 2.835,-2.8 -1.821,-1.821 -4.603,-1.437 -5.8,0.8 m 100.035,-0.066 c -1.51,2.822 -1.266,6.692 0.536,8.495 1.86,1.859 1.993,1.875 4.495,0.536 2.234,-1.196 2.729,-7.77 0.734,-9.765 -1.802,-1.802 -4.598,-1.446 -5.765,0.734 m -166.035,5.621 v 3.555 l 4.648,-0.305 c 8.8,-0.577 8.032,-6.805 -0.839,-6.805 -3.698,0 -3.809,0.104 -3.809,3.555 m 92,-1.555 c 0,1.704 0.667,2 4.5,2 3.833,0 4.5,-0.296 4.5,-2 0,-1.704 -0.667,-2 -4.5,-2 -3.833,0 -4.5,0.296 -4.5,2 m -199.926,1.877 c -2.944,0.823 -3.751,2.649 -1.544,3.496 2.075,0.796 5.47,-1.009 5.47,-2.908 0,-1.579 -0.246,-1.616 -3.926,-0.588 m 135.926,0.018 c -2.797,0.778 -3.386,3.407 -0.871,3.891 1.676,0.323 4.871,-2.207 4.871,-3.857 0,-1.034 -0.396,-1.037 -4,-0.034 m 120,-0.237 c -0.825,0.275 -2.142,0.706 -2.928,0.958 -1.207,0.387 -1.186,0.698 0.134,2.018 1.239,1.239 1.997,1.328 3.677,0.428 1.165,-0.623 2.117,-1.792 2.117,-2.597 0,-1.522 -0.475,-1.649 -3,-0.807"
     stroke="none"
     fill="#1f1e1f"
     fill-rule="evenodd"
     id="path2" />
</svg>
