<?xml version="1.0" encoding="UTF-8" standalone="no"?>
<svg
   width="120"
   height="120.20668"
   viewBox="0 0 120 120.20668"
   version="1.1"
   id="svg38"
   sodipodi:docname="velospot.svg"
   inkscape:version="1.2.1 (9c6d41e410, 2022-07-14)"
   xmlns:inkscape="http://www.inkscape.org/namespaces/inkscape"
   xmlns:sodipodi="http://sodipodi.sourceforge.net/DTD/sodipodi-0.dtd"
   xmlns:xlink="http://www.w3.org/1999/xlink"
   xmlns="http://www.w3.org/2000/svg"
   xmlns:svg="http://www.w3.org/2000/svg">
  <sodipodi:namedview
     id="namedview40"
     pagecolor="#ffffff"
     bordercolor="#000000"
     borderopacity="0.25"
     inkscape:showpageshadow="2"
     inkscape:pageopacity="0.0"
     inkscape:pagecheckerboard="0"
     inkscape:deskcolor="#d1d1d1"
     showgrid="false"
     inkscape:zoom="4.5998526"
     inkscape:cx="57.175745"
     inkscape:cy="36.957706"
     inkscape:window-width="1920"
     inkscape:window-height="1017"
     inkscape:window-x="-8"
     inkscape:window-y="-8"
     inkscape:window-maximized="1"
     inkscape:current-layer="svg38" />
  <defs
     id="defs4">
    <path
       id="3f3g6bea6a"
       d="M 0,0 H 10.778 V 15.338 H 0 Z" />
    <path
       id="veyn60tanc"
       d="M 0,0 H 96.102 V 95.639 H 0 Z" />
  </defs>
  <rect
     style="fill:#ffffff;fill-rule:evenodd;stroke-width:1.26353"
     id="rect321"
     width="120"
     height="120"
     x="0"
     y="0" />
  <g
     fill="none"
     fill-rule="evenodd"
     id="g36"
     transform="translate(11.23807,0.20702565)">
    <g
       id="g34">
      <g
         id="g32">
        <g
           id="g30">
          <path
             fill="#1d1d1b"
             d="m 3.654,106.321 2.184,6.047 2.349,-6.313 c 0.186,-0.506 0.367,-0.865 0.544,-1.073 0.179,-0.214 0.449,-0.32 0.81,-0.32 0.342,0 0.634,0.116 0.876,0.342 0.24,0.227 0.36,0.489 0.36,0.79 0,0.116 -0.022,0.255 -0.063,0.41 -0.043,0.154 -0.094,0.301 -0.149,0.438 -0.058,0.138 -0.12,0.294 -0.193,0.467 l -2.587,6.34 c -0.074,0.185 -0.167,0.417 -0.284,0.692 -0.116,0.283 -0.243,0.524 -0.384,0.72 -0.143,0.197 -0.316,0.353 -0.524,0.464 -0.207,0.11 -0.457,0.164 -0.755,0.164 -0.382,0 -0.69,-0.087 -0.914,-0.255 -0.227,-0.176 -0.396,-0.366 -0.505,-0.567 -0.108,-0.206 -0.291,-0.613 -0.548,-1.219 l -2.568,-6.27 c -0.06,-0.153 -0.12,-0.311 -0.183,-0.467 -0.063,-0.158 -0.117,-0.314 -0.159,-0.478 -0.041,-0.16 -0.063,-0.303 -0.063,-0.422 0,-0.18 0.057,-0.36 0.168,-0.537 0.11,-0.18 0.266,-0.33 0.463,-0.444 0.198,-0.112 0.415,-0.168 0.643,-0.168 0.448,0 0.756,0.13 0.926,0.38 0.165,0.256 0.352,0.682 0.556,1.28 m 16.464,4.416 h -5.545 c 0.007,0.603 0.136,1.137 0.39,1.599 0.253,0.458 0.59,0.806 1.006,1.039 0.42,0.233 0.882,0.35 1.387,0.35 0.339,0 0.647,-0.035 0.93,-0.112 0.28,-0.074 0.552,-0.193 0.813,-0.348 0.264,-0.162 0.507,-0.333 0.728,-0.515 0.223,-0.18 0.51,-0.425 0.863,-0.736 0.144,-0.119 0.353,-0.18 0.62,-0.18 0.292,0 0.53,0.078 0.71,0.225 0.177,0.152 0.269,0.36 0.269,0.633 0,0.24 -0.098,0.523 -0.302,0.843 -0.202,0.324 -0.502,0.633 -0.91,0.927 -0.403,0.294 -0.913,0.542 -1.524,0.736 -0.614,0.192 -1.318,0.29 -2.114,0.29 -1.821,0 -3.236,-0.484 -4.248,-1.46 -1.01,-0.975 -1.515,-2.295 -1.515,-3.96 0,-0.787 0.124,-1.519 0.374,-2.189 0.249,-0.672 0.613,-1.248 1.091,-1.728 0.476,-0.477 1.063,-0.847 1.766,-1.106 0.696,-0.255 1.474,-0.384 2.325,-0.384 1.108,0 2.058,0.218 2.85,0.658 0.79,0.439 1.386,1.005 1.781,1.698 0.395,0.694 0.59,1.404 0.59,2.122 0,0.67 -0.203,1.102 -0.61,1.3 -0.409,0.201 -0.984,0.298 -1.725,0.298 m -5.545,-1.51 h 5.142 c -0.072,-0.907 -0.331,-1.587 -0.786,-2.041 -0.454,-0.45 -1.05,-0.677 -1.793,-0.677 -0.706,0 -1.282,0.232 -1.738,0.688 -0.453,0.462 -0.728,1.136 -0.825,2.03 m 9.677,5.486 v -11.985 c 0,-0.552 0.12,-0.967 0.363,-1.25 0.239,-0.283 0.563,-0.426 0.969,-0.426 0.408,0 0.739,0.143 0.988,0.42 0.25,0.28 0.374,0.698 0.374,1.256 v 11.985 c 0,0.559 -0.128,0.979 -0.38,1.253 -0.254,0.282 -0.58,0.424 -0.982,0.424 -0.394,0 -0.715,-0.144 -0.961,-0.438 -0.248,-0.287 -0.371,-0.702 -0.371,-1.24 m 16.167,-4.639 c 0,0.794 -0.127,1.528 -0.379,2.197 -0.249,0.67 -0.613,1.244 -1.09,1.727 -0.477,0.482 -1.044,0.848 -1.705,1.103 -0.66,0.26 -1.404,0.388 -2.23,0.388 -0.82,0 -1.556,-0.132 -2.213,-0.392 -0.65,-0.257 -1.218,-0.63 -1.696,-1.115 -0.48,-0.482 -0.843,-1.055 -1.091,-1.716 -0.247,-0.657 -0.374,-1.391 -0.374,-2.192 0,-0.803 0.127,-1.543 0.378,-2.212 0.251,-0.668 0.61,-1.24 1.081,-1.718 0.47,-0.474 1.036,-0.84 1.702,-1.093 0.67,-0.26 1.408,-0.39 2.213,-0.39 0.82,0 1.565,0.135 2.23,0.392 0.669,0.26 1.24,0.628 1.715,1.113 0.475,0.478 0.837,1.052 1.086,1.716 0.246,0.662 0.373,1.396 0.373,2.192 m -2.717,0 c 0,-1.084 -0.243,-1.932 -0.73,-2.534 -0.484,-0.604 -1.138,-0.907 -1.957,-0.907 -0.53,0 -0.994,0.137 -1.396,0.405 -0.404,0.27 -0.714,0.665 -0.933,1.195 -0.218,0.525 -0.328,1.138 -0.328,1.841 0,0.699 0.108,1.303 0.322,1.829 0.216,0.517 0.523,0.917 0.923,1.188 0.4,0.28 0.87,0.42 1.412,0.42 0.82,0 1.473,-0.305 1.957,-0.914 0.487,-0.61 0.73,-1.45 0.73,-2.523 m 13.494,1.935 c 0,0.734 -0.176,1.361 -0.53,1.885 -0.35,0.524 -0.87,0.922 -1.558,1.186 -0.686,0.272 -1.524,0.409 -2.508,0.409 -0.94,0 -1.746,-0.148 -2.42,-0.44 -0.67,-0.29 -1.164,-0.66 -1.485,-1.097 -0.32,-0.437 -0.48,-0.88 -0.48,-1.32 0,-0.292 0.102,-0.543 0.309,-0.75 0.203,-0.21 0.464,-0.312 0.775,-0.312 0.275,0 0.486,0.069 0.633,0.199 0.148,0.14 0.29,0.333 0.423,0.58 0.27,0.474 0.59,0.826 0.965,1.062 0.374,0.234 0.884,0.35 1.531,0.35 0.524,0 0.954,-0.116 1.288,-0.356 0.337,-0.236 0.505,-0.505 0.505,-0.812 0,-0.47 -0.175,-0.809 -0.524,-1.023 -0.347,-0.214 -0.923,-0.423 -1.72,-0.617 -0.904,-0.23 -1.637,-0.463 -2.202,-0.716 -0.566,-0.251 -1.018,-0.582 -1.36,-0.992 -0.338,-0.408 -0.507,-0.913 -0.507,-1.508 0,-0.534 0.156,-1.037 0.47,-1.515 0.314,-0.474 0.775,-0.85 1.386,-1.134 0.61,-0.286 1.347,-0.426 2.212,-0.426 0.678,0 1.29,0.073 1.826,0.214 0.54,0.143 0.993,0.335 1.353,0.575 0.36,0.241 0.635,0.512 0.826,0.8 0.19,0.294 0.283,0.58 0.283,0.858 0,0.307 -0.1,0.559 -0.304,0.754 -0.2,0.194 -0.486,0.294 -0.857,0.294 -0.269,0 -0.498,-0.083 -0.686,-0.236 -0.19,-0.158 -0.405,-0.392 -0.65,-0.703 -0.195,-0.26 -0.428,-0.464 -0.697,-0.626 -0.269,-0.151 -0.634,-0.234 -1.094,-0.234 -0.475,0 -0.867,0.104 -1.181,0.31 -0.311,0.204 -0.47,0.459 -0.47,0.766 0,0.279 0.117,0.51 0.346,0.686 0.23,0.177 0.538,0.325 0.93,0.442 0.392,0.118 0.928,0.261 1.611,0.432 0.813,0.202 1.478,0.44 1.994,0.723 0.512,0.28 0.903,0.608 1.168,0.989 0.264,0.377 0.4,0.812 0.4,1.303"
             id="path6" />
          <g
             transform="translate(53.888889,104.66165)"
             id="g13">
            <mask
               id="t1xtlzzz4b"
               fill="#ffffff">
              <use
                 xlink:href="#3f3g6bea6a"
                 id="use8" />
            </mask>
            <path
               fill="#1d1d1b"
               d="M 2.606,1.552 V 1.885 C 3.124,1.242 3.662,0.773 4.221,0.47 c 0.56,-0.3 1.192,-0.447 1.9,-0.447 0.849,0 1.63,0.216 2.343,0.656 0.716,0.44 1.278,1.08 1.692,1.92 0.413,0.847 0.622,1.844 0.622,3.003 0,0.846 -0.12,1.63 -0.359,2.34 -0.239,0.714 -0.568,1.312 -0.986,1.792 -0.413,0.481 -0.91,0.856 -1.48,1.115 -0.567,0.258 -1.18,0.388 -1.832,0.388 -0.788,0 -1.45,-0.16 -1.984,-0.476 C 3.6,10.444 3.092,9.977 2.607,9.364 v 4.15 c 0,1.216 -0.442,1.824 -1.324,1.824 -0.518,0 -0.863,-0.157 -1.032,-0.473 C 0.085,14.552 0,14.096 0,13.495 V 1.57 C 0,1.045 0.114,0.652 0.343,0.393 0.573,0.135 0.884,0 1.283,0 1.673,0 1.99,0.135 2.238,0.404 2.484,0.667 2.606,1.051 2.606,1.552 M 8.01,5.568 C 8.01,4.841 7.898,4.216 7.677,3.691 7.455,3.169 7.148,2.765 6.752,2.491 6.36,2.206 5.923,2.067 5.446,2.067 c -0.762,0 -1.402,0.3 -1.927,0.9 -0.52,0.602 -0.78,1.487 -0.78,2.65 0,1.101 0.258,1.96 0.777,2.566 0.521,0.613 1.16,0.918 1.93,0.918 0.457,0 0.88,-0.132 1.27,-0.4 C 7.11,8.431 7.423,8.034 7.659,7.502 7.892,6.97 8.009,6.325 8.009,5.568"
               mask="url(#t1xtlzzz4b)"
               id="path11" />
          </g>
          <path
             fill="#1d1d1b"
             d="m 76.343,110.074 c 0,0.794 -0.126,1.528 -0.377,2.197 -0.25,0.67 -0.614,1.244 -1.091,1.727 -0.475,0.482 -1.043,0.848 -1.705,1.103 -0.66,0.26 -1.404,0.388 -2.231,0.388 -0.819,0 -1.555,-0.132 -2.212,-0.392 -0.654,-0.257 -1.22,-0.63 -1.7,-1.115 -0.48,-0.482 -0.841,-1.055 -1.09,-1.716 -0.249,-0.657 -0.372,-1.391 -0.372,-2.192 0,-0.803 0.125,-1.543 0.377,-2.212 0.251,-0.668 0.61,-1.24 1.08,-1.718 0.47,-0.474 1.039,-0.84 1.705,-1.093 0.668,-0.26 1.407,-0.39 2.212,-0.39 0.82,0 1.564,0.135 2.23,0.392 0.667,0.26 1.242,0.628 1.717,1.113 0.477,0.478 0.836,1.052 1.085,1.716 0.249,0.662 0.372,1.396 0.372,2.192 m -2.715,0 c 0,-1.084 -0.245,-1.932 -0.729,-2.534 -0.486,-0.604 -1.14,-0.907 -1.96,-0.907 -0.528,0 -0.997,0.137 -1.397,0.405 -0.404,0.27 -0.714,0.665 -0.932,1.195 -0.218,0.525 -0.328,1.138 -0.328,1.841 0,0.699 0.108,1.303 0.322,1.829 0.216,0.517 0.523,0.917 0.923,1.188 0.398,0.28 0.873,0.42 1.412,0.42 0.82,0 1.474,-0.305 1.96,-0.914 0.484,-0.61 0.729,-1.45 0.729,-2.523 m 4.849,-5.174 h 0.294 v -1.596 c 0,-0.43 0.01,-0.764 0.032,-1.008 0.024,-0.244 0.09,-0.454 0.19,-0.627 0.105,-0.181 0.258,-0.333 0.451,-0.448 0.192,-0.11 0.411,-0.168 0.651,-0.168 0.338,0 0.643,0.13 0.916,0.38 0.183,0.167 0.296,0.377 0.348,0.619 0.05,0.244 0.074,0.588 0.074,1.04 v 1.808 h 0.974 c 0.376,0 0.666,0.093 0.86,0.27 0.202,0.184 0.297,0.411 0.297,0.688 0,0.357 -0.138,0.61 -0.42,0.75 -0.283,0.148 -0.687,0.213 -1.218,0.213 h -0.493 v 4.896 c 0,0.413 0.015,0.737 0.043,0.962 0.03,0.223 0.108,0.403 0.236,0.543 0.125,0.138 0.333,0.21 0.619,0.21 0.154,0 0.368,-0.03 0.632,-0.082 0.268,-0.054 0.476,-0.08 0.623,-0.08 0.22,0 0.41,0.082 0.584,0.253 0.173,0.173 0.256,0.387 0.256,0.644 0,0.424 -0.232,0.755 -0.7,0.982 -0.471,0.225 -1.144,0.34 -2.02,0.34 -0.831,0 -1.464,-0.139 -1.89,-0.422 -0.433,-0.277 -0.714,-0.666 -0.848,-1.157 -0.132,-0.495 -0.197,-1.153 -0.197,-1.98 v -5.11 h -0.353 c -0.38,0 -0.675,-0.086 -0.877,-0.27 -0.205,-0.184 -0.3,-0.41 -0.3,-0.692 0,-0.277 0.1,-0.504 0.316,-0.688 0.208,-0.177 0.515,-0.27 0.92,-0.27"
             id="path15" />
          <g
             id="g22">
            <mask
               id="tpohj845sd"
               fill="#ffffff">
              <use
                 xlink:href="#veyn60tanc"
                 id="use17" />
            </mask>
            <path
               fill="#c41415"
               d="m 0,91.761 c 0,2.133 1.73,3.878 3.845,3.878 h 88.414 c 2.114,0 3.843,-1.745 3.843,-3.878 V 3.876 C 96.102,1.743 94.373,0 92.259,0 H 3.845 C 1.73,0 0,1.743 0,3.876 Z"
               mask="url(#tpohj845sd)"
               id="path20" />
          </g>
          <path
             fill="#fefefe"
             d="m 71.328,35.488 c 3.125,-3.614 5.015,-8.293 5.015,-13.384 0,-5.089 -1.89,-9.767 -5.017,-13.38 -0.618,-0.716 -1.712,-0.808 -2.447,-0.208 -0.735,0.6 -0.83,1.663 -0.212,2.38 2.622,3.037 4.203,6.935 4.203,11.208 0,4.276 -1.579,8.177 -4.203,11.213 -0.615,0.714 -0.52,1.78 0.214,2.378 0.326,0.266 0.721,0.395 1.115,0.395 0.495,0 0.988,-0.204 1.332,-0.602 m -7.307,-4.513 c 2.08,-2.515 3.342,-5.776 3.34,-9.32 0.002,-3.545 -1.26,-6.806 -3.342,-9.32 -0.593,-0.717 -1.644,-0.81 -2.35,-0.21 -0.705,0.604 -0.797,1.672 -0.204,2.387 1.6,1.937 2.56,4.417 2.56,7.144 0,2.724 -0.96,5.204 -2.56,7.139 v 0.002 c -0.593,0.717 -0.501,1.785 0.204,2.388 0.313,0.266 0.693,0.394 1.073,0.394 0.475,0 0.949,-0.203 1.28,-0.604 M 56.636,27.36 c 1.085,-1.417 1.745,-3.259 1.744,-5.254 10e-4,-1.998 -0.66,-3.84 -1.744,-5.257 -0.553,-0.721 -1.534,-0.815 -2.193,-0.207 -0.657,0.608 -0.742,1.686 -0.19,2.408 0.634,0.833 1.013,1.886 1.013,3.056 0,1.167 -0.38,2.22 -1.014,3.051 v 0.002 c -0.55,0.724 -0.466,1.802 0.191,2.41 0.292,0.27 0.646,0.4 1.001,0.4 0.444,0 0.884,-0.206 1.192,-0.61 m -10.83,-4.803 c 0,1.495 1.206,2.707 2.693,2.707 1.49,0 2.695,-1.212 2.695,-2.707 0,-1.494 -1.206,-2.706 -2.695,-2.706 -1.487,0 -2.693,1.212 -2.693,2.706 M 27.223,35.695 c 0.732,-0.598 0.83,-1.664 0.212,-2.378 -2.622,-3.037 -4.2,-6.937 -4.203,-11.213 0.003,-4.273 1.58,-8.172 4.203,-11.208 0.617,-0.716 0.523,-1.78 -0.212,-2.38 -0.733,-0.6 -1.83,-0.507 -2.446,0.205 -3.127,3.616 -5.018,8.294 -5.018,13.383 0,5.091 1.89,9.77 5.018,13.384 0.343,0.397 0.834,0.602 1.33,0.602 0.395,0 0.79,-0.13 1.116,-0.395 m 7.209,-4.511 c 0.706,-0.602 0.797,-1.67 0.205,-2.389 -1.599,-1.935 -2.559,-4.415 -2.561,-7.14 0.002,-2.726 0.962,-5.206 2.56,-7.14 0.593,-0.718 0.502,-1.785 -0.204,-2.39 -0.703,-0.6 -1.756,-0.507 -2.35,0.207 -2.082,2.518 -3.341,5.778 -3.341,9.323 0,3.544 1.26,6.804 3.342,9.32 v 0.002 c 0.33,0.399 0.801,0.602 1.277,0.602 0.377,0 0.76,-0.128 1.072,-0.395 m 7.225,-3.615 c 0.66,-0.608 0.744,-1.686 0.191,-2.412 -0.635,-0.831 -1.014,-1.884 -1.014,-3.052 0,-1.17 0.38,-2.222 1.012,-3.053 0.555,-0.724 0.47,-1.802 -0.189,-2.41 -0.658,-0.608 -1.639,-0.514 -2.192,0.207 -1.084,1.417 -1.745,3.259 -1.743,5.256 -0.002,1.996 0.659,3.838 1.743,5.254 h -0.002 c 0.31,0.404 0.75,0.61 1.193,0.61 0.355,0 0.71,-0.13 1.001,-0.4 m 28.178,29.856 c -1.778,0 -3.478,0.341 -5.039,0.957 L 60.123,46.045 c -0.319,-0.875 -0.747,-1.638 -1.294,-2.27 -0.55,-0.63 -1.215,-1.116 -1.933,-1.456 -1.448,-0.676 -3.03,-0.809 -4.758,-0.815 -0.835,0 -1.513,0.676 -1.513,1.513 0,0.834 0.678,1.512 1.513,1.512 1.163,-0.004 2.116,0.085 2.825,0.288 0.718,0.209 1.177,0.483 1.583,0.945 0.268,0.307 0.518,0.726 0.736,1.32 L 57.291,47.1 59.026,51.684 48.48,67.958 C 47.625,67.51 46.653,67.251 45.625,67.251 H 44.953 L 39.132,50.394 h 2.689 c 0.836,0 1.514,-0.676 1.514,-1.512 0,-0.833 -0.678,-1.511 -1.514,-1.511 h -9.384 c -0.835,0 -1.512,0.678 -1.512,1.511 0,0.836 0.677,1.512 1.512,1.512 h 3.494 l 5.824,16.857 h -2.353 c -1.669,-5.681 -6.916,-9.822 -13.134,-9.826 -7.565,0.002 -13.695,6.13 -13.695,13.694 0,7.562 6.13,13.691 13.695,13.693 4.968,-0.002 9.32,-2.649 11.716,-6.607 l -0.014,-0.036 6.152,1.492 0.002,-0.005 c 0.481,0.12 0.982,0.191 1.5,0.191 3.432,0 6.217,-2.819 6.217,-6.297 0,-1.316 -0.4,-2.538 -1.082,-3.549 l 9.596,-14.806 1.75,4.62 c -3.6,2.466 -5.964,6.609 -5.966,11.304 0.002,7.562 6.131,13.691 13.695,13.693 7.564,-0.002 13.693,-6.13 13.693,-13.693 0,-7.563 -6.13,-13.692 -13.693,-13.694 z M 34.868,77.433 c -1.944,2.64 -5.07,4.356 -8.599,4.356 -2.953,-0.002 -5.61,-1.193 -7.546,-3.125 -1.932,-1.938 -3.125,-4.593 -3.125,-7.545 0,-2.95 1.193,-5.608 3.125,-7.546 1.936,-1.932 4.593,-3.12 7.546,-3.122 4.527,-0.003 8.389,2.823 9.938,6.8 H 25.329 c -0.795,0 -1.445,0.649 -1.445,1.445 l -0.55,4.475 c 0,0.793 0.632,1.598 1.401,1.787 l 10.19,2.473 z m 10.758,-0.405 c -0.337,0 -0.663,-0.053 -0.969,-0.145 l -18.437,-4.36 0.313,-2.451 h 19.093 c 1.893,0 3.431,1.556 3.431,3.478 0,1.92 -1.538,3.478 -3.431,3.478 z m 31.753,1.636 c -1.933,1.932 -4.593,3.123 -7.544,3.125 -2.95,-0.002 -5.61,-1.193 -7.546,-3.125 -1.933,-1.938 -3.123,-4.593 -3.123,-7.545 0,-2.95 1.19,-5.608 3.123,-7.546 0.295,-0.292 0.605,-0.567 0.929,-0.824 l 2.587,6.824 c 0.457,1.2 1.197,2.068 1.924,2.65 0.727,0.585 1.445,0.904 1.891,1.09 0.189,0.077 0.384,0.115 0.576,0.115 0.594,0 1.157,-0.355 1.4,-0.937 0.316,-0.774 -0.052,-1.656 -0.823,-1.976 -0.342,-0.137 -0.758,-0.334 -1.148,-0.647 -0.389,-0.317 -0.743,-0.724 -0.993,-1.37 l -2.763,-7.287 c 1.226,-0.49 2.563,-0.76 3.966,-0.76 2.95,0.002 5.61,1.19 7.544,3.122 1.932,1.938 3.125,4.595 3.125,7.546 0,2.952 -1.193,5.607 -3.125,7.545 z"
             id="path24" />
          <path
             fill="#1d1d1b"
             d="m 91.29,110.413 h -0.383 v 1.712 c 0,0.224 -0.048,0.39 -0.15,0.494 -0.1,0.108 -0.232,0.163 -0.392,0.163 -0.177,0 -0.31,-0.058 -0.407,-0.167 -0.095,-0.113 -0.143,-0.275 -0.143,-0.49 v -4.097 c 0,-0.232 0.053,-0.401 0.16,-0.507 0.104,-0.102 0.276,-0.153 0.51,-0.153 h 1.776 c 0.247,0 0.456,0.01 0.63,0.031 0.174,0.02 0.332,0.063 0.472,0.122 0.17,0.072 0.318,0.173 0.449,0.304 0.13,0.13 0.23,0.282 0.295,0.454 0.068,0.175 0.102,0.356 0.102,0.552 0,0.397 -0.112,0.712 -0.34,0.952 -0.227,0.236 -0.571,0.403 -1.034,0.504 0.197,0.1 0.38,0.25 0.558,0.45 0.176,0.197 0.334,0.41 0.472,0.633 0.138,0.224 0.247,0.427 0.325,0.607 0.077,0.179 0.116,0.303 0.116,0.372 0,0.07 -0.022,0.139 -0.068,0.208 -0.046,0.07 -0.11,0.124 -0.187,0.165 -0.08,0.038 -0.17,0.06 -0.27,0.06 -0.125,0 -0.229,-0.029 -0.311,-0.086 -0.085,-0.058 -0.155,-0.13 -0.216,-0.218 -0.06,-0.086 -0.143,-0.215 -0.244,-0.382 l -0.439,-0.722 c -0.157,-0.263 -0.295,-0.463 -0.421,-0.602 -0.124,-0.136 -0.25,-0.232 -0.378,-0.282 -0.126,-0.053 -0.288,-0.077 -0.482,-0.077 m 0.625,-2.237 h -1.008 v 1.463 h 0.98 c 0.263,0 0.483,-0.022 0.662,-0.067 0.18,-0.043 0.316,-0.12 0.41,-0.227 0.095,-0.107 0.143,-0.258 0.143,-0.445 0,-0.148 -0.039,-0.28 -0.114,-0.392 -0.078,-0.112 -0.182,-0.195 -0.318,-0.253 -0.128,-0.053 -0.378,-0.079 -0.755,-0.079"
             id="path26" />
          <path
             fill="#1d1d1b"
             d="m 88.019,110.074 c 0,-2.493 2.01,-4.51 4.492,-4.51 2.479,0 4.489,2.017 4.489,4.51 0,2.493 -2.01,4.512 -4.49,4.512 -2.481,0 -4.491,-2.02 -4.491,-4.512 m 0.9,0 c 0.005,1.991 1.607,3.603 3.592,3.607 1.981,-0.004 3.586,-1.616 3.59,-3.607 -0.004,-1.991 -1.609,-3.603 -3.59,-3.607 -1.985,0.004 -3.587,1.616 -3.592,3.607"
             id="path28" />
        </g>
      </g>
    </g>
  </g>
</svg>
