<?xml version="1.0" encoding="UTF-8" standalone="no"?>
<svg
   width="200"
   height="200"
   viewBox="0 0 200 200"
   version="1.1"
   id="svg6"
   sodipodi:docname="my-e-car.svg"
   inkscape:version="1.2.1 (9c6d41e410, 2022-07-14)"
   xmlns:inkscape="http://www.inkscape.org/namespaces/inkscape"
   xmlns:sodipodi="http://sodipodi.sourceforge.net/DTD/sodipodi-0.dtd"
   xmlns="http://www.w3.org/2000/svg"
   xmlns:svg="http://www.w3.org/2000/svg">
  <defs
     id="defs10" />
  <sodipodi:namedview
     id="namedview8"
     pagecolor="#ffffff"
     bordercolor="#000000"
     borderopacity="0.25"
     inkscape:showpageshadow="2"
     inkscape:pageopacity="0.0"
     inkscape:pagecheckerboard="0"
     inkscape:deskcolor="#d1d1d1"
     showgrid="false"
     inkscape:zoom="3.72"
     inkscape:cx="93.010753"
     inkscape:cy="100.80645"
     inkscape:window-width="1920"
     inkscape:window-height="1017"
     inkscape:window-x="-8"
     inkscape:window-y="-8"
     inkscape:window-maximized="1"
     inkscape:current-layer="svg6" />
  <rect
     style="fill:#ffffff;fill-rule:evenodd;stroke-width:1.35742"
     id="rect345"
     width="200"
     height="200"
     x="0"
     y="0" />
  <path
     d="m 25.265871,74.427043 c -10.82,8.936 -2.274,26.911997 17.787,37.415997 l 5.115,2.678 6.829,-3.819 c 3.756,-2.1 8.841,-5.831 11.3,-8.29 4.322,-4.322997 4.591,-4.435997 8.079,-3.406997 10.6,3.124997 22.743,2.211997 33.288999,-2.503 5.316,-2.378 5.827,-2.438 7.972,-0.935 2.91,2.038 7.092,2.047 11.005,0.023 2.635,-1.362 2.978,-1.987 2.476,-4.5 -0.409,-2.045 -0.189,-2.918 0.736,-2.918 0.726,0 2.135,-0.9 3.13,-2 2.238,-2.473 0.114,-2.818 -3.173,-0.516 -1.952,1.367 -2.247,1.287 -3.754,-1.013 -1.575,-2.403 -1.545,-2.531 0.798,-3.422 3.243,-1.233 4.282,-3.049 1.745,-3.049 -1.102,0 -2.64,0.91 -3.419,2.022 -0.983,1.404 -1.987,1.804 -3.281,1.307 -1.68,-0.644 -1.651,-0.443 0.29,2.025 3.199,4.066 3.968,8.68 1.721,10.323 -4.532,3.314 -11.427,-0.144 -11.427,-5.731 0,-1.472 0.933,-3.862 2.073,-5.311 2.614,-3.324 0.659,-3.458 -2.618,-0.18 -2.567,2.567 -3.27,6.923 -1.312,8.133 1.577,0.975 -2.289,2.877 -9.813,4.827 -7.104999,1.84 -17.569999,2.057 -23.785999,0.492 l -4.342,-1.094 0.526,-7.678 c 0.498,-7.266 0.381,-7.853 -2.19,-10.907 -2.361,-2.807 -3.339,-3.228 -7.486,-3.228 -3.262,0 -6.566,0.906 -10.449,2.864 -5.45,2.75 -5.767,2.795 -7.891,1.142 -7.06,-5.499 -15.237,-6.627 -19.93,-2.751 m 1.712,2.997 c -8.453,7.27 -0.194,24.101997 16.185,32.985997 l 5.048,2.738 5.92,-3.826 c 3.256,-2.105 7.587,-5.774 9.624,-8.153 l 3.703,-4.325997 -5.583,-3.363 c -3.071,-1.85 -7.897,-5.128 -10.726,-7.285 l -5.143,-3.922 -2.504,2.199 -2.504,2.2 1.881,-2.231 c 2.323,-2.756 1.327,-4.257 -4.792,-7.219 -5.431,-2.629 -7.87,-2.585 -11.109,0.202 m 32.006,-1.336 c -1.65,0.412 -4.505,1.533 -6.345,2.492 l -3.345,1.742 3.993,2.937 c 2.196,1.615 6.617,4.516 9.824,6.447 6.674,4.019 7.176,3.698 7.303,-4.673 0.112,-7.389 -4.189,-10.755 -11.43,-8.945 m 6.621,39.182997 c -1.459,8.835 -1.453,8.901 0.829,8.901 1.585,0 2.17,-1.122 3.13,-6 0.956,-4.862 1.548,-6 3.117,-6 1.367,0 1.792,0.515 1.443,1.75 -0.271,0.963 -0.791,3.662 -1.155,6 -0.593,3.816 -0.454,4.25 1.36,4.25 2.146,0 2.62,-1 3.67,-7.75 0.525,-3.38 1.075,-4.25 2.681,-4.25 1.589,0 1.905,0.481 1.481,2.25 -0.297,1.237 -0.854,3.976 -1.236,6.086 -0.657,3.624 -0.564,3.818 1.682,3.5 2.094,-0.296 2.482,-1.073 3.258,-6.524 1.302,-9.148 1.309,-9.141 -9.694,-9.064 l -9.446,0.065 -1.12,6.786 m 24.403,-0.43 c 0.385,3.757 1.1,7.259 1.588,7.781 1.819,1.946 0.865,3.55 -2.112,3.55 -2.049,0 -3,0.494 -3,1.557 0,1.214 0.938,1.49 4.25,1.25 l 4.25,-0.307 4.676,-9.5 c 2.571999,-5.225 4.708999,-9.838 4.749999,-10.25 0.041,-0.412 -0.968,-0.75 -2.242,-0.75 -1.871,0 -2.783999,1.106 -4.749999,5.75 l -2.434,5.75 -0.5,-5.5 c -0.439,-4.829 -0.785,-5.54 -2.838,-5.831 -2.312,-0.327 -2.331,-0.254 -1.638,6.5 m 25.726999,-5.132 c -1.206,0.845 -2.684,3.357 -3.283,5.582 -0.899,3.338 -0.806,4.479 0.529,6.516 1.399,2.137 2.25,2.429 6.301,2.167 3.519,-0.227 4.767,-0.737 5.016,-2.052 0.273,-1.435 -0.401,-1.75 -3.741,-1.75 -2.954,0 -4.073,-0.412 -4.073,-1.5 0,-1.108 1.159,-1.5 4.433,-1.5 3.589,0 4.556,-0.39 5.083,-2.049 1.673,-5.274 -5.251,-8.926 -10.265,-5.414 m 23.731,0.277 c -2.91,2.356 -4.017,11.082 -1.654,13.043 2.215,1.838 8.074,1.074 8.487,-1.107 0.258,-1.359 -0.355,-1.75 -2.742,-1.75 -3.185,0 -3.42,-0.537 -2.179,-4.998 0.487,-1.749 1.578,-2.651 3.638,-3.008 1.735,-0.3 3.081,-1.225 3.279,-2.252 0.467,-2.424 -5.81,-2.373 -8.829,0.072 m 12.124,0.08 c -2.365,2.365 -3.629,9.261 -2.19,11.949 0.868,1.622 2.067,1.984 6.438,1.945 l 5.372,-0.049 1.221,-6.829 c 0.671,-3.757 0.931,-7.298 0.578,-7.87 -1.139,-1.843 -9.336,-1.229 -11.419,0.854 m 15.385,-0.582 c -0.465,1.383 -2.491,12.667 -2.491,13.872 0,0.449 0.87,0.816 1.933,0.816 2.055,0 2.539,-1.042 3.572,-7.691 0.509,-3.281 1.12,-4.257 2.813,-4.5 1.189,-0.17 2.301,-1.043 2.472,-1.94 0.245,-1.288 -0.555,-1.644 -3.795,-1.689 -2.326,-0.032 -4.278,0.459 -4.504,1.132 m -48.241,2.406 c -1.988,0.714 -1.448,3.282 0.691,3.282 1.068,0 2.188,-0.399 2.489,-0.887 0.736,-1.19 -1.612,-2.959 -3.18,-2.395 m 35.357,1.864 c -1.278,3.33 -0.664,6.418 1.276,6.418 1.835,0 3.074,-2.496 3.103,-6.25 0.018,-2.213 -3.542,-2.35 -4.379,-0.168 m -50.607,1.918 c 0,0.988 0.988,1.5 2.893,1.5 1.649,0 3.141,-0.645 3.469,-1.5 0.443,-1.156 -0.221,-1.5 -2.893,-1.5 -2.417,0 -3.469,0.455 -3.469,1.5 m 25,0 c 0,1 1,1.5 3,1.5 2,0 3,-0.5 3,-1.5 0,-1 -1,-1.5 -3,-1.5 -2,0 -3,0.5 -3,1.5"
     stroke="none"
     fill="#95c124"
     fill-rule="evenodd"
     id="path2" />
</svg>
