<?xml version="1.0" encoding="UTF-8" standalone="no"?>
<!-- Generator: Adobe Illustrator 26.0.2, SVG Export Plug-In . SVG Version: 6.00 Build 0)  -->

<svg
   version="1.1"
   id="Calque_1"
   x="0px"
   y="0px"
   viewBox="0 0 110 110"
   xml:space="preserve"
   sodipodi:docname="aubonne.svg"
   width="110"
   height="110"
   inkscape:version="1.2.1 (9c6d41e410, 2022-07-14)"
   xmlns:inkscape="http://www.inkscape.org/namespaces/inkscape"
   xmlns:sodipodi="http://sodipodi.sourceforge.net/DTD/sodipodi-0.dtd"
   xmlns="http://www.w3.org/2000/svg"
   xmlns:svg="http://www.w3.org/2000/svg"><defs
   id="defs2853" /><sodipodi:namedview
   id="namedview2851"
   pagecolor="#ffffff"
   bordercolor="#000000"
   borderopacity="0.25"
   inkscape:showpageshadow="2"
   inkscape:pageopacity="0.0"
   inkscape:pagecheckerboard="0"
   inkscape:deskcolor="#d1d1d1"
   showgrid="false"
   inkscape:zoom="3.7726426"
   inkscape:cx="69.977474"
   inkscape:cy="67.061746"
   inkscape:window-width="1920"
   inkscape:window-height="1017"
   inkscape:window-x="-8"
   inkscape:window-y="-8"
   inkscape:window-maximized="1"
   inkscape:current-layer="g2848" />
<style
   type="text/css"
   id="style2712">
	.st0{fill:none;stroke:#009AA8;stroke-width:0.6507;stroke-miterlimit:10;}
	.st1{fill-rule:evenodd;clip-rule:evenodd;fill:#1D1D1B;}
	.st2{fill:#FFFFFF;}
	.st3{fill:#1D1D1B;}
	.st4{fill:#D80812;}
	.st5{fill:#FFDE00;}
</style>
<g
   id="g2848"
   transform="matrix(0.14277148,0,0,0.14277148,4.7711911,22.411528)">
	<rect
   style="fill:#ffffff;fill-rule:evenodd;stroke-width:11.0062"
   id="rect353"
   width="770.46198"
   height="770.46198"
   x="-33.418377"
   y="-156.97482" /><line
   class="st0"
   x1="471.12"
   y1="320.28"
   x2="471.12"
   y2="347.23999"
   id="line2714" />
	<line
   class="st0"
   x1="532.35999"
   y1="320.28"
   x2="532.35999"
   y2="347.23999"
   id="line2716" />
	<g
   id="g2776">
		<path
   class="st1"
   d="m 402.52,130.47 c -0.07,1 0.14,2.28 -0.15,3.07 -1.77,0.16 -2.68,-0.51 -3.71,-1.1 0.12,-1.82 1.82,-2.03 3.86,-1.97 z"
   id="path2718" />
		<path
   class="st1"
   d="m 426.34,146.31 c -0.03,1.29 -0.03,2.55 -0.03,3.82 -2.67,1.29 -3.67,-1.44 -2.93,-3.9 0.95,0.07 2.2,-0.18 2.96,0.08 z"
   id="path2720" />
		<path
   class="st1"
   d="m 535.42,191.03 c -0.8,6.7 0.24,13.62 0.73,19.87 -6.1,0.08 -12.2,0.17 -18.28,0.27 1.67,-4.33 2.33,-10.95 1.56,-16.85 -0.1,-0.78 -0.46,-1.54 -0.37,-2.17 0.33,-2.18 4.33,-3.69 6.72,-3.92 4.11,-0.37 7.8,0.88 9.64,2.8 z m -13.41,2.86 c 1.03,0.59 1.93,1.3 3.72,1.1 0.02,-0.97 0.02,-1.94 0.03,-2.93 -1.95,-0.07 -3.54,0.2 -3.75,1.83 z m 9.26,1.66 c 1.72,-0.04 1.48,-2.58 0.4,-3.19 -1.14,-0.66 -2.73,-0.23 -2.97,1.44 0.99,0.29 1.49,1.78 2.57,1.75 z m -6.56,12.58 c 2.18,-1.78 0.28,-6.39 1,-9.33 -1.19,-0.07 -2.09,-0.45 -2.84,-0.97 -0.54,3.34 -1.26,9.39 1.84,10.3 z m 6.17,-0.09 c 2.73,-0.69 2.72,-11.31 -1.19,-10.3 -1.32,1.84 -2.92,11.37 1.19,10.3 z"
   id="path2722" />
		<path
   class="st1"
   d="m 475.21,190.34 c 2.06,5.37 -1.31,15.52 2.67,19.08 -0.77,2.12 -2.92,2.88 -5.7,3.01 0.47,1.17 0.9,2.39 2.29,2.64 -0.34,0.77 -1.05,1.18 -1.8,1.56 0.46,1.17 0.87,2.4 2.28,2.64 -0.48,1.29 -1.88,1.57 -2.85,2.33 -0.63,0.5 -0.74,1.25 -1.45,1.68 -1.43,-0.19 -1.15,-2.15 -2.03,-2.9 -0.47,-0.34 -1.16,0.16 -1.54,-0.09 -0.31,-1.89 1.07,-2.05 1.71,-2.97 -0.06,-1.12 -1.26,-1.36 -2.18,-1.23 -0.37,-2.21 1.54,-2.16 2.07,-3.48 -2.7,-0.34 -6.17,-0.43 -9.13,-0.12 1.08,-6.31 1.45,-13.75 1.23,-20.92 3.29,-2.85 9.53,-1.52 14.43,-1.23 z m -12.4,5.02 c 1.13,0.32 2.14,1.39 3.72,0.83 0.01,-1.23 0.03,-2.45 0.03,-3.68 -2.34,-0.13 -3.09,1.31 -3.75,2.85 z m 9.51,0.76 c 1.56,-1.59 -0.53,-3.22 -2.01,-3.67 -1.64,1.39 -0.48,4.59 2.01,3.67 z m -7.73,3.03 c -0.5,2.83 -3.08,9.55 0.8,10.32 1.29,-1.75 2.7,-10.1 -0.8,-10.32 z m 4.74,-0.07 c 0.03,4.37 -0.64,9.42 2.88,10.28 1.38,-2.56 1.41,-7.78 0.09,-10.32 -0.99,0.02 -1.98,0.03 -2.97,0.04 z"
   id="path2724" />
		<path
   class="st1"
   d="m 502.87,190.47 c 1.81,4.52 -0.64,13.45 1.76,17.67 0.35,0.61 0.9,1.1 0.9,1.38 0.01,0.6 -0.95,1.62 -1.44,1.95 -1.7,1.1 -4.54,1.09 -7.34,1.11 -0.11,0.66 1.34,1.53 2.29,1.12 0.42,0.47 -0.5,1.01 -0.91,1.41 -0.5,0.51 -0.97,1.14 -1.56,1.32 0.63,1.09 1.26,2.21 3.21,1.99 -1.3,1.96 -3.16,3.32 -5.82,3.91 0.53,-2.39 -1.88,-1.85 -2.82,-2.77 -0.15,-1.38 1.59,-1.94 2.36,-2.82 -0.19,-1.42 -2.27,-0.95 -2.97,-1.88 0.27,-1.25 1.37,-1.67 2.09,-2.45 -1.88,-0.02 -3.57,-0.15 -5.26,0.22 0.86,-6.48 1.41,-13.83 1.08,-21.05 3.33,-2.67 9.7,-1.53 14.43,-1.11 z m -12.41,5.01 c 1.23,0.31 1.92,1.14 3.74,0.85 -0.06,-1.24 0.17,-2.79 -0.09,-3.83 -2.13,0.1 -3.03,1.41 -3.65,2.98 z m 7.51,-2.89 c -1.4,1.34 -0.79,4.34 2.03,3.66 1.58,-1.57 -0.46,-3.35 -2.03,-3.66 z m -5.73,6.68 c -0.5,2.98 -3.1,9.62 0.94,10.32 0.83,-1.52 1.48,-5 1.23,-7.53 -0.13,-1.21 -0.6,-2.77 -1.91,-2.79 -0.09,-0.01 -0.17,-0.01 -0.26,0 z m 4.77,0.33 c -0.02,4.27 -0.46,8.95 2.86,9.9 1.4,-2.49 1.48,-7.89 0.09,-10.33 -0.92,0.21 -2.65,-0.38 -2.95,0.43 z"
   id="path2726" />
		<path
   class="st1"
   d="m 668.65,286.1 c -59.89,-16.87 -113.48,-40.01 -173.83,-56.41 12.82,9.21 28.76,15.22 43.91,21.8 7.66,3.31 15.23,6.72 22.82,10.13 15.24,6.84 30.03,13.76 44.99,21.02 22.06,10.72 44.4,21.64 66.22,32.58 l -0.2,0.08 -0.06,0.17 c -17.37,-4.92 -31.99,-14.04 -47.67,-21.37 -46.99,-21.95 -94.5,-43.06 -142.89,-63.97 1.59,1.42 3.58,2.33 5.37,3.49 27.47,17.6 56.53,34 85.38,50.38 23.04,13.1 46.15,26.26 68.87,39.79 7.45,4.46 16.57,7 21.62,14.48 l -0.2,0.08 -0.09,0.18 c -49.61,-26.43 -96.1,-55.49 -144.77,-82.81 -16.12,-9.05 -31.6,-19.57 -50.08,-25.68 1.48,1.62 3.17,2.98 4.86,4.41 32.09,27.07 65.93,52.88 99.65,78.6 14.18,10.78 28.26,21.54 42.3,32.64 6.91,5.47 14.59,10.48 19.26,18.21 l -0.19,0.06 -0.06,0.19 c -36.98,-28.39 -73.77,-56.36 -110.54,-84.81 -11.01,-8.51 -21.98,-17.01 -33.11,-25.53 -3.66,-2.83 -7.36,-5.67 -10.98,-8.5 -7.26,-5.66 -12.65,-14.33 -23.8,-15.22 0.34,1 1.24,1.62 1.91,2.4 10.27,12.24 20.86,24.62 31.58,36.63 17.19,19.21 34.43,38.29 51.6,57.61 17.05,19.17 34.25,38.53 50.43,58.64 l -0.2,0.08 -0.06,0.19 c -13.59,-11.81 -25.57,-25.29 -37.36,-38.96 -5.86,-6.82 -12.03,-13.45 -17.96,-20.26 -11.8,-13.6 -24,-26.69 -36.05,-40.25 -11.99,-13.51 -23.96,-26.45 -35.93,-40.26 -2.87,-3.31 -5.27,-7.42 -8.4,-10.71 -3.12,-3.28 -6.89,-6.44 -12.94,-5.8 -0.04,0.53 0.39,0.97 0.61,1.38 8.11,13.97 16.49,28.19 25.1,41.94 26.64,42.52 53.94,84.59 79.14,128.57 l -0.22,-0.06 -0.16,0.18 c -7.24,-4.99 -10.24,-13.51 -14.74,-20.69 -13.56,-21.57 -27.18,-43.51 -40.61,-65.28 -8.97,-14.57 -18.1,-29.02 -27.38,-43.31 -9.33,-14.29 -18.21,-28.84 -27.95,-42.66 -2.09,0.03 -4.2,0.06 -6.3,0.09 1.04,3.86 2.32,7.64 3.61,11.41 9,26.2 19.68,51.66 29.05,77.7 10.66,29.66 22.99,58.74 30.85,91.03 l -0.2,0.06 -0.07,0.19 c -23.59,-58.94 -44.46,-120.57 -67.23,-180.32 -2.76,-0.09 -6.22,0.53 -7.71,-0.8 2.95,65.57 14.01,123.11 18.41,187.27 l -0.24,-0.09 -0.15,0.22 c -3.83,-5.51 -4.1,-13.75 -4.83,-21.47 -5.19,-55.78 -11.99,-110.99 -17.96,-165.85 -2.51,0.62 -4.65,0.09 -7.46,0.1 -0.86,7.49 -1.05,15.16 -1.48,22.83 -0.43,7.67 -0.88,15.39 -1.1,23.19 -0.67,23.27 -1.73,46.91 -2.31,70.46 -0.57,23.38 -1.85,46.81 -3.43,69.35 l -0.2,-0.04 -0.2,0.05 c -2.41,-62.24 3.46,-123.52 4.61,-185.03 -1.52,-1.27 -4.89,-0.75 -7.46,-0.65 -14.06,60.04 -22.59,125.55 -35.88,186.36 l -0.15,-0.2 -0.24,0.06 c -0.16,-17.3 3.87,-32.08 6.61,-47.35 6.78,-37.95 14.24,-75.72 20.81,-114.56 1.08,-6.33 2.3,-13.45 3.42,-20.3 0.18,-1.08 0.54,-2.59 0.4,-2.94 -0.36,-1.07 -4.02,-1.65 -5.64,-1.32 -4.34,0.85 -6.6,6.24 -8.2,10.68 -1.51,4.13 -2.73,8.57 -4.24,12.16 -9.51,23.04 -20.11,45.46 -30.2,67.94 -6.83,15.25 -13.58,30.41 -20.08,45.38 -6.62,15.28 -12.37,31.34 -21.35,44.13 l -0.08,-0.2 -0.19,0.08 c 24.47,-61.33 52.25,-119.4 77.63,-179.81 -7.3,-1.81 -11.65,3.26 -14.74,7.85 -2.46,3.63 -4.68,7.49 -7.18,11.06 -15.02,21.58 -30.08,43.07 -45.22,64.19 -20.54,28.73 -38.48,59.28 -60.7,85.18 l -0.11,-0.21 -0.15,-0.16 c 36.82,-57.59 78.07,-110.84 115.61,-167.73 -5.98,-2.03 -10.27,1.67 -13.68,4.64 -3.47,3.01 -6.64,6.68 -9.49,9.94 -4.45,5.11 -9.86,9.68 -14.54,14.74 -7.7,8.33 -15.89,16.47 -23.76,24.91 -6.2,6.64 -12.91,13.02 -19.21,19.63 -3.18,3.34 -6.52,6.54 -9.74,9.81 -9.55,9.74 -19.22,19.64 -28.57,29.71 -3.13,3.36 -6.36,6.69 -9.61,9.95 -9.65,9.59 -19.44,19.48 -29.96,28.32 l -0.16,-0.18 -0.23,0.06 c 16.05,-18.13 32.99,-35.52 49.88,-52.94 10.62,-10.96 21.59,-22.04 32.46,-32.94 6.18,-6.2 12.19,-12.62 18.44,-18.85 9.3,-9.25 18.6,-18.78 27.65,-28.42 5.99,-6.36 12.23,-12.53 17.93,-19.11 -5.78,0.35 -10.31,2.84 -14.32,5.69 -3.86,2.72 -7.41,5.9 -11.15,8.69 -7.54,5.69 -15.24,11.25 -23.04,16.76 -15.55,10.94 -30.87,22.06 -46.35,33.25 -30.77,22.24 -61.72,44.06 -93.11,66.03 l -0.05,-0.2 -0.21,-0.05 c 5.9,-6.98 13.43,-12.24 20.76,-17.59 7.35,-5.42 14.84,-10.82 22.26,-16.12 44.56,-31.82 89.8,-63.75 133.76,-96.28 -11.57,-0.97 -18.35,6.43 -26.47,10.83 -11.99,6.52 -24.55,13.37 -36.84,19.87 -8.19,4.35 -16.41,8.62 -24.69,13.09 -4.09,2.2 -8.31,4.19 -12.4,6.42 -32.76,17.73 -66.11,34.18 -99.79,51.32 l -0.18,-0.14 -0.2,-0.11 c 60.37,-35.69 125.91,-66.31 186.57,-101.71 -68.91,24.76 -130.96,56.31 -198.49,82.39 l 0.06,-0.2 -0.06,-0.18 c 13.51,-9.51 30.33,-14.15 45.73,-21.02 46.09,-20.57 93.03,-40.42 139.88,-60.05 -2.23,-0.54 -4.54,-0.34 -6.68,-0.17 -6.56,0.51 -12.4,2 -18.06,3.68 -7.44,2.25 -14.62,4.81 -21.94,7.08 -44.11,13.66 -86.61,28.75 -132.5,41.21 l 0.07,-0.23 -0.18,-0.15 c 23.93,-11.17 51.82,-17.26 78.18,-25.68 26.28,-8.39 52.54,-17.14 78.6,-25.31 -45.1,6.11 -86.69,16.79 -131.97,23.14 l 0.07,-0.2 -0.06,-0.19 c 34.21,-9.7 73.09,-14.81 110.2,-21.66 -6.44,-1.05 -13.19,-0.58 -19.94,-0.5 -6.67,0.1 -13.38,0.87 -19.83,1.3 -13.15,0.87 -26.39,2.13 -40.03,2.2 l 0.08,-0.18 -0.08,-0.19 c 39.86,-6.38 85.1,-7.81 131.06,-8.47 5.57,-0.07 11.16,0.18 16.98,-0.1 0.66,-0.04 1.51,0.19 1.94,-0.53 -0.38,-1.66 -5.24,-0.73 -4.59,-3.52 0.15,-0.73 0.44,-0.59 1.16,-0.9 3.14,-1.38 7.41,-2.83 9.55,-4.6 0.89,-3.64 -1.62,-7.26 0.1,-10.2 0.73,-0.72 1.98,-1.21 3.22,-1.7 2.16,-0.84 4.71,-1.6 7.35,-0.61 -0.04,-2.97 -0.68,-7.53 1.62,-8.3 5.19,-1.76 5.45,5.48 5.04,10.63 0.52,-2.03 1.18,-4.06 1.74,-6.13 0.55,-2.12 1.27,-4.57 1.19,-6.65 -0.05,-1.52 -2.27,-2.88 -3.57,-3.77 -1.88,-1.3 -4.33,-2.97 -2.4,-5.44 0.36,-0.45 1.05,-0.62 1.05,-1.16 -3.96,-0.24 -8.84,0.04 -10.27,-2.4 -0.7,1.71 0.69,2.73 1.51,3.68 1.2,1.37 2.45,2.78 2.38,5.44 -4.19,2.88 -14.54,5.38 -20.46,2.71 -1.13,-0.51 -1.85,-1.44 -2.69,-2.13 -0.66,2.82 0.16,5.8 -0.58,8.14 -0.29,0.96 -1.14,1.74 -1.19,2.58 -0.08,1.54 1.7,3.6 2.66,4.55 3.61,3.56 8.54,6.02 9.53,11.84 -3.32,-0.48 -5.64,-3.05 -7.54,-5.11 -1.99,-2.18 -3.89,-4.46 -6.63,-5.9 -2.34,3.31 -2.55,9.41 -8.71,8.53 0.22,1.64 1.38,2.51 2.3,3.54 0.84,0.96 2.07,1.95 1.76,3.67 -0.42,0.52 -1.1,0.17 -1.54,0.01 -3.58,-1.2 -6.17,-4.97 -6.35,-9.2 1.23,-1.28 4.15,-0.88 6.57,-0.99 0.95,-1.68 1.04,-3.72 1.71,-5.51 0.68,-1.8 1.97,-2.88 3.13,-4.11 -0.8,-2.3 -0.82,-5.02 -0.45,-8.03 0.58,-4.58 1.86,-9.42 -2.22,-10.65 0.55,-0.82 1.72,-2.11 2.21,-3.35 1.26,-3.13 -0.47,-8.86 0.88,-11.99 0.31,-0.69 0.65,-1.23 1.05,-1.79 0.42,-0.58 0.94,-0.9 0.79,-1.92 -0.24,-1.56 -2.67,-1.4 -3.86,-1.84 -0.02,-2.89 2.36,-4.23 3.42,-6.56 0.33,-0.73 0.77,-1.98 0.53,-2.69 -0.35,-1.07 -3.48,-1.6 -4.86,-1.97 -1.69,-0.44 -4.33,-1.01 -4.62,-2.09 -0.22,-0.82 0.58,-2.36 0.92,-3.2 0.38,-0.89 1.17,-2.1 1.07,-2.95 -0.22,-1.72 -5.07,-3.66 -6.4,-4.36 -3.19,-1.68 -5.73,-3.58 -5.97,-7.95 -3.4,0.46 -5.28,-1.64 -8.49,-1.79 -0.93,-9.13 -12.19,-7.98 -15.29,-14.94 -3.57,0.58 -2.6,6.68 -5.73,7.21 -2.45,0.42 -3.34,-2.01 -5.51,-2.34 -2.21,3.21 -2.68,8.16 -5.87,10.4 -2.25,-0.89 -3.98,-1.44 -6.19,-0.81 -2.42,0.71 -3.96,2.67 -7.23,2.03 -2.26,2.22 -3.71,9.14 -8.67,5.84 -2.47,4.58 -4.2,8.75 -6.03,13.84 -0.58,1.55 -1.49,3.21 -1.71,4.86 -0.03,0.16 -0.04,0.33 -0.02,0.64 0.46,3.9 2.93,6.58 5.58,9.61 1.07,1.23 2.32,2.55 3.3,4.29 0.84,1.47 1.9,4.25 1.23,6.1 -0.83,2.35 -4.94,2.93 -7.22,1.63 1.67,4.17 4.31,7.55 6.46,12.01 0.73,1.5 1.89,3.76 1.5,5.34 -1.1,4.56 -3,9.94 -3.88,15.34 -0.9,5.67 -0.8,11.56 3.23,14.73 l -0.22,0.1 -0.17,0.17 c -4.32,-0.64 -5.54,-4.34 -8.57,-6.26 0.7,-0.94 1.72,-1.74 2.34,-2.84 2.77,-4.89 0.8,-14 3.25,-19.14 0.36,-0.74 1.12,-1.3 1.19,-2.32 0.09,-1.31 -1.07,-3.83 -1.63,-4.82 -1.56,-2.8 -3.67,-4.77 -5.34,-7.58 -0.81,-1.37 -1.7,-3.03 -1.49,-4.94 0.14,-1.28 0.94,-2.87 1.83,-3.22 2.11,-0.79 4.06,1.15 5.77,1.07 -2.21,-6.39 -6.12,-10.27 -9.76,-15.54 -0.41,-0.6 -1.49,-1.81 -1.39,-2.39 0.31,-1.92 1.08,-3.83 1.73,-5.76 4.11,-12.32 10.99,-20.62 22.24,-26.17 1.01,-0.51 1.96,-1.03 2.58,-1.05 2.2,-0.09 3.24,2.11 5.25,2.34 3.69,-1.72 2.88,-7.88 5.77,-10.4 1.69,0.55 3.27,1.25 5.12,0.69 3.49,-1.04 3.76,-4.83 8.4,-4.69 2.86,0.08 5.51,1.83 7.43,3.45 5.76,4.85 9.96,12.03 19.18,13.11 0.78,6.48 4.34,10.17 12.41,9.37 0.05,3.57 -0.03,6.99 -0.99,9.57 1.96,2.05 6.84,1.19 8.45,3.58 0.67,3.49 -2.51,6.83 -1.76,9.58 0.42,1.5 1.96,1.83 3.32,2.63 0.33,0.16 -0.15,0.63 -0.26,0.78 -0.58,0.73 -1.26,1.43 -1.7,2.57 -0.93,2.43 -0.37,5.66 -0.59,8.67 -0.22,3.05 -1.59,4.66 -3.01,6.27 1.68,3.59 4.7,5.36 9.99,5.09 4.81,-0.24 9.87,-0.51 12.72,1.87 -1.44,-3.2 -5.46,-6.67 -2.87,-11.17 3.78,-2.02 6.73,2.03 10.15,1.64 1.61,-0.18 2.22,-1.08 3.5,-1.84 0.25,1.74 0.86,2.94 2.15,3.55 1.41,0.66 3.57,0.49 5.27,0.93 1.33,0.36 2.19,0.87 2.94,1.87 0.77,-8.19 1.02,-16.69 1.5,-25.36 0.97,-16.98 1.04,-35.09 0.22,-51.98 -0.41,-8.41 -1.11,-16.55 -1.84,-24.44 -0.15,-1.55 1.38,-3.15 2.22,-4.1 0.89,-1.02 2.08,-1.95 2.46,-3.22 0.42,-1.31 0.22,-3.72 0.44,-5.1 1.6,-9.79 8.52,-15.63 14.61,-21.61 3.61,-3.55 7.18,-6.94 9.61,-11.08 1.27,-2.18 2.33,-4.63 2.65,-7.69 0.32,-3.23 -1.2,-5.23 -1.48,-8.38 -0.11,-1.36 0.02,-2.33 0.3,-3.2 0.31,-1 1.27,-1.78 1.19,-3.2 -1.19,-1.01 -3.75,0.56 -5.15,-0.31 -0.63,-0.48 -0.52,-1.52 -0.49,-2.16 0.11,-2.16 1.26,-4.25 2.22,-5.64 1.48,-2.11 3.42,-4.01 4.82,-5.42 1.77,0.8 2.7,1.49 3.06,3.27 0.72,3.55 -1.4,5.74 -1.24,8.94 0.03,0.7 0.3,1.52 0.49,2.28 0.49,1.99 0.87,4.44 0.85,7.12 -0.05,3.64 -0.16,7.13 0.57,10.19 1.26,5.48 4.93,9.34 8.36,13 6.09,6.5 13.54,11.68 14.84,22.72 0.19,1.48 -0.27,3.31 0.22,5.09 0.54,1.98 3.63,3.29 4.45,4.91 0.38,0.68 -0.22,2.55 -0.41,4.08 -2.48,18.62 -0.68,41.9 -1.96,61.55 2.69,2.1 7.23,1.85 9.91,0.11 2.47,-1.59 3.96,-4.54 5.73,-6.96 0.13,-0.2 0.38,-0.73 0.75,-0.64 1.79,11.66 14.48,12.9 23.38,18.14 1.08,0.62 3.07,1.64 3.21,2.63 0.02,0.16 -0.02,0.35 -0.01,0.51 -0.22,2.61 -3.91,1.79 -3.91,4.64 6.44,0.23 10.62,-3.25 15.11,-5.69 4.54,-2.47 9.54,-4.61 16.51,-4.06 -0.02,1.83 -0.03,3.66 -0.05,5.47 7.32,2.08 13.72,5.04 20.77,7.36 -0.71,-5.31 4.03,-7.41 6.02,-10.78 0.9,-1.54 1.08,-4.45 -0.09,-6.13 5.47,0.64 3.25,9.99 10.62,9.15 -0.75,1.77 -0.94,4.15 -1.1,6.52 -0.16,2.29 -0.21,4.89 0.71,6.36 0.73,1.13 3.09,2.06 4.74,2.73 5.31,2.14 12.1,3.45 15.5,6.78 1.35,8.38 0.17,17.2 -3.42,22.73 -0.52,0.82 -1.38,1.57 -1.56,2.31 -0.4,1.78 -0.03,4.21 0.08,5.99 0.36,5.57 1.06,10.84 1.65,16.28 3.72,2.15 9.9,0.87 15.19,0.55 5.48,-0.33 11.24,-0.75 13.35,2.99 -4.15,2.61 -9.56,-0.11 -14.8,0.22 12.69,4.27 31.49,2.48 45.23,5.72 l -0.19,0.16 0.06,0.24 c -29.07,2.58 -53.21,-4.29 -81.14,-4.59 35.68,9.42 75.1,15.14 110.81,24.58 l -0.21,0.14 0.09,0.24 c -12.55,0.56 -23.12,-2.52 -33.92,-4.89 -32.01,-7 -63.97,-13.56 -96.19,-20.82 47.67,20.53 104.08,33.5 151.71,54.56 l 0.06,0.19 z M 385.94,58.99 c 2.37,0.56 5.58,-0.35 6.54,1.43 0.8,1.46 0.61,4.9 -0.45,6.63 -1.26,2.1 -3.97,2.68 -7.23,2.28 0.02,-2.82 0.05,-5.6 0.08,-8.41 -4.26,2.09 -4.21,8.46 -5.78,13.2 15,-3.52 33.51,-0.25 49.67,-1.72 0.06,-3.29 -4.41,-1.54 -5.5,-3.61 -0.64,-1.25 -0.35,-3.64 -0.21,-5.22 0.17,-2.14 0.87,-4.24 1.08,-6.13 -5.86,-8.24 -12.99,-15.19 -19.87,-22.4 -3.82,10.23 -15.37,12.88 -18.33,23.95 z m -8.71,23.69 c -0.19,8.17 -0.8,16.77 -0.86,25.36 -0.09,8.65 -0.41,17.35 0.53,25.35 0.66,0.6 2.33,0.2 2.7,1.1 -0.72,0.97 -1.59,1.47 -2.22,2.46 -2.77,4.34 -1.1,11.74 -0.94,17.59 3.09,0.27 1.82,-3.51 3.14,-5.01 0.71,-0.82 2.06,-0.91 3.6,-0.68 -1.56,4.05 0.05,7.64 1.59,11.19 1.08,2.51 2.63,5.37 2.37,7.99 -0.09,0.98 -0.6,2.48 -1.56,2.44 -0.58,-0.77 0.31,-2.56 -0.36,-3.43 -0.51,-0.31 -1.34,-0.26 -2.19,-0.23 -1.29,1.37 0.1,3.93 -0.8,5.62 1.85,0.03 3.72,-1.34 6.05,-0.98 0.58,0.09 2.5,1.27 2.43,1.88 -0.07,0.48 -1.84,1.21 -2.47,1.31 -1.59,0.22 -4.18,-0.61 -6.31,-0.31 -1.33,0.21 -1.85,0.92 -2.82,0.94 1.11,-3.61 -1.63,-5.19 -2,-8.13 -0.61,1.14 -0.86,1.9 -0.79,3.06 0.09,1.63 1.28,3.09 1.12,4.45 -0.07,0.76 -0.53,1.18 -1.03,1.79 1.54,1.19 3.64,2.26 6.53,1.7 -1.11,2.76 1.47,3.8 1.62,5.18 0.09,0.71 -0.61,1.09 -0.12,1.29 4.3,-0.48 7.92,0.54 7.15,5.49 5.98,-2.29 8.14,-8.34 13.35,-11.39 3.09,2.6 6.8,4.61 7.63,9.45 -2.94,1.22 -2.95,-2.14 -5.77,-1.84 -0.05,6.95 -0.09,13.89 1.89,18.84 8.31,-3.24 16.89,-6.17 25.7,-8.9 0.06,-2.23 1.49,-5.07 -0.2,-6.5 -1.3,-0.44 -3.34,0.75 -4.38,-0.21 0.2,-8.54 0.66,-17.28 1.01,-26.12 1.09,-27 0.03,-54.58 0.73,-81.53 -14.61,-4.6 -40.15,-5.7 -54.32,0.78 z m 70.99,61.42 c -1.12,1.67 0.49,4.58 -0.06,6.24 -0.18,0.5 -0.92,1.2 -0.53,1.28 3.68,-0.62 9.39,1.12 11.97,-1.08 -3.9,-2.02 -6.99,-4.89 -11.38,-6.44 z m -14.31,3.13 c -0.02,1.24 -0.02,2.45 -0.03,3.69 4.01,-1.26 8.25,2.23 11.45,-0.16 -0.63,-4.33 -6.86,-3.11 -11.42,-3.53 z m 14.31,10.13 c 0.66,5.65 -0.83,10.18 -3.08,13.42 4.23,5.67 12.55,-0.5 17.15,-2.3 0.04,-4.12 0.07,-8.24 0.11,-12.36 -4.41,-1.77 -10.08,0.32 -14.18,1.24 z m 18.15,-0.26 c -1.87,1.81 -0.66,6.53 -1.11,9.44 6.29,0.93 5.99,-9.26 1.11,-9.44 z m 4.79,10.25 c -6.9,3 -14,6.16 -20.02,9.96 -0.31,0.18 -1.21,0.63 -0.79,0.77 28.97,-2.45 60.11,-2.75 90.11,-4.19 -15.49,-6 -30.76,-12.26 -47.33,-17.18 -6.64,4.02 -14.34,7.31 -21.97,10.64 z m -36.47,-6.88 c -0.89,5.85 5.94,4.01 10.51,4.42 2.11,-6.28 -5.85,-4.37 -10.51,-4.42 z m 2.48,9.78 c -0.84,0.08 -1.58,0.38 -2.57,0.54 -0.68,2.82 -2.53,9.1 0.8,10.3 1.26,-0.88 2.58,-1.88 4.15,-2.61 1.54,-0.71 3.4,-1.09 4.51,-2.34 -0.55,-3.77 -2.42,-6.34 -6.89,-5.89 z m 108.56,5.22 c -3.08,-0.26 -4.48,1.31 -4.92,3.25 2.8,-1.85 7.55,1.26 10.31,-0.91 -1,-0.92 -3.29,-2.17 -5.39,-2.34 z m 10.21,22.03 c 5.68,-2.17 4.45,-14.75 0.02,-17.08 0.06,5.65 -0.27,11.65 -0.02,17.08 z M 440.49,186.76 c 0.84,0.79 1.99,1.59 2.42,3.02 1.08,3.52 -1.39,7.33 -1.77,11.11 -0.47,5.1 2.03,10.77 1.92,15.65 -0.03,1.93 -0.56,3.53 -1.2,5.24 5.59,4.46 15.04,4.37 24.43,4.23 9.46,-0.13 19.35,0.24 28.17,0.64 18.27,0.81 38.82,1.6 55.59,-1.31 -0.13,-0.38 -0.62,-0.29 -0.9,-0.49 -1.36,-0.91 -1.32,-3.28 -2.15,-4.67 3.5,-11.96 -1.79,-25.26 0.35,-37.72 0.99,0.07 2.29,-0.18 3.06,0.09 1.86,2.18 -0.09,8.11 2.11,9.91 0.2,-0.01 0.41,0.53 0.39,-0.01 -0.17,-3.8 0.88,-8.35 -0.68,-10.95 -37.8,-0.02 -78.65,-1.03 -111.74,5.26 z m -47.19,13.01 c 3.28,1.65 7.16,2.71 10.38,4.44 -0.54,-6.48 1.47,-14.41 -0.73,-19.6 -3.49,4.65 -11.34,6.24 -9.65,15.16 z M 366.91,186.9 c 1.24,1.31 2.43,3.19 2.51,5.7 0.15,4.21 -2.12,8.38 -2.8,11.37 6.07,-0.01 9.83,-2.31 15.07,-3.15 -0.04,-3.04 -2.01,-5.85 -1.97,-9.01 0.04,-1.78 0.65,-3.4 1.21,-5.11 -4.44,-0.36 -9.54,-0.12 -14.02,0.2 z m 21.88,12.8 c 0.39,0.18 0.97,0.13 1.54,0.12 -0.32,-1.63 0.72,-4.21 -0.21,-5.6 -0.3,-0.25 -1.02,-0.07 -1.53,-0.1 0.44,1.71 -0.75,4.16 0.2,5.58 z m 46.45,0.51 c -0.01,-0.09 -0.02,-0.16 -0.13,-0.14 -0.04,0.11 -0.12,0.16 -0.26,0.15 -8.11,0.8 -15.91,2.68 -20.66,6.78 -0.64,0.57 -1.54,1.14 -1.7,2.07 8.23,2.31 13.54,7.52 22.57,8.97 0.06,-5.94 0.11,-11.89 0.18,-17.83 z m -78.33,24.78 c -0.24,0.22 -1.15,0.51 -0.64,0.79 25.13,-0.38 49.39,0.46 74.49,0.1 3.57,-0.05 7.06,-0.03 10.56,-0.53 -16.11,-7.17 -32.03,-14.51 -48.06,-21.74 -11.19,7.67 -26.34,12.7 -36.35,21.38 z m 1.2,-4.34 c 9.39,-4.24 16.73,-11.8 25.37,-16.01 -0.09,0 -0.17,0 -0.27,0 -17.97,1.87 -29.64,9.97 -41.72,17.65 5.45,1.95 11.97,0.47 16.62,-1.64 z m -5.2,-8.08 c 0.66,-1.23 1.47,-2.32 1.96,-3.72 -1.04,-0.19 -1.35,-1.1 -2.69,-0.99 0.34,1.59 -1.11,4.46 0.73,4.71 z"
   id="path2728" />
		<g
   id="g2774">
			<path
   class="st1"
   d="m 672.56,315.3 c 0.42,0.24 0.91,0.31 1.35,0.53"
   id="path2730" />
			<path
   class="st1"
   d="m 663.22,338.53 c -0.02,-0.03 -0.14,-0.11 -0.25,-0.17"
   id="path2732" />
			<path
   class="st1"
   d="m 634.43,364.47 c -0.2,-0.14 -0.38,-0.28 -0.52,-0.49"
   id="path2734" />
			<path
   class="st1"
   d="m 592.03,386.87 c -0.31,-0.57 -0.89,-0.9 -1.28,-1.4"
   id="path2736" />
			<path
   class="st1"
   d="m 546.94,401.56 c -0.02,-0.06 -0.16,-0.16 -0.24,-0.3"
   id="path2738" />
			<path
   class="st1"
   d="m 492.88,409.79 c 0.24,0.64 0.55,1.32 0.61,2.02"
   id="path2740" />
			<path
   class="st1"
   d="m 436.16,416.3 c -0.05,-0.09 -0.08,-0.15 -0.12,-0.26"
   id="path2742" />
			<path
   class="st1"
   d="m 397.09,417.75 c -0.08,-0.99 0.05,-1.93 0.02,-2.92"
   id="path2744" />
			<path
   class="st1"
   d="m 357.91,416.38 c 0.06,-0.34 0.06,-0.68 0.12,-1.01"
   id="path2746" />
			<path
   class="st1"
   d="m 299.24,409.05 c -0.03,0.3 -0.34,0.49 -0.39,0.78"
   id="path2748" />
			<path
   class="st1"
   d="m 247.35,399.22 c 0.49,-0.56 0.91,-1.22 1.4,-1.83"
   id="path2750" />
			<path
   class="st1"
   d="m 203.63,382.88 c 0.54,-0.68 1.28,-1.25 1.85,-1.92"
   id="path2752" />
			<path
   class="st1"
   d="m 163.57,358.98 c -0.37,0.22 -0.55,0.64 -0.91,0.79"
   id="path2754" />
			<path
   class="st1"
   d="m 135.35,332.77 c 1.48,-0.82 2.96,-1.57 4.42,-2.45"
   id="path2756" />
			<path
   class="st1"
   d="m 127.71,310.69 c -0.31,0.17 -0.63,0.34 -0.91,0.53"
   id="path2758" />
			<path
   class="st1"
   d="m 132.02,281.81 c 0.7,-0.28 1.41,-0.55 2.13,-0.79"
   id="path2760" />
			<path
   class="st1"
   d="m 157.04,253.1 c 0.64,0 1.18,-0.27 1.81,-0.29"
   id="path2762" />
			<path
   class="st1"
   d="m 187.96,233.8 c 0.45,-0.06 0.86,0 1.3,-0.02"
   id="path2764" />
			<path
   class="st1"
   d="m 248.26,224.37 c -0.12,-0.05 -0.2,-0.11 -0.28,-0.16"
   id="path2766" />
			<path
   class="st1"
   d="m 617.3,236.27 c 0.21,0.05 0.42,0.05 0.64,0.05"
   id="path2768" />
			<path
   class="st1"
   d="m 647.47,256.72 c -0.2,-0.05 -0.42,-0.05 -0.65,-0.09"
   id="path2770" />
			<path
   class="st1"
   d="m 668.57,285.91 c 0.62,0.18 1.17,0.49 1.8,0.61"
   id="path2772" />
		</g>
	</g>
	<g
   id="g2820">
		<g
   id="g2782">
			<path
   class="st2"
   d="m 454.55,185.85 c -0.02,-3.01 -1.08,-5.56 -3.16,-7.61 -2.07,-2.05 -5.04,-3.05 -8.84,-3.04 -3.69,0.04 -7.75,1 -12.09,2.85 -4.26,1.82 -8.57,4.14 -12.73,6.86 -4.16,2.72 -8.12,5.62 -11.77,8.64 -3.6,2.95 -6.65,5.6 -9.06,7.83 -8.46,8 -16.57,16.86 -24.13,26.32 -2.73,3.46 -4.27,5.21 -5.4,6.49 -1.97,2.28 -2.88,3.31 -7.2,9.82 -4.33,6.52 -4.5,6.84 -5.67,8.95 -0.63,1.16 -1.6,2.91 -3.78,6.66 -6.03,10.27 -11.77,20.55 -17.05,30.51 -1.35,2.58 -3.13,6.04 -5.28,10.31 -2.11,4.21 -4.24,8.74 -6.31,13.49 -2.07,4.71 -3.79,9.41 -5.14,13.98 -1.37,4.64 -2.05,8.62 -2.02,11.89 0.02,4.41 1.21,7.72 3.48,9.85 2.19,2.06 4.94,3.13 8.22,3.17 h 0.32 c 3.52,-0.04 7.48,-1.3 11.73,-3.79 4.22,-2.47 8.18,-5.91 11.78,-10.28 3.58,-4.34 6.63,-9.68 9.09,-15.92 2.19,-5.59 3.42,-11.78 3.61,-18.46 1.52,1.51 3.43,2.88 5.7,4.13 3.22,1.71 6.8,2.57 10.72,2.55 4.65,-0.05 9.68,-0.91 14.98,-2.55 5.27,-1.63 11.15,-4.2 17.48,-7.61 0.79,-0.34 1.29,-0.78 1.52,-1.35 0.12,-0.31 0.23,-0.85 -0.06,-1.49 -0.51,-1.18 -1.73,-1.49 -3.25,-0.55 -4.07,2.56 -8.08,4.41 -11.92,5.5 -3.86,1.1 -7.47,1.65 -10.78,1.68 -2.25,0.03 -4.73,-0.35 -7.3,-1.08 -2.58,-0.75 -5,-1.94 -7.19,-3.52 -2.17,-1.59 -4,-3.67 -5.45,-6.2 -1.41,-2.54 -2.15,-5.73 -2.18,-9.53 l -0.01,-0.2 -0.11,-0.2 c -0.2,-0.39 -0.72,-1.05 -2,-1.09 v 0 l -0.26,0.02 -0.22,0.12 c -1.04,0.64 -2.14,1.51 -3.39,2.67 -1.19,1.12 -2.2,2.09 -2.98,2.88 -1.35,1.37 -2.03,2.79 -2.02,4.24 v 0.17 l 0.08,0.17 c 0.38,0.93 0.72,2.14 1.01,3.54 0.31,1.44 0.46,3.32 0.48,5.62 0.05,7.01 -0.79,13.39 -2.48,18.92 -1.72,5.56 -3.84,10.3 -6.32,14.11 -2.49,3.78 -5.1,6.72 -7.76,8.77 -2.58,1.96 -4.9,2.97 -6.87,2.97 l -0.13,0.02 c -1.07,-0.02 -4.31,-0.05 -4.36,-7.08 -0.02,-1.7 0.45,-4.38 1.39,-7.95 0.94,-3.61 2.15,-7.61 3.61,-11.87 1.43,-4.27 3.1,-8.55 4.93,-12.78 1.84,-4.26 3.55,-8 5.08,-11.13 4.73,-9.41 10.25,-20.11 16.42,-31.8 2.77,-5.25 3.71,-7.52 4.46,-9.35 0.96,-2.31 1.65,-3.98 5.51,-10.35 1.92,-3.17 3.17,-5.29 4.09,-6.85 2.41,-4.08 2.73,-4.6 7.67,-11.55 6.78,-9.56 13.17,-16.92 19.02,-21.86 4.1,-3.56 7.84,-6.42 11.13,-8.49 3.29,-2.06 6.46,-3.72 9.46,-4.9 2.98,-1.19 5.97,-1.99 8.86,-2.4 2.93,-0.41 6.19,-0.63 9.69,-0.66 3.93,-0.04 6.7,0.54 8.23,1.67 1.65,1.25 2.98,2.37 3.94,3.31 0.4,0.4 0.8,0.58 1.21,0.59 0.46,0.02 1.22,-0.2 1.52,-1.69 0.19,-1.03 0.28,-3.04 0.25,-6.09 z"
   id="path2778" />
			<path
   class="st2"
   d="m 443.08,175.22 c 3.55,0.07 6.35,1.07 8.31,3.02 2.07,2.05 3.14,4.6 3.16,7.61 0.03,3.05 -0.06,5.06 -0.27,6.12 -0.3,1.48 -1.07,1.7 -1.52,1.69 v 0 c -0.41,-0.02 -0.81,-0.2 -1.21,-0.59 -0.97,-0.94 -2.29,-2.07 -3.94,-3.31 -1.38,-1.03 -3.75,-1.59 -7.07,-1.67 -0.38,-0.01 -0.77,0 -1.16,0 -3.5,0.03 -6.76,0.25 -9.69,0.66 -2.89,0.4 -5.88,1.21 -8.86,2.4 -3,1.18 -6.17,2.84 -9.46,4.9 -3.29,2.07 -7.03,4.93 -11.13,8.49 -5.84,4.94 -12.24,12.3 -19.02,21.86 -4.94,6.95 -5.25,7.48 -7.67,11.55 -0.92,1.56 -2.18,3.68 -4.09,6.85 -3.87,6.37 -4.56,8.04 -5.51,10.35 -0.75,1.82 -1.69,4.1 -4.46,9.35 -6.16,11.69 -11.69,22.39 -16.42,31.8 -1.52,3.13 -3.24,6.87 -5.08,11.13 -1.83,4.23 -3.49,8.51 -4.93,12.78 -1.46,4.26 -2.67,8.25 -3.61,11.87 -0.95,3.57 -1.42,6.25 -1.39,7.95 0.05,6.71 3.01,7.05 4.2,7.07 0.06,0.02 0.11,0 0.16,0.02 l 0.13,-0.02 c 1.98,0 4.29,-1 6.87,-2.97 2.65,-2.05 5.27,-5 7.76,-8.77 2.48,-3.81 4.6,-8.55 6.32,-14.11 1.69,-5.53 2.53,-11.91 2.48,-18.92 -0.02,-2.3 -0.17,-4.19 -0.48,-5.62 -0.29,-1.41 -0.63,-2.61 -1.01,-3.54 L 354.41,293 v -0.17 c 0,-1.45 0.67,-2.87 2.02,-4.24 0.79,-0.79 1.79,-1.76 2.98,-2.88 1.26,-1.16 2.36,-2.03 3.39,-2.67 l 0.22,-0.12 0.26,-0.02 c 0.01,0 0.01,0 0.01,0 1.29,0.04 1.8,0.7 1.99,1.09 l 0.11,0.2 0.01,0.2 c 0.02,3.79 0.76,6.99 2.18,9.53 1.45,2.53 3.28,4.62 5.45,6.2 2.2,1.58 4.62,2.76 7.19,3.52 2.33,0.67 4.56,1.03 6.66,1.08 0.22,0.01 0.44,0.01 0.64,0.01 3.31,-0.03 6.91,-0.58 10.78,-1.68 3.85,-1.08 7.85,-2.94 11.92,-5.5 0.63,-0.39 1.21,-0.57 1.7,-0.56 0.71,0.02 1.26,0.4 1.55,1.11 0.29,0.64 0.18,1.18 0.06,1.49 -0.24,0.57 -0.74,1.01 -1.52,1.35 -6.33,3.41 -12.21,5.99 -17.48,7.61 -5.29,1.64 -10.33,2.51 -14.98,2.55 -0.24,0 -0.46,0 -0.71,-0.02 -3.63,-0.08 -6.99,-0.92 -10.01,-2.53 -2.27,-1.25 -4.18,-2.62 -5.7,-4.13 -0.19,6.68 -1.41,12.87 -3.61,18.46 -2.46,6.24 -5.51,11.58 -9.09,15.92 -3.6,4.38 -7.56,7.82 -11.78,10.28 -4.25,2.49 -8.21,3.75 -11.73,3.79 h -0.32 c -0.04,0 -0.06,0 -0.09,-0.02 -3.22,-0.06 -5.96,-1.13 -8.12,-3.16 -2.27,-2.13 -3.46,-5.44 -3.48,-9.85 -0.03,-3.27 0.66,-7.26 2.02,-11.89 1.35,-4.57 3.07,-9.27 5.14,-13.98 2.07,-4.75 4.19,-9.28 6.31,-13.49 2.15,-4.27 3.93,-7.74 5.28,-10.31 5.29,-9.96 11.02,-20.24 17.05,-30.51 2.18,-3.75 3.15,-5.5 3.78,-6.66 1.17,-2.11 1.34,-2.43 5.67,-8.95 4.32,-6.5 5.23,-7.54 7.2,-9.82 1.12,-1.28 2.66,-3.03 5.4,-6.49 7.56,-9.47 15.67,-18.33 24.13,-26.32 2.41,-2.24 5.47,-4.88 9.06,-7.83 3.64,-3.03 7.61,-5.93 11.77,-8.64 4.16,-2.72 8.47,-5.04 12.73,-6.86 4.34,-1.85 8.4,-2.81 12.09,-2.85 0.18,-0.02 0.36,-0.02 0.54,-0.02 m 0.1,-4.51 c -0.22,0 -0.42,-0.01 -0.66,0 -4.29,0.04 -8.93,1.12 -13.83,3.21 -4.51,1.91 -9.02,4.36 -13.44,7.24 -4.25,2.78 -8.35,5.79 -12.15,8.91 -3.68,3.02 -6.79,5.73 -9.27,8.03 -8.6,8.12 -16.86,17.14 -24.57,26.81 -2.79,3.48 -4.3,5.2 -5.28,6.34 l -0.07,0.08 c -2.16,2.5 -3.23,3.77 -7.5,10.2 -4.3,6.47 -4.59,6.94 -5.86,9.3 -0.64,1.16 -1.61,2.88 -3.73,6.54 -6.07,10.34 -11.82,20.67 -17.12,30.67 -1.48,2.81 -3.32,6.39 -5.34,10.41 -2.16,4.3 -4.32,8.92 -6.41,13.71 -2.13,4.86 -3.92,9.75 -5.33,14.51 -1.51,5.09 -2.24,9.52 -2.22,13.19 0.04,5.68 1.7,10.09 4.91,13.1 3.01,2.81 6.74,4.29 11.09,4.38 h 0.12 0.08 0.09 0.31 c 4.27,-0.02 8.97,-1.49 13.93,-4.38 4.69,-2.75 9.06,-6.56 12.97,-11.33 3.88,-4.69 7.18,-10.45 9.81,-17.12 1.48,-3.75 2.55,-7.73 3.2,-11.94 3.56,1.9 7.55,2.89 11.84,2.98 0.28,0.02 0.56,0.02 0.85,0.02 5.09,-0.04 10.56,-0.96 16.27,-2.75 5.47,-1.68 11.56,-4.33 18.11,-7.86 2.23,-1.01 3.26,-2.55 3.72,-3.7 0.64,-1.62 0.6,-3.38 -0.1,-5 -1,-2.28 -3.13,-3.75 -5.57,-3.8 -1.4,-0.03 -2.8,0.38 -4.16,1.21 -3.75,2.37 -7.37,4.04 -10.79,5.01 -3.46,0.98 -6.68,1.49 -9.57,1.52 -0.19,0 -0.36,0 -0.53,0 -1.7,-0.05 -3.56,-0.37 -5.52,-0.93 -2.07,-0.6 -4.01,-1.56 -5.77,-2.82 -1.67,-1.22 -3.06,-2.82 -4.18,-4.81 -1.05,-1.83 -1.59,-4.29 -1.6,-7.3 v -0.2 l -0.02,-1.08 -0.49,-0.96 -0.11,-0.21 c -1.12,-2.14 -3.31,-3.46 -5.89,-3.51 h -0.09 l -0.11,0.01 h -0.25 l -1.22,0.01 -1.04,0.64 -0.21,0.12 c -1.32,0.81 -2.67,1.86 -4.13,3.23 -0.78,0.71 -1.53,1.44 -2.24,2.14 2.91,-5.66 6.04,-11.66 9.37,-17.95 2.92,-5.52 3.92,-7.97 4.65,-9.75 0.88,-2.14 1.51,-3.66 5.17,-9.71 1.68,-2.75 2.99,-4.95 4.15,-6.92 2.36,-4 2.62,-4.42 7.45,-11.22 6.58,-9.27 12.72,-16.36 18.27,-21.04 3.91,-3.42 7.47,-6.13 10.61,-8.11 3.07,-1.93 5.99,-3.45 8.73,-4.51 2.62,-1.06 5.25,-1.77 7.82,-2.14 2.76,-0.38 5.81,-0.6 9.1,-0.62 0.36,-0.01 0.71,-0.01 1.03,0 3.5,0.09 4.45,0.77 4.46,0.77 1.86,1.41 2.95,2.36 3.5,2.93 1.52,1.51 3.15,1.86 4.25,1.88 2.49,0.05 5.31,-1.56 6.05,-5.29 0.28,-1.48 0.38,-3.64 0.34,-7.07 -0.01,-4.16 -1.57,-7.89 -4.48,-10.77 -2.83,-2.74 -6.66,-4.18 -11.4,-4.3 z M 332.85,342.55 c -0.13,-0.42 -0.29,-1.22 -0.3,-2.56 0,-0.75 0.15,-2.61 1.25,-6.78 0.95,-3.6 2.12,-7.48 3.52,-11.55 1.38,-4.08 2.98,-8.28 4.79,-12.42 1.81,-4.19 3.49,-7.86 5.01,-10.96 0.9,-1.79 1.82,-3.64 2.79,-5.53 0,0.03 0,0.05 0,0.06 l -0.01,0.13 0.01,0.12 0.01,0.16 0.03,0.64 0.21,0.6 0.05,0.17 0.05,0.13 0.05,0.11 c 0.19,0.46 0.48,1.3 0.77,2.74 0.17,0.78 0.37,2.21 0.39,4.75 0.05,6.54 -0.73,12.46 -2.29,17.56 -1.59,5.16 -3.53,9.5 -5.79,12.97 -2.2,3.35 -4.47,5.93 -6.72,7.63 -1.99,1.55 -3.22,1.95 -3.82,2.03 z"
   id="path2780" />
		</g>
		<g
   id="g2788">
			<path
   class="st2"
   d="m 250.28,196.24 c -0.15,-1.53 -1.21,-1.67 -1.5,-1.68 -0.76,0 -1.62,0.51 -2.86,1.72 -1.61,1.58 -4.67,2.91 -9.1,3.93 -4.66,1.1 -8.25,2.4 -10.66,3.87 -9.59,6.5 -31.72,24.54 -65.76,53.58 -34.02,29.04 -79.42,69.31 -134.99,119.74 -6.1,5.65 -11.04,10.6 -14.67,14.71 -3.76,4.23 -5.86,9.1 -6.22,14.44 v 0.08 l 2.33,22.02 0.31,0.23 c 0.54,0.41 1.08,0.63 1.6,0.63 1.08,0.03 1.89,-0.75 2.43,-2.29 l 0.04,-0.2 c 0.62,-4.77 1.46,-8.67 2.49,-11.59 1.02,-2.95 2.7,-6.25 4.97,-9.83 7.53,-10.69 18.9,-24.25 33.79,-40.3 14.84,-15.97 33.4,-33.84 55.18,-53.11 4.01,0.61 9.98,1.04 17.74,1.26 7.75,0.24 16,0.42 24.52,0.55 7.89,0.1 14.81,0.34 20.59,0.72 5.64,0.35 9.47,0.82 11.43,1.4 5.5,1.46 9.74,3.83 12.57,7.01 2.8,3.15 4.19,6.22 4.16,9.11 -0.03,1.67 -0.5,5.31 -1.43,10.82 -0.94,5.54 -1.96,11.51 -3.03,17.79 -1.11,6.31 -2.1,12.23 -3.04,17.82 -0.94,5.58 -1.56,9.21 -1.87,10.93 l -0.04,0.19 0.05,0.18 c 1.45,6.21 4.61,9.37 9.35,9.43 l 0.19,-0.02 c 2.93,-0.55 6.35,-1.3 10.19,-2.23 3.88,-0.96 7.8,-1.99 11.68,-3.09 3.89,-1.1 7.34,-2.04 10.36,-2.87 2.89,-0.78 5.05,-1.33 6.24,-1.62 1.05,-0.25 4.26,-1.01 3.93,-3.15 -0.07,-0.46 -0.43,-1.53 -2.31,-1.56 -0.65,-0.02 -1.46,0.1 -2.45,0.33 -2.17,0.52 -4.34,0.99 -6.45,1.42 -1.95,0.38 -3.62,0.57 -4.98,0.54 -0.8,-0.01 -1.9,-0.16 -3.26,-0.44 -1.25,-0.26 -2.54,-1 -3.82,-2.2 -1.3,-1.19 -2.43,-3.13 -3.34,-5.71 -0.92,-2.61 -1.36,-6.35 -1.3,-11 0.32,-3.12 1.05,-8.66 2.15,-16.5 1.1,-7.81 2.58,-16.73 4.44,-26.59 l 5.8,-30.9 c 1.94,-10.34 3.88,-20.44 5.78,-30 1.83,-9.32 3.48,-17.26 4.83,-23.58 1.39,-6.51 2.2,-10.22 2.52,-11.41 0.61,-3.65 1.82,-8.29 3.6,-13.8 1.75,-5.47 4.12,-10.34 6.97,-14.51 l 0.05,-0.1 c 0.68,-1.29 0.94,-2.69 0.8,-4.17 z m -28.99,20.07 c 0,0.36 -0.08,1.09 -0.42,2.43 -0.3,1.16 -1.12,5.18 -2.56,12.71 l -10.43,54.71 c -1.8,9.5 -3.35,17.3 -4.59,23.08 -0.52,1.75 -0.87,2.37 -1.02,2.56 -0.4,-0.02 -1.47,-0.21 -4.34,-1.11 -2.37,-0.64 -6.37,-1.04 -12.24,-1.27 -5.78,-0.22 -13.31,-0.39 -22.38,-0.52 l -12.9,-0.18 c -5.14,-0.06 -10.12,-0.28 -14.77,-0.64 -4.63,-0.33 -8.68,-0.95 -12.07,-1.85 -1.92,-0.5 -4.21,-1.38 -4.76,-2.81 3.66,-4.07 8.51,-8.93 14.44,-14.42 6.07,-5.66 12.74,-11.55 19.77,-17.55 6.99,-5.98 14.31,-12.1 21.74,-18.21 7.4,-6.05 14.2,-11.62 20.43,-16.71 6.17,-5.02 11.36,-9.21 15.43,-12.48 4.98,-3.97 6.72,-5.26 7.36,-5.67 1.92,-1.39 2.86,-1.88 3.31,-2.07 z"
   id="path2784" />
			<path
   class="st2"
   d="m 248.78,194.56 c 0.3,0.01 1.35,0.15 1.5,1.68 0.14,1.48 -0.13,2.88 -0.8,4.15 l -0.05,0.1 c -2.86,4.17 -5.22,9.04 -6.97,14.51 -1.78,5.52 -2.99,10.16 -3.6,13.8 -0.32,1.19 -1.13,4.9 -2.52,11.41 -1.36,6.32 -3,14.26 -4.83,23.58 -1.9,9.56 -3.84,19.66 -5.78,30 l -5.8,30.9 c -1.85,9.87 -3.34,18.79 -4.44,26.59 -1.1,7.83 -1.83,13.38 -2.15,16.5 -0.06,4.65 0.38,8.4 1.3,11 0.91,2.58 2.04,4.52 3.34,5.71 1.28,1.19 2.57,1.94 3.82,2.2 1.3,0.28 2.37,0.43 3.16,0.45 0.04,-0.01 0.08,-0.01 0.1,-0.01 1.36,0.03 3.03,-0.16 4.98,-0.54 2.11,-0.43 4.28,-0.9 6.45,-1.42 0.98,-0.23 1.8,-0.34 2.45,-0.33 0.02,0 0.03,0 0.04,0 1.83,0.03 2.2,1.11 2.27,1.56 0.32,2.14 -2.89,2.9 -3.93,3.15 -1.19,0.28 -3.35,0.84 -6.24,1.62 -3.02,0.83 -6.47,1.78 -10.36,2.87 -3.88,1.1 -7.8,2.13 -11.68,3.09 -3.85,0.93 -7.27,1.68 -10.19,2.23 l -0.19,0.02 c -0.03,0 -0.06,0 -0.1,0 -4.69,-0.1 -7.82,-3.27 -9.25,-9.43 l -0.05,-0.18 0.04,-0.19 c 0.31,-1.72 0.93,-5.36 1.87,-10.93 0.94,-5.59 1.93,-11.51 3.04,-17.82 1.07,-6.28 2.09,-12.25 3.03,-17.79 0.92,-5.51 1.39,-9.16 1.43,-10.82 0.04,-2.89 -1.36,-5.96 -4.16,-9.11 -2.82,-3.18 -7.06,-5.54 -12.57,-7.01 -1.96,-0.57 -5.79,-1.05 -11.43,-1.4 -4.41,-0.29 -9.49,-0.49 -15.15,-0.62 -1.75,-0.04 -3.57,-0.07 -5.44,-0.1 -4.26,-0.06 -8.45,-0.13 -12.55,-0.24 -4.1,-0.07 -8.08,-0.19 -11.97,-0.31 -7.76,-0.23 -13.73,-0.66 -17.74,-1.26 -21.78,19.27 -40.34,37.14 -55.18,53.11 -14.89,16.05 -26.26,29.61 -33.79,40.3 -2.27,3.58 -3.95,6.88 -4.97,9.83 -1.03,2.92 -1.87,6.82 -2.49,11.59 l -0.04,0.2 c -0.55,1.54 -1.36,2.33 -2.43,2.29 -0.02,0 -0.03,0 -0.04,0 -0.51,-0.02 -1.03,-0.22 -1.56,-0.63 L 6.85,428.63 4.52,406.61 v -0.08 c 0.37,-5.34 2.46,-10.21 6.22,-14.44 3.63,-4.11 8.57,-9.06 14.67,-14.71 55.57,-50.43 100.97,-90.7 134.99,-119.74 34.04,-29.05 56.17,-47.08 65.76,-53.58 2.41,-1.47 6,-2.77 10.66,-3.87 4.43,-1.02 7.49,-2.36 9.1,-3.93 1.24,-1.18 2.1,-1.7 2.86,-1.7 M 147.86,308.67 c 0.85,0.02 1.7,0.04 2.56,0.04 l 12.9,0.18 c 4.31,0.06 8.24,0.13 11.83,0.21 3.98,0.09 7.5,0.2 10.55,0.31 5.87,0.23 9.87,0.63 12.24,1.27 2.88,0.9 3.95,1.1 4.34,1.11 0.15,-0.19 0.49,-0.81 1.02,-2.56 1.24,-5.77 2.79,-13.57 4.59,-23.08 l 10.43,-54.71 c 1.44,-7.53 2.26,-11.55 2.56,-12.71 0.35,-1.34 0.42,-2.07 0.42,-2.43 -0.45,0.19 -1.39,0.68 -3.29,2.06 -0.64,0.42 -2.38,1.71 -7.36,5.67 -4.07,3.27 -9.27,7.46 -15.43,12.48 -6.23,5.09 -13.04,10.67 -20.43,16.71 -7.43,6.11 -14.75,12.22 -21.74,18.21 -7.03,6 -13.69,11.89 -19.77,17.55 -5.94,5.49 -10.78,10.35 -14.44,14.42 0.55,1.43 2.84,2.31 4.76,2.81 3.39,0.9 7.44,1.52 12.07,1.85 3.85,0.33 7.95,0.52 12.19,0.61 m 101.01,-118.6 h -0.04 -0.03 c -2.61,0 -4.59,1.58 -6.02,3 -0.35,0.34 -1.94,1.59 -6.98,2.76 -5.22,1.24 -9.13,2.68 -11.99,4.41 l -0.09,0.05 -0.08,0.07 c -9.71,6.56 -31.96,24.7 -66.16,53.89 -33.99,29.01 -79.45,69.32 -135.1,119.81 -6.22,5.77 -11.25,10.82 -15.01,15.06 -4.42,5 -6.9,10.75 -7.34,17.1 l -0.01,0.12 v 0.11 0.09 l -0.02,0.28 0.04,0.29 2.34,22.02 0.19,1.92 1.56,1.18 0.3,0.24 c 1.27,0.99 2.72,1.51 4.17,1.55 h 0.06 0.09 c 1.39,0.02 4.95,-0.45 6.68,-5.31 l 0.09,-0.28 0.06,-0.31 0.04,-0.18 0.04,-0.16 0.02,-0.17 c 0.58,-4.46 1.33,-8.07 2.26,-10.71 0.9,-2.59 2.4,-5.55 4.46,-8.8 7.42,-10.53 18.65,-23.9 33.35,-39.75 14.44,-15.52 32.38,-32.84 53.33,-51.43 4.07,0.48 9.5,0.83 16.16,1.03 3.87,0.13 7.9,0.23 12,0.32 4.1,0.09 8.33,0.17 12.6,0.23 1.85,0.04 3.66,0.05 5.39,0.1 5.62,0.12 10.65,0.34 14.97,0.6 6.93,0.45 9.5,0.97 10.41,1.24 l 0.08,0.03 0.07,0.02 c 4.64,1.23 8.13,3.12 10.36,5.62 1.99,2.25 3.03,4.36 3,6.06 -0.02,0.8 -0.21,3.23 -1.36,10.15 -0.82,4.86 -1.7,10.02 -2.63,15.44 l -0.39,2.33 c -1.2,6.82 -2.25,13.11 -3.06,17.83 -0.91,5.44 -1.53,9.04 -1.85,10.8 l -0.01,0.09 -0.23,1.07 0.28,1.05 0.03,0.14 c 2.6,10.95 9.59,12.74 13.52,12.83 h 0.15 0.25 l 0.25,-0.02 0.17,-0.03 h 0.22 l 0.2,-0.05 c 3.02,-0.57 6.5,-1.33 10.41,-2.29 4.04,-1 8.01,-2.04 11.83,-3.13 3.88,-1.08 7.33,-2.05 10.33,-2.86 2.76,-0.75 4.92,-1.29 6.08,-1.59 7.48,-1.76 7.64,-6.32 7.36,-8.19 -0.42,-2.64 -2.63,-5.32 -6.62,-5.4 -1.06,-0.02 -2.18,0.13 -3.59,0.45 -2.1,0.51 -4.21,0.97 -6.33,1.39 -2.03,0.4 -3.31,0.49 -4.02,0.47 h -0.01 c -0.34,0 -1.01,-0.07 -2.39,-0.35 -0.15,-0.03 -0.75,-0.21 -1.69,-1.11 -0.44,-0.39 -1.28,-1.41 -2.15,-3.9 -0.51,-1.42 -1.1,-4.18 -1.04,-9.25 0.32,-3.14 1.05,-8.7 2.1,-16.12 1.11,-7.86 2.59,-16.72 4.4,-26.37 l 5.8,-30.91 c 1.98,-10.58 3.92,-20.67 5.77,-29.96 1.81,-9.12 3.42,-17.03 4.82,-23.52 1.67,-7.84 2.27,-10.43 2.48,-11.21 l 0.06,-0.21 0.03,-0.2 c 0.57,-3.43 1.72,-7.85 3.44,-13.16 1.61,-5.03 3.76,-9.52 6.39,-13.34 l 0.1,-0.15 0.09,-0.15 0.04,-0.09 0.06,-0.08 0.05,-0.09 c 1.06,-2.04 1.5,-4.35 1.27,-6.68 -0.34,-3.86 -3.29,-5.67 -5.86,-5.73 z M 126.1,302.21 c 2.9,-2.99 6.32,-6.32 10.21,-9.92 6.01,-5.58 12.62,-11.44 19.65,-17.44 6.52,-5.58 13.6,-11.5 21.65,-18.14 l 4.59,-3.77 c 5.65,-4.61 10.92,-8.92 15.84,-12.93 6.7,-5.47 11.59,-9.43 15.39,-12.44 0.43,-0.35 0.83,-0.67 1.21,-0.97 -0.23,1.18 -0.49,2.52 -0.77,4.01 l -10.41,54.7 c -1.63,8.54 -3.02,15.62 -4.17,21.07 -0.01,0 -0.02,-0.01 -0.03,-0.01 l -0.09,-0.02 -0.11,-0.03 c -2.72,-0.72 -6.92,-1.18 -13.2,-1.41 -3,-0.12 -6.57,-0.22 -10.63,-0.32 -3.59,-0.09 -7.55,-0.15 -11.86,-0.21 l -12.9,-0.17 c -0.85,0 -1.69,-0.02 -2.53,-0.04 -4.16,-0.1 -8.19,-0.29 -11.96,-0.57 -3.75,-0.28 -7.07,-0.74 -9.88,-1.39 z"
   id="path2786" />
		</g>
		<g
   id="g2794">
			<path
   class="st2"
   d="m 328.11,314.62 c 0,-2.32 -1.5,-2.53 -1.96,-2.53 -0.33,0 -0.68,0.07 -1.04,0.19 l -0.29,0.11 -0.18,0.24 c -4.26,6.31 -8.84,12.22 -13.61,17.58 -4.78,5.36 -9.46,9.98 -13.93,13.7 -4.47,3.75 -8.66,6.73 -12.43,8.78 -3.69,2.03 -6.9,3.06 -9.51,3.09 l -0.23,0.01 c -3.48,-0.06 -5.12,-1.84 -5.14,-5.61 -0.05,-4.81 0.71,-9.32 2.21,-13.35 1.52,-4.12 3.42,-8.07 5.63,-11.79 2.22,-3.75 4.68,-7.4 7.3,-10.85 2.62,-3.47 5.16,-7.06 7.56,-10.72 0.86,-1.55 1.29,-3.2 1.28,-4.92 -0.02,-2.54 -0.58,-4.74 -1.66,-6.56 -1.21,-2 -2.31,-2.96 -3.51,-2.96 v 0 c -0.93,0 -1.91,0.78 -3.1,2.5 l -0.05,0.08 c -0.79,1.38 -1.95,3.44 -3.52,6.11 -1.5,2.59 -3.14,5.47 -5,8.84 -1.77,3.19 -3.59,6.57 -5.43,10.01 -1.98,3.72 -3.74,6.97 -5.39,9.96 -4.62,7.26 -8.69,12.5 -12.06,15.52 -4.06,3.64 -6.35,4.43 -7.62,4.45 -0.68,-0.02 -2.27,-0.03 -2.29,-3.53 -0.02,-1.65 0.59,-4.1 1.8,-7.27 1.24,-3.23 2.9,-6.97 4.94,-11.11 2.03,-4.18 4.45,-8.69 7.15,-13.4 2.72,-4.74 5.67,-9.54 8.78,-14.29 1.7,-2.58 1.92,-3.53 1.91,-4.09 0,-0.61 -0.29,-1.58 -2.49,-4.01 -1.65,-1.84 -3.31,-2.78 -5.02,-2.8 v 0 c -1.21,0.02 -2.31,1.13 -3.45,3.46 -5.01,8.81 -9.21,16.42 -12.48,22.59 -3.24,6.08 -5.79,11.23 -7.64,15.28 -1.86,4.08 -3.16,7.41 -3.83,9.83 -0.69,2.43 -1.05,4.53 -1.04,6.21 0.01,3.02 0.84,5.29 2.42,6.75 1.52,1.4 3.44,2.1 5.75,2.12 l 0.25,0.02 c 2.91,-0.02 5.58,-0.63 7.98,-1.81 2.32,-1.12 4.5,-2.59 6.41,-4.34 1.91,-1.74 3.64,-3.59 5.13,-5.52 0.18,-0.24 0.36,-0.47 0.55,-0.7 -0.26,0.92 -0.5,1.78 -0.66,2.62 -0.49,2.34 -0.72,4.45 -0.71,6.31 0.02,4.03 1.11,7.03 3.18,8.96 1.99,1.87 4.72,2.82 8.12,2.88 h 0.42 c 4.69,-0.04 9.73,-1.59 14.99,-4.56 5.16,-2.92 10.3,-6.66 15.24,-11.08 4.92,-4.41 9.72,-9.35 14.26,-14.66 4.5,-5.26 8.48,-10.37 11.84,-15.17 l 0.16,-0.24 z"
   id="path2790" />
			<path
   class="st2"
   d="m 261.27,285.98 c 1.69,0.03 3.34,0.96 4.98,2.79 2.2,2.43 2.49,3.41 2.49,4.01 0.01,0.56 -0.21,1.52 -1.91,4.09 -3.11,4.75 -6.06,9.56 -8.78,14.29 -2.7,4.71 -5.12,9.22 -7.15,13.4 -2.05,4.15 -3.7,7.89 -4.94,11.11 -1.21,3.17 -1.82,5.62 -1.8,7.27 0.02,3.47 1.58,3.52 2.27,3.53 0.01,0 0.01,0 0.02,0 1.28,-0.02 3.57,-0.8 7.62,-4.45 3.37,-3.02 7.43,-8.26 12.06,-15.52 1.65,-2.99 3.41,-6.24 5.39,-9.96 1.85,-3.44 3.66,-6.83 5.43,-10.01 1.86,-3.37 3.5,-6.24 5,-8.84 1.57,-2.67 2.73,-4.73 3.52,-6.11 l 0.05,-0.08 c 1.19,-1.72 2.17,-2.5 3.1,-2.5 h 0.02 c 1.19,0.02 2.29,0.97 3.49,2.96 1.08,1.81 1.64,4.01 1.66,6.56 0.02,1.73 -0.41,3.38 -1.28,4.92 -2.4,3.66 -4.94,7.25 -7.56,10.72 -2.62,3.45 -5.09,7.1 -7.3,10.85 -2.21,3.71 -4.11,7.67 -5.63,11.79 -1.5,4.03 -2.26,8.55 -2.21,13.35 0.02,3.74 1.64,5.52 5.05,5.6 0.03,0.01 0.07,0.01 0.09,0.01 l 0.23,-0.01 c 2.61,-0.02 5.82,-1.06 9.51,-3.09 3.76,-2.05 7.96,-5.03 12.43,-8.78 4.46,-3.72 9.15,-8.34 13.93,-13.7 4.77,-5.36 9.35,-11.26 13.61,-17.58 l 0.18,-0.24 0.29,-0.11 c 0.37,-0.12 0.71,-0.19 1.04,-0.19 0,0 0.01,0 0.03,0 0.48,0.02 1.93,0.26 1.93,2.53 l 0.01,0.29 -0.16,0.24 c -3.36,4.81 -7.34,9.91 -11.84,15.17 -4.54,5.31 -9.33,10.24 -14.26,14.66 -4.94,4.41 -10.08,8.15 -15.24,11.08 -5.25,2.97 -10.3,4.52 -14.99,4.56 h -0.42 c -0.05,0 -0.1,-0.02 -0.16,-0.02 -3.33,-0.07 -6.01,-1.02 -7.97,-2.86 -2.07,-1.93 -3.15,-4.93 -3.18,-8.96 -0.01,-1.86 0.22,-3.97 0.71,-6.31 0.16,-0.83 0.4,-1.7 0.66,-2.62 -0.18,0.23 -0.36,0.46 -0.55,0.7 -1.5,1.93 -3.22,3.79 -5.13,5.52 -1.92,1.75 -4.09,3.23 -6.41,4.34 -2.4,1.18 -5.07,1.79 -7.98,1.81 l -0.25,-0.02 c -0.04,0 -0.06,0 -0.1,0 -2.26,-0.05 -4.15,-0.75 -5.65,-2.12 -1.59,-1.45 -2.41,-3.72 -2.42,-6.75 -0.02,-1.68 0.34,-3.78 1.04,-6.21 0.67,-2.43 1.97,-5.75 3.83,-9.83 1.85,-4.05 4.4,-9.21 7.64,-15.28 3.28,-6.17 7.47,-13.78 12.48,-22.59 1.14,-2.33 2.24,-3.44 3.45,-3.46 0,0.03 0.01,0.05 0.03,0.05 m 0.1,-4.5 v 0 h -0.02 l -0.05,-0.02 h -0.07 -0.06 c -4.42,0.05 -6.61,4.28 -7.38,5.87 -4.82,8.44 -9.01,16.04 -12.47,22.57 -3.24,6.1 -5.86,11.34 -7.76,15.54 -1.95,4.3 -3.34,7.82 -4.08,10.46 -0.82,2.94 -1.21,5.39 -1.18,7.49 0.02,4.33 1.33,7.71 3.88,10.04 2.27,2.08 5.24,3.24 8.58,3.31 h 0.12 0.06 l 0.05,0.01 0.26,-0.01 c 3.57,-0.02 6.91,-0.79 9.92,-2.26 1.54,-0.74 3.03,-1.62 4.44,-2.62 0.51,3.86 2,6.96 4.42,9.21 2.78,2.59 6.46,3.97 10.93,4.07 l 0.21,0.01 h 0.46 c 5.5,-0.05 11.27,-1.77 17.22,-5.13 5.45,-3.11 10.84,-7.02 16.02,-11.66 5.11,-4.59 10.05,-9.64 14.68,-15.06 4.61,-5.41 8.68,-10.64 12.1,-15.54 l 0.17,-0.27 0.83,-1.19 -0.03,-1.45 -0.01,-0.3 c -0.02,-4.43 -3.19,-6.85 -6.33,-6.92 h -0.03 l -0.07,-0.01 c -0.83,-0.02 -1.68,0.13 -2.53,0.42 l -0.25,0.09 -1.39,0.46 -0.86,1.23 -0.17,0.25 -0.03,0.03 -0.03,0.05 c -4.15,6.14 -8.6,11.89 -13.25,17.09 -4.63,5.18 -9.15,9.64 -13.46,13.24 -4.25,3.58 -8.18,6.37 -11.7,8.29 -3.79,2.07 -6.1,2.52 -7.36,2.53 h -0.06 l -0.07,-0.01 -0.11,0.01 c -0.24,-0.01 -0.41,-0.02 -0.53,-0.05 -0.06,-0.19 -0.11,-0.53 -0.1,-1.08 -0.04,-4.28 0.61,-8.23 1.92,-11.77 1.42,-3.85 3.2,-7.56 5.28,-11.07 2.14,-3.57 4.48,-7.09 7.01,-10.42 2.75,-3.63 5.36,-7.33 7.74,-10.99 l 0.1,-0.12 0.07,-0.12 c 1.23,-2.22 1.86,-4.63 1.85,-7.17 -0.02,-3.34 -0.8,-6.31 -2.3,-8.81 -0.77,-1.27 -3.06,-5.07 -7.26,-5.16 l -0.07,-0.01 h -0.09 c -3.68,0.05 -5.9,3.23 -6.73,4.43 l -0.04,0.05 -0.05,0.05 -0.05,0.09 -0.07,0.11 -0.08,0.14 c -0.83,1.46 -1.96,3.47 -3.47,6.05 -1.52,2.6 -3.16,5.51 -5.05,8.92 -1.85,3.36 -3.69,6.75 -5.47,10.09 -1.88,3.54 -3.62,6.73 -5.29,9.76 -5.43,8.52 -9.09,12.57 -11.2,14.49 -0.73,0.65 -1.37,1.19 -1.92,1.6 0.23,-0.79 0.56,-1.77 1.02,-3.01 1.22,-3.14 2.84,-6.76 4.79,-10.75 1.97,-4.03 4.33,-8.43 7.01,-13.13 2.74,-4.79 5.66,-9.52 8.65,-14.07 1.94,-2.99 2.66,-4.76 2.64,-6.6 0,-2.41 -1.38,-4.48 -3.64,-6.97 -2.49,-2.81 -5.25,-4.24 -8.21,-4.3 z"
   id="path2792" />
		</g>
		<g
   id="g2800">
			<path
   class="st2"
   d="m 488.58,297.21 c -0.06,-0.4 -0.35,-0.97 -1.23,-1.34 -0.36,-0.17 -0.72,-0.24 -1.04,-0.25 -0.54,0 -1.49,0.2 -2.07,1.55 -2.67,3.88 -6.07,7.51 -10.09,10.82 -3.95,3.25 -8.46,4.92 -13.36,4.95 -4.84,0.06 -8.17,-1.54 -10.12,-4.82 -2.01,-3.38 -3.06,-7.82 -3.09,-13.2 -0.03,-3.9 0.28,-7.55 0.93,-10.83 0.64,-3.25 1.62,-5.95 2.94,-8.06 l 0.05,-0.08 c 0.72,-1.49 0.1,-2.45 -0.72,-2.84 -0.88,-0.44 -1.81,-0.36 -2.67,0.17 -0.69,0.36 -1.49,0.64 -2.38,0.82 l -0.46,0.09 c -0.84,0.17 -1.67,0.35 -2.51,0.53 -2.3,0.48 -3.93,1.92 -4.79,4.34 -0.69,1.84 -1.24,3.5 -1.63,4.98 -6.02,0.72 -11.71,2.69 -16.95,5.84 -5.38,3.25 -10.23,7.24 -14.38,11.85 -2,2.03 -4.15,4.69 -6.42,7.9 -2.28,3.23 -4.42,6.68 -6.36,10.27 -1.98,3.61 -3.62,7.37 -4.89,11.2 -1.3,3.85 -1.92,7.66 -1.89,11.31 0.05,6.68 3.92,10.24 11.2,10.35 0.16,-0.02 0.33,-0.02 0.5,0 2.5,-0.03 5.62,-0.87 9.34,-2.57 4.2,-2.24 8.19,-5.11 11.88,-8.54 3.68,-3.43 7.02,-7.27 10,-11.37 2.93,-4.09 5.54,-8.25 7.7,-12.37 1.81,-3.42 3.35,-6.58 4.62,-9.42 1.95,2.8 4.43,4.95 7.37,6.43 3.38,1.73 6.89,2.55 10.4,2.54 6.32,-0.05 12.06,-2.01 17.01,-5.83 4.87,-3.72 9.05,-7.95 12.39,-12.58 0.59,-0.61 0.84,-1.23 0.72,-1.84 z m -52.96,-10.81 -0.01,0.91 c 0.1,0 0.15,0.03 0.15,0.03 0.02,0.02 0.1,0.17 0.1,0.55 0.01,2.21 0.15,4.54 0.35,6.9 0.21,2.34 0.52,4.43 0.93,6.22 -0.4,2.67 -1.78,6.53 -4.12,11.5 -2.42,5.1 -5.4,10.24 -8.88,15.25 -3.49,5.03 -7.23,9.46 -11.09,13.2 -3.76,3.61 -7.23,5.46 -10.34,5.48 l -0.14,0.02 c -1.74,-0.04 -2.23,-0.71 -2.43,-1.23 -0.46,-1.07 -0.69,-2.23 -0.72,-3.53 -0.21,-4.41 0.68,-9.13 2.68,-14.08 2,-5 4.29,-9.72 6.8,-14.06 1.92,-3.32 4.08,-6.61 6.42,-9.79 2.33,-3.14 4.68,-5.99 7.02,-8.46 2.28,-2.43 4.6,-4.41 6.9,-5.85 2.21,-1.41 4.34,-2.13 6.35,-2.15 z"
   id="path2796" />
			<path
   class="st2"
   d="m 449.67,272.83 c 0.36,0.01 0.74,0.09 1.1,0.29 0.82,0.39 1.45,1.35 0.72,2.84 l -0.05,0.08 c -1.31,2.1 -2.29,4.81 -2.94,8.06 -0.64,3.28 -0.96,6.93 -0.93,10.83 0.04,5.37 1.08,9.81 3.09,13.2 1.85,3.12 4.95,4.71 9.41,4.82 0.23,0 0.46,0 0.71,0 4.9,-0.02 9.41,-1.7 13.36,-4.95 4.02,-3.31 7.42,-6.94 10.09,-10.82 0.58,-1.36 1.54,-1.55 2.07,-1.55 0.31,0.02 0.67,0.09 1.04,0.25 0.88,0.38 1.16,0.94 1.23,1.34 0.12,0.6 -0.13,1.23 -0.74,1.86 -3.35,4.63 -7.53,8.87 -12.39,12.58 -4.95,3.82 -10.69,5.78 -17.01,5.83 -0.19,0 -0.38,0 -0.56,0 -3.32,-0.09 -6.64,-0.91 -9.84,-2.54 -2.94,-1.48 -5.42,-3.63 -7.37,-6.43 -1.27,2.83 -2.82,5.99 -4.62,9.42 -2.16,4.12 -4.77,8.28 -7.7,12.37 -2.98,4.11 -6.32,7.94 -10,11.37 -3.69,3.43 -7.68,6.31 -11.88,8.54 -3.72,1.7 -6.84,2.54 -9.34,2.57 -0.17,-0.02 -0.35,-0.02 -0.5,0 -0.07,0 -0.13,-0.02 -0.19,-0.02 -7.15,-0.14 -10.96,-3.71 -11.01,-10.34 -0.03,-3.65 0.6,-7.46 1.89,-11.31 1.27,-3.83 2.91,-7.59 4.89,-11.2 1.94,-3.58 4.08,-7.04 6.36,-10.27 2.28,-3.21 4.43,-5.87 6.42,-7.9 4.15,-4.61 9,-8.6 14.38,-11.85 5.24,-3.16 10.93,-5.12 16.95,-5.84 0.39,-1.48 0.93,-3.14 1.63,-4.98 0.86,-2.42 2.49,-3.87 4.79,-4.34 0.84,-0.17 1.67,-0.35 2.51,-0.53 l 0.46,-0.09 c 0.89,-0.18 1.69,-0.46 2.38,-0.82 0.52,-0.32 1.05,-0.48 1.59,-0.47 m -47.12,73.62 c 0.01,0 0.02,0 0.03,0 l 0.14,-0.02 c 3.11,-0.02 6.58,-1.87 10.34,-5.48 3.86,-3.73 7.6,-8.17 11.09,-13.2 3.48,-5.01 6.46,-10.15 8.88,-15.25 2.33,-4.97 3.71,-8.83 4.12,-11.5 -0.41,-1.79 -0.72,-3.88 -0.93,-6.22 -0.2,-2.36 -0.34,-4.68 -0.35,-6.9 0,-0.38 -0.09,-0.53 -0.1,-0.55 0,0 -0.05,-0.03 -0.15,-0.03 l 0.01,-0.91 -0.03,0.91 c -2,0.02 -4.13,0.74 -6.35,2.15 -2.29,1.45 -4.62,3.42 -6.9,5.85 -2.34,2.47 -4.7,5.32 -7.02,8.46 -2.34,3.17 -4.5,6.46 -6.42,9.79 -2.51,4.33 -4.8,9.06 -6.8,14.06 -2,4.94 -2.89,9.67 -2.68,14.08 0.03,1.3 0.27,2.47 0.72,3.53 0.21,0.52 0.68,1.18 2.4,1.23 m 47.21,-78.12 v 0 c -1.33,-0.03 -2.64,0.33 -3.83,1.04 -0.32,0.14 -0.71,0.26 -1.14,0.35 l -0.41,0.07 c -0.61,0.13 -1.21,0.25 -1.79,0.38 l -0.79,0.17 c -3.82,0.79 -6.68,3.35 -8.11,7.18 -0.31,0.9 -0.63,1.74 -0.88,2.54 -5.56,1.03 -10.87,3.04 -15.77,6 -5.73,3.44 -10.89,7.7 -15.34,12.63 -2.16,2.21 -4.46,5.03 -6.83,8.39 -2.36,3.33 -4.6,6.94 -6.64,10.71 -2.1,3.82 -3.85,7.82 -5.22,11.91 -1.44,4.32 -2.15,8.63 -2.12,12.78 0.09,9.07 5.84,14.59 15.42,14.82 h 0.21 0.13 l 0.12,-0.01 c 0.03,0 0.08,0 0.12,0 0.04,0 0.07,0.01 0.12,0.01 h 0.08 0.06 c 3.19,-0.03 6.82,-1.01 11.14,-2.98 l 0.13,-0.05 0.13,-0.06 c 4.56,-2.43 8.88,-5.54 12.85,-9.24 3.82,-3.57 7.37,-7.62 10.56,-12.02 3.1,-4.32 5.8,-8.66 8.04,-12.93 0.66,-1.23 1.3,-2.47 1.89,-3.67 1.27,1 2.64,1.86 4.1,2.62 3.79,1.9 7.74,2.92 11.77,3.02 0.22,0.02 0.45,0.02 0.68,0 7.33,-0.04 13.97,-2.32 19.74,-6.74 5.15,-3.96 9.55,-8.42 13.14,-13.31 1.92,-2.17 1.9,-4.36 1.69,-5.51 v -0.03 l -0.02,-0.05 c -0.39,-2.03 -1.79,-3.69 -3.83,-4.59 -0.95,-0.42 -1.86,-0.61 -2.76,-0.64 -2.6,-0.02 -4.86,1.41 -6.09,3.79 -2.39,3.42 -5.45,6.66 -9.05,9.63 -3.13,2.58 -6.66,3.9 -10.52,3.93 -0.22,0 -0.39,0 -0.58,-0.02 -3.67,-0.08 -4.92,-1.43 -5.62,-2.59 -1.61,-2.7 -2.44,-6.39 -2.48,-10.95 -0.02,-3.6 0.25,-6.93 0.85,-9.92 0.53,-2.71 1.32,-4.89 2.33,-6.54 l 0.05,-0.06 0.05,-0.09 0.05,-0.08 0.08,-0.13 0.06,-0.13 c 1.69,-3.46 0.5,-7.28 -2.79,-8.88 -0.95,-0.47 -1.96,-0.73 -2.98,-0.75 z m -45.81,73.41 c -0.02,-0.04 -0.02,-0.08 -0.02,-0.12 v -0.09 l -0.02,-0.08 c -0.18,-3.75 0.61,-7.83 2.34,-12.15 1.95,-4.83 4.15,-9.36 6.53,-13.49 1.85,-3.19 3.91,-6.35 6.15,-9.38 2.23,-3 4.47,-5.73 6.66,-8.02 2,-2.12 4.01,-3.84 5.98,-5.11 0.05,0.63 0.09,1.26 0.17,1.9 0.19,2.15 0.46,4.12 0.81,5.88 -0.36,1.68 -1.3,4.61 -3.61,9.5 -2.31,4.91 -5.18,9.82 -8.5,14.62 -3.32,4.75 -6.83,8.96 -10.51,12.53 -2.21,2.12 -4.28,3.52 -5.98,4.01 z"
   id="path2798" />
		</g>
		<g
   id="g2806">
			<path
   class="st2"
   d="m 557.95,308.14 c -0.08,-0.31 -0.33,-0.82 -1.08,-1.1 -1.19,-0.45 -2.24,-0.13 -2.89,0.82 -2.69,4.32 -6.21,8.92 -10.49,13.65 -4.27,4.74 -8.86,9.08 -13.63,12.95 -4.78,3.87 -9.48,7.13 -13.93,9.72 -4.39,2.5 -8.23,3.8 -11.43,3.83 h -0.31 c -1.78,-0.04 -3.08,-0.4 -3.85,-1.09 -0.78,-0.69 -1.19,-2.1 -1.2,-4.19 -0.03,-2.65 0.92,-6.34 2.82,-10.98 1.91,-4.71 4.3,-9.76 7.12,-15 2.79,-5.21 5.8,-10.37 8.92,-15.34 3.11,-4.96 5.78,-9.07 7.94,-12.26 1.1,-1.79 1.59,-3.08 1.58,-4.07 0,-0.99 -0.43,-2.03 -1.24,-3.09 -0.88,-1.08 -1.85,-1.63 -2.98,-1.66 v 0 c -0.88,0.02 -2.56,0.36 -6.88,3.33 -3.05,2.1 -6.63,4.78 -10.7,8.01 -3.97,3.17 -8.26,6.7 -12.74,10.53 -3.17,2.73 -6.2,5.36 -8.99,7.87 2.13,-4.48 4.28,-8.58 6.46,-12.17 3.86,-6.36 4.39,-7.93 4.38,-8.69 -0.01,-1.43 -0.61,-2.76 -1.78,-3.91 -1.16,-1.13 -2.44,-1.71 -3.83,-1.73 l -0.1,0.02 c -1.53,0 -2.71,0.68 -3.46,1.95 l -0.06,0.1 c -2.32,5.52 -5.16,11.9 -8.46,18.93 -3.3,7.02 -6.52,13.77 -9.61,20.06 -2.81,3.64 -5.51,7.08 -8.03,10.27 -2.62,3.28 -3.88,5.87 -3.86,7.88 0,0.46 0.12,1.42 1.12,4.44 0.31,0.96 1.25,3.86 3.43,3.89 v 0 c 0.77,-0.01 1.5,-0.65 2.53,-2.22 3.33,-5.17 6.15,-9.92 8.4,-14.12 2.2,-4.11 4.9,-8.71 8.01,-13.64 1.74,-2.14 4.04,-4.63 6.84,-7.4 2.85,-2.78 5.8,-5.54 8.82,-8.2 3,-2.65 6.03,-5.23 8.98,-7.63 2.92,-2.37 5.49,-4.27 7.6,-5.64 0.32,-0.2 0.52,-0.28 0.61,-0.28 0.2,0.47 0.16,1.08 -0.13,1.79 -1.73,4.13 -4.04,8.73 -6.83,13.65 -2.82,4.96 -5.59,9.9 -8.22,14.65 -2.66,4.83 -4.99,9.42 -6.94,13.66 -1.97,4.39 -2.98,8.08 -2.97,10.98 0.03,3.99 1.99,5.47 3.64,6.05 1.93,0.64 4.06,1.01 6.33,1.02 0.19,0.02 0.34,0.02 0.53,0 5.25,-0.03 10.73,-1.4 16.27,-4.07 5.47,-2.62 10.89,-6.01 16.15,-10.04 5.24,-4.01 10.24,-8.65 14.89,-13.77 4.64,-5.11 8.77,-10.23 12.26,-15.14 0.55,-0.69 1.24,-1.68 0.99,-2.62 z"
   id="path2802" />
			<path
   class="st2"
   d="m 523.32,280.32 c 1.12,0.02 2.1,0.59 2.96,1.66 0.81,1.07 1.24,2.11 1.24,3.09 0.02,0.99 -0.48,2.28 -1.58,4.07 -2.16,3.19 -4.83,7.3 -7.94,12.26 -3.13,4.97 -6.13,10.13 -8.92,15.34 -2.83,5.25 -5.21,10.29 -7.12,15 -1.9,4.64 -2.85,8.33 -2.82,10.98 0.02,2.09 0.42,3.5 1.2,4.19 0.76,0.69 2.02,1.05 3.76,1.09 0.02,0 0.05,0 0.09,0 h 0.31 c 3.2,-0.02 7.04,-1.33 11.43,-3.83 4.45,-2.58 9.14,-5.85 13.93,-9.72 4.77,-3.87 9.35,-8.21 13.63,-12.95 4.28,-4.73 7.8,-9.33 10.49,-13.65 0.47,-0.69 1.13,-1.04 1.93,-1.02 0.29,0 0.61,0.06 0.96,0.2 0.75,0.27 1,0.79 1.08,1.1 0.25,0.94 -0.44,1.92 -0.97,2.58 -3.49,4.92 -7.62,10.03 -12.26,15.14 -4.65,5.12 -9.65,9.76 -14.89,13.77 -5.25,4.04 -10.68,7.42 -16.15,10.04 -5.55,2.67 -11.02,4.04 -16.27,4.07 -0.19,0.02 -0.35,0.02 -0.53,0 -0.07,0 -0.14,0 -0.21,0 -2.2,-0.05 -4.26,-0.38 -6.13,-1.02 -1.65,-0.57 -3.61,-2.06 -3.64,-6.05 -0.01,-2.9 1,-6.59 2.97,-10.98 1.95,-4.24 4.27,-8.83 6.94,-13.66 2.63,-4.75 5.4,-9.69 8.22,-14.65 2.79,-4.92 5.11,-9.52 6.83,-13.65 0.28,-0.71 0.33,-1.32 0.13,-1.79 -0.09,0 -0.28,0.09 -0.61,0.28 -2.11,1.37 -4.68,3.27 -7.6,5.64 -2.95,2.4 -5.98,4.98 -8.98,7.63 -3.02,2.66 -5.97,5.42 -8.82,8.2 -2.8,2.77 -5.1,5.25 -6.84,7.4 -3.11,4.93 -5.81,9.54 -8.01,13.64 -2.25,4.19 -5.07,8.95 -8.4,14.12 -1.03,1.57 -1.76,2.21 -2.53,2.22 -0.02,0 -0.02,0 -0.03,0 -2.17,-0.06 -3.1,-2.93 -3.4,-3.89 -1,-3.02 -1.12,-3.97 -1.12,-4.44 -0.02,-2.01 1.23,-4.6 3.86,-7.88 2.51,-3.18 5.22,-6.63 8.03,-10.27 3.09,-6.29 6.31,-13.04 9.61,-20.06 3.3,-7.03 6.14,-13.41 8.46,-18.93 l 0.06,-0.1 c 0.75,-1.27 1.92,-1.95 3.46,-1.95 l 0.1,-0.02 c 0.02,0 0.05,0.02 0.06,0.02 1.37,0.02 2.63,0.6 3.76,1.71 1.17,1.15 1.77,2.48 1.78,3.91 0.01,0.75 -0.52,2.33 -4.38,8.69 -2.18,3.59 -4.34,7.7 -6.46,12.17 2.8,-2.51 5.82,-5.14 8.99,-7.87 4.48,-3.83 8.77,-7.37 12.74,-10.53 4.07,-3.23 7.65,-5.92 10.7,-8.01 4.32,-2.97 6,-3.32 6.88,-3.33 0.01,0.04 0.01,0.04 0.02,0.04 m 0.1,-4.51 v 0 h -0.01 -0.02 -0.08 -0.06 c -2.47,0.05 -5.18,1.26 -9.38,4.17 -3.04,2.05 -6.72,4.81 -10.95,8.16 -1.27,1.02 -2.58,2.07 -3.91,3.16 0.26,-0.86 0.33,-1.5 0.31,-2.14 -0.02,-2.61 -1.08,-5.04 -3.11,-7.05 -1.96,-1.95 -4.32,-2.98 -6.83,-3.04 h -0.04 -0.07 -0.13 -0.14 -0.02 c -3.05,0.05 -5.66,1.57 -7.19,4.16 l -0.09,0.13 -0.15,0.27 -0.11,0.27 c -2.29,5.48 -5.11,11.77 -8.37,18.76 -3.23,6.88 -6.38,13.45 -9.39,19.57 -2.41,3.13 -4.94,6.35 -7.73,9.85 -3.31,4.18 -4.84,7.59 -4.83,10.72 0,1.04 0.24,2.43 1.35,5.8 1.84,5.67 5.15,6.94 7.57,6.98 h 0.03 0.06 c 3.53,0 5.5,-2.96 6.33,-4.23 3.39,-5.29 6.28,-10.15 8.62,-14.46 2.18,-4.01 4.75,-8.44 7.71,-13.16 1.63,-1.97 3.75,-4.26 6.33,-6.8 2.84,-2.78 5.76,-5.48 8.66,-8.06 0.81,-0.71 1.62,-1.41 2.41,-2.1 -2.44,4.32 -4.91,8.72 -7.32,13.1 -2.69,4.89 -5.07,9.58 -7.09,13.98 -2.29,5.06 -3.4,9.27 -3.37,12.87 0.05,7.24 4.69,9.6 6.68,10.27 2.29,0.79 4.79,1.21 7.46,1.27 h 0.25 c 0.02,0 0.02,0 0.02,0 0.22,0 0.44,0.02 0.67,0 5.87,-0.05 11.99,-1.56 18.14,-4.52 5.73,-2.75 11.44,-6.3 16.93,-10.52 5.47,-4.2 10.68,-9.02 15.49,-14.32 4.73,-5.2 8.93,-10.42 12.52,-15.46 1.7,-2.16 2.29,-4.32 1.74,-6.43 -0.57,-1.98 -1.97,-3.47 -3.87,-4.19 -0.84,-0.3 -1.65,-0.45 -2.42,-0.46 -2.38,-0.05 -4.49,1.06 -5.79,3.06 l -0.04,0.06 -0.03,0.02 c -2.56,4.11 -5.92,8.48 -10.01,13.04 -4.13,4.55 -8.53,8.75 -13.13,12.46 -4.59,3.72 -9.09,6.85 -13.34,9.3 -4.61,2.66 -7.56,3.23 -9.21,3.24 h -0.24 c -0.22,0 -0.4,-0.01 -0.56,-0.05 -0.02,-0.19 -0.03,-0.46 -0.03,-0.79 -0.02,-1.15 0.3,-3.9 2.47,-9.22 1.85,-4.57 4.18,-9.47 6.93,-14.58 2.76,-5.15 5.71,-10.23 8.76,-15.08 3.09,-4.92 5.73,-8.99 7.85,-12.14 l 0.06,-0.06 0.06,-0.11 c 1.59,-2.58 2.28,-4.59 2.25,-6.47 0,-1.94 -0.74,-3.9 -2.2,-5.78 -2.2,-2.78 -4.7,-3.41 -6.4,-3.45 z"
   id="path2804" />
		</g>
		<g
   id="g2812">
			<path
   class="st2"
   d="m 635.58,307.53 c -0.08,-0.31 -0.31,-0.82 -1.08,-1.1 -1.19,-0.44 -2.23,-0.12 -2.86,0.84 -2.7,4.31 -6.24,8.9 -10.51,13.64 -4.27,4.74 -8.86,9.09 -13.62,12.94 -4.79,3.88 -9.49,7.14 -13.93,9.71 -4.39,2.52 -8.23,3.8 -11.42,3.83 l -0.31,0.02 c -1.79,-0.03 -3.08,-0.4 -3.84,-1.08 -0.81,-0.7 -1.2,-2.13 -1.22,-4.22 -0.02,-2.66 0.93,-6.35 2.81,-10.98 1.92,-4.71 4.3,-9.76 7.12,-14.99 2.8,-5.23 5.8,-10.4 8.93,-15.35 3.11,-4.98 5.8,-9.1 7.93,-12.28 1.1,-1.78 1.6,-3.07 1.59,-4.06 0,-1 -0.42,-2.04 -1.25,-3.09 -0.86,-1.09 -1.83,-1.65 -2.96,-1.66 v 0 c -0.9,-0.02 -2.58,0.35 -6.88,3.33 -3.05,2.09 -6.65,4.77 -10.71,8 -4.01,3.18 -8.27,6.71 -12.74,10.53 -3.18,2.72 -6.19,5.37 -8.99,7.86 2.13,-4.49 4.29,-8.58 6.47,-12.14 3.85,-6.39 4.38,-7.95 4.37,-8.7 -0.01,-1.45 -0.6,-2.76 -1.77,-3.91 -1.16,-1.13 -2.44,-1.71 -3.82,-1.73 h -0.13 c -1.51,0.02 -2.7,0.7 -3.44,1.96 l -0.06,0.12 c -2.32,5.5 -5.16,11.86 -8.46,18.9 -3.3,7.02 -6.53,13.78 -9.62,20.06 -2.84,3.66 -5.52,7.1 -8.04,10.26 -2.62,3.3 -3.86,5.88 -3.86,7.92 0,0.42 0.13,1.38 1.12,4.41 0.31,0.95 1.26,3.86 3.43,3.88 v 0 c 0.78,0 1.51,-0.64 2.55,-2.21 3.32,-5.17 6.15,-9.93 8.4,-14.11 2.22,-4.12 4.9,-8.72 8.01,-13.67 1.75,-2.15 4.04,-4.62 6.84,-7.37 2.83,-2.79 5.8,-5.53 8.84,-8.23 3,-2.64 6.03,-5.21 8.97,-7.62 2.92,-2.38 5.48,-4.27 7.59,-5.65 0.34,-0.2 0.53,-0.26 0.61,-0.27 0.21,0.47 0.16,1.07 -0.12,1.81 -1.74,4.12 -4.03,8.7 -6.85,13.63 -2.77,4.89 -5.53,9.83 -8.21,14.66 -2.64,4.81 -4.98,9.39 -6.9,13.67 -2.01,4.38 -3,8.08 -2.99,10.97 0.02,3.98 2,5.46 3.64,6.04 1.92,0.66 4.05,1.01 6.32,1.03 0.19,0 0.35,0.01 0.53,0 5.25,-0.02 10.74,-1.39 16.27,-4.09 5.47,-2.62 10.89,-6 16.15,-10.04 5.25,-4.01 10.24,-8.66 14.89,-13.78 4.63,-5.09 8.77,-10.22 12.25,-15.13 0.54,-0.65 1.22,-1.62 0.96,-2.56 z"
   id="path2808" />
			<path
   class="st2"
   d="m 600.99,279.72 c 1.11,0.03 2.07,0.59 2.93,1.66 0.83,1.04 1.25,2.08 1.25,3.09 0.02,0.99 -0.49,2.28 -1.59,4.06 -2.14,3.18 -4.82,7.3 -7.93,12.28 -3.13,4.95 -6.13,10.12 -8.93,15.35 -2.82,5.23 -5.21,10.27 -7.12,14.99 -1.89,4.63 -2.83,8.32 -2.81,10.98 0.02,2.09 0.41,3.52 1.22,4.22 0.75,0.65 2.04,1.02 3.76,1.06 0.02,0 0.05,0 0.08,0.02 l 0.31,-0.02 c 3.19,-0.03 7.03,-1.31 11.42,-3.83 4.45,-2.57 9.14,-5.83 13.93,-9.71 4.76,-3.85 9.35,-8.21 13.62,-12.94 4.27,-4.74 7.81,-9.32 10.51,-13.64 0.45,-0.69 1.11,-1.05 1.89,-1.04 0.29,0 0.63,0.07 0.97,0.2 0.77,0.28 1,0.79 1.08,1.1 0.26,0.93 -0.42,1.91 -0.96,2.58 -3.49,4.91 -7.62,10.04 -12.25,15.13 -4.65,5.12 -9.64,9.77 -14.89,13.78 -5.25,4.04 -10.68,7.42 -16.15,10.04 -5.54,2.7 -11.03,4.07 -16.27,4.09 -0.19,0.01 -0.35,0 -0.53,0 -0.08,0 -0.14,-0.01 -0.24,-0.01 -2.17,-0.05 -4.21,-0.39 -6.09,-1.02 -1.64,-0.58 -3.62,-2.06 -3.64,-6.04 -0.01,-2.9 0.98,-6.59 2.99,-10.97 1.92,-4.27 4.26,-8.86 6.9,-13.67 2.69,-4.82 5.44,-9.76 8.21,-14.66 2.82,-4.93 5.11,-9.52 6.85,-13.63 0.28,-0.74 0.34,-1.34 0.12,-1.81 -0.08,0.01 -0.27,0.08 -0.61,0.27 -2.11,1.38 -4.67,3.27 -7.59,5.65 -2.94,2.41 -5.97,4.98 -8.97,7.62 -3.04,2.7 -6,5.44 -8.84,8.23 -2.8,2.75 -5.09,5.21 -6.84,7.37 -3.11,4.95 -5.8,9.54 -8.01,13.67 -2.25,4.18 -5.07,8.94 -8.4,14.11 -1.04,1.58 -1.77,2.21 -2.55,2.21 h -0.01 c -2.17,-0.06 -3.11,-2.93 -3.42,-3.88 -0.99,-3.03 -1.12,-3.99 -1.12,-4.41 0,-2.03 1.24,-4.62 3.86,-7.92 2.51,-3.16 5.2,-6.6 8.04,-10.26 3.09,-6.29 6.32,-13.04 9.62,-20.06 3.3,-7.04 6.14,-13.4 8.46,-18.9 l 0.06,-0.12 c 0.74,-1.26 1.93,-1.95 3.44,-1.96 h 0.13 c 0,0 0.03,0 0.04,0 1.38,0.03 2.63,0.61 3.78,1.73 1.18,1.15 1.77,2.47 1.77,3.91 0.02,0.75 -0.52,2.31 -4.37,8.7 -2.18,3.57 -4.34,7.65 -6.47,12.14 2.8,-2.48 5.8,-5.14 8.99,-7.86 4.47,-3.83 8.73,-7.35 12.74,-10.53 4.07,-3.23 7.67,-5.92 10.71,-8 4.3,-2.98 5.98,-3.35 6.88,-3.33 0.02,-0.02 0.02,-0.02 0.04,-0.02 m 0.1,-4.51 v 0 h -0.02 -0.08 c -2.47,0 -5.2,1.19 -9.47,4.13 -3.21,2.2 -6.86,4.95 -10.95,8.18 -1.27,1.02 -2.59,2.07 -3.91,3.15 0.27,-0.85 0.34,-1.48 0.33,-2.13 -0.03,-2.62 -1.1,-5.06 -3.12,-7.05 -1.96,-1.95 -4.33,-2.98 -6.84,-3.04 H 567 566.94 l -0.08,0.01 -0.06,-0.01 h -0.11 c -3.05,0.02 -5.7,1.55 -7.25,4.19 l -0.1,0.16 -0.06,0.17 -0.06,0.12 -0.05,0.09 -0.04,0.11 c -2.31,5.47 -5.12,11.77 -8.39,18.75 -3.34,7.08 -6.49,13.67 -9.37,19.57 -2.84,3.66 -5.44,6.96 -7.72,9.85 -3.32,4.18 -4.87,7.59 -4.85,10.71 l 0.01,0.05 v 0.05 c 0.02,1.04 0.27,2.42 1.36,5.73 1.87,5.96 5.54,6.94 7.57,6.97 h 0.05 l 0.09,0.02 c 3.5,-0.02 5.45,-2.99 6.28,-4.27 3.37,-5.23 6.26,-10.09 8.59,-14.43 2.14,-3.96 4.72,-8.39 7.72,-13.18 1.62,-1.96 3.72,-4.24 6.31,-6.8 2.87,-2.77 5.77,-5.5 8.66,-8.04 0.82,-0.71 1.61,-1.42 2.44,-2.13 -2.39,4.21 -4.85,8.61 -7.35,13.11 -2.74,4.97 -5.12,9.68 -7.08,13.99 -2.28,4.96 -3.42,9.3 -3.37,12.87 0.03,5.06 2.45,8.8 6.64,10.27 2.33,0.79 4.84,1.21 7.48,1.27 h 0.27 c 0.02,0 0.03,0 0.06,0 0.17,0 0.35,0.02 0.55,0 5.95,-0.03 12.06,-1.56 18.22,-4.51 5.77,-2.8 11.47,-6.34 16.93,-10.56 5.43,-4.15 10.64,-8.98 15.47,-14.3 4.71,-5.18 8.93,-10.39 12.54,-15.48 1.7,-2.18 2.29,-4.35 1.7,-6.47 -0.52,-1.92 -1.94,-3.42 -3.89,-4.12 -0.79,-0.29 -1.6,-0.46 -2.41,-0.47 -2.35,-0.05 -4.45,1.06 -5.77,3.08 -2.6,4.18 -5.98,8.54 -10.07,13.08 -4.12,4.57 -8.53,8.75 -13.1,12.46 -4.59,3.72 -9.1,6.86 -13.36,9.31 -4.61,2.66 -7.56,3.23 -9.21,3.24 h -0.22 c -0.24,0 -0.42,-0.02 -0.57,-0.02 -0.03,-0.21 -0.05,-0.47 -0.05,-0.8 -0.02,-1.14 0.31,-3.88 2.48,-9.24 1.88,-4.57 4.19,-9.49 6.93,-14.56 2.78,-5.17 5.72,-10.23 8.77,-15.08 2.91,-4.61 5.62,-8.81 7.87,-12.15 l 0.05,-0.07 0.05,-0.08 c 1.57,-2.58 2.29,-4.57 2.26,-6.46 0,-2.02 -0.76,-3.97 -2.22,-5.85 -2.19,-2.73 -4.68,-3.34 -6.39,-3.39 z"
   id="path2810" />
		</g>
		<g
   id="g2818">
			<path
   class="st2"
   d="m 694.08,312.02 c -0.03,-0.96 -0.5,-1.7 -1.36,-2.02 -0.26,-0.1 -0.5,-0.15 -0.78,-0.16 -0.39,0 -0.97,0.11 -1.53,0.67 l -0.09,0.09 c -2.52,3.35 -5.71,6.98 -9.51,10.84 -3.77,3.84 -7.95,7.45 -12.44,10.73 -4.48,3.25 -9.16,6.01 -13.91,8.19 -4.69,2.16 -9.32,3.27 -13.72,3.31 l -0.38,-0.01 c -6.54,-0.09 -9.73,-3.75 -9.8,-11.21 -0.02,-3.83 0.53,-7.71 1.67,-11.49 1.03,-3.48 2,-6.12 2.88,-7.85 6.2,-0.11 11.62,-1.02 16.1,-2.72 4.63,-1.74 8.51,-3.93 11.53,-6.5 3.05,-2.55 5.33,-5.32 6.85,-8.22 1.52,-2.89 2.31,-5.65 2.28,-8.17 -0.02,-1.85 -0.68,-3.37 -1.96,-4.52 -1.3,-1.16 -3.42,-1.71 -6.44,-1.7 -5.12,0.05 -10.52,1.99 -16.08,5.8 -5.47,3.75 -10.56,8.44 -15.11,13.96 -4.55,5.54 -8.3,11.66 -11.15,18.17 -2.87,6.57 -4.29,12.75 -4.25,18.42 0.07,8.69 4.88,13.16 14.34,13.29 0.22,0 0.44,0.01 0.66,0 5.83,-0.04 11.8,-1.27 17.71,-3.62 5.88,-2.34 11.62,-5.43 17.08,-9.17 5.43,-3.72 10.55,-7.89 15.18,-12.41 4.65,-4.51 8.68,-8.93 12.05,-13.13 l 0.19,-0.26 z m -36.11,-25.86 c 1.98,0.02 2.83,0.9 2.83,2.91 0.05,5.26 -2.02,9.91 -6.13,13.82 -4.15,3.92 -9.02,5.94 -14.5,5.95 l -0.26,0.02 c -0.55,-0.02 -1.25,-0.06 -2.04,-0.12 -0.36,-0.05 -0.66,-0.06 -0.89,-0.11 1.08,-2.25 2.38,-4.59 3.89,-6.99 1.75,-2.76 3.61,-5.33 5.51,-7.68 1.91,-2.33 3.9,-4.23 5.89,-5.7 1.9,-1.37 3.79,-2.09 5.56,-2.09 h 0.14 z"
   id="path2814" />
			<path
   class="st2"
   d="m 664.08,281.31 c 2.69,0.05 4.58,0.6 5.81,1.68 1.28,1.15 1.95,2.67 1.96,4.52 0.03,2.51 -0.75,5.28 -2.28,8.17 -1.52,2.9 -3.8,5.66 -6.85,8.22 -3.02,2.58 -6.9,4.76 -11.53,6.5 -4.48,1.7 -9.9,2.61 -16.1,2.72 -0.87,1.73 -1.85,4.37 -2.88,7.85 -1.15,3.78 -1.7,7.66 -1.67,11.49 0.07,7.4 3.22,11.06 9.64,11.2 0.06,0 0.1,0.01 0.17,0.01 l 0.38,0.01 c 4.41,-0.04 9.03,-1.15 13.72,-3.31 4.75,-2.18 9.43,-4.94 13.91,-8.19 4.49,-3.28 8.67,-6.89 12.44,-10.73 3.8,-3.86 6.99,-7.49 9.51,-10.84 l 0.09,-0.09 c 0.56,-0.56 1.14,-0.67 1.53,-0.67 0.27,0.01 0.52,0.05 0.78,0.16 0.86,0.32 1.33,1.06 1.36,2.02 l -0.02,0.33 -0.19,0.26 c -3.37,4.2 -7.4,8.62 -12.05,13.13 -4.63,4.52 -9.75,8.69 -15.18,12.41 -5.46,3.74 -11.2,6.83 -17.08,9.17 -5.91,2.35 -11.88,3.58 -17.71,3.62 -0.22,0.01 -0.44,0 -0.66,0 -0.09,0 -0.19,0 -0.28,0 -9.25,-0.22 -14,-4.7 -14.06,-13.29 -0.04,-5.67 1.38,-11.84 4.25,-18.42 2.84,-6.51 6.59,-12.62 11.15,-18.17 4.56,-5.53 9.65,-10.21 15.11,-13.96 5.56,-3.81 10.96,-5.75 16.08,-5.8 0.24,-0.02 0.44,-0.02 0.65,0 m -24.24,27.55 c 0.03,0 0.05,0 0.07,0 l 0.26,-0.02 c 5.48,-0.02 10.35,-2.03 14.5,-5.95 4.11,-3.91 6.17,-8.56 6.13,-13.82 0,-1.98 -0.83,-2.88 -2.74,-2.91 -0.03,0 -0.07,0 -0.09,0 h -0.12 c -1.78,0 -3.66,0.72 -5.56,2.09 -2,1.48 -3.98,3.37 -5.89,5.7 -1.9,2.35 -3.76,4.92 -5.51,7.68 -1.51,2.4 -2.81,4.74 -3.89,6.99 0.23,0.05 0.53,0.06 0.89,0.11 0.74,0.07 1.41,0.11 1.95,0.13 m 24.33,-32.06 v 0 c -0.24,-0.02 -0.49,-0.02 -0.75,0 -6.05,0.05 -12.3,2.26 -18.61,6.57 -5.84,4 -11.23,8.99 -16.02,14.83 -4.84,5.88 -8.81,12.33 -11.81,19.23 -3.11,7.12 -4.68,13.92 -4.63,20.24 0.09,11.04 6.82,17.48 18.47,17.76 h 0.31 0.02 c 0.24,0 0.5,0 0.79,0 6.39,-0.05 12.86,-1.38 19.3,-3.95 6.15,-2.43 12.19,-5.68 17.94,-9.61 5.64,-3.86 10.97,-8.22 15.8,-12.9 4.71,-4.6 8.89,-9.17 12.39,-13.54 l 0.22,-0.31 0.93,-1.17 0.05,-1.51 v -0.31 -0.11 -0.07 c -0.05,-2.76 -1.65,-5.13 -4.18,-6.13 -0.81,-0.31 -1.56,-0.46 -2.34,-0.5 h -0.04 -0.05 c -1.8,0 -3.49,0.72 -4.77,2.06 l -0.07,0.05 -0.06,0.07 -0.08,0.09 -0.13,0.14 -0.12,0.17 c -2.39,3.16 -5.46,6.65 -9.11,10.38 -3.64,3.71 -7.63,7.13 -11.91,10.26 -4.18,3.05 -8.61,5.64 -13.13,7.73 -4.12,1.89 -8.11,2.86 -11.88,2.9 h -0.35 -0.07 c -2.93,-0.07 -5.18,-0.62 -5.23,-6.75 -0.02,-3.41 0.46,-6.83 1.47,-10.16 0.6,-2.06 1.15,-3.61 1.57,-4.77 5.54,-0.31 10.46,-1.27 14.7,-2.89 5.11,-1.94 9.42,-4.38 12.84,-7.27 3.48,-2.95 6.15,-6.16 7.93,-9.56 1.88,-3.54 2.83,-7.03 2.78,-10.31 -0.03,-3.13 -1.22,-5.83 -3.47,-7.84 -2.02,-1.82 -4.87,-2.73 -8.7,-2.82 z m -19.23,26.83 c 1.55,-2.42 3.21,-4.72 4.93,-6.83 1.63,-2.01 3.34,-3.64 5.06,-4.9 0.44,-0.3 0.85,-0.57 1.24,-0.76 -0.42,3.17 -1.93,5.96 -4.62,8.48 -2.04,1.93 -4.21,3.25 -6.61,4.01 z"
   id="path2816" />
		</g>
	</g>
	<g
   id="g2832">
		<g
   id="g2824">
			<path
   d="m 250.28,196.24 c -0.15,-1.53 -1.21,-1.67 -1.5,-1.68 -0.76,0 -1.62,0.51 -2.86,1.72 -1.61,1.58 -4.67,2.91 -9.1,3.93 -4.66,1.1 -8.25,2.4 -10.66,3.87 -9.59,6.5 -31.72,24.54 -65.76,53.58 -34.02,29.04 -79.42,69.31 -134.99,119.74 -6.1,5.65 -11.04,10.6 -14.67,14.71 -3.76,4.23 -5.86,9.1 -6.22,14.44 v 0.08 l 2.33,22.02 0.31,0.23 c 0.54,0.41 1.08,0.63 1.6,0.63 1.08,0.03 1.89,-0.75 2.43,-2.29 l 0.04,-0.2 c 0.62,-4.77 1.46,-8.67 2.49,-11.59 1.02,-2.95 2.7,-6.25 4.97,-9.83 7.53,-10.69 18.9,-24.25 33.79,-40.3 14.84,-15.97 33.4,-33.84 55.18,-53.11 4.01,0.61 9.98,1.04 17.74,1.26 7.75,0.24 16,0.42 24.52,0.55 7.89,0.1 14.81,0.34 20.59,0.72 5.64,0.35 9.47,0.82 11.43,1.4 5.5,1.46 9.74,3.83 12.57,7.01 2.8,3.15 4.19,6.22 4.16,9.11 -0.03,1.67 -0.5,5.31 -1.43,10.82 -0.94,5.54 -1.96,11.51 -3.03,17.79 -1.11,6.31 -2.1,12.23 -3.04,17.82 -0.94,5.58 -1.56,9.21 -1.87,10.93 l -0.04,0.19 0.05,0.18 c 1.45,6.21 4.61,9.37 9.35,9.43 l 0.19,-0.02 c 2.93,-0.55 6.35,-1.3 10.19,-2.23 3.88,-0.96 7.8,-1.99 11.68,-3.09 3.89,-1.1 7.34,-2.04 10.36,-2.87 2.89,-0.78 5.05,-1.33 6.24,-1.62 1.05,-0.25 4.26,-1.01 3.93,-3.15 -0.07,-0.46 -0.43,-1.53 -2.31,-1.56 -0.65,-0.02 -1.46,0.1 -2.45,0.33 -2.17,0.52 -4.34,0.99 -6.45,1.42 -1.95,0.38 -3.62,0.57 -4.98,0.54 -0.8,-0.01 -1.9,-0.16 -3.26,-0.44 -1.25,-0.26 -2.54,-1 -3.82,-2.2 -1.3,-1.19 -2.43,-3.13 -3.34,-5.71 -0.92,-2.61 -1.36,-6.35 -1.3,-11 0.32,-3.12 1.05,-8.66 2.15,-16.5 1.1,-7.81 2.58,-16.73 4.44,-26.59 l 5.8,-30.9 c 1.94,-10.34 3.88,-20.44 5.78,-30 1.83,-9.32 3.48,-17.26 4.83,-23.58 1.39,-6.51 2.2,-10.22 2.52,-11.41 0.61,-3.65 1.82,-8.29 3.6,-13.8 1.75,-5.47 4.12,-10.34 6.97,-14.51 l 0.05,-0.1 c 0.68,-1.29 0.94,-2.69 0.8,-4.17 z m -28.99,20.07 c 0,0.36 -0.08,1.09 -0.42,2.43 -0.3,1.16 -1.12,5.18 -2.56,12.71 l -10.43,54.71 c -1.8,9.5 -3.35,17.3 -4.59,23.08 -0.52,1.75 -0.87,2.37 -1.02,2.56 -0.4,-0.02 -1.47,-0.21 -4.34,-1.11 -2.37,-0.64 -6.37,-1.04 -12.24,-1.27 -5.78,-0.22 -13.31,-0.39 -22.38,-0.52 l -12.9,-0.18 c -5.14,-0.06 -10.12,-0.28 -14.77,-0.64 -4.63,-0.33 -8.68,-0.95 -12.07,-1.85 -1.92,-0.5 -4.21,-1.38 -4.76,-2.81 3.66,-4.07 8.51,-8.93 14.44,-14.42 6.07,-5.66 12.74,-11.55 19.77,-17.55 6.99,-5.98 14.31,-12.1 21.74,-18.21 7.4,-6.05 14.2,-11.62 20.43,-16.71 6.17,-5.02 11.36,-9.21 15.43,-12.48 4.98,-3.97 6.72,-5.26 7.36,-5.67 1.92,-1.39 2.86,-1.88 3.31,-2.07 z"
   id="path2822" />
		</g>
		<g
   id="g2830">
			<g
   id="g2828">
				<path
   class="st3"
   d="m 692.72,310 c -0.26,-0.1 -0.5,-0.15 -0.78,-0.16 -0.39,0 -0.97,0.11 -1.53,0.67 l -0.09,0.09 c -2.52,3.35 -5.71,6.98 -9.51,10.84 -3.77,3.84 -7.95,7.45 -12.44,10.73 -4.48,3.25 -9.16,6.01 -13.91,8.19 -4.69,2.16 -9.32,3.27 -13.72,3.31 l -0.38,-0.01 c -6.54,-0.09 -9.73,-3.75 -9.8,-11.21 -0.02,-3.83 0.53,-7.71 1.67,-11.49 1.03,-3.48 2,-6.12 2.88,-7.85 6.2,-0.11 11.62,-1.02 16.1,-2.72 4.63,-1.74 8.51,-3.93 11.53,-6.5 3.05,-2.55 5.33,-5.32 6.85,-8.22 1.52,-2.89 2.31,-5.65 2.28,-8.17 -0.02,-1.85 -0.68,-3.37 -1.96,-4.52 -1.3,-1.16 -3.42,-1.71 -6.44,-1.7 -5.12,0.05 -10.52,1.99 -16.08,5.8 -5.47,3.75 -10.56,8.44 -15.11,13.96 -4.55,5.54 -8.3,11.66 -11.15,18.17 -0.44,1.01 -0.84,2.01 -1.21,3 -3.92,4.22 -8.08,8.14 -12.39,11.63 -4.79,3.88 -9.49,7.14 -13.93,9.71 -4.39,2.52 -8.23,3.8 -11.42,3.83 l -0.31,0.02 c -1.79,-0.03 -3.08,-0.4 -3.84,-1.08 -0.81,-0.7 -1.2,-2.13 -1.22,-4.22 -0.02,-2.66 0.93,-6.35 2.81,-10.98 1.92,-4.71 4.3,-9.76 7.12,-14.99 2.8,-5.23 5.8,-10.4 8.93,-15.35 3.11,-4.98 5.8,-9.1 7.93,-12.28 1.1,-1.78 1.6,-3.07 1.59,-4.06 0,-1 -0.42,-2.04 -1.25,-3.09 -0.86,-1.09 -1.83,-1.65 -2.96,-1.66 -0.9,-0.02 -2.58,0.35 -6.88,3.33 -3.05,2.09 -6.65,4.77 -10.71,8 -4.01,3.18 -8.27,6.71 -12.74,10.53 -3.18,2.72 -6.19,5.37 -8.99,7.86 2.13,-4.49 4.29,-8.58 6.47,-12.14 3.85,-6.39 4.38,-7.95 4.37,-8.7 -0.01,-1.45 -0.6,-2.76 -1.77,-3.91 -1.16,-1.13 -2.44,-1.71 -3.82,-1.73 h -0.13 c -1.51,0.02 -2.7,0.7 -3.44,1.96 l -0.06,0.12 c -2.32,5.5 -5.16,11.86 -8.46,18.9 -1.43,3.04 -2.84,6.01 -4.24,8.94 -2.06,2.81 -4.43,5.7 -7.09,8.64 -4.27,4.74 -8.86,9.08 -13.63,12.95 -4.78,3.87 -9.48,7.13 -13.93,9.72 -4.39,2.5 -8.23,3.8 -11.43,3.83 h -0.31 c -1.78,-0.04 -3.08,-0.4 -3.85,-1.09 -0.78,-0.69 -1.19,-2.1 -1.2,-4.19 -0.03,-2.65 0.92,-6.34 2.82,-10.98 1.91,-4.71 4.3,-9.76 7.12,-15 2.79,-5.21 5.8,-10.37 8.92,-15.34 3.11,-4.96 5.78,-9.07 7.94,-12.26 1.1,-1.79 1.59,-3.08 1.58,-4.07 0,-0.99 -0.43,-2.03 -1.24,-3.09 -0.88,-1.08 -1.85,-1.63 -2.98,-1.66 -0.88,0.02 -2.56,0.36 -6.88,3.33 -3.05,2.1 -6.63,4.78 -10.7,8.01 -3.97,3.17 -8.26,6.7 -12.74,10.53 -3.17,2.73 -6.2,5.36 -8.99,7.87 2.13,-4.48 4.28,-8.58 6.46,-12.17 3.86,-6.36 4.39,-7.93 4.38,-8.69 -0.01,-1.43 -0.61,-2.76 -1.78,-3.91 -1.16,-1.13 -2.44,-1.71 -3.83,-1.73 l -0.1,0.02 c -1.53,0 -2.71,0.68 -3.46,1.95 l -0.06,0.1 c -2.32,5.52 -5.16,11.9 -8.46,18.93 -0.22,0.47 -0.44,0.93 -0.66,1.4 -0.75,0.69 -1.53,1.37 -2.33,2.03 -3.95,3.25 -8.46,4.92 -13.36,4.95 -4.84,0.06 -8.17,-1.54 -10.12,-4.82 -2.01,-3.38 -3.06,-7.82 -3.09,-13.2 -0.03,-3.9 0.28,-7.55 0.93,-10.83 0.64,-3.25 1.62,-5.95 2.94,-8.06 l 0.05,-0.08 c 0.72,-1.49 0.1,-2.45 -0.72,-2.84 -0.88,-0.44 -1.81,-0.36 -2.67,0.17 -0.69,0.36 -1.49,0.64 -2.38,0.82 l -0.46,0.09 c -0.84,0.17 -1.67,0.35 -2.51,0.53 -2.3,0.48 -3.93,1.92 -4.79,4.34 -0.69,1.84 -1.24,3.5 -1.63,4.98 -6.02,0.72 -11.71,2.69 -16.95,5.84 -4.34,2.63 -8.34,5.74 -11.9,9.27 -3.12,1.73 -6.18,3.03 -9.16,3.86 -3.86,1.1 -7.47,1.65 -10.78,1.68 -2.25,0.03 -4.73,-0.35 -7.3,-1.08 -2.58,-0.75 -5,-1.94 -7.19,-3.52 -2.17,-1.59 -4,-3.67 -5.45,-6.2 -1.41,-2.54 -2.15,-5.73 -2.18,-9.53 l -0.01,-0.2 -0.11,-0.2 c -0.2,-0.39 -0.72,-1.05 -2,-1.09 l -0.26,0.02 -0.22,0.12 c -1.04,0.64 -2.14,1.51 -3.39,2.67 -1.19,1.12 -2.2,2.09 -2.98,2.88 -1.35,1.37 -2.03,2.79 -2.02,4.24 v 0.17 l 0.08,0.17 c 0.38,0.93 0.72,2.14 1.01,3.54 0.31,1.44 0.46,3.32 0.48,5.62 0.05,7.01 -0.79,13.39 -2.48,18.92 -1.72,5.56 -3.84,10.3 -6.32,14.11 -2.49,3.78 -5.1,6.72 -7.76,8.77 -2.58,1.96 -4.9,2.97 -6.87,2.97 l -0.13,0.02 c -1.07,-0.02 -4.31,-0.05 -4.36,-7.08 -0.02,-1.7 0.45,-4.38 1.39,-7.95 0.94,-3.61 2.15,-7.61 3.61,-11.87 1.43,-4.27 3.1,-8.55 4.93,-12.78 1.84,-4.26 3.55,-8 5.08,-11.13 4.73,-9.41 10.25,-20.11 16.42,-31.8 2.77,-5.25 3.71,-7.52 4.46,-9.35 0.96,-2.31 1.65,-3.98 5.51,-10.35 1.92,-3.17 3.17,-5.29 4.09,-6.85 2.41,-4.08 2.73,-4.6 7.67,-11.55 6.78,-9.56 13.17,-16.92 19.02,-21.86 4.1,-3.56 7.84,-6.42 11.13,-8.49 3.29,-2.06 6.46,-3.72 9.46,-4.9 2.98,-1.19 5.97,-1.99 8.86,-2.4 2.93,-0.41 6.19,-0.63 9.69,-0.66 3.93,-0.04 6.7,0.54 8.23,1.67 1.65,1.25 2.98,2.37 3.94,3.31 0.4,0.4 0.8,0.58 1.21,0.59 0.46,0.02 1.22,-0.2 1.52,-1.69 0.2,-1.06 0.3,-3.07 0.27,-6.12 -0.02,-3.01 -1.08,-5.56 -3.16,-7.61 -2.07,-2.05 -5.04,-3.05 -8.84,-3.04 -3.69,0.04 -7.75,1 -12.09,2.85 -4.26,1.82 -8.57,4.14 -12.73,6.86 -4.16,2.72 -8.12,5.62 -11.77,8.64 -3.6,2.95 -6.65,5.6 -9.06,7.83 -8.46,8 -16.57,16.86 -24.13,26.32 -2.73,3.46 -4.27,5.21 -5.4,6.49 -1.97,2.28 -2.88,3.31 -7.2,9.82 -4.34,6.52 -4.5,6.84 -5.67,8.95 -0.63,1.16 -1.6,2.91 -3.78,6.66 -6.03,10.27 -11.77,20.55 -17.05,30.51 -1.35,2.58 -3.13,6.04 -5.28,10.31 -2.11,4.21 -4.24,8.74 -6.31,13.49 -0.78,1.76 -1.49,3.52 -2.16,5.28 -2.87,3.85 -5.84,7.53 -8.89,10.96 -4.78,5.36 -9.46,9.98 -13.93,13.7 -4.47,3.75 -8.66,6.73 -12.43,8.78 -3.69,2.03 -6.9,3.06 -9.51,3.09 l -0.23,0.01 c -3.48,-0.06 -5.12,-1.84 -5.14,-5.61 -0.05,-4.81 0.71,-9.32 2.21,-13.35 1.52,-4.12 3.42,-8.07 5.63,-11.79 2.22,-3.75 4.68,-7.4 7.3,-10.85 2.62,-3.47 5.16,-7.06 7.56,-10.72 0.86,-1.55 1.29,-3.2 1.28,-4.92 -0.02,-2.54 -0.58,-4.74 -1.66,-6.56 -1.21,-2 -2.31,-2.96 -3.51,-2.96 -0.93,0 -1.91,0.78 -3.1,2.5 l -0.05,0.08 c -0.79,1.38 -1.95,3.44 -3.52,6.11 -1.5,2.59 -3.14,5.47 -5,8.84 -1.77,3.19 -3.59,6.57 -5.43,10.01 -1.98,3.72 -3.74,6.97 -5.39,9.96 -4.62,7.26 -8.69,12.5 -12.06,15.52 -4.06,3.64 -6.35,4.43 -7.62,4.45 -0.68,-0.02 -2.27,-0.03 -2.29,-3.53 -0.02,-1.65 0.59,-4.1 1.8,-7.27 1.24,-3.23 2.9,-6.97 4.94,-11.11 2.03,-4.18 4.45,-8.69 7.15,-13.4 2.72,-4.74 5.67,-9.54 8.78,-14.29 1.7,-2.58 1.92,-3.53 1.91,-4.09 0,-0.61 -0.29,-1.58 -2.49,-4.01 -1.65,-1.84 -3.31,-2.78 -5.02,-2.8 -1.21,0.02 -2.31,1.13 -3.45,3.46 -5.01,8.81 -9.2,16.42 -12.48,22.59 -3.24,6.08 -5.79,11.23 -7.64,15.28 -1.86,4.08 -3.16,7.41 -3.83,9.83 -0.69,2.43 -1.05,4.53 -1.04,6.21 0.01,3.02 0.84,5.29 2.42,6.75 1.52,1.4 3.44,2.1 5.75,2.12 l 0.25,0.02 c 2.91,-0.02 5.58,-0.63 7.98,-1.81 2.32,-1.12 4.5,-2.59 6.41,-4.34 1.91,-1.74 3.64,-3.59 5.13,-5.52 0.18,-0.24 0.36,-0.47 0.55,-0.7 -0.26,0.92 -0.5,1.78 -0.66,2.62 -0.49,2.34 -0.72,4.45 -0.71,6.31 0.02,4.03 1.11,7.03 3.18,8.96 1.99,1.87 4.72,2.82 8.12,2.88 h 0.42 c 4.69,-0.04 9.73,-1.59 14.99,-4.56 5.16,-2.92 10.3,-6.66 15.24,-11.08 4.92,-4.41 9.72,-9.35 14.26,-14.66 0.08,-0.09 0.16,-0.19 0.24,-0.28 -0.98,3.75 -1.47,7.03 -1.44,9.79 0.02,4.41 1.21,7.72 3.48,9.85 2.19,2.06 4.94,3.13 8.22,3.17 h 0.32 c 3.52,-0.04 7.48,-1.3 11.73,-3.79 4.22,-2.47 8.18,-5.91 11.78,-10.28 3.58,-4.34 6.63,-9.68 9.09,-15.92 2.19,-5.59 3.42,-11.78 3.61,-18.46 1.52,1.51 3.43,2.88 5.7,4.13 3.22,1.71 6.8,2.57 10.72,2.55 4.65,-0.05 9.68,-0.91 14.98,-2.55 2.12,-0.66 4.35,-1.47 6.66,-2.43 -0.86,1.09 -1.74,2.27 -2.64,3.54 -2.28,3.23 -4.42,6.68 -6.36,10.27 -1.98,3.61 -3.62,7.37 -4.89,11.2 -1.3,3.85 -1.92,7.66 -1.89,11.31 0.05,6.68 3.92,10.24 11.2,10.35 0.16,-0.02 0.33,-0.02 0.5,0 2.5,-0.03 5.62,-0.87 9.34,-2.57 4.2,-2.24 8.19,-5.11 11.88,-8.54 3.68,-3.43 7.02,-7.27 10,-11.37 2.93,-4.09 5.54,-8.25 7.7,-12.37 1.81,-3.42 3.35,-6.58 4.62,-9.42 1.95,2.8 4.43,4.95 7.37,6.43 3.38,1.73 6.89,2.55 10.4,2.54 5.3,-0.04 10.19,-1.45 14.55,-4.15 -1.85,3.89 -3.68,7.67 -5.46,11.29 -2.81,3.64 -5.51,7.08 -8.03,10.27 -2.62,3.28 -3.88,5.87 -3.86,7.88 0,0.46 0.12,1.42 1.12,4.44 0.31,0.96 1.25,3.86 3.43,3.89 0.77,-0.01 1.5,-0.65 2.53,-2.22 3.33,-5.17 6.15,-9.92 8.4,-14.12 2.2,-4.11 4.9,-8.71 8.01,-13.64 1.74,-2.14 4.04,-4.63 6.84,-7.4 2.85,-2.78 5.8,-5.54 8.82,-8.2 3,-2.65 6.03,-5.23 8.98,-7.63 2.92,-2.37 5.49,-4.27 7.6,-5.64 0.32,-0.2 0.52,-0.28 0.61,-0.28 0.2,0.47 0.16,1.08 -0.13,1.79 -1.73,4.13 -4.04,8.73 -6.83,13.65 -2.82,4.96 -5.59,9.9 -8.22,14.65 -2.66,4.83 -4.99,9.42 -6.94,13.66 -1.97,4.39 -2.98,8.08 -2.97,10.98 0.03,3.99 1.99,5.47 3.64,6.05 1.93,0.64 4.06,1.01 6.33,1.02 0.19,0.02 0.34,0.02 0.53,0 5.25,-0.03 10.73,-1.4 16.27,-4.07 5.47,-2.62 10.89,-6.01 16.15,-10.04 3.35,-2.57 6.61,-5.4 9.74,-8.44 -0.82,1.04 -1.63,2.07 -2.42,3.06 -2.62,3.3 -3.86,5.88 -3.86,7.92 0,0.42 0.13,1.38 1.12,4.42 0.31,0.95 1.26,3.86 3.43,3.88 0.78,0 1.51,-0.64 2.54,-2.21 3.32,-5.17 6.15,-9.93 8.4,-14.11 2.22,-4.12 4.9,-8.72 8.01,-13.67 1.75,-2.15 4.04,-4.62 6.84,-7.37 2.83,-2.79 5.8,-5.53 8.84,-8.23 3,-2.64 6.03,-5.21 8.97,-7.62 2.92,-2.38 5.48,-4.27 7.59,-5.65 0.34,-0.2 0.53,-0.26 0.61,-0.27 0.21,0.47 0.16,1.07 -0.12,1.81 -1.74,4.12 -4.03,8.7 -6.85,13.63 -2.77,4.89 -5.53,9.83 -8.21,14.66 -2.64,4.81 -4.98,9.39 -6.9,13.67 -2.01,4.38 -3,8.08 -2.99,10.97 0.02,3.98 2,5.46 3.64,6.04 1.92,0.66 4.05,1.01 6.32,1.03 0.19,0 0.35,0.01 0.53,0 5.25,-0.02 10.74,-1.39 16.27,-4.09 5.47,-2.62 10.89,-6 16.15,-10.04 3.5,-2.67 6.88,-5.63 10.12,-8.82 -0.5,2.56 -0.76,5.05 -0.74,7.44 0.07,8.69 4.88,13.16 14.34,13.29 0.22,0 0.44,0.01 0.66,0 5.83,-0.04 11.8,-1.27 17.71,-3.62 5.88,-2.34 11.62,-5.43 17.08,-9.17 5.43,-3.72 10.55,-7.89 15.18,-12.41 4.65,-4.51 8.68,-8.93 12.05,-13.13 l 0.19,-0.26 0.02,-0.33 c -0.03,-0.94 -0.5,-1.68 -1.36,-2 z m -259.69,2.5 c -2.42,5.1 -5.4,10.24 -8.88,15.25 -3.49,5.03 -7.23,9.46 -11.09,13.2 -3.76,3.61 -7.23,5.46 -10.34,5.48 l -0.14,0.02 c -1.74,-0.04 -2.23,-0.71 -2.43,-1.23 -0.46,-1.07 -0.69,-2.23 -0.72,-3.53 -0.21,-4.41 0.68,-9.13 2.68,-14.08 2,-5 4.29,-9.72 6.8,-14.06 1.92,-3.32 4.08,-6.61 6.42,-9.79 2.33,-3.14 4.68,-5.99 7.02,-8.46 2.28,-2.43 4.6,-4.41 6.9,-5.85 2.21,-1.41 4.34,-2.13 6.35,-2.15 l 0.03,-0.91 -0.01,0.91 c 0.1,0 0.15,0.03 0.15,0.03 0.02,0.02 0.1,0.17 0.1,0.55 0.01,2.21 0.15,4.54 0.35,6.9 0.2,2.34 0.52,4.43 0.93,6.22 -0.4,2.68 -1.79,6.53 -4.12,11.5 z m 207.85,-10.87 c 1.75,-2.76 3.61,-5.33 5.51,-7.68 1.91,-2.33 3.9,-4.23 5.89,-5.7 1.9,-1.37 3.79,-2.09 5.56,-2.09 h 0.12 c 1.98,0.02 2.83,0.9 2.83,2.91 0.05,5.26 -2.02,9.91 -6.13,13.82 -4.15,3.92 -9.02,5.94 -14.5,5.95 l -0.26,0.02 c -0.55,-0.02 -1.25,-0.06 -2.04,-0.12 -0.36,-0.05 -0.66,-0.06 -0.89,-0.11 1.09,-2.25 2.4,-4.59 3.91,-7 z"
   id="path2826" />
			</g>
		</g>
	</g>
	<g
   id="g2846">
		<g
   id="g2838">
			<path
   class="st4"
   d="m 572.82,1.8 v 91.82 c 0.01,0.57 0.41,13.22 8.36,27.98 7.31,13.6 22.68,31.55 54.4,39.87 l 0.47,0.11 V 1.8 Z"
   id="path2834" />
			<path
   class="st5"
   d="m 699.27,1.8 v 91.82 c -0.01,0.57 -0.42,13.22 -8.35,27.98 -7.32,13.6 -22.69,31.55 -54.4,39.87 l -0.47,0.11 V 1.8 Z"
   id="path2836" />
		</g>
		<g
   id="g2844">
			<path
   d="m 636.05,162.78 -0.75,-0.2 c -32.11,-8.43 -47.71,-26.63 -55.12,-40.43 -8.07,-15.02 -8.47,-27.95 -8.49,-28.5 V 0.67 h 128.73 v 92.96 c -0.02,0.57 -0.42,13.52 -8.49,28.52 -7.43,13.8 -23.01,32.01 -55.12,40.43 z M 573.96,2.94 v 90.68 c 0.01,0.5 0.39,12.9 8.22,27.45 7.21,13.38 22.37,31.08 53.68,39.29 l 0.19,0.06 0.17,-0.06 c 31.32,-8.21 46.48,-25.91 53.69,-39.29 7.83,-14.54 8.21,-26.96 8.22,-27.49 V 2.94 Z"
   id="path2840" />
			<rect
   x="634.90997"
   y="1.8"
   width="2.28"
   height="159.77"
   id="rect2842" />
		</g>
	</g>
</g>
</svg>
