<?xml version="1.0" encoding="UTF-8" standalone="no"?>
<svg
   id="Ebene_1"
   data-name="Ebene 1"
   version="1.1"
   viewBox="0 0 800 1100"
   width="800"
   height="1100"
   xmlns="http://www.w3.org/2000/svg"
   xmlns:svg="http://www.w3.org/2000/svg">
  <defs
     id="defs11">
    <style
       id="style9">
      .cls-1 {
        stroke-width: 0px;
      }
    </style>
  </defs>
  <path
     class="cls-1"
     d="m 401.7344,548.37277 c -87,0 -157.7,-70.6 -157.7,-157.6 0,-87 70.7,-157.7 157.7,-157.7 87,0 157.7,70.6 157.7,157.7 0,87.1 -70.6,157.6 -157.7,157.6 m 396.8,-171.6 c 0,-204.7 -177.6,-370.6999971 -396.8,-370.6999971 -219.2,0 -396.800002,166.0999971 -396.800002,370.6999971 0,204.6 52.1,210.1 134.600002,278.1 h -0.8 c 0,0 142.7,96.90003 249.8,436.00003 h 74.9 c 0,0 32.1,-276.8 246.3,-477.50003 l -2.9,0.3 c 57.3,-64.3 91.6,-146.9 91.6,-236.9"
     id="path13" />
</svg>
