<?xml version="1.0"?>
<svg xmlns="http://www.w3.org/2000/svg" xmlns:xlink="http://www.w3.org/1999/xlink" viewBox="0 0 36 36" version="1.1" width="36" height="36" fill="none">
  <g filter="url(#filter0_ddd_9_69)">
    <rect x="2" y="1.5" width="32" height="32" rx="8" fill="white"/>
    <g clip-path="url(#clip0_9_69)">
      <path d="M26.5333 10.0332H9.47733C9.19628 10.0318 8.91772 10.0859 8.65766 10.1925C8.3976 10.2991 8.16116 10.456 7.96193 10.6542C7.7627 10.8525 7.60461 11.0881 7.49673 11.3476C7.38886 11.6072 7.33332 11.8855 7.33333 12.1665V22.8332C7.33615 23.3999 7.56328 23.9425 7.96505 24.3423C8.36682 24.7421 8.91055 24.9665 9.47733 24.9665H26.5333C27.1008 24.9637 27.6441 24.736 28.044 24.3333C28.4439 23.9306 28.6678 23.3858 28.6667 22.8182V12.1665C28.6667 11.6007 28.4419 11.0581 28.0418 10.658C27.6417 10.2579 27.0991 10.0332 26.5333 10.0332V10.0332ZM27.1093 22.8182C27.1122 22.8963 27.0995 22.9741 27.072 23.0472C27.0444 23.1202 27.0027 23.1871 26.9491 23.2439C26.8955 23.3007 26.8311 23.3462 26.7597 23.3779C26.6884 23.4096 26.6114 23.4267 26.5333 23.4284H9.47733C9.39836 23.4281 9.32024 23.412 9.24763 23.381C9.17501 23.3499 9.10938 23.3046 9.05465 23.2477C8.99991 23.1908 8.95719 23.1234 8.92902 23.0496C8.90084 22.9759 8.8878 22.8972 8.89066 22.8182V12.1665C8.88662 12.0869 8.89878 12.0073 8.92642 11.9325C8.95406 11.8577 8.9966 11.7893 9.05146 11.7315C9.10631 11.6736 9.17234 11.6275 9.24555 11.596C9.31875 11.5644 9.39761 11.548 9.47733 11.5478H26.5333C26.6121 11.5495 26.6898 11.5669 26.7618 11.5991C26.8338 11.6313 26.8985 11.6776 26.9522 11.7353C27.0059 11.793 27.0475 11.8609 27.0745 11.935C27.1015 12.009 27.1133 12.0878 27.1093 12.1665V22.8182Z" fill="#EC0016"/>
      <path d="M13.8571 22.3874H10.2688V12.6125H13.8571C16.3851 12.6125 17.7824 14.1954 17.7824 17.4551C17.7867 20.2839 16.8373 22.3639 13.8571 22.3874ZM15.4165 17.6578C15.4165 15.6887 15.2032 14.1506 13.0912 14.1506H12.6155V20.8023H13.4496C14.6933 20.8023 15.4165 19.8082 15.4165 17.6578V17.6578Z" fill="#EC0016"/>
      <path d="M23.9733 17.2738C24.4632 17.1257 24.8929 16.825 25.1999 16.4155C25.5069 16.0061 25.6751 15.5093 25.68 14.9975C25.68 14.7949 25.6395 12.6167 22.8896 12.6167H18.8107V22.3874H22.2667C23.1819 22.3874 26.0341 22.3874 26.0341 19.6397C26.0341 18.9527 25.7525 17.6599 23.9733 17.2738ZM21.136 14.1229H21.8741C22.9259 14.1229 23.344 14.4898 23.344 15.3005C23.344 15.9405 22.8832 16.4823 22.064 16.4823H21.136V14.1229ZM22.0981 20.8023H21.136V18.2914H22.1621C23.3803 18.2914 23.6789 19.0018 23.6789 19.5479C23.6789 20.8023 22.48 20.8023 22.0981 20.8023V20.8023Z" fill="#EC0016"/>
    </g>
  </g>
  <defs>
    <filter id="filter0_ddd_9_69" x="0.4" y="0.433333" width="35.2" height="35.2" filterUnits="userSpaceOnUse" color-interpolation-filters="sRGB">
      <feFlood flood-opacity="0" result="BackgroundImageFix"/>
      <feColorMatrix in="SourceAlpha" type="matrix" values="0 0 0 0 0 0 0 0 0 0 0 0 0 0 0 0 0 0 127 0" result="hardAlpha"/>
      <feOffset dy="0.533333"/>
      <feGaussianBlur stdDeviation="0.8"/>
      <feColorMatrix type="matrix" values="0 0 0 0 0 0 0 0 0 0 0 0 0 0 0 0 0 0 0.2 0"/>
      <feBlend mode="normal" in2="BackgroundImageFix" result="effect1_dropShadow_9_69"/>
      <feColorMatrix in="SourceAlpha" type="matrix" values="0 0 0 0 0 0 0 0 0 0 0 0 0 0 0 0 0 0 127 0" result="hardAlpha"/>
      <feOffset dy="1.06667"/>
      <feGaussianBlur stdDeviation="0.266667"/>
      <feColorMatrix type="matrix" values="0 0 0 0 0 0 0 0 0 0 0 0 0 0 0 0 0 0 0.12 0"/>
      <feBlend mode="normal" in2="effect1_dropShadow_9_69" result="effect2_dropShadow_9_69"/>
      <feColorMatrix in="SourceAlpha" type="matrix" values="0 0 0 0 0 0 0 0 0 0 0 0 0 0 0 0 0 0 127 0" result="hardAlpha"/>
      <feOffset dy="0.533333"/>
      <feGaussianBlur stdDeviation="0.266667"/>
      <feColorMatrix type="matrix" values="0 0 0 0 0 0 0 0 0 0 0 0 0 0 0 0 0 0 0.14 0"/>
      <feBlend mode="normal" in2="effect2_dropShadow_9_69" result="effect3_dropShadow_9_69"/>
      <feBlend mode="normal" in="SourceGraphic" in2="effect3_dropShadow_9_69" result="shape"/>
    </filter>
    <clipPath id="clip0_9_69">
      <rect width="21.3333" height="14.9333" fill="white" transform="translate(7.33333 10.0333)"/>
    </clipPath>
  </defs>
</svg>
