<?xml version="1.0"?>
<svg xmlns="http://www.w3.org/2000/svg" xmlns:xlink="http://www.w3.org/1999/xlink" viewBox="0 0 13.01 13.67" version="1.1">
  <defs>
    <style>.cls-1{fill:#fff;}.cls-2{fill:#fff;}</style>
  </defs>
  <path class="cls-1" d="M14.92,8.81H10a.61.61,0,0,1-.61-.61V3.28A.61.61,0,0,1,10,2.66h4.92a.61.61,0,0,1,.61.62V8.2A.61.61,0,0,1,14.92,8.81Z" transform="translate(-2.52 -2.66)"/>
  <path class="cls-1" d="M9.61,2.8" transform="translate(-2.52 -2.66)"/>
  <path class="cls-2" d="M12.46,3.52c-.93,0-1.87.11-1.87.93V6.67a.82.82,0,0,0,.82.82l-.35.35V8h.52l.47-.47h.88L13.4,8h.46V7.84l-.35-.35a.82.82,0,0,0,.82-.82V4.45C14.33,3.63,13.49,3.52,12.46,3.52ZM11.41,7a.34.34,0,0,1-.35-.35.35.35,0,0,1,.35-.35.35.35,0,0,1,.35.35A.35.35,0,0,1,11.41,7Zm.82-1.63H11.06V4.45h1.17Zm.46,0V4.45h1.17v.94ZM13.51,7a.35.35,0,0,1-.35-.35.35.35,0,0,1,.35-.35.35.35,0,0,1,.35.35A.34.34,0,0,1,13.51,7Z" transform="translate(-2.52 -2.66)"/>
  <path d="M14.79,9.88a.59.59,0,0,0-.65-.5l-1,.2L12.4,8.32a1.44,1.44,0,0,0-1.24-.93,16.87,16.87,0,0,0-2.51-.18,16.08,16.08,0,0,0-2.47.18,1.44,1.44,0,0,0-1.24.93L4.22,9.58l-1-.2a.58.58,0,0,0-.65.5.56.56,0,0,0,.45.61l.73.18A2,2,0,0,0,3,12.25v1.82a1,1,0,0,0,.91,1V16.1c0,.16.14.24.3.24h1a.25.25,0,0,0,.28-.24v-.87c.85,0,2,.12,3.14.12s2.31-.08,3.14-.12v.87a.25.25,0,0,0,.28.24h1c.16,0,.3-.08.3-.24V15.05a1,1,0,0,0,.93-1V12.25a2,2,0,0,0-.71-1.58l.69-.18A.56.56,0,0,0,14.79,9.88Zm-8.63,2.7a.48.48,0,0,1-.51.46H4.54A.49.49,0,0,1,4,12.58V12l2.15.22Zm-.59-4A.87.87,0,0,1,6.26,8a11.15,11.15,0,0,1,2.39-.18A11.56,11.56,0,0,1,11.08,8a.89.89,0,0,1,.69.55l.91,1.86a26.19,26.19,0,0,1-3.95.24,32.3,32.3,0,0,1-4.07-.24Zm7.78,4a.5.5,0,0,1-.53.46H11.75a.47.47,0,0,1-.51-.46v-.33L13.35,12Z" transform="translate(-2.52 -2.66)"/>
  <path class="cls-2" d="M5.56,8.57A.87.87,0,0,1,6.25,8a11.15,11.15,0,0,1,2.39-.18A11.56,11.56,0,0,1,11.07,8a.89.89,0,0,1,.69.55l.91,1.86a26.19,26.19,0,0,1-3.95.24,32.3,32.3,0,0,1-4.07-.24Z" transform="translate(-2.52 -2.66)"/>
</svg>
