<?xml version="1.0" encoding="UTF-8"?><svg id="uuid-e9d47f87-39db-4c11-a231-eaf92739c1b0" xmlns="http://www.w3.org/2000/svg" xmlns:xlink="http://www.w3.org/1999/xlink" viewBox="0 0 177 177.97" ><defs><style>.uuid-710536e7-45fe-4703-9093-04ec834d7801{fill:#2d4e97;}.bike{fill:#fff;}.uuid-4c4da573-92d5-4941-8cde-a0c4e8f0dbe5{fill:url(#uuid-be170f41-834a-43f2-93fe-efd128500a83);}</style><linearGradient id="uuid-be170f41-834a-43f2-93fe-efd128500a83" x1="38.24" y1="10.25" x2="121.59" y2="154.61" gradientTransform="matrix(1, 0, 0, 1, 0, 0)" gradientUnits="userSpaceOnUse"><stop offset="0" stop-color="#4cab45"/><stop offset=".08" stop-color="#51ad40"/><stop offset=".44" stop-color="#64b631"/><stop offset=".64" stop-color="#6fb727"/></linearGradient></defs>
<rect width="177" height="178" x="0" y="0" rx="10" ry="10" fill="#2E2B51" />
<g id="uuid-0a80ce7e-50bb-4995-8767-ff7d52b9c605" transform="translate(12 0)"><path class="uuid-4c4da573-92d5-4941-8cde-a0c4e8f0dbe5" d="M76.56,0C34.27,0,0,34.25,0,76.54c0,20.08,8.03,39.35,21.94,53.8l41.48,42.3c7.23,7.23,18.74,6.96,25.7,0h0l41.76-42.55c29.98-30.78,29.19-79.23-1.32-108.67C115.37,7.77,96.37,0,76.56,0h0Z"/><path class="uuid-710536e7-45fe-4703-9093-04ec834d7801" d="M145.95,108.19l-56.29-13.22-4.32-1.02-8.74-2.04-4.79-1.12-10.39-2.45-4.71-1.1-33.47-7.86-4.42-1.05L.09,73.94H.05v2.39c0,.63,.01,1.26,.03,1.88,.01,.48,.03,.98,.05,1.48,0,.22,.01,.44,.03,.67,.03,.51,.07,1.02,.1,1.53-.01,.04-.01,.07,0,.09,.68,9.61,3.13,18.98,7.47,27.65,.2,.41,.41,.81,.61,1.22l114.88,27.05,3.62-3.68,3.75-3.82,1.98-2.09,2.03-2.3,3.67-4.68,2.14-3.1,2.71-4.47,2.83-5.55Z"/><g><path class="bike" d="M111,55.69c.73-.69,.96-1.76,.6-2.69-.37-.94-1.27-1.56-2.27-1.57l-14.96-.2c-1.17,.03-2.16,.77-2.44,1.88-.28,1.12,.26,2.28,1.28,2.8l3.4,1.73-32.92-1.26c-.85-.03-1.62,.36-2.1,1.02s-.6,1.54-.31,2.32l13,34.8c.31,.84,1.05,1.44,1.93,1.58,.18,.03,.36,.04,.54,.02,.69-.04,1.34-.37,1.78-.93l26.5-33.29,1.32-1.66,4.64-4.54Zm-33.61,33l-10.17-27.22,30.9,1.18-20.73,26.04Z"/><path class="bike" d="M59.88,54.19c-.7,.04-1.42-.21-1.94-.76-.95-.99-.91-2.56,.08-3.5l.67-.64-8.9-.12c-1.37-.02-2.46-1.14-2.44-2.51,.02-1.37,1.21-2.39,2.51-2.44l14.96,.21c1.01,.02,1.9,.63,2.27,1.57s.13,2-.6,2.69l-5.06,4.82c-.44,.42-.99,.65-1.56,.68Z"/><path class="bike" d="M42.17,102.32c-12.72,.79-23.7-8.92-24.49-21.64-.79-12.72,8.92-23.7,21.64-24.49,12.72-.79,23.7,8.92,24.49,21.64,.79,12.72-8.92,23.7-21.64,24.49Zm-2.55-41.19c-9.99,.62-17.62,9.25-17,19.24,.62,9.99,9.25,17.62,19.24,17,9.99-.62,17.62-9.25,17-19.24-.62-9.99-9.25-17.62-19.24-17Z"/><path class="bike" d="M109.39,122.7c-12.72,.79-23.71-8.92-24.49-21.64s8.92-23.7,21.64-24.49c12.72-.79,23.7,8.92,24.49,21.64,.79,12.72-8.92,23.71-21.64,24.49Zm-2.55-41.19c-10,.62-17.62,9.25-17.01,19.24s9.25,17.62,19.25,17.01c9.99-.62,17.62-9.25,17-19.25-.62-9.99-9.25-17.62-19.24-17Z"/></g></g></svg>