<?xml version="1.0" encoding="UTF-8" standalone="no"?><svg xmlns:dc="http://purl.org/dc/elements/1.1/" xmlns:cc="http://creativecommons.org/ns#" xmlns:rdf="http://www.w3.org/1999/02/22-rdf-syntax-ns#" xmlns:svg="http://www.w3.org/2000/svg" xmlns="http://www.w3.org/2000/svg" viewBox="0 0 2666.6667 2666.6667" height="2666.6667" width="2666.6667" xml:space="preserve" id="svg2" version="1.1"><metadata id="metadata8"><rdf:RDF><cc:Work rdf:about=""><dc:format>image/svg+xml</dc:format><dc:type rdf:resource="http://purl.org/dc/dcmitype/StillImage" /></cc:Work></rdf:RDF></metadata><defs id="defs6" /><g transform="matrix(1.3333333,0,0,-1.3333333,0,2666.6667)" id="g10"><g transform="scale(0.1)" id="g12"><g transform="scale(1.22699)" id="g14"><path id="path16" style="fill:#dcbf03;fill-opacity:1;fill-rule:nonzero;stroke:none" d="m 0,8150 c 0,4501.2 3649.05,8150 8150,8150 4501.2,0 8150,-3648.8 8150,-8150 C 16300,3649.08 12651.2,0 8150,0 3649.05,0 0,3649.08 0,8150" /></g><path id="path18" style="fill:#ffffff;fill-opacity:1;fill-rule:nonzero;stroke:none" d="m 13967.8,11717.1 c 0,2046.8 -1776.4,3707.4 -3967.6,3707.4 -2191.61,0 -3968.02,-1660.6 -3968.02,-3707.4 0,-1107.8 521.1,-2101.4 1346.17,-2781.4 h -7.7 c 0,0 1426.85,-968.9 2497.69,-4359.7 l 749.26,-0.3 c 0,0 321.3,2768.4 2462.6,4775.2 l -28.6,-2.8 c 572.8,642.7 916.2,1468.7 916.2,2369 m -3967.6,-1716.4 c -870.39,0 -1577.5,705.9 -1577.5,1576.2 0,871.6 707.11,1577.5 1577.5,1577.5 870.9,0 1577.1,-705.9 1577.1,-1577.5 0,-870.3 -706.2,-1576.2 -1577.1,-1576.2" /></g></g></svg>