<svg width="75" height="74" viewBox="0 0 75 74" fill="none" xmlns="http://www.w3.org/2000/svg">
<g clip-path="url(#clip0_1507_3811)">
<path d="M7.9 0C7.9 0 0.5 0 0.5 7.4V66.6C0.5 66.6 0.5 74 7.9 74H67.1C67.1 74 74.5 74 74.5 66.6V7.4C74.5 7.4 74.5 0 67.1 0H7.9Z" fill="#EB690B"/>
<path d="M48.0972 52.971C47.9696 53.5316 47.8806 54.1002 47.8308 54.673C47.8308 55.0041 47.7272 55.4759 47.8308 55.8588C47.8826 55.9513 47.7882 56.1807 47.9677 56.2288C48.5486 56.0438 49.0055 55.5721 49.6715 55.5869C50.1193 55.5508 50.5689 55.6298 50.9776 55.8163C51.5881 55.894 51.9729 56.4823 52.4077 56.917C52.7666 57.5941 52.367 58.212 52.0377 58.767C51.4827 59.2499 50.6835 59.322 49.9416 59.2776C49.3981 59.1914 48.8596 59.0759 48.3284 58.9317C48.1434 58.7467 47.5348 58.7152 47.7161 58.2564C47.9954 58.151 47.6384 57.8457 47.9455 57.781L48.6374 58.1399C48.802 58.0104 48.9574 58.2046 49.1239 58.2398C49.5457 58.2176 49.9139 58.4599 50.3116 58.3693C50.5799 58.3952 50.9277 58.3064 51.2366 58.3064C51.4808 58.1917 51.7602 58.1787 51.9285 57.9364C51.7435 57.1723 50.9184 56.6081 50.1636 56.4915C49.4699 56.5674 48.6281 56.4397 48.1545 57.0465C47.9695 57.0835 47.7938 57.263 47.5995 57.1353C47.1907 56.8412 47.2295 56.3047 47.2906 55.8681C47.2277 55.4222 47.4312 54.9838 47.3923 54.4898C47.4608 53.8238 47.7013 53.2355 47.8049 52.5825L48.0565 52.2402C48.21 52.4049 48.1601 52.7619 48.0972 52.9802" fill="white"/>
<path d="M57.6492 54.5751C57.7584 54.8563 57.4309 54.958 57.2903 55.0598C57.1909 55.075 57.0894 55.0694 56.9923 55.0433C56.8951 55.0172 56.8045 54.9711 56.7261 54.9081L56.4985 54.4567C56.6835 54.218 56.6502 53.8591 56.9832 53.6797C57.2792 53.9109 57.3292 54.3179 57.6492 54.5751Z" fill="white"/>
<path d="M11.167 54.8784C11.204 55.1189 10.9006 55.2484 10.7711 55.4334C10.4011 55.4945 9.91453 55.3428 9.61668 55.6887C9.10793 56.1105 8.98028 56.7488 9.09498 57.3537C9.41688 58.3638 10.4658 58.4637 11.3686 58.5044C11.6649 58.4602 11.9651 58.4478 12.264 58.4674L13.7015 58.251C14.0178 58.0567 14.4285 58.0845 14.7467 57.8921C15.2111 57.942 15.5293 57.5961 15.9474 57.6627C15.8234 58.0715 15.3498 58.1104 15.1167 58.4138C14.7615 58.7616 14.2232 58.7486 13.8217 58.991C13.7755 58.9735 13.7246 58.9729 13.678 58.9891C13.6313 59.0053 13.5918 59.0374 13.5664 59.0798C13.1638 59.1874 12.7519 59.2567 12.3362 59.287C12.0457 59.5534 11.6221 59.2722 11.3168 59.361C10.8044 59.4387 10.242 59.324 9.76653 59.2444C9.36072 59.0771 9.01774 58.7866 8.78603 58.4138C8.23103 57.7607 8.41603 56.7784 8.79713 56.0624C9.18193 55.4852 9.56303 54.6953 10.3197 54.5547C10.6268 54.6046 10.9931 54.5547 11.1744 54.8766" fill="white"/>
<path d="M21.3081 55.746C20.8734 56.449 20.3128 55.6054 19.7745 56.0272C19.572 56.1441 19.3997 56.3066 19.2712 56.5019C19.1427 56.6972 19.0617 56.9198 19.0345 57.152C19.0148 57.3535 19.0468 57.5568 19.1274 57.7425C19.208 57.9283 19.3345 58.0905 19.4951 58.2139C19.8392 58.4322 20.2629 58.3656 20.6458 58.3527C21.1775 58.1959 21.6672 57.9216 22.0786 57.5502C22.4901 57.1787 22.8129 56.7196 23.0231 56.2067C23.0508 56.129 23.1396 56.1808 23.2081 56.1678C23.4504 56.4731 23.2821 56.9596 23.5281 57.2649C23.7169 57.5363 23.9699 57.7568 24.2646 57.9065C24.5594 58.0563 24.8866 58.1308 25.2172 58.1233C25.7507 58.0798 26.2647 57.903 26.712 57.609C26.847 57.6367 26.9932 57.4591 27.0968 57.5849C26.7131 58.1552 26.1817 58.6105 25.5594 58.9021C25.2283 59.0705 24.9175 58.8633 24.5882 58.9928C23.7723 58.9669 23.1433 58.2768 22.7197 57.6367C22.4163 57.7237 22.4163 58.1362 22.1092 58.2139C21.8409 58.7504 21.2526 58.9817 20.7679 59.224C20.1889 59.3535 19.5395 59.409 19.0141 59.0575C18.9124 58.8244 18.6552 58.7911 18.6552 58.5025C18.4914 58.2575 18.411 57.9662 18.4258 57.6719C18.5294 56.8042 18.781 55.8311 19.6653 55.3575C19.9142 55.2554 20.1842 55.2159 20.4519 55.2424C20.7196 55.2688 20.9767 55.3604 21.2008 55.5092C21.2361 55.537 21.2645 55.5724 21.2841 55.6128C21.3036 55.6531 21.3137 55.6974 21.3137 55.7423" fill="white"/>
<path d="M66.4723 56.205C66.8534 57.0634 66.0357 57.7627 65.5251 58.3917C65.3105 58.5175 65.1163 58.8006 64.8573 58.8505C64.4022 59.1983 63.8398 59.1595 63.2626 59.1595C62.8742 59.0378 62.4967 58.8837 62.1341 58.6988C61.4847 58.2012 60.9094 57.5111 61.0777 56.6638C61.2424 56.4326 61.3053 56.1273 61.5606 55.9719C61.9953 56.3179 61.7937 56.9709 62.2247 57.3317C62.9185 58.0199 63.9008 58.401 64.8702 58.1605C65.2828 57.9181 65.8156 57.624 65.9802 57.1245C65.8896 57.0098 65.971 56.8932 65.9007 56.7545C65.6195 56.4215 65.2624 56.0496 64.8055 56.0256C64.2819 55.9608 63.7695 56.1773 63.2848 56.3697C63.2182 56.2938 63.1201 56.2032 63.1923 56.0885C63.5105 55.7733 63.908 55.5498 64.3427 55.4417C64.7774 55.3336 65.2332 55.3449 65.662 55.4743C66.0016 55.6244 66.2838 55.88 66.4668 56.2032" fill="white"/>
<path d="M57.1753 56.7415C57.3048 57.2669 57.0625 57.8941 57.4084 58.3288C57.549 58.6988 57.1661 58.6748 57.0736 58.943C56.8886 59.0966 56.7036 58.9819 56.5759 58.8154C56.4483 57.9829 56.5149 57.0875 56.5241 56.205C56.7091 56.02 56.6277 55.6815 56.9478 55.5908C57.3307 55.798 57.1661 56.3845 57.1753 56.7415Z" fill="white"/>
<path d="M30.0034 57.2553C30.1857 57.524 30.4355 57.7401 30.7278 57.8817C31.0201 58.0232 31.3445 58.0854 31.6684 58.0619C32.9338 57.653 33.9124 56.6485 35.2518 56.3654C35.4054 56.3525 35.5756 56.445 35.7143 56.334C36.8391 56.5097 37.2461 58.4929 38.5504 57.8658C39.4643 57.2738 40.3467 56.6392 41.4604 56.432C42.8072 56.432 43.1976 58.2709 44.5037 58.282C44.5441 58.3151 44.5726 58.3605 44.5849 58.4112C44.5973 58.4619 44.5928 58.5153 44.5721 58.5632C44.4395 58.7494 44.2547 58.8921 44.0409 58.9731C43.8272 59.0541 43.5942 59.0699 43.3715 59.0183C42.3373 58.6946 41.9155 57.0555 40.6057 57.3644C39.5882 57.4995 38.9222 58.393 38.0564 58.8444C36.8595 59.2995 36.273 57.7529 35.435 57.2978C34.7227 57.1702 34.1233 57.6049 33.4962 57.8066C33.3796 57.9675 33.1724 57.9324 33.0522 58.0397C32.549 58.3875 32.105 58.8241 31.513 58.9647C31.328 58.9776 31.0875 59.1108 30.8747 59.0091C30.4141 59.0535 29.9497 58.7149 29.6704 58.3375C29.4598 58.1889 29.2977 57.9816 29.2042 57.7414C29.1108 57.5012 29.0902 57.2389 29.145 56.987C29.2319 56.815 29.2467 56.5967 29.4521 56.4838C29.835 56.5837 29.7832 57.0074 30.0071 57.2479" fill="white"/>
<path d="M32.0359 13.2515C32.2986 14.8869 30.2118 15.7509 29.3497 16.9608C26.8318 17.3863 23.5462 16.3632 21.526 18.6998C18.0758 21.5617 17.1933 25.9 17.9814 30.0625C20.1626 36.9204 27.274 37.6142 33.4049 37.8732C35.3326 37.4495 37.6747 37.6142 39.484 37.6142L49.228 36.1434C51.3832 34.8373 54.1656 35.0186 56.3356 33.7199C59.4917 34.0566 61.634 31.7071 64.4757 32.1548C63.6413 34.9298 60.4352 35.1907 58.8535 37.2608C56.4282 39.6177 52.7799 39.5234 50.0123 41.1754C49.2353 40.9904 48.795 41.0885 48.2752 41.7822C45.5413 42.5066 42.7465 42.9772 39.9261 43.1882C37.9577 44.9975 35.0828 43.0846 33.0053 43.6933C29.5365 44.2094 25.7218 43.4306 22.4899 42.8978C19.7944 41.8766 17.2932 39.6177 15.8299 37.2608C12.0966 32.8208 13.3083 26.1608 15.9113 21.3027C18.5216 17.39 21.1079 12.025 26.2324 11.063C28.3248 11.4108 30.8186 11.063 32.0359 13.2515Z" fill="white"/>
</g>
<defs>
<clipPath id="clip0_1507_3811">
<rect width="74" height="74" fill="white" transform="translate(0.5)"/>
</clipPath>
</defs>
</svg>
