<?xml version="1.0"?>
<svg xmlns="http://www.w3.org/2000/svg" xmlns:xlink="http://www.w3.org/1999/xlink" viewBox="0 0 1400 1500" version="1.1">
  <g id="g4712" transform="matrix(4.6939272,0,0,4.6939272,-429.82507,-194.98171)">
    <path enable-background="new    " d="m 224.138,172.23 c 1.125,-4.777 1.789,-9.743 1.789,-14.877 0,-34.564 -27.08,-62.685 -60.366,-62.685 -33.291,0 -60.374,28.121 -60.374,62.685 0,34.567 27.083,62.691 60.374,62.691 5.662,0 11.12,-0.873 16.319,-2.392 8.281,-19.674 23.349,-35.773 42.258,-45.422 z" id="path4682" style="fill:#ffffff"/>
    <path enable-background="new    " d="m 165.561,90.186 c -35.818,0 -64.853,30.071 -64.853,67.167 0,37.098 29.035,67.169 64.853,67.169 4.939,0 9.729,-0.623 14.352,-1.705 0.609,-1.744 1.254,-3.471 1.967,-5.165 -5.199,1.519 -10.657,2.392 -16.319,2.392 -33.291,0 -60.374,-28.124 -60.374,-62.691 0,-34.564 27.083,-62.685 60.374,-62.685 33.286,0 60.366,28.121 60.366,62.685 0,5.134 -0.664,10.1 -1.789,14.877 1.675,-0.856 3.377,-1.669 5.111,-2.421 0.733,-4.038 1.157,-8.194 1.157,-12.456 0.001,-37.096 -29.027,-67.167 -64.845,-67.167 z" id="path4684" style="fill:#ffffff"/>
    <path d="m 165.561,85.703 c -38.23,0 -69.333,32.143 -69.333,71.65 0,39.506 31.102,71.648 69.333,71.648 4.375,0 8.64,-0.469 12.792,-1.273 0.476,-1.656 0.992,-3.295 1.559,-4.91 0.609,-1.744 1.254,-3.471 1.967,-5.165 -5.199,1.519 -10.657,2.392 -16.319,2.392 -33.291,0 -60.374,-28.124 -60.374,-62.691 0,-34.564 27.083,-62.685 60.374,-62.685 33.286,0 60.366,28.121 60.366,62.685 0,5.134 -0.664,10.1 -1.789,14.877 1.675,-0.856 3.377,-1.669 5.111,-2.421 1.579,-0.684 3.177,-1.338 4.803,-1.935 0.493,-3.442 0.833,-6.936 0.833,-10.521 0.002,-39.508 -31.097,-71.651 -69.323,-71.651 z" id="path4686" style="fill:#1d71b8"/>
    <g id="g4696">
      <path d="m 186.471,73.18 c -1.29,1.206 -15.813,11.259 -12.819,14.54 2.989,3.283 -15.771,6.132 -12.517,0.136 3.254,-6 26.623,-15.889 25.336,-14.676 z" id="path4688" style="fill:#1d71b8"/>
      <path d="m 127.667,73.753 c 16.86,-1.65 21.356,12.938 24.296,16.958 0.275,0.094 0.616,0.149 0.998,0.152 4.246,0.084 20.403,2.593 20.403,2.593 0,0 -10.433,-9.636 -19.126,-14.413 -0.278,-0.149 -13.084,-7.565 -26.023,-5.637 -1.914,0.224 -0.548,0.347 -0.548,0.347 z" id="path4690" style="fill:#1d71b8"/>
      <path d="m 118.708,83.879 c 16.504,-3.51 22.964,7.943 26.432,11.6 0.289,0.068 4.362,-1.883 4.745,-1.9 7.989,-0.362 2.064,-0.479 20.604,0.309 -13.873,-9.989 -14.78,-3.679 -24.692,-7.708 -0.298,-0.12 -14.021,-6.058 -26.597,-2.703 -1.867,0.434 -0.492,0.402 -0.492,0.402 z" id="path4692" style="fill:#1d71b8"/>
      <path d="m 203.192,82.384 c -16.507,-3.51 -22.966,7.944 -26.435,11.6 -0.285,0.068 -4.363,-1.883 -4.745,-1.899 -7.986,-0.363 -2.065,-0.48 -20.602,0.308 13.866,-9.989 14.777,-3.679 24.692,-7.708 0.292,-0.12 14.019,-6.055 26.594,-2.703 1.867,0.435 0.496,0.402 0.496,0.402 z" id="path4694" style="fill:#1d71b8"/>
    </g>
    <g id="g4702">
      <path d="m 122.779,159.373 c 0,0 17.82,43.843 45.435,43.555 37.636,-0.402 47.328,-63.196 29.32,-48.68 -43.945,35.429 -74.755,5.125 -74.755,5.125 z" id="path4698" style="fill:#1d71b8"/>
      <path d="m 192.036,188.747 c -1.4,-5.303 -9.347,-8.269 -18.909,-6.861 -2.152,0.314 -1.297,1.467 -3.203,1.782 -1.387,0.23 -1.811,-0.813 -3.344,-0.774 -9.416,0.252 -16.632,6.894 -15.472,12.184 0.029,0.146 0.65,0.926 1.707,1.581 4.878,3.063 11.898,4.938 18.103,4.324 9.845,-0.974 16.124,-5.672 21.118,-12.236 z" id="path4700" style="opacity:0.81000001;fill:#ffffff"/>
    </g>
    <ellipse cx="149.133" cy="139.591" rx="5.533" ry="6.638" id="ellipse4704" style="fill:#1d71b8"/>
    <path d="m 182.319,135.164 c 0,3.665 -2.477,6.638 -5.53,6.638 -3.06,0 -5.536,-2.973 -5.536,-6.638 0,-3.666 2.477,-6.639 5.536,-6.639 3.054,0 5.53,2.973 5.53,6.639 z" id="path4706" style="fill:#1d71b8"/>
    <path d="m 153.56,130.14 c 0,0 -5.345,4.382 -4.132,7.711 1.212,3.329 5.432,-5.883 5.432,-5.883" id="path4708" style="fill:#ffffff"/>
    <path d="m 181.133,125.346 c 0,0 -5.419,3.692 -4.68,7.144 0.739,3.452 5.666,-5.173 5.666,-5.173" id="path4710" style="fill:#ffffff"/>
  </g>
  <g id="g4718" transform="matrix(4.6939272,0,0,4.6939272,-429.82507,-194.98171)">
    <path enable-background="new    " d="m 371.529,129.452 c 0,-9.063 -1.649,-18.271 -5.131,-27.21 -15.051,-38.628 -58.729,-57.817 -97.365,-42.771 -38.631,15.045 -57.819,58.73 -42.771,97.361 1.653,4.246 3.705,8.256 6.036,12.061 9.227,-3.183 19.123,-4.937 29.433,-4.937 27.783,0 52.624,12.563 69.176,32.308 25.344,-13.112 40.622,-39.262 40.622,-66.812 z" id="path4714" style="fill:#ffffff"/>
    <path d="M 375.675,98.631 C 358.63,54.881 309.17,33.153 265.42,50.195 221.671,67.24 199.945,116.701 216.987,160.45 c 1.669,4.288 3.738,8.333 6.019,12.229 1.485,-0.707 2.998,-1.367 4.525,-1.993 1.565,-0.642 3.157,-1.235 4.768,-1.792 -2.331,-3.805 -4.383,-7.814 -6.036,-12.061 -15.048,-38.631 4.139,-82.316 42.771,-97.361 38.635,-15.046 82.313,4.142 97.365,42.771 3.481,8.939 5.131,18.147 5.131,27.21 0,27.55 -15.278,53.7 -40.622,66.813 1.089,1.303 2.156,2.629 3.173,3.993 0.998,1.336 1.948,2.711 2.875,4.101 37.138,-20.139 54.445,-65.353 38.719,-105.729 z" id="path4716" style="fill:#7a9e1a"/>
  </g>
  <g id="g4724" transform="matrix(4.6939272,0,0,4.6939272,-429.82507,-194.98171)">
    <path d="m 290.735,99.238 c -0.268,4.798 -3.485,8.54 -7.176,8.334 -3.706,-0.202 -6.484,-4.273 -6.217,-9.071 0.267,-4.817 3.47,-8.542 7.169,-8.335 3.696,0.202 6.484,4.262 6.224,9.072 z" id="path4720" style="fill:#7a9e1a"/>
    <path d="m 322.758,102.671 c -0.264,4.804 -3.479,8.545 -7.179,8.34 -3.692,-0.207 -6.472,-4.271 -6.217,-9.074 0.268,-4.804 3.482,-8.542 7.175,-8.342 3.704,0.205 6.479,4.265 6.221,9.076 z" id="path4722" style="fill:#7a9e1a"/>
  </g>
  <g id="g4730" transform="matrix(4.6939272,0,0,4.6939272,-429.82507,-194.98171)">
    <path d="m 253.699,110.069 c 0,0 -5.642,63.188 28.848,67.553 29.945,3.792 62.536,-27.569 68.765,-47.817 3.287,-10.683 -5.743,-5.432 -5.743,-5.432 0,0 -66.174,28.856 -91.87,-14.304 z" id="path4726" style="fill:#7a9e1a"/>
    <path d="m 320.493,166.369 c 0.389,-7.335 -8.255,-14.239 -20.659,-16.17 -2.784,-0.434 -2.194,1.377 -4.674,1.038 -1.812,-0.25 -1.922,-1.754 -3.834,-2.298 -11.756,-3.355 -22.643,3.141 -23.333,10.365 -0.02,0.198 -0.269,0.632 0.775,1.887 4.81,5.827 12.754,10.961 20.675,12.604 12.579,2.599 22.234,-0.973 31.05,-7.426 z" id="path4728" style="opacity:0.81000001;fill:#ffffff"/>
  </g>
  <path d="m 794.97084,547.55536 c -256.2932,0 -464.81154,208.52315 -464.81154,464.81154 0,236.7945 178.03135,432.6204 407.23107,461.1032 v 0 h 137.88414 l 15.65426,-83.2515 c 0,0 -96.40857,9.0124 -153.5384,0 v 0.01 c -183.53726,-27.8421 -324.66486,-186.6752 -324.66486,-377.887 0,-210.76672 171.47861,-382.23121 382.24999,-382.23121 150.95199,0 281.7012,87.93605 343.8113,215.27283 h 89.884 C 1161.4493,671.38454 992.46308,547.54482 794.97084,547.54482 Z" id="path4732" style="fill:#575757;stroke-width:4.69392681"/>
  <path stroke-miterlimit="50" d="M 461.11991,913.32496" id="path4734" style="fill:#ffffff;stroke:#7a9e1a;stroke-width:9.95065594;stroke-linecap:square;stroke-miterlimit:50"/>
  <g id="g4744" transform="matrix(4.6939272,0,0,4.6939272,-429.82507,-194.98171)">
    <path d="m 168.365,282.693 c -4.363,0 -9.909,-0.805 -14.08,-7.064 -2.38,-3.588 -1.66,-7.676 -1.183,-10.379 0.126,-0.703 0.294,-1.66 0.269,-1.98 -0.097,-1.279 -1.403,-3.441 -2.359,-5.018 -1.212,-1.996 -2.256,-3.723 -2.402,-5.52 -0.208,-2.709 1.274,-5.008 2.58,-7.035 0.482,-0.752 1.209,-1.887 1.306,-2.322 -0.039,-0.049 -0.337,-0.729 -0.544,-1.225 -0.884,-2.064 -2.221,-5.18 -0.823,-9.303 3.523,-10.436 14.437,-11.271 20.296,-11.719 0.801,-0.059 1.585,-0.088 2.363,-0.088 8.761,0 15.69,3.898 20.053,11.285 1.588,2.668 4.188,24.775 3.789,26.814 -0.055,0.287 -0.081,0.762 -0.14,1.355 -0.266,3.191 -0.712,8.523 -3.321,11.992 -4.651,6.174 -9.883,9.063 -17.487,9.648 l -2.353,0.197 c -2.069,0.185 -4.033,0.362 -5.964,0.362 z" id="path4736" style="fill:#ffffff"/>
    <polygon points="195.416,255.699 194.706,262.67 175.631,259.625 " id="polygon4738" style="fill:#7a9e1a"/>
    <polygon points="192.605,235.785 193.555,242.975 174.189,241.688 " id="polygon4740" style="fill:#7a9e1a"/>
    <path d="m 173.79,224.557 c 7.004,0 13.063,2.854 17.023,9.557 1.007,1.697 3.318,20.633 3.364,24.35 -0.178,1.832 -0.256,8.506 -2.817,11.904 -4.106,5.453 -8.427,7.762 -14.945,8.26 -2.875,0.221 -5.568,0.549 -8.051,0.549 -4.412,0 -8.171,-1.029 -11.147,-5.498 -2.337,-3.518 -0.149,-8.24 -0.337,-10.678 -0.284,-3.738 -4.592,-8.326 -4.764,-10.543 -0.208,-2.709 3.399,-5.957 3.841,-8.465 0.45,-2.541 -3.089,-5.316 -1.5,-10.016 2.544,-7.539 9.817,-8.771 17.24,-9.338 0.706,-0.055 1.403,-0.082 2.093,-0.082 m 0,-7.036 c -0.869,0 -1.743,0.035 -2.632,0.1 -6.197,0.474 -19.1,1.459 -23.369,14.105 -1.743,5.156 -0.181,9.201 0.798,11.506 -0.123,0.195 -0.247,0.387 -0.353,0.553 -1.449,2.248 -3.433,5.324 -3.135,9.211 0.208,2.641 1.517,4.797 2.901,7.082 0.561,0.928 1.572,2.592 1.831,3.402 -0.039,0.309 -0.123,0.785 -0.191,1.156 -0.541,3.057 -1.442,8.176 1.718,12.934 5.156,7.746 12.173,8.641 17.006,8.641 2.094,0 4.219,-0.191 6.274,-0.373 0.759,-0.066 1.53,-0.137 2.314,-0.197 8.597,-0.658 14.774,-4.061 20.028,-11.039 2.965,-3.941 3.633,-9.191 4.022,-13.805 0.039,-0.457 0.064,-0.84 0.1,-1.107 0.499,-2.582 -1.902,-25.234 -4.243,-29.168 -4.951,-8.381 -13.144,-13.001 -23.069,-13.001 z" id="path4742" style="fill:#7a9e1a"/>
  </g>
  <g id="g4754" transform="matrix(4.6939272,0,0,4.6939272,-429.82507,-194.98171)">
    <path d="m 320.466,168.904 c 3.307,-2.529 7.972,-5.128 14.752,-2.804 3.883,1.338 5.698,4.845 6.91,7.168 0.312,0.606 0.739,1.433 0.94,1.66 0.816,0.91 3.06,1.792 4.699,2.434 2.068,0.807 3.864,1.517 5.011,2.787 1.725,1.935 1.938,4.531 2.12,6.816 0.07,0.862 0.181,2.133 0.356,2.519 0.058,0.02 0.674,0.363 1.121,0.615 1.866,1.054 4.681,2.632 6.016,6.567 3.377,9.94 -4.408,16.903 -8.589,20.626 -0.564,0.51 -1.147,0.993 -1.737,1.443 -6.631,5.072 -14.138,6.133 -21.723,3.066 -2.749,-1.1 -17.521,-16.34 -18.398,-18.115 -0.126,-0.246 -0.379,-0.623 -0.681,-1.102 -1.649,-2.577 -4.398,-6.869 -4.43,-11.008 -0.056,-7.374 2.236,-12.585 7.656,-17.434 l 1.669,-1.514 c 1.463,-1.336 2.84,-2.61 4.308,-3.724 z" id="path4746" style="fill:#ffffff"/>
    <polygon points="315.614,205.014 312.114,199.324 328.321,190.583 " id="polygon4748" style="fill:#7a9e1a"/>
    <polygon points="329.274,218.467 324.395,213.576 339.802,203.331 " id="polygon4750" style="fill:#7a9e1a"/>
    <path d="m 350.03,216.068 c -5.302,4.061 -11.545,5.406 -18.422,2.626 -1.757,-0.7 -14.467,-13.704 -16.658,-16.487 -0.921,-1.492 -4.727,-6.59 -4.762,-10.648 -0.048,-6.505 1.889,-10.761 6.538,-14.913 2.048,-1.834 3.893,-3.64 5.782,-5.075 3.338,-2.561 6.772,-3.958 11.622,-2.298 3.798,1.31 4.881,6.155 6.437,7.893 2.386,2.67 8.304,3.646 9.711,5.225 1.73,1.932 0.882,6.482 1.996,8.637 1.135,2.182 5.419,2.23 6.937,6.715 2.45,7.178 -2.354,12.33 -7.643,17.057 -0.501,0.452 -1.019,0.874 -1.538,1.268 m 4.077,5.334 c 0.655,-0.502 1.304,-1.035 1.933,-1.605 4.414,-3.949 13.619,-12.162 9.529,-24.215 -1.666,-4.917 -5.199,-7.069 -7.268,-8.249 -0.025,-0.218 -0.045,-0.438 -0.059,-0.62 -0.2,-2.551 -0.479,-6.022 -2.955,-8.79 -1.686,-1.886 -3.929,-2.761 -6.308,-3.688 -0.953,-0.376 -2.684,-1.05 -3.352,-1.513 -0.149,-0.263 -0.362,-0.668 -0.525,-0.992 -1.361,-2.629 -3.643,-7.027 -8.79,-8.797 -8.395,-2.877 -14.224,0.509 -17.89,3.306 -1.582,1.209 -3.083,2.59 -4.531,3.916 -0.535,0.499 -1.079,0.989 -1.636,1.494 -6.132,5.472 -8.839,11.629 -8.774,19.959 0.039,4.703 2.573,9.066 4.946,12.783 0.241,0.363 0.438,0.675 0.571,0.898 1.115,2.242 16.05,18.008 20.106,19.629 8.604,3.48 17.485,2.228 25.003,-3.516 z" id="path4752" style="fill:#7a9e1a"/>
  </g>
</svg>
