<?xml version="1.0" encoding="UTF-8" standalone="no"?>
<svg
        xmlns:dc="http://purl.org/dc/elements/1.1/"
        xmlns:cc="http://creativecommons.org/ns#"
        xmlns:rdf="http://www.w3.org/1999/02/22-rdf-syntax-ns#"
        xmlns:svg="http://www.w3.org/2000/svg"
        xmlns="http://www.w3.org/2000/svg"
        xmlns:sodipodi="http://sodipodi.sourceforge.net/DTD/sodipodi-0.dtd"
        xmlns:inkscape="http://www.inkscape.org/namespaces/inkscape"
        version="1.1"
        id="svg4565"
        sodipodi:docname="all.svg"
        inkscape:version="0.92.1 r15371"
        width="450"
        height="100">
    <metadata
            id="metadata4569">
    </metadata>
    <sodipodi:namedview
            pagecolor="#08192a"
            bordercolor="#666666"
            borderopacity="1"
            objecttolerance="10"
            gridtolerance="10"
            guidetolerance="10"
            inkscape:pageopacity="0"
            inkscape:pageshadow="2"
            inkscape:window-width="1920"
            inkscape:window-height="1051"
            id="namedview4567"
            showgrid="false"
            inkscape:zoom="1.8879751"
            inkscape:cx="222.62969"
            inkscape:cy="74.247396"
            inkscape:window-x="1366"
            inkscape:window-y="0"
            inkscape:window-maximized="1"
            inkscape:current-layer="svg4565" />
    <defs
            id="defs4553">
        <style
                id="style4551">
            .cls-2,.cls-3{fill:#fff}.cls-3{fill-rule:evenodd}
        </style>
    </defs>
    <path
            d="m 34.814229,48.991006 a 9.7405036,9.7405036 0 0 1 -2.859594,3.797901 11.617115,11.617115 0 0 1 -4.468123,2.189382 20.508676,20.508676 0 0 1 -5.361744,0.670218 H 14.126829 V 68.829465 H 6.7544296 V 31.610017 H 23.018391 a 17.872484,17.872484 0 0 1 4.914934,0.714896 11.795839,11.795839 0 0 1 4.11067,2.234062 10.321359,10.321359 0 0 1 2.770234,3.663859 12.466057,12.466057 0 0 1 0.982988,5.183019 14.029901,14.029901 0 0 1 -0.982988,5.585153 m -8.13198,-8.936242 a 6.3000509,6.3000509 0 0 0 -3.976626,-1.161711 h -8.578794 v 9.472418 h 8.936242 c 3.529818,0 5.317063,-1.608524 5.317063,-4.780892 a 4.1106715,4.1106715 0 0 0 -1.474479,-3.529815"
            class="cls-2"
            id="path4557"
            inkscape:connector-curvature="0"
            style="fill:#ffffff;stroke-width:4.46812057" />
    <path
            d="M 59.374211,54.248703 V 64.346658 H 52.091175 V 54.248703 h -9.740506 v -6.925587 h 9.740506 V 37.225162 h 7.283036 v 10.097954 h 9.695823 v 6.925587 z"
            class="cls-2"
            id="path4559"
            inkscape:connector-curvature="0"
            style="fill:#ffffff;stroke-width:4.46812057" />
    <path
            d="M 6.7544296,26.069546 H 114.88295 a 9.7405036,9.7405036 0 0 0 -8.35539,-9.47242 H 14.975772 a 9.5170983,9.5170983 0 0 0 -8.3553862,9.47242 M 6.7544136,74.369935 H 114.83826 a 9.7405036,9.7405036 0 0 1 -8.35538,9.517094 H 14.975772 A 9.5170983,9.5170983 0 0 1 6.6203858,74.369935"
            class="cls-3"
            id="path4561"
            inkscape:connector-curvature="0"
            style="fill:#ffffff;fill-rule:evenodd;stroke-width:4.46812057" />
    <path
            d="m 107.28716,42.065416 -9.963915,26.80873 h -3.306412 l -9.963908,-26.80873 v 26.80873 H 76.546483 V 31.610017 h 10.544763 l 8.578799,23.323587 8.668155,-23.323587 h 10.63412 v 37.264129 h -7.59581 z"
            class="cls-2"
            id="path4563"
            inkscape:connector-curvature="0"
            style="fill:#ffffff;stroke-width:4.46812057" />
    <text
            xml:space="preserve"
            style="font-style:normal;font-weight:normal;font-size:47.53472519px;line-height:1.25;font-family:sans-serif;letter-spacing:0px;word-spacing:0px;fill:#000000;fill-opacity:1;stroke:none;stroke-width:1.1883682"
            x="130.08864"
            y="68.303574"
            id="text4589"><tspan
       sodipodi:role="line"
       id="tspan4587"
       x="130.08864"
       y="68.303574"
       style="font-style:normal;font-variant:normal;font-weight:normal;font-stretch:normal;font-family:sans-serif;-inkscape-font-specification:'sans-serif, Normal';stroke-width:1.1883682;font-size:47.53466797px;text-anchor:start;text-align:start;writing-mode:lr;font-variant-ligatures:normal;font-variant-caps:normal;font-variant-numeric:normal;font-feature-settings:normal"><tspan
         style="font-style:normal;font-variant:normal;font-weight:normal;font-stretch:normal;font-family:sans-serif;-inkscape-font-specification:'sans-serif, Normal';fill:#fefefe;fill-opacity:1;stroke-width:1.1883682;font-size:47.53466797px;text-anchor:start;text-align:start;writing-mode:lr;font-variant-ligatures:normal;font-variant-caps:normal;font-variant-numeric:normal;font-feature-settings:normal"
         id="tspan4591">Mitfahren</tspan><tspan
            id="tspan4597"
            style="font-style:normal;font-variant:normal;font-weight:normal;font-stretch:normal;font-family:sans-serif;-inkscape-font-specification:'sans-serif, Normal';fill:#9fdeea;fill-opacity:1;stroke-width:1.1883682;font-size:47.53466797px;text-anchor:start;text-align:start;writing-mode:lr;font-variant-ligatures:normal;font-variant-caps:normal;font-variant-numeric:normal;font-feature-settings:normal">-BW</tspan></tspan></text>
</svg>
