<?xml version="1.0"?>
<svg xmlns="http://www.w3.org/2000/svg" xmlns:xlink="http://www.w3.org/1999/xlink" viewBox="0 0 21 24" fill="none">
    <path fill-rule="evenodd" clip-rule="evenodd" d="M18.2753 20.0941C19.2891 20.0941 20.1109 20.8938 20.1109 21.8802C20.1109 22.8666 19.2891 23.6663 18.2753 23.6663C17.2615 23.6663 16.4396 22.8666 16.4396 21.8802C16.4396 20.8938 17.2615 20.0941 18.2753 20.0941ZM2.62537 21.1965C3.01334 20.2852 4.08714 19.8524 5.02378 20.2299C5.96042 20.6074 6.40521 21.6522 6.01724 22.5635C5.62927 23.4749 4.55546 23.9077 3.61882 23.5302C2.68219 23.1527 2.2374 22.1079 2.62537 21.1965ZM10.3546 5.62635L10.5002 5.63047C11.225 5.67191 11.8971 6.02359 12.3321 6.59522L13.435 8.04221L15.472 7.15021C15.9303 6.94662 16.4723 7.0776 16.7795 7.46615H18.9084C19.1435 7.47749 19.3282 7.66626 19.3282 7.8953C19.3282 8.12433 19.1435 8.31311 18.9084 8.32444H17.6562L18.7093 18.6218C18.7226 18.742 18.6833 18.862 18.6011 18.9525C18.5168 19.0411 18.3982 19.0912 18.2742 19.0905C16.6938 19.0922 15.4132 20.3383 15.4114 21.876C15.4114 22.1133 15.2137 22.3057 14.9698 22.3057H7.62602C7.38255 22.3051 7.1855 22.1129 7.1855 21.876C7.18312 20.3382 5.90213 19.0922 4.3216 19.0905C4.0865 19.0792 3.90186 18.8904 3.90186 18.6613C3.90186 18.4323 4.0865 18.2435 4.3216 18.2322C5.90471 18.235 7.3158 19.204 7.84898 20.6544H14.7479C15.2216 19.3644 16.3969 18.4404 17.7925 18.2606L16.8087 8.71515C16.6974 8.87013 16.5452 8.99308 16.3682 9.0711L12.7304 10.6676L11.5246 9.08795L10.5678 11.8903L6.85322 10.6897L8.02324 7.265C8.35657 6.28725 9.2959 5.62703 10.3546 5.62635ZM6.6519 11.2742L10.3719 12.4769L12.7163 14.9549L11.5149 19.992H8.87397L9.85783 15.671L8.06762 13.7838L6.24602 16.4324H0.666504V14.0092H4.77402L6.64974 11.2795L6.6519 11.2742ZM11.4138 0.363969C12.7307 0.15599 13.9717 1.02616 14.1854 2.30756C14.3992 3.58897 13.5049 4.79638 12.1879 5.0044C10.8709 5.21238 9.63001 4.34222 9.41621 3.06081C9.20246 1.7794 10.0968 0.571994 11.4138 0.363969Z" fill="#333333"/>
</svg>