<?xml version="1.0" encoding="iso-8859-1"?>
<!-- Generator: Adobe Illustrator 28.1.0, SVG Export Plug-In . SVG Version: 6.00 Build 0)  -->
<svg version="1.1" id="Ebene_1" xmlns="http://www.w3.org/2000/svg" xmlns:xlink="http://www.w3.org/1999/xlink" x="0px" y="0px"
	 viewBox="0 0 155.906 155.906" style="enable-background:new 0 0 155.906 155.906;" xml:space="preserve">
<path style="fill:#FFCC00;" d="M139.85,92.746h-9.262l-0.051-0.485c-0.987-9.35-9.265-14.697-19.256-14.697
	c-3.066,0-6.232,0.817-8.948,2.133l-0.161,0.076c-1.124,0.535-2.079,1.093-3.092,1.869c-0.035,0.03-0.066,0.055-0.096,0.081
	c-3.978,3.072-6.451,5.714-6.96,10.538l-0.051,0.485h-9.345V55.345c0-0.661,0.536-1.197,1.197-1.197l54.822-0.016
	c0.665,0,1.205,0.539,1.205,1.204V92.746z"/>
<g>
	<path style="fill:#0070AE;" d="M119.172,94.621c-0.05-0.106-0.1-0.21-0.153-0.314c-0.049-0.094-0.1-0.186-0.152-0.278l-0.053-0.097
		c-0.973-1.668-2.495-2.983-4.286-3.704l-0.38-0.14c-0.118-0.04-0.235-0.078-0.353-0.113c-0.802-0.236-1.633-0.356-2.47-0.356
		c-0.651,0-1.302,0.073-1.936,0.217l-0.22,0.053c-1.384,0.352-2.672,1.053-3.725,2.028l-0.154,0.152
		c-0.808,0.785-1.447,1.704-1.898,2.733l-0.038,0.088l-0.317,0.874c-0.51,1.758-0.474,3.646,0.1,5.323l0.272,0.694l0.098,0.214
		c0.94,1.919,2.51,3.424,4.423,4.241c0.149,0.063,0.256,0.106,0.37,0.147l0.794,0.255c0.725,0.189,1.467,0.284,2.212,0.284
		c1.178,0,2.367-0.242,3.44-0.7l0.368-0.17c0.106-0.052,0.212-0.106,0.317-0.163c1.312-0.716,2.425-1.759,3.219-3.016l0.122-0.2
		c0.729-1.228,1.143-2.635,1.199-4.069l0.001-0.214c0.019-1.268-0.247-2.548-0.769-3.701L119.172,94.621z M116.207,98.271
		c0,2.694-2.191,4.886-4.885,4.886c-2.694,0-4.886-2.192-4.886-4.886c0-2.694,2.192-4.886,4.886-4.886
		C114.016,93.385,116.207,95.577,116.207,98.271z"/>
	<path style="fill:#0070AE;" d="M147.156,97.68V48.608c0-0.089-0.009-0.185-0.026-0.292l-0.007-0.052
		c-0.059-0.307-0.178-0.571-0.364-0.811c-0.32-0.376-0.692-0.607-1.108-0.693c-0.175-0.028-0.277-0.038-0.38-0.038H79.094V37.32
		c0-1.04-0.846-1.886-1.886-1.886H64.522c-4.151,0-7.529,3.379-7.529,7.533c0,4.152,3.377,7.529,7.529,7.529h1.129
		c1.04,0,1.886-0.846,1.886-1.886c0-1.04-0.846-1.886-1.886-1.886h-1.129c-2.071,0-3.756-1.685-3.756-3.756
		c0-2.073,1.685-3.76,3.756-3.76h10.799v57.178h-2.532l-0.019-0.038l-0.392-1.017c-0.041-0.095-0.08-0.18-0.12-0.265
		c-0.189-0.395-0.385-0.737-0.619-1.075l-0.139-0.187c-0.075-0.102-0.137-0.186-0.203-0.268c-0.043-0.054-0.091-0.107-0.139-0.159
		l-0.066-0.076c-0.058-0.067-0.112-0.129-0.168-0.189c-0.051-0.053-0.103-0.105-0.155-0.156l-0.24-0.232
		c-0.092-0.084-0.179-0.158-0.26-0.226l-0.17-0.139c-0.088-0.07-0.182-0.139-0.288-0.215l-0.163-0.114
		c-0.1-0.069-0.202-0.133-0.322-0.205l-0.155-0.091c-0.134-0.077-0.244-0.136-0.35-0.188l-0.104-0.051
		c-0.161-0.077-0.287-0.134-0.422-0.191l-0.064-0.024c-0.713-0.286-1.461-0.459-2.219-0.515l-0.17-0.013L37.505,50.495h5.807
		c1.04,0,1.886-0.846,1.886-1.886c0-1.04-0.846-1.886-1.886-1.886H26.658c-1.04,0-1.887,0.846-1.887,1.886
		c0,1.04,0.846,1.886,1.887,1.886h6.277l8.675,12.345L35.263,76.59l-0.282-0.059c-1.495-0.31-3.022-0.468-4.539-0.468
		c-5.061,0-10.024,1.771-13.976,4.987c-5.217,4.243-8.209,10.52-8.209,17.22c0,12.242,9.96,22.202,22.201,22.202
		c11.462,0,20.96-8.594,22.093-19.99l0.033-0.326h5.57l0.077,0.259c0.728,2.447,2.624,4.343,5.071,5.072l0.259,0.077v4.363h-2.629
		c-1.04,0-1.886,0.846-1.886,1.886c0,1.04,0.846,1.886,1.886,1.886h9.03c1.04,0,1.886-0.846,1.886-1.886
		c0-1.04-0.846-1.886-1.886-1.886h-2.629v-4.363l0.259-0.077c2.443-0.728,4.337-2.624,5.067-5.073l0.077-0.258h16.458l0.033,0.326
		c1.132,11.396,10.63,19.99,22.093,19.99c11.461,0,20.958-8.594,22.091-19.99l0.033-0.326h11.824c1.04,0,1.886-0.846,1.886-1.886
		c0-0.096-0.011-0.189-0.019-0.25l-0.006-0.046l0.006-0.048C147.147,97.855,147.156,97.768,147.156,97.68z M119.408,114.826
		l-0.154,0.077c-0.163,0.078-0.334,0.153-0.499,0.226l-0.709,0.296c-0.21,0.082-0.39,0.151-0.572,0.215l-0.09,0.031
		c-1.983,0.683-4.022,1.029-6.061,1.029c-2.036,0-4.047-0.337-5.976-1.001l-0.185-0.063c-0.191-0.068-0.381-0.141-0.526-0.197
		c-0.122-0.047-0.246-0.095-0.369-0.147l-0.33-0.142c-0.164-0.072-0.361-0.159-0.553-0.251l-0.136-0.066
		c-1.843-0.896-3.51-2.084-4.957-3.531c-1.442-1.442-2.628-3.106-3.526-4.947l-0.075-0.151c-0.089-0.188-0.173-0.376-0.242-0.536
		l-0.293-0.706c-0.057-0.144-0.133-0.339-0.203-0.541l-0.037-0.108c-0.679-1.973-1.023-4.006-1.023-6.043
		c0-2.154,0.375-4.273,1.114-6.295c0.103-0.286,0.185-0.5,0.266-0.696l0.033-0.079c0.926-2.238,2.266-4.243,3.984-5.96
		c1.477-1.478,3.182-2.684,5.068-3.586l0.959-0.428c0.152-0.061,0.305-0.119,0.457-0.177l0.059-0.022
		c2.084-0.783,4.271-1.18,6.501-1.18c2.048,0,4.061,0.337,5.984,1.001l0.152,0.051c0.18,0.063,0.356,0.131,0.566,0.213l0.632,0.261
		c0.23,0.1,0.409,0.18,0.582,0.262l0.115,0.057c1.873,0.915,3.552,2.108,4.99,3.547c1.524,1.523,2.758,3.287,3.666,5.244
		c0.099,0.214,0.204,0.443,0.302,0.675l0.033,0.082c0.927,2.237,1.396,4.602,1.396,7.03c0,2.09-0.353,4.148-1.048,6.117
		c-0.092,0.262-0.188,0.516-0.305,0.801l-0.074,0.187c-0.061,0.146-0.13,0.299-0.198,0.448l-0.029,0.064
		c-0.924,2.032-2.184,3.854-3.745,5.415C122.909,112.746,121.245,113.931,119.408,114.826z M108.073,76.296
		c-2.255,0.316-4.57,1.066-6.88,2.227l-0.181,0.091c-1.241,0.628-2.482,1.443-3.688,2.425l-0.072,0.064l-0.049,0.044
		c-4.557,3.739-7.39,9.035-7.974,14.911l-0.033,0.326H79.094v-45.87l63.371-0.019c0.506,0,0.918,0.412,0.918,0.918v44.971h-9.938
		l-0.033-0.326c-1.132-11.396-10.629-19.99-22.091-19.99C110.247,76.068,109.154,76.145,108.073,76.296z M143.483,96.103l0,0.331h0
		V96.103z M75.371,39.106L75.371,39.106l-0.04,0L75.371,39.106z M75.421,96.434L75.421,96.434l0-0.141L75.421,96.434z
		 M38.806,77.801l0.009,0.004l-0.009-0.003L38.806,77.801z M61.376,91.946c-0.113,0.073-0.182,0.118-0.248,0.165l-0.627,0.496
		c-0.115,0.101-0.201,0.179-0.279,0.255c-0.078,0.076-0.172,0.167-0.263,0.262l-0.137,0.157c-0.079,0.088-0.147,0.165-0.21,0.242
		l-0.089,0.116c-0.12,0.157-0.177,0.231-0.232,0.311l-0.091,0.136c-0.086,0.129-0.143,0.219-0.199,0.31l-0.103,0.179
		c-0.056,0.099-0.108,0.195-0.157,0.291l-0.089,0.181c-0.047,0.098-0.093,0.201-0.141,0.315l-0.044,0.107
		c-0.099,0.247-0.173,0.455-0.233,0.656l-0.077,0.257h-5.57l-0.033-0.326c-0.796-8.01-5.9-14.976-13.319-18.18l-0.34-0.147
		l5.225-11.322l17.739,25.238L61.376,91.946z M33.118,90.126l0.023,0.009l-0.024-0.006L33.118,90.126z M30.46,103.156
		c-2.693,0-4.885-2.192-4.885-4.886c0-2.694,2.191-4.886,4.885-4.886c2.694,0,4.886,2.192,4.886,4.886
		C35.346,100.964,33.154,103.156,30.46,103.156z M38.917,96.385l-0.07-0.271c-0.696-2.702-2.67-4.915-5.281-5.922l-0.36-0.139
		l4.104-8.895l0.323,0.137c6.042,2.563,10.299,8.189,11.109,14.684l0.05,0.407H38.917z M29.211,89.702l-0.189,0.032
		c-4.184,0.702-7.221,4.293-7.221,8.537c0,4.774,3.884,8.658,8.658,8.658c3.952,0,7.401-2.673,8.387-6.501l0.07-0.271h9.876
		l-0.051,0.406c-1.149,9.2-9.008,16.137-18.282,16.137c-10.162,0-18.429-8.268-18.429-18.43c0-5.354,2.328-10.435,6.387-13.939
		c3.352-2.894,7.634-4.488,12.055-4.488c0.895,0,1.799,0.066,2.686,0.197l0.478,0.071L29.211,89.702z M47.845,100.057l1.01-0.006
		l-0.001,0.006H47.845z M48.899,96.435l-0.006-0.052l0.013,0.052H48.899z M33.733,80.024l-0.116-0.017l0.122,0.004L33.733,80.024z
		 M69.206,98.271c0,2.072-1.685,3.757-3.757,3.757c-2.072,0-3.757-1.685-3.757-3.757c0-2.067,1.682-3.753,3.749-3.757
		C67.517,94.518,69.206,96.203,69.206,98.271z M61.971,91.634l-0.867-1.233l0.869,1.232L61.971,91.634z M63.662,109.961l0,0.017h0
		V109.961z M79.289,46.822l-0.245,0v0H79.289z M47.752,65.227L37.312,50.445h0.035L47.752,65.227z"/>
</g>
</svg>
