<?xml version="1.0" encoding="UTF-8" standalone="no"?>
<svg
   width="370pt"
   height="370pt"
   viewBox="0 0 369.99999 370"
   version="1.2"
   id="svg418"
   sodipodi:docname="carvelo2go.svg"
   inkscape:version="1.2.1 (9c6d41e410, 2022-07-14)"
   xmlns:inkscape="http://www.inkscape.org/namespaces/inkscape"
   xmlns:sodipodi="http://sodipodi.sourceforge.net/DTD/sodipodi-0.dtd"
   xmlns="http://www.w3.org/2000/svg"
   xmlns:svg="http://www.w3.org/2000/svg">
  <sodipodi:namedview
     id="namedview217"
     pagecolor="#ffffff"
     bordercolor="#000000"
     borderopacity="0.25"
     inkscape:showpageshadow="2"
     inkscape:pageopacity="0.0"
     inkscape:pagecheckerboard="0"
     inkscape:deskcolor="#d1d1d1"
     inkscape:document-units="pt"
     showgrid="false"
     inkscape:zoom="1.7191011"
     inkscape:cx="335.05883"
     inkscape:cy="290.84968"
     inkscape:window-width="1920"
     inkscape:window-height="1017"
     inkscape:window-x="-8"
     inkscape:window-y="-8"
     inkscape:window-maximized="1"
     inkscape:current-layer="surface32653" />
  <defs
     id="defs343">
    <rect
       x="-8.7254906"
       y="162.29411"
       width="493.28104"
       height="78.529411"
       id="rect3515" />
    <clipPath
       id="clip1">
      <path
         d="m 199,198 h 11 v 17.94141 h -11 z m 0,0"
         id="path334" />
    </clipPath>
    <clipPath
       id="clip2">
      <path
         d="m 382,198 h 11 v 17.94141 h -11 z m 0,0"
         id="path337" />
    </clipPath>
    <clipPath
       id="clip3">
      <path
         d="m 269,0.554688 h 89 V 98 h -89 z m 0,0"
         id="path340" />
    </clipPath>
  </defs>
  <g
     id="surface32653"
     transform="translate(14.397058,39.59758)">
    <rect
       style="fill:#ffffff;fill-rule:evenodd;stroke-width:1.27113"
       id="rect300"
       width="370"
       height="370"
       x="-14.397058"
       y="-39.59758" />
    <path
       style="fill:#ff605f;fill-opacity:1;fill-rule:nonzero;stroke:none"
       d="m 18.976562,123.60547 c 6.933594,0 12.761719,2.91406 16.304688,8.58203 l -2.601562,1.57422 c -3.308594,-5.03906 -7.953126,-7.32031 -13.542969,-7.32031 -9.136719,0 -15.988281,7.08593 -15.988281,18.5039 0,11.42188 6.851562,18.50781 15.988281,18.50781 5.589843,0 10.234375,-2.28515 13.542969,-7.32421 l 2.601562,1.57421 c -3.542969,5.67188 -9.371094,8.58594 -16.304688,8.58594 C 8.03125,166.28906 0,157.70312 0,144.94531 0,132.1875 8.03125,123.60547 18.976562,123.60547"
       id="path345" />
    <path
       style="fill:#ff605f;fill-opacity:1;fill-rule:nonzero;stroke:none"
       d="m 60.953125,153.29687 c 0,6.30079 4.964844,10.15625 12.207031,10.15625 5.359375,0 10.160156,-2.04687 14.179688,-5.75 v -9.05468 c -4.097656,-3.625 -8.820313,-5.4336 -14.179688,-5.4336 -7.242187,0 -12.207031,3.77735 -12.207031,10.08203 z m 11.738281,-12.91796 c 6.140625,0 11.023438,2.04687 14.648438,5.11718 v -7.00781 c 0,-8.34766 -4.019532,-12.04687 -12.683594,-12.04687 -4.566406,0 -8.660156,1.57421 -12.441406,4.72265 l -2.125,-2.125 c 4.566406,-3.78125 9.84375,-5.43359 15.121094,-5.43359 9.527343,0 15.277343,4.41015 15.277343,14.17578 v 27.5625 h -3.148437 v -4.64844 c -3.390625,3.23047 -8.429688,5.59375 -14.648438,5.59375 -8.820312,0 -15.042968,-5.27734 -15.042968,-12.99219 0,-7.64062 6.222656,-12.91796 15.042968,-12.91796"
       id="path347" />
    <path
       style="fill:#ff605f;fill-opacity:1;fill-rule:nonzero;stroke:none"
       d="m 121.125,134.23828 v 31.10547 h -3.14844 v -40.79297 h 3.14844 v 6.14063 c 3.46484,-4.25 7.95312,-7.08594 13.78125,-7.08594 0.78906,0 2.125,0.0781 2.83594,0.15625 v 2.91406 c -1.10157,-0.15625 -2.20703,-0.23437 -3.38672,-0.23437 -5.4336,0 -10.23828,3.54296 -13.23047,7.79687"
       id="path349" />
    <path
       style="fill:#ff605f;fill-opacity:1;fill-rule:nonzero;stroke:none"
       d="m 187.61719,124.07813 h 3.46093 l -17.08984,40.79296 h -3.62109 l -15.82813,-40.79296 h 3.46485 l 14.17578,37.09374 15.4375,-37.09374"
       id="path351" />
    <path
       style="fill:#ff605f;fill-opacity:1;fill-rule:nonzero;stroke:none"
       d="m 243.34375,142.89844 c -0.31641,-10.07813 -6.77344,-16.9336 -15.27734,-16.9336 -8.42969,0 -14.72657,6.9336 -15.19922,16.9336 z m -33.70703,1.49609 c 0,-12.36719 7.79687,-21.26172 18.42969,-21.26172 10.55078,0 18.5039,8.58203 18.5039,20.86719 0,0.23828 0,1.26172 -0.0781,1.73437 h -33.70703 c 0.47656,9.3711 6.46093,17.2461 16.30468,17.2461 5.35547,0 9.83985,-2.20313 12.99219,-6.37891 l 2.51953,1.73438 c -3.625,4.80468 -8.89844,7.48047 -15.35547,7.48047 -12.51953,0 -19.60937,-10.23829 -19.60937,-21.42188"
       id="path353" />
    <path
       style="fill:#ff605f;fill-opacity:1;fill-rule:nonzero;stroke:none"
       d="m 336.44531,144.47266 c 0,-11.02344 -6.77344,-18.50782 -15.67187,-18.50782 -8.89844,0 -15.67188,7.48438 -15.67188,18.50782 0,11.02734 6.77344,18.50781 15.67188,18.50781 8.89843,0 15.67187,-7.48047 15.67187,-18.50781 z m -34.49219,0 c 0,-12.36329 7.875,-21.33985 18.82032,-21.33985 10.94531,0 18.82422,8.97656 18.82422,21.33985 0,12.4414 -7.87891,21.34375 -18.82422,21.34375 -10.94532,0 -18.82032,-8.90235 -18.82032,-21.34375"
       id="path355" />
    <path
       style="fill:#ff605f;fill-opacity:1;fill-rule:nonzero;stroke:none"
       d="m 271.72266,154.55469 v -30.47656 h 3.23437 v 30.24999 c 0,6.47657 2.93359,8.71094 8.10156,8.71094 1.07032,0 2.39063,-0.0781 3.3125,-0.15234 v 2.77734 c -0.84375,0.0742 -2.24218,0.15235 -3.23437,0.15235 -6.8711,0 -11.41406,-2.85547 -11.41406,-11.26172"
       id="path357" />
    <text
       xml:space="preserve"
       transform="scale(0.75)"
       id="text3513"
       style="font-style:normal;font-variant:normal;font-weight:normal;font-stretch:normal;font-size:29.3333px;line-height:1.13;font-family:sans-serif;-inkscape-font-specification:sans-serif;white-space:pre;shape-inside:url(#rect3515);display:inline;fill:#000000;fill-opacity:1;stroke:none;stroke-width:0.191;stroke-opacity:1;paint-order:stroke markers fill" />
  </g>
</svg>
