<?xml version="1.0" encoding="iso-8859-1"?>
<!-- Generator: Adobe Illustrator 28.1.0, SVG Export Plug-In . SVG Version: 6.00 Build 0)  -->
<svg version="1.1" id="Ebene_1" xmlns="http://www.w3.org/2000/svg" xmlns:xlink="http://www.w3.org/1999/xlink" x="0px" y="0px"
	 viewBox="0 0 155.906 155.906" style="enable-background:new 0 0 155.906 155.906;" xml:space="preserve">
<path style="fill-rule:evenodd;clip-rule:evenodd;fill:#FFCC00;" d="M40.394,80.787c14.481,0,26.22-11.738,26.22-26.224
	c0-14.479-11.739-26.217-26.22-26.217c-14.48,0-26.221,11.738-26.221,26.217C14.173,69.049,25.914,80.787,40.394,80.787
	L40.394,80.787z M40.394,80.787"/>
<path style="fill:#0070AE;" d="M55.02,47.656c-1.563,0-3.001,0.528-4.16,1.405l-10.44-6.481c0.162-0.587,0.256-1.201,0.256-1.839
	c0-3.809-3.101-6.908-6.913-6.908c-3.81,0-6.909,3.099-6.909,6.908c0,3.813,3.099,6.914,6.909,6.914
	c1.766,0,3.374-0.671,4.597-1.764l10.174,6.316c-0.269,0.737-0.423,1.528-0.423,2.357c0,0.547,0.07,1.076,0.191,1.586l-10.152,6.901
	c-1.194-0.982-2.722-1.573-4.386-1.573c-3.81,0-6.909,3.099-6.909,6.908c0,3.813,3.099,6.914,6.909,6.914
	c3.812,0,6.913-3.101,6.913-6.914c0-0.736-0.119-1.445-0.333-2.111l9.899-6.729c1.242,1.193,2.924,1.932,4.778,1.932
	c3.812,0,6.913-3.101,6.913-6.914C61.934,50.755,58.832,47.656,55.02,47.656z M33.763,43.78c-1.673,0-3.034-1.363-3.034-3.039
	c0-1.672,1.361-3.033,3.034-3.033c1.675,0,3.038,1.361,3.038,3.033C36.801,42.418,35.439,43.78,33.763,43.78z M33.763,71.425
	c-1.673,0-3.034-1.363-3.034-3.039c0-1.672,1.361-3.033,3.034-3.033c1.675,0,3.038,1.361,3.038,3.033
	C36.801,70.063,35.439,71.425,33.763,71.425z M55.02,57.603c-1.673,0-3.034-1.363-3.034-3.039c0-1.672,1.361-3.033,3.034-3.033
	c1.675,0,3.038,1.361,3.038,3.033C58.058,56.24,56.696,57.603,55.02,57.603z"/>
<g>
	<path style="fill:#0070AE;" d="M120.692,85.479c-2.476,0-4.896,0.428-7.203,1.271l-5.424-11.448v-9.233h9.673
		c2.68,0,4.86-2.181,4.86-4.86c0-1.077-0.877-1.953-1.954-1.953s-1.953,0.876-1.953,1.953c0,0.525-0.428,0.953-0.953,0.953h-11.627
		c-1.077,0-1.953,0.876-1.953,1.953v10.681l-12.479,9.857c-0.678,0.537-1.527,0.832-2.392,0.832h-5.465L78.81,74.906
		c-0.462-0.975-1.633-1.389-2.602-0.93c-0.973,0.461-1.39,1.628-0.93,2.602l13.26,27.988H83.51
		C82.515,93.825,73.403,85.478,62.56,85.478c-11.602,0-21.041,9.438-21.041,21.04s9.439,21.04,21.041,21.04
		c8.643,0,16.278-5.197,19.484-13.091l0.001,0c0.012-0.028,0.019-0.058,0.031-0.086c0.191-0.476,0.371-0.959,0.529-1.455
		c0.01-0.032,0.012-0.065,0.021-0.097c0.44-1.396,0.742-2.852,0.882-4.356h8.118c0.753,0,1.446-0.44,1.768-1.122l12.725-27.035
		l3.843,8.112c-6.371,3.793-10.309,10.682-10.309,18.091c0,11.602,9.438,21.04,21.04,21.04s21.04-9.438,21.04-21.04
		S132.294,85.479,120.692,85.479z M78.878,111.755c-0.022,0.069-0.051,0.134-0.073,0.202c-0.152,0.453-0.32,0.899-0.509,1.335
		c-2.682,6.257-8.807,10.36-15.735,10.36c-9.447,0-17.134-7.687-17.134-17.134s7.687-17.133,17.134-17.133
		c8.671,0,16.044,6.625,17.021,15.181H62.56c-1.077,0-1.954,0.876-1.954,1.953s0.877,1.954,1.954,1.954h11.146h4.246h1.627
		C79.451,109.603,79.217,110.702,78.878,111.755z M91.62,101.944l-5.946-12.553h3.613c1.739,0,3.449-0.594,4.814-1.672l6.708-5.3
		L91.62,101.944z M120.692,123.653c-9.447,0-17.134-7.687-17.134-17.134c0-5.896,3.084-11.418,8.083-14.541l0.823,1.735l1.692,3.572
		l4.771,10.069c0.444,0.938,1.634,1.383,2.602,0.93c0.472-0.223,0.827-0.617,1.003-1.108s0.148-1.021-0.074-1.493L115.17,90.3
		c1.775-0.606,3.63-0.914,5.522-0.914c9.447,0,17.134,7.686,17.134,17.133S130.139,123.653,120.692,123.653z"/>
	<path style="fill:#0070AE;" d="M72.11,71.881h17.12c1.077,0,1.954-0.876,1.954-1.953v-2.906c0-2.68-2.181-4.86-4.86-4.86H72.11
		c-2.68,0-4.86,2.181-4.86,4.86S69.431,71.881,72.11,71.881z M72.11,66.069h14.214c0.525,0,0.953,0.428,0.953,0.953v0.953H72.11
		c-0.525,0-0.953-0.428-0.953-0.953S71.585,66.069,72.11,66.069z"/>
</g>
</svg>
