<?xml version="1.0"?>
<svg xmlns="http://www.w3.org/2000/svg" xmlns:xlink="http://www.w3.org/1999/xlink" viewBox="0 0 16 22" version="1.1">
  <g transform="translate(0.8 0.8)" id="g64">
    <g id="g60">
      <circle style="fill:var(--operatorbg, #f1b736);stroke:#fff;stroke-width:.8" cx="7.2" cy="7.2" r="7.6" id="circle53"/>
      <g transform="scale(0.45)">
        <path style="fill:var(--operatorfg,#fff)" d="m 306.79,379.63 a 1.54,1.54 0 0 0 -0.3,0 l -1,0.29 -1.1,-2.67 a 2.53,2.53 0 0 0 -2.16,-1.45 h -0.73 v -2.21 a 0.71,0.71 0 0 0 -0.71,-0.71 h -7.47 a 0.71,0.71 0 0 0 -0.71,0.71 v 2.21 h -0.74 a 2.51,2.51 0 0 0 -2.16,1.45 l -1.1,2.67 -1,-0.29 a 1.54,1.54 0 0 0 -0.3,0 0.91,0.91 0 0 0 -0.91,1 v 0.57 a 1.17,1.17 0 0 0 1.18,1.17 h 0.07 l -0.15,0.39 a 8.66,8.66 0 0 0 -0.55,2.8 v 5.33 a 1.17,1.17 0 0 0 1.17,1.17 h 1.41 a 1.18,1.18 0 0 0 1.18,-1.17 v -1.31 h 12.72 v 1.31 a 1.17,1.17 0 0 0 1.17,1.17 h 1.4 a 1.18,1.18 0 0 0 1.17,-1.17 v -5.33 a 8.93,8.93 0 0 0 -0.55,-2.8 l -0.16,-0.39 h 0.09 a 1.17,1.17 0 0 0 1.18,-1.17 v -0.57 a 0.91,0.91 0 0 0 -0.94,-1 z m -6.93,-5.77 h 0.54 v 2 h -0.58 z m -3.9,0 h 0.65 l 0.78,1.95 0.71,-0.88 -0.68,-1 h 0.61 l 0.35,0.57 0.35,-0.57 h 0.61 l -0.68,1 0.72,0.9 h -0.63 l -0.4,-0.63 -0.4,0.63 h -1.21 l -0.14,-0.41 h -0.74 l -0.14,0.41 h -0.58 l 0.79,-2 z m -1.91,2 v -1.55 h -0.65 v -0.35 h 2 v 0.35 h -0.66 v 1.55 h -0.58 z m -4.64,5.86 1.67,-4.06 a 1.53,1.53 0 0 1 1.29,-0.87 h 9.29 a 1.54,1.54 0 0 1 1.3,0.87 l 1.66,4.06 a 0.58,0.58 0 0 1 -0.58,0.87 H 290 a 0.59,0.59 0 0 1 -0.59,-0.91 z m 3.76,5.22 a 0.47,0.47 0 0 1 -0.47,0.47 h -3.18 a 0.48,0.48 0 0 1 -0.47,-0.47 v -1.5 a 0.48,0.48 0 0 1 0.47,-0.48 h 3.18 a 0.48,0.48 0 0 1 0.47,0.48 z m 11.78,0 a 0.47,0.47 0 0 1 -0.47,0.47 h -3.18 a 0.47,0.47 0 0 1 -0.47,-0.47 v -1.5 a 0.48,0.48 0 0 1 0.47,-0.48 h 3.18 a 0.48,0.48 0 0 1 0.47,0.48 z" transform="translate(-281,-368)" id="path2436"/>
        </g>
    </g>
    <circle cx="12" cy="2.4" r="2.8" id="circle62" style="fill: var(--badgecolor,#008854);stroke:var(--badgestroke, #fff);stroke-width:.8"/>
  </g>
  <path d="m 7.2,15.2 h 1.6 v 5.6 c 0,0.44183 -0.35817,0.8 -0.8,0.8 -0.44183,0 -0.8,-0.35817 -0.8,-0.8 z" style="fill:#333" id="path14"/>
</svg>
