<?xml version="1.0" encoding="iso-8859-1"?>
<!-- Generator: Adobe Illustrator 28.1.0, SVG Export Plug-In . SVG Version: 6.00 Build 0)  -->
<svg version="1.1" id="Ebene_1" xmlns="http://www.w3.org/2000/svg" xmlns:xlink="http://www.w3.org/1999/xlink" x="0px" y="0px"
	 viewBox="0 0 155.906 155.906" style="enable-background:new 0 0 155.906 155.906;" xml:space="preserve">
<path style="fill:#0070AE;" d="M77.953,28.346c-4.29,0-7.781,3.491-7.781,7.781c0,3.619,2.484,6.669,5.835,7.535V62.39
	c0,1.074,0.871,1.945,1.946,1.945c1.075,0,1.946-0.871,1.946-1.945V43.663c3.352-0.866,5.835-3.916,5.835-7.535
	C85.734,31.837,82.243,28.346,77.953,28.346L77.953,28.346z M77.953,40.018c-2.146,0-3.891-1.745-3.891-3.891s1.745-3.89,3.891-3.89
	c2.146,0,3.891,1.745,3.891,3.89S80.098,40.018,77.953,40.018L77.953,40.018z M77.953,40.018"/>
<path style="fill:#0070AE;" d="M79.899,112.243V93.515c0-1.074-0.871-1.945-1.946-1.945c-1.075,0-1.946,0.871-1.946,1.945v18.728
	c-3.352,0.866-5.835,3.916-5.835,7.535c0,4.29,3.491,7.781,7.781,7.781c4.29,0,7.781-3.491,7.781-7.781
	C85.734,116.159,83.25,113.109,79.899,112.243L79.899,112.243z M77.953,123.668c-2.146,0-3.891-1.745-3.891-3.89
	s1.745-3.891,3.891-3.891c2.146,0,3.891,1.745,3.891,3.891S80.098,123.668,77.953,123.668L77.953,123.668z M77.953,123.668"/>
<path style="fill:#0070AE;" d="M119.778,70.172c-3.619,0-6.669,2.484-7.535,5.835H93.515c-1.074,0-1.945,0.871-1.945,1.946
	c0,1.075,0.871,1.946,1.945,1.946h18.728c0.866,3.352,3.916,5.835,7.535,5.835c4.29,0,7.781-3.491,7.781-7.781
	C127.559,73.663,124.068,70.172,119.778,70.172L119.778,70.172z M119.778,81.843c-2.146,0-3.891-1.745-3.891-3.891
	c0-2.146,1.745-3.891,3.891-3.891s3.89,1.745,3.89,3.891C123.668,80.098,121.924,81.843,119.778,81.843L119.778,81.843z
	 M119.778,81.843"/>
<path style="fill:#0070AE;" d="M43.663,79.899H62.39c1.074,0,1.945-0.871,1.945-1.946c0-1.075-0.871-1.946-1.945-1.946H43.663
	c-0.866-3.352-3.916-5.835-7.535-5.835c-4.29,0-7.781,3.491-7.781,7.781c0,4.29,3.491,7.781,7.781,7.781
	C39.747,85.734,42.797,83.25,43.663,79.899L43.663,79.899z M36.128,81.843c-2.146,0-3.89-1.745-3.89-3.891
	c0-2.146,1.745-3.891,3.89-3.891c2.146,0,3.891,1.745,3.891,3.891C40.018,80.098,38.273,81.843,36.128,81.843L36.128,81.843z
	 M36.128,81.843"/>
<path style="fill:#0070AE;" d="M88.958,68.894c0.498,0,0.995-0.19,1.376-0.57l13.24-13.24c2.908,1.721,6.834,1.42,9.456-1.203
	c3.042-3.041,3.042-7.963,0-11.005c-3.041-3.041-7.963-3.041-11.004,0c-2.624,2.624-2.924,6.549-1.203,9.457l-13.241,13.24
	c-0.759,0.76-0.759,1.992,0,2.752C87.961,68.704,88.459,68.894,88.958,68.894L88.958,68.894z M104.776,45.627
	c1.52-1.52,3.981-1.521,5.502,0c1.52,1.521,1.521,3.981,0,5.502c-1.52,1.52-3.981,1.521-5.501,0.001c0,0,0,0-0.001-0.001
	C103.257,49.608,103.256,47.148,104.776,45.627L104.776,45.627z M104.776,45.627"/>
<path style="fill:#0070AE;" d="M65.572,87.582l-13.241,13.24c-2.908-1.721-6.832-1.42-9.456,1.203
	c-3.041,3.041-3.041,7.963,0,11.005c3.041,3.041,7.963,3.041,11.005,0c2.623-2.624,2.923-6.549,1.202-9.457l13.241-13.24
	c0.76-0.76,0.76-1.992,0-2.751C67.565,86.822,66.332,86.822,65.572,87.582L65.572,87.582z M51.129,110.279
	c-1.52,1.52-3.981,1.521-5.502,0c-1.52-1.521-1.521-3.981,0-5.502c1.52-1.52,3.981-1.521,5.502-0.001c0,0.001,0,0.001,0,0.001h0.001
	C52.649,106.297,52.65,108.758,51.129,110.279L51.129,110.279z M51.129,110.279"/>
<path style="fill:#0070AE;" d="M103.574,100.822l-13.241-13.24c-0.76-0.76-1.991-0.76-2.751,0c-0.76,0.759-0.76,1.991,0,2.751
	l13.241,13.24c-1.722,2.908-1.421,6.834,1.202,9.456c3.041,3.042,7.963,3.042,11.005,0c3.041-3.041,3.041-7.963,0-11.004
	C110.406,99.402,106.481,99.101,103.574,100.822L103.574,100.822z M110.279,110.279c-1.521,1.52-3.981,1.521-5.502,0
	c-1.52-1.52-1.521-3.981,0-5.501c0-0.001,0-0.001,0-0.001h0.001c1.52-1.52,3.98-1.521,5.501,0
	C111.8,106.296,111.8,108.758,110.279,110.279L110.279,110.279z M110.279,110.279"/>
<path style="fill:#0070AE;" d="M55.083,52.331c1.721-2.908,1.42-6.832-1.203-9.456c-3.041-3.041-7.963-3.041-11.005,0
	c-3.041,3.041-3.041,7.963,0,11.005c2.624,2.623,6.549,2.923,9.457,1.202l13.24,13.241c0.76,0.76,1.992,0.76,2.752,0
	c0.759-0.76,0.759-1.991,0-2.751L55.083,52.331z M44.487,48.378c0-2.15,1.74-3.89,3.89-3.89c2.149,0,3.891,1.74,3.891,3.89
	c0,2.148-1.74,3.891-3.891,3.891C46.228,52.269,44.487,50.528,44.487,48.378L44.487,48.378z M44.487,48.378"/>
<circle style="fill:#FFCC00;" cx="77.953" cy="77.953" r="21.26"/>
<g>
	<path style="fill:#0070AE;" d="M72.194,90.231c0,1.439-1.12,1.8-2.12,1.8s-2.12-0.36-2.12-1.8V65.674
		c0-1.439,1.12-1.799,2.12-1.799s2.12,0.36,2.12,1.799v9.838c0,0.28,0.08,0.36,0.36,0.36h10.798c0.24,0,0.36-0.08,0.36-0.36v-9.838
		c0-1.439,1.12-1.799,2.12-1.799s2.12,0.36,2.12,1.799v24.556c0,1.439-1.12,1.8-2.12,1.8s-2.12-0.36-2.12-1.8v-9.999
		c0-0.28-0.12-0.36-0.36-0.36H72.554c-0.28,0-0.36,0.08-0.36,0.36V90.231z"/>
</g>
</svg>
