<?xml version="1.0" encoding="iso-8859-1"?>
<!-- Generator: Adobe Illustrator 28.1.0, SVG Export Plug-In . SVG Version: 6.00 Build 0)  -->
<svg version="1.1" id="Ebene_1" xmlns="http://www.w3.org/2000/svg" xmlns:xlink="http://www.w3.org/1999/xlink" x="0px" y="0px"
	 viewBox="0 0 155.906 155.906" style="enable-background:new 0 0 155.906 155.906;" xml:space="preserve">
<path style="fill:#0070AE;" d="M76.141,32.888l-1.128,2.253c-2.239,4.475-0.421,9.937,4.052,12.176
	c1.272,0.637,2.634,0.959,4.047,0.959c3.467,0,6.581-1.921,8.129-5.012l1.129-2.253c0.98-1.96,1.139-4.188,0.445-6.271
	c-0.694-2.084-2.155-3.772-4.114-4.752l-1.535-0.77c-1.963-0.981-4.189-1.14-6.274-0.448C78.811,29.463,77.123,30.926,76.141,32.888
	z M85.478,32.591l1.532,0.768c1.061,0.529,1.852,1.443,2.227,2.572c0.377,1.129,0.291,2.334-0.24,3.393l-1.127,2.254
	c-0.634,1.266-1.724,2.208-3.068,2.656c-0.553,0.184-1.12,0.275-1.685,0.275c-0.812,0-1.619-0.189-2.364-0.563
	c-1.264-0.633-2.207-1.722-2.654-3.067c-0.448-1.347-0.347-2.784,0.286-4.047l1.127-2.255c0.532-1.061,1.445-1.851,2.572-2.226
	C83.201,31.979,84.434,32.067,85.478,32.591z"/>
<path style="fill:#0070AE;" d="M111.165,87.133c-0.415,0-0.83,0.014-1.242,0.038l-0.487,0.029l-2.85-15.742l0.109-0.179
	c0.578-0.944,0.884-2.03,0.884-3.139c0-3.326-2.705-6.032-6.03-6.032H90.526c-0.36,0-0.704-0.136-0.97-0.383l-4.172-3.895
	l-0.036-0.167c-0.51-2.337-2.032-4.293-4.179-5.368l-5.481-2.744c-1.884-0.943-4.028-1.095-6.035-0.428
	c-2.004,0.667-3.628,2.073-4.571,3.958l-7.749,15.496c-1.203,3.477-0.438,7.756,1.977,10.837l0.236,0.301l-5.854,9.504l-0.443-0.208
	c-2.67-1.246-5.532-1.879-8.507-1.879c-11.146,0-20.212,9.067-20.212,20.212c0,0,0,0.001,0,0.001h0c0,0.015,0.002,0.029,0.002,0.043
	c0.011,5.267,2.028,10.186,5.666,13.958c0.105,0.109,0.202,0.224,0.309,0.331c0.062,0.062,0.115,0.129,0.178,0.19
	c0.075,0.073,0.158,0.133,0.241,0.191c1.738,1.633,3.751,2.977,5.98,3.917c0.02,0.009,0.037,0.023,0.058,0.031
	c0.472,0.196,0.953,0.357,1.435,0.516c0.122,0.04,0.239,0.092,0.362,0.13c0.477,0.148,0.962,0.262,1.448,0.373
	c0.166,0.038,0.326,0.09,0.494,0.124c0.497,0.101,1.001,0.167,1.506,0.231c0.165,0.021,0.326,0.056,0.492,0.073
	c0.675,0.068,1.355,0.103,2.041,0.103c0,0,0,0,0,0s0,0,0,0c0.002,0,0.004,0,0.006,0c0.668,0,1.328-0.036,1.98-0.1
	c0.216-0.021,0.426-0.062,0.64-0.09c0.436-0.057,0.871-0.114,1.298-0.199c0.239-0.047,0.471-0.112,0.707-0.167
	c0.396-0.093,0.791-0.187,1.178-0.304c0.23-0.069,0.455-0.151,0.681-0.229c0.385-0.131,0.768-0.266,1.143-0.419
	c0.208-0.085,0.41-0.179,0.615-0.27c0.387-0.173,0.769-0.355,1.143-0.552c0.177-0.093,0.351-0.191,0.524-0.289
	c0.393-0.222,0.777-0.455,1.153-0.702c0.143-0.094,0.285-0.189,0.425-0.287c0.398-0.276,0.784-0.566,1.161-0.869
	c0.108-0.087,0.216-0.173,0.323-0.262c0.4-0.335,0.784-0.687,1.157-1.052c0.074-0.073,0.15-0.143,0.223-0.217
	c0.395-0.399,0.772-0.815,1.133-1.247c0.044-0.052,0.09-0.102,0.134-0.155c0.384-0.468,0.747-0.953,1.089-1.455
	c0.016-0.024,0.035-0.047,0.051-0.071c1.428-2.119,2.472-4.525,3.016-7.133c0.045-0.215,0.07-0.436,0.108-0.654
	c0.065-0.372,0.14-0.74,0.185-1.118l0.057-0.485h6.458l0.159,0.273c0.808,1.391,2.305,2.255,3.908,2.255h7.78
	c1.357,0,2.579-0.698,3.268-1.869c0.69-1.17,0.708-2.578,0.049-3.767l-2.695-4.852v-1.18l20.981-17.441l0.945,5.22l-0.467,0.144
	c-8.423,2.572-14.306,10.521-14.306,19.33c0,11.146,9.067,20.213,20.213,20.213c11.145,0,20.212-9.068,20.212-20.214
	C131.377,96.201,122.31,87.133,111.165,87.133z M68.456,54.763c0.486-0.993,1.413-1.75,2.542-2.071
	c0.578-0.165,1.17-0.21,1.759-0.135l1.254,0.159l-0.972,0.809c-0.146,0.122-0.285,0.249-0.417,0.384l-0.011,0.01
	c-1.155,1.112-1.775,2.75-1.701,4.493c0.072,1.731,0.854,3.365,2.093,4.369l5.12,4.833l-3.04,6.074l-13.416-5.362L68.456,54.763z
	 M54.914,94.425l0.488,0.418c2.998,2.562,4.98,6.107,5.583,9.983l0.098,0.634l-12.966-0.001L54.914,94.425z M44.741,90.906
	c2.214,0,4.358,0.434,6.376,1.288l0.589,0.25l-8.568,13.911c-0.359,0.583-0.376,1.314-0.043,1.909
	c0.333,0.597,0.963,0.967,1.646,0.967l16.324,0.002c-0.038,0.327-0.092,0.649-0.149,0.971c-0.052,0.294-0.11,0.586-0.178,0.874
	c-0.045,0.192-0.096,0.382-0.147,0.571c-0.09,0.327-0.183,0.652-0.292,0.97c-0.04,0.117-0.085,0.232-0.128,0.348
	c-0.141,0.383-0.288,0.763-0.457,1.132l0,0c-2.007,4.395-5.9,7.738-10.542,9.064c-0.077,0.022-0.156,0.04-0.233,0.06
	c-0.382,0.103-0.767,0.195-1.158,0.27c-0.202,0.038-0.408,0.063-0.613,0.094c-0.287,0.044-0.574,0.092-0.865,0.12
	c-0.513,0.049-1.032,0.079-1.557,0.079c-0.002,0-0.004,0-0.006,0c-0.562,0-1.117-0.029-1.665-0.084
	c-0.094-0.009-0.185-0.03-0.279-0.041c-0.456-0.054-0.91-0.116-1.353-0.207c-0.069-0.014-0.136-0.037-0.205-0.052
	c-0.465-0.101-0.926-0.215-1.376-0.355c-0.029-0.009-0.057-0.022-0.086-0.031c-2.526-0.802-4.791-2.197-6.627-4.024
	c-0.062-0.062-0.118-0.128-0.179-0.191c-2.78-2.855-4.522-6.712-4.647-10.973c-0.005-0.162-0.024-0.321-0.024-0.483
	C28.3,98.281,35.675,90.906,44.741,90.906z M70.88,105.459h-6.009l-0.057-0.485c-0.627-5.331-3.303-10.114-7.534-13.468
	l-0.383-0.303l5.493-8.916l7.449,6.016c0.661,0.532,1.04,1.325,1.04,2.177V105.459z M75.397,107.991
	c-0.411,0-0.745-0.335-0.745-0.747V90.48c0-1.994-0.891-3.857-2.442-5.112l-8.658-6.988c-1.698-1.373-2.78-3.401-2.971-5.567
	l-0.078-0.891l14.237,5.689l4.291,6.593c0.652,1.003,0.996,2.166,0.996,3.361v14.655l3.188,5.77H75.397z M83.798,95.191v-7.625
	c0-1.928-0.556-3.801-1.607-5.417l-0.736-1.126h19.387L83.798,95.191z M79.003,77.25l-0.84-1.292l2.819-5.632l0.532,0.434
	c2.698,2.201,6.106,3.414,9.598,3.414h10.437c0.375,0,0.749-0.035,1.113-0.104l0.545-0.103l0.597,3.284H79.003z M101.549,70.401
	l-10.437,0.001c-2.928,0-5.714-1.107-7.846-3.119l-7.803-7.357c-0.446-0.365-0.757-1.008-0.797-1.666
	c-0.026-0.447,0.061-1.101,0.619-1.682c0.436-0.442,1.011-0.683,1.624-0.683c0.464,0,0.941,0.143,1.276,0.381l8.796,8.206
	c0.966,0.902,2.224,1.398,3.543,1.398h11.023c1.246,0,2.259,1.014,2.259,2.26S102.794,70.401,101.549,70.401z M111.165,123.787
	c-9.066,0-16.441-7.375-16.441-16.44c0-6.996,4.447-13.239,11.067-15.535l0.606-0.21l2.912,16.081
	c0.088,0.485,0.377,0.928,0.795,1.215c0.416,0.287,0.91,0.394,1.393,0.305c0.498-0.09,0.929-0.367,1.216-0.781
	s0.396-0.915,0.308-1.411l-1.759-9.715c-0.242-1.5-0.596-3.595-0.766-4.431h-0.037l-0.349-1.936l0.636-0.021
	c4.143-0.149,8.335,1.44,11.494,4.333c3.44,3.148,5.396,7.562,5.365,12.109C127.606,116.412,120.231,123.787,111.165,123.787z"/>
<path style="fill:#FFCC00;" d="M75.397,107.991c-0.411,0-0.745-0.335-0.745-0.747V90.48c0-1.994-0.891-3.857-2.442-5.112
	l-8.658-6.988c-1.698-1.373-2.78-3.401-2.971-5.567l-0.078-0.891l14.237,5.689l4.291,6.593c0.652,1.003,0.996,2.166,0.996,3.361
	v14.655l3.188,5.77H75.397z"/>
</svg>
