<?xml version="1.0" encoding="iso-8859-1"?>
<!-- Generator: Adobe Illustrator 28.1.0, SVG Export Plug-In . SVG Version: 6.00 Build 0)  -->
<svg version="1.1" id="Ebene_1" xmlns="http://www.w3.org/2000/svg" xmlns:xlink="http://www.w3.org/1999/xlink" x="0px" y="0px"
	 viewBox="0 0 155.906 155.906" style="enable-background:new 0 0 155.906 155.906;" xml:space="preserve">
<g>
	<defs>
		<path id="SVGID_1_" d="M77.953,99.213c11.741,0,21.26-9.518,21.26-21.262c0-11.74-9.518-21.257-21.26-21.257
			c-11.741,0-21.26,9.518-21.26,21.257C56.693,89.695,66.212,99.213,77.953,99.213L77.953,99.213z M77.953,99.213"/>
	</defs>
	<use xlink:href="#SVGID_1_"  style="overflow:visible;fill-rule:evenodd;clip-rule:evenodd;fill:#FFCC00;"/>
	<clipPath id="SVGID_00000069395005252132510550000008222834966123429540_">
		<use xlink:href="#SVGID_1_"  style="overflow:visible;"/>
	</clipPath>
	<g style="clip-path:url(#SVGID_00000069395005252132510550000008222834966123429540_);">
		<path style="fill:#0070AE;" d="M78.556,59.599l-1.32,0.008c-1.826,0.014-3.539,0.739-4.824,2.041
			c-1.281,1.3-1.98,3.023-1.967,4.851l0.014,1.941c0.03,4.107,3.395,7.449,7.501,7.449h0.057c1.173-0.008,2.298-0.282,3.34-0.812
			c2.553-1.301,4.126-3.885,4.105-6.743l-0.013-1.943c-0.015-1.826-0.739-3.538-2.042-4.821
			C82.104,60.285,80.427,59.604,78.556,59.599z M80.505,70.895c-0.276,0.28-0.589,0.509-0.93,0.681
			c-0.492,0.251-1.027,0.381-1.59,0.384c-0.968,0-1.858-0.366-2.532-1.029c-0.682-0.672-1.061-1.566-1.066-2.519l-0.015-1.94
			c-0.005-0.778,0.293-1.511,0.839-2.065c0.54-0.548,1.289-0.865,2.054-0.87l1.322-0.009c0.797,0,1.511,0.291,2.065,0.841
			c0.555,0.545,0.863,1.273,0.869,2.051l0.014,1.942C81.541,69.315,81.176,70.215,80.505,70.895z"/>
		<path style="fill:#0070AE;" d="M83.314,77.575H72.594c-4.538,0-8.23,3.691-8.23,8.229v16.376c0,1.088,0.885,1.973,1.973,1.973
			h23.237c1.086,0,1.97-0.885,1.97-1.973V85.805C91.543,81.267,87.851,77.575,83.314,77.575z M87.601,100.21H68.307V85.805
			c0-2.363,1.923-4.286,4.287-4.286h10.721c2.363,0,4.287,1.923,4.287,4.286V100.21z"/>
	</g>
</g>
<g>
	<path style="fill:#0070AE;" d="M41.825,49.638c8.768-11.259,21.992-17.716,36.283-17.716c14.641,0,28.261,6.9,36.907,18.558h-3.109
		v3.95h7.976c0.525,0,1.037-0.213,1.402-0.584c0.373-0.377,0.577-0.876,0.573-1.406l-0.06-7.451l-3.95,0.031l0.021,2.661
		c-9.404-12.397-24.046-19.71-39.761-19.71c-15.519,0-29.879,7.012-39.399,19.238l-0.23,0.296l3.116,2.428L41.825,49.638z"/>
	<path style="fill:#0070AE;" d="M127.934,77.588c0-6.132-1.112-12.122-3.306-17.802l-0.135-0.35l-3.684,1.423l0.135,0.35
		c2.016,5.226,3.038,10.736,3.038,16.378c0,19.045-11.617,35.765-29.216,42.558l1.375-2.124l-3.312-2.148l-4.057,6.262
		c-0.315,0.486-0.401,1.083-0.237,1.638c0.167,0.556,0.566,1.008,1.093,1.24l6.832,3.041l1.603-3.609l-1.607-0.715
		C115.429,116.289,127.934,98.19,127.934,77.588z"/>
	<path style="fill:#0070AE;" d="M80.006,123.215c-0.631,0.026-1.263,0.038-1.9,0.038c-25.296,0-45.876-20.485-45.876-45.665
		c0-4.174,1.649-9.363,3.322-13.894l1.216,2.713l3.605-1.614l-3.164-7.066c-0.22-0.49-0.636-0.875-1.143-1.055
		c-0.516-0.181-1.067-0.146-1.552,0.1l-6.672,3.373l1.781,3.525l2.122-1.073c-1.751,4.771-3.464,10.277-3.464,14.991
		c0,27.358,22.352,49.616,49.826,49.616c0.689,0,1.377-0.013,2.058-0.041l0.374-0.016l-0.158-3.948L80.006,123.215z"/>
</g>
</svg>
