<?xml version="1.0" encoding="UTF-8" standalone="no"?>
<svg
   viewBox="0 0 280.30648 280"
   version="1.1"
   id="svg12"
   sodipodi:docname="edrivecarsharing_ch.svg"
   width="280.30649"
   height="280"
   inkscape:version="1.2.1 (9c6d41e410, 2022-07-14)"
   xmlns:inkscape="http://www.inkscape.org/namespaces/inkscape"
   xmlns:sodipodi="http://sodipodi.sourceforge.net/DTD/sodipodi-0.dtd"
   xmlns="http://www.w3.org/2000/svg"
   xmlns:svg="http://www.w3.org/2000/svg">
  <sodipodi:namedview
     id="namedview14"
     pagecolor="#ffffff"
     bordercolor="#000000"
     borderopacity="0.25"
     inkscape:showpageshadow="2"
     inkscape:pageopacity="0.0"
     inkscape:pagecheckerboard="0"
     inkscape:deskcolor="#d1d1d1"
     showgrid="false"
     inkscape:zoom="3.5548557"
     inkscape:cx="174.40933"
     inkscape:cy="144.30966"
     inkscape:window-width="1920"
     inkscape:window-height="1017"
     inkscape:window-x="-8"
     inkscape:window-y="-8"
     inkscape:window-maximized="1"
     inkscape:current-layer="Ebene_1-2" />
  <defs
     id="defs4">
    <style
       id="style2">.cls-1{fill:#6ab53b;}.cls-1,.cls-2{fill-rule:evenodd;}.cls-2{fill:#6c7d7f;}</style>
  </defs>
  <g
     id="Ebene_2"
     data-name="Ebene 2"
     transform="translate(0.00923163,94.518608)">
    <g
       id="Ebene_1-2"
       data-name="Ebene 1">
      <rect
         style="fill:#ffffff;fill-rule:evenodd;stroke-width:1.68811"
         id="rect414"
         width="280"
         height="280"
         x="0.27207369"
         y="-94.518608" />
      <path
         class="cls-1"
         d="m 47.65,32.77 a 16.17,16.17 0 0 1 -0.76,4.69 14,14 0 0 1 -2.47,4.66 13.65,13.65 0 0 1 -4.42,3.6 14.15,14.15 0 0 1 -6.7,1.45 H 14.4 v -9.93 h 18.85 a 4.18,4.18 0 0 0 3.3,-1.31 4.67,4.67 0 0 0 1.17,-3.24 4.12,4.12 0 0 0 -1.31,-3.22 4.6,4.6 0 0 0 -3.16,-1.16 H 14.4 a 4.22,4.22 0 0 0 -3.3,1.3 4.71,4.71 0 0 0 -1.17,3.24 v 14.6 a 4.16,4.16 0 0 0 1.31,3.26 4.67,4.67 0 0 0 3.24,1.17 h 18.77 v 10 H 14.4 A 16.52,16.52 0 0 1 9.71,61.12 14.34,14.34 0 0 1 5,58.61 13.82,13.82 0 0 1 1.41,54.15 14.2,14.2 0 0 1 0,47.45 V 32.77 a 16.11,16.11 0 0 1 0.76,-4.68 13.77,13.77 0 0 1 6.94,-8.26 14.17,14.17 0 0 1 6.7,-1.46 h 18.85 a 16.15,16.15 0 0 1 4.69,0.77 14.31,14.31 0 0 1 4.67,2.47 13.91,13.91 0 0 1 3.6,4.47 14.28,14.28 0 0 1 1.44,6.69 z m 54.73,14.4 a 16.2,16.2 0 0 1 -0.67,4.85 14.2,14.2 0 0 1 -1.82,3.77 12.16,12.16 0 0 1 -2.61,2.78 15.18,15.18 0 0 1 -3.12,1.87 16.2,16.2 0 0 1 -3.29,1.07 15.7,15.7 0 0 1 -3.16,0.34 H 68.85 A 15.65,15.65 0 0 1 64,61.16 13.56,13.56 0 0 1 60.24,59.33 12.41,12.41 0 0 1 57.47,56.7 14.75,14.75 0 0 1 55.6,53.58 16.05,16.05 0 0 1 54.19,47.17 V 33 a 14.46,14.46 0 0 1 1.47,-6.81 13.77,13.77 0 0 1 8.42,-7.06 16.81,16.81 0 0 1 4.75,-0.77 H 87.71 V 28.83 H 68.93 A 4.37,4.37 0 0 0 65.75,29.9 4.19,4.19 0 0 0 64.66,33 v 14.09 a 4.44,4.44 0 0 0 1.07,3.22 4.19,4.19 0 0 0 3.12,1.08 h 18.86 a 4.21,4.21 0 0 0 3.17,-1.08 4.35,4.35 0 0 0 1.05,-3.14 V 0 h 10.45 z m 48,-18.34 h -23.5 a 4.42,4.42 0 0 0 -3.22,1.07 4.18,4.18 0 0 0 -1.08,3.1 V 61.85 H 112.12 V 33 a 15.63,15.63 0 0 1 0.68,-4.82 14,14 0 0 1 1.83,-3.76 12.68,12.68 0 0 1 2.63,-2.78 15.92,15.92 0 0 1 3.12,-1.87 16.45,16.45 0 0 1 3.3,-1.06 15.44,15.44 0 0 1 3.12,-0.35 h 23.6 z M 167.9,9.45 H 157.44 V 0 h 10.46 v 9.45 m 0,52.4 H 157.44 V 18.37 h 10.46 z m 61.89,-43.48 a 107,107 0 0 1 -4.15,10.87 78.13,78.13 0 0 1 -5.44,10.19 62.68,62.68 0 0 1 -6.88,9 44.72,44.72 0 0 1 -8.4,7.12 41.06,41.06 0 0 1 -10,4.7 38.65,38.65 0 0 1 -11.72,1.71 5.2,5.2 0 0 1 -2.05,-0.4 5.28,5.28 0 0 1 -1.69,-1.11 5,5 0 0 1 -1.13,-1.65 5.29,5.29 0 0 1 -0.4,-2 V 18.37 h 10.46 v 32.7 a 17.13,17.13 0 0 0 7.34,-1.65 29,29 0 0 0 6.65,-4.36 42.3,42.3 0 0 0 5.81,-6.18 60.16,60.16 0 0 0 4.76,-7.09 64.2,64.2 0 0 0 3.57,-7.14 49.77,49.77 0 0 0 2.19,-6.28 z m 50.5,14.4 a 16.17,16.17 0 0 1 -0.76,4.69 13.8,13.8 0 0 1 -2.47,4.66 13.54,13.54 0 0 1 -4.47,3.6 14.13,14.13 0 0 1 -6.69,1.45 H 247 v -9.93 h 18.9 a 4.21,4.21 0 0 0 3.3,-1.31 4.71,4.71 0 0 0 1.16,-3.24 4.11,4.11 0 0 0 -1.3,-3.22 4.6,4.6 0 0 0 -3.16,-1.16 H 247 a 4.23,4.23 0 0 0 -3.3,1.3 4.7,4.7 0 0 0 -1.16,3.24 v 14.6 a 4.15,4.15 0 0 0 1.3,3.26 4.71,4.71 0 0 0 3.24,1.17 h 18.82 v 10 H 247 a 16.4,16.4 0 0 1 -4.68,-0.76 14.24,14.24 0 0 1 -4.67,-2.48 13.84,13.84 0 0 1 -3.6,-4.46 14.32,14.32 0 0 1 -1.45,-6.7 V 32.77 a 16.14,16.14 0 0 1 0.77,-4.68 13.89,13.89 0 0 1 2.47,-4.66 13.71,13.71 0 0 1 4.46,-3.6 14.2,14.2 0 0 1 6.7,-1.46 h 18.9 a 16.21,16.21 0 0 1 4.69,0.77 14.17,14.17 0 0 1 4.66,2.47 13.77,13.77 0 0 1 3.6,4.47 14.16,14.16 0 0 1 1.44,6.69 z"
         id="path6" />
      <path
         class="cls-2"
         d="M 15.67,89.12 H 5.82 A 6.11,6.11 0 0 1 4.17,88.86 4.89,4.89 0 0 1 1.25,86.41 5.08,5.08 0 0 1 0.74,84 V 79.1 A 6.19,6.19 0 0 1 0.85,78 5.65,5.65 0 0 1 1.23,76.86 5.48,5.48 0 0 1 1.87,75.78 4.69,4.69 0 0 1 2.87,74.87 4.67,4.67 0 0 1 4.18,74.25 5.39,5.39 0 0 1 5.82,74 h 9.85 v 3.63 H 5.82 A 1.5,1.5 0 0 0 4.74,78 1.51,1.51 0 0 0 4.37,79.12 V 84 a 1.42,1.42 0 0 0 0.38,1.08 1.5,1.5 0 0 0 1.1,0.38 h 9.82 z m 18.51,-5 a 5.6,5.6 0 0 1 -0.27,1.63 5.07,5.07 0 0 1 -0.86,1.62 4.72,4.72 0 0 1 -1.55,1.25 5,5 0 0 1 -2.33,0.5 H 22.62 A 5.86,5.86 0 0 1 21,88.86 a 4.77,4.77 0 0 1 -3.38,-4.74 5.55,5.55 0 0 1 0.27,-1.63 5,5 0 0 1 0.86,-1.63 4.82,4.82 0 0 1 1.55,-1.25 4.92,4.92 0 0 1 2.33,-0.51 h 6.55 v 3.47 h -6.56 a 1.48,1.48 0 0 0 -1.15,0.45 1.65,1.65 0 0 0 -0.4,1.13 1.35,1.35 0 0 0 0.47,1.11 1.68,1.68 0 0 0 1.11,0.4 h 6.52 a 1.48,1.48 0 0 0 1.15,-0.45 1.61,1.61 0 0 0 0.41,-1.12 V 79 a 1.48,1.48 0 0 0 -0.45,-1.13 1.53,1.53 0 0 0 -1.11,-0.42 h -8 V 74 h 8 a 5.86,5.86 0 0 1 1.63,0.26 5,5 0 0 1 1.62,0.86 4.81,4.81 0 0 1 1.76,3.88 z M 50.49,77.65 H 42.32 A 1.59,1.59 0 0 0 41.2,78 1.46,1.46 0 0 0 40.82,79.08 v 10 h -3.63 v -10 a 5.39,5.39 0 0 1 0.24,-1.67 5,5 0 0 1 0.63,-1.31 4.44,4.44 0 0 1 0.92,-1 4.69,4.69 0 0 1 1.09,-0.65 4.75,4.75 0 0 1 1.14,-0.37 5.32,5.32 0 0 1 1.08,-0.08 h 8.2 z m 17,6.38 a 5.5,5.5 0 0 1 -0.24,1.68 5,5 0 0 1 -0.63,1.29 4,4 0 0 1 -0.91,1 5,5 0 0 1 -1.08,0.66 6.12,6.12 0 0 1 -1.15,0.36 5.36,5.36 0 0 1 -1.1,0.12 h -9.83 v -3.65 h 9.81 A 1.53,1.53 0 0 0 63.48,85.11 1.46,1.46 0 0 0 63.85,84 1.33,1.33 0 0 0 62.38,82.54 h -5.62 a 4.49,4.49 0 0 1 -2,-0.42 4.2,4.2 0 0 1 -1.37,-1.05 3.93,3.93 0 0 1 -0.75,-1.35 4.67,4.67 0 0 1 -0.23,-1.36 4.34,4.34 0 0 1 0.43,-2 A 4,4 0 0 1 53.89,75 4.18,4.18 0 0 1 55.32,74.25 5.13,5.13 0 0 1 56.76,74 h 8.93 v 3.63 h -8.91 a 1.1,1.1 0 0 0 -0.44,0.07 0.45,0.45 0 0 0 -0.23,0.16 0.47,0.47 0 0 0 -0.09,0.22 1.94,1.94 0 0 0 0,0.24 0.85,0.85 0 0 0 0.09,0.35 0.42,0.42 0 0 0 0.17,0.18 0.48,0.48 0 0 0 0.24,0.06 h 5.88 a 5.08,5.08 0 0 1 2.38,0.5 4.89,4.89 0 0 1 1.58,1.26 5,5 0 0 1 0.87,1.66 5.78,5.78 0 0 1 0.26,1.67 z m 19.33,5.09 h -3.63 v -10 A 1.29,1.29 0 0 0 81.74,77.67 H 75.19 V 74 h 6.55 a 5.34,5.34 0 0 1 1.09,0.12 5.05,5.05 0 0 1 1.14,0.37 4.85,4.85 0 0 1 1.08,0.65 4.17,4.17 0 0 1 0.91,1 5,5 0 0 1 0.63,1.31 5.4,5.4 0 0 1 0.23,1.67 v 10 m -13.1,0 H 70.09 V 67.63 h 3.63 z m 32,-5 a 5.6,5.6 0 0 1 -0.27,1.63 4.88,4.88 0 0 1 -0.86,1.62 4.62,4.62 0 0 1 -1.55,1.25 5,5 0 0 1 -2.33,0.5 h -6.52 a 5.86,5.86 0 0 1 -1.63,-0.26 4.74,4.74 0 0 1 -3.37,-4.74 5.52,5.52 0 0 1 0.26,-1.63 5,5 0 0 1 0.86,-1.63 4.82,4.82 0 0 1 1.55,-1.25 4.92,4.92 0 0 1 2.33,-0.51 h 6.55 v 3.47 H 94.19 A 1.48,1.48 0 0 0 93,83 a 1.65,1.65 0 0 0 -0.4,1.13 1.35,1.35 0 0 0 0.47,1.11 1.68,1.68 0 0 0 1.11,0.4 h 6.52 a 1.46,1.46 0 0 0 1.15,-0.45 1.61,1.61 0 0 0 0.41,-1.12 V 79 a 1.51,1.51 0 0 0 -0.45,-1.13 1.53,1.53 0 0 0 -1.11,-0.42 h -8 V 74 h 8 a 5.86,5.86 0 0 1 1.63,0.26 5.07,5.07 0 0 1 1.62,0.86 4.76,4.76 0 0 1 1.25,1.56 4.85,4.85 0 0 1 0.51,2.32 z m 16.32,-6.47 h -8.18 a 1.55,1.55 0 0 0 -1.11,0.37 1.42,1.42 0 0 0 -0.38,1.08 v 10 h -3.64 v -10 a 5.39,5.39 0 0 1 0.24,-1.67 4.7,4.7 0 0 1 0.64,-1.31 4.17,4.17 0 0 1 0.91,-1 4.91,4.91 0 0 1 1.09,-0.65 4.75,4.75 0 0 1 1.14,-0.37 5.4,5.4 0 0 1 1.08,-0.12 h 8.21 z m 6.07,-6.74 h -3.63 v -3.28 h 3.63 v 3.28 m 0,18.21 h -3.63 V 74 h 3.63 z m 20.22,0 h -3.63 v -8.38 a 3.08,3.08 0 0 0 -0.25,-1.28 3,3 0 0 0 -0.66,-1 2.78,2.78 0 0 0 -1,-0.62 3.52,3.52 0 0 0 -1.22,-0.22 h -6.36 v 11.5 h -3.64 v -13.3 a 1.76,1.76 0 0 1 0.54,-1.28 2,2 0 0 1 0.58,-0.39 2.09,2.09 0 0 1 0.72,-0.13 h 8.18 a 7.52,7.52 0 0 1 1.45,0.15 6.85,6.85 0 0 1 1.51,0.5 7.68,7.68 0 0 1 1.42,0.86 5.58,5.58 0 0 1 1.2,1.27 6.47,6.47 0 0 1 0.84,1.73 7.53,7.53 0 0 1 0.3,2.21 z M 168,90.58 a 5.5,5.5 0 0 1 -0.24,1.68 5,5 0 0 1 -0.62,1.32 4.9,4.9 0 0 1 -0.91,1 5.53,5.53 0 0 1 -1.08,0.65 6.4,6.4 0 0 1 -1.15,0.37 5.44,5.44 0 0 1 -1.1,0.12 h -6.55 V 92 h 6.55 a 1.43,1.43 0 0 0 1.1,-0.37 1.5,1.5 0 0 0 0.37,-1.09 V 79.1 a 1.3,1.3 0 0 0 -1.47,-1.45 h -6.55 a 1.4,1.4 0 0 0 -1.06,0.41 1.48,1.48 0 0 0 -0.39,1 V 84 a 1.46,1.46 0 0 0 0.37,1.08 1.52,1.52 0 0 0 1.11,0.38 h 6.52 v 3.63 h -6.55 A 5.27,5.27 0 0 1 155.26,88.97 6.26,6.26 0 0 1 154.12,88.61 5,5 0 0 1 153,88 a 4,4 0 0 1 -0.91,-1 5,5 0 0 1 -0.63,-1.31 5.5,5.5 0 0 1 -0.24,-1.68 V 79.1 a 5.42,5.42 0 0 1 0.12,-1.09 5.61,5.61 0 0 1 0.37,-1.14 5.53,5.53 0 0 1 0.65,-1.08 4.9,4.9 0 0 1 1,-0.91 4.8,4.8 0 0 1 1.31,-0.62 5.45,5.45 0 0 1 1.68,-0.24 h 6.55 a 5.44,5.44 0 0 1 1.1,0.12 5.37,5.37 0 0 1 2.23,1 4.4,4.4 0 0 1 0.91,1 5,5 0 0 1 0.62,1.31 5.39,5.39 0 0 1 0.24,1.65 z"
         id="path8" />
    </g>
  </g>
</svg>
