<?xml version="1.0" encoding="iso-8859-1"?>
<!-- Generator: Adobe Illustrator 28.1.0, SVG Export Plug-In . SVG Version: 6.00 Build 0)  -->
<svg version="1.1" id="Ebene_1" xmlns="http://www.w3.org/2000/svg" xmlns:xlink="http://www.w3.org/1999/xlink" x="0px" y="0px"
	 viewBox="0 0 155.906 155.906" style="enable-background:new 0 0 155.906 155.906;" xml:space="preserve">
<g>
	<path style="fill:#0070AE;" d="M57.923,96.455c-3.508,0-6.362,2.854-6.362,6.361s2.854,6.361,6.362,6.361s6.362-2.854,6.362-6.361
		S61.431,96.455,57.923,96.455z M60.358,102.816c0,1.343-1.092,2.435-2.435,2.435c-1.343,0-2.436-1.092-2.436-2.435
		s1.092-2.436,2.436-2.436C59.266,100.38,60.358,101.473,60.358,102.816z"/>
	<path style="fill:#0070AE;" d="M97.982,96.455c-3.508,0-6.361,2.854-6.361,6.361s2.854,6.361,6.361,6.361s6.362-2.854,6.362-6.361
		S101.49,96.455,97.982,96.455z M100.418,102.816c0,1.343-1.093,2.435-2.436,2.435s-2.436-1.092-2.436-2.435
		s1.093-2.436,2.436-2.436S100.418,101.473,100.418,102.816z"/>
	<g>
		<path style="fill:#0070AE;" d="M113.14,85.724c0-3.173-2.582-5.755-5.755-5.755h-2.645l-2.13-10.902
			c-0.7-3.585-3.86-6.188-7.514-6.188h-34.29c-3.653,0-6.812,2.603-7.513,6.188l-2.13,10.902h-2.644
			c-3.174,0-5.756,2.582-5.756,5.755c0,1.952,0.975,3.747,2.613,4.819c-1.686,1.781-2.613,4.102-2.613,6.544v15.236
			c0,3.151,2.552,5.717,5.697,5.741l0,7.536c0,1.079,0.878,1.958,1.958,1.958h11.393c1.081,0,1.959-0.879,1.959-1.958v-7.536h28.361
			v7.536c0,1.079,0.879,1.958,1.959,1.958h11.393c1.081,0,1.96-0.879,1.96-1.958v-7.537c3.146-0.036,5.695-2.597,5.695-5.74V97.087
			c0-2.442-0.928-4.763-2.614-6.544C112.165,89.473,113.14,87.677,113.14,85.724z M96.053,123.641v-5.576h7.475v5.576H96.053z
			 M59.853,118.065v5.576h-7.476v-5.576H59.853z M49.681,87.564h-1.16c-1.014,0-1.838-0.825-1.838-1.84
			c0-1.014,0.825-1.838,1.838-1.838h1.88L49.681,87.564z M53.672,87.564l3.466-17.746c0.343-1.751,1.887-3.022,3.67-3.022h34.29
			c1.783,0,3.326,1.271,3.67,3.021l3.466,17.746H53.672z M107.386,87.564h-1.16l-0.719-3.678h1.879c1.013,0,1.837,0.824,1.837,1.838
			C109.223,86.739,108.398,87.564,107.386,87.564z M94.34,91.48c9.123-0.007,9.675-0.006,9.874,0.032
			c0.048,0.01,0.101,0.02,0.216,0.029c2.732,0.412,4.793,2.796,4.793,5.546v15.236c0,1.006-0.817,1.824-1.823,1.824H48.506
			c-1.006,0-1.824-0.818-1.824-1.824V97.087c0-3.091,2.515-5.605,5.606-5.605c19.354,0.006,31.662,0.002,39.018-0.001L94.34,91.48z"
			/>
		<path style="fill:#0070AE;" d="M86.497,97.059H69.409c-1.081,0-1.959,0.879-1.959,1.959c0,1.079,0.879,1.958,1.959,1.958h17.088
			c1.081,0,1.96-0.879,1.96-1.958C88.457,97.938,87.578,97.059,86.497,97.059z"/>
		<path style="fill:#0070AE;" d="M86.497,104.656H69.409c-1.081,0-1.959,0.879-1.959,1.958c0,1.08,0.879,1.959,1.959,1.959h17.088
			c1.081,0,1.96-0.879,1.96-1.959C88.457,105.535,87.578,104.656,86.497,104.656z"/>
	</g>
</g>
<g>
	<defs>
		<path id="SVGID_1_" d="M77.953,59.527c8.61,0,15.59-6.98,15.59-15.592c0-8.609-6.98-15.589-15.59-15.589
			c-8.61,0-15.591,6.98-15.591,15.589C62.362,52.548,69.343,59.527,77.953,59.527L77.953,59.527z M77.953,59.527"/>
	</defs>
	<use xlink:href="#SVGID_1_"  style="overflow:visible;fill-rule:evenodd;clip-rule:evenodd;fill:#FFCC00;"/>
	<clipPath id="SVGID_00000138559558487746173290000011474248227738538426_">
		<use xlink:href="#SVGID_1_"  style="overflow:visible;"/>
	</clipPath>
	<g style="clip-path:url(#SVGID_00000138559558487746173290000011474248227738538426_);">
		<path style="fill:#0070AE;" d="M77.959,45.285c0.016,0,0.031,0,0.047,0c1.019-0.007,1.994-0.244,2.897-0.704
			c2.212-1.127,3.575-3.366,3.558-5.843L84.45,37.14c-0.013-1.59-0.644-3.081-1.777-4.198c-1.134-1.117-2.584-1.712-4.222-1.716
			l-1.089,0.007c-1.59,0.013-3.082,0.644-4.201,1.776c-1.116,1.133-1.725,2.633-1.713,4.224l0.012,1.597
			C71.485,42.399,74.396,45.285,77.959,45.285z M75.932,35.741c0.384-0.39,0.916-0.614,1.458-0.618l1.088-0.007
			c0.562,0,1.071,0.207,1.465,0.597c0.395,0.388,0.613,0.904,0.617,1.456l0.012,1.598c0.005,0.696-0.262,1.353-0.753,1.851
			c-0.201,0.204-0.429,0.371-0.679,0.498c-0.36,0.184-0.751,0.278-1.162,0.281c-0.006,0-0.013,0-0.019,0
			c-0.688,0-1.338-0.267-1.831-0.752c-0.498-0.491-0.775-1.144-0.779-1.84l-0.013-1.596C75.333,36.654,75.545,36.134,75.932,35.741z
			"/>
		<path style="fill:#0070AE;" d="M82.364,46.014h-8.82c-3.915,0-7.1,3.185-7.1,7.099v13.472c0,1.076,0.875,1.952,1.952,1.952h4.57
			c1.076,0,1.952-0.875,1.952-1.952v-3.297h6.071v3.297c0,1.076,0.875,1.952,1.95,1.952h4.573c1.075,0,1.95-0.875,1.95-1.952V53.113
			C89.463,49.199,86.278,46.014,82.364,46.014z M85.561,64.635H70.347V53.113c0-1.762,1.434-3.196,3.197-3.196h8.82
			c1.763,0,3.197,1.434,3.197,3.196V64.635z"/>
	</g>
</g>
<g>
	<defs>
		<path id="SVGID_00000036232393368939001040000013934765103512930704_" d="M113.574,66.796c8.61,0,15.59-6.98,15.59-15.592
			c0-8.609-6.98-15.589-15.59-15.589c-8.61,0-15.591,6.98-15.591,15.589C97.983,59.817,104.964,66.796,113.574,66.796
			L113.574,66.796z M113.574,66.796"/>
	</defs>
	
		<use xlink:href="#SVGID_00000036232393368939001040000013934765103512930704_"  style="overflow:visible;fill-rule:evenodd;clip-rule:evenodd;fill:#FFCC00;"/>
	<clipPath id="SVGID_00000029755981514189320540000006600746671300289447_">
		<use xlink:href="#SVGID_00000036232393368939001040000013934765103512930704_"  style="overflow:visible;"/>
	</clipPath>
	<g style="clip-path:url(#SVGID_00000029755981514189320540000006600746671300289447_);">
		<path style="fill:#0070AE;" d="M113.579,52.554c0.016,0,0.031,0,0.047,0c1.019-0.007,1.994-0.244,2.897-0.704
			c2.212-1.127,3.575-3.366,3.558-5.843l-0.011-1.598c-0.013-1.59-0.644-3.081-1.777-4.198c-1.134-1.117-2.584-1.712-4.222-1.716
			l-1.089,0.007c-1.59,0.013-3.082,0.644-4.201,1.776c-1.116,1.133-1.725,2.633-1.713,4.224l0.012,1.597
			C107.105,49.668,110.016,52.554,113.579,52.554z M111.552,43.01c0.384-0.39,0.916-0.614,1.458-0.618l1.088-0.007
			c0.562,0,1.071,0.207,1.465,0.597c0.395,0.388,0.613,0.904,0.617,1.456l0.012,1.598c0.005,0.696-0.262,1.353-0.753,1.851
			c-0.201,0.204-0.429,0.371-0.679,0.498c-0.36,0.184-0.751,0.278-1.162,0.281c-0.006,0-0.013,0-0.019,0
			c-0.688,0-1.338-0.267-1.831-0.752c-0.498-0.491-0.775-1.144-0.779-1.84l-0.013-1.596
			C110.953,43.923,111.165,43.403,111.552,43.01z"/>
		<path style="fill:#0070AE;" d="M117.984,53.283h-8.82c-3.915,0-7.1,3.185-7.1,7.099v13.472c0,1.076,0.875,1.952,1.952,1.952h4.57
			c1.076,0,1.952-0.875,1.952-1.952v-3.297h6.071v3.297c0,1.076,0.875,1.952,1.95,1.952h4.573c1.075,0,1.95-0.875,1.95-1.952V60.383
			C125.083,56.468,121.898,53.283,117.984,53.283z M121.182,71.904h-15.214V60.383c0-1.762,1.434-3.196,3.197-3.196h8.82
			c1.763,0,3.197,1.434,3.197,3.196V71.904z"/>
	</g>
</g>
<g>
	<defs>
		<path id="SVGID_00000052081300889122034850000012865511214474356105_" d="M42.333,66.796c8.61,0,15.59-6.98,15.59-15.592
			c0-8.609-6.98-15.589-15.59-15.589c-8.61,0-15.591,6.98-15.591,15.589C26.742,59.817,33.723,66.796,42.333,66.796L42.333,66.796z
			 M42.333,66.796"/>
	</defs>
	
		<use xlink:href="#SVGID_00000052081300889122034850000012865511214474356105_"  style="overflow:visible;fill-rule:evenodd;clip-rule:evenodd;fill:#FFCC00;"/>
	<clipPath id="SVGID_00000044148464925521284110000010293275519709135548_">
		<use xlink:href="#SVGID_00000052081300889122034850000012865511214474356105_"  style="overflow:visible;"/>
	</clipPath>
	<g style="clip-path:url(#SVGID_00000044148464925521284110000010293275519709135548_);">
		<path style="fill:#0070AE;" d="M42.339,52.554c0.016,0,0.031,0,0.047,0c1.019-0.007,1.994-0.244,2.897-0.704
			c2.212-1.127,3.575-3.366,3.558-5.843l-0.011-1.598c-0.013-1.59-0.644-3.081-1.777-4.198c-1.134-1.117-2.584-1.712-4.222-1.716
			l-1.089,0.007c-1.59,0.013-3.082,0.644-4.201,1.776c-1.116,1.133-1.725,2.633-1.713,4.224l0.012,1.597
			C35.864,49.668,38.776,52.554,42.339,52.554z M40.311,43.01c0.384-0.39,0.916-0.614,1.458-0.618l1.088-0.007
			c0.562,0,1.071,0.207,1.465,0.597c0.395,0.388,0.613,0.904,0.617,1.456l0.012,1.598c0.005,0.696-0.262,1.353-0.753,1.851
			c-0.201,0.204-0.429,0.371-0.679,0.498c-0.36,0.184-0.751,0.278-1.162,0.281c-0.006,0-0.013,0-0.019,0
			c-0.688,0-1.338-0.267-1.831-0.752c-0.498-0.491-0.775-1.144-0.779-1.84l-0.013-1.596C39.712,43.923,39.924,43.403,40.311,43.01z"
			/>
		<path style="fill:#0070AE;" d="M46.743,53.283h-8.82c-3.915,0-7.1,3.185-7.1,7.099v13.472c0,1.076,0.875,1.952,1.952,1.952h4.57
			c1.076,0,1.952-0.875,1.952-1.952v-3.297h6.071v3.297c0,1.076,0.875,1.952,1.95,1.952h4.573c1.075,0,1.95-0.875,1.95-1.952V60.383
			C53.842,56.468,50.657,53.283,46.743,53.283z M49.941,71.904H34.726V60.383c0-1.762,1.434-3.196,3.197-3.196h8.82
			c1.763,0,3.197,1.434,3.197,3.196V71.904z"/>
	</g>
</g>
</svg>
