<?xml version="1.0" encoding="UTF-8" standalone="no"?>
<svg
   width="200"
   height="198.15244"
   viewBox="0 0 200.00001 198.15244"
   version="1.1"
   id="svg247"
   sodipodi:docname="trace.svg"
   inkscape:version="1.2.1 (9c6d41e410, 2022-07-14)"
   xmlns:inkscape="http://www.inkscape.org/namespaces/inkscape"
   xmlns:sodipodi="http://sodipodi.sourceforge.net/DTD/sodipodi-0.dtd"
   xmlns="http://www.w3.org/2000/svg"
   xmlns:svg="http://www.w3.org/2000/svg">
  <defs
     id="defs251" />
  <sodipodi:namedview
     id="namedview249"
     pagecolor="#ffffff"
     bordercolor="#000000"
     borderopacity="0.25"
     inkscape:showpageshadow="2"
     inkscape:pageopacity="0.0"
     inkscape:pagecheckerboard="0"
     inkscape:deskcolor="#d1d1d1"
     showgrid="false"
     inkscape:zoom="3.3710938"
     inkscape:cx="131.708"
     inkscape:cy="104.12051"
     inkscape:window-width="1920"
     inkscape:window-height="1017"
     inkscape:window-x="-8"
     inkscape:window-y="-8"
     inkscape:window-maximized="1"
     inkscape:current-layer="svg247" />
  <rect
     style="fill:#0184f8;fill-opacity:1;fill-rule:evenodd;stroke-width:1.09722"
     id="rect476"
     width="200"
     height="198.15244"
     x="0"
     y="0" />
  <path
     d="m 101.83088,61.570621 c -11.239051,1.85449 -21.178717,7.137687 -31.531011,16.759707 -4.729652,4.396436 -5.645219,4.885361 -14.013784,7.492704 -13.675118,4.259412 -15.085839,4.859669 -17.961001,7.642183 -9.207834,8.911985 -11.431355,31.867345 -3.411577,35.218975 2.876718,1.20129 18.648454,1.582 19.337465,0.46635 2.096618,-3.39212 -1.845148,-6.76554 -8.166922,-6.98977 -7.734052,-0.27326 -8.483011,-0.77387 -8.483011,-5.66779 0,-14.14848 4.218928,-18.387645 23.259768,-23.372659 5.941066,-1.554752 7.013899,-2.149559 12.044069,-6.680683 3.037099,-2.735023 7.555765,-6.27584 10.040877,-7.867961 3.012963,-1.929231 4.656469,-3.543931 4.930516,-4.840984 1.72136,-8.15213 11.365958,-11.943637 15.242331,-5.991672 0.28027,0.430535 2.91253,0.712368 5.84919,0.625949 20.5738,-0.600257 36.31439,4.802836 43.61246,14.970615 0.9724,1.354666 2.73424,3.599985 3.91607,4.989686 1.84982,2.176808 2.3333,3.849119 3.4871,12.067429 1.87551,13.35202 1.82724,14.36101 -0.8019,16.81887 -3.65526,3.41703 -3.94566,8.68154 -0.47958,8.68154 7.92012,0 12.36327,-8.74071 10.00506,-19.68314 -0.57379,-2.66262 -1.28382,-8.289928 -1.57733,-12.504963 l -0.53408,-7.663983 -6.87532,-7.128345 c -4.22516,-4.380865 -6.87843,-7.766751 -6.88466,-8.785086 -0.0148,-2.392464 -1.11176,-2.957687 -9.35264,-4.81607 -19.67146,-4.436142 -31.17522,-5.469269 -41.65209,-3.740902 m -8.512591,9.312938 c -2.766166,2.766165 -2.742031,6.820042 0.05372,9.018649 4.193236,3.298689 9.626691,0.730274 9.626691,-4.550587 0,-5.386744 -5.994006,-8.153687 -9.68041,-4.468062 m 10.13819,8.539844 c -0.76842,0.562109 -2.87672,3.452063 -4.684493,6.422985 l -3.287789,5.401535 -6.412864,0.226556 c -10.822534,0.383044 -9.458525,4.340381 1.60925,4.666591 l 7.533966,0.222663 2.42983,-3.531474 c 1.33598,-1.941687 2.68987,-3.530695 3.0083,-3.530695 0.78633,0 7.51138,6.898675 7.08319,7.266148 -0.18763,0.16038 -2.09273,1.289268 -4.23372,2.509246 -5.21313,2.969362 -5.03485,2.475772 -5.04886,14.009112 -0.0125,10.66683 0.38304,12.0285 3.49177,12.0285 2.95457,0 3.50344,-1.47768 3.50344,-9.4305 v -7.56199 l 6.03372,-3.24419 c 12.26673,-6.595825 12.35081,-7.620389 1.5166,-18.45538 -8.08673,-8.085953 -9.77072,-9.025656 -12.54234,-6.999107 M 69.627986,103.60263 c -12.736194,4.60898 -15.895524,21.43486 -5.667797,30.18881 10.572622,9.05057 25.691938,3.73623 28.806112,-10.12574 2.891511,-12.86777 -10.627898,-24.5903 -23.138315,-20.06307 m 57.522694,0.54965 c -14.70435,6.66979 -13.77244,27.6819 1.46989,33.13015 13.57546,4.85266 27.73172,-9.6991 22.23442,-22.85571 -4.14263,-9.91475 -14.55097,-14.42641 -23.70431,-10.27444 m -56.520708,6.18475 c -13.251591,6.56001 -3.882597,26.36694 9.579978,20.25537 8.68699,-3.94332 8.68699,-16.35486 0,-20.29819 -4.187007,-1.9012 -5.66624,-1.89419 -9.579978,0.0428 m 59.861438,-0.71314 c -9.95602,2.87983 -9.5286,19.00892 0.57612,21.72993 8.56709,2.30682 16.9995,-6.41754 13.96474,-14.44899 -2.30216,-6.09133 -8.28993,-9.0895 -14.54086,-7.28094"
     stroke="none"
     fill="#edf8fa"
     fill-rule="evenodd"
     id="path243"
     style="stroke-width:0.778544" />
</svg>
