<?xml version="1.0" encoding="iso-8859-1"?>
<!-- Generator: Adobe Illustrator 28.1.0, SVG Export Plug-In . SVG Version: 6.00 Build 0)  -->
<svg version="1.1" id="Ebene_1" xmlns="http://www.w3.org/2000/svg" xmlns:xlink="http://www.w3.org/1999/xlink" x="0px" y="0px"
	 viewBox="0 0 155.906 155.906" style="enable-background:new 0 0 155.906 155.906;" xml:space="preserve">
<rect x="58.465" y="36.85" style="fill:#FFCC00;" width="38.976" height="53.858"/>
<path style="fill:#0070AE;" d="M106.299,28.346H49.606v70.866h21.908v26.436c0,1.055,0.855,1.911,1.911,1.911h9.055
	c1.056,0,1.912-0.856,1.912-1.911V99.213h21.907V28.346z M80.57,123.737h-5.234V99.213h5.234V123.737z M102.456,95.387H53.449
	V32.171h49.007V95.387z"/>
<g>
	<path style="fill:#0070AE;" d="M70.694,63.539c0,0.06,0.02,0.1,0.08,0.16c0.82,0.68,1.54,1.5,1.54,3
		c0,2.661-1.98,4.001-4.181,4.001h-5.001c-0.5,0-1-0.24-1-0.9V57.678c0-0.66,0.5-0.9,1-0.9h4.701c2.181,0,4.141,1.26,4.141,3.961
		c0,1.44-0.56,2.1-1.18,2.64C70.734,63.439,70.694,63.499,70.694,63.539z M67.833,62.699c1.081,0,1.98-0.68,1.98-1.96
		s-0.9-1.96-1.98-1.96h-3.4c-0.14,0-0.18,0.04-0.18,0.18v3.561c0,0.14,0.04,0.18,0.18,0.18H67.833z M64.432,64.699
		c-0.14,0-0.18,0.04-0.18,0.18v3.641c0,0.14,0.04,0.18,0.18,0.18h3.701c1.1,0,2-0.68,2-2s-0.9-2-2-2H64.432z"/>
	<path style="fill:#0070AE;" d="M74.052,65.46c-0.64,0-0.88-0.46-0.88-0.96c0-0.521,0.24-0.94,0.88-0.94h2.44
		c0.141,0,0.181-0.06,0.181-0.18v-2.34c0-0.66,0.5-0.9,1-0.9c0.52,0,1,0.24,1,0.9v2.34c0,0.12,0.06,0.18,0.18,0.18h2.421
		c0.66,0,0.9,0.42,0.9,0.94c0,0.5-0.24,0.96-0.9,0.96h-2.421c-0.12,0-0.18,0.04-0.18,0.18v2.44c0,0.64-0.48,0.88-1,0.88
		c-0.5,0-1-0.24-1-0.88v-2.44c0-0.14-0.04-0.18-0.181-0.18H74.052z"/>
	<path style="fill:#0070AE;" d="M88.893,65.28c-0.1-0.18-0.16-0.18-0.32-0.18h-2.5c-0.141,0-0.18,0.04-0.18,0.18v4.601
		c0,0.72-0.561,0.9-1.061,0.9s-1.061-0.18-1.061-0.9V57.678c0-0.66,0.5-0.9,1-0.9h5.001c2.201,0,4.001,1.34,4.001,4.161
		c0,2.201-1.02,3.421-2.54,3.981c-0.08,0.02-0.101,0.08-0.101,0.14c0,0.04,0.021,0.08,0.021,0.08l2.44,4.061
		c0.12,0.2,0.18,0.4,0.18,0.56c0,0.521-0.6,1.021-1.14,1.021c-0.28,0-0.58-0.14-0.82-0.54L88.893,65.28z M89.773,63.099
		c1.101,0,1.821-0.72,1.821-2.161c0-1.44-0.721-2.16-1.821-2.16h-3.7c-0.141,0-0.18,0.04-0.18,0.18v3.961
		c0,0.14,0.039,0.18,0.18,0.18H89.773z"/>
</g>
<path style="fill:#0070AE;" d="M93.774,53.916H62.132v0c0-1.049,0.85-1.899,1.899-1.899h27.844
	C92.923,52.016,93.774,52.867,93.774,53.916L93.774,53.916z"/>
<path style="fill:#0070AE;" d="M93.774,73.643H62.132l0,0c0,1.049,0.85,1.899,1.899,1.899h27.844
	C92.923,75.543,93.774,74.692,93.774,73.643L93.774,73.643z"/>
</svg>
