<?xml version="1.0" encoding="UTF-8" standalone="no"?>
<svg
   width="250"
   height="250"
   viewBox="0 0 250 250"
   version="1.1"
   id="svg8"
   sodipodi:docname="frelo_freiburg.svg"
   inkscape:version="1.2.1 (9c6d41e410, 2022-07-14)"
   xmlns:inkscape="http://www.inkscape.org/namespaces/inkscape"
   xmlns:sodipodi="http://sodipodi.sourceforge.net/DTD/sodipodi-0.dtd"
   xmlns="http://www.w3.org/2000/svg"
   xmlns:svg="http://www.w3.org/2000/svg">
  <defs
     id="defs12" />
  <sodipodi:namedview
     id="namedview10"
     pagecolor="#ffffff"
     bordercolor="#000000"
     borderopacity="0.25"
     inkscape:showpageshadow="2"
     inkscape:pageopacity="0.0"
     inkscape:pagecheckerboard="0"
     inkscape:deskcolor="#d1d1d1"
     showgrid="false"
     inkscape:zoom="2.6684744"
     inkscape:cx="94.810729"
     inkscape:cy="142.40347"
     inkscape:window-width="1920"
     inkscape:window-height="1017"
     inkscape:window-x="-8"
     inkscape:window-y="-8"
     inkscape:window-maximized="1"
     inkscape:current-layer="svg8" />
  <rect
     style="fill:#ffffff;fill-rule:evenodd;stroke-width:1.36937"
     id="rect293"
     width="250"
     height="250"
     x="0"
     y="0" />
  <path
     d="m 88.677514,56.212038 c -5.394,2.449 -9.294,7.72 -11.384,15.383 -1.583,5.803 -1.896,6.224 -4.846,6.517 -2.476,0.246 -3.157,0.784 -3.168,2.5 -0.007,1.203 -0.285,3.2 -0.616,4.437 -0.532,1.983 -0.231,2.25 2.532,2.25 2.743,0 3.069,0.282 2.603,2.25 -0.293,1.237 -2.073,10.889002 -3.956,21.449002 -4.335,24.309 -5.725,27.301 -12.685,27.301 -4.018,0 -3.871,-0.199 -5.314,7.185 -0.397,2.032 1.382,2.822 6.282,2.793 8.551,-0.051 16.673,-6.983 18.997,-16.214 0.593,-2.353 2.454,-12.15 4.136,-21.771 1.683,-9.621 3.314,-18.730002 3.626,-20.243002 0.524,-2.539 0.936,-2.75 5.363,-2.75 4.571,0 4.825,-0.146 5.421,-3.125 1.122,-5.612 0.949,-5.875 -3.875,-5.875 -4.896,0 -5.115,-0.369 -3.524,-5.917 1.505,-5.245 4.718,-8.083 9.153,-8.083 3.526996,0 3.823996,-0.234 4.435996,-3.492 0.36,-1.921 0.394,-4.171 0.076,-5 -0.82,-2.137 -8.153996,-1.913 -13.256996,0.405 m 33.068996,21.681 c -2.174,0.757 -4.063,1.383 -4.197,1.391 -0.134,0.008 -1.599,1.887 -3.257,4.175 l -3.013,4.159 0.594,-3.409 c 0.326,-1.876 0.765,-3.972 0.975,-4.66 0.27,-0.882 -1.065,-1.25 -4.541,-1.25 -4.766,0 -4.942,0.104 -5.519,3.25 -6.166996,33.667002 -8.071996,45.391002 -7.484996,46.060002 0.391,0.446 2.885,0.671 5.542996,0.5 l 4.832,-0.31 2.234,-12.264 c 2.793,-15.323 3.64,-17.881002 7.458,-22.513002 2.246,-2.725 4.105,-3.888 6.938,-4.341 3.693,-0.591 3.918,-0.845 4.928,-5.55 0.581,-2.712 1.057,-5.085 1.057,-5.274 0,-1.162 -3.154,-1.145 -6.547,0.036"
     stroke="none"
     fill="#575757"
     fill-rule="evenodd"
     id="path2" />
  <path
     d="m 180.38851,62.049038 c -0.716,4.263 -2.163,12.475 -3.216,18.25 -4.733,25.979002 -5.01,26.854002 -10.051,31.699002 -4.487,4.314 -9.642,6.301 -16.346,6.301 -7.422,0 -11.11,-1.993 -12.412,-6.707 -1.291,-4.679 -0.475,-5.258 7.444,-5.278 11.584,-0.029 20.664,-5.217 22.063,-12.606002 2.062,-10.882 -7.479,-19.008 -19.225,-16.376 -12.721,2.851 -21.369,14.705 -21.336,29.247002 0.02,8.404 2.422,13.751 7.811,17.383 11.804,7.954 33.87,3.549 42.716,-8.529 5.207,-7.109 6.993,-13.565 11.523,-41.634002 0.533,-3.3 1.565,-9.038 2.295,-12.75 l 1.326,-6.75 h -5.645 -5.644 l -1.303,7.75 m 31.623,15.342 c -10.64,2.505 -18.697,11.882 -20.642,24.023002 -2.496,15.582 5.325,26.461 18.924,26.323 13.076,-0.133 24.349,-12.079 25.711,-27.247 1.028,-11.439002 -3.918,-19.944002 -13.224,-22.745002 -5.338,-1.606 -5.438,-1.61 -10.769,-0.354 m -64.808,9.481 c -3.339,1.407 -7.91,7.368 -7.91,10.313 0,2.526 14.476,0.093 16.718,-2.809 1.377,-1.783 1.619,-4.999 0.507,-6.748 -1.268,-1.993 -5.557,-2.341 -9.315,-0.756 m 61.444,2.677 c -4.23,4.524 -5.827,9.149 -5.842,16.917002 -0.015,8.323 2.531,11.833 8.584,11.833 3.165,0 4.307,-0.653 7.341,-4.197 5.835,-6.817 7.726,-18.333002 4.035,-24.581002 -1.704,-2.885 -2.384,-3.222 -6.491,-3.222 -3.887,0 -5.053,0.497 -7.627,3.25 m -166.853996,9.89 c -5.445,1.784002 -12.5,5.188002 -12.5,6.031002 0,0.456 -0.64,0.829 -1.422,0.829 -2.067,0 -10.159,9.621 -13.015,15.474 -3.41,6.99 -4.519,12.778 -4.134,21.576 0.223,5.091 1.022,8.98 2.451,11.938 1.166,2.413 2.12,4.978 2.12,5.7 0,0.722 0.42,1.312 0.933,1.312 0.513,0 1.2,0.844 1.528,1.877 1.669,5.26 16.259,15.599 24.721,17.519 2.903,0.658 3.094,0.362 4.271,-6.617 0.583,-3.459 0.431,-3.766 -2.163,-4.368 -4.082,-0.947 -10.986,-5.115 -14.486,-8.745 -1.678,-1.741 -4.406,-5.985 -6.061,-9.431 -2.699,-5.619 -2.958,-6.98 -2.513,-13.211 0.338,-4.72 1.342,-8.641 3.131,-12.235 5.62,-11.284 13.546,-16.558 26.339,-17.526 7.969,-0.602 7.387,-0.067 8.709,-8.013 l 0.541,-3.250002 -7.725,0.079 c -4.249,0.043 -9.075,0.521 -10.725,1.061"
     stroke="none"
     fill="#b23532"
     fill-rule="evenodd"
     id="path4" />
</svg>
