<?xml version="1.0"?>
<svg xmlns="http://www.w3.org/2000/svg" xmlns:xlink="http://www.w3.org/1999/xlink" viewBox="0 0 16 22" version="1.1">
  <path d="m 7.2,15.2 h 1.6 v 5.6 c 0,0.44183 -0.35817,0.8 -0.8,0.8 -0.44183,0 -0.8,-0.35817 -0.8,-0.8 z" fill="#333333" id="path14" style="fill-rule:evenodd"/>
  <g id="g1526" transform="matrix(0.45417319,0,0,0.45417319,0.48484228,0.4111076)">
    <path fill="var(--operatorbg,#ff834a)" d="m 320.34,384.05 a 16.27,16.27 0 1 1 -16.26,-16.27 16.26,16.26 0 0 1 16.26,16.27" transform="translate(-287.81,-367.78)" id="path951"/>
    <path fill="var(--operatorfg,#fff)" d="m 304.35,370.35 a 4.7,4.7 0 1 1 -3.3,8 l 0.73,-0.76 a 3.5,3.5 0 0 0 2.57,1.08 3.56,3.56 0 0 0 2.59,-1.07 3.62,3.62 0 0 0 0,-5.16 3.55,3.55 0 0 0 -2.59,-1.06 3.64,3.64 0 0 0 -3.65,3.64 h 1.57 l -2.1,2.1 -0.05,-0.07 -2,-2 h 1.56 a 4.69,4.69 0 0 1 4.7,-4.7 z m -0.51,2.62 h 0.78 v 2.2 l 1.83,1.1 -0.39,0.64 -2.22,-1.35 z m 8.16,12.49 a 0.67,0.67 0 0 0 -0.24,0 l -0.83,0.23 -0.89,-2.16 a 2,2 0 0 0 -1.75,-1.17 h -8.38 a 2,2 0 0 0 -1.75,1.17 l -0.88,2.15 -0.83,-0.22 a 0.67,0.67 0 0 0 -0.24,0 0.73,0.73 0 0 0 -0.73,0.78 v 0.46 a 1,1 0 0 0 0.95,0.95 h 0.06 l -0.13,0.31 a 7,7 0 0 0 -0.45,2.26 v 4.31 a 1,1 0 0 0 0.95,1 H 298 a 1,1 0 0 0 0.95,-1 v -1.06 h 10.28 v 1.06 a 1,1 0 0 0 1,1 h 1.15 a 1,1 0 0 0 0.95,-1 v -4.31 a 7,7 0 0 0 -0.45,-2.26 l -0.13,-0.31 h 0.08 a 1,1 0 0 0 0.95,-0.95 v -0.46 A 0.74,0.74 0 0 0 312,385.46 Z m -14.05,1.66 1.35,-3.28 a 1.22,1.22 0 0 1 1,-0.71 h 7.52 a 1.23,1.23 0 0 1 1.05,0.71 l 1.34,3.28 a 0.47,0.47 0 0 1 -0.47,0.7 h -11.35 a 0.47,0.47 0 0 1 -0.47,-0.7 z m 0.6,4.71 a 1.23,1.23 0 1 1 1.22,-1.23 1.23,1.23 0 0 1 -1.25,1.23 z m 11.22,0 a 1.23,1.23 0 1 1 1.23,-1.23 1.23,1.23 0 0 1 -1.26,1.23 z" transform="translate(-287.81,-367.78)" id="path953"/>
  </g>
  <circle cx="12" cy="2.4" r="2.8" fill="var(--badgecolor, #008854)" style="stroke: var(--badgestroke, #fff)" stroke-width=".8"/>
</svg>
