<?xml version="1.0" encoding="iso-8859-1"?>
<!-- Generator: Adobe Illustrator 28.1.0, SVG Export Plug-In . SVG Version: 6.00 Build 0)  -->
<svg version="1.1" id="Ebene_1" xmlns="http://www.w3.org/2000/svg" xmlns:xlink="http://www.w3.org/1999/xlink" x="0px" y="0px"
	 viewBox="0 0 155.906 155.906" style="enable-background:new 0 0 155.906 155.906;" xml:space="preserve">
<path style="fill:#FFCC00;" d="M134.646,30.3c0-0.498-0.193-0.948-0.501-1.293c-0.025-0.028-0.045-0.06-0.072-0.087
	s-0.059-0.047-0.087-0.072c-0.345-0.308-0.795-0.501-1.293-0.501c0,0,0,0,0,0s0,0,0,0H74.898h-1.844h-49.84
	c-1.077,0-1.954,0.876-1.954,1.953c0,0,0,0,0,0s0,0,0,0v84.158v1.844v9.303c0,1.077,0.877,1.954,1.954,1.954h49.84h1.844h9.303
	c1.077,0,1.954-0.877,1.954-1.954s-0.877-1.953-1.954-1.953h-9.303h-1.844H25.167v-7.35v-1.844V32.254h47.887h1.844h55.84v20.715
	v1.844v9.303c0,1.077,0.877,1.954,1.954,1.954s1.953-0.877,1.953-1.954v-9.303v-1.844V30.3C134.646,30.3,134.646,30.3,134.646,30.3
	C134.646,30.3,134.646,30.3,134.646,30.3z"/>
<g>
	<path style="fill:#0070AE;" d="M112.786,79.986c-2.564,0-5.076,0.443-7.467,1.317l-0.043,0.016l-0.02-0.041l-5.64-11.916v-9.643
		h10.1c2.757,0,4.999-2.243,4.999-5c0-1.091-0.889-1.979-1.98-1.979s-1.979,0.888-1.979,1.979c0,0.574-0.466,1.041-1.04,1.041
		h-12.08c-1.091,0-1.979,0.888-1.979,1.979V68.86L82.672,79.116c-0.712,0.564-1.605,0.875-2.515,0.875h-5.71l-0.014-0.028
		l-5.207-10.992c-0.466-0.986-1.649-1.411-2.636-0.942c-0.985,0.467-1.408,1.65-0.942,2.636l13.81,29.151h-5.35l-0.004-0.045
		c-0.499-5.391-2.995-10.388-7.029-14.069c-4.04-3.687-9.256-5.718-14.686-5.718c-12.027,0-21.811,9.784-21.811,21.81
		s9.785,21.81,21.811,21.81c8.921,0,16.849-5.327,20.197-13.57l0.01-0.024c0.002-0.006,0.004-0.012,0.006-0.018
		c0.005-0.017,0.011-0.032,0.017-0.048c0.222-0.554,0.402-1.047,0.549-1.508c0.005-0.016,0.008-0.033,0.011-0.05
		c0.003-0.016,0.005-0.032,0.01-0.048c0.466-1.48,0.774-2.999,0.915-4.518l0.004-0.045h8.479c0.763,0,1.466-0.447,1.792-1.137
		l13.266-28.185l0.045,0.096l4.012,8.469l-0.039,0.023c-6.591,3.924-10.686,11.11-10.686,18.753c0,12.026,9.784,21.81,21.81,21.81
		s21.81-9.784,21.81-21.81S124.811,79.986,112.786,79.986z M52.388,103.776h17.739l-0.006,0.056c-0.135,1.18-0.381,2.33-0.732,3.42
		c-0.012,0.038-0.026,0.075-0.041,0.113c-0.013,0.031-0.025,0.064-0.036,0.096c-0.169,0.502-0.342,0.956-0.531,1.391
		c-2.81,6.558-9.245,10.794-16.394,10.794c-9.843,0-17.852-8.008-17.852-17.851c0-9.843,8.008-17.85,17.852-17.85
		c4.363,0,8.579,1.621,11.873,4.565c3.286,2.938,5.367,6.934,5.86,11.251l0.006,0.056h-17.74c-1.092,0-1.98,0.888-1.98,1.979
		S51.296,103.776,52.388,103.776z M92.173,76.778L82.58,97.159l-0.045-0.096L76.323,83.95h3.833c1.796,0,3.561-0.613,4.971-1.726
		l7.136-5.639L92.173,76.778z M112.786,119.647c-9.843,0-17.851-8.008-17.851-17.851c0-6.1,3.226-11.905,8.421-15.15l0.048-0.03
		l0.023,0.051l2.614,5.515l4.956,10.462c0.458,0.965,1.666,1.396,2.637,0.943c0.477-0.226,0.838-0.625,1.017-1.124
		c0.177-0.497,0.15-1.034-0.075-1.513l-7.597-16.033l0.053-0.018c1.851-0.633,3.787-0.953,5.754-0.953
		c9.843,0,17.851,8.007,17.851,17.85C130.637,111.638,122.629,119.647,112.786,119.647z"/>
	<path style="fill:#0070AE;" d="M62.412,65.839h17.763c1.09,0,1.978-0.887,1.978-1.977v-3.015c0-2.753-2.24-4.993-4.993-4.993
		H62.412c-2.753,0-4.993,2.24-4.993,4.993C57.419,63.6,59.659,65.839,62.412,65.839z M62.412,59.809h14.747
		c0.573,0,1.039,0.466,1.039,1.039v1.039H62.412c-0.573,0-1.039-0.466-1.039-1.039S61.839,59.809,62.412,59.809z"/>
</g>
</svg>
