<?xml version="1.0" encoding="UTF-8" standalone="no"?>
<!-- Created with Inkscape (http://www.inkscape.org/) -->

<svg
   version="1.0"
   width="750"
   height="750"
   id="svg1978"
   sodipodi:docname="sap_walldorf.svg"
   inkscape:version="1.2.1 (9c6d41e410, 2022-07-14)"
   xmlns:inkscape="http://www.inkscape.org/namespaces/inkscape"
   xmlns:sodipodi="http://sodipodi.sourceforge.net/DTD/sodipodi-0.dtd"
   xmlns="http://www.w3.org/2000/svg"
   xmlns:svg="http://www.w3.org/2000/svg">
  <sodipodi:namedview
     id="namedview8"
     pagecolor="#ffffff"
     bordercolor="#000000"
     borderopacity="0.25"
     inkscape:showpageshadow="2"
     inkscape:pageopacity="0.0"
     inkscape:pagecheckerboard="0"
     inkscape:deskcolor="#d1d1d1"
     showgrid="false"
     inkscape:zoom="1.0729879"
     inkscape:cx="363.471"
     inkscape:cy="376.51868"
     inkscape:window-width="1920"
     inkscape:window-height="1017"
     inkscape:window-x="-8"
     inkscape:window-y="-8"
     inkscape:window-maximized="1"
     inkscape:current-layer="layer1" />
  <defs
     id="defs1980" />
  <g
     transform="translate(-443.56491,727.99146)"
     id="layer1">
    <rect
       style="fill:#ffffff;fill-opacity:1;fill-rule:evenodd;stroke-width:1.78527"
       id="rect903"
       width="750"
       height="750"
       x="443.56491"
       y="-727.99146" />
    <path
       d="M 446.79872,-168.02763 H 822.11906 L 1190.1658,-535.9143 H 446.79872 v 367.88667"
       style="fill:#008dd7;fill-opacity:1;fill-rule:nonzero;stroke:none"
       id="path25030" />
    <path
       d="m 887.58191,-466.77099 -72.7365,-0.0145 v 174.0148 l -64.00812,-174.0148 H 688.2839 l -55.27974,145.53119 c -5.81892,-36.6592 -43.6419,-49.3299 -74.19123,-58.81474 -18.91149,-6.37172 -40.73244,-15.74018 -39.27771,-25.98148 0,-8.49562 10.18311,-16.29297 32.00406,-15.12919 14.5473,0.74191 27.63987,1.94934 53.82501,14.43092 l 26.18514,-44.32562 c -24.73041,-11.98697 -56.73447,-19.56612 -82.91961,-19.59521 v 0 c -32.00406,0 -58.1892,10.06673 -74.19123,26.75248 -10.18311,11.60875 -17.45676,26.34516 -17.45676,42.68178 0,22.47558 8.72838,38.41942 24.73041,51.11921 16.00203,10.69227 33.45879,17.66042 50.91555,22.76653 20.36622,6.29898 36.36825,11.75422 36.36825,23.45024 0,4.32055 -1.45473,8.24832 -4.36419,11.40509 -5.81892,5.22248 -13.09257,7.20091 -24.73041,7.44822 -20.36622,0.37822 -34.91352,-2.86582 -59.64393,-17.31129 l -23.27568,44.87842 c 24.73041,13.90722 53.82501,22.0828 82.91961,22.0828 l 4.36419,-0.0291 c 24.73041,-0.46552 46.55136,-7.8119 62.55339,-21.16633 1.45473,-0.78555 1.45473,-1.51292 2.90946,-2.24028 l -7.27365,19.53702 h 66.91758 l 10.18311,-33.86611 c 11.63784,3.89868 24.73041,6.16805 39.27771,6.16805 14.5473,0 26.18514,-2.19664 37.82298,-5.89165 l 11.63784,33.58971 h 107.65002 v -70.24891 h 24.73041 c 56.73447,0 90.19326,-29.10915 90.19326,-77.92988 0,-54.34872 -32.00406,-79.29734 -103.28583,-79.29734 z m -168.74868,148.9789 c -8.72838,0 -16.00203,-1.51292 -23.27568,-4.16052 l 23.27568,-73.20202 v 0 l 23.27568,73.43477 c -7.27365,2.50214 -14.5473,3.92777 -23.27568,3.92777 z m 173.11287,-42.09988 h -16.00203 v -59.0184 h 16.00203 c 21.82095,0 39.27771,7.14272 39.27771,29.21098 0,22.69379 -17.45676,29.80742 -39.27771,29.80742"
       style="fill:#ffffff;fill-rule:evenodd;stroke:none"
       id="path25032" />
  </g>
</svg>
