<?xml version="1.0" encoding="UTF-8" standalone="no"?>
<svg
   viewBox="0 0 119.99999 120"
   version="1.1"
   id="svg42"
   sodipodi:docname="publibike.svg"
   width="119.99999"
   height="119.99999"
   inkscape:version="1.2.1 (9c6d41e410, 2022-07-14)"
   xmlns:inkscape="http://www.inkscape.org/namespaces/inkscape"
   xmlns:sodipodi="http://sodipodi.sourceforge.net/DTD/sodipodi-0.dtd"
   xmlns="http://www.w3.org/2000/svg"
   xmlns:svg="http://www.w3.org/2000/svg">
  <sodipodi:namedview
     id="namedview44"
     pagecolor="#ffffff"
     bordercolor="#000000"
     borderopacity="0.25"
     inkscape:showpageshadow="2"
     inkscape:pageopacity="0.0"
     inkscape:pagecheckerboard="0"
     inkscape:deskcolor="#d1d1d1"
     showgrid="false"
     inkscape:zoom="5.8285714"
     inkscape:cx="86.642157"
     inkscape:cy="66.568628"
     inkscape:window-width="1920"
     inkscape:window-height="1017"
     inkscape:window-x="-8"
     inkscape:window-y="-8"
     inkscape:window-maximized="1"
     inkscape:current-layer="Layout" />
  <defs
     id="defs4">
    <style
       id="style2">.cls-1,.cls-3{fill:#ad1380;}.cls-2{fill:#fff;}.cls-3{fill-rule:evenodd;}</style>
  </defs>
  <title
     id="title6">Element 1</title>
  <g
     id="Ebene_2"
     data-name="Ebene 2"
     transform="matrix(0.51623994,0,0,0.51623994,5.5490191,49.755188)">
    <g
       id="Layout">
      <rect
         style="fill:#ffffff;fill-rule:evenodd;stroke-width:2.53741"
         id="rect304"
         width="232.45004"
         height="232.45004"
         x="-10.748915"
         y="-96.379967" />
      <path
         class="cls-1"
         d="m 65.56,13.95 a 9.15,9.15 0 0 1 -0.7,3.7 7.23,7.23 0 0 1 -1.93,2.64 8.33,8.33 0 0 1 -2.93,1.59 11.64,11.64 0 0 1 -3.57,0.54 H 51.21 V 32.2 H 45.45 V 5.68 h 11.17 a 11.25,11.25 0 0 1 3.54,0.54 8.18,8.18 0 0 1 2.84,1.59 7.23,7.23 0 0 1 1.89,2.6 8.78,8.78 0 0 1 0.67,3.54 z m -5.88,0 a 4.37,4.37 0 0 0 -0.42,-2 3.91,3.91 0 0 0 -1.14,-1.35 4.66,4.66 0 0 0 -1.68,-0.77 8.44,8.44 0 0 0 -2,-0.24 h -3.27 v 8.83 h 2.08 a 19.41,19.41 0 0 0 2.36,-0.14 6.07,6.07 0 0 0 2.06,-0.6 3.67,3.67 0 0 0 1.46,-1.33 4.39,4.39 0 0 0 0.55,-2.35 z"
         id="path8" />
      <path
         class="cls-1"
         d="M 81.75,32.19 81.63,28.85 A 6.69,6.69 0 0 1 79,31.7 7.61,7.61 0 0 1 75.22,32.63 8,8 0 0 1 72.14,32.09 5.24,5.24 0 0 1 70,30.58 6.24,6.24 0 0 1 68.83,28.22 11.77,11.77 0 0 1 68.45,25.12 V 12.24 H 74 v 11.65 a 15,15 0 0 0 0.1,1.77 4.34,4.34 0 0 0 0.44,1.51 2.76,2.76 0 0 0 1,1.07 3.27,3.27 0 0 0 1.77,0.42 3.44,3.44 0 0 0 3.16,-1.73 5.28,5.28 0 0 0 0.64,-1.75 11,11 0 0 0 0.18,-2 v -11 h 5.49 V 27.7 q 0,1.11 0,2.25 0,1.14 0.16,2.25 z"
         id="path10" />
      <path
         class="cls-1"
         d="m 111.45,22.14 a 16.61,16.61 0 0 1 -0.46,3.91 10,10 0 0 1 -1.45,3.34 7.57,7.57 0 0 1 -2.54,2.34 8.58,8.58 0 0 1 -7.63,0 6,6 0 0 1 -2.58,-2.8 l -0.08,3.26 h -5 V 3.54 h 5.48 v 12 a 5.53,5.53 0 0 1 2.44,-2.74 7.2,7.2 0 0 1 3.6,-1 8,8 0 0 1 3.84,0.85 7.37,7.37 0 0 1 2.51,2.35 9.54,9.54 0 0 1 1.43,3.3 17,17 0 0 1 0.44,3.84 z m -5.88,0 a 15.73,15.73 0 0 0 -0.16,-2.21 7.09,7.09 0 0 0 -0.62,-2.09 4,4 0 0 0 -1.29,-1.55 3.68,3.68 0 0 0 -2.19,-0.6 3.53,3.53 0 0 0 -2.15,0.62 4.34,4.34 0 0 0 -1.31,1.57 7.66,7.66 0 0 0 -0.67,2.12 12.59,12.59 0 0 0 -0.2,2.17 13.24,13.24 0 0 0 0.2,2.2 7.93,7.93 0 0 0 0.68,2.15 4.64,4.64 0 0 0 1.31,1.63 3.29,3.29 0 0 0 2.1,0.66 3.52,3.52 0 0 0 2.19,-0.63 4.48,4.48 0 0 0 1.31,-1.61 7,7 0 0 0 0.63,-2.15 16.56,16.56 0 0 0 0.17,-2.28 z"
         id="path12" />
      <path
         class="cls-1"
         d="M 115.3,32.19 V 3.54 h 5.48 v 28.65 z"
         id="path14" />
      <path
         class="cls-1"
         d="M 125.75,8.54 V 4.13 h 5.48 v 4.41 z m 0,23.65 v -20 h 5.48 v 20 z"
         id="path16" />
      <path
         class="cls-1"
         d="m 156.44,24.72 a 7.15,7.15 0 0 1 -0.91,3.82 6.43,6.43 0 0 1 -2.41,2.28 10,10 0 0 1 -3.38,1.09 26.47,26.47 0 0 1 -3.84,0.28 h -9.7 V 5.68 H 147 a 16.32,16.32 0 0 1 3.2,0.32 8.91,8.91 0 0 1 2.81,1.06 5.65,5.65 0 0 1 2,2 6.12,6.12 0 0 1 0.76,3.18 5.87,5.87 0 0 1 -1.4,4.09 7.16,7.16 0 0 1 -3.84,2.11 8,8 0 0 1 4.19,2 5.55,5.55 0 0 1 1.72,4.28 z M 149.92,13 a 3.38,3.38 0 0 0 -0.42,-1.74 3.27,3.27 0 0 0 -1.07,-1.13 4.49,4.49 0 0 0 -1.53,-0.59 8.73,8.73 0 0 0 -1.75,-0.18 h -3.3 v 7.55 h 2.82 a 10.29,10.29 0 0 0 1.92,-0.18 5.17,5.17 0 0 0 1.67,-0.61 3.37,3.37 0 0 0 1.19,-1.21 3.7,3.7 0 0 0 0.47,-1.91 z m 0.56,11.49 a 3.86,3.86 0 0 0 -0.54,-2.16 3.73,3.73 0 0 0 -1.41,-1.33 6.16,6.16 0 0 0 -2,-0.61 15.26,15.26 0 0 0 -2.17,-0.16 h -2.54 v 8.27 h 2.78 a 12.21,12.21 0 0 0 2,-0.18 6.05,6.05 0 0 0 1.89,-0.63 3.88,3.88 0 0 0 1.37,-1.25 3.53,3.53 0 0 0 0.62,-1.98 z"
         id="path18" />
      <path
         class="cls-1"
         d="M 160.69,8.54 V 4.13 h 5.49 v 4.41 z m 0,23.65 v -20 h 5.49 v 20 z"
         id="path20" />
      <path
         class="cls-1"
         d="m 184.38,32.19 -7.75,-10.14 v 10.14 h -5.49 V 3.54 h 5.49 v 16.89 l 7.23,-8.19 h 6.4 l -8.11,8.9 8.9,11 z"
         id="path22" />
      <path
         class="cls-1"
         d="m 196.77,23.61 a 5.75,5.75 0 0 0 0.46,2.34 5,5 0 0 0 1.27,1.75 6,6 0 0 0 1.89,1.11 6.7,6.7 0 0 0 2.35,0.4 15.53,15.53 0 0 0 3.08,-0.34 10.8,10.8 0 0 0 2.92,-1 l 0.24,3.7 a 16.88,16.88 0 0 1 -3.62,0.83 30.43,30.43 0 0 1 -3.73,0.24 q -5.05,0 -7.67,-2.76 -2.62,-2.76 -2.62,-7.73 A 11.54,11.54 0 0 1 192,18 a 9.89,9.89 0 0 1 2,-3.26 8.93,8.93 0 0 1 3.08,-2.15 10,10 0 0 1 4,-0.77 9.64,9.64 0 0 1 4.09,0.79 7.34,7.34 0 0 1 2.78,2.21 9.21,9.21 0 0 1 1.57,3.34 16.66,16.66 0 0 1 0.5,4.19 v 1.23 z M 205,20.67 a 10.74,10.74 0 0 0 -0.18,-1.93 5.52,5.52 0 0 0 -0.64,-1.77 4,4 0 0 0 -1.18,-1.31 3.24,3.24 0 0 0 -1.87,-0.52 3.5,3.5 0 0 0 -2,0.54 4.73,4.73 0 0 0 -1.35,1.32 5.69,5.69 0 0 0 -0.77,1.79 7.7,7.7 0 0 0 -0.24,1.85 z"
         id="path24" />
      <rect
         class="cls-2"
         width="37.869999"
         height="37.869999"
         rx="2.29"
         ry="2.29"
         id="rect26"
         x="0"
         y="0" />
      <path
         class="cls-3"
         d="m 13.75,24.77 a 2.55,2.55 0 0 1 1,-1.83 L 12,15.52 8.84,19.82 a 7,7 0 0 1 2.61,4.95 z"
         id="path28" />
      <path
         class="cls-3"
         d="m 26.35,25.3 a 7,7 0 0 1 3.13,-5.85 l -0.79,-1.63 v -0.09 l -1.78,-5.11 -8.5,10.9 a 2.56,2.56 0 1 1 -4.55,2.24 H 11.5 A 7,7 0 0 1 0,30.69 v 4.89 a 2.29,2.29 0 0 0 2.29,2.29 h 33.29 a 2.29,2.29 0 0 0 2.29,-2.29 V 30.69 A 7,7 0 0 1 26.35,25.3 Z"
         id="path30" />
      <path
         class="cls-3"
         d="m 7.84,21.26 -2.3,3.13 a 1.38,1.38 0 0 1 0.23,0.39 H 9.72 A 5.25,5.25 0 0 0 7.84,21.26 Z"
         id="path32" />
      <path
         class="cls-3"
         d="M 35.58,0 H 2.29 A 2.29,2.29 0 0 0 0,2.29 V 19.9 a 7,7 0 0 1 8.08,-0.64 l 3.56,-4.85 -0.22,-0.62 0.27,-0.1 -2.17,-6 A 2.2,2.2 0 0 1 9.02,7.82 1.55,1.55 0 0 1 7.15,6.57 v 0 a 0.53,0.53 0 0 1 0.5,-0.5 h 5.8 a 0.5,0.5 0 1 1 0,1 H 11.6 a 4.49,4.49 0 0 0 -1.19,0.2 l 2.2,6.08 0.27,-0.1 3.32,9.16 h 0.09 a 2.55,2.55 0 0 1 0.87,0.15 l 9.1,-11.7 -0.26,-0.77 0.28,-0.1 -0.87,-2.5 a 0.49,0.49 0 0 1 0,-0.38 L 26.15,5.59 H 24 a 0.5,0.5 0 1 1 0,-1 h 3 a 0.49,0.49 0 0 1 0.44,0.71 l -1,2 0.8,2.31 0.27,-0.1 2.65,7.6 0.76,1.56 a 7,7 0 0 1 7,1.17 V 2.29 A 2.29,2.29 0 0 0 35.58,0 Z M 36,15.2 a 0.29,0.29 0 0 1 -0.3,0.28 H 30.74 A 0.29,0.29 0 0 1 30.46,15.29 L 28.56,10 a 0.27,0.27 0 0 1 0,-0.25 0.3,0.3 0 0 1 0.24,-0.12 h 6.83 a 0.29,0.29 0 0 1 0.3,0.28 z"
         id="path34" />
      <path
         class="cls-3"
         d="M 4.49,30.55 A 5.26,5.26 0 0 0 9.72,25.76 H 5.78 A 1.38,1.38 0 1 1 4.49,23.9 H 4.67 L 7,20.7 A 5.25,5.25 0 0 0 0,22.58 V 28 a 5.25,5.25 0 0 0 4.49,2.55 z"
         id="path36" />
      <path
         class="cls-3"
         d="m 33.38,20 a 5.22,5.22 0 0 0 -2,0.38 l 1.81,3.52 h 0.15 a 1.38,1.38 0 1 1 -1,0.46 L 30.53,20.84 A 5.25,5.25 0 1 0 37.87,28 V 22.58 A 5.25,5.25 0 0 0 33.38,20 Z"
         id="path38" />
    </g>
  </g>
</svg>
