<?xml version="1.0" encoding="iso-8859-1"?>
<!-- Generator: Adobe Illustrator 28.1.0, SVG Export Plug-In . SVG Version: 6.00 Build 0)  -->
<svg version="1.1" id="Ebene_1" xmlns="http://www.w3.org/2000/svg" xmlns:xlink="http://www.w3.org/1999/xlink" x="0px" y="0px"
	 viewBox="0 0 155.906 155.906" style="enable-background:new 0 0 155.906 155.906;" xml:space="preserve">
<path style="fill:#0070AE;" d="M115.187,83.456h-5.015c-1.035,0-1.877,0.842-1.877,1.877c0,1.035,0.842,1.877,1.877,1.877h5.015
	c1.035,0,1.877-0.842,1.877-1.877C117.064,84.298,116.222,83.456,115.187,83.456z"/>
<path style="fill:#FFCC00;" d="M21.224,38.935h76.09c1.077,0,1.95,0.873,1.95,1.95V85.38h-78.04c-1.077,0-1.95-0.873-1.95-1.95
	V40.884C19.275,39.807,20.148,38.935,21.224,38.935z"/>
<path style="fill:#0070AE;" d="M142.447,72.902l-18.429-26.323c-0.359-0.512-0.947-0.818-1.572-0.818h-16.784v-6.002
	c0-3.949-3.213-7.161-7.163-7.161H20.272c-3.949,0-7.162,3.212-7.162,7.161v44.796c0,3.034,1.927,5.749,4.795,6.757l0.471,0.165
	v8.851c0,3.961,3.222,7.183,7.183,7.183h3.774l-0.173,0.847c-0.752,3.674,0.18,7.451,2.556,10.363
	c2.379,2.915,5.893,4.587,9.641,4.587c3.953,0,7.586-1.822,9.969-4.999l0.564-0.753l0.563,0.753
	c2.381,3.177,6.014,4.999,9.968,4.999c3.75,0,7.264-1.671,9.642-4.585c2.377-2.913,3.308-6.691,2.555-10.365l-0.173-0.847h35.979
	l-0.174,0.847c-0.753,3.674,0.177,7.45,2.553,10.361c2.379,2.916,5.894,4.588,9.643,4.588c3.75,0,7.264-1.671,9.643-4.586
	c2.377-2.912,3.308-6.69,2.555-10.364l-0.174-0.847h6.409c1.057,0,1.918-0.86,1.918-1.917v-31.59
	C142.795,73.617,142.672,73.226,142.447,72.902z M16.945,39.759c0-1.834,1.493-3.326,3.327-3.326h78.226
	c1.834,0,3.326,1.492,3.326,3.326V87.88H20.272c-1.835,0-3.327-1.492-3.327-3.325V39.759z M101.825,91.717v11.959H72.589
	l-0.212-0.281c-2.382-3.167-6.011-4.983-9.957-4.983c-3.956,0.004-7.589,1.825-9.967,4.998l-0.564,0.754l-0.564-0.753
	c-2.38-3.173-6.01-4.995-9.96-4.997c-3.952,0-7.584,1.816-9.965,4.982l-0.211,0.28h-5.63c-1.846,0-3.347-1.502-3.347-3.348v-8.611
	H101.825z M41.357,102.247c4.751,0,8.616,3.864,8.616,8.613c0,4.748-3.865,8.611-8.616,8.611c-4.75,0-8.614-3.863-8.614-8.611
	C32.743,106.11,36.607,102.247,41.357,102.247z M71.035,110.86c0,4.748-3.864,8.611-8.614,8.611c-4.75,0-8.614-3.863-8.614-8.611
	c0-4.749,3.864-8.613,8.614-8.613C67.171,102.247,71.035,106.11,71.035,110.86z M116.465,72.086V49.595h4.982l15.748,22.491H116.465
	z M114.548,75.92h24.411v27.755h-6.344l-0.212-0.281c-2.381-3.166-6.011-4.983-9.958-4.983c-3.946,0-7.575,1.816-9.955,4.983
	l-0.211,0.28h-6.617v-54.08h6.968v24.408C112.629,75.06,113.49,75.92,114.548,75.92z M122.445,102.247
	c4.75,0,8.615,3.864,8.615,8.613c0,4.748-3.865,8.611-8.615,8.611c-4.749,0-8.613-3.863-8.613-8.611
	C113.833,106.11,117.696,102.247,122.445,102.247z"/>
</svg>
