<?xml version="1.0"?>
<svg xmlns="http://www.w3.org/2000/svg" xmlns:xlink="http://www.w3.org/1999/xlink" viewBox="0 0 600.995 600.995" version="1.1">
  <g transform="matrix(0.89995836,0,0,-0.89995836,-3.2577047,568.87708)">
    <g id="g3386">
      <path id="path3388" fill="#ffffff" d="m 338.859,594.5 c 7.512,0 15.028,-2.867 20.758,-8.598 1.879,-1.879 3.446,-3.953 4.707,-6.152 l 15.246,-26.157 h 0.071 L 672.742,45.554 c 0.055,-0.097 0.098,-0.195 0.153,-0.293 1.488,-2.394 2.656,-5.043 3.425,-7.91 4.196,-15.656 -5.097,-31.754 -20.757,-35.949 -2.586,-0.695 -5.184,-1.012 -7.739,-1 H 29.758 c -16.215,0 -29.356,13.141 -29.356,29.356 0,5.304 1.414,10.281 3.879,14.578 0.02,0.031 0.035,0.062 0.051,0.097 l 304.367,528.41 c 3.864,6.665 5.653,9.305 9.406,13.059 5.731,5.731 13.243,8.598 20.754,8.598 z"/>
      <path id="path3390" fill="#c1121c" d="m 338.859,587.144 c 7.125,0.051 14.95,-3.59 18.782,-10.406 L 666.934,40.847 c 1.785,-3.648 2.535,-6.82 2.558,-10.449 0,-6.496 -2.875,-12.66 -7.847,-16.84 -4.383,-3.394 -8.536,-5.16 -14.122,-5.16 H 29.617 C 25.848,8.363 22.07,9.269 18.641,11.531 12.188,15.429 8.238,22.414 8.23,29.957 c 0.184,3.894 1.145,8 2.879,10.89 l 309.114,535.981 c 0.027,0.047 0.058,0.094 0.09,0.14 0.031,0.047 0.062,0.094 0.093,0.145 1.098,1.754 2.473,3.305 4.039,4.633 3.59,3.109 8.086,4.976 12.825,5.316 0.531,0.047 1.062,0.078 1.589,0.082 z M 647.523,8.398 h 1.524 -1.555 z M 339.18,480.933 103.477,72.398 h 471.738 z"/>
      <path id="path3394" fill="#000000" d="m 342.805,102.695 33.308,39.785 c 1.848,0.926 3.703,2.774 5.551,2.774 l 6.477,2.777 c 3.703,0.926 7.402,3.703 10.179,6.477 l 23.129,26.828 c 10.176,12.953 28.68,13.879 40.707,3.703 1.848,-0.926 3.703,-2.778 4.625,-4.625 l 60.141,-77.715 c 1.848,-2.777 1.848,-6.477 -0.93,-8.328 -0.926,-0.926 -2.773,-1.848 -3.699,-1.848 H 347.43 c -3.703,0 -5.551,2.774 -5.551,6.477 0,0.925 0,2.773 0.926,3.699 z m 44.41,223.898 c 0,-12.027 -10.176,-22.207 -22.203,-22.207 -12.028,0 -22.207,10.18 -22.207,22.207 0,12.028 10.179,21.278 22.207,21.278 12.027,0 22.203,-9.25 22.203,-21.278 z m -120.274,-93.445 32.379,61.063 h -23.129 l -13.878,-25.907 13.878,-12.027 -4.625,-8.324 -13.878,11.101 -6.473,-12.027 c -10.18,5.551 -13.879,18.504 -8.328,27.754 l 16.652,32.383 c 2.774,4.625 7.402,7.402 12.953,7.402 h 51.809 c 12.953,0 23.133,-10.18 23.133,-23.133 v -1.847 l -5.551,-86.969 54.586,-46.258 c -1.848,-1.848 -4.625,-3.703 -8.328,-5.551 l -47.184,39.782 -0.926,-10.176 c -11.105,0.926 -19.429,10.176 -18.504,21.277 v 4.629 l -13.879,11.102 4.625,8.324 10.176,-7.399 1.852,36.082 -21.281,-40.711 -36.082,19.43 z M 327.078,92.519 c -12.953,0 -24.055,10.176 -24.055,23.129 l -1.847,49.035 -24.055,37.008 -58.289,-109.172 c -11.102,6.477 -15.727,20.356 -9.25,32.383 l 54.586,102.695 36.082,-18.504 23.129,-36.082 c 0,-0.925 0.926,-1.847 0.926,-2.777"/>
    </g>
  </g>
</svg>
