<?xml version="1.0" encoding="iso-8859-1"?>
<!-- Generator: Adobe Illustrator 28.1.0, SVG Export Plug-In . SVG Version: 6.00 Build 0)  -->
<svg version="1.1" id="Ebene_1" xmlns="http://www.w3.org/2000/svg" xmlns:xlink="http://www.w3.org/1999/xlink" x="0px" y="0px"
	 viewBox="0 0 155.906 155.906" style="enable-background:new 0 0 155.906 155.906;" xml:space="preserve">
<path style="fill:#0070AE;" d="M124.273,44.724H68.43l-0.07-0.202c-0.255-0.736-0.494-1.487-0.731-2.237
	c-1.571-4.948-3.054-9.622-9.013-9.687h-0.001h-0.001H31.633c-3.766,0-6.83,3.063-6.83,6.829v77.052c0,3.765,3.064,6.829,6.83,6.829
	h97.507c0.161-0.005,0.307-0.024,0.453-0.059c0.059-0.014,0.103-0.026,0.145-0.04c0.758-0.232,1.264-0.851,1.35-1.652
	c0.011-0.095,0.015-0.161,0.015-0.226V51.554C131.102,47.788,128.039,44.724,124.273,44.724z M31.633,60.309h92.64
	c1.584,0,2.873,1.288,2.873,2.872v56.169H32.79c-2.222,0-4.03-1.808-4.03-4.03V63.183C28.759,61.598,30.048,60.309,31.633,60.309z
	 M28.759,56.973V39.427c0-1.584,1.289-2.873,2.873-2.873h26.986c1.951,0,3.283,1.145,4.072,3.5l2.436,7.276
	c0.27,0.808,1.024,1.351,1.876,1.351h57.269c1.584,0,2.873,1.289,2.873,2.873v5.418l-0.411-0.159
	c-0.786-0.305-1.614-0.459-2.462-0.459h-92.64c-0.849,0-1.678,0.155-2.463,0.459L28.759,56.973z"/>
<path style="fill:#FFCC00;" d="M121.944,113.001H37.038c-1.565,0-2.834-1.269-2.834-2.834v-41.21c0-1.326,1.075-2.402,2.402-2.402
	h82.937c1.326,0,2.402,1.075,2.402,2.402V113.001z"/>
</svg>
