<?xml version="1.0" encoding="iso-8859-1"?>
<!-- Generator: Adobe Illustrator 28.1.0, SVG Export Plug-In . SVG Version: 6.00 Build 0)  -->
<svg version="1.1" id="Ebene_1" xmlns="http://www.w3.org/2000/svg" xmlns:xlink="http://www.w3.org/1999/xlink" x="0px" y="0px"
	 viewBox="0 0 155.906 155.906" style="enable-background:new 0 0 155.906 155.906;" xml:space="preserve">
<path style="fill:#0070AE;" d="M106.299,28.346H49.606v70.866h21.908v26.436c0,1.055,0.855,1.911,1.911,1.911h9.055
	c1.056,0,1.912-0.856,1.912-1.911V99.213h21.907V28.346z M80.57,123.737h-5.234V99.213h5.234V123.737z M102.456,95.387H53.449
	V32.171h49.007V95.387z"/>
<circle style="fill:#FFCC00;" cx="77.953" cy="58.11" r="21.26"/>
<g>
	<path style="fill:#0070AE;" d="M72.194,70.388c0,1.439-1.12,1.8-2.12,1.8s-2.12-0.36-2.12-1.8V45.832
		c0-1.439,1.12-1.799,2.12-1.799s2.12,0.36,2.12,1.799v9.838c0,0.28,0.08,0.36,0.36,0.36h10.798c0.24,0,0.36-0.08,0.36-0.36v-9.838
		c0-1.439,1.12-1.799,2.12-1.799s2.12,0.36,2.12,1.799v24.556c0,1.439-1.12,1.8-2.12,1.8s-2.12-0.36-2.12-1.8V60.39
		c0-0.28-0.12-0.36-0.36-0.36H72.554c-0.28,0-0.36,0.08-0.36,0.36V70.388z"/>
</g>
</svg>
