<?xml version="1.0" encoding="UTF-8"?>
<!DOCTYPE svg PUBLIC "-//W3C//DTD SVG 1.1//EN" "http://www.w3.org/Graphics/SVG/1.1/DTD/svg11.dtd">
<svg xmlns="http://www.w3.org/2000/svg" version="1.1" width="512px" height="512px" style="shape-rendering:geometricPrecision; text-rendering:geometricPrecision; image-rendering:optimizeQuality; fill-rule:evenodd; clip-rule:evenodd" xmlns:xlink="http://www.w3.org/1999/xlink">
<g><path style="opacity:1" fill="#ff6400" d="M -0.5,-0.5 C 170.167,-0.5 340.833,-0.5 511.5,-0.5C 511.5,170.167 511.5,340.833 511.5,511.5C 340.833,511.5 170.167,511.5 -0.5,511.5C -0.5,340.833 -0.5,170.167 -0.5,-0.5 Z"/></g>
<g><path style="opacity:1" fill="#fffdfd" d="M 412.5,147.5 C 411.076,149.515 410.41,151.848 410.5,154.5C 408.729,162.057 406.396,169.557 403.5,177C 405.777,181.63 407.61,186.463 409,191.5C 409.333,200.5 409.667,209.5 410,218.5C 412.644,227.474 412.978,236.474 411,245.5C 409.786,247.049 408.286,248.215 406.5,249C 400.199,250.179 393.865,250.513 387.5,250C 385.376,248.878 383.543,247.378 382,245.5C 381.916,241.565 380.916,237.898 379,234.5C 372.427,229.463 365.594,224.796 358.5,220.5C 352.005,226.84 346.838,234.173 343,242.5C 332.406,252.757 323.74,264.423 317,277.5C 313.619,281.375 310.453,285.375 307.5,289.5C 305.517,292.799 304.517,296.466 304.5,300.5C 302.36,303.966 300.694,307.633 299.5,311.5C 297.194,315.085 295.861,319.085 295.5,323.5C 294.111,330.724 292.611,338.057 291,345.5C 288.128,359.925 293.295,370.092 306.5,376C 308.037,377.11 308.703,378.61 308.5,380.5C 302.522,382.317 296.855,381.651 291.5,378.5C 291.167,378.833 290.833,379.167 290.5,379.5C 292.03,381.226 293.03,383.226 293.5,385.5C 293.41,387.425 292.41,388.592 290.5,389C 283.253,389.812 276.086,389.646 269,388.5C 263.149,374.73 261.982,360.564 265.5,346C 263.385,329.195 263.051,312.362 264.5,295.5C 254.39,295.68 244.39,296.847 234.5,299C 222.488,299.403 210.488,299.07 198.5,298C 189.841,296.336 181.508,293.669 173.5,290C 171.833,289.333 170.167,289.333 168.5,290C 161.302,296.864 154.468,304.03 148,311.5C 141.39,320.963 139.723,331.297 143,342.5C 145.86,349.057 149.36,355.223 153.5,361C 149.76,362.9 146.426,365.4 143.5,368.5C 137.703,365.899 134.203,367.566 133,373.5C 125.28,374.174 117.78,372.841 110.5,369.5C 109.667,357.18 109.167,344.847 109,332.5C 106.427,329.995 104.26,330.495 102.5,334C 100.833,334.667 99.1667,334.667 97.5,334C 95.6742,329.707 94.6742,325.207 94.5,320.5C 94.7761,294.452 95.7761,268.452 97.5,242.5C 97.5387,238.267 98.2053,234.267 99.5,230.5C 100.924,228.485 101.59,226.152 101.5,223.5C 102.38,220.738 103.546,218.071 105,215.5C 122.905,195.962 145.072,186.462 171.5,187C 187.807,189.773 204.14,192.44 220.5,195C 227.839,195.417 235.173,195.917 242.5,196.5C 253.362,195.285 264.028,193.118 274.5,190C 288.043,191.717 300.376,188.717 311.5,181C 314.101,180.08 316.768,179.413 319.5,179C 328.083,172.743 336.916,166.91 346,161.5C 346.384,152.66 346.884,143.826 347.5,135C 343.833,119.672 347.333,117.838 358,129.5C 362.218,137.936 365.885,146.602 369,155.5C 370.309,157.976 372.142,159.976 374.5,161.5C 375.929,160.065 377.595,159.065 379.5,158.5C 383.78,160.805 388.114,160.971 392.5,159C 396.794,150.911 400.961,142.745 405,134.5C 408.815,129.822 413.649,127.155 419.5,126.5C 419.663,128.857 419.497,131.19 419,133.5C 414.446,137.037 412.279,141.704 412.5,147.5 Z"/></g>
<g><path style="opacity:1" fill="#ff9f66" d="M 412.5,147.5 C 412.59,150.152 411.924,152.485 410.5,154.5C 410.41,151.848 411.076,149.515 412.5,147.5 Z"/></g>
<g><path style="opacity:1" fill="#ffc19d" d="M 101.5,223.5 C 101.59,226.152 100.924,228.485 99.5,230.5C 99.4095,227.848 100.076,225.515 101.5,223.5 Z"/></g>
<g><path style="opacity:1" fill="#ffcbac" d="M 97.5,242.5 C 95.7761,268.452 94.7761,294.452 94.5,320.5C 93.8344,316.681 93.5011,312.681 93.5,308.5C 94.1428,290.504 94.6428,272.504 95,254.5C 95.5277,250.301 96.3611,246.301 97.5,242.5 Z"/></g>
<g><path style="opacity:1" fill="#ff9c64" d="M 307.5,289.5 C 307.074,293.427 306.074,297.093 304.5,300.5C 304.517,296.466 305.517,292.799 307.5,289.5 Z"/></g>
<g><path style="opacity:1" fill="#ff8f52" d="M 299.5,311.5 C 298.744,315.767 297.411,319.767 295.5,323.5C 295.861,319.085 297.194,315.085 299.5,311.5 Z"/></g>
</svg>
