<?xml version="1.0" encoding="iso-8859-1"?>
<!-- Generator: Adobe Illustrator 28.1.0, SVG Export Plug-In . SVG Version: 6.00 Build 0)  -->
<svg version="1.1" id="Ebene_1" xmlns="http://www.w3.org/2000/svg" xmlns:xlink="http://www.w3.org/1999/xlink" x="0px" y="0px"
	 viewBox="0 0 155.906 155.906" style="enable-background:new 0 0 155.906 155.906;" xml:space="preserve">
<path style="fill:#FFCC00;" d="M59.132,92.545c0-4.473,0-9.94,0-12.405c-0.053,0.043-12.59,4.327-12.59,18.242
	c0,10.724,8.691,19.449,19.373,19.449c10.672,0,19.364-8.716,19.375-19.429v-0.02H64.946C61.735,98.382,59.132,95.769,59.132,92.545
	L59.132,92.545z M59.132,92.545"/>
<path style="fill:#0070AE;" d="M118.044,114.529l-13.903-27.452c-1.328-2.623-3.973-4.252-6.904-4.252H74.63v-5.853h23.265
	c3.737,0,6.776-3.051,6.776-6.801c0-3.751-3.039-6.802-6.776-6.802H74.63v-3.872c0-2.514-1.064-4.782-2.76-6.378
	c-1.911-2.092-7.998-3.745-11.909,0c-1.697,1.597-2.76,3.864-2.76,6.378v11.044C45.145,74.33,36.85,85.569,36.85,98.382
	c0,16.088,13.039,29.177,29.065,29.177c12.674,0,23.802-8.228,27.659-20.194l8.909,15.759c2.411,4.194,7.849,5.678,12.071,3.267
	C118.724,124.01,120.256,118.801,118.044,114.529L118.044,114.529z M97.896,67.244c1.607,0,2.915,1.313,2.915,2.927
	c0,1.613-1.307,2.926-2.915,2.926H74.63v-5.853H97.896z M65.915,123.684c-13.897,0-25.205-11.35-25.205-25.302
	c0-10.698,6.667-20.129,16.491-23.75v17.913c0,4.287,3.475,7.774,7.744,7.774h24.646l1.203,2.129
	C88.84,114.599,78.256,123.684,65.915,123.684L65.915,123.684z M112.645,123.022c-2.373,1.356-5.427,0.538-6.811-1.824
	c-2.439-4.317-12.64-22.36-13.439-23.773c-0.343-0.607-0.984-0.982-1.679-0.982h-25.77c-2.141,0-3.884-1.749-3.884-3.899V59.497
	c0-2.686,2.177-4.873,4.853-4.873c2.676,0,4.854,2.186,4.854,4.873v25.265c0,1.071,0.863,1.938,1.93,1.938h24.537
	c1.47,0,2.796,0.818,3.462,2.133c11.3,22.311,13.906,27.459,13.917,27.478C115.87,118.726,115.005,121.675,112.645,123.022
	L112.645,123.022z M112.645,123.022"/>
<path style="fill:#0070AE;" d="M65.753,49.401c5.081,0,9.215-4.381,9.215-9.767v-3.308c0-4.559-3.501-8.269-7.805-8.269h-2.819
	c-4.304,0-7.805,3.709-7.805,8.269v3.308C56.538,45.02,60.672,49.401,65.753,49.401z M60.248,39.634v-3.308
	c0-2.419,1.837-4.387,4.095-4.387h2.819c2.258,0,4.094,1.968,4.094,4.387v3.308c0,3.245-2.469,5.886-5.504,5.886
	C62.718,45.52,60.248,42.879,60.248,39.634z"/>
</svg>
