<?xml version="1.0" encoding="iso-8859-1"?>
<!-- Generator: Adobe Illustrator 28.1.0, SVG Export Plug-In . SVG Version: 6.00 Build 0)  -->
<svg version="1.1" id="Ebene_1" xmlns="http://www.w3.org/2000/svg" xmlns:xlink="http://www.w3.org/1999/xlink" x="0px" y="0px"
	 viewBox="0 0 155.906 155.906" style="enable-background:new 0 0 155.906 155.906;" xml:space="preserve">
<g>
	<path style="fill:#0070AE;" d="M101.947,87.131c-0.244-3.115-2.874-5.55-6.003-5.55h-0.763l-0.001-9.585
		c0-5.192-4.224-9.417-9.416-9.417H53.19c-5.192,0-9.417,4.224-9.417,9.417v9.585H43.01c-3.321,0-6.023,2.702-6.023,6.024v2.714
		c0,3.321,2.702,6.023,6.023,6.023h0.763v18.406c0,2.592,1.653,4.872,4.072,5.699v2.444c0,2.573,2.093,4.666,4.666,4.666h5.429
		c2.573,0,4.666-2.093,4.666-4.666v-2.12h13.741v2.12c0,2.573,2.093,4.666,4.666,4.666h5.429c2.573,0,4.667-2.093,4.667-4.666
		v-2.444c2.419-0.827,4.071-3.107,4.071-5.699V96.343h0.764c2.517,0,4.789-1.589,5.654-3.95c0.035-0.094,0.067-0.188,0.098-0.284
		c0.118-0.382,0.199-0.776,0.239-1.175c0.021-0.202,0.031-0.407,0.031-0.614v-2.969C101.967,87.279,101.961,87.207,101.947,87.131z
		 M98.064,87.601v2.719c0,1.169-0.952,2.12-2.121,2.12h-0.762v-6.955h0.763C97.111,85.485,98.061,86.435,98.064,87.601z
		 M87.205,120.773v2.12c0,0.421-0.342,0.764-0.763,0.764h-5.429c-0.42,0-0.763-0.343-0.763-0.764v-2.12H87.205z M58.703,120.773
		v2.12c0,0.421-0.342,0.764-0.762,0.764h-5.429c-0.42,0-0.762-0.343-0.762-0.764v-2.12H58.703z M64.391,77.355
		c0.384-0.009,0.77-0.013,1.204-0.014c1.566,0.003,2.835,0.003,3.882,0.002c1.047,0,2.316,0.001,3.932-0.002
		c0.386,0,0.771,0.005,1.167,0.014c5.742,0.139,11.359,1.286,16.702,3.412v15.032c-5.711,2.273-11.727,3.427-17.886,3.427h-7.829
		c-6.16,0-12.175-1.153-17.886-3.427V80.768C53.019,78.642,58.636,77.494,64.391,77.355z M73.357,73.438
		c-0.561-0.001-1.249,0-2.173,0l-1.707,0.002l-1.708-0.002c-0.924,0-1.611-0.001-2.234,0c-0.455,0.001-0.828,0.005-1.179,0.013
		c-0.356,0.008-0.69,0.02-1.062,0.036c-5.346,0.229-10.596,1.271-15.618,3.102v-4.593c0-3.04,2.473-5.513,5.513-5.513h0.346h31.881
		h0.347c3.04,0,5.513,2.473,5.513,5.513v4.593c-5.022-1.831-10.272-2.874-15.617-3.102c-0.374-0.017-0.708-0.028-1.065-0.036
		C74.246,73.444,73.873,73.44,73.357,73.438z M73.392,103.128c6.137,0,12.149-1.06,17.886-3.15v14.771
		c0,1.169-0.951,2.121-2.121,2.121h-39.36c-1.169,0-2.12-0.952-2.12-2.121V99.978c5.736,2.091,11.749,3.15,17.886,3.15H73.392z
		 M40.891,87.606c0-1.169,0.951-2.121,2.12-2.121h0.763v6.955H43.01c-1.169,0-2.12-0.951-2.12-2.12V87.606z"/>
</g>
<g>
	<path style="fill:#0070AE;" d="M55.227,114.786c-2.639,0-4.785-2.146-4.785-4.785c0-2.638,2.146-4.785,4.785-4.785
		c2.638,0,4.784,2.146,4.784,4.785C60.011,112.639,57.864,114.786,55.227,114.786z M55.227,109.117
		c-0.488,0-0.885,0.396-0.885,0.884s0.396,0.885,0.885,0.885c0.487,0,0.884-0.397,0.884-0.885S55.714,109.117,55.227,109.117z"/>
</g>
<g>
	<path style="fill:#0070AE;" d="M83.728,114.786c-2.639,0-4.785-2.146-4.785-4.785c0-2.638,2.146-4.785,4.785-4.785
		c2.638,0,4.784,2.146,4.784,4.785C88.513,112.639,86.366,114.786,83.728,114.786z M83.728,109.117
		c-0.488,0-0.885,0.396-0.885,0.884s0.396,0.885,0.885,0.885c0.487,0,0.884-0.397,0.884-0.885S84.216,109.117,83.728,109.117z"/>
</g>
<path style="fill-rule:evenodd;clip-rule:evenodd;fill:#FFCC00;" d="M92.698,80.787c14.481,0,26.22-11.738,26.22-26.224
	c0-14.479-11.739-26.217-26.22-26.217c-14.48,0-26.221,11.738-26.221,26.217C66.477,69.049,78.217,80.787,92.698,80.787
	L92.698,80.787z M92.698,80.787"/>
<path style="fill:#0070AE;" d="M112.345,42.58c-0.392-0.392-0.989-0.859-1.608-0.859c-0.38,0-0.744,0.18-1.114,0.55L88.033,63.859
	l-0.53,0.53l-0.53-0.53L75.527,52.414c-0.365-0.366-0.735-0.543-1.131-0.543c-0.476,0-1,0.262-1.475,0.736
	c-0.523,0.523-1.243,1.557-0.194,2.608l13.803,13.801c0.357,0.357,0.725,0.53,1.127,0.53l0.063-0.001l0.032-0.001l0.032,0.001
	l0.055,0.001c0.385,0,0.748-0.175,1.109-0.536l0.168-0.168l0.024-0.024l0.002-0.002c0.003-0.003,0.006-0.006,0.009-0.01
	l23.504-23.503C112.984,44.973,113.861,44.097,112.345,42.58z"/>
</svg>
