<?xml version="1.0" encoding="iso-8859-1"?>
<!-- Generator: Adobe Illustrator 28.1.0, SVG Export Plug-In . SVG Version: 6.00 Build 0)  -->
<svg version="1.1" id="Ebene_1" xmlns="http://www.w3.org/2000/svg" xmlns:xlink="http://www.w3.org/1999/xlink" x="0px" y="0px"
	 viewBox="0 0 155.906 155.906" style="enable-background:new 0 0 155.906 155.906;" xml:space="preserve">
<rect x="58.465" y="36.85" style="fill:#FFCC00;" width="38.976" height="53.858"/>
<path style="fill:#0070AE;" d="M106.299,28.346H49.606v70.866h21.908v26.436c0,1.055,0.855,1.911,1.911,1.911h9.055
	c1.056,0,1.912-0.856,1.912-1.911V99.213h21.907V28.346z M80.57,123.737h-5.234V99.213h5.234V123.737z M102.456,95.387H53.449
	V32.171h49.007V95.387z"/>
<g>
	<path style="fill:#0070AE;" d="M73.262,67.219c-0.28,0-0.36,0.08-0.36,0.36v8.398c0,1.439-1.12,1.8-2.12,1.8s-2.12-0.36-2.12-1.8
		V51.582c0-1.44,1-1.8,2-1.8h9.998c4.399,0,7.999,2.8,7.999,8.719s-3.6,8.718-7.999,8.718H73.262z M80.661,63.22
		c2.2,0,3.64-1.56,3.64-4.719c0-3.16-1.439-4.719-3.64-4.719h-7.398c-0.28,0-0.36,0.08-0.36,0.36v8.719c0,0.28,0.08,0.36,0.36,0.36
		H80.661z"/>
</g>
</svg>
