<?xml version="1.0"?>
<svg xmlns="http://www.w3.org/2000/svg" xmlns:xlink="http://www.w3.org/1999/xlink" viewBox="0 0 16 22" version="1.1">
  <path d="m 7.2,15.2 h 1.6 v 5.6 c 0,0.44183 -0.35817,0.8 -0.8,0.8 -0.44183,0 -0.8,-0.35817 -0.8,-0.8 z" fill="#333333" id="path14" style="fill-rule:evenodd"/>
  <path fill="#ffffff" d="m 4.3953337,3.6993337 v 3.1635324 c 0,1.0560292 0.0023,1.8656953 0.0066,2.4298404 0.0021,0.2820727 0.0048,0.5027695 0.0079,0.6621912 0.0031,0.1594213 0.0067,0.2575533 0.01069,0.2945373 0.01173,0.105831 0.02677,0.209222 0.04505,0.310083 0.01829,0.100861 0.03984,0.199198 0.06461,0.294965 0.02477,0.09577 0.05278,0.188966 0.08398,0.279514 0.0312,0.09055 0.0656,0.178454 0.10316,0.263659 0.03756,0.08521 0.07828,0.167711 0.122148,0.247448 0.02193,0.03987 0.04466,0.07904 0.06815,0.11752 0.0235,0.03848 0.04776,0.07626 0.07282,0.113337 0.02505,0.03707 0.05088,0.07343 0.07748,0.109081 0.0266,0.03565 0.05398,0.07059 0.08212,0.104803 0.02814,0.03421 0.05704,0.06771 0.08671,0.100477 0.02967,0.03276 0.0601,0.06478 0.0913,0.09608 0.05409,0.05405 0.10977,0.105254 0.167295,0.153746 0.05753,0.04849 0.116905,0.09427 0.178438,0.137464 0.06153,0.04319 0.125215,0.0838 0.191327,0.121941 0.06611,0.03814 0.134651,0.07382 0.205915,0.10718 0.07126,0.03336 0.145235,0.06438 0.222222,0.0932 0.07699,0.02883 0.156994,0.05546 0.240278,0.08001 0.08328,0.02456 0.169852,0.04704 0.260005,0.06758 0.09015,0.02054 0.183885,0.03915 0.281479,0.05593 0.06296,0.01081 0.118204,0.01934 0.173441,0.0261 0.05524,0.0068 0.110476,0.01173 0.17344,0.01543 0.06296,0.0037 0.133638,0.0061 0.219784,0.0078 0.08615,0.0016 0.187759,0.0025 0.312542,0.003 0.153402,0 0.283481,-0.0016 0.398605,-0.0055 0.115123,-0.0039 0.215296,-0.01027 0.308883,-0.0198 0.09359,-0.0095 0.180586,-0.02226 0.269379,-0.03901 0.08879,-0.01675 0.179374,-0.03753 0.280116,-0.06313 0.085,-0.02205 0.167879,-0.04673 0.248623,-0.074 0.08074,-0.02727 0.159342,-0.05712 0.235758,-0.08952 0.07642,-0.0324 0.150662,-0.06733 0.222677,-0.104779 0.07202,-0.03745 0.1418143,-0.0774 0.2093563,-0.119802 0.06754,-0.04241 0.132824,-0.08728 0.195824,-0.134563 0.063,-0.04728 0.123712,-0.09697 0.182096,-0.14904 0.05838,-0.05207 0.114434,-0.106511 0.168132,-0.163277 0.0537,-0.05677 0.105036,-0.115852 0.153976,-0.177231 0.04894,-0.06138 0.09549,-0.125041 0.139603,-0.190946 0.04411,-0.06591 0.08578,-0.134056 0.124993,-0.204401 0.03921,-0.07034 0.07596,-0.142894 0.110191,-0.217592 0.03424,-0.0747 0.06596,-0.151536 0.09515,-0.2305 0.02919,-0.07896 0.05584,-0.16005 0.07992,-0.243193 0.02408,-0.08314 0.04558,-0.168342 0.06447,-0.255578 0.01889,-0.08724 0.03518,-0.176505 0.04881,-0.267748 0.01363,-0.09124 0.02461,-0.184471 0.0329,-0.279634 0.004,-0.04267 0.0076,-0.151484 0.01071,-0.3211828 0.0031,-0.1696989 0.0057,-0.4002867 0.0079,-0.6864844 0.0043,-0.5723952 0.0066,-1.3672509 0.0066,-2.3424847 V 3.6993337 H 10.55437 9.5721477 l -0.0069,3.1908444 -0.0069,3.1931259 -0.05266,0.245809 c -0.0186,0.08762 -0.03956,0.170324 -0.06303,0.248328 -0.02348,0.078 -0.04947,0.151289 -0.07812,0.220064 -0.01433,0.03439 -0.02932,0.06766 -0.045,0.09981 -0.01568,0.03215 -0.03205,0.06321 -0.04912,0.09318 -0.01707,0.02997 -0.03483,0.05886 -0.05333,0.08669 -0.0185,0.02783 -0.03772,0.0546 -0.05768,0.08034 -0.01996,0.02575 -0.04068,0.05048 -0.06215,0.07419 -0.02147,0.02371 -0.04369,0.04641 -0.06669,0.06813 -0.02301,0.02172 -0.04679,0.04245 -0.07138,0.06223 -0.02459,0.01978 -0.04998,0.03859 -0.07619,0.05648 -0.0262,0.01789 -0.05323,0.03485 -0.08109,0.05089 -0.02786,0.01605 -0.05656,0.03117 -0.08611,0.04542 -0.02955,0.01425 -0.05997,0.02762 -0.09125,0.04012 -0.03129,0.01251 -0.06346,0.02416 -0.09651,0.03497 -0.04179,0.01366 -0.07613,0.02434 -0.109545,0.03266 -0.03341,0.0083 -0.06588,0.0143 -0.10395,0.01856 -0.03806,0.0043 -0.08171,0.0068 -0.137451,0.0083 -0.05574,0.0015 -0.123571,0.0019 -0.210004,0.0019 -0.07613,5.69e-4 -0.139375,4.14e-4 -0.193144,-6.18e-4 -0.05377,-0.001 -0.09805,-0.003 -0.136256,-0.0059 -0.03821,-0.003 -0.07035,-0.007 -0.09979,-0.01234 -0.02944,-0.0053 -0.0562,-0.01183 -0.08367,-0.0198 -0.03692,-0.01138 -0.07285,-0.02379 -0.1078,-0.03725 -0.03495,-0.01346 -0.0689,-0.02798 -0.101893,-0.04355 -0.03299,-0.01557 -0.06504,-0.0322 -0.09611,-0.04992 -0.03107,-0.01771 -0.06118,-0.0365 -0.09034,-0.05638 -0.02917,-0.01989 -0.05737,-0.04087 -0.08465,-0.06297 -0.02729,-0.0221 -0.05365,-0.04529 -0.07908,-0.06962 -0.02543,-0.02433 -0.04994,-0.04981 -0.07353,-0.07642 -0.0236,-0.02661 -0.04627,-0.05436 -0.06806,-0.08327 -0.02179,-0.02891 -0.04267,-0.05898 -0.06268,-0.09023 -0.02,-0.03125 -0.03913,-0.06367 -0.05737,-0.09729 -0.01824,-0.03362 -0.03561,-0.06843 -0.05211,-0.104446 -0.0165,-0.03602 -0.03213,-0.07322 -0.04692,-0.111673 -0.01478,-0.03845 -0.02871,-0.07813 -0.0418,-0.119041 -0.01309,-0.04092 -0.02535,-0.08309 -0.03678,-0.126505 -0.01142,-0.04341 -0.022,-0.08807 -0.03178,-0.134017 -0.0098,-0.04594 -0.01874,-0.09317 -0.0269,-0.14167 -0.0046,-0.02731 -0.0086,-0.05576 -0.01229,-0.09023 -0.0036,-0.03447 -0.0069,-0.07496 -0.0097,-0.1263631 -0.0057,-0.1028079 -0.0099,-0.249266 -0.0132,-0.4784234 -0.0033,-0.2291573 -0.0057,-0.5410277 -0.0076,-0.9746983 -0.002,-0.4336705 -0.0035,-0.9891425 -0.0053,-1.7054903 l -0.0092,-3.1339384 h -0.970769 z" id="path4-3" style="stroke-width:0.0124973"/>
  <g id="g3011" transform="matrix(0.46059822,0,0,0.45489418,0.5171732,0.7288625)">
    <path fill="#f1b736" d="M 313.29,384.05 A 16.27,16.27 0 1 1 297,367.78 a 16.27,16.27 0 0 1 16.26,16.27" transform="translate(-280.76,-367.78)" id="path2434"/>
    <path fill="#ffffff" d="m 306.79,379.63 a 1.54,1.54 0 0 0 -0.3,0 l -1,0.29 -1.1,-2.67 a 2.53,2.53 0 0 0 -2.16,-1.45 h -0.73 v -2.21 a 0.71,0.71 0 0 0 -0.71,-0.71 h -7.47 a 0.71,0.71 0 0 0 -0.71,0.71 v 2.21 h -0.74 a 2.51,2.51 0 0 0 -2.16,1.45 l -1.1,2.67 -1,-0.29 a 1.54,1.54 0 0 0 -0.3,0 0.91,0.91 0 0 0 -0.91,1 v 0.57 a 1.17,1.17 0 0 0 1.18,1.17 h 0.07 l -0.15,0.39 a 8.66,8.66 0 0 0 -0.55,2.8 v 5.33 a 1.17,1.17 0 0 0 1.17,1.17 h 1.41 a 1.18,1.18 0 0 0 1.18,-1.17 v -1.31 h 12.72 v 1.31 a 1.17,1.17 0 0 0 1.17,1.17 h 1.4 a 1.18,1.18 0 0 0 1.17,-1.17 v -5.33 a 8.93,8.93 0 0 0 -0.55,-2.8 l -0.16,-0.39 h 0.09 a 1.17,1.17 0 0 0 1.18,-1.17 v -0.57 a 0.91,0.91 0 0 0 -0.94,-1 z m -6.93,-5.77 h 0.54 v 2 h -0.58 z m -3.9,0 h 0.65 l 0.78,1.95 0.71,-0.88 -0.68,-1 h 0.61 l 0.35,0.57 0.35,-0.57 h 0.61 l -0.68,1 0.72,0.9 h -0.63 l -0.4,-0.63 -0.4,0.63 h -1.21 l -0.14,-0.41 h -0.74 l -0.14,0.41 h -0.58 l 0.79,-2 z m -1.91,2 v -1.55 h -0.65 v -0.35 h 2 v 0.35 h -0.66 v 1.55 h -0.58 z m -4.64,5.86 1.67,-4.06 a 1.53,1.53 0 0 1 1.29,-0.87 h 9.29 a 1.54,1.54 0 0 1 1.3,0.87 l 1.66,4.06 a 0.58,0.58 0 0 1 -0.58,0.87 H 290 a 0.59,0.59 0 0 1 -0.59,-0.91 z m 3.76,5.22 a 0.47,0.47 0 0 1 -0.47,0.47 h -3.18 a 0.48,0.48 0 0 1 -0.47,-0.47 v -1.5 a 0.48,0.48 0 0 1 0.47,-0.48 h 3.18 a 0.48,0.48 0 0 1 0.47,0.48 z m 11.78,0 a 0.47,0.47 0 0 1 -0.47,0.47 h -3.18 a 0.47,0.47 0 0 1 -0.47,-0.47 v -1.5 a 0.48,0.48 0 0 1 0.47,-0.48 h 3.18 a 0.48,0.48 0 0 1 0.47,0.48 z" transform="translate(-280.76,-367.78)" id="path2436"/>
  </g>
  <circle cx="12" cy="2.4" r="2.8" fill="#008854" stroke="#fff" stroke-width=".8"/>
</svg>
