<?xml version="1.0"?>
<svg xmlns="http://www.w3.org/2000/svg" xmlns:xlink="http://www.w3.org/1999/xlink" viewBox="0 0 54.7 54.7" version="1.1" x="0px" y="0px" style="enable-background:new 0 0 54.7 54.7;" xml:space="preserve"> 
       <path fill="#FFFFFF" d="M49.3,22.9c0-1.1-1.3-2-2.7-2l-4,0.9l-2.9-4.9c-1.1-2.2-2-3.1-4.9-3.6c-1.1-0.2-2-0.2-3.1-0.4V7.1H18v5.8           c-0.9,0-1.8,0.2-2.9,0.4c-2.9,0.2-3.8,1.3-4.9,3.6l-2.9,4.9l-4-0.7c-1.3,0-2.5,0.9-2.7,2c-0.2,1.1,0.7,2,1.8,2.5l2.9,0.7           c-2,1.6-2.9,4.2-2.9,6.3v7.2c0,1.8,1.3,3.6,3.6,4V48c0,0.7,0.4,0.9,1.1,0.9h4.2c0.4,0,1.1-0.2,1.1-0.9v-3.4           c3.4,0.2,7.8,0.4,12.5,0.4c4.5,0,9.2-0.2,12.5-0.4V48c0,0.7,0.4,0.9,1.1,0.9h4.2c0.7,0,1.1-0.2,1.1-0.9v-4.5c2.2-0.4,3.6-2,3.6-4           v-7.2c0-2-0.9-4.7-2.9-6.3l2.7-0.7C48.6,25.2,49.3,24.3,49.3,22.9z M15.1,33.7c0,1.1-0.9,1.8-2,1.8H8.6c-1.1,0-2-0.7-2-1.8v-2.2           l8.5,0.9V33.7z M9.1,25.2l3.6-7.4c0.7-1.3,1.3-1.8,2.7-2.2c2.9-0.4,5.4-0.7,9.6-0.7s6.9,0.2,9.6,0.7c1.3,0.2,2,0.9,2.7,2.2l3.6,7.4           c-5.1,0.7-10.5,0.9-15.6,0.9C19.8,26.1,13.8,25.8,9.1,25.2z M43.5,33.7c0,1.1-1.1,1.8-2,1.8h-4.2c-1.1,0-2-0.7-2-1.8v-1.3l8.3-0.9           V33.7z"/> 
       <path fill="#FFFFFF" d="M21.8,8v0.7h-1v2.9H20V8.7h-1V8H21.8z"/> 
       <path fill="#FFFFFF" d="M25.1,11.6h-0.8L24,10.8h-1.4l-0.3,0.8h-0.8L22.9,8h0.8L25.1,11.6z M22.8,10.2h1c0,0-0.5-1.4-0.5-1.5           C23.3,8.8,22.8,10.2,22.8,10.2z"/> 
       <path fill="#FFFFFF" d="M26.7,9.7L25.6,8h0.8c0.1,0,0.9,1.3,0.9,1.3c0,0,0.8-1.3,0.9-1.3H29l-1.1,1.7l1.1,1.9c0,0-0.9,0-0.9,0           c0,0-0.8-1.4-0.8-1.4l-0.8,1.4h-0.9L26.7,9.7z"/> 
       <path fill="#FFFFFF" d="M30.4,11.6h-0.8V8h0.8V11.6z"/> 
    </svg>
