<?xml version="1.0" encoding="iso-8859-1"?>
<!-- Generator: Adobe Illustrator 28.1.0, SVG Export Plug-In . SVG Version: 6.00 Build 0)  -->
<svg version="1.1" id="Ebene_1" xmlns="http://www.w3.org/2000/svg" xmlns:xlink="http://www.w3.org/1999/xlink" x="0px" y="0px"
	 viewBox="0 0 155.906 155.906" style="enable-background:new 0 0 155.906 155.906;" xml:space="preserve">
<g>
	<path style="fill:#0070AE;" d="M85.347,32.559v-2.275c0-1.071-0.867-1.938-1.938-1.938c-1.07,0-1.938,0.867-1.938,1.938v2.275
		h-3.628v-2.275c0-1.071-0.868-1.938-1.938-1.938c-1.071,0-1.938,0.867-1.938,1.938v2.275c-1.062,0.01-1.918,0.874-1.918,1.938v8.47
		c0,3.094,2.517,5.611,5.611,5.611h0.06v39.075c0,1.769-1.439,3.208-3.208,3.208c-1.768,0-3.207-1.439-3.207-3.208v-26.17
		c0-4.5-3.244-8.257-7.516-9.056V30.284c0-1.07-0.867-1.938-1.938-1.938H23.197c-1.071,0-1.938,0.868-1.938,1.938v95.337
		c0,1.07,0.867,1.938,1.938,1.938h38.653c1.07,0,1.938-0.868,1.938-1.938V56.423c2.113,0.711,3.64,2.711,3.64,5.06v26.17
		c0,3.906,3.177,7.084,7.083,7.084s7.083-3.177,7.083-7.084V48.578h0.059c3.094,0,5.611-2.517,5.611-5.611v-8.47
		C87.265,33.433,86.409,32.569,85.347,32.559L85.347,32.559z M83.39,42.966"/>
</g>
<rect x="25.134" y="32.222" style="fill:#FFCC00;" width="34.778" height="91.462"/>
<g>
	<path style="fill:#0070AE;" d="M90.813,92.76h9.783c1.054,0,1.911-0.857,1.911-1.911s-0.857-1.91-1.911-1.91h-9.783
		c-1.054,0-1.91,0.856-1.91,1.91S89.759,92.76,90.813,92.76z"/>
	<path style="fill:#0070AE;" d="M121.398,101.063c-1.327,0-2.631,0.195-3.886,0.582l-2.865-6.046v-4.565h4.996
		c2.005,0,3.637-1.632,3.637-3.638c0-1.053-0.856-1.91-1.91-1.91c-0.991,0-1.809,0.759-1.901,1.727h-6.731
		c-1.054,0-1.91,0.856-1.91,1.91v5.981l-1.596,3.633c0.182-0.861-0.251-1.764-1.085-2.139c-0.961-0.432-2.094,0-2.525,0.961
		l-2.165,4.82c-0.432,0.961-0.001,2.093,0.96,2.525c0.834,0.375,1.796,0.099,2.318-0.608l-2.608,5.54l-6.603-14.708
		c-0.45-0.95-1.592-1.357-2.546-0.909c-0.95,0.452-1.357,1.594-0.907,2.545l7.043,15.637h-1.149
		c-0.03-0.222-0.061-0.444-0.104-0.666c-0.026-0.132-0.059-0.261-0.092-0.39l-0.059-0.236c-0.049-0.203-0.098-0.405-0.157-0.604
		c-0.049-0.163-0.106-0.323-0.164-0.483l-0.064-0.183c-0.061-0.172-0.121-0.345-0.189-0.511c-0.075-0.184-0.158-0.363-0.243-0.543
		l-0.059-0.126c-0.07-0.151-0.141-0.303-0.217-0.448c-0.112-0.216-0.234-0.424-0.357-0.632l-0.052-0.086v-0.002
		c-0.067-0.112-0.134-0.225-0.206-0.335c-0.141-0.218-0.289-0.428-0.442-0.639c-0.085-0.115-0.17-0.23-0.258-0.344
		c-0.169-0.217-0.346-0.426-0.53-0.634l-0.256-0.281c-0.195-0.209-0.396-0.409-0.609-0.608l-0.255-0.232
		c-0.22-0.194-0.445-0.384-0.674-0.561c-0.078-0.062-0.159-0.121-0.267-0.199c-0.238-0.178-0.482-0.348-0.737-0.512l-0.284-0.172
		c-0.252-0.152-0.506-0.299-0.771-0.437l-0.33-0.159c-0.256-0.123-0.513-0.243-0.776-0.35c-0.092-0.037-0.185-0.07-0.277-0.104
		l-0.215-0.077c-0.222-0.081-0.443-0.161-0.667-0.228c-0.131-0.04-0.265-0.072-0.398-0.105l-0.278-0.069
		c-0.178-0.046-0.354-0.092-0.538-0.129c-0.217-0.042-0.438-0.072-0.661-0.103l-0.262-0.038c-0.111-0.019-0.222-0.036-0.336-0.047
		c-0.432-0.043-0.868-0.066-1.31-0.066c-7.305,0-13.248,5.943-13.248,13.248c0,7.303,5.94,13.245,13.3,13.245
		c0.001,0,0.003,0,0.004,0c0.396-0.001,0.788-0.023,1.179-0.059c0.097-0.009,0.192-0.021,0.364-0.044
		c0.301-0.037,0.598-0.081,0.891-0.137l0.327-0.065c0.351-0.076,0.695-0.165,1.037-0.267l0.107-0.032
		c3.307-1.029,6.035-3.276,7.688-6.338c0.404-0.749,0.731-1.513,0.97-2.261l0.039-0.145c0.2-0.646,0.35-1.312,0.446-1.987h4.161
		c0.736,0,1.415-0.431,1.729-1.098l6.882-14.621l1.318,2.782c-3.663,2.447-5.911,6.61-5.911,11.025
		c0,7.305,5.943,13.248,13.248,13.248s13.248-5.943,13.248-13.248S128.703,101.063,121.398,101.063z M86.867,116.222h9.228
		c-0.687,3.324-3.129,6.055-6.41,7.085l-0.071,0.021c-0.241,0.073-0.49,0.136-0.757,0.193l-0.216,0.044
		c-0.208,0.039-0.419,0.07-0.722,0.107l-0.171,0.021c-0.277,0.025-0.556,0.041-0.881,0.044c-5.198,0-9.428-4.229-9.428-9.427
		s4.229-9.427,9.428-9.427c0.312,0,0.619,0.018,0.918,0.046c0.088,0.009,0.175,0.023,0.262,0.037l0.292,0.043
		c0.109,0.016,0.22,0.03,0.322,0.05c0.199,0.04,0.395,0.09,0.685,0.166l0.153,0.04c0.231,0.067,0.458,0.146,0.681,0.231l0.113,0.041
		c0.249,0.099,0.493,0.207,0.759,0.338c2.498,1.254,4.308,3.519,4.967,6.215l0.075,0.286c0.001,0.008,0.003,0.016,0.004,0.023h-9.23
		c-1.054,0-1.91,0.856-1.91,1.91S85.813,116.222,86.867,116.222z M121.398,123.739c-5.198,0-9.428-4.229-9.428-9.428
		c0-2.938,1.419-5.748,3.751-7.52l3.951,8.338c0.44,0.931,1.604,1.351,2.542,0.909c0.461-0.217,0.81-0.602,0.982-1.084
		c0.172-0.479,0.146-0.998-0.072-1.461l-3.952-8.344c0.726-0.177,1.471-0.266,2.226-0.266c5.198,0,9.428,4.229,9.428,9.427
		S126.596,123.739,121.398,123.739z"/>
</g>
<path style="fill:#0070AE;" d="M38.866,70.166c0.396,0.169,0.807,0.254,1.223,0.254c1.04,0,2.005-0.544,2.583-1.454l9.445-14.91
	c0.384-0.606,0.411-1.375,0.07-2.007c-0.341-0.631-0.994-1.023-1.705-1.023h-4.063l2.503-5.964c0.256-0.609,0.194-1.303-0.167-1.856
	c-0.36-0.552-0.966-0.882-1.62-0.882h-6.438c-0.796,0-1.504,0.483-1.802,1.231l-6.132,15.394c-0.242,0.609-0.17,1.296,0.192,1.838
	c0.361,0.543,0.963,0.867,1.609,0.867h3.574l-1.099,4.925C36.7,68.093,37.451,69.568,38.866,70.166z M37.443,57.717l0.068-0.171
	l4.495-11.287h2.19l-2.504,5.965c-0.256,0.609-0.193,1.303,0.168,1.855c0.361,0.552,0.967,0.882,1.62,0.882h3.447l-5.114,8.072
	l0.65-2.914c0.132-0.587-0.005-1.193-0.376-1.664c-0.371-0.469-0.924-0.738-1.518-0.738H37.443z"/>
<path style="fill:#FFCC00;" d="M83.39,42.966c0,0.957-0.778,1.736-1.736,1.736H77.66c-0.957,0-1.736-0.779-1.736-1.736v-6.532h7.465
	V42.966z"/>
</svg>
