<?xml version="1.0" encoding="iso-8859-1"?>
<!-- Generator: Adobe Illustrator 28.1.0, SVG Export Plug-In . SVG Version: 6.00 Build 0)  -->
<svg version="1.1" id="Ebene_1" xmlns="http://www.w3.org/2000/svg" xmlns:xlink="http://www.w3.org/1999/xlink" x="0px" y="0px"
	 viewBox="0 0 155.906 155.906" style="enable-background:new 0 0 155.906 155.906;" xml:space="preserve">
<path style="fill:#FFCC00;" d="M56.807,100.378c6.137,0,12.149-1.06,17.886-3.15v14.771c0,1.169-0.951,2.121-2.121,2.121h-39.36
	c-1.169,0-2.12-0.952-2.12-2.121V97.227c5.736,2.091,11.749,3.15,17.886,3.15H56.807z"/>
<g>
	<path style="fill:#0070AE;" d="M85.362,84.38c-0.244-3.115-2.874-5.55-6.003-5.55h-0.763l-0.001-9.585
		c0-5.192-4.224-9.417-9.416-9.417H36.605c-5.192,0-9.417,4.224-9.417,9.417v9.585h-0.763c-3.321,0-6.023,2.702-6.023,6.024v2.714
		c0,3.321,2.702,6.023,6.023,6.023h0.763v18.406c0,2.592,1.653,4.872,4.072,5.699v2.444c0,2.573,2.093,4.666,4.666,4.666h5.429
		c2.573,0,4.666-2.093,4.666-4.666v-2.12h13.741v2.12c0,2.573,2.093,4.666,4.666,4.666h5.429c2.573,0,4.667-2.093,4.667-4.666
		v-2.444c2.419-0.827,4.071-3.107,4.071-5.699V93.592h0.764c2.517,0,4.789-1.589,5.654-3.95c0.035-0.094,0.067-0.188,0.098-0.284
		c0.118-0.382,0.199-0.776,0.239-1.175c0.021-0.202,0.031-0.407,0.031-0.614V84.6C85.381,84.528,85.375,84.456,85.362,84.38z
		 M81.479,84.85v2.719c0,1.169-0.952,2.12-2.121,2.12h-0.762v-6.955h0.763C80.526,82.734,81.476,83.684,81.479,84.85z
		 M70.62,118.022v2.12c0,0.421-0.342,0.764-0.763,0.764h-5.429c-0.42,0-0.763-0.343-0.763-0.764v-2.12H70.62z M42.118,118.022v2.12
		c0,0.421-0.342,0.764-0.762,0.764h-5.429c-0.42,0-0.762-0.343-0.762-0.764v-2.12H42.118z M47.806,74.605
		c0.384-0.009,0.77-0.013,1.204-0.014c1.566,0.003,2.835,0.003,3.882,0.002c1.047,0,2.316,0.001,3.932-0.002
		c0.386,0,0.771,0.005,1.167,0.014c5.742,0.139,11.359,1.286,16.702,3.412v15.032c-5.711,2.273-11.727,3.427-17.886,3.427h-7.829
		c-6.16,0-12.175-1.153-17.886-3.427V78.017C36.434,75.891,42.051,74.743,47.806,74.605z M56.772,70.687
		c-0.561-0.001-1.249,0-2.173,0l-1.707,0.002l-1.708-0.002c-0.924,0-1.611-0.001-2.234,0c-0.455,0.001-0.828,0.005-1.179,0.013
		c-0.356,0.008-0.69,0.02-1.062,0.036c-5.346,0.229-10.596,1.271-15.618,3.102v-4.593c0-3.04,2.473-5.513,5.513-5.513h0.346h31.881
		h0.347c3.04,0,5.513,2.473,5.513,5.513v4.593c-5.022-1.831-10.272-2.874-15.617-3.102c-0.374-0.017-0.708-0.028-1.065-0.036
		C57.661,70.693,57.288,70.689,56.772,70.687z M56.807,100.378c6.137,0,12.149-1.06,17.886-3.15v14.771
		c0,1.169-0.951,2.121-2.121,2.121h-39.36c-1.169,0-2.12-0.952-2.12-2.121V97.227c5.736,2.091,11.749,3.15,17.886,3.15H56.807z
		 M24.306,84.855c0-1.169,0.951-2.121,2.12-2.121h0.763v6.955h-0.763c-1.169,0-2.12-0.951-2.12-2.12V84.855z"/>
</g>
<g>
	<path style="fill:#0070AE;" d="M133.528,91.857l-6.759-13.708c2.392-1.139,3.947-3.557,3.947-6.254V43.49
		c0-3.82-3.108-6.929-6.929-6.929h-2.091l-1.021-4.571c-0.236-0.831-1.006-1.412-1.87-1.412h-5.528v-1.091h13.335l1.751,2.817
		c0.273,0.442,0.704,0.75,1.212,0.869c0.505,0.117,1.029,0.032,1.468-0.242c0.441-0.274,0.75-0.704,0.869-1.21
		c0.118-0.506,0.032-1.028-0.242-1.47l-2.322-3.737c-0.357-0.575-0.976-0.919-1.653-0.919H94.967c-0.676,0-1.294,0.343-1.653,0.919
		l-2.321,3.736c-0.274,0.441-0.36,0.963-0.242,1.469c0.118,0.506,0.427,0.936,0.868,1.21c0.44,0.274,0.962,0.36,1.469,0.242
		c0.507-0.118,0.937-0.426,1.211-0.868l1.751-2.818h13.336v1.091h-5.528c-0.865,0-1.635,0.581-1.871,1.412l-1.021,4.571h-2.091
		c-3.82,0-6.929,3.108-6.929,6.929v28.405c0,2.698,1.557,5.116,3.948,6.254l-6.76,13.708c-0.535,0.928-0.216,2.12,0.711,2.657
		c0.446,0.259,0.971,0.329,1.476,0.195c0.504-0.134,0.924-0.456,1.185-0.907l1.507-3.013h34.624l1.522,3.013
		c0.26,0.451,0.681,0.773,1.185,0.907c0.168,0.045,0.339,0.067,0.507,0.067c0.338,0,0.67-0.089,0.968-0.262
		C133.744,93.978,134.064,92.786,133.528,91.857z M105.012,36.561l0.312-2.091h12.013l0.312,2.091H105.012z M95.837,45.526V43.49
		c0-1.675,1.362-3.037,3.036-3.037h24.914c1.675,0,3.037,1.362,3.037,3.037v2.037H95.837z M95.837,56.983v-7.565h30.987v7.565
		H95.837z M126.688,86.897h-30.73l1.046-2.091h28.638L126.688,86.897z M95.837,71.895v-11.02h30.987v11.02
		c0,1.668-1.357,3.03-3.06,3.037H98.864C97.195,74.927,95.837,73.564,95.837,71.895z M98.951,80.915l1.046-2.091h22.667l1.032,2.091
		H98.951z"/>
</g>
<path style="fill:#FFCC00;" d="M95.837,71.895v-11.02h30.987v11.02c0,1.668-1.357,3.03-3.06,3.037H98.864
	C97.195,74.927,95.837,73.564,95.837,71.895z"/>
<g>
	<path style="fill:#0070AE;" d="M102.848,72.688c-2.639,0-4.785-2.146-4.785-4.785c0-2.638,2.146-4.785,4.785-4.785
		c2.638,0,4.784,2.146,4.784,4.785C107.632,70.542,105.485,72.688,102.848,72.688z M102.848,67.019
		c-0.488,0-0.885,0.396-0.885,0.884s0.396,0.885,0.885,0.885c0.487,0,0.884-0.397,0.884-0.885S103.335,67.019,102.848,67.019z"/>
</g>
<g>
	<path style="fill:#0070AE;" d="M119.814,72.688c-2.639,0-4.785-2.146-4.785-4.785c0-2.638,2.146-4.785,4.785-4.785
		s4.785,2.146,4.785,4.785C124.599,70.542,122.453,72.688,119.814,72.688z M119.814,67.019c-0.488,0-0.885,0.396-0.885,0.884
		s0.396,0.885,0.885,0.885s0.885-0.397,0.885-0.885S120.303,67.019,119.814,67.019z"/>
</g>
<path style="fill:#FFCC00;" d="M95.837,45.526V43.49c0-1.675,1.362-3.037,3.036-3.037h24.914c1.675,0,3.037,1.362,3.037,3.037v2.037
	H95.837z"/>
<path style="fill:#FFCC00;" d="M56.772,70.687c-0.561-0.001-1.249,0-2.173,0l-1.707,0.002l-1.708-0.002
	c-0.924,0-1.611-0.001-2.234,0c-0.455,0.001-0.828,0.005-1.179,0.013c-0.356,0.008-0.69,0.02-1.062,0.036
	c-5.346,0.229-10.596,1.271-15.618,3.102v-4.593c0-3.04,2.473-5.513,5.513-5.513h0.346h31.881h0.347c3.04,0,5.513,2.473,5.513,5.513
	v4.593c-5.022-1.831-10.272-2.874-15.617-3.102c-0.374-0.017-0.708-0.028-1.065-0.036C57.661,70.693,57.288,70.689,56.772,70.687z"
	/>
<g>
	<path style="fill:#0070AE;" d="M38.641,112.035c-2.639,0-4.785-2.146-4.785-4.785c0-2.638,2.146-4.785,4.785-4.785
		c2.638,0,4.784,2.146,4.784,4.785C43.425,109.889,41.279,112.035,38.641,112.035z M38.641,106.366
		c-0.488,0-0.885,0.396-0.885,0.884s0.396,0.885,0.885,0.885c0.487,0,0.884-0.397,0.884-0.885S39.129,106.366,38.641,106.366z"/>
</g>
<g>
	<path style="fill:#0070AE;" d="M67.143,112.035c-2.639,0-4.785-2.146-4.785-4.785c0-2.638,2.146-4.785,4.785-4.785
		c2.638,0,4.784,2.146,4.784,4.785C71.927,109.889,69.781,112.035,67.143,112.035z M67.143,106.366
		c-0.488,0-0.885,0.396-0.885,0.884s0.396,0.885,0.885,0.885c0.487,0,0.884-0.397,0.884-0.885S67.631,106.366,67.143,106.366z"/>
</g>
</svg>
