<?xml version="1.0" encoding="iso-8859-1"?>
<!-- Generator: Adobe Illustrator 28.1.0, SVG Export Plug-In . SVG Version: 6.00 Build 0)  -->
<svg version="1.1" id="Ebene_1" xmlns="http://www.w3.org/2000/svg" xmlns:xlink="http://www.w3.org/1999/xlink" x="0px" y="0px"
	 viewBox="0 0 155.906 155.906" style="enable-background:new 0 0 155.906 155.906;" xml:space="preserve">
<g>
	<path style="fill:#0070AE;" d="M102.067,28.346c-16.441,0-31.895,0-48.229,0c-4.287,0-7.775,3.488-7.775,7.774v83.664
		c0,4.286,3.488,7.774,7.775,7.774h48.229c4.287,0,7.775-3.488,7.775-7.774V36.121C109.843,31.834,106.355,28.346,102.067,28.346
		L102.067,28.346z M91.355,32.222l-1.954,3.907H66.504l-1.954-3.907H91.355z M53.838,32.222h6.379l3.356,6.712
		c0.328,0.657,0.999,1.071,1.733,1.071H90.6c0.734,0,1.405-0.415,1.733-1.071l3.356-6.712h6.379c2.151,0,3.9,1.749,3.9,3.899v77.835
		H49.938V36.121C49.938,33.971,51.688,32.222,53.838,32.222L53.838,32.222z M102.067,123.684H53.838c-2.151,0-3.9-1.749-3.9-3.899
		v-1.954h56.029v1.954C105.967,121.934,104.218,123.684,102.067,123.684L102.067,123.684z M102.067,123.684"/>
</g>
<path style="fill:#FFCC00;" d="M93.46,83.016H70.991c-1.621,0-2.939-1.318-2.939-2.938c0-1.621,1.319-2.939,2.939-2.939
	l18.834-0.001l0.003-0.012l0.872-1.175c0.025-0.034,2.533-3.203,5.006-7.219c3.395-5.512,5.116-9.562,5.116-12.037
	c0-6.067-4.935-11.002-11.002-11.002c-6.067,0-11.002,4.935-11.002,11.002c0,2.475,1.721,6.525,5.116,12.037
	c1.06,1.722,2.126,3.286,3,4.516H70.991c-3.766,0-6.83,3.064-6.83,6.831s3.064,6.83,6.83,6.83H93.46c3.16,0,5.73,2.57,5.73,5.729
	c0,3.16-2.57,5.73-5.73,5.73H71.286l2.077-6.229c0.234-0.704,0.054-1.467-0.471-1.992c-0.526-0.523-1.288-0.705-1.99-0.469
	l-16.747,5.582c-0.795,0.266-1.33,1.008-1.33,1.846s0.534,1.58,1.33,1.846l7.45,2.483l2.483,7.451
	c0.266,0.795,1.008,1.329,1.846,1.329c0.839,0,1.581-0.534,1.846-1.33l2.208-6.625H93.46c5.306,0,9.621-4.316,9.621-9.622
	S98.766,83.016,93.46,83.016z M85.417,55.593c0-2.431,1.971-4.403,4.403-4.403c2.432,0,4.403,1.971,4.403,4.403
	c0,2.432-1.971,4.403-4.403,4.403C87.388,59.996,85.417,58.025,85.417,55.593z M65.934,102.116l-0.945-2.837
	c-0.193-0.576-0.652-1.036-1.23-1.229l-2.835-0.945l7.517-2.506L65.934,102.116z"/>
</svg>
