<?xml version="1.0" encoding="iso-8859-1"?>
<!-- Generator: Adobe Illustrator 28.1.0, SVG Export Plug-In . SVG Version: 6.00 Build 0)  -->
<svg version="1.1" id="Ebene_1" xmlns="http://www.w3.org/2000/svg" xmlns:xlink="http://www.w3.org/1999/xlink" x="0px" y="0px"
	 viewBox="0 0 155.906 155.906" style="enable-background:new 0 0 155.906 155.906;" xml:space="preserve">
<rect x="58.465" y="36.85" style="fill:#FFCC00;" width="38.976" height="53.858"/>
<path style="fill:#0070AE;" d="M106.299,28.346H49.606v70.866h21.908v26.436c0,1.055,0.855,1.911,1.911,1.911h9.055
	c1.056,0,1.912-0.856,1.912-1.911V99.213h21.907V28.346z M80.57,123.737h-5.234V99.213h5.234V123.737z M102.456,95.387H53.449
	V32.171h49.007V95.387z"/>
<g>
	<path style="fill:#0070AE;" d="M64.723,65.5c-0.14,0-0.18,0.04-0.18,0.18v4.201c0,0.72-0.56,0.9-1.06,0.9
		c-0.5,0-1.061-0.18-1.061-0.9V57.678c0-0.72,0.5-0.9,1-0.9h5.001c2.201,0,4.001,1.4,4.001,4.361s-1.8,4.361-4.001,4.361H64.723z
		 M68.423,63.499c1.1,0,1.82-0.78,1.82-2.36c0-1.581-0.72-2.36-1.82-2.36h-3.701c-0.14,0-0.18,0.04-0.18,0.18v4.361
		c0,0.14,0.04,0.18,0.18,0.18H68.423z"/>
	<path style="fill:#0070AE;" d="M73.762,65.46c-0.641,0-0.881-0.46-0.881-0.96c0-0.521,0.24-0.94,0.881-0.94h2.44
		c0.14,0,0.18-0.06,0.18-0.18v-2.34c0-0.66,0.5-0.9,1-0.9c0.521,0,1,0.24,1,0.9v2.34c0,0.12,0.061,0.18,0.181,0.18h2.42
		c0.66,0,0.9,0.42,0.9,0.94c0,0.5-0.24,0.96-0.9,0.96h-2.42c-0.12,0-0.181,0.04-0.181,0.18v2.44c0,0.64-0.479,0.88-1,0.88
		c-0.5,0-1-0.24-1-0.88v-2.44c0-0.14-0.04-0.18-0.18-0.18H73.762z"/>
	<path style="fill:#0070AE;" d="M88.603,65.28c-0.1-0.18-0.16-0.18-0.32-0.18h-2.5c-0.141,0-0.18,0.04-0.18,0.18v4.601
		c0,0.72-0.561,0.9-1.061,0.9s-1.061-0.18-1.061-0.9V57.678c0-0.66,0.5-0.9,1-0.9h5.001c2.201,0,4.001,1.34,4.001,4.161
		c0,2.201-1.02,3.421-2.54,3.981c-0.08,0.02-0.101,0.08-0.101,0.14c0,0.04,0.021,0.08,0.021,0.08l2.44,4.061
		c0.12,0.2,0.18,0.4,0.18,0.56c0,0.521-0.6,1.021-1.14,1.021c-0.28,0-0.58-0.14-0.82-0.54L88.603,65.28z M89.483,63.099
		c1.101,0,1.821-0.72,1.821-2.161c0-1.44-0.721-2.16-1.821-2.16h-3.7c-0.141,0-0.18,0.04-0.18,0.18v3.961
		c0,0.14,0.039,0.18,0.18,0.18H89.483z"/>
</g>
<path style="fill:#0070AE;" d="M93.484,53.916H62.422v-0.017c0-1.039,0.842-1.882,1.882-1.882h27.299
	c1.039,0,1.882,0.842,1.882,1.882V53.916z"/>
<path style="fill:#0070AE;" d="M93.484,73.643H62.422v0.017c0,1.039,0.842,1.882,1.882,1.882h27.299
	c1.039,0,1.882-0.842,1.882-1.882V73.643z"/>
</svg>
