<?xml version="1.0" encoding="UTF-8" standalone="no"?>
<svg
   version="1.1"
   id="Layer_1"
   x="0px"
   y="0px"
   width="511.81595"
   viewBox="0 0 511.81595 511.90796"
   enable-background="new 0 0 512 512"
   xml:space="preserve"
   sodipodi:docname="bird.svg"
   height="511.90796"
   inkscape:version="1.2.1 (9c6d41e410, 2022-07-14)"
   xmlns:inkscape="http://www.inkscape.org/namespaces/inkscape"
   xmlns:sodipodi="http://sodipodi.sourceforge.net/DTD/sodipodi-0.dtd"
   xmlns="http://www.w3.org/2000/svg"
   xmlns:svg="http://www.w3.org/2000/svg"><defs
   id="defs21" /><sodipodi:namedview
   id="namedview19"
   pagecolor="#ffffff"
   bordercolor="#000000"
   borderopacity="0.25"
   inkscape:showpageshadow="2"
   inkscape:pageopacity="0.0"
   inkscape:pagecheckerboard="0"
   inkscape:deskcolor="#d1d1d1"
   showgrid="false"
   inkscape:zoom="1.6347656"
   inkscape:cx="255.08244"
   inkscape:cy="108.2724"
   inkscape:window-width="1920"
   inkscape:window-height="1017"
   inkscape:window-x="-8"
   inkscape:window-y="-8"
   inkscape:window-maximized="1"
   inkscape:current-layer="Layer_1" />
<path
   fill="#26ccf0"
   opacity="1"
   stroke="none"
   d="m 242.97042,511.90796 c -81.31361,0 -162.127228,0 -242.97042,0 C 0,341.30264 0,170.69734 0,0 c 170.53405,0 341.09777,0 511.81594,0 0,170.57452 0,341.24121 0,511.90796 -89.3895,0 -178.86752,0 -268.84552,0 M 129.47039,254.07478 c 24.16128,0.001 48.32439,-0.17198 72.48309,0.0783 11.90323,0.12329 20.84069,5.98358 25.62454,16.83503 4.89689,11.10788 2.89748,21.71881 -5.49911,30.4913 -8.26248,8.63232 -18.57384,10.81354 -29.81792,6.88995 -9.12028,-3.18252 -14.51751,-10.22695 -17.52197,-18.91149 -6.21739,0 -12.11537,0 -18.02557,0 2.09425,25.22644 29.86941,43.99881 55.55505,37.91753 23.65994,-5.60165 38.47595,-27.06104 35.6803,-51.6791 -2.52379,-22.224 -22.62668,-39.77516 -46.01833,-39.83057 -43.82355,-0.10379 -87.6475,-0.0332 -131.47128,-0.0169 -1.277421,4.8e-4 -2.554757,0.20626 -3.834382,0.31651 1.032967,10.54506 8.641922,17.78538 18.855225,17.87411 14.329137,0.1245 28.660147,0.034 43.990357,0.0354 m 195.00009,-18.24044 c -5.33182,0.006 -10.6658,-0.0854 -15.99509,0.0343 -21.82418,0.49025 -41.01736,17.36228 -44.35464,38.91742 -3.42966,22.15174 9.36795,43.65775 30.38312,51.05795 20.9302,7.3703 44.59442,-1.12673 55.30246,-20.2457 2.73803,-4.88873 4.29492,-10.43896 6.73339,-16.53214 -5.60678,0 -9.60345,0.24149 -13.55703,-0.0679 -3.95462,-0.30951 -6.06381,0.80728 -7.77906,4.78809 -4.87618,11.31662 -15.71505,17.177 -28.33999,16.17535 -10.49323,-0.83252 -20.47373,-9.05325 -23.66867,-19.49536 -5.63977,-18.43274 7.91501,-36.30662 27.79251,-36.36325 34.82324,-0.0992 69.64703,-0.0262 104.47058,-0.031 4.16507,-5.8e-4 8.34128,0.15122 12.49292,-0.0951 9.52618,-0.56508 17.44165,-9.00179 16.90875,-18.14273 -39.78311,0 -79.58621,0 -120.38925,3e-5 m -67.99939,-50.99135 c 27.19196,0.78306 47.56827,13.10229 61.58124,36.28358 0.87176,1.44206 2.18704,3.51244 3.46866,3.64708 4.34555,0.45662 8.76873,0.1743 13.36474,0.1743 -8.84216,-26.4286 -40.17251,-57.53207 -86.46191,-53.96705 -31.29311,2.41008 -67.85162,30.02554 -70.98229,54.00586 2.3584,0 4.7213,-0.28737 6.98792,0.0577 5.29868,0.80666 8.02348,-1.41296 10.89995,-6.00616 13.82448,-22.07518 34.01785,-33.54504 61.14169,-34.19528 m 72.86008,8.23736 c 5.21618,8.46289 10.84555,16.7053 15.51703,25.4589 3.69784,6.92923 3.17587,7.20778 11.4729,5.99632 -8.65271,-33.95935 -44.76664,-73.81401 -99.5824,-74.2589 -52.59631,-0.42688 -91.05306,36.55817 -101.29065,74.18202 8.35992,1.44417 8.34132,1.43638 11.37469,-5.79368 8.26119,-19.69063 21.67325,-34.95256 39.95373,-45.86902 38.19866,-22.81093 89.77967,-17.02785 122.5547,20.28436 m -126.8613,87.82788 c 6.40645,0 12.81288,0 19.2917,0 -1.57828,-11.79235 -8.83389,-18.27591 -19.85077,-18.28146 -28.47326,-0.0144 -56.94651,-0.005 -85.41977,-0.005 -1.79172,0 -3.58344,0 -5.35656,0 -0.25716,10.04996 8.34422,18.22198 18.90287,18.25897 23.81069,0.0835 47.62185,0.0269 72.43253,0.0273 m 194.75653,-7.35414 c 1.55921,-3.28507 3.11841,-6.57013 4.78241,-10.07602 -1.7341,-0.51072 -2.20303,-0.76926 -2.67227,-0.76978 -30.77017,-0.0341 -61.54144,-0.19153 -92.30997,0.0279 -8.9306,0.0637 -16.55841,8.85303 -16.49505,18.17225 1.63986,0 3.28878,0 4.93771,0 28.27612,0 56.55252,-0.0692 84.82812,0.0516 6.5781,0.0281 12.02945,-2.01462 16.92905,-7.40594 m -80.37466,68.68536 c 0.97638,-0.87466 1.95272,-1.74933 2.9291,-2.62399 -0.26348,-0.60205 -0.52694,-1.20407 -0.79043,-1.80609 -6.34592,1.36172 -13.24039,1.56948 -18.9447,4.28094 -27.68189,13.15817 -55.57659,14.41498 -83.42157,1.74928 -8.41288,-3.82669 -16.60585,-5.08905 -25.46262,-5.00095 30.1568,25.56351 83.06561,33.09137 125.69022,3.40081 z"
   id="path2" />
<path
   fill="#fdffff"
   opacity="1"
   stroke="none"
   d="m 128.97039,254.07481 c -14.83021,-0.001 -29.16122,0.0891 -43.490357,-0.0354 -10.213303,-0.0887 -17.822258,-7.32905 -18.855225,-17.87411 1.279625,-0.11025 2.556961,-0.31603 3.834382,-0.31651 43.82378,-0.0163 87.64773,-0.0869 131.47128,0.0169 23.39165,0.0554 43.49454,17.60657 46.01833,39.83057 2.79565,24.61807 -12.02036,46.07745 -35.6803,51.67911 -25.68564,6.08127 -53.4608,-12.6911 -55.55505,-37.91754 5.9102,0 11.80818,0 18.02557,0 3.00446,8.68454 8.40169,15.72897 17.52197,18.91149 11.24408,3.92359 21.55544,1.74237 29.81792,-6.88995 8.39659,-8.77249 10.396,-19.38342 5.49911,-30.4913 -4.78385,-10.85144 -13.72131,-16.71173 -25.62454,-16.83502 -24.1587,-0.25025 -48.32181,-0.077 -72.98309,-0.0782 z"
   id="path4" />
<path
   fill="#fdffff"
   opacity="1"
   stroke="none"
   d="m 324.97048,235.83432 c 40.30304,-1e-5 80.10614,-1e-5 119.88925,-1e-5 0.5329,9.14094 -7.38257,17.57765 -16.90875,18.14273 -4.15164,0.24629 -8.32785,0.0945 -12.49292,0.0951 -34.82355,0.005 -69.64734,-0.0682 -104.47058,0.031 -19.8775,0.0566 -33.43228,17.93051 -27.79251,36.36325 3.19494,10.44211 13.17544,18.66284 23.66867,19.49536 12.62494,1.00165 23.46381,-4.85873 28.33999,-16.17535 1.71525,-3.98081 3.82444,-5.0976 7.77906,-4.78809 3.95358,0.30939 7.95025,0.0679 13.55703,0.0679 -2.43847,6.09317 -3.99536,11.64342 -6.73339,16.53214 -10.70804,19.11896 -34.37226,27.616 -55.30246,20.2457 -21.01517,-7.40021 -33.81278,-28.90622 -30.38312,-51.05796 3.33728,-21.55514 22.53046,-38.42717 44.35464,-38.91742 5.32929,-0.1197 10.66327,-0.0285 16.49509,-0.0344 z"
   id="path6" />
<path
   fill="#fcfeff"
   opacity="1"
   stroke="none"
   d="m 255.99392,184.84296 c -26.64667,0.65027 -46.84004,12.12013 -60.66452,34.19531 -2.87647,4.5932 -5.60127,6.81282 -10.89995,6.00616 -2.26662,-0.34504 -4.62952,-0.0577 -6.98792,-0.0577 3.13067,-23.98032 39.68918,-51.59578 70.98229,-54.00586 46.2894,-3.56502 77.61975,27.53845 86.46191,53.96705 -4.59601,0 -9.01919,0.28232 -13.36474,-0.1743 -1.28162,-0.13464 -2.5969,-2.20502 -3.46866,-3.64708 -14.01297,-23.18126 -34.38928,-35.50049 -62.05841,-36.28358 z"
   id="path8" />
<path
   fill="#f9feff"
   opacity="1"
   stroke="none"
   d="m 329.11355,192.80042 c -32.55741,-37.03228 -84.13842,-42.81536 -122.33708,-20.00443 -18.28048,10.91646 -31.69254,26.17839 -39.95373,45.86902 -3.03337,7.23007 -3.01477,7.23786 -11.37469,5.79368 10.23759,-37.62385 48.69434,-74.6089 101.29065,-74.18202 54.81576,0.44489 90.92969,40.29956 99.5824,74.2589 -8.29703,1.21146 -7.77506,0.93291 -11.4729,-5.99632 -4.67148,-8.7536 -10.30085,-16.996 -15.73465,-25.73883 z"
   id="path10" />
<path
   fill="#feffff"
   opacity="1"
   stroke="none"
   d="m 201.97002,280.90823 c -24.31083,-4.2e-4 -48.12199,0.0561 -71.93268,-0.0273 -10.55865,-0.037 -19.16003,-8.20901 -18.90287,-18.25897 1.77312,0 3.56484,0 5.35656,0 28.47326,3e-5 56.94651,-0.01 85.41977,0.005 11.01688,0.006 18.27249,6.48911 19.85077,18.28146 -6.47882,0 -12.88525,0 -19.79155,0 z"
   id="path12" />
<path
   fill="#feffff"
   opacity="1"
   stroke="none"
   d="m 396.98586,273.82953 c -4.65906,5.11575 -10.11041,7.15848 -16.68851,7.13037 -28.2756,-0.12076 -56.552,-0.0516 -84.82812,-0.0516 -1.64893,0 -3.29785,0 -4.93771,0 -0.0634,-9.31922 7.56445,-18.10858 16.49505,-18.17225 30.76853,-0.21945 61.5398,-0.062 92.30997,-0.0279 0.46924,5.2e-4 0.93817,0.25906 2.67227,0.76978 -1.664,3.5059 -3.2232,6.79095 -5.02295,10.35159 z"
   id="path14" />
<path
   fill="#f8fdfe"
   opacity="1"
   stroke="none"
   d="m 316.55196,342.45383 c -42.32483,29.47604 -95.23364,21.94818 -125.39044,-3.61533 8.85677,-0.0881 17.04974,1.17426 25.46262,5.00095 27.84498,12.66571 55.73968,11.4089 83.42157,-1.74927 5.70431,-2.71146 12.59878,-2.91922 18.9447,-4.28094 0.26349,0.60202 0.52695,1.20404 0.79043,1.80609 -0.97638,0.87466 -1.95272,1.74933 -3.22888,2.8385 z"
   id="path16" />
</svg>
