<?xml version="1.0" encoding="iso-8859-1"?>
<!-- Generator: Adobe Illustrator 28.1.0, SVG Export Plug-In . SVG Version: 6.00 Build 0)  -->
<svg version="1.1" id="Ebene_1" xmlns="http://www.w3.org/2000/svg" xmlns:xlink="http://www.w3.org/1999/xlink" x="0px" y="0px"
	 viewBox="0 0 155.906 155.906" style="enable-background:new 0 0 155.906 155.906;" xml:space="preserve">
<g>
	<path style="fill:#0070AE;" d="M105.797,117.408L105.797,117.408c-0.329-0.855-0.872-1.598-1.533-2.111l-4.09-3.947l-4.208-12.024
		c-0.24-0.67-0.527-1.324-0.85-1.944L87.645,83.08v-4.522c1.432,0.868,3.076,1.339,4.722,1.339h7.278
		c1.573,0,3.053-0.65,4.167-1.832c1.103-1.173,1.71-2.731,1.71-4.387c0-3.428-2.636-6.218-5.877-6.218h-6.797
		c-0.662,0-1.304-0.204-1.859-0.591l-3.343-2.332V59.98c0-4.357-3.347-7.902-7.461-7.902H63.679c-1.812,0-3.559,0.806-4.826,2.255
		l-7.338,10.494c-0.181,0.207-0.554,0.857-0.629,1.026c-1.556,3.504-1.494,7.655,0.157,11.088l2.9,6.65
		c1.09,2.269,3.08,3.624,5.324,3.624c0,0,0.001,0,0.002,0c0.728,0,1.444-0.135,2.133-0.403c0.644-0.261,1.147-0.554,1.612-0.958
		v11.931c0,1.049-0.301,2.056-0.869,2.911l-9.314,14.028c-0.835,1.257-1.147,2.842-0.86,4.347c0.289,1.509,1.165,2.843,2.402,3.658
		l6.202,4.079c0.749,0.492,1.613,0.752,2.5,0.752c1.529,0,2.973-0.773,3.863-2.069l0.298-0.433c0.591-0.865,0.904-1.885,0.904-2.949
		v-6.149L76.228,108c1.164-1.145,2.091-2.503,2.755-4.033l0.601-1.387l2.404,1.531c0.955,0.609,1.673,1.566,2.047,2.784l5.13,16.615
		c0.455,1.477,1.481,2.699,2.812,3.352c1.326,0.653,2.911,0.689,4.261,0.104l6.962-3.022
		C105.612,122.897,106.778,119.965,105.797,117.408z M63.015,69.131v5.469l-1.206-2.782c-0.152-0.351-0.114-0.761,0.099-1.072
		L63.015,69.131z M101.776,120.359l-6.962,3.022c-0.41,0.178-0.857,0.169-1.258-0.029c-0.413-0.204-0.719-0.572-0.862-1.036
		l-1.794-5.802l-3.362-10.902c-0.622-2.014-1.908-3.725-3.622-4.816l-12.869-8.195c-2.192-1.691-3.688-4.248-4.162-7.084h17.803
		l7.17,13.726c0.24,0.459,0.452,0.941,0.629,1.432l4.38,12.559l1.06,1.228l3.88,3.744c0.056,0.053,0.114,0.102,0.176,0.148
		c0.165,0.123,0.293,0.296,0.372,0.501C102.583,119.447,102.323,120.121,101.776,120.359z M64.432,122.107
		c0,0.249-0.072,0.486-0.208,0.686l-0.299,0.434c-0.316,0.461-0.919,0.59-1.372,0.293l-6.202-4.08
		c-0.385-0.253-0.648-0.656-0.739-1.136c-0.093-0.482,0.002-0.967,0.269-1.367l2.626-3.954l0.009,0.006l6.679-10.08
		c1.002-1.507,1.531-3.28,1.531-5.126v-4.073c0.657,0.766,1.384,1.452,2.168,2.051c0.042,0.033,0.087,0.064,0.137,0.097l7.36,4.689
		l-0.787,1.813c-0.463,1.069-1.108,2.014-1.926,2.819l-9.277,9.548L64.432,122.107z M83.934,81.637H66.725V63.108
		c0.025-0.819-0.51-1.584-1.302-1.859c-0.75-0.262-1.528-0.006-2.06,0.712l-4.469,6.525c-0.983,1.434-1.16,3.326-0.462,4.937
		l2.778,6.408c0.297,0.685,0.313,1.445,0.047,2.143c-0.369,0.713-0.546,0.966-1.15,1.201c-1.114,0.432-2.259-0.102-2.84-1.313
		l-2.9-6.651c-1.154-2.399-1.197-5.286-0.144-7.668c0.11-0.183,0.25-0.403,0.249-0.403l7.15-10.227
		c0.533-0.608,1.283-0.956,2.058-0.956h16.505c2.068,0,3.75,1.803,3.75,4.021V81.637z M87.644,73.79v-4.588l1.286,0.896
		c1.168,0.813,2.522,1.243,3.918,1.243l6.797-0.001c1.194,0,2.166,1.048,2.166,2.337c0,0.631-0.229,1.222-0.642,1.663
		c-0.411,0.435-0.952,0.675-1.524,0.675h-7.278c-1.221,0-2.436-0.427-3.421-1.201L87.644,73.79z"/>
	<path style="fill:#0070AE;" d="M75.329,49.69c5.081,0,9.215-4.381,9.215-9.767v-3.308c0-4.559-3.501-8.269-7.805-8.269H73.92
		c-4.304,0-7.805,3.709-7.805,8.269v3.308C66.115,45.308,70.248,49.69,75.329,49.69z M69.825,39.923v-3.308
		c0-2.419,1.837-4.387,4.095-4.387h2.819c2.258,0,4.094,1.968,4.094,4.387v3.308c0,3.245-2.469,5.886-5.504,5.886
		C72.294,45.809,69.825,43.168,69.825,39.923z"/>
</g>
<path style="fill:#FFCC00;" d="M101.776,120.359l-6.962,3.022c-0.41,0.178-0.857,0.169-1.258-0.029
	c-0.413-0.204-0.719-0.572-0.862-1.036l-1.794-5.802l-3.362-10.902c-0.622-2.014-1.908-3.725-3.622-4.816l-12.869-8.195
	c-2.192-1.691-3.688-4.248-4.162-7.084h17.803l7.17,13.726c0.24,0.459,0.452,0.941,0.629,1.432l4.38,12.559l1.06,1.228l3.88,3.744
	c0.056,0.053,0.114,0.102,0.176,0.148c0.165,0.123,0.293,0.296,0.372,0.501C102.583,119.447,102.323,120.121,101.776,120.359z"/>
<path style="fill:#FFCC00;" d="M64.432,122.107c0,0.249-0.072,0.486-0.208,0.686l-0.299,0.434c-0.316,0.461-0.919,0.59-1.372,0.293
	l-6.202-4.08c-0.385-0.253-0.648-0.656-0.739-1.136c-0.093-0.482,0.002-0.967,0.269-1.367l2.626-3.954l0.009,0.006l6.679-10.08
	c1.002-1.507,1.531-3.28,1.531-5.126v-4.073c0.657,0.766,1.384,1.452,2.168,2.051c0.042,0.033,0.087,0.064,0.137,0.097l7.36,4.689
	l-0.787,1.813c-0.463,1.069-1.108,2.014-1.926,2.819l-9.277,9.548L64.432,122.107z"/>
</svg>
