<?xml version="1.0" encoding="iso-8859-1"?>
<!-- Generator: Adobe Illustrator 28.1.0, SVG Export Plug-In . SVG Version: 6.00 Build 0)  -->
<svg version="1.1" id="Ebene_1" xmlns="http://www.w3.org/2000/svg" xmlns:xlink="http://www.w3.org/1999/xlink" x="0px" y="0px"
	 viewBox="0 0 155.906 155.906" style="enable-background:new 0 0 155.906 155.906;" xml:space="preserve">
<path style="fill:#0070AE;" d="M117.851,75.153H74.18V53.414c-1.273-33.436-49.205-33.411-50.464,0v23.68
	c0,1.072,0.869,1.942,1.941,1.942h8.734c1.072,0,1.941-0.87,1.941-1.942v-23.68c0.637-16.718,24.602-16.705,25.232,0v21.739h-5.823
	c-1.072,0-1.941,0.869-1.941,1.941v48.524c0,1.072,0.869,1.941,1.941,1.941h62.11c1.072,0,1.942-0.869,1.942-1.941V77.094
	C119.793,76.022,118.923,75.153,117.851,75.153L117.851,75.153z M48.948,36.916c-9.097,0-16.498,7.402-16.498,16.498v21.739h-4.852
	V53.414c1.077-28.292,41.634-28.271,42.701,0v21.739h-4.852V53.414C65.446,44.318,58.045,36.916,48.948,36.916L48.948,36.916z
	 M114.494,123.677H59.108c-0.787,0-1.426-0.638-1.426-1.426V80.457c0-0.785,0.637-1.422,1.422-1.422h55.39
	c0.782,0,1.416,0.634,1.416,1.416v41.81C115.91,123.043,115.276,123.677,114.494,123.677z M115.91,123.678"/>
<path style="fill:#FFCC00;" d="M48.948,36.916c-9.097,0-16.498,7.402-16.498,16.498v21.739h-4.852V53.414
	c1.077-28.292,41.634-28.271,42.701,0v21.739h-4.852V53.414C65.446,44.318,58.045,36.916,48.948,36.916L48.948,36.916z"/>
</svg>
