<?xml version="1.0" encoding="UTF-8" standalone="no"?>
<!-- Created with Inkscape (http://www.inkscape.org/) -->

<svg
   version="1.0"
   width="200"
   height="210.90143"
   id="svg46315"
   sodipodi:docname="NapNancyFr.svg"
   inkscape:version="1.2.1 (9c6d41e410, 2022-07-14)"
   xmlns:inkscape="http://www.inkscape.org/namespaces/inkscape"
   xmlns:sodipodi="http://sodipodi.sourceforge.net/DTD/sodipodi-0.dtd"
   xmlns="http://www.w3.org/2000/svg"
   xmlns:svg="http://www.w3.org/2000/svg">
  <sodipodi:namedview
     id="namedview36"
     pagecolor="#ffffff"
     bordercolor="#000000"
     borderopacity="0.25"
     inkscape:showpageshadow="2"
     inkscape:pageopacity="0.0"
     inkscape:pagecheckerboard="0"
     inkscape:deskcolor="#d1d1d1"
     showgrid="false"
     inkscape:zoom="1.1190062"
     inkscape:cx="-106.34436"
     inkscape:cy="16.085702"
     inkscape:window-width="1920"
     inkscape:window-height="1137"
     inkscape:window-x="-8"
     inkscape:window-y="-8"
     inkscape:window-maximized="1"
     inkscape:current-layer="layer1" />
  <defs
     id="defs46317">
    <clipPath
       id="clipPath43703">
      <path
         d="M 26.362,269.955 H 41.571 V 253.917 H 26.362 Z"
         id="path43705" />
    </clipPath>
    <clipPath
       id="clipPath43693">
      <path
         d="m 0.03,836.22 h 843.3 V 0 H 0.03 Z"
         id="path43695" />
    </clipPath>
    <clipPath
       id="clipPath43685">
      <path
         d="M 0,836.22 H 843.305 V 0.002 H 0 Z"
         id="path43687" />
    </clipPath>
  </defs>
  <g
     transform="translate(-806.65619,236.10431)"
     id="layer1">
    <g
       transform="matrix(13.150108,0,0,-13.150108,459.99304,3313.8331)"
       id="g46289">
      <g
         id="g43681">
        <g
           clip-path="url(#clipPath43685)"
           id="g43683">
          <g
             id="g43689">
            <g
               clip-path="url(#clipPath43693)"
               id="g43691">
              <path
                 d="m 26.362,253.917 h 15.209 v 16.038 H 26.362 Z"
                 id="path43697"
                 style="fill:#ffffff;fill-opacity:1;fill-rule:nonzero;stroke:none" />
            </g>
          </g>
        </g>
      </g>
      <g
         id="g43699">
        <g
           clip-path="url(#clipPath43703)"
           id="g43701">
          <g
             transform="translate(49.784,234.142)"
             id="g43707">
            <path
               d="M 0,0 C 0,-0.499 -0.405,-0.904 -0.904,-0.904 H -83.14 c -0.499,0 -0.904,0.405 -0.904,0.904 v 57.272 c 0,0.499 0.405,0.904 0.904,0.904 H -0.904 C -0.405,58.176 0,57.771 0,57.272 Z"
               id="path43709"
               style="fill:none;stroke:#000000;stroke-width:0.00712922;stroke-linecap:butt;stroke-linejoin:miter;stroke-miterlimit:4;stroke-dasharray:none;stroke-opacity:1" />
          </g>
        </g>
      </g>
      <g
         transform="translate(36.077,266.816)"
         id="g43711">
        <path
           d="m 0,0 c 0,-0.111 0.053,-0.179 0.132,-0.179 0.072,0 0.167,0.056 0.215,0.154 V 0.241 C 0.117,0.23 0,0.149 0,0"
           id="path43713"
           style="fill:#ee3424;fill-opacity:1;fill-rule:nonzero;stroke:none" />
      </g>
      <g
         transform="translate(36.746,266.62)"
         id="g43715">
        <path
           d="m 0,0 h -0.154 c -0.067,0 -0.123,-0.019 -0.163,-0.047 -0.086,-0.064 -0.153,-0.14 -0.31,-0.14 -0.221,0 -0.389,0.151 -0.389,0.336 0,0.266 0.232,0.417 0.694,0.439 v 0.123 c 0,0.224 -0.031,0.336 -0.14,0.336 -0.118,0 -0.109,-0.112 -0.126,-0.215 -0.017,-0.101 -0.078,-0.146 -0.19,-0.149 l -0.177,0.171 c 0.006,0.204 0.194,0.341 0.496,0.341 C -0.121,1.195 0,1.053 0,0.694 Z M -1.117,1.005 H -1.455 V 0.168 c 0.013,-0.134 0.078,-0.196 0.215,-0.204 v -0.12 h -0.336 c -0.12,0 -0.198,0.117 -0.198,0.319 v 0.842 h -0.14 c -0.051,0.006 -0.079,0.036 -0.079,0.084 0,0.042 0.025,0.073 0.073,0.087 0.196,0 0.266,0.168 0.266,0.526 v 0.084 h 0.199 v -0.61 h 0.338 z m -1.511,-1.179 c -0.24,0 -0.403,0.098 -0.403,0.216 0,0.039 0.025,0.056 0.084,0.056 0.011,0 0.025,0 0.042,-0.003 0.084,-0.056 0.154,-0.09 0.244,-0.09 0.123,0 0.19,0.059 0.19,0.137 0,0.112 -0.107,0.165 -0.263,0.266 -0.199,0.126 -0.308,0.232 -0.308,0.409 0,0.243 0.174,0.389 0.484,0.389 0.101,0 0.199,-0.026 0.302,-0.054 V 0.864 h -0.115 c 0,0.118 -0.067,0.174 -0.204,0.174 -0.112,0 -0.173,-0.051 -0.173,-0.137 0,-0.059 0.061,-0.121 0.185,-0.196 0.111,-0.067 0.187,-0.107 0.218,-0.135 0.114,-0.1 0.168,-0.209 0.168,-0.349 0,-0.235 -0.182,-0.395 -0.451,-0.395 m -1.599,-0.017 c -0.533,0 -0.968,0.434 -0.968,0.968 0,0.534 0.435,0.969 0.968,0.969 0.534,0 0.969,-0.435 0.969,-0.969 0,-0.534 -0.435,-0.968 -0.969,-0.968 m -1.202,0.035 H -5.72 c -0.143,0 -0.212,0.101 -0.212,0.296 v 0.028 l -0.003,0.434 v 0.812 c 0,0.17 -0.011,0.232 -0.174,0.232 h -0.022 v 0.14 h 0.509 V 0.168 c 0,-0.154 0.028,-0.204 0.168,-0.204 h 0.025 z m -1.287,-0.031 c -0.422,0 -0.68,0.271 -0.68,0.714 0,0.433 0.207,0.665 0.588,0.665 0.307,0 0.506,-0.184 0.506,-0.389 0,-0.123 -0.078,-0.198 -0.215,-0.198 h -0.442 c -0.071,0 -0.093,-0.028 -0.093,-0.095 0,-0.095 0.045,-0.244 0.098,-0.325 0.087,-0.131 0.205,-0.193 0.358,-0.193 0.104,0 0.177,0.034 0.23,0.034 0.022,0 0.045,-0.017 0.064,-0.051 0.003,-0.005 0.003,-0.014 0.003,-0.019 0,-0.076 -0.151,-0.143 -0.417,-0.143 m -0.02,2.001 c 0.071,0 0.121,-0.051 0.121,-0.124 0,-0.013 -0.009,-0.05 -0.028,-0.103 L -6.736,1.321 h -0.243 c 0.112,0.33 0.123,0.493 0.243,0.493 M 3.764,0.711 C 3.469,0.332 3.016,0.019 2.543,-0.096 2.223,-0.173 1.721,-0.156 1.721,-0.156 H 1.332 c -0.093,0 -0.143,0.078 -0.143,0.226 V 0.563 C 1.189,0.837 1.164,0.952 1.046,0.952 1.004,0.952 0.951,0.924 0.898,0.865 0.797,0.753 0.747,0.622 0.747,0.527 V -0.156 H 0.434 L 0.431,0.801 c 0,0.176 -0.009,0.232 -0.191,0.232 H 0.226 V 1.164 H 0.747 V 0.918 l 0.011,0.017 c 0.115,0.176 0.249,0.26 0.425,0.26 0.224,0 0.336,-0.14 0.336,-0.417 V 0.171 c 0,-0.154 0.033,-0.205 0.176,-0.205 h 0.026 c 0,0 0.411,-0.039 0.753,0.111 0.345,0.152 0.66,0.417 0.839,0.688 0.178,0.271 0.268,0.55 0.268,0.837 0,0.054 -0.012,0.097 -0.036,0.127 C 3.521,1.757 3.498,1.77 3.473,1.77 3.453,1.77 3.422,1.758 3.382,1.735 3.282,1.676 3.16,1.647 3.013,1.647 2.811,1.647 2.636,1.726 2.487,1.883 2.339,2.041 2.264,2.225 2.264,2.437 c 0,0.093 0.015,0.182 0.045,0.265 H -9.566 V 1.164 h 1.068 l 0.363,-0.934 0.336,0.901 c 0.014,0.036 0.048,0.059 0.093,0.059 0.055,0 0.095,-0.042 0.095,-0.093 0,-0.011 -0.003,-0.022 -0.006,-0.033 L -8.031,-0.05 c -0.034,-0.092 -0.073,-0.137 -0.151,-0.137 -0.079,0 -0.12,0.045 -0.157,0.137 L -8.68,0.812 C -8.736,0.955 -8.753,1.03 -8.924,1.03 H -9.566 V -1.03 H 4.044 V 1.187 C 3.974,1.02 3.881,0.861 3.764,0.711"
           id="path43717"
           style="fill:#ee3424;fill-opacity:1;fill-rule:nonzero;stroke:none" />
      </g>
      <g
         transform="translate(32.519,268.101)"
         id="g43719">
        <path
           d="m 0,0 c -0.388,0 -0.704,-0.316 -0.704,-0.704 0,-0.388 0.316,-0.704 0.704,-0.704 0.389,0 0.704,0.316 0.704,0.704 C 0.704,-0.316 0.389,0 0,0"
           id="path43721"
           style="fill:#ee3424;fill-opacity:1;fill-rule:nonzero;stroke:none" />
      </g>
      <g
         transform="translate(29.932,267.664)"
         id="g43723">
        <path
           d="m 0,0 c 0.084,0 0.143,-0.047 0.177,-0.142 0.013,-0.037 0.019,-0.065 0.019,-0.087 0,-0.037 -0.042,-0.045 -0.134,-0.045 -0.031,0 -0.059,0.003 -0.09,0.003 H -0.227 C -0.196,-0.092 -0.12,0 0,0"
           id="path43725"
           style="fill:#ee3424;fill-opacity:1;fill-rule:nonzero;stroke:none" />
      </g>
      <path
         d="m 27.186,254.632 h 13.605 v 11.029 H 27.186 Z"
         id="path43727"
         style="fill:#73b74a;fill-opacity:1;fill-rule:nonzero;stroke:none" />
      <g
         transform="translate(32.856,262.613)"
         id="g43729">
        <path
           d="M 0,0 C -0.645,-0.097 -1.222,0.33 -1.319,0.975 -1.415,1.62 -0.99,2.208 -0.345,2.305 0.299,2.401 0.89,1.964 0.986,1.32 1.083,0.675 0.644,0.096 0,0 m 0.048,-6.673 -0.642,4.294 -0.939,-0.141 -0.193,1.289 2.919,0.571 0.855,-5.714"
           id="path43731"
           style="fill:#ffffff;fill-opacity:1;fill-rule:nonzero;stroke:none" />
      </g>
      <g
         transform="translate(30.965,257.274)"
         id="g43733">
        <path
           d="m 0,0 c -0.277,-0.164 -0.593,-0.368 -0.91,-0.415 -0.186,-0.028 -0.249,0.175 -0.282,0.394 L -2.153,6.402 -3.779,6.159 V 3.832 l 0.64,-4.279 c 0.175,-1.169 1.056,-1.685 2.203,-1.513 0.743,0.111 1.302,0.407 1.72,0.749"
           id="path43735"
           style="fill:#ffffff;fill-opacity:1;fill-rule:nonzero;stroke:none" />
      </g>
      <g
         transform="translate(38.596,258.256)"
         id="g43737">
        <path
           d="M 0,0 C -0.338,-0.051 -0.539,0.243 -0.591,0.592 L -0.9,2.657 C -0.765,2.722 -0.62,2.8 -0.423,2.829 0.21,2.924 0.432,2.264 0.545,1.511 0.644,0.844 0.612,0.091 0,0 M 2.195,3.206 C 1.739,4.057 0.984,4.559 -0.023,4.408 -0.602,4.321 -0.877,4.068 -1.082,3.725 L -1.534,6.74 -3.511,6.444 -2.596,0.326 c 0.196,-1.311 1.376,-2.028 2.731,-1.825 0.947,0.141 1.64,0.579 2.06,1.19"
           id="path43739"
           style="fill:#ffffff;fill-opacity:1;fill-rule:nonzero;stroke:none" />
      </g>
    </g>
  </g>
</svg>
