<?xml version="1.0" encoding="iso-8859-1"?>
<!-- Generator: Adobe Illustrator 28.1.0, SVG Export Plug-In . SVG Version: 6.00 Build 0)  -->
<svg version="1.1" id="Ebene_1" xmlns="http://www.w3.org/2000/svg" xmlns:xlink="http://www.w3.org/1999/xlink" x="0px" y="0px"
	 viewBox="0 0 155.906 155.906" style="enable-background:new 0 0 155.906 155.906;" xml:space="preserve">
<g>
	<path style="fill:#FFCC00;" d="M76.402,65.117c4.097,1.191,7.607,3.573,10.138,6.545c0.002,0,0.004,0.001,0.004,0.003
		c0.466,0.544,0.921,1.13,1.306,1.686v0.001c0.367,0.521,0.832,1.266,1.067,1.698c0.001,0.002,0.004,0.004,0.004,0.005
		c0.776,1.376,1.426,2.908,1.893,4.528c0.001,0,0,0.001,0,0.001c2.073,7.235,0.205,15.232-5.378,20.815L70.695,115.14
		c-8.265,8.266-21.665,8.266-29.929,0c-8.267-8.267-8.266-21.665,0-29.93l14.739-14.741c2.726-2.724,6.009-4.552,9.484-5.48
		c-0.478,1.792-0.718,3.637-0.718,5.48c0,1.972,0.273,3.942,0.822,5.852c-0.752,0.443-1.461,0.986-2.104,1.632L48.247,92.692
		c-4.125,4.127-4.125,10.84,0,14.966c4.127,4.125,10.84,4.125,14.967,0l14.739-14.741c4.127-4.127,4.127-10.838,0-14.965
		c-3.482-3.482-4.027-8.804-1.632-12.86C76.348,65.099,76.376,65.108,76.402,65.117L76.402,65.117z M76.402,65.117"/>
</g>
<path style="fill:#0070AE;" d="M116.528,39.377c-4.371-4.371-10.179-6.779-16.353-6.779c-6.174,0-11.981,2.407-16.353,6.779
	l-14.74,14.739c-2.596,2.597-4.553,5.808-5.665,9.292c-3.49,1.117-6.704,3.077-9.3,5.673l-14.739,14.74
	c-4.371,4.371-6.779,10.179-6.779,16.352c0,6.174,2.407,11.982,6.779,16.353c4.371,4.372,10.179,6.779,16.353,6.779
	c6.174,0,11.982-2.408,16.354-6.779l14.739-14.739c2.596-2.595,4.553-5.806,5.665-9.292c3.489-1.116,6.703-3.076,9.3-5.673
	l14.739-14.739c4.372-4.372,6.779-10.179,6.779-16.353C123.307,49.556,120.9,43.749,116.528,39.377z M61.825,106.27
	c-1.625,1.625-3.79,2.52-6.095,2.52c-2.305,0-4.469-0.895-6.094-2.52c-3.36-3.361-3.36-8.829,0-12.19l14.53-14.531
	c1.157,2.722,2.809,5.167,4.916,7.274c2.098,2.098,4.544,3.751,7.272,4.917L61.825,106.27z M61.599,76.565L46.86,91.304
	c-4.891,4.892-4.891,12.85,0,17.741c2.366,2.366,5.516,3.668,8.87,3.668c3.355,0,6.505-1.303,8.871-3.668l14.739-14.74
	c4.891-4.892,4.891-12.85,0-17.741c-2.374-2.375-3.148-5.911-1.998-9.061c2.498,0.959,4.813,2.462,6.705,4.354
	c7.487,7.487,7.487,19.668,0,27.155l-14.74,14.74c-3.629,3.63-8.451,5.628-13.577,5.628c-5.126,0-9.948-1.999-13.577-5.628
	c-3.629-3.629-5.628-8.451-5.628-13.577c0-5.126,1.999-9.948,5.628-13.577l14.74-14.74c1.616-1.616,3.485-2.917,5.559-3.871
	c-0.268,2.504-0.131,5.017,0.41,7.476C62.414,75.803,61.99,76.174,61.599,76.565z M94.485,49.231
	c0.066-0.066,0.438-0.342,0.681-0.516c1.477-1.056,3.21-1.614,5.011-1.614c2.295,0,4.459,0.9,6.094,2.535
	c3.36,3.36,3.36,8.829,0,12.19l-14.531,14.53c-1.157-2.722-2.81-5.168-4.916-7.273c-2.097-2.097-4.543-3.751-7.272-4.917
	L94.485,49.231z M94.306,79.34l14.74-14.739c2.366-2.366,3.669-5.516,3.669-8.871c0-3.355-1.303-6.505-3.669-8.871
	c-2.366-2.366-5.516-3.668-8.871-3.669c-2.639,0-5.16,0.806-7.293,2.331c-0.161,0.115-0.952,0.712-1.173,0.933L76.565,61.599
	c-4.891,4.891-4.891,12.85,0,17.741c2.375,2.374,3.148,5.911,1.998,9.061c-2.498-0.959-4.813-2.462-6.705-4.354
	c-7.486-7.487-7.486-19.668,0-27.154l14.74-14.74c3.629-3.63,8.451-5.628,13.578-5.629c5.126,0,9.948,1.999,13.577,5.629
	c3.629,3.629,5.628,8.451,5.628,13.577c0,5.126-1.999,9.948-5.628,13.577l-14.74,14.74c-1.616,1.616-3.485,2.917-5.559,3.871
	c0.268-2.504,0.131-5.016-0.409-7.476C93.494,80.099,93.918,79.729,94.306,79.34z"/>
</svg>
