<?xml version="1.0" encoding="UTF-8" standalone="no"?>
<svg
   width="1025.004"
   height="1024.002"
   viewBox="0 0 1025.004 1024.002"
   version="1.1"
   id="svg139"
   sodipodi:docname="callabike.svg"
   inkscape:version="1.2.1 (9c6d41e410, 2022-07-14)"
   xmlns:inkscape="http://www.inkscape.org/namespaces/inkscape"
   xmlns:sodipodi="http://sodipodi.sourceforge.net/DTD/sodipodi-0.dtd"
   xmlns="http://www.w3.org/2000/svg"
   xmlns:svg="http://www.w3.org/2000/svg">
  <defs
     id="defs143" />
  <sodipodi:namedview
     id="namedview141"
     pagecolor="#ffffff"
     bordercolor="#000000"
     borderopacity="0.25"
     inkscape:showpageshadow="2"
     inkscape:pageopacity="0.0"
     inkscape:pagecheckerboard="0"
     inkscape:deskcolor="#d1d1d1"
     showgrid="false"
     inkscape:zoom="0.81738281"
     inkscape:cx="501.60096"
     inkscape:cy="234.89606"
     inkscape:window-width="1920"
     inkscape:window-height="1017"
     inkscape:window-x="-8"
     inkscape:window-y="-8"
     inkscape:window-maximized="1"
     inkscape:current-layer="svg139" />
  <path
     d="m 308.5,113.666 c -4.507,1.011 -13.279,4.874 -17.5,7.707 -9.443,6.337 -16.138,15.938 -19.048,27.313 -1.883,7.366 -1.952,11.895 -1.952,128.925 0,83.698 0.338,122.933 1.091,126.59 1.696,8.237 7.356,18.834 13.195,24.706 7.077,7.116 18.574,12.684 29.036,14.062 11.166,1.471 389.745,1.418 400.356,-0.056 18.837,-2.617 34.386,-15.16 40.376,-32.571 1.888,-5.486 1.946,-9.44 1.946,-132.531 V 150.935 l -3.1,-8.037 c -4.367,-11.326 -12.032,-19.437 -23.811,-25.197 l -8.589,-4.201 -205,-0.141 c -112.75,-0.078 -205.9,0.061 -207,0.307 m 4.889,34.239 c -1.712,1.043 -4.074,3.249 -5.25,4.9 L 306,155.809 v 121.645 c 0,134.216 -0.439,125.257 6.344,129.449 L 315.736,409 H 512.4 c 213.403,0 200.248,0.349 205.6,-5.452 l 2.5,-2.709 0.262,-121.993 c 0.292,-135.988 0.778,-126.488 -6.684,-130.682 l -3.85,-2.164 -196.864,0.004 c -191.548,0.003 -196.948,0.055 -199.975,1.901 M 338,277.404 V 386 l 43.75,-0.018 c 52.65,-0.022 63.858,-1.193 79.25,-8.279 15.764,-7.257 27.42,-19.037 35.443,-35.82 8.391,-17.551 11.566,-35.332 11.539,-64.626 -0.028,-30.623 -3.784,-49.702 -13.206,-67.075 -4.803,-8.857 -6.571,-11.183 -14.201,-18.682 -7.987,-7.851 -15.38,-12.583 -25.333,-16.214 -14.268,-5.204 -17.408,-5.477 -68.992,-5.994 L 338,168.808 v 108.596 m 194,-0.409 v 108.173 l 52.25,-0.444 c 49.021,-0.416 52.806,-0.576 61.25,-2.581 9.992,-2.374 12.097,-3.107 21.5,-7.494 8.501,-3.965 19.518,-14.824 23.337,-23.001 7.052,-15.096 7.606,-34.958 1.359,-48.648 -6.11,-13.389 -19.456,-24.145 -35.491,-28.603 l -6.27,-1.743 8.282,-4.058 C 676.274,259.748 688,241.595 688,222.49 c 0,-19.884 -10.676,-37.351 -28,-45.813 -13.717,-6.699 -15.402,-6.866 -74.75,-7.387 L 532,168.822 v 108.173 m 53,-48.627 V 254 h 14.84 c 14.613,0 14.936,-0.048 21.079,-3.117 10.256,-5.126 14.776,-13.434 13.825,-25.412 -0.494,-6.224 -3.144,-12.717 -6.388,-15.65 -1.021,-0.923 -4.106,-2.668 -6.856,-3.879 -4.235,-1.864 -7.41,-2.277 -20.75,-2.703 L 585,202.736 v 25.632 m -193.756,48.882 0.256,73.25 8.325,0.292 c 31.86,1.116 46.841,-11.631 52.683,-44.827 1.784,-10.14 2.042,-45.425 0.411,-56.273 C 448.027,217.158 433.296,204 401.764,204 h -10.777 l 0.257,73.25 m 193.99,45.5 0.266,27.75 15.5,-0.02 c 18.544,-0.023 24.931,-1.311 31.584,-6.37 6.343,-4.824 8.796,-9.8 9.258,-18.784 0.47,-9.142 -1.673,-15.88 -6.696,-21.056 C 627.942,296.847 620.81,295 599.348,295 h -14.38 l 0.266,27.75 M 0,768.003 v 255.999 l 512.25,-0.251 512.25,-0.251 0.252,-256 0.252,-256 -512.502,0.252 L 0,512.004 V 768.003 M 0.492,768 c 0,141.075 0.116,198.788 0.258,128.25 0.142,-70.537 0.142,-185.962 0,-256.5 C 0.608,569.213 0.492,626.925 0.492,768 M 601,579.553 c -6.325,0.697 -17.045,1.781 -23.822,2.409 -13.904,1.289 -15.897,1.848 -19.527,5.478 -5.645,5.645 -5.871,14.962 -0.509,21.069 4.328,4.93 8.524,5.928 19.344,4.605 4.881,-0.597 9.007,-0.954 9.168,-0.794 0.16,0.161 -0.16,1.928 -0.712,3.927 -1.095,3.965 -0.676,5.551 7.253,27.479 l 4.06,11.227 -7.378,8.273 c -4.057,4.551 -7.608,8.499 -7.891,8.774 -0.282,0.275 -3.882,4.325 -8,9 -4.117,4.675 -7.717,8.725 -8,9 -0.282,0.275 -3.882,4.324 -8,8.998 -4.117,4.674 -8.161,9.175 -8.986,10.002 -0.825,0.827 -4.869,5.328 -8.986,10.002 -4.118,4.674 -7.718,8.723 -8,8.998 -0.283,0.275 -3.889,4.325 -8.014,9 -4.124,4.675 -9.074,10.227 -11,12.338 -1.925,2.111 -3.86,4.473 -4.3,5.25 -0.607,1.072 -3.254,1.41 -11,1.405 l -10.2,-0.007 -3.215,-13.243 c -1.768,-7.284 -7.73,-31.693 -13.249,-54.243 -5.52,-22.55 -10.26,-41.977 -10.535,-43.171 -0.464,-2.017 -0.023,-2.216 6.25,-2.823 22.805,-2.205 28.249,-6.089 28.249,-20.158 0,-7.596 -2.78,-13.294 -7.886,-16.164 -3.818,-2.145 -4.602,-2.184 -44.352,-2.184 -40.319,0 -40.478,0.008 -43.772,2.25 -6.625,4.509 -7.521,6.745 -7.223,18.034 0.331,12.576 1.48,16.979 5.407,20.732 4.053,3.873 7.921,4.468 20.672,3.178 5.835,-0.59 10.726,-0.956 10.868,-0.813 0.594,0.594 5.285,20.237 5.277,22.096 -0.004,1.113 -1.468,3.598 -3.253,5.523 -1.784,1.925 -5.715,6.425 -8.735,10 -3.02,3.575 -5.718,6.725 -5.997,7 -0.278,0.275 -2.969,3.425 -5.98,7 -3.01,3.575 -5.71,6.725 -6,7 -0.289,0.275 -2.989,3.425 -6,7 -3.01,3.575 -5.71,6.725 -6,7 -0.289,0.275 -2.989,3.425 -6,7 -3.01,3.575 -5.71,6.725 -6,7 -0.289,0.275 -2.989,3.425 -6,7 -3.01,3.575 -5.71,6.725 -6,7 -0.289,0.275 -2.962,3.361 -5.939,6.859 -6.224,7.311 -9.087,12.424 -9.087,16.23 0,3.546 2.353,9.016 4.851,11.276 4.545,4.113 8.307,4.545 39.96,4.591 l 30.312,0.044 -0.64,4.75 c -3.36,24.945 -19.749,44.754 -43.582,52.679 -16.325,5.428 -32.567,4.317 -48.401,-3.311 -8.51,-4.099 -9.977,-5.171 -18.318,-13.382 -13.023,-12.821 -19.83,-33.036 -17.195,-51.063 3.571,-24.419 18.225,-42.825 41.128,-51.657 4.301,-1.659 8.735,-3.016 9.853,-3.016 1.117,0 3.8,-1.768 5.96,-3.928 6.202,-6.202 6.51,-14.736 0.755,-20.917 -5.417,-5.818 -11.082,-6.464 -23.138,-2.638 -24.561,7.795 -45.775,26.226 -56.655,49.221 -12.264,25.919 -12.029,57.285 0.616,82.284 13.48,26.65 37.91,44.995 67.994,51.059 7.767,1.565 27.321,1.554 35,-0.021 40.815,-8.37 70.658,-39.876 76.544,-80.81 L 458.23,788 h 28.425 c 33.288,0 32.44,0.216 41.892,-10.674 3.258,-3.754 6.156,-7.051 6.439,-7.326 0.282,-0.275 4.339,-4.775 9.014,-10 4.675,-5.225 8.725,-9.725 9,-10 0.275,-0.275 3.875,-4.325 8,-9 4.125,-4.675 7.725,-8.725 8,-9 0.275,-0.275 3.869,-4.325 7.986,-9 4.118,-4.675 7.718,-8.725 8,-9 0.283,-0.275 3.889,-4.308 8.014,-8.963 11.171,-12.605 14.886,-16.496 15.269,-15.991 0.519,0.683 4.769,12.197 12.719,34.454 3.929,11 7.975,22.25 8.991,25 2.478,6.707 9.293,25.498 12.079,33.304 4.789,13.421 18.357,17.321 26.801,7.703 5.379,-6.126 5.28,-9.838 -0.708,-26.507 -3.132,-8.719 -9.952,-27.599 -13.185,-36.5 -1.749,-4.813 -1.75,-5.025 -0.015,-5.672 2.406,-0.897 15.315,0.779 21.549,2.798 19.579,6.343 35.361,21.947 41.866,41.395 3.888,11.62 3.877,27.023 -0.026,39.479 -6.049,19.307 -23.14,35.86 -43.629,42.258 -6.676,2.085 -26.178,2.301 -33.211,0.368 -21.737,-5.974 -38.748,-22.138 -45.386,-43.126 -1.13,-3.575 -2.486,-10.854 -3.013,-16.176 -1.05,-10.609 -2.403,-13.611 -7.573,-16.806 -4.31,-2.664 -11.915,-2.689 -16.238,-0.053 -7.029,4.285 -8.761,13.058 -5.733,29.024 4.624,24.372 16.558,43.593 37.443,60.305 5.053,4.044 24.417,13.275 32,15.255 8.431,2.202 32.943,3.099 41.335,1.512 36.327,-6.868 64.984,-33.178 74.711,-68.591 2.781,-10.123 3.744,-29.825 1.952,-39.906 -6.936,-39.01 -34.757,-68.029 -73.943,-77.129 -6.38,-1.481 -30.06,-2.138 -33.231,-0.921 -1.053,0.404 -1.867,-0.293 -2.581,-2.212 -4.349,-11.688 -12.992,-35.568 -14.587,-40.302 -0.834,-2.475 -3.121,-8.775 -5.081,-14 -1.961,-5.225 -3.567,-10.298 -3.57,-11.274 -0.003,-0.976 3.362,-6.779 7.477,-12.895 8.375,-12.449 9.443,-15.682 7.061,-21.383 -2.093,-5.008 -4.205,-7.28 -8.395,-9.031 -3.908,-1.633 -7.278,-1.613 -23.148,0.136 m 61.5,39.741 c -11.089,4.457 -12.864,11.291 -7.395,28.459 7.748,24.322 8.168,25.223 13.199,28.291 2.962,1.806 5.201,1.949 30.556,1.952 l 27.359,0.004 5.822,-6.043 c 9.621,-9.986 11.936,-17.161 8.017,-24.844 -3.737,-7.324 -4.62,-7.552 -31.448,-8.113 l -23.891,-0.5 -1.609,-5 c -3.149,-9.781 -6.904,-13.737 -14.11,-14.864 -1.925,-0.301 -4.85,-0.005 -6.5,0.658 m -225.118,94.37 c -6.147,7.22 -11.731,13.685 -12.382,14.336 -0.275,0.275 -2.963,3.425 -5.974,7 -3.01,3.575 -5.713,6.725 -6.006,7 -1.831,1.719 -11.02,12.881 -11.02,13.386 0,0.338 11.7,0.614 26,0.614 22.543,0 26,-0.201 26,-1.513 0,-1.847 -10.709,-45.529 -11.309,-46.129 -0.235,-0.235 -2.624,2.153 -5.309,5.306"
     stroke="none"
     fill="#eb0414"
     fill-rule="evenodd"
     id="path135" />
  <path
     d="M 0,256.001 V 512.002 L 512.25,511.751 1024.5,511.5 1024.752,255.75 1025.004,0 H 512.502 0 v 256.001 m 0.492,0.499 c 0,140.8 0.116,198.251 0.258,127.67 0.142,-70.582 0.142,-185.782 0,-256 C 0.608,57.951 0.492,115.7 0.492,256.5 M 308.5,113.666 c -4.507,1.011 -13.279,4.874 -17.5,7.707 -9.443,6.337 -16.138,15.938 -19.048,27.313 -1.883,7.366 -1.952,11.895 -1.952,128.925 0,83.698 0.338,122.933 1.091,126.59 1.696,8.237 7.356,18.834 13.195,24.706 7.077,7.116 18.574,12.684 29.036,14.062 11.166,1.471 389.745,1.418 400.356,-0.056 18.837,-2.617 34.386,-15.16 40.376,-32.571 1.888,-5.486 1.946,-9.44 1.946,-132.531 V 150.935 l -3.1,-8.037 c -4.367,-11.326 -12.032,-19.437 -23.811,-25.197 l -8.589,-4.201 -205,-0.141 c -112.75,-0.078 -205.9,0.061 -207,0.307 m 4.889,34.239 c -1.712,1.043 -4.074,3.249 -5.25,4.9 L 306,155.809 v 121.645 c 0,134.216 -0.439,125.257 6.344,129.449 L 315.736,409 H 512.4 c 213.403,0 200.248,0.349 205.6,-5.452 l 2.5,-2.709 0.262,-121.993 c 0.292,-135.988 0.778,-126.488 -6.684,-130.682 l -3.85,-2.164 -196.864,0.004 c -191.548,0.003 -196.948,0.055 -199.975,1.901 M 338,277.404 V 386 l 43.75,-0.018 c 52.65,-0.022 63.858,-1.193 79.25,-8.279 15.764,-7.257 27.42,-19.037 35.443,-35.82 8.391,-17.551 11.566,-35.332 11.539,-64.626 -0.028,-30.623 -3.784,-49.702 -13.206,-67.075 -4.803,-8.857 -6.571,-11.183 -14.201,-18.682 -7.987,-7.851 -15.38,-12.583 -25.333,-16.214 -14.268,-5.204 -17.408,-5.477 -68.992,-5.994 L 338,168.808 v 108.596 m 194,-0.409 v 108.173 l 52.25,-0.444 c 49.021,-0.416 52.806,-0.576 61.25,-2.581 9.992,-2.374 12.097,-3.107 21.5,-7.494 8.501,-3.965 19.518,-14.824 23.337,-23.001 7.052,-15.096 7.606,-34.958 1.359,-48.648 -6.11,-13.389 -19.456,-24.145 -35.491,-28.603 l -6.27,-1.743 8.282,-4.058 C 676.274,259.748 688,241.595 688,222.49 c 0,-19.884 -10.676,-37.351 -28,-45.813 -13.717,-6.699 -15.402,-6.866 -74.75,-7.387 L 532,168.822 v 108.173 m 53,-48.627 V 254 h 14.84 c 14.613,0 14.936,-0.048 21.079,-3.117 10.256,-5.126 14.776,-13.434 13.825,-25.412 -0.494,-6.224 -3.144,-12.717 -6.388,-15.65 -1.021,-0.923 -4.106,-2.668 -6.856,-3.879 -4.235,-1.864 -7.41,-2.277 -20.75,-2.703 L 585,202.736 v 25.632 m -193.756,48.882 0.256,73.25 8.325,0.292 c 31.86,1.116 46.841,-11.631 52.683,-44.827 1.784,-10.14 2.042,-45.425 0.411,-56.273 C 448.027,217.158 433.296,204 401.764,204 h -10.777 l 0.257,73.25 m 193.99,45.5 0.266,27.75 15.5,-0.02 c 18.544,-0.023 24.931,-1.311 31.584,-6.37 6.343,-4.824 8.796,-9.8 9.258,-18.784 0.47,-9.142 -1.673,-15.88 -6.696,-21.056 C 627.942,296.847 620.81,295 599.348,295 h -14.38 l 0.266,27.75 M 601,579.553 c -6.325,0.697 -17.045,1.781 -23.822,2.409 -13.904,1.289 -15.897,1.848 -19.527,5.478 -5.645,5.645 -5.871,14.962 -0.509,21.069 4.328,4.93 8.524,5.928 19.344,4.605 4.881,-0.597 9.007,-0.954 9.168,-0.794 0.16,0.161 -0.16,1.928 -0.712,3.927 -1.095,3.965 -0.676,5.551 7.253,27.479 l 4.06,11.227 -7.378,8.273 c -4.057,4.551 -7.608,8.499 -7.891,8.774 -0.282,0.275 -3.882,4.325 -8,9 -4.117,4.675 -7.717,8.725 -8,9 -0.282,0.275 -3.882,4.324 -8,8.998 -4.117,4.674 -8.161,9.175 -8.986,10.002 -0.825,0.827 -4.869,5.328 -8.986,10.002 -4.118,4.674 -7.718,8.723 -8,8.998 -0.283,0.275 -3.889,4.325 -8.014,9 -4.124,4.675 -9.074,10.227 -11,12.338 -1.925,2.111 -3.86,4.473 -4.3,5.25 -0.607,1.072 -3.254,1.41 -11,1.405 l -10.2,-0.007 -3.215,-13.243 c -1.768,-7.284 -7.73,-31.693 -13.249,-54.243 -5.52,-22.55 -10.26,-41.977 -10.535,-43.171 -0.464,-2.017 -0.023,-2.216 6.25,-2.823 22.805,-2.205 28.249,-6.089 28.249,-20.158 0,-7.596 -2.78,-13.294 -7.886,-16.164 -3.818,-2.145 -4.602,-2.184 -44.352,-2.184 -40.319,0 -40.478,0.008 -43.772,2.25 -6.625,4.509 -7.521,6.745 -7.223,18.034 0.331,12.576 1.48,16.979 5.407,20.732 4.053,3.873 7.921,4.468 20.672,3.178 5.835,-0.59 10.726,-0.956 10.868,-0.813 0.594,0.594 5.285,20.237 5.277,22.096 -0.004,1.113 -1.468,3.598 -3.253,5.523 -1.784,1.925 -5.715,6.425 -8.735,10 -3.02,3.575 -5.718,6.725 -5.997,7 -0.278,0.275 -2.969,3.425 -5.98,7 -3.01,3.575 -5.71,6.725 -6,7 -0.289,0.275 -2.989,3.425 -6,7 -3.01,3.575 -5.71,6.725 -6,7 -0.289,0.275 -2.989,3.425 -6,7 -3.01,3.575 -5.71,6.725 -6,7 -0.289,0.275 -2.989,3.425 -6,7 -3.01,3.575 -5.71,6.725 -6,7 -0.289,0.275 -2.962,3.361 -5.939,6.859 -6.224,7.311 -9.087,12.424 -9.087,16.23 0,3.546 2.353,9.016 4.851,11.276 4.545,4.113 8.307,4.545 39.96,4.591 l 30.312,0.044 -0.64,4.75 c -3.36,24.945 -19.749,44.754 -43.582,52.679 -16.325,5.428 -32.567,4.317 -48.401,-3.311 -8.51,-4.099 -9.977,-5.171 -18.318,-13.382 -13.023,-12.821 -19.83,-33.036 -17.195,-51.063 3.571,-24.419 18.225,-42.825 41.128,-51.657 4.301,-1.659 8.735,-3.016 9.853,-3.016 1.117,0 3.8,-1.768 5.96,-3.928 6.202,-6.202 6.51,-14.736 0.755,-20.917 -5.417,-5.818 -11.082,-6.464 -23.138,-2.638 -24.561,7.795 -45.775,26.226 -56.655,49.221 -12.264,25.919 -12.029,57.285 0.616,82.284 13.48,26.65 37.91,44.995 67.994,51.059 7.767,1.565 27.321,1.554 35,-0.021 40.815,-8.37 70.658,-39.876 76.544,-80.81 L 458.23,788 h 28.425 c 33.288,0 32.44,0.216 41.892,-10.674 3.258,-3.754 6.156,-7.051 6.439,-7.326 0.282,-0.275 4.339,-4.775 9.014,-10 4.675,-5.225 8.725,-9.725 9,-10 0.275,-0.275 3.875,-4.325 8,-9 4.125,-4.675 7.725,-8.725 8,-9 0.275,-0.275 3.869,-4.325 7.986,-9 4.118,-4.675 7.718,-8.725 8,-9 0.283,-0.275 3.889,-4.308 8.014,-8.963 11.171,-12.605 14.886,-16.496 15.269,-15.991 0.519,0.683 4.769,12.197 12.719,34.454 3.929,11 7.975,22.25 8.991,25 2.478,6.707 9.293,25.498 12.079,33.304 4.789,13.421 18.357,17.321 26.801,7.703 5.379,-6.126 5.28,-9.838 -0.708,-26.507 -3.132,-8.719 -9.952,-27.599 -13.185,-36.5 -1.749,-4.813 -1.75,-5.025 -0.015,-5.672 2.406,-0.897 15.315,0.779 21.549,2.798 19.579,6.343 35.361,21.947 41.866,41.395 3.888,11.62 3.877,27.023 -0.026,39.479 -6.049,19.307 -23.14,35.86 -43.629,42.258 -6.676,2.085 -26.178,2.301 -33.211,0.368 -21.737,-5.974 -38.748,-22.138 -45.386,-43.126 -1.13,-3.575 -2.486,-10.854 -3.013,-16.176 -1.05,-10.609 -2.403,-13.611 -7.573,-16.806 -4.31,-2.664 -11.915,-2.689 -16.238,-0.053 -7.029,4.285 -8.761,13.058 -5.733,29.024 4.624,24.372 16.558,43.593 37.443,60.305 5.053,4.044 24.417,13.275 32,15.255 8.431,2.202 32.943,3.099 41.335,1.512 36.327,-6.868 64.984,-33.178 74.711,-68.591 2.781,-10.123 3.744,-29.825 1.952,-39.906 -6.936,-39.01 -34.757,-68.029 -73.943,-77.129 -6.38,-1.481 -30.06,-2.138 -33.231,-0.921 -1.053,0.404 -1.867,-0.293 -2.581,-2.212 -4.349,-11.688 -12.992,-35.568 -14.587,-40.302 -0.834,-2.475 -3.121,-8.775 -5.081,-14 -1.961,-5.225 -3.567,-10.298 -3.57,-11.274 -0.003,-0.976 3.362,-6.779 7.477,-12.895 8.375,-12.449 9.443,-15.682 7.061,-21.383 -2.093,-5.008 -4.205,-7.28 -8.395,-9.031 -3.908,-1.633 -7.278,-1.613 -23.148,0.136 m 61.5,39.741 c -11.089,4.457 -12.864,11.291 -7.395,28.459 7.748,24.322 8.168,25.223 13.199,28.291 2.962,1.806 5.201,1.949 30.556,1.952 l 27.359,0.004 5.822,-6.043 c 9.621,-9.986 11.936,-17.161 8.017,-24.844 -3.737,-7.324 -4.62,-7.552 -31.448,-8.113 l -23.891,-0.5 -1.609,-5 c -3.149,-9.781 -6.904,-13.737 -14.11,-14.864 -1.925,-0.301 -4.85,-0.005 -6.5,0.658 m -225.118,94.37 c -6.147,7.22 -11.731,13.685 -12.382,14.336 -0.275,0.275 -2.963,3.425 -5.974,7 -3.01,3.575 -5.713,6.725 -6.006,7 -1.831,1.719 -11.02,12.881 -11.02,13.386 0,0.338 11.7,0.614 26,0.614 22.543,0 26,-0.201 26,-1.513 0,-1.847 -10.709,-45.529 -11.309,-46.129 -0.235,-0.235 -2.624,2.153 -5.309,5.306"
     stroke="none"
     fill="#fbfbfb"
     fill-rule="evenodd"
     id="path137" />
</svg>
