<?xml version="1.0" encoding="iso-8859-1"?>
<!-- Generator: Adobe Illustrator 28.1.0, SVG Export Plug-In . SVG Version: 6.00 Build 0)  -->
<svg version="1.1" id="Ebene_1" xmlns="http://www.w3.org/2000/svg" xmlns:xlink="http://www.w3.org/1999/xlink" x="0px" y="0px"
	 viewBox="0 0 155.906 155.906" style="enable-background:new 0 0 155.906 155.906;" xml:space="preserve">
<path style="fill-rule:evenodd;clip-rule:evenodd;fill:#FFCC00;" d="M40.394,80.787c14.481,0,26.22-11.738,26.22-26.224
	c0-14.479-11.739-26.217-26.22-26.217c-14.48,0-26.221,11.738-26.221,26.217C14.173,69.049,25.914,80.787,40.394,80.787
	L40.394,80.787z M40.394,80.787"/>
<path style="fill:#0070AE;" d="M55.02,47.656c-1.563,0-3.001,0.528-4.16,1.405l-10.44-6.481c0.162-0.587,0.256-1.201,0.256-1.839
	c0-3.809-3.101-6.908-6.913-6.908c-3.81,0-6.909,3.099-6.909,6.908c0,3.813,3.099,6.914,6.909,6.914
	c1.766,0,3.374-0.671,4.597-1.764l10.174,6.316c-0.269,0.737-0.423,1.528-0.423,2.357c0,0.547,0.07,1.076,0.191,1.586l-10.152,6.901
	c-1.194-0.982-2.722-1.573-4.386-1.573c-3.81,0-6.909,3.099-6.909,6.908c0,3.813,3.099,6.914,6.909,6.914
	c3.812,0,6.913-3.101,6.913-6.914c0-0.736-0.119-1.445-0.333-2.111l9.899-6.729c1.242,1.193,2.924,1.932,4.778,1.932
	c3.812,0,6.913-3.101,6.913-6.914C61.934,50.755,58.832,47.656,55.02,47.656z M33.763,43.78c-1.673,0-3.034-1.363-3.034-3.039
	c0-1.672,1.361-3.033,3.034-3.033c1.675,0,3.038,1.361,3.038,3.033C36.801,42.418,35.439,43.78,33.763,43.78z M33.763,71.425
	c-1.673,0-3.034-1.363-3.034-3.039c0-1.672,1.361-3.033,3.034-3.033c1.675,0,3.038,1.361,3.038,3.033
	C36.801,70.063,35.439,71.425,33.763,71.425z M55.02,57.603c-1.673,0-3.034-1.363-3.034-3.039c0-1.672,1.361-3.033,3.034-3.033
	c1.675,0,3.038,1.361,3.038,3.033C58.058,56.24,56.696,57.603,55.02,57.603z"/>
<path style="fill:#0070AE;" d="M40.485,113.692c0,3.265,2.656,5.92,5.92,5.92h6.189l0.072,0.31c1.034,4.426,5.085,7.638,9.633,7.638
	c4.547,0,8.599-3.212,9.633-7.638l0.072-0.31h38.206l0.072,0.31c1.035,4.426,5.087,7.638,9.634,7.638s8.599-3.212,9.634-7.638
	l0.072-0.31h6.188c3.265,0,5.92-2.655,5.92-5.92v-13.019c0-3.744-2.662-6.992-6.331-7.725H135.4
	c-3.537-0.711-7.168-1.071-10.791-1.071h-7.229l-0.112-0.097l-14.594-12.472c-2.509-2.145-5.709-3.326-9.012-3.326h-19.99
	c-4.002,0-7.807,1.726-10.438,4.736l-8.565,9.79c-0.762,0.87-1.862,1.369-3.02,1.369h-5.243c-3.265,0-5.92,2.655-5.92,5.919V113.692
	z M62.3,123.666c-3.309,0-6.001-2.691-6.001-6s2.692-6,6.001-6s6.001,2.691,6.001,6S65.609,123.666,62.3,123.666z M119.919,123.666
	c-3.31,0-6.002-2.691-6.002-6s2.692-6,6.002-6c3.309,0,6,2.691,6,6S123.228,123.666,119.919,123.666z M132.34,96.362
	c0.784,0.121,1.555,0.256,2.297,0.403h0.001c1.855,0.373,3.203,2.017,3.203,3.908v1.15l-0.426-0.027
	c-2.796-0.18-5.07-2.225-5.53-4.973l-0.092-0.546L132.34,96.362z M88.089,79.875h5.573c2.376,0,4.678,0.85,6.481,2.394l11.244,9.608
	H88.089V79.875z M66.163,83.282c1.896-2.165,4.632-3.407,7.507-3.407h10.525v12.002H68.524c-0.708,0-1.374-0.378-1.738-0.984
	l-2.96-4.936L66.163,83.282z M44.379,97.796c0-1.116,0.909-2.025,2.026-2.025h1.737l-0.266,0.569
	c-0.601,1.289-1.641,2.329-2.929,2.929l-0.569,0.266V97.796z M44.379,103.53l0.309-0.072c3.707-0.864,6.537-3.706,7.386-7.417
	l0.064-0.281l0.287-0.028c2.009-0.195,3.846-1.141,5.172-2.66l3.532-4.034l2.316,3.86c1.066,1.773,3.012,2.874,5.078,2.874
	l32.307-0.004c25.38-0.005,25.382-0.006,26.69,0.087l0.356,0.025l0.037,0.359c0.214,5.114,4.404,9.268,9.54,9.456l0.386,0.014v7.983
	c0,1.117-0.91,2.027-2.028,2.027h-6.188l-0.072-0.31c-1.035-4.426-5.086-7.638-9.633-7.638c-4.546,0-8.598,3.212-9.635,7.638
	l-0.072,0.31H72.006l-0.072-0.31c-1.035-4.426-5.086-7.638-9.633-7.638c-4.548,0-8.599,3.212-9.633,7.638l-0.072,0.31h-6.189
	c-1.117,0-2.026-0.91-2.026-2.027V103.53z"/>
</svg>
