<?xml version="1.0" encoding="iso-8859-1"?>
<!-- Generator: Adobe Illustrator 28.1.0, SVG Export Plug-In . SVG Version: 6.00 Build 0)  -->
<svg version="1.1" id="Ebene_1" xmlns="http://www.w3.org/2000/svg" xmlns:xlink="http://www.w3.org/1999/xlink" x="0px" y="0px"
	 viewBox="0 0 155.906 155.906" style="enable-background:new 0 0 155.906 155.906;" xml:space="preserve">
<path style="fill-rule:evenodd;clip-rule:evenodd;fill:#FFCC00;" d="M59.312,64.949c0,3.972,0,22.402,0,28.61
	c0,1.135,0.92,2.048,2.055,2.048h51.491c1.135,0,2.055-0.92,2.055-2.055V81.814c0-3.677,3.008-6.685,6.684-6.685h3.761
	c1.135,0,2.055-0.92,2.055-2.055V45.791c0-1.135-0.92-2.055-2.055-2.055H48.703c-1.135,0-2.055,0.92-2.055,2.055l0,15.06
	c10.035-0.517,11.066,1.372,12.226,2.836C59.16,64.046,59.312,64.49,59.312,64.949z"/>
<path style="fill:#0070AE;" d="M138.927,73.31l-0.379-0.051V38.617c0-3.318-2.7-6.018-6.018-6.018h-90.95
	c-3.318,0-6.017,2.7-6.017,6.018v20.746l-17.718,0.021c-3.588,0-6.507,2.919-6.507,6.507v50.931c0,3.246,2.424,6.019,5.639,6.449
	l4.511,0.037h33.103c3.588,0,6.507-2.919,6.507-6.507v-10.057h15.52l-3.432,12.808h-2.699c-1.288,0.046-1.862,0.976-1.863,1.878
	c-0.001,0.899,0.58,1.829,1.879,1.877l33.103,0c1.288-0.047,1.862-0.976,1.863-1.877c0.002-0.899-0.578-1.829-1.879-1.878l-2.683,0
	l-3.432-12.808h15.56V116.8c0,3.588,2.918,6.507,6.505,6.507h18.519c3.588,0,6.507-2.919,6.507-6.507V79.759
	C144.567,76.514,142.143,73.741,138.927,73.31z M97.021,119.552H77.074l3.432-12.808h13.083L97.021,119.552z M116.79,114.047h24.021
	v2.753c0,1.517-1.234,2.752-2.751,2.752h-18.519c-1.517,0-2.751-1.234-2.751-2.752V114.047z M140.811,86.267v24.026H116.79V86.267
	H140.811z M119.541,77.007h18.519c1.517,0,2.751,1.235,2.751,2.752v2.753H116.79v-2.753
	C116.79,78.242,118.024,77.007,119.541,77.007z M54.591,59.362H39.318V38.617c0-1.248,1.015-2.263,2.263-2.263h90.95
	c1.248,0,2.263,1.015,2.263,2.263v34.636h-15.252c-3.587,0-6.505,2.919-6.505,6.507v23.23H61.099v-37.12
	C61.099,62.281,58.179,59.362,54.591,59.362z M15.093,114.068l42.251-0.021v2.753c0,1.517-1.235,2.752-2.752,2.752l-36.746,0.021
	c-1.518,0-2.753-1.234-2.753-2.752V114.068z M57.344,72.377v37.915l-42.251,0.021V72.398L57.344,72.377z M15.093,65.891
	c0-1.517,1.235-2.752,2.753-2.752l36.746-0.021c1.517,0,2.752,1.235,2.752,2.752v2.753l-42.251,0.021V65.891z"/>
</svg>
