<?xml version="1.0" encoding="iso-8859-1"?>
<!-- Generator: Adobe Illustrator 28.1.0, SVG Export Plug-In . SVG Version: 6.00 Build 0)  -->
<svg version="1.1" id="Ebene_1" xmlns="http://www.w3.org/2000/svg" xmlns:xlink="http://www.w3.org/1999/xlink" x="0px" y="0px"
	 viewBox="0 0 155.906 155.906" style="enable-background:new 0 0 155.906 155.906;" xml:space="preserve">
<path style="fill-rule:evenodd;clip-rule:evenodd;fill:#FFCC00;" d="M58.444,84.664c14.481,0,26.22-11.738,26.22-26.224
	c0-14.479-11.739-26.217-26.22-26.217c-14.48,0-26.221,11.738-26.221,26.217C32.223,72.926,43.964,84.664,58.444,84.664
	L58.444,84.664z M58.444,84.664"/>
<g>
	<path style="fill:#0070AE;" d="M112.505,105.596c-3.81,0-6.909,3.099-6.909,6.908c0,3.813,3.099,6.914,6.909,6.914
		c3.812,0,6.913-3.101,6.913-6.914C119.418,108.695,116.317,105.596,112.505,105.596z M112.505,115.543
		c-1.673,0-3.034-1.363-3.034-3.039c0-1.672,1.361-3.033,3.034-3.033c1.675,0,3.038,1.361,3.038,3.033
		C115.543,114.181,114.181,115.543,112.505,115.543z"/>
	<path style="fill:#0070AE;" d="M114.443,97.584V37.095c0-4.824-3.923-8.749-8.744-8.749H92.27c-3.465,0-6.282,2.819-6.282,6.282
		c0,3.462,2.818,6.276,6.282,6.276h18.297v48.49c-9.528,0.792-17.44,7.369-20.201,16.2H65.533
		c-1.496-4.888-4.468-9.283-8.491-12.495c-4.496-3.592-10.149-5.57-15.915-5.57c-4.078,0-8.136,0.985-11.733,2.848
		c-0.951,0.491-1.322,1.661-0.83,2.612c0.491,0.95,1.661,1.321,2.611,0.83c3.094-1.603,6.442-2.414,9.952-2.414
		c9.211,0,17.244,5.725,20.325,14.19H56.77c-2.571-4.985-7.685-8.141-13.375-8.141c-8.298,0-15.049,6.751-15.049,15.049
		c0,8.301,6.751,15.055,15.049,15.055c5.687,0,10.802-3.156,13.374-8.141h35.072c0.592,0,1.153-0.272,1.52-0.736
		c0.367-0.465,0.503-1.073,0.366-1.649c-0.356-1.499-0.536-3.022-0.536-4.53c0-9.995,7.633-18.241,17.376-19.216v4.296
		c-7.386,0.955-13.111,7.279-13.111,14.92c0,8.301,6.751,15.055,15.049,15.055c8.301,0,15.054-6.754,15.054-15.055
		C127.559,104.863,121.831,98.538,114.443,97.584z M92.27,37.031c-1.327,0-2.407-1.078-2.407-2.402c0-1.327,1.08-2.407,2.407-2.407
		h13.429c2.662,0,4.832,2.152,4.867,4.809H92.27z M43.395,123.684c-6.16,0-11.173-5.015-11.173-11.18
		c0-6.16,5.013-11.173,11.173-11.173c3.5,0,6.706,1.609,8.79,4.265h-8.79c-3.809,0-6.908,3.099-6.908,6.908
		c0,3.813,3.099,6.914,6.908,6.914h8.789C50.1,122.075,46.893,123.684,43.395,123.684z M43.395,115.543
		c-1.672,0-3.033-1.363-3.033-3.039c0-1.672,1.36-3.033,3.033-3.033h46.118c-0.13,0.993-0.198,2.005-0.198,3.033
		c0,1.011,0.068,2.027,0.201,3.039H43.395z M112.505,123.684c-6.161,0-11.173-5.015-11.173-11.18c0-6.16,5.012-11.173,11.173-11.173
		c6.164,0,11.178,5.013,11.178,11.173C123.684,118.669,118.669,123.684,112.505,123.684z"/>
</g>
<path style="fill:#0070AE;" d="M73.07,51.532c-1.563,0-3.001,0.528-4.16,1.405l-10.44-6.481c0.162-0.587,0.256-1.201,0.256-1.839
	c0-3.809-3.101-6.908-6.913-6.908c-3.81,0-6.909,3.099-6.909,6.908c0,3.813,3.099,6.914,6.909,6.914
	c1.766,0,3.374-0.671,4.597-1.764l10.174,6.316c-0.269,0.737-0.423,1.528-0.423,2.357c0,0.547,0.07,1.076,0.191,1.586l-10.152,6.901
	c-1.194-0.982-2.722-1.573-4.386-1.573c-3.81,0-6.909,3.099-6.909,6.908c0,3.813,3.099,6.914,6.909,6.914
	c3.812,0,6.913-3.101,6.913-6.914c0-0.736-0.119-1.445-0.333-2.111l9.899-6.729c1.242,1.193,2.924,1.932,4.778,1.932
	c3.812,0,6.913-3.101,6.913-6.914C79.984,54.632,76.882,51.532,73.07,51.532z M51.813,47.657c-1.673,0-3.034-1.363-3.034-3.039
	c0-1.672,1.361-3.033,3.034-3.033c1.675,0,3.038,1.361,3.038,3.033C54.851,46.295,53.489,47.657,51.813,47.657z M51.813,75.302
	c-1.673,0-3.034-1.363-3.034-3.039c0-1.672,1.361-3.033,3.034-3.033c1.675,0,3.038,1.361,3.038,3.033
	C54.851,73.94,53.489,75.302,51.813,75.302z M73.07,61.48c-1.673,0-3.034-1.363-3.034-3.039c0-1.672,1.361-3.033,3.034-3.033
	c1.675,0,3.038,1.361,3.038,3.033C76.108,60.117,74.746,61.48,73.07,61.48z"/>
</svg>
