<?xml version="1.0" encoding="iso-8859-1"?>
<!-- Generator: Adobe Illustrator 28.1.0, SVG Export Plug-In . SVG Version: 6.00 Build 0)  -->
<svg version="1.1" id="Ebene_1" xmlns="http://www.w3.org/2000/svg" xmlns:xlink="http://www.w3.org/1999/xlink" x="0px" y="0px"
	 viewBox="0 0 155.906 155.906" style="enable-background:new 0 0 155.906 155.906;" xml:space="preserve">
<g>
	<path style="fill:#0070AE;" d="M72.591,32.559v-2.275c0-1.071-0.867-1.938-1.938-1.938c-1.07,0-1.938,0.867-1.938,1.938v2.275
		h-3.628v-2.275c0-1.071-0.868-1.938-1.938-1.938c-1.071,0-1.938,0.867-1.938,1.938v2.275c-1.062,0.01-1.918,0.874-1.918,1.938v8.47
		c0,3.094,2.517,5.611,5.611,5.611h0.06v39.075c0,1.769-1.439,3.208-3.208,3.208c-1.768,0-3.207-1.439-3.207-3.208v-26.17
		c0-4.5-3.244-8.257-7.516-9.056V30.284c0-1.07-0.867-1.938-1.938-1.938H10.442c-1.071,0-1.938,0.868-1.938,1.938v95.337
		c0,1.07,0.867,1.938,1.938,1.938h38.653c1.07,0,1.938-0.868,1.938-1.938V56.423c2.113,0.711,3.64,2.711,3.64,5.06v26.17
		c0,3.906,3.177,7.084,7.083,7.084s7.083-3.177,7.083-7.084V48.578h0.059c3.094,0,5.611-2.517,5.611-5.611v-8.47
		C74.51,33.433,73.653,32.569,72.591,32.559L72.591,32.559z M70.635,42.966"/>
</g>
<rect x="12.379" y="32.222" style="fill:#FFCC00;" width="34.778" height="91.462"/>
<path style="fill:#0070AE;" d="M26.111,70.166c0.396,0.169,0.807,0.254,1.223,0.254c1.04,0,2.005-0.544,2.583-1.454l9.445-14.91
	c0.384-0.606,0.411-1.375,0.07-2.007c-0.341-0.631-0.994-1.023-1.705-1.023h-4.063l2.503-5.964c0.256-0.609,0.194-1.303-0.167-1.856
	c-0.36-0.552-0.966-0.882-1.62-0.882h-6.438c-0.796,0-1.504,0.483-1.802,1.231l-6.132,15.394c-0.242,0.609-0.17,1.296,0.192,1.838
	c0.361,0.543,0.963,0.867,1.609,0.867h3.574l-1.099,4.925C23.945,68.093,24.696,69.568,26.111,70.166z M24.688,57.717l0.068-0.171
	l4.495-11.287h2.19l-2.504,5.965c-0.256,0.609-0.193,1.303,0.168,1.855c0.361,0.552,0.967,0.882,1.62,0.882h3.447l-5.114,8.072
	l0.65-2.914c0.132-0.587-0.005-1.193-0.376-1.664c-0.371-0.469-0.924-0.738-1.518-0.738H24.688z"/>
<path style="fill:#FFCC00;" d="M70.635,42.966c0,0.957-0.778,1.736-1.736,1.736h-3.994c-0.957,0-1.736-0.779-1.736-1.736v-6.532
	h7.465V42.966z"/>
<g>
	<path style="fill:#0070AE;" d="M141.98,98.714c-2.902-0.583-5.883-0.879-8.856-0.879h-5.77l-11.891-10.162
		c-2.103-1.798-4.785-2.788-7.554-2.788H91.623c-3.354,0-6.543,1.446-8.75,3.97c-5.441,6.218-5.457,6.236-5.538,6.329l-1.44,1.647
		c-0.559,0.638-1.365,1.004-2.215,1.004h-4.271c-2.84,0-5.149,2.31-5.149,5.148v12.951c0,2.84,2.31,5.149,5.149,5.149h4.784
		c0.88,3.767,4.274,6.475,8.166,6.475c3.891,0,7.285-2.708,8.166-6.475h30.611c0.881,3.767,4.275,6.475,8.166,6.475
		c3.891,0,7.286-2.708,8.167-6.475h4.783c2.84,0,5.149-2.31,5.149-5.149v-10.607C147.401,102.124,145.122,99.341,141.98,98.714z
		 M68.083,103.888v-0.904c0-0.73,0.595-1.324,1.325-1.324h0.903C69.856,102.636,69.059,103.434,68.083,103.888z M103.695,97.835
		v-9.127h4.215c1.857,0,3.658,0.665,5.069,1.872l8.489,7.255H103.695z M143.578,109.745v6.19c0,0.73-0.595,1.325-1.326,1.325h-4.783
		c-0.881-3.767-4.275-6.475-8.166-6.475c-3.89,0-7.285,2.708-8.167,6.475H90.524c-0.881-3.767-4.275-6.475-8.166-6.475
		c-3.892,0-7.286,2.708-8.166,6.475h-4.784c-0.73,0-1.325-0.595-1.325-1.325v-8.021c3.122-0.728,5.546-3.16,6.262-6.288
		c1.722-0.168,3.287-0.971,4.428-2.277l2.583-2.95l1.657,2.762c0.927,1.542,2.618,2.5,4.416,2.5l26.322-0.003
		c20.679-0.006,20.68-0.005,21.725,0.07l0.017,0.001C135.674,106.072,139.219,109.584,143.578,109.745z M99.871,97.835H87.429
		c-0.463,0-0.898-0.247-1.137-0.644l-2.29-3.818l1.749-2.001c1.481-1.692,3.621-2.664,5.871-2.664h8.249V97.835z M141.23,102.463
		c1.36,0.273,2.348,1.478,2.348,2.864v0.59c-2.13-0.137-3.855-1.694-4.205-3.78C140.008,102.235,140.631,102.344,141.23,102.463z
		 M82.358,114.61c2.517,0,4.563,2.047,4.563,4.562s-2.047,4.562-4.563,4.562s-4.563-2.047-4.563-4.562S79.842,114.61,82.358,114.61z
		 M129.303,114.61c2.516,0,4.562,2.047,4.562,4.562s-2.047,4.562-4.562,4.562c-2.517,0-4.563-2.047-4.563-4.562
		S126.786,114.61,129.303,114.61z"/>
	<path style="fill:#0070AE;" d="M108.259,104.31h-3.238c-1.055,0-1.912,0.857-1.912,1.912s0.857,1.912,1.912,1.912h3.238
		c1.055,0,1.912-0.857,1.912-1.912S109.313,104.31,108.259,104.31z"/>
</g>
</svg>
