<?xml version="1.0" encoding="iso-8859-1"?>
<!-- Generator: Adobe Illustrator 28.1.0, SVG Export Plug-In . SVG Version: 6.00 Build 0)  -->
<svg version="1.1" id="Ebene_1" xmlns="http://www.w3.org/2000/svg" xmlns:xlink="http://www.w3.org/1999/xlink" x="0px" y="0px"
	 viewBox="0 0 155.906 155.906" style="enable-background:new 0 0 155.906 155.906;" xml:space="preserve">
<path style="fill:#FFCC00;" d="M92.234,27.765H18.47c-1.155,0-2.094,1.044-2.094,2.329V66.54c0,1.283,0.939,2.327,2.094,2.327h4.099
	c0.062,0,0.124-0.004,0.185-0.009c0.061,0.006,0.123,0.009,0.185,0.009h69.295c1.155,0,2.094-1.044,2.094-2.327V30.094
	C94.329,28.81,93.389,27.765,92.234,27.765z"/>
<g>
	<g>
		<path style="fill:#0070AE;" d="M88.211,31.847H22.494c-1.029,0-1.866,0.837-1.866,1.866v29.207c0,1.028,0.837,1.865,1.866,1.865
			h3.651c0.055,0,0.11-0.003,0.165-0.008c0.054,0.005,0.109,0.008,0.165,0.008h61.736c1.029,0,1.866-0.837,1.866-1.865V33.713
			C90.077,32.684,89.24,31.847,88.211,31.847z M42.534,61.055H26.475c-0.055,0-0.11,0.003-0.165,0.008
			c-0.054-0.006-0.109-0.008-0.165-0.008h-1.786V35.578h18.175V61.055z M64.44,61.055H46.266V35.578H64.44V61.055z M86.346,61.055
			h-3.001c-0.276-0.935-0.776-1.79-1.454-2.494c1.093-1.129,1.706-2.628,1.706-4.223c0-3.357-2.73-6.087-6.087-6.087
			c-2.903,0-5.415,2.065-5.973,4.91c-0.198,1.008,0.461,1.992,1.471,2.192c0.491,0.097,0.987-0.005,1.4-0.283
			c0.414-0.277,0.694-0.7,0.79-1.189c0.216-1.099,1.188-1.897,2.312-1.897c1.299,0,2.355,1.057,2.355,2.355
			s-1.057,2.356-2.355,2.356c-1.029,0-1.866,0.837-1.866,1.866c0,1.029,0.837,1.866,1.866,1.866c0.606,0,1.172,0.234,1.598,0.629
			H68.171V35.578h7.685c-1.202,1.658-2.04,2.755-2.609,3.503c-1.055,1.38-1.492,1.951-1.173,2.984
			c0.187,0.607,0.646,1.073,1.261,1.277c0.363,0.121,0.566,0.225,8.91,0.123c0.499-0.007,0.964-0.207,1.312-0.563
			c0.347-0.357,0.536-0.828,0.529-1.325c-0.012-1.025-0.885-1.829-1.889-1.843c-1.458,0.018-3.259,0.033-4.793,0.037
			c0.757-1.014,1.756-2.375,3.042-4.192h5.9V61.055z"/>
		<path style="fill:#0070AE;" d="M53.613,42.043h1.614v14.413c0,1.029,0.837,1.866,1.866,1.866c1.029,0,1.866-0.837,1.866-1.866
			V40.177c0-1.028-0.837-1.865-1.866-1.865h-3.48c-1.029,0-1.866,0.837-1.866,1.865C51.747,41.206,52.583,42.043,53.613,42.043z"/>
		<path style="fill:#0070AE;" d="M33.447,58.654c3.624,0,6.573-2.949,6.573-6.573v-7.528c0-3.624-2.949-6.573-6.573-6.573
			c-3.624,0-6.573,2.949-6.573,6.573v7.528C26.874,55.705,29.823,58.654,33.447,58.654z M30.605,44.552
			c0-1.567,1.275-2.842,2.842-2.842c1.567,0,2.842,1.275,2.842,2.842v7.528c0,1.567-1.275,2.842-2.842,2.842
			c-1.567,0-2.842-1.275-2.842-2.842V44.552z"/>
	</g>
</g>
<path style="fill:#0070AE;" d="M80.023,86.917c0,2.117,1.543,3.839,3.44,3.839h3.597l0.042,0.201
	c0.601,2.87,2.955,4.954,5.598,4.954c2.642,0,4.997-2.083,5.598-4.954l0.042-0.201h22.202l0.042,0.201
	c0.602,2.87,2.956,4.954,5.598,4.954s4.997-2.083,5.598-4.954l0.042-0.201h3.596c1.897,0,3.44-1.722,3.44-3.839v-8.443
	c0-2.428-1.547-4.535-3.679-5.01h-0.001c-2.055-0.461-4.165-0.695-6.271-0.695h-4.201l-0.065-0.063l-8.481-8.089
	c-1.458-1.391-3.318-2.157-5.237-2.157H99.309c-2.326,0-4.537,1.119-6.066,3.072l-4.978,6.35c-0.443,0.564-1.082,0.888-1.755,0.888
	h-3.047c-1.897,0-3.44,1.722-3.44,3.839V86.917z M92.7,93.385c-1.923,0-3.487-1.746-3.487-3.891c0-2.146,1.564-3.891,3.487-3.891
	s3.487,1.746,3.487,3.891C96.188,91.64,94.623,93.385,92.7,93.385z M126.183,93.385c-1.923,0-3.488-1.746-3.488-3.891
	c0-2.146,1.565-3.891,3.488-3.891c1.923,0,3.487,1.746,3.487,3.891C129.67,91.64,128.106,93.385,126.183,93.385z M133.401,75.677
	c0.456,0.079,0.903,0.166,1.335,0.262h0.001c1.078,0.242,1.861,1.308,1.861,2.535v0.746l-0.247-0.018
	c-1.625-0.117-2.946-1.443-3.214-3.225l-0.053-0.354L133.401,75.677z M107.687,64.984h3.239c1.381,0,2.718,0.551,3.766,1.553
	l6.534,6.232h-13.539V64.984z M94.945,67.193c1.102-1.404,2.692-2.21,4.363-2.21h6.116v7.784h-9.107
	c-0.411,0-0.798-0.245-1.01-0.638l-1.72-3.201L94.945,67.193z M82.286,76.607c0-0.724,0.528-1.314,1.178-1.314h1.009l-0.154,0.369
	c-0.349,0.836-0.953,1.511-1.702,1.899l-0.331,0.172V76.607z M82.286,80.326l0.18-0.047c2.154-0.561,3.799-2.404,4.292-4.81
	l0.037-0.182l0.167-0.018c1.167-0.127,2.235-0.74,3.006-1.725l2.052-2.616l1.346,2.504c0.619,1.15,1.75,1.864,2.951,1.864
	l18.774-0.003c14.749-0.003,14.75-0.004,15.51,0.056l0.207,0.016l0.022,0.233c0.124,3.317,2.559,6.011,5.544,6.133l0.224,0.009
	v5.178c0,0.725-0.529,1.315-1.179,1.315h-3.596l-0.042-0.201c-0.602-2.87-2.956-4.954-5.598-4.954c-2.642,0-4.996,2.083-5.599,4.954
	l-0.042,0.201H98.34l-0.042-0.201c-0.601-2.87-2.956-4.954-5.598-4.954c-2.643,0-4.997,2.083-5.598,4.954l-0.042,0.201h-3.597
	c-0.649,0-1.178-0.59-1.178-1.315V80.326z"/>
</svg>
