<?xml version="1.0" encoding="iso-8859-1"?>
<!-- Generator: Adobe Illustrator 28.1.0, SVG Export Plug-In . SVG Version: 6.00 Build 0)  -->
<svg version="1.1" id="Ebene_1" xmlns="http://www.w3.org/2000/svg" xmlns:xlink="http://www.w3.org/1999/xlink" x="0px" y="0px"
	 viewBox="0 0 155.906 155.906" style="enable-background:new 0 0 155.906 155.906;" xml:space="preserve">
<path style="fill:#FFCC00;" d="M92.234,27.765H18.47c-1.155,0-2.094,1.044-2.094,2.329V66.54c0,1.283,0.939,2.327,2.094,2.327h4.099
	c0.062,0,0.124-0.004,0.185-0.009c0.061,0.006,0.123,0.009,0.185,0.009h69.295c1.155,0,2.094-1.044,2.094-2.327V30.094
	C94.329,28.81,93.389,27.765,92.234,27.765z"/>
<g>
	<g>
		<path style="fill:#0070AE;" d="M88.211,31.847H22.494c-1.029,0-1.866,0.837-1.866,1.866v29.207c0,1.028,0.837,1.865,1.866,1.865
			h3.651c0.055,0,0.11-0.003,0.165-0.008c0.054,0.005,0.109,0.008,0.165,0.008h61.736c1.029,0,1.866-0.837,1.866-1.865V33.713
			C90.077,32.684,89.24,31.847,88.211,31.847z M42.534,61.055H26.475c-0.055,0-0.11,0.003-0.165,0.008
			c-0.054-0.006-0.109-0.008-0.165-0.008h-1.786V35.578h18.175V61.055z M64.44,61.055H46.266V35.578H64.44V61.055z M86.346,61.055
			h-3.001c-0.276-0.935-0.776-1.79-1.454-2.494c1.093-1.129,1.706-2.628,1.706-4.223c0-3.357-2.73-6.087-6.087-6.087
			c-2.903,0-5.415,2.065-5.973,4.91c-0.198,1.008,0.461,1.992,1.471,2.192c0.491,0.097,0.987-0.005,1.4-0.283
			c0.414-0.277,0.694-0.7,0.79-1.189c0.216-1.099,1.188-1.897,2.312-1.897c1.299,0,2.355,1.057,2.355,2.355
			s-1.057,2.356-2.355,2.356c-1.029,0-1.866,0.837-1.866,1.866c0,1.029,0.837,1.866,1.866,1.866c0.606,0,1.172,0.234,1.598,0.629
			H68.171V35.578h7.685c-1.202,1.658-2.04,2.755-2.609,3.503c-1.055,1.38-1.492,1.951-1.173,2.984
			c0.187,0.607,0.646,1.073,1.261,1.277c0.363,0.121,0.566,0.225,8.91,0.123c0.499-0.007,0.964-0.207,1.312-0.563
			c0.347-0.357,0.536-0.828,0.529-1.325c-0.012-1.025-0.885-1.829-1.889-1.843c-1.458,0.018-3.259,0.033-4.793,0.037
			c0.757-1.014,1.756-2.375,3.042-4.192h5.9V61.055z"/>
		<path style="fill:#0070AE;" d="M53.613,42.043h1.614v14.413c0,1.029,0.837,1.866,1.866,1.866c1.029,0,1.866-0.837,1.866-1.866
			V40.177c0-1.028-0.837-1.865-1.866-1.865h-3.48c-1.029,0-1.866,0.837-1.866,1.865C51.747,41.206,52.583,42.043,53.613,42.043z"/>
		<path style="fill:#0070AE;" d="M33.447,58.654c3.624,0,6.573-2.949,6.573-6.573v-7.528c0-3.624-2.949-6.573-6.573-6.573
			c-3.624,0-6.573,2.949-6.573,6.573v7.528C26.874,55.705,29.823,58.654,33.447,58.654z M30.605,44.552
			c0-1.567,1.275-2.842,2.842-2.842c1.567,0,2.842,1.275,2.842,2.842v7.528c0,1.567-1.275,2.842-2.842,2.842
			c-1.567,0-2.842-1.275-2.842-2.842V44.552z"/>
	</g>
</g>
<g>
	<path style="fill:#0070AE;" d="M127.42,93.948c-0.339,0-0.678,0.01-1.015,0.031l-2.168-11.976c0.503-0.821,0.768-1.756,0.768-2.725
		c0-2.887-2.349-5.235-5.234-5.235h-8.768c-0.176,0-0.344-0.066-0.474-0.187l-3.218-3.004c-0.435-1.993-1.72-3.649-3.556-4.568
		l-4.36-2.183c-1.604-0.803-3.427-0.931-5.133-0.365c-1.706,0.568-3.087,1.764-3.89,3.368L84.209,79.43
		c-1.028,2.959-0.374,6.543,1.619,9.086l-4.292,6.967c-2.182-1.019-4.518-1.535-6.951-1.535c-9.106,0-16.515,7.409-16.515,16.514
		c0,0,0,0.001,0,0.001h0c0,0.014,0.002,0.028,0.002,0.043c0.011,4.321,1.673,8.356,4.671,11.443
		c0.069,0.071,0.133,0.147,0.203,0.217c0.053,0.053,0.099,0.112,0.153,0.164c0.064,0.061,0.134,0.11,0.204,0.161
		c1.419,1.332,3.061,2.427,4.879,3.195c0.016,0.007,0.03,0.018,0.047,0.025c0.403,0.168,0.815,0.307,1.228,0.442
		c0.08,0.026,0.157,0.06,0.238,0.086c0.413,0.128,0.833,0.228,1.254,0.323c0.112,0.025,0.22,0.061,0.333,0.084
		c0.425,0.086,0.855,0.144,1.287,0.197c0.117,0.014,0.23,0.04,0.348,0.052c0.552,0.055,1.109,0.085,1.67,0.085c0,0,0,0,0,0s0,0,0,0
		c0.002,0,0.005,0,0.007,0c0.539,0,1.072-0.029,1.599-0.081c0.265-0.026,0.523-0.074,0.784-0.112
		c0.252-0.037,0.506-0.067,0.755-0.116c0.343-0.066,0.677-0.155,1.011-0.242c0.154-0.04,0.31-0.074,0.462-0.119
		c0.383-0.112,0.756-0.244,1.127-0.382c0.093-0.035,0.187-0.066,0.279-0.102c0.404-0.159,0.797-0.336,1.184-0.525
		c0.052-0.025,0.104-0.049,0.155-0.075c0.41-0.206,0.809-0.428,1.199-0.666c0.024-0.015,0.049-0.03,0.073-0.045
		c0.406-0.25,0.798-0.517,1.18-0.8c0.008-0.006,0.015-0.011,0.023-0.017c2.943-2.194,5.127-5.337,6.101-8.98
		c0.076-0.283,0.159-0.564,0.22-0.853c0.043-0.205,0.068-0.416,0.103-0.624c0.048-0.279,0.106-0.555,0.139-0.839h4.496
		c0.716,1.235,2.039,2.012,3.487,2.012h6.188c1.236,0,2.349-0.637,2.976-1.702c0.629-1.065,0.646-2.348,0.045-3.431l-2.089-3.76
		v-0.62l15.955-13.263l0.549,3.032c-6.914,2.112-11.688,8.517-11.688,15.795c0,9.106,7.409,16.515,16.516,16.515
		s16.515-7.409,16.515-16.516C143.935,101.356,136.527,93.948,127.42,93.948z M93.84,68.832c0.334-0.683,0.972-1.201,1.75-1.422
		c0.403-0.115,0.818-0.146,1.224-0.094c-0.127,0.106-0.249,0.217-0.364,0.335c-1.008,0.971-1.55,2.396-1.487,3.907
		c0.064,1.522,0.744,2.918,1.827,3.797l3.812,3.599l-2.093,4.181l-9.855-3.939L93.84,68.832z M82.781,100.849
		c2.302,1.968,3.83,4.7,4.292,7.676h-0.688l-3.952-0.001h-4.381l2.295-3.727L82.781,100.849z M74.584,97.823
		c1.704,0,3.349,0.333,4.9,0.991l-0.36,0.584l-6.189,10.048c-0.369,0.598-0.385,1.35-0.042,1.961
		c0.341,0.612,0.989,0.993,1.691,0.993h7.85l3.952,0.001h0.673c-0.014,0.09-0.026,0.181-0.042,0.271
		c-0.039,0.217-0.081,0.433-0.131,0.645c-0.036,0.153-0.076,0.304-0.117,0.455c-0.068,0.249-0.14,0.497-0.223,0.74
		c-0.029,0.084-0.061,0.166-0.091,0.249c-1.394,3.796-4.573,6.748-8.456,7.86c-0.056,0.016-0.113,0.029-0.17,0.044
		c-0.297,0.081-0.597,0.153-0.902,0.212c-0.154,0.029-0.312,0.048-0.468,0.072c-0.223,0.034-0.444,0.072-0.67,0.094
		c-0.395,0.038-0.795,0.061-1.199,0.061c-0.002,0-0.004,0-0.006,0c-0.432,0-0.859-0.022-1.28-0.065
		c-0.073-0.007-0.143-0.023-0.216-0.032c-0.35-0.042-0.698-0.089-1.039-0.159c-0.053-0.011-0.104-0.028-0.157-0.039
		c-0.358-0.078-0.712-0.165-1.058-0.273c-0.025-0.008-0.05-0.019-0.075-0.027c-1.938-0.617-3.676-1.688-5.085-3.09
		c-0.05-0.05-0.095-0.103-0.144-0.153c-2.205-2.268-3.572-5.354-3.584-8.757c0-0.015-0.002-0.03-0.002-0.045
		C61.944,103.492,67.615,97.823,74.584,97.823z M94.939,108.524h-3.953c-0.509-4.329-2.719-8.28-6.155-11.004l3.904-6.337
		l5.539,4.473c0.422,0.34,0.665,0.848,0.665,1.391V108.524z M98.969,110.538c-0.086,0-0.155-0.07-0.155-0.157V97.047
		c0-1.719-0.768-3.325-2.105-4.407l-6.887-5.559c-1.276-1.031-2.062-2.525-2.203-4.126l10.536,4.21l3.338,5.128
		c0.473,0.727,0.722,1.569,0.722,2.435v11.771l2.231,4.039H98.969z M106.089,99.861v-5.133c0-1.619-0.467-3.191-1.35-4.547
		l-0.144-0.22h13.401L106.089,99.861z M102.076,86.086l-0.402-0.619l1.886-3.768c2.231,1.82,5.007,2.813,7.911,2.813h8.301
		c0.326,0,0.65-0.03,0.968-0.09l0.302,1.663H102.076z M119.771,80.638l-8.301,0.001c-2.218,0-4.327-0.839-5.94-2.362l-6.108-5.767
		l-0.11-0.097c-0.271-0.222-0.462-0.624-0.485-1.022c-0.016-0.268,0.036-0.66,0.371-1.008c0.26-0.264,0.606-0.409,0.977-0.409
		c0.298,0,0.581,0.094,0.761,0.222l6.952,6.491c0.849,0.793,1.956,1.23,3.117,1.23h8.768c0.75,0,1.359,0.61,1.359,1.36
		S120.521,80.638,119.771,80.638z M127.42,123.102c-6.97,0-12.641-5.67-12.641-12.64c0-5.389,3.463-10.194,8.51-11.944l0.123,0.676
		l0.703,3.887l1.398,7.727c0.188,1.036,1.208,1.757,2.251,1.561c1.051-0.188,1.751-1.198,1.562-2.251l-1.399-7.728
		c0,0-0.626-3.889-0.703-3.888l-0.122-0.678c3.2-0.107,6.388,1.093,8.833,3.332c2.645,2.421,4.148,5.812,4.125,9.307
		C140.06,117.431,134.39,123.102,127.42,123.102z"/>
	<path style="fill:#0070AE;" d="M101.691,63.98c1.073,0.537,2.223,0.81,3.415,0.81c2.924,0,5.552-1.621,6.857-4.229l0.897-1.792
		c0.832-1.664,0.967-3.554,0.378-5.323s-1.829-3.202-3.492-4.033l-1.22-0.612c-1.667-0.833-3.557-0.968-5.325-0.38
		c-1.766,0.588-3.198,1.83-4.032,3.495l-0.897,1.793C96.383,57.483,97.916,62.091,101.691,63.98z M101.737,55.443l0.896-1.793
		c0.37-0.739,1.007-1.29,1.793-1.551c0.322-0.107,0.654-0.16,0.984-0.16c0.474,0,0.945,0.11,1.381,0.328l1.22,0.611
		c0.739,0.37,1.29,1.006,1.552,1.793c0.262,0.786,0.203,1.626-0.167,2.364l-0.897,1.793c-0.451,0.901-1.228,1.574-2.188,1.893
		s-1.985,0.247-2.886-0.205c-0.901-0.451-1.573-1.228-1.893-2.187S101.286,56.344,101.737,55.443z"/>
</g>
</svg>
