<?xml version="1.0" encoding="iso-8859-1"?>
<!-- Generator: Adobe Illustrator 28.1.0, SVG Export Plug-In . SVG Version: 6.00 Build 0)  -->
<svg version="1.1" id="Ebene_1" xmlns="http://www.w3.org/2000/svg" xmlns:xlink="http://www.w3.org/1999/xlink" x="0px" y="0px"
	 viewBox="0 0 155.906 155.906" style="enable-background:new 0 0 155.906 155.906;" xml:space="preserve">
<path style="fill-rule:evenodd;clip-rule:evenodd;fill:#FFCC00;" d="M51.6,127.559c14.481,0,26.22-11.738,26.22-26.224
	c0-14.479-11.739-26.217-26.22-26.217c-14.48,0-26.221,11.738-26.221,26.217C25.379,115.821,37.12,127.559,51.6,127.559
	L51.6,127.559z M51.6,127.559"/>
<path style="fill:#0070AE;" d="M60.613,89.874l-23.252,7.751c-0.791,0.264-1.325,1.005-1.325,1.839s0.534,1.574,1.325,1.839
	l10.706,3.569l3.569,10.706c0.264,0.791,1.005,1.325,1.839,1.325c0.834,0,1.574-0.534,1.839-1.325l7.751-23.252
	c0.232-0.696,0.05-1.463-0.468-1.983C62.076,89.824,61.309,89.643,60.613,89.874L60.613,89.874z M53.475,108.837l-2.037-6.111
	c-0.194-0.578-0.647-1.032-1.226-1.226l-6.111-2.037l14.06-4.687L53.475,108.837z M53.475,108.837"/>
<path style="fill:#0070AE;" d="M117.931,80.666H86.733c-2.672,0-4.844-2.173-4.844-4.844s2.173-4.844,4.844-4.844l26.151,0
	l1.19-1.605c0.034-0.045,3.426-4.331,6.769-9.761c4.591-7.453,6.917-12.93,6.917-16.277c0-8.204-6.673-14.877-14.877-14.877
	c-8.204,0-14.877,6.674-14.877,14.877c0,3.347,2.327,8.823,6.917,16.277c1.869,3.035,3.752,5.711,5.056,7.491H86.733
	c-4.808,0-8.72,3.912-8.72,8.72s3.912,8.72,8.72,8.72h31.198c4.808,0,8.72,3.912,8.72,8.72s-3.912,8.72-8.72,8.72H83.827
	c-1.07,0-1.938,0.868-1.938,1.938s0.868,1.938,1.938,1.938h34.104c6.945,0,12.595-5.651,12.595-12.595
	S124.876,80.666,117.931,80.666z M106.931,41.846c0-3.287,2.665-5.953,5.953-5.953s5.953,2.666,5.953,5.953
	c0,3.288-2.665,5.954-5.953,5.954S106.931,45.134,106.931,41.846z"/>
</svg>
