<?xml version="1.0"?>
<svg xmlns="http://www.w3.org/2000/svg" xmlns:xlink="http://www.w3.org/1999/xlink" viewBox="0 0 649 650" version="1.1">
  <g id="layer1" transform="translate(-1319.188,294.1203)">
    <g id="g128879">
      <path style="font-size:3.15269995px;font-family:fnt0, Futura, Arial;letter-spacing:-0.063054;word-spacing:0;fill:#ffcf00;fill-rule:nonzero;stroke:none;stroke-width:0.92400002;stroke-linecap:butt;stroke-linejoin:miter;stroke-miterlimit:4;stroke-dasharray:none" d="m 1319.188,-294.12032 h 608.8999 V 315.58004 H 1319.188 Z" class="ps0318 ps161 ps20" id="path7384"/>
      <path style="font-size:3.15269995px;font-family:fnt0, Futura, Arial;letter-spacing:-0.063054;word-spacing:0;fill:#231f1f;fill-rule:nonzero;stroke:none;stroke-width:0.92400002;stroke-linecap:butt;stroke-linejoin:miter;stroke-miterlimit:4;stroke-dasharray:none" d="m 1348.4688,-77.516372 h 36.9055 l 7.8215,-38.106038 h 41.1132 l 6.8205,38.106038 h 45.3243 l -37.7029,-184.514558 h -58.7651 z m 66.1862,-146.408188 h 0.4005 l 13.037,76.21242 h -28.6802 l 15.2427,-76.21242" class="ps010 ps161 ps20" id="path7386"/>
      <path style="font-size:3.15269995px;font-family:fnt0, Futura, Arial;letter-spacing:-0.063054;word-spacing:0;fill:#231e1f;fill-rule:nonzero;stroke:none;stroke-width:0.033;stroke-linecap:butt;stroke-linejoin:miter;stroke-miterlimit:4;stroke-dasharray:none" d="m 1498.69,-77.516372 h 55.1546 c 55.3515,0 76.8141,-44.123028 76.8141,-96.268498 0,-54.1509 -26.2743,-88.24606 -82.43,-88.24606 H 1498.69 Z m 45.7281,-152.425178 h 3.8106 c 30.2819,0 33.2917,34.09517 33.2917,54.15124 0,24.06696 0,64.17911 -32.0904,64.17911 h -5.0119 v -118.33035" class="ps07 ps162 ps20" id="path7390"/>
      <path style="font-size:3.15269995px;font-family:fnt0, Futura, Arial;letter-spacing:-0.063054;word-spacing:0;fill:#231e1f;fill-rule:nonzero;stroke:none;stroke-width:0.033;stroke-linecap:butt;stroke-linejoin:miter;stroke-miterlimit:4;stroke-dasharray:none" d="m 1625.243,-77.516372 h 38.1067 l 8.0218,-38.106038 h 42.3178 l 7.2209,38.106038 h 46.7291 l -39.1078,-184.514558 h -60.3701 z m 68.1883,-146.408188 h 0.604 l 13.2372,76.21242 h -29.4843 l 15.6431,-76.21242" class="ps07 ps162 ps20" id="path7394"/>
      <path style="font-size:3.15269995px;font-family:fnt0, Futura, Arial;letter-spacing:-0.063054;word-spacing:0;fill:#231e1f;fill-rule:nonzero;stroke:none;stroke-width:0.033;stroke-linecap:butt;stroke-linejoin:miter;stroke-miterlimit:4;stroke-dasharray:none" d="m 1857.2902,-197.85182 c 0,-12.03365 -3.2101,-34.09517 -19.654,-34.09517 -19.2536,0 -22.0632,28.07818 -22.0632,62.17334 0,38.10637 1.8052,60.16789 23.0642,60.16789 16.8477,0 20.6584,-14.03908 21.6595,-36.1006 l 39.5115,4.01121 c 0,40.11182 -23.6649,66.184553 -63.1764,66.184553 -55.3548,0 -70.3973,-46.128803 -70.3973,-94.263053 0,-46.12848 14.8422,-96.2685 70.3973,-96.2685 43.7226,0 63.1764,30.08395 63.1764,68.19033 h -42.518" class="ps07 ps162 ps20" id="path7398"/>
    </g>
  </g>
</svg>
