<?xml version="1.0"?>
<svg xmlns="http://www.w3.org/2000/svg" xmlns:xlink="http://www.w3.org/1999/xlink" viewBox="0 0 16 22" version="1.1">
  <defs>
    <circle id="a" cx="7.2" cy="7.2" r="7.2"/>
  </defs>
  <g fill="none" fill-rule="evenodd">
    <g transform="translate(-52 -376)">
      <g transform="translate(36 360)">
        <g transform="translate(16.8 16.8)">
          <circle id="c" cx="7.2" cy="7.2" r="7.6" style="fill: var(--operatorbg, #FBB800);stroke-width:.8"/>
          <g>
            <circle cx="7.2" cy="7.2" r="7.6" stroke="#fff" stroke-width=".8"/>
            <g transform="translate(1.2 1.2)">
              <path d="m4.8237 5.5607 0.50856 1.3241-1.4952 0.144 0.98664-1.4681zm2.9047-0.08784 0.39936 1.0423c0.1596 0.42216 0.42192 0.82536 0.61896 1.0505 0.2064 0.24384 0.49704-0.00936 0.31896-0.23448-0.19704-0.24384-0.4128-0.6096-0.5628-0.99408l-0.72432-1.9133h0.58248l0.31872 0.80664c0.04704 0.11256 0.1128 0.15936 0.21576 0.15936h0.77832c0.1128 0 0.18768-0.05616 0.21576-0.15l0.39408-1.1441c0.0936-0.2628-0.22512-0.37512-0.32832-0.15024-0.3096 0.68472-0.94704 0.59088-1.1815 0.31896-0.09408-0.11256-0.1596-0.16872-0.28152-0.16872h-0.83808l-0.0024-0.00672c0.00192-0.00312 0.00408-0.00624 6e-3 -0.00936 0.1752-0.26712 0.2244-0.35808 0.26592-0.56112 0.0408-0.19824 2.4e-4 -0.38328-0.11496-0.52272-0.12432-0.15024-0.30864-0.2448-0.53376-0.24024-0.3132 0.00504-0.5544 0.25584-0.58104 0.28488-0.07608 0.08184-0.07128 0.21024 0.01104 0.2868 0.0828 0.07584 0.2052 0.06768 0.28728-0.0108 0.04656-0.04512 0.16992-0.16032 0.28872-0.162 0.10128-0.00288 0.15624 0.04104 0.18768 0.07392 0.04728 0.04968 0.07776 0.14352 0.05472 0.23232-0.0168 0.0648-0.036 0.12624-0.17064 0.34176l-4.8e-4 -4.8e-4c-0.10944 0.13152-0.16368 0.25368-0.11688 0.38496l0.33696 0.87912c-0.63336 0.42456-1.1038 1.0411-1.2818 1.8374-0.12576-0.0672-0.26592-0.08736-0.43224-0.06936l-0.10152 0.00984-1.1023-2.8745c0.10368-0.02832 0.22296-0.05232 0.36912-0.06144l0.12192-0.00936c0.12192-0.00936 0.21552-0.08424 0.21552-0.19704 0-0.11232-0.08424-0.20616-0.23424-0.20616h-0.60024c-0.44088 0-0.516-0.00696-0.76896-0.00696-0.15024 0-0.24384 0.05376-0.24384 0.16632 0 0.23448 0.30936 0.45024 0.6 0.45024 0.04992 0 0.0972-0.00624 0.14472-0.01608l0.38736 1.009-0.3912 0.58272c-0.39408-0.29088-0.8628-0.45024-1.3411-0.45024-0.55416 0-1.0728 0.20208-1.4458 0.51288-0.01224 0.01032-0.09072 0.08448-0.102 0.09576-0.10872 0.10872-0.07392 0.30312 0.07776 0.33024 0.01416 0.0024 0.0912 0.024 0.10512 0.02736 0.576 0.13896 1.1222 0.49248 1.5576 0.96072-0.11928 0.07944-0.19272 0.20688-0.19272 0.34248 0 0.24384 0.15936 0.4128 0.43128 0.44088l2.4478 0.26256c0.4596 0.04704 0.83472-0.15 0.87216-0.71256l0.00936-0.13152c0.04464-0.72552 0.42384-1.4246 1.0543-1.8864z" style="fill: var(--operatorfg)"/>
              <path d="m3.2885 8.8317c-0.75024 0-1.3598-0.60024-1.3598-1.3505 0-0.23448 0.06576-0.46896 0.2064-0.69408-0.11256-0.07512-0.2532-0.14064-0.37536-0.18768-0.15936 0.2628-0.24384 0.58176-0.24384 0.88176 0 0.97536 0.79752 1.763 1.7726 1.763 0.62832 0 1.1911-0.32808 1.5005-0.83472l-0.49704-0.05616c-0.22488 0.3-0.59088 0.47832-1.0034 0.47832" style="fill: var(--operatorfg)"/>
              <path d="m8.9344 5.718c-0.11256 0-0.21576 0.00936-0.3096 0.02808l0.15 0.39384c0.04704-0.00936 0.1032-0.00936 0.1596-0.00936 0.74064 0 1.3502 0.6096 1.3502 1.3507 0 0.75024-0.6096 1.3505-1.3502 1.3505-0.75024 0-1.3505-0.60024-1.3505-1.3505 0-0.3096 0.1032-0.59088 0.27192-0.816l-0.16872-0.44088c-0.31896 0.31896-0.52536 0.76896-0.52536 1.2569 0 0.97512 0.79728 1.763 1.7726 1.763 0.97512 0 1.763-0.78792 1.763-1.763 0-0.9756-0.78792-1.7633-1.763-1.7633" style="fill: var(--operatorfg)"/>
            </g>
          </g>
          <circle cx="12" cy="2.4" r="2.8" style="fill: var(--badgecolor);stroke:var(--badgestroke, #fff);stroke-width:.8"/>
        </g>
        <path d="m23.2 31.2h1.6v5.6c0 0.44183-0.35817 0.8-0.8 0.8s-0.8-0.35817-0.8-0.8v-5.6z" fill="#333"/>
      </g>
    </g>
  </g>
</svg>
