<?xml version="1.0" encoding="UTF-8" standalone="no"?>
<svg
   width="500"
   height="500"
   viewBox="0 0 500 500"
   version="1.1"
   id="svg6"
   sodipodi:docname="stadtmobil_suedbaden.svg"
   inkscape:version="1.2.1 (9c6d41e410, 2022-07-14)"
   xmlns:inkscape="http://www.inkscape.org/namespaces/inkscape"
   xmlns:sodipodi="http://sodipodi.sourceforge.net/DTD/sodipodi-0.dtd"
   xmlns="http://www.w3.org/2000/svg"
   xmlns:svg="http://www.w3.org/2000/svg">
  <defs
     id="defs10" />
  <sodipodi:namedview
     id="namedview8"
     pagecolor="#ffffff"
     bordercolor="#000000"
     borderopacity="0.25"
     inkscape:showpageshadow="2"
     inkscape:pageopacity="0.0"
     inkscape:pagecheckerboard="0"
     inkscape:deskcolor="#d1d1d1"
     showgrid="false"
     inkscape:zoom="1.5581651"
     inkscape:cx="241.95125"
     inkscape:cy="303.56218"
     inkscape:window-width="1920"
     inkscape:window-height="1017"
     inkscape:window-x="-8"
     inkscape:window-y="-8"
     inkscape:window-maximized="1"
     inkscape:current-layer="svg6" />
  <rect
     style="fill:#ffffff;fill-rule:evenodd;stroke-width:1.9609"
     id="rect345"
     width="500"
     height="500"
     x="0"
     y="0" />
  <path
     d="m 342.13454,206.3266 c -13.445,4.796 -21.594,18.514 -18.783,31.619 3.098,14.449 13.728,23.246 28.057,23.222 10.692,-0.018 20.252,-5.936 25.181,-15.589 2.659,-5.208 3.879,-17.702 1.726,-17.679 -0.761,0.009 -6.941,3.159 -13.734,7 -6.792,3.842 -12.754,6.985 -13.25,6.985 -0.495,0 -0.9,-3.575 -0.9,-7.943 v -7.944 l 10.01,-5.667 c 5.505,-3.117 10.238,-6.039 10.518,-6.492 0.756,-1.223 -5.543,-5.695 -10.472,-7.434 -5.271,-1.86 -13.263,-1.893 -18.353,-0.078"
     stroke="none"
     fill="#e3041b"
     fill-rule="evenodd"
     id="path2" />
  <path
     d="m 471.66954,222.6346 0.262,38.75 h 7 7 l 0.262,-38.75 0.261,-38.75 h -7.523 -7.523 l 0.261,38.75 m -293.238,-24.386 v 13.364 l -4.669,-2.364 c -13.65,-6.91 -28.212,2.091 -31.295,19.345 -2.346,13.129 2.645,26.154 11.871,30.984 7.425,3.886 17.81,2.707 22.498,-2.555 2.603,-2.922 3.595,-2.684 3.595,0.862 v 3 h 6 6 v -38 -38 h -7 -7 v 13.364 m 211,25.136 v 38.5 h 5.875 c 5.8,0 5.883,-0.04 6.51,-3.177 0.551,-2.754 0.801,-2.965 1.875,-1.587 2.885,3.699 8.125,5.756 14.674,5.76 15.403,0.009 24.469,-10.796 24.372,-29.051 -0.062,-11.774 -4.305,-19.832 -12.715,-24.144 -5.947,-3.049 -16.949,-2.291 -21.934,1.511 l -3.657,2.79 v -14.551 -14.551 h -7.5 -7.5 v 38.5 m 60,-34.5 c -1.238,1.238 -2,3.333 -2,5.5 0,4.598 2.902,7.5 7.5,7.5 4.598,0 7.5,-2.902 7.5,-7.5 0,-2.167 -0.762,-4.262 -2,-5.5 -2.652,-2.652 -8.348,-2.652 -11,0 m -385.000005,7.97 -5.5,1.764 -0.302,4.574 c -0.287,4.339 -0.467,4.589 -3.5,4.883 -3.107,0.3 -3.207,0.458 -3.5,5.559 l -0.303,5.25 h 3.433 3.433 l 0.408,15.75 c 0.339,13.061 0.744,16.433 2.37,19.75 2.449,4.996 7.161,7.496 14.129,7.498 7.832,0.003 8.332,-0.394 8.332,-6.605 v -5.393 h -4.465 c -3.391,0 -4.714,-0.465 -5.5,-1.934 -0.569,-1.064 -1.035,-8.039 -1.035,-15.5 v -13.566 h 6 6 v -5.5 -5.5 h -6 -6 v -6.5 c 0,-7.313 0.243,-7.175 -8,-4.53 m 148.000005,-0.081 -5.5,1.692 -0.305,4.71 c -0.3,4.642 -0.354,4.709 -3.75,4.709 h -3.445 v 5.5 5.5 h 3.397 3.397 l 0.386,16.25 c 0.31,13.098 0.728,16.889 2.151,19.544 2.605,4.859 7.098,7.198 13.837,7.202 8.378,0.006 8.832,-0.334 8.832,-6.603 v -5.393 h -4.465 c -3.391,0 -4.714,-0.465 -5.5,-1.934 -0.569,-1.064 -1.035,-8.039 -1.035,-15.5 v -13.566 h 6.052 6.053 l -0.303,-5.25 -0.302,-5.25 -5.75,-0.3 -5.75,-0.3 v -6.45 c 0,-7.248 0.256,-7.102 -8,-4.561 m -186.500005,11.333 c -7.298,2.587 -11.5,8.152 -11.5,15.229 0,7.142 4.805,12.532 14.338,16.085 5.937,2.212 8.434,5.475 6.85,8.951 -1.866,4.096 -8.623,4.115 -18.369,0.053 -1.325,-0.552 -1.906,0.111 -2.744,3.13 -0.585,2.106 -1.066,4.563 -1.069,5.459 -0.01,2.673 5.816,4.371 14.994,4.371 14.354,0 20.5,-4.797 20.5,-16 0,-8.351 -2.35,-11.371 -12.567,-16.154 -5.765,-2.698 -8.151,-4.368 -8.558,-5.987 -1.477,-5.887 4.048,-7.282 15.236,-3.847 1.849,0.568 2.259,0.061 3.304,-4.089 1.341,-5.327 1.094,-5.701 -4.915,-7.414 -4.433,-1.264 -11.614,-1.165 -15.5,0.213 m 78.000005,-0.561 c -1.1,0.235 -3.912,1.12 -6.250005,1.966 -4.598,1.664 -5.035,2.822 -3.131,8.285 0.841,2.411 1.525,3.036 2.75,2.509 11.030005,-4.747 19.482005,-3.517 21.513005,3.129 0.573,1.878 0.016,2.139 -6.637,3.097 -14.887005,2.145 -21.837005,7.772 -22.480005,18.201 -0.424,6.883 2.366,12.421 7.735,15.358 5.216005,2.853 14.560005,2.13 19.311005,-1.494 l 3.55,-2.708 0.32,2.248 c 0.285,2.007 0.964,2.279 6.332,2.54 l 6.013,0.291 -0.295,-18.291 c -0.341,-21.208 -1.161,-25.389 -5.911,-30.138 -4.736,-4.737 -14.277,-6.824 -22.82,-4.993 m 154,1.503 c -1.1,0.607 -3.238,2.253 -4.75,3.657 l -2.75,2.553 v -3.187 -3.187 h -6.645 -6.644 l 0.637,6.75 c 0.351,3.712 0.641,15.638 0.645,26.5 l 0.007,19.75 h 7 7 v -17.923 c 0,-17.654 0.038,-17.968 2.497,-20.891 2.935,-3.488 6.342,-4.578 9.982,-3.194 4.57,1.737 5.521,6.041 5.521,24.976 v 17.032 h 7 7 v -17.923 c 0,-17.654 0.038,-17.968 2.497,-20.891 2.935,-3.488 6.342,-4.578 9.982,-3.194 4.57,1.737 5.521,6.041 5.521,24.976 v 17.032 h 7 7 v -18.874 c 0,-14.406 -0.363,-19.904 -1.534,-23.222 -2.881,-8.167 -8.213,-11.904 -16.982,-11.904 -6.317,0 -8.571,0.903 -13.207,5.29 l -3.222,3.049 -2.116,-2.689 c -1.164,-1.48 -3.404,-3.356 -4.978,-4.17 -3.338,-1.726 -13.55,-1.922 -16.461,-0.316 m 117,2.755 c -3.3,2.008 -10.163,6.031 -15.25,8.94 l -9.25,5.291 v 7.925 c 0,4.359 0.416,7.925 0.925,7.925 0.509,0 5.796,-2.768 11.75,-6.151 5.954,-3.383 12.307,-6.772 14.119,-7.531 1.811,-0.76 3.518,-1.967 3.793,-2.683 0.274,-0.716 0.367,-4.916 0.206,-9.333 l -0.293,-8.032 -6,3.649 m 72.5,23.581 v 26.5 h 7.5 7.5 v -26.5 -26.5 h -7.5 -7.5 v 26.5 m -283.612,-16.52 c -1.161,0.469 -3.072,2.075 -4.246,3.567 -7.147,9.086 -3.573,25.882 5.952,27.974 4.024,0.883 9.418,-1.973 11.329,-5.999 2.075,-4.373 2.111,-16.59 0.06,-20.555 -2.49,-4.814 -8.169,-6.977 -13.095,-4.987 m 246.375,1.585 c -4.313,2.34 -5.763,6.281 -5.763,15.663 0,9.184 1.069,11.722 6.011,14.278 9.156,4.734 17.945,-2.616 17.945,-15.006 0,-12.447 -9.065,-19.888 -18.193,-14.935 m -301.762,17.187 c -4.68,2.339 -6.576,6.275 -4.803,9.975 1.748,3.648 5.687,4.977 9.756,3.292 3.842,-1.591 6.046,-5.589 6.046,-10.969 0,-4.014 -0.034,-4.05 -3.75,-4.048 -2.062,0 -5.324,0.788 -7.249,1.75 m 3.999,54.678 v 17.57 h 2.5 c 2.469,0 2.5,-0.105 2.5,-8.429 0,-9.21 1.13,-11.571 5.536,-11.571 3.434,0 4.464,2.754 4.464,11.934 0,8.015 0.016,8.066 2.594,8.066 h 2.593 l -0.343,-10.09 c -0.313,-9.183 -0.556,-10.261 -2.705,-12 -2.514,-2.034 -7.66,-2.503 -10.139,-0.924 -1.259,0.802 -1.58,-0.043 -2,-5.265 -0.443,-5.51 -0.757,-6.258 -2.75,-6.541 l -2.25,-0.319 v 17.569 m 223,-10.73 c 0,5.211 -0.267,6.433 -1.2,5.5 -1.47,-1.47 -8.229,-1.576 -10.855,-0.17 -2.964,1.586 -4.945,6.355 -4.945,11.905 0,4.14 0.514,5.609 2.898,8.276 2.358,2.64 3.646,3.244 6.92,3.244 2.535,0 4.791,-0.696 6.102,-1.883 1.844,-1.668 2.08,-1.694 2.08,-0.227 0,0.988 0.806,1.655 2,1.655 1.924,0 2,-0.667 2,-17.5 v -17.5 h -2.5 c -2.418,0 -2.5,0.22 -2.5,6.7 m 13.667,-6.033 c -0.367,0.366 -0.667,8.241 -0.667,17.5 v 16.833 h 2.5 c 1.375,0 2.5,-0.427 2.5,-0.949 0,-0.522 1.614,-0.275 3.586,0.549 7.419,3.1 14.402,-2.424 14.41,-11.4 0.005,-4.885 -2.104,-9.652 -4.941,-11.17 -2.835,-1.518 -8.292,-1.253 -10.832,0.527 l -2.223,1.556 v -7.056 c 0,-6.176 -0.229,-7.057 -1.833,-7.057 -1.009,0 -2.134,0.3 -2.5,0.667 m 70,0 c -0.367,0.366 -0.667,3.381 -0.667,6.7 0,4.692 -0.267,5.766 -1.2,4.833 -0.66,-0.66 -3.051,-1.2 -5.313,-1.2 -11.551,0 -14.662,19.104 -3.847,23.623 3.722,1.555 6.75,1.115 9.61,-1.396 1.581,-1.388 1.75,-1.377 1.75,0.118 0,1.049 0.824,1.655 2.25,1.656 l 2.25,10e-4 -0.295,-17.501 c -0.27,-16.036 -0.444,-17.501 -2.083,-17.501 -0.984,0 -2.089,0.3 -2.455,0.667 m -397.650005,3.184 c -4.357,2.337 -6.899,5.721 -8.058,10.726 -2.563,11.065 4.178,20.471 14.867,20.747 6.842,0.177 10.096,-0.907 9.505,-3.166 -0.41,-1.57 -1.227,-1.778 -5.396,-1.378 -9.44,0.907 -13.935,-3.194 -13.935,-12.715 0,-4.15 0.513,-5.607 2.92,-8.299 2.737,-3.061 3.33,-3.265 9.444,-3.248 5.314,0.015 6.606,-0.297 6.969,-1.685 0.569,-2.174 -1.219,-2.833 -7.68,-2.833 -3.136,0 -6.548,0.732 -8.636,1.851 m 67.393,0.473 c -2.107,1.812 -2.81,3.313 -2.81,5.997 0,4.334 2.43,7.303 7.914,9.672 5.183,2.238 6.875005,4.32 6.082005,7.479 -0.885005,3.526 -5.333005,4.385 -12.572005,2.427 -0.916,-0.247 -1.604,0.434 -1.813,1.796 -0.278,1.82 0.357,2.381 3.727,3.288 10.564,2.845 19.912005,-6.042 14.492005,-13.779 -0.863,-1.232 -3.772,-3.357 -6.464005,-4.721 -10.02,-5.078 -8.198,-12.062 2.618005,-10.033 3.313,0.621 3.547,0.503 3.243,-1.64 -0.291,-2.059 -0.94,-2.342 -5.967005,-2.607 -4.773,-0.251 -6.072,0.076 -8.45,2.121 m 94.584005,-0.817 c -1.107,1.334 -1.063,1.852 0.264,3.18 2.145,2.144 4.972,0.953 4.562,-1.922 -0.391,-2.739 -3.027,-3.426 -4.826,-1.258 m 86.506,-0.352 c -5.557,3.039 -6.199,9.456 -1.394,13.944 1.708,1.595 3.672,2.901 4.365,2.901 0.693,0 2.445,0.933 3.894,2.073 2.784,2.189 3.44,5.722 1.435,7.727 -1.455,1.455 -8.219,1.581 -10.799,0.201 -1.5,-0.803 -1.996,-0.592 -2.525,1.075 -0.835,2.631 -0.531,2.9 4.577,4.047 7.868,1.768 14.947,-2.771 14.947,-9.584 0,-3.736 -3.049,-7.017 -9.323,-10.032 -4.497,-2.161 -5.878,-5.354 -3.537,-8.176 0.975,-1.174 2.451,-1.421 5.992,-1.002 3.744,0.444 4.824,0.229 5.317,-1.056 0.34,-0.887 0.041,-1.98 -0.665,-2.428 -1.855,-1.177 -9.939,-0.973 -12.284,0.31 m 24.89,0.271 c -0.91,2.371 0.377,4.765 2.357,4.384 1.107,-0.213 1.753,-1.249 1.753,-2.81 0,-2.851 -3.156,-4.059 -4.11,-1.574 m 9,0 c -0.91,2.371 0.377,4.765 2.357,4.384 1.107,-0.213 1.753,-1.249 1.753,-2.81 0,-2.851 -3.156,-4.059 -4.11,-1.574 m -258.140005,8.236 c -1.01,0.408 -1.91,4.338 -0.993,4.338 0.141,0 1.804,-0.444 3.696,-0.986 2.661,-0.764 3.961,-0.645 5.743,0.523 3.68,2.41 2.851,4.141 -2.258,4.717 -5.772,0.651 -9.438,3.861 -9.438,8.265 0,1.868 0.797,3.892 1.939,4.926 2.24,2.027 8.413,2.337 10.588,0.533 1.03,-0.855 1.473,-0.885 1.473,-0.1 0,0.617 1.125,1.122 2.5,1.122 2.437,0 2.5,-0.182 2.494,-7.25 -0.006,-8.755 -1.425,-14.375 -3.972,-15.738 -1.931,-1.034 -9.518,-1.259 -11.772,-0.35 m 23.559,11.336 c 0.306,11.92 0.325,12.002 2.711,12.002 2.331,0 2.411,-0.258 2.691,-8.75 l 0.289,-8.75 3.228,-1.5 c 3.743,-1.739 4.461,-5 1.101,-5 -1.194,0 -2.994,0.745 -4,1.655 -1.702,1.54 -1.829,1.54 -1.829,0 0,-1.049 -0.824,-1.656 -2.25,-1.657 -2.226,-0.002 -2.247,0.128 -1.941,12 m 72.901005,-10.748 c -2.626,1.963 -0.709,3.897 2.85,2.876 3.877,-1.112 7.44,0.249 7.44,2.842 0,1.598 -0.651,2.032 -3.05,2.032 -7.106,0 -12.3,5.942 -9.866,11.286 1.678,3.683 6.147,5.062 10.501,3.243 1.878,-0.785 3.415,-1 3.415,-0.478 0,0.522 0.9,0.949 2,0.949 1.86,0 2,-0.667 2,-9.545 0,-8.802 -0.191,-9.737 -2.455,-12 -1.854,-1.855 -3.519,-2.455 -6.808,-2.455 -2.395,0 -5.107,0.563 -6.027,1.25 m 23.29,10.75 v 12 h 2.5 c 2.426,0 2.5,-0.204 2.5,-6.935 0,-8.548 1.153,-11.814 4.465,-12.645 1.596,-0.401 2.535,-1.338 2.535,-2.528 0,-2.326 -2.711,-2.483 -5.777,-0.335 -2.012,1.409 -2.223,1.409 -2.223,0 0,-0.89 -0.857,-1.557 -2,-1.557 -1.889,0 -2,0.667 -2,12 m 18,0 v 12 h 2.5 2.5 v -12 -12 h -2.5 -2.5 v 12 m 13,0 v 12 h 2.5 c 2.452,0 2.5,-0.148 2.5,-7.777 0,-9.169 1.623,-12.521 5.824,-12.03 3.682,0.43 5.144,3.985 5.161,12.557 0.015,7.151 0.051,7.25 2.634,7.25 h 2.62 l -0.414,-9.467 c -0.362,-8.276 -0.714,-9.786 -2.794,-12 -2.546,-2.71 -7.539,-3.402 -11.036,-1.53 -1.252,0.67 -2.079,0.67 -2.493,0 -0.341,-0.552 -1.493,-1.003 -2.561,-1.003 -1.813,0 -1.941,0.788 -1.941,12 m 30.862,-9.168 c -2.681,2.395 -3.242,3.702 -3.638,8.478 -0.447,5.392 -0.309,5.805 3.054,9.168 3.706,3.706 7.869,4.584 11.788,2.487 1.618,-0.866 1.934,-0.702 1.934,1 0,1.119 -0.956,2.991 -2.125,4.16 -1.784,1.784 -2.899,2.032 -6.972,1.55 -3.048,-0.361 -5.1,-0.165 -5.528,0.527 -1.161,1.879 2.781,3.798 7.8,3.798 3.882,0 5.415,-0.555 8.059,-2.915 l 3.266,-2.916 0.326,-14.084 c 0.316,-13.694 0.268,-14.085 -1.75,-14.085 -1.265,0 -2.076,0.647 -2.076,1.655 0,1.54 -0.127,1.54 -1.829,0 -2.933,-2.655 -8.63,-2.11 -12.309,1.177 m 64.17,6.918 c 0.034,10.586 0.748,12.455 5.432,14.236 3.102,1.18 6.13,0.573 8.786,-1.759 1.581,-1.388 1.75,-1.377 1.75,0.118 0,0.988 0.806,1.655 2,1.655 1.889,0 2,-0.667 2,-12 v -12 h -2.5 c -2.469,0 -2.5,0.105 -2.5,8.429 0,9.124 -1.136,11.571 -5.371,11.571 -3.86,0 -4.629,-1.86 -4.629,-11.2 0,-8.72 -0.023,-8.8 -2.5,-8.8 -2.498,0 -2.5,0.008 -2.468,9.75 m 88.218,-9.088 c -1.01,0.408 -1.91,4.338 -0.993,4.338 0.141,0 1.804,-0.444 3.696,-0.986 2.661,-0.764 3.961,-0.645 5.743,0.523 3.68,2.41 2.851,4.141 -2.258,4.717 -5.772,0.651 -9.438,3.861 -9.438,8.265 0,1.868 0.797,3.892 1.939,4.926 2.24,2.027 8.413,2.337 10.588,0.533 1.03,-0.855 1.473,-0.885 1.473,-0.1 0,0.617 1.125,1.122 2.5,1.122 2.437,0 2.5,-0.182 2.494,-7.25 -0.006,-8.755 -1.425,-14.375 -3.972,-15.738 -1.931,-1.034 -9.518,-1.259 -11.772,-0.35 m 54.612,2.17 c -2.668,2.384 -3.233,3.689 -3.571,8.25 -0.727,9.789 5.556,15.165 15.345,13.131 5.983,-1.243 5.125,-3.71 -1.295,-3.726 -5.601,-0.014 -9.341,-2.273 -9.341,-5.642 0,-1.642 0.894,-1.845 8.132,-1.845 h 8.131 l -0.569,-4.248 c -1.146,-8.544 -10.295,-11.761 -16.832,-5.92 m 23.531,-1.25 c 0.334,0.87 0.607,6.27 0.607,12 v 10.418 h 2.5 c 2.469,0 2.5,-0.105 2.5,-8.429 0,-9.21 1.13,-11.571 5.536,-11.571 3.434,0 4.464,2.754 4.464,11.934 0,8.015 0.016,8.066 2.594,8.066 h 2.593 l -0.343,-10.09 c -0.313,-9.183 -0.556,-10.261 -2.705,-12 -2.856,-2.311 -7.889,-2.474 -10.916,-0.353 -2.012,1.409 -2.223,1.409 -2.223,0 0,-1.011 -0.914,-1.557 -2.607,-1.557 -1.966,0 -2.458,0.389 -2,1.582 m -18.893,2.613 c -2.331,1.322 -3.463,2.802 -3.485,4.555 -0.01,0.85 1.743,1.25 5.485,1.25 4.78,0 5.5,-0.254 5.5,-1.943 0,-1.069 -1,-2.644 -2.223,-3.5 -2.611,-1.829 -2.681,-1.834 -5.277,-0.362 m -208.943,2.028 c -2.232,3.185 -2,9.334 0.443,11.777 2.496,2.496 6.173,2.571 8.345,0.171 2.173,-2.401 2.227,-10.457 0.084,-12.6 -2.333,-2.332 -7.024,-1.988 -8.872,0.652 m 95,0 c -0.856,1.222 -1.557,4.077 -1.557,6.345 0,4.756 2.253,7.432 6.257,7.432 3.976,0 5.743,-2.461 5.743,-8 0,-3.082 -0.574,-5.431 -1.571,-6.429 -2.333,-2.332 -7.024,-1.988 -8.872,0.652 m 31.033,-0.912 c -1.093,0.799 -1.996,3.111 -2.313,5.924 -0.451,4 -0.178,4.955 2.056,7.189 3.217,3.217 5.089,3.245 8.212,0.121 2.899,-2.898 3.332,-8.848 0.898,-12.322 -1.766,-2.523 -6.048,-2.964 -8.853,-0.912 m 51.967,0.912 c -0.856,1.222 -1.557,3.822 -1.557,5.777 0,5.115 2.352,8 6.522,8 2.346,0 3.73,-0.603 4.443,-1.934 1.418,-2.651 1.306,-11.395 -0.165,-12.866 -2.058,-2.058 -7.508,-1.456 -9.243,1.023 m -356.462005,6.649 c -2.944,0.824 -4.631,3.288 -3.777,5.515 1.733,4.515 8.682,1.785 8.682,-3.41 0,-3.071 -0.574,-3.317 -4.905,-2.105 m 95.741005,0.262 c -3.191,1.168 -4.202,3.314 -2.797,5.938 2.197,4.106 7.961,1.494 7.961,-3.607 0,-3.689 -0.653,-3.984 -5.164,-2.331 m 238.259,-0.262 c -2.944,0.824 -4.631,3.288 -3.777,5.515 1.733,4.515 8.682,1.785 8.682,-3.41 0,-3.071 -0.574,-3.317 -4.905,-2.105"
     stroke="none"
     fill="#040404"
     fill-rule="evenodd"
     id="path4" />
</svg>
