<?xml version="1.0" encoding="UTF-8" standalone="no"?>
<svg
   version="1.0"
   width="512.08838pt"
   height="511.47696pt"
   viewBox="0 0 512.08839 511.47697"
   preserveAspectRatio="xMidYMid"
   id="svg16"
   sodipodi:docname="nextbike.svg"
   inkscape:version="1.2.1 (9c6d41e410, 2022-07-14)"
   xmlns:inkscape="http://www.inkscape.org/namespaces/inkscape"
   xmlns:sodipodi="http://sodipodi.sourceforge.net/DTD/sodipodi-0.dtd"
   xmlns="http://www.w3.org/2000/svg"
   xmlns:svg="http://www.w3.org/2000/svg">
  <defs
     id="defs20" />
  <sodipodi:namedview
     id="namedview18"
     pagecolor="#ffffff"
     bordercolor="#000000"
     borderopacity="0.25"
     inkscape:showpageshadow="2"
     inkscape:pageopacity="0.0"
     inkscape:pagecheckerboard="0"
     inkscape:deskcolor="#d1d1d1"
     inkscape:document-units="pt"
     showgrid="false"
     inkscape:zoom="1"
     inkscape:cx="63"
     inkscape:cy="218"
     inkscape:window-width="1920"
     inkscape:window-height="1017"
     inkscape:window-x="-8"
     inkscape:window-y="-8"
     inkscape:window-maximized="1"
     inkscape:current-layer="g14" />
  <g
     transform="matrix(0.1,0,0,-0.1,0.01222371,512.07633)"
     fill="#000000"
     stroke="none"
     id="g14"
     style="fill:#004a99;fill-opacity:1">
    <rect
       style="fill:#20e0cc;fill-opacity:1;fill-rule:evenodd;stroke:none;stroke-width:3.09187"
       id="rect3822"
       width="2435.9729"
       height="1824.3462"
       x="-2435.8438"
       y="-1830.3398"
       transform="matrix(-0.99999996,-2.9246348e-4,-0.00115343,-0.99999933,0,0)"
       ry="0" />
    <path
       d="m 2.537543,3477.4003 -0.447018,-1647.4018 757.063365,0.9795 756.06341,-1.8327 96.0025,-8.6085 c 384.0314,-104.7436 687.3572,-411.589 798.4721,-796.0351 l 14.7938,-93.86858 3.1378,-461.37432 4.1382,-462.3726874 1344.9999,0.4007335 1343.9999,0.4004357 -0.7637,2556.5380182 -0.7638,2556.538 -2559.9999,-0.7628 -2556.2498372,0.1749 z m 2707.290057,-343.6649 0.048,-159.7837 49.9899,33.969 c 135.9725,91.9161 321.9883,39.0431 397.0336,-112.7289 24.0144,-47.928 28.0209,-69.897 28.0409,-136.8063 0.02,-66.9096 -3.9735,-88.8809 -27.9591,-136.8232 -71.9565,-145.8239 -241.9388,-204.7948 -383.9606,-131.936 -64.0098,32.9364 -123.0301,100.8269 -142.0489,163.7361 -7.0072,23.9654 -11.043,143.8019 -11.1012,338.5383 l -0.09,300.5927 45,0.013 45,0.014 z m 940.0277,-92.5941 0.075,-252.6579 127.9617,127.865 126.9622,126.8661 69.9999,0.021 70,0.021 -108.9674,-108.8851 -107.9678,-107.8862 109.0489,-163.7458 c 60.0269,-89.8602 113.0508,-169.7364 117.0526,-175.7269 5.0029,-9.9852 -6.9962,-12.9847 -51.9962,-12.9981 l -59,-0.018 -93.0417,139.7831 -93.0421,140.7815 -53.9842,-52.9444 -52.9845,-51.9454 0.026,-87.881 0.026,-87.881 -50.0001,-0.015 -49.9999,-0.014 -0.1224,409.4455 -0.1224,409.4455 50.0001,0.015 50,0.015 z m -1280.0185,61.5347 0.018,-59.9188 65,0.019 65,0.019 0.013,-44.9391 0.013,-44.9392 -64.9999,-0.019 -65,-0.019 0.046,-154.7904 c 0.051,-170.7687 8.0602,-201.7244 55.0664,-222.682 14.0021,-6.9863 37.0036,-11.9727 50.0036,-11.9688 23.0001,0.01 25.0012,-3.9872 25.0135,-44.9317 l 0.013,-44.9392 -47.0001,-0.014 c -64.9999,-0.019 -125.011,36.9127 -152.0276,92.8289 -20.0123,40.9387 -21.0179,59.9127 -21.0955,319.5611 l -0.083,276.6253 45.0001,0.014 44.9999,0.013 z m 1009.9881,40.2469 c 24.0071,-23.9606 26.0158,-52.9207 4.022,-73.8987 -17.9943,-18.9797 -64.9937,-20.9911 -81.9988,-4.019 -17.005,16.9719 -15.0191,63.9089 3.9756,81.8902 20.9934,21.9765 49.994,19.9879 74.0012,-3.9725 z M 846.86135,3020.3332 c 26.00507,-16.9693 50.01342,-44.9243 67.02356,-78.8732 26.01552,-51.9221 26.01701,-56.9153 26.07788,-260.6395 l 0.062,-207.7185 -45,-0.013 -45,-0.013 -0.0516,172.7662 c -0.028,93.8728 -5.05668,189.7413 -10.06295,210.7117 -13.0176,58.9161 -57.02924,97.8504 -117.03073,102.8257 -66.00178,5.9722 -110.99433,-19.0074 -139.97702,-76.9376 -20.98776,-40.9508 -22.98299,-56.9297 -22.93227,-226.6998 l 0.0546,-182.7526 -45,-0.013 -45,-0.013 -0.085,284.6146 -0.085,284.6146 45,0.013 c 41,0.012 45.0006,-1.984 45.00746,-24.9528 0.008,-25.9648 14.00985,-32.9512 26.00417,-13.9733 2.99822,5.9928 24.99403,19.9804 47.99105,29.9737 60.99134,28.9789 159.99314,23.0165 213.00387,-12.9189 z m 602.99675,11.1647 c 60.008,-26.9456 117.0247,-82.8528 146.0429,-143.7617 13.0081,-26.9596 24.0164,-54.9186 24.0182,-60.9105 0,-5.9917 -72.9875,-41.9649 -161.9764,-78.9413 -292.9634,-122.9211 -272.9663,-112.9285 -251.9594,-135.8912 51.0167,-55.9091 160.0226,-75.8496 231.0124,-41.8743 18.9974,8.9934 46.9908,30.972 60.9851,49.9505 23.9914,28.9679 32.9902,32.9653 74.9902,32.9777 26,0.01 47.0006,-1.9833 47.0015,-4.9793 0.01,-16.977 -43.974,-86.8954 -71.9657,-114.866 -49.9847,-50.9459 -110.9782,-72.9342 -197.9779,-73.9587 -59,-0.018 -85.0012,3.9693 -124.0068,22.9319 -64.0093,30.939 -113.0245,81.8555 -143.0442,147.7572 -22.014,46.93 -24.0194,64.905 -21.0406,135.8098 1.9839,53.9276 9.9714,95.8732 22.9636,121.8419 27.9827,57.93 102.9616,128.8562 155.9558,147.8462 63.9935,21.9895 153.9938,21.0176 209.0013,-3.9322 z m 3053.0034,-11.0741 c 57.0098,-32.9384 111.0289,-96.8358 133.046,-153.7523 9.0071,-23.9646 15.0134,-44.9345 13.0139,-46.9323 -1.9994,-1.998 -91.9878,-40.9722 -198.9743,-85.9431 -254.9681,-106.9313 -235.9711,-96.9392 -212.9636,-121.8985 73.0242,-80.8687 231.0224,-74.8298 292.9965,12.071 18.9922,25.9707 26.991,29.9675 70.991,29.9806 26.9999,0.01 49.0012,-3.9799 49.0024,-7.9746 0.01,-17.9756 -58.9705,-98.8836 -90.9624,-125.8566 -122.969,-103.896 -326.9776,-74.996 -419.0176,58.7954 -113.049,163.7446 -44.1176,393.454 136.8625,460.4173 59.9931,22.9867 170.996,13.0334 226.0056,-18.9069 z m -2635.9766,-78.6799 66.0302,-100.8438 63.9698,100.8825 64.9699,100.8828 59.9999,0.018 c 44.0001,0.014 57.001,-2.979 52.0036,-11.9683 -3.9979,-6.9918 -45.9794,-68.9205 -92.9592,-136.8424 -46.9793,-68.9207 -84.9614,-128.851 -82.9603,-132.845 1.0016,-4.9929 42.0197,-65.8983 90.0407,-135.7892 49.0208,-69.8908 92.0397,-132.7927 96.0414,-138.7834 5.003,-9.985 -7.9962,-12.9848 -52.9961,-12.9982 l -59,-0.018 -68.0313,104.8377 c -37.0174,57.9106 -70.0314,104.8372 -73.0311,103.8376 -3,0 -35.9859,-46.9471 -72.9686,-104.8797 l -67.969,-103.8795 -60,-0.018 -61,-0.018 18.9917,27.9678 c 9.9955,14.9826 55.9761,79.9084 100.9567,144.8339 l 81.9648,117.8648 -62.0274,91.8573 c -35.0153,50.9205 -76.0329,109.8286 -91.0391,130.7955 -15.0063,20.9673 -28.0128,42.9336 -28.0144,47.9269 -0.01,3.9945 24.9977,7.9966 54.9976,8.0055 l 55.0001,0.017 z m 1523.0608,-203.2704 0.079,-264.6416 -45,-0.013 -45,-0.013 -0.079,264.6416 -0.079,264.6417 45,0.013 45,0.013 z m 155.1715,-574.1763 c 0.01,-24.9661 -0.9925,-24.9663 -91.9916,-27.9894 l -91.9991,-3.0234 -2.9666,-111.8494 -2.9666,-111.8494 -30,-0.01 -30,-0.01 -3.0337,112.8463 -3.0334,111.8477 -94,-0.028 c -93,-0.028 -95.0003,0.9703 -95.0069,22.9405 0,12.9825 2.992,26.9645 6.9908,30.9602 3.9991,2.9972 103.9985,5.0242 221.9988,4.0607 l 216.0009,-2.9316 z m 133.0334,-111.8089 -2.9573,-142.8074 -30,-0.01 -30.0001,-0.01 -3.0384,128.8246 c -1.0215,71.9024 -0.041,135.8161 1.9573,142.8073 2.998,6.9914 18.9961,12.9881 35.9961,12.9931 l 31.0001,0.01 z m 469.9672,109.9914 3.0083,-27.9614 -164.9999,-0.049 -166,-0.049 0.01,-24.9662 0.01,-23.9676 143.001,-2.9533 142.0008,-2.9536 0.01,-24.9662 0.01,-24.9662 -141.9992,-3.0383 -142.999,-3.0385 0.01,-28.9609 0.01,-29.9593 166.0001,0.05 165,0.049 -2.992,-26.9644 -2.9916,-27.9629 -195,-0.058 -195,-0.058 -3.0385,128.8246 c -1.0215,71.9024 -0.041,135.8162 1.9574,142.8073 3.9966,10.9863 45.9961,12.9961 197.9966,11.0442 l 193.0009,-2.9385 z m 420.9937,21.0971 c 93.0095,-31.9291 71.0534,-178.737 -26.9466,-178.7661 -9,0 11.0054,-17.9724 46.0119,-39.9322 35.0065,-21.9598 60.0135,-44.9213 57.0149,-49.9154 -12.9934,-21.9742 -61.9976,-8.0076 -137.0118,39.9052 -75.0144,47.9127 -82.015,49.9078 -148.015,49.8882 l -68.9999,-0.021 -2.9861,-46.9374 c -2.9862,-45.9386 -3.9857,-47.9362 -32.9856,-47.9448 l -30,-0.01 -3.0386,128.8248 c -1.0214,71.9023 -0.041,135.816 1.9574,142.8071 6.9949,16.9791 297.9946,18.0644 344.9994,2.1002 z m -1898.9823,-59.4862 c 0.012,-37.9484 1.0117,-38.9468 30.0101,-33.9449 65.9959,14.0007 100.0054,-17.946 100.0284,-94.8419 0.015,-51.9296 -30.9729,-90.8861 -73.9729,-90.899 -16.9999,-0.01 -37.0015,4.9822 -44.0035,11.9708 -9.0027,8.9852 -12.0027,8.9843 -12.0001,0 0,-6.9906 -10.9964,-11.9872 -24.9964,-11.9913 l -25,-0.01 -0.039,129.8243 -0.039,129.8241 25,0.01 c 22.0001,0.01 25.0012,-3.9871 25.012,-39.9385 z m 221.0268,-89.8124 c 17.017,-56.9179 18.017,-56.9176 41.9955,14.9922 10.9905,31.96 18.9878,40.9503 39.9872,42.9539 16.9994,2.0023 27.0003,-0.9906 27.003,-9.9785 0,-6.9906 -20.9803,-65.9169 -46.9612,-129.8381 -43.9666,-111.8617 -47.9648,-117.8548 -74.9648,-117.8628 -33,-0.01 -31.9994,-2.007 -14.0123,40.9403 12.9905,31.9606 11.9881,39.9494 -19.0361,120.8307 -18.0143,47.9297 -30.0268,89.8694 -27.0277,92.8662 3.9991,2.9972 16.9985,4.9982 30.9991,3.0053 21.0009,-2.9898 28.0036,-11.9756 42.0173,-57.9092 z"
       id="path2"
       style="fill:#004a99;fill-opacity:1;stroke-width:0.999324"
       sodipodi:nodetypes="ccccccccccccccccccccscccsccccccccccccccsccccccccccccccccccccccscsscscsccccscscscsscccscccscccccsscccccsccccssccccccccccscccssccccccccscccccscccccccccccssscccscccccccsccccccccsscccsccccccscccccccccccccccccccccccccccccscssccsccccsccsssscccsscccscscccsccss" />
    <path
       d="m 2840,2949 c -36,-14 -79,-58 -102,-103 -16,-31 -19,-53 -16,-106 4,-82 38,-139 99,-171 153,-78 308,74 259,253 -28,101 -147,164 -240,127 z"
       id="path4"
       style="fill:#004a99;fill-opacity:1" />
    <path
       d="m 1269,2941 c -58,-32 -96,-83 -109,-146 -7,-32 -8,-61 -3,-65 4,-4 83,24 175,63 186,79 188,81 107,134 -52,35 -121,40 -170,14 z"
       id="path6"
       style="fill:#004a99;fill-opacity:1" />
    <path
       d="m 4305,2946 c -36,-16 -81,-60 -101,-99 -19,-36 -31,-131 -16,-126 5,2 85,35 175,74 l 165,69 -19,27 c -40,57 -139,84 -204,55 z"
       id="path8"
       style="fill:#004a99;fill-opacity:1" />
    <path
       d="m 4290,2095 v -35 h 114 c 126,0 146,4 146,29 0,35 -21,41 -142,41 h -118 z"
       id="path10"
       style="fill:#004a99;fill-opacity:1" />
    <path
       d="m 2686,2034 c -32,-31 -15,-88 25,-82 19,2 25,10 27,36 3,32 -11,62 -29,62 -4,0 -15,-7 -23,-16 z"
       id="path12"
       style="fill:#004a99;fill-opacity:1" />
  </g>
</svg>
