<?xml version="1.0" encoding="UTF-8" standalone="no"?>
<svg
   version="1.1"
   id="Layer_1"
   x="0px"
   y="0px"
   width="400"
   viewBox="0 0 400 400"
   enable-background="new 0 0 400 400"
   xml:space="preserve"
   sodipodi:docname="bolt.svg"
   height="400"
   inkscape:version="1.2.1 (9c6d41e410, 2022-07-14)"
   xmlns:inkscape="http://www.inkscape.org/namespaces/inkscape"
   xmlns:sodipodi="http://sodipodi.sourceforge.net/DTD/sodipodi-0.dtd"
   xmlns="http://www.w3.org/2000/svg"
   xmlns:svg="http://www.w3.org/2000/svg"><defs
   id="defs23" /><sodipodi:namedview
   id="namedview21"
   pagecolor="#ffffff"
   bordercolor="#000000"
   borderopacity="0.25"
   inkscape:showpageshadow="2"
   inkscape:pageopacity="0.0"
   inkscape:pagecheckerboard="0"
   inkscape:deskcolor="#d1d1d1"
   showgrid="false"
   inkscape:zoom="2.0925"
   inkscape:cx="198.80526"
   inkscape:cy="199.28315"
   inkscape:window-width="1920"
   inkscape:window-height="1017"
   inkscape:window-x="-8"
   inkscape:window-y="-8"
   inkscape:window-maximized="1"
   inkscape:current-layer="Layer_1" />
<path
   fill="#34d186"
   opacity="1"
   stroke="none"
   d="M 231,400 C 153.66667,400 76.833336,400 0,400 0,266.66666 0,133.33333 0,0 c 133.33333,0 266.66666,0 400,0 0,133.33333 0,266.66666 0,400 -56.16666,0 -112.33334,0 -169,0 M 145.97133,237.32677 c 5.96036,-14.20018 4.84418,-27.65892 -4.71738,-39.9262 -2.08587,-2.67613 -2.08078,-4.44783 -0.73558,-7.42532 10.60227,-23.46698 -3.80134,-50.11662 -29.44376,-53.07451 -13.315295,-1.5359 -26.918879,-0.57889 -40.392405,-0.7321 -3.10334,-0.0353 -6.207428,-0.005 -9.437126,-0.005 0,41.23425 0,81.78109 0,122.83879 1.856804,0 3.473831,0 5.090851,0 14.484428,0 28.968941,-0.0318 43.45326,0.009 16.09862,0.0448 28.11529,-6.81854 36.18214,-21.68397 m 20.51906,-48.32016 c -0.75415,1.0979 -1.55715,2.16569 -2.25519,3.29817 -12.10959,19.64651 -6.97524,45.63566 11.71135,59.34157 18.29532,13.41893 44.69679,10.71885 59.3902,-6.07382 16.88015,-19.29189 15.08638,-47.55031 -4.05445,-63.87215 -19.46724,-16.60018 -47.65696,-13.64717 -64.79191,7.30623 m 158.04162,25.49488 c 0,-4.08529 0,-8.1706 0,-12.8638 5.19516,0 9.58518,0 13.97535,0 0,-9.88243 0,-19.12478 0,-28.82153 -3.46402,0 -6.61567,-0.18745 -9.73475,0.0512 -3.31677,0.25374 -4.39456,-1.04907 -4.28869,-4.28085 0.18866,-5.75974 0.0531,-11.53011 0.0531,-17.97638 -8.70102,1.86482 -16.57828,3.79098 -24.55191,5.15341 -3.54825,0.60625 -4.61295,1.93904 -4.59119,5.48286 0.14514,23.6399 -0.0478,47.28194 0.11252,70.92163 0.14529,21.422 20.78934,34.47509 40.51663,25.74044 1.17188,-0.51889 2.78534,-1.83173 2.82407,-2.82831 0.25387,-6.53391 0.1308,-13.08246 0.1308,-19.69402 -11.24323,1.38437 -14.17536,-1.07283 -14.42978,-11.39755 -0.0697,-2.82855 -0.0143,-5.6602 -0.0161,-9.48705 m -63.88716,-73.3172 c -1.58371,0.43506 -3.16745,0.87011 -4.80676,1.32043 0,38.85518 0,77.5288 0,116.25089 9.64105,0 18.89825,0 28.36352,0 0,-40.76195 0,-81.26284 0,-122.41069 -7.87817,1.62452 -15.3085,3.1567 -23.55676,4.83937 m -47.0501,152.82278 c 4.13245,-5.54037 4.43898,-11.31842 0.82862,-17.1788 -2.93076,-4.75723 -8.87241,-7.33341 -14.16283,-6.39163 -6.40059,1.13937 -11.19119,5.66226 -12.22122,11.5383 -1.1256,6.4212 1.76808,12.67187 7.25551,15.67273 5.57708,3.04992 12.35064,1.87619 18.29992,-3.6406 z"
   id="path2" />
<path
   fill="#fefffe"
   opacity="1"
   stroke="none"
   d="m 145.81302,237.66869 c -7.90854,14.52351 -19.92521,21.38688 -36.02383,21.34205 -14.484319,-0.0403 -28.968832,-0.009 -43.45326,-0.009 -1.61702,0 -3.234047,0 -5.090851,0 0,-41.0577 0,-81.60454 0,-122.83879 3.229698,0 6.333786,-0.0301 9.437126,0.005 13.473526,0.15321 27.07711,-0.8038 40.392405,0.7321 25.64242,2.95789 40.04603,29.60753 29.44376,53.07451 -1.3452,2.97749 -1.35029,4.74919 0.73558,7.42532 9.56156,12.26728 10.67774,25.72602 4.55907,40.26812 m -43.32013,-25.51545 c -3.9413,0 -7.882599,0 -12.037995,0 0,6.23636 0,11.79831 0,17.71425 7.57766,0 14.876635,0.28778 22.139065,-0.10312 4.69244,-0.25258 7.92483,-4.3814 7.88428,-8.8088 -0.043,-4.70118 -3.5392,-8.402 -8.5159,-8.7483 -2.81752,-0.19604 -5.65903,-0.0474 -9.46945,-0.054 m 7.40853,-45.92355 c -6.37405,-0.4939 -12.748107,-0.98779 -19.460899,-1.50795 0,6.63295 0,12.19618 0,18.2888 4.894295,0 9.519959,-0.13046 14.134879,0.0363 4.71971,0.1705 8.17883,-1.59822 9.80632,-6.07218 1.59268,-4.37823 -0.16173,-7.76139 -4.4803,-10.74493 z"
   id="path4" />
<path
   fill="#fdfffe"
   opacity="1"
   stroke="none"
   d="m 166.71072,188.72403 c 16.91462,-20.67082 45.10434,-23.62383 64.57158,-7.02365 19.14083,16.32184 20.9346,44.58026 4.05445,63.87215 -14.69341,16.79267 -41.09488,19.49275 -59.3902,6.07382 -18.68659,-13.70591 -23.82094,-39.69506 -11.71135,-59.34157 0.69804,-1.13248 1.50104,-2.20027 2.47552,-3.58075 m 45.43012,16.61665 c -6.39937,-4.87056 -12.17598,-5.32902 -17.84821,-1.41649 -5.22128,3.60147 -7.53528,9.99805 -5.61487,15.74982 1.98287,5.93883 6.16866,9.51772 12.33648,10.12303 5.97517,0.58643 10.78712,-2.02492 13.66317,-7.30362 3.20058,-5.87428 2.34172,-11.52733 -2.53657,-17.15274 z"
   id="path6" />
<path
   fill="#fafefc"
   opacity="1"
   stroke="none"
   d="m 324.53192,214.9998 c 0.002,3.32854 -0.0535,6.16019 0.0162,8.98874 0.25442,10.32472 3.18655,12.78192 14.42978,11.39755 0,6.61156 0.12307,13.16011 -0.1308,19.69402 -0.0387,0.99658 -1.65219,2.30942 -2.82407,2.82831 -19.72729,8.73465 -40.37134,-4.31844 -40.51663,-25.74044 -0.16031,-23.63969 0.0326,-47.28173 -0.11252,-70.92163 -0.0218,-3.54382 1.04294,-4.87661 4.59119,-5.48286 7.97363,-1.36243 15.85089,-3.28859 24.55191,-5.15341 0,6.44627 0.13559,12.21664 -0.0531,17.97638 -0.10587,3.23178 0.97192,4.53459 4.28869,4.28085 3.11908,-0.2386 6.27073,-0.0512 9.73475,-0.0512 0,9.69675 0,18.9391 0,28.82153 -4.39017,0 -8.78019,0 -13.97535,0 0,4.6932 0,8.77851 -9e-5,13.36211 z"
   id="path8" />
<path
   fill="#f8fdfb"
   opacity="1"
   stroke="none"
   d="m 261.05386,141.10979 c 7.8393,-1.60743 15.26963,-3.13961 23.1478,-4.76413 0,41.14785 0,81.64874 0,122.41069 -9.46527,0 -18.72247,0 -28.36352,0 0,-38.72209 0,-77.39571 0,-116.25089 1.63931,-0.45032 3.22305,-0.88537 5.21572,-1.39567 z"
   id="path10" />
<path
   fill="#fbfefd"
   opacity="1"
   stroke="none"
   d="m 213.34766,294.28543 c -5.70214,5.23917 -12.4757,6.4129 -18.05278,3.36298 -5.48743,-3.00086 -8.38111,-9.25153 -7.25551,-15.67273 1.03003,-5.87604 5.82063,-10.39893 12.22122,-11.5383 5.29042,-0.94178 11.23207,1.6344 14.16283,6.39163 3.61036,5.86038 3.30383,11.63843 -1.07576,17.45642 z"
   id="path12" />
<path
   fill="#39d289"
   opacity="1"
   stroke="none"
   d="m 102.98275,212.15326 c 3.32056,0.007 6.16207,-0.14203 8.97959,0.054 4.9767,0.3463 8.47285,4.04712 8.5159,8.7483 0.0405,4.4274 -3.19184,8.55622 -7.88428,8.8088 -7.26243,0.3909 -14.561405,0.10312 -22.139065,0.10312 0,-5.91594 0,-11.47789 0,-17.71425 4.155396,0 8.096695,0 12.527855,2e-5 z"
   id="path14" />
<path
   fill="#39d289"
   opacity="1"
   stroke="none"
   d="m 110.23692,166.4373 c 3.98307,2.77593 5.73748,6.15909 4.1448,10.53732 -1.62749,4.47396 -5.08661,6.24268 -9.80632,6.07218 -4.61492,-0.16672 -9.240584,-0.0363 -14.134879,-0.0363 0,-6.09262 0,-11.65585 0,-18.2888 6.712792,0.52016 13.086849,1.01405 19.796399,1.71556 z"
   id="path16" />
<path
   fill="#37d288"
   opacity="1"
   stroke="none"
   d="m 212.40063,205.60638 c 4.6185,5.35971 5.47736,11.01276 2.27678,16.88704 -2.87605,5.2787 -7.688,7.89005 -13.66317,7.30362 -6.16782,-0.60531 -10.35361,-4.1842 -12.33648,-10.12303 -1.92041,-5.75177 0.39359,-12.14835 5.61487,-15.74982 5.67223,-3.91253 11.44884,-3.45407 18.108,1.68219 z"
   id="path18" />
</svg>
