<?xml version="1.0" encoding="UTF-8" standalone="no"?>
<svg
   viewBox="0 0 100 100"
   preserveAspectRatio="xMidYMid"
   version="1.1"
   id="svg3704"
   sodipodi:docname="fribourg.svg"
   width="100"
   height="100"
   inkscape:version="1.2.1 (9c6d41e410, 2022-07-14)"
   xmlns:inkscape="http://www.inkscape.org/namespaces/inkscape"
   xmlns:sodipodi="http://sodipodi.sourceforge.net/DTD/sodipodi-0.dtd"
   xmlns="http://www.w3.org/2000/svg"
   xmlns:svg="http://www.w3.org/2000/svg">
  <defs
     id="defs3708" />
  <sodipodi:namedview
     id="namedview3706"
     pagecolor="#ffffff"
     bordercolor="#000000"
     borderopacity="0.25"
     inkscape:showpageshadow="2"
     inkscape:pageopacity="0.0"
     inkscape:pagecheckerboard="0"
     inkscape:deskcolor="#d1d1d1"
     showgrid="false"
     inkscape:zoom="4.3870968"
     inkscape:cx="135.625"
     inkscape:cy="74.308823"
     inkscape:window-width="1920"
     inkscape:window-height="1017"
     inkscape:window-x="-8"
     inkscape:window-y="-8"
     inkscape:window-maximized="1"
     inkscape:current-layer="g3702" />
  <g
     fill="none"
     fill-rule="evenodd"
     id="g3702"
     transform="matrix(0.36096262,0,0,0.36096262,-0.00613623,37.302939)">
    <rect
       style="fill:#ffffff;fill-rule:evenodd;stroke-width:3.95166"
       id="rect287"
       width="277.03699"
       height="277.03699"
       x="0.016999638"
       y="-103.34294" />
    <path
       d="m 64.012,14.785 c 6.733,-1.596 13.549,-2.747 19.96,-3.095 l 0.348,-0.024 c 3.25,-0.227 6.16,-0.343 8.65,-0.343 7.01,0 9.047,0.907 9.917,1.289 3.399,1.513 5.94,5.033 9.161,9.492 0,0 1.504,2.075 1.65,2.272 l 3.034,5.074 c 6.544,11.256 14.688,25.262 36.08,32.178 7.384,2.379 16.08,3.583 25.851,3.583 24.7,0 52.578,-7.744 71.63,-14.245 l 0.144,-0.053 c 9.068,-3.214 17.711,-8.353 26.617,-14.04 l -23.017,-3.427 c -5.805,3.537 -11.332,6.544 -16.46,8.369 -23.085,7.868 -44.029,12.201 -58.98,12.201 -5.491,0 -10.086,-0.58 -13.655,-1.732 -14.629,-4.733 -21.509,-16.578 -27.045,-26.101 l -3.283,-5.492 -1.838,-2.518 C 125.824,8.54 119.823,0.22 92.762,0.22 89.35,0.22 85.582,0.358 81.516,0.638 V 0.637 L 81.19,0.657 C 48.645,2.519 10.377,18.123 0.017,33.427 l 21.348,3.59 C 25.19,31.365 34.648,25.17 46.015,20.553 V 14.1 H 63.96 l 0.053,0.685 z"
       fill="#c7eafb"
       id="path3698" />
    <path
       d="m 84.09,41.728 h 1.966 V 38.39 H 84.09 Z m -0.898,3.8 h 2.864 v -3.43 h -2.864 z m -2.968,3.888 h 5.832 v -3.518 h -5.832 z m 2.968,3.802 h 2.864 v -3.411 h -2.864 z m -2.968,3.905 h 5.832 v -3.537 h -5.832 z m -6.508,0 h 6.136 v -3.537 h -6.136 z m -6.473,10.269 c -5.562,0 -10.478,-4.125 -11.599,-9.66 h 2.782 c 1.068,4.017 4.728,6.901 8.817,6.901 4.096,0 7.747,-2.884 8.796,-6.9 h 2.782 c -1.105,5.534 -6.01,9.659 -11.578,9.659 z M 51.123,57.148 h 6.338 v -3.562 h -6.338 z m -3.175,0 h 2.81 v -3.562 h -2.81 z m 9.875,-30.23 h 2.485 v -3.003 h -2.485 v 3.002 z m -3.04,3.595 v -3.226 h 5.524 V 30.4 h -0.016 v 0.114 h -5.508 z m 3.04,3.707 h 2.468 v -3.327 h -2.468 z m -3.449,3.708 h 5.917 v -3.333 h -5.917 z m 3.45,3.8 h 2.467 v -3.425 h -2.468 v 3.425 z m -3.45,3.8 h 5.917 v -3.43 h -5.917 z m 3.45,3.89 h 2.467 V 45.9 h -2.468 v 3.518 z m -6.7,0 h 6.337 V 45.9 h -6.338 v 3.518 z m -0.365,0.367 v 0.022 h 3.25 v 3.411 h -6.061 v -3.433 h 2.81 z m -2.811,-0.37 h 2.81 v -3.519 h -2.81 v 3.52 z m 0,-3.886 h 6.062 v -3.431 h -6.062 v 3.43 z m 0,-3.8 h 2.81 v -3.426 h -2.81 v 3.425 z m 3.193,0 h 6.318 V 38.303 H 51.14 v 3.425 z m -3.193,-3.801 h 6.062 v -3.333 h -6.062 z m 0,-3.706 h 2.81 v -3.327 h -2.81 z m 6.242,-0.378 c 0.71,0 1.287,-0.586 1.287,-1.307 0,-0.504 -0.283,-0.936 -0.694,-1.154 v -0.49 h 2.676 v 3.329 H 51.14 v -3.33 h 2.438 v 0.5 c -0.4,0.22 -0.678,0.65 -0.678,1.145 a 1.3,1.3 0 0 0 1.29,1.307 z m 0.146,-7.717 h -0.31 a 0.449,0.449 0 0 0 -0.447,0.45 v 0.34 h -2.458 v -3.002 h 6.338 v 3.002 h -2.676 v -0.34 a 0.45,0.45 0 0 0 -0.447,-0.45 z m -6.388,0.79 h 2.809 v -3.002 h -2.81 v 3.002 z m 0,3.596 h 5.631 v -3.226 h -5.631 z m 9.875,26.635 h 2.468 v -3.562 h -2.468 z m -3.449,-3.93 h 5.917 v -3.411 h -5.917 z m -7.746,-31.34 h 15.33 l -1.572,1.67 H 47.87 Z M 46.35,15.41 h 2.902 v 3.466 h 3.581 V 15.41 h 3.028 v 3.466 h 3.544 V 15.41 h 2.922 v 5.892 H 46.35 Z m 14.527,18.812 h 2.244 v -3.245 h -2.244 z m 0,3.706 h 2.82 v -3.34 h -2.82 z m 3.192,0.002 h 6.134 V 34.59 H 64.07 v 3.34 z m 2.172,-3.71 h 2.113 V 30.976 H 66.24 v 3.244 z m 4.325,3.71 h 2.671 v -3.34 h -2.671 z m 0.706,-3.71 h 1.963 v -3.244 h -1.963 z m 2.08,7.508 h -5.956 v -3.425 h 5.84 v 0.087 h 0.116 z m 0.362,0.37 h 2.978 v 3.43 h -6.126 v -3.43 z m 0,-0.37 h 2.003 V 38.39 h -2.003 z m -3.148,11.49 h 6.128 V 49.807 H 70.566 Z M 67.4,57.123 h 5.94 V 53.586 H 67.4 Z m -3.33,-3.905 v -3.433 h 2.964 v 0.022 h 3.154 v 3.411 h -6.119 z m -3.193,3.905 h 6.157 v -3.537 h -6.157 z m 0,-3.905 h 2.82 v -3.433 h -2.82 z m 0,-3.802 h 6.157 v -3.52 h -6.157 z m 0,-3.887 h 2.82 v -3.431 h -2.82 v 3.43 z m 0,-3.8 h 6.157 v -3.432 h -6.157 v 3.431 z m 6.52,7.687 h 5.943 v -3.518 h -5.944 v 3.518 z m 2.79,-3.887 H 64.07 v -3.431 h 6.119 v 3.43 z m 6.881,7.69 h 5.76 v -3.412 h -5.76 v 3.411 z m -3.352,-3.803 h 6.136 v -3.518 h -6.136 z m 3.352,-3.887 h 5.76 v -3.431 h -5.76 v 3.43 z m 1.66,-3.8 h 2.369 v -3.34 h -2.37 v 3.34 z M 94.44,12.623 93.64,12.69 a 43.887,43.887 0 0 1 -3.738,0.145 c -2.864,0 -5.748,-0.214 -8.54,-0.42 -2.474,-0.183 -4.808,-0.356 -6.87,-0.356 -2.672,0 -5.814,0.26 -7.32,2.111 -1.505,-1.852 -4.65,-2.111 -7.321,-2.111 -2.06,0 -4.397,0.173 -6.87,0.355 -2.792,0.207 -5.677,0.421 -8.54,0.421 -1.36,0 -2.583,-0.047 -3.738,-0.145 l -0.799,-0.067 0.233,0.778 c 4.5,14.915 5.283,25.507 2.043,27.642 l -0.225,0.147 -0.02,0.272 c -0.625,8.263 1.73,15.817 6.631,21.265 4.703,5.228 11.306,8.173 18.596,8.29 h 0.019 c 7.29,-0.117 13.894,-3.062 18.597,-8.292 4.901,-5.448 7.255,-13 6.63,-21.263 L 92.388,41.19 92.162,41.043 C 88.925,38.908 89.708,28.316 94.204,13.399 Z m 132.636,13.763 a 5.502,5.502 0 0 1 -0.228,0.382 l -0.41,0.035 c -0.3,0 -0.717,-0.07 -1.259,-0.214 a 8.199,8.199 0 0 1 -1.84,-0.697 5.83,5.83 0 0 1 -0.301,0.751 5.935,5.935 0 0 1 -0.422,0.656 l -0.104,0.16 a 7.1,7.1 0 0 0 1.447,0.494 6.537,6.537 0 0 0 1.48,0.186 c 0.444,0 0.877,-0.123 1.303,-0.365 a 3.959,3.959 0 0 0 1.158,-1.031 6.19,6.19 0 0 0 0.884,-1.552 7.68,7.68 0 0 0 0.491,-1.885 c 0.132,-1.486 0.229,-2.554 0.302,-3.206 0.072,-0.646 0.255,-2.13 0.538,-4.446 h -0.047 c -0.106,0 -0.311,0.059 -0.613,0.178 a 7.4,7.4 0 0 0 -0.884,0.412 c -0.557,-0.393 -1.036,-0.59 -1.448,-0.59 -0.35,0 -0.787,0.143 -1.315,0.428 -0.52,0.287 -1,0.648 -1.437,1.078 a 5.397,5.397 0 0 0 -1.254,1.964 c -0.27,0.738 -0.402,1.6 -0.402,2.59 0,0.641 0.1,1.231 0.3,1.77 0.2,0.537 0.476,0.96 0.818,1.267 0.34,0.315 0.72,0.469 1.141,0.469 0.569,0 1.375,-0.334 2.425,-0.996 v 0.186 c -0.036,0.843 -0.145,1.503 -0.323,1.976 z m 0.314,-3.55 c -0.13,0.382 -0.298,0.685 -0.492,0.904 -0.203,0.219 -0.406,0.326 -0.622,0.326 -0.312,0 -0.615,-0.172 -0.91,-0.518 -0.295,-0.343 -0.531,-0.794 -0.719,-1.349 a 5.35,5.35 0 0 1 -0.276,-1.673 c 0,-0.527 0.073,-1.066 0.22,-1.62 0.145,-0.557 0.333,-1.024 0.561,-1.397 0.232,-0.377 0.445,-0.564 0.648,-0.564 0.298,0 0.652,0.086 1.07,0.26 0.415,0.175 0.777,0.388 1.079,0.638 l -0.31,3.763 c -0.03,0.435 -0.116,0.847 -0.25,1.23 z m -11.934,0.117 c -0.029,0.5 -0.05,0.841 -0.065,1.025 -0.053,0.504 -0.097,0.908 -0.136,1.22 0.083,0 0.24,-0.029 0.462,-0.078 a 4.84,4.84 0 0 1 1.107,-0.152 h 0.373 c 0.006,-0.146 0.014,-0.275 0.016,-0.385 0,-0.111 0.003,-0.254 0.003,-0.431 0.033,-0.81 0.103,-1.937 0.207,-3.372 0.07,-0.857 0.15,-1.549 0.238,-2.068 0.091,-0.52 0.196,-0.941 0.331,-1.263 0.085,-0.159 0.164,-0.28 0.244,-0.36 0.087,-0.082 0.156,-0.123 0.216,-0.123 0.169,0 0.364,0.172 0.586,0.522 0.223,0.345 0.406,0.767 0.544,1.265 l 1.702,-0.89 c -0.13,-0.598 -0.294,-1.102 -0.503,-1.508 -0.118,-0.22 -0.265,-0.4 -0.428,-0.54 -0.162,-0.137 -0.305,-0.206 -0.425,-0.206 -0.122,0 -0.395,0.098 -0.826,0.291 -0.433,0.197 -0.888,0.432 -1.377,0.705 l 0.13,-0.974 c -0.093,0 -0.2,0.013 -0.31,0.035 -0.406,0.09 -0.955,0.142 -1.661,0.16 0,0.09 -0.008,0.576 -0.033,1.457 a 3.156,3.156 0 0 0 -0.016,0.35 3.912,3.912 0 0 0 -0.015,0.362 l -0.296,3.925 z m -5.672,2.245 h 0.143 c 0.454,-0.154 0.93,-0.23 1.43,-0.23 h 0.341 l 0.188,-2.83 0.048,-0.552 0.298,-3.278 0.26,-2.332 0.048,-0.345 a 0.52,0.52 0 0 0 -0.16,0.035 5.3,5.3 0 0 1 -1.202,0.16 h -0.605 c 0,0.191 0,0.342 -0.004,0.441 -0.002,0.104 -0.006,0.217 -0.01,0.338 a 58.676,58.676 0 0 1 -0.29,3.45 c -0.102,0.858 -0.305,1.578 -0.601,2.168 -0.13,0.287 -0.29,0.578 -0.486,0.874 a 4.09,4.09 0 0 1 -0.555,0.692 c -0.18,0.171 -0.325,0.253 -0.439,0.253 -0.228,0 -0.433,-0.19 -0.615,-0.581 -0.176,-0.385 -0.265,-0.84 -0.265,-1.36 0,-0.304 0.052,-0.954 0.159,-1.942 0.131,-1.588 0.199,-2.638 0.199,-3.148 0,-0.287 -0.021,-0.67 -0.05,-1.148 l -0.018,-0.277 c -0.029,0.004 -0.05,0.012 -0.071,0.014 -0.018,0.003 -0.047,0.007 -0.087,0.015 a 0.977,0.977 0 0 1 -0.132,0.022 c -0.402,0.119 -0.845,0.177 -1.34,0.177 h -0.261 c 0.096,0.43 0.143,0.969 0.143,1.613 0,0.504 -0.068,1.402 -0.207,2.699 -0.13,1.36 -0.197,2.241 -0.197,2.634 0,0.49 0.06,0.915 0.18,1.279 0.114,0.365 0.284,0.65 0.498,0.855 0.217,0.199 0.46,0.304 0.735,0.304 0.229,0 0.569,-0.095 1.035,-0.283 a 22.594,22.594 0 0 0 1.708,-0.8 l 0.325,-0.16 z m -10.282,-1.605 c -0.45,-0.298 -0.789,-0.757 -1.027,-1.374 -0.238,-0.617 -0.354,-1.367 -0.354,-2.26 0,-0.728 0.068,-1.401 0.203,-2.022 0.134,-0.62 0.312,-1.045 0.519,-1.277 a 0.405,0.405 0 0 1 0.295,-0.104 c 0.176,0 0.374,0.06 0.592,0.174 0.217,0.113 0.399,0.244 0.544,0.396 0.67,0.69 1.002,1.838 1.002,3.447 0,0.556 -0.076,1.154 -0.223,1.798 -0.15,0.646 -0.323,1.076 -0.514,1.29 a 0.538,0.538 0 0 1 -0.414,0.18 c -0.186,0 -0.395,-0.082 -0.623,-0.248 z m -0.53,1.605 c 0.383,0 0.785,-0.148 1.205,-0.44 0.727,-0.505 1.366,-1.172 1.917,-2.01 a 5.661,5.661 0 0 0 0.976,-3.21 c 0,-0.746 -0.07,-1.363 -0.216,-1.851 a 3.25,3.25 0 0 0 -0.708,-1.277 c -0.453,-0.518 -0.975,-0.78 -1.563,-0.78 a 5.28,5.28 0 0 0 -1.686,0.301 c -0.596,0.204 -1.043,0.448 -1.339,0.742 -0.222,0.233 -0.429,0.576 -0.617,1.035 a 7.853,7.853 0 0 0 -0.435,1.549 9.756,9.756 0 0 0 -0.155,1.738 c 0,0.757 0.113,1.458 0.34,2.097 0.23,0.64 0.537,1.148 0.927,1.52 0.393,0.374 0.826,0.569 1.312,0.586 z m -10.751,-12.9 h -0.238 l -0.356,4.778 -0.085,0.974 c -0.145,1.744 -0.36,3.856 -0.639,6.34 0.805,0.55 1.59,0.83 2.348,0.83 0.956,0 1.913,-0.486 2.874,-1.459 a 7.626,7.626 0 0 0 1.184,-1.55 c 0.335,-0.572 0.58,-1.168 0.743,-1.79 0.16,-0.621 0.244,-1.256 0.244,-1.906 0,-0.563 -0.076,-1.055 -0.223,-1.494 -0.15,-0.433 -0.354,-0.773 -0.613,-1.021 -0.261,-0.244 -0.555,-0.37 -0.88,-0.37 -0.344,0 -0.814,0.132 -1.406,0.391 -0.592,0.26 -1.174,0.6 -1.745,1.02 0.037,-0.385 0.066,-0.752 0.097,-1.102 0.03,-0.351 0.064,-0.667 0.095,-0.947 0.027,-0.277 0.07,-0.615 0.11,-1.01 0.046,-0.392 0.122,-1.016 0.228,-1.88 h -0.168 c -0.404,0.131 -0.924,0.196 -1.57,0.196 z m 0.684,11.004 c 0.008,-0.132 0.016,-0.25 0.018,-0.347 0.01,-0.1 0.015,-0.19 0.019,-0.268 0.006,-0.08 0.01,-0.134 0.01,-0.17 0.14,-1.728 0.446,-3.143 0.914,-4.248 0.204,-0.457 0.428,-0.822 0.68,-1.1 0.245,-0.273 0.487,-0.408 0.715,-0.408 0.22,0 0.424,0.116 0.611,0.338 0.192,0.227 0.34,0.535 0.449,0.926 0.106,0.388 0.158,0.81 0.158,1.267 a 7.58,7.58 0 0 1 -0.2,1.609 10.741,10.741 0 0 1 -0.521,1.689 c -0.213,0.527 -0.427,0.923 -0.658,1.18 -0.205,0.243 -0.485,0.364 -0.837,0.364 -0.28,0 -0.683,-0.12 -1.205,-0.365 a 0.437,0.437 0 0 1 -0.106,-0.047 0.215,0.215 0 0 0 -0.066,-0.025 c 0.004,-0.129 0.011,-0.258 0.02,-0.395 z m -6.487,-9.058 0.12,0.018 c 0.329,0.031 0.608,0.049 0.836,0.049 0.379,0 0.673,-0.072 0.887,-0.211 0.213,-0.143 0.45,-0.428 0.712,-0.865 -0.274,0.06 -0.568,0.092 -0.893,0.092 -0.194,0 -0.546,-0.02 -1.045,-0.067 h -0.102 z m 0.517,1.607 h -0.482 l -0.052,1.143 a 689.02,689.02 0 0 1 -0.151,2.165 c -0.064,0.873 -0.133,1.73 -0.209,2.574 l -0.1,0.988 c -0.022,0.267 -0.05,0.55 -0.082,0.847 -0.033,0.297 -0.067,0.617 -0.106,0.959 l -0.074,0.64 a 0.325,0.325 0 0 0 0.097,-0.017 c 0.428,-0.114 0.795,-0.172 1.112,-0.172 h 0.687 l 0.346,-4.43 0.064,-0.747 c 0.147,-1.651 0.251,-2.798 0.315,-3.43 0.027,-0.244 0.066,-0.492 0.116,-0.748 h -0.149 c -0.406,0.15 -0.849,0.228 -1.332,0.228 z m -8.557,7.102 c -0.027,0.5 -0.048,0.841 -0.067,1.025 -0.053,0.504 -0.097,0.908 -0.136,1.22 0.083,0 0.238,-0.029 0.462,-0.078 a 4.81,4.81 0 0 1 1.103,-0.152 h 0.379 c 0.006,-0.146 0.008,-0.275 0.01,-0.385 0.005,-0.111 0.005,-0.254 0.005,-0.431 0.037,-0.81 0.107,-1.937 0.21,-3.372 0.07,-0.857 0.15,-1.549 0.24,-2.068 0.09,-0.52 0.196,-0.941 0.328,-1.263 0.08,-0.159 0.164,-0.28 0.244,-0.36 0.083,-0.082 0.154,-0.123 0.216,-0.123 0.17,0 0.364,0.172 0.586,0.522 0.223,0.345 0.403,0.767 0.542,1.265 l 1.7,-0.89 c -0.122,-0.598 -0.288,-1.102 -0.497,-1.508 -0.124,-0.22 -0.265,-0.4 -0.428,-0.54 -0.162,-0.137 -0.305,-0.206 -0.429,-0.206 -0.12,0 -0.393,0.098 -0.822,0.291 -0.435,0.197 -0.895,0.432 -1.375,0.705 l 0.126,-0.974 c -0.093,0 -0.202,0.013 -0.314,0.035 -0.402,0.09 -0.953,0.142 -1.653,0.16 0,0.09 -0.016,0.576 -0.037,1.457 -0.01,0.103 -0.014,0.216 -0.014,0.35 -0.011,0.124 -0.019,0.245 -0.019,0.362 l -0.294,3.925 z m -8.175,-9.773 a 401.96,401.96 0 0 1 -0.099,3.447 c -0.025,0.585 -0.071,1.546 -0.143,2.887 a 330.91,330.91 0 0 1 -0.346,5.684 7.097,7.097 0 0 1 1.656,-0.212 h 0.31 l 0.202,-5.306 h 2.578 l 0.42,0.034 0.443,0.043 c 0.05,-0.284 0.122,-0.547 0.222,-0.791 a 4.59,4.59 0 0 1 0.402,-0.754 c -0.052,0.006 -0.09,0.008 -0.127,0.012 -0.03,0.002 -0.103,0.012 -0.215,0.023 a 4.377,4.377 0 0 1 -0.725,0.076 h -2.93 l 0.243,-4.703 h 2.136 l 0.797,0.03 c 0.382,0.013 0.71,0.024 0.976,0.038 0.076,-0.428 0.252,-0.888 0.528,-1.38 h -5.127 a 5.56,5.56 0 0 1 -1.201,0.872 z m -8.984,5.981 c 0.207,-0.224 0.449,-0.451 0.714,-0.677 -0.03,-0.604 -0.12,-1.115 -0.287,-1.545 -0.16,-0.43 -0.39,-0.754 -0.684,-0.984 -0.3,-0.23 -0.638,-0.346 -1.027,-0.346 -0.257,0 -0.553,0.065 -0.892,0.196 -0.332,0.13 -0.655,0.298 -0.963,0.501 -0.714,0.48 -1.27,1.154 -1.675,2.021 a 6.616,6.616 0 0 0 -0.61,2.832 c 0,0.671 0.12,1.32 0.349,1.946 0.232,0.627 0.543,1.129 0.928,1.506 0.385,0.377 0.791,0.562 1.215,0.562 0.38,0 0.777,-0.129 1.2,-0.387 0.423,-0.26 0.804,-0.599 1.146,-1.019 0.342,-0.42 0.6,-0.882 0.774,-1.392 -0.196,0.08 -0.534,0.193 -1,0.346 -0.054,0.47 -0.132,0.794 -0.25,0.97 -0.114,0.174 -0.307,0.264 -0.582,0.264 -0.31,0 -0.607,-0.15 -0.903,-0.451 -0.294,-0.303 -0.532,-0.698 -0.708,-1.193 a 4.625,4.625 0 0 1 -0.265,-1.549 c 0,-0.055 0.014,-0.306 0.035,-0.748 0.346,-0.013 0.739,-0.017 1.178,-0.017 0.559,0 0.988,0.004 1.284,0.017 l 0.325,0.016 c 0.257,-0.35 0.493,-0.64 0.698,-0.869 z m -2.963,-1.876 c 0.083,-0.239 0.166,-0.403 0.238,-0.487 a 0.424,0.424 0 0 1 0.325,-0.126 c 0.42,0 0.76,0.175 1.033,0.517 0.156,0.197 0.268,0.42 0.332,0.681 0.062,0.256 0.093,0.614 0.093,1.068 a 6.39,6.39 0 0 1 -1.149,0.084 c -0.425,0 -0.768,-0.011 -1.034,-0.03 h -0.265 c 0.025,-0.456 0.166,-1.024 0.427,-1.707 z m -6.071,-4.952 h -0.275 c -0.017,0.68 -0.035,1.13 -0.052,1.359 -0.08,0.925 -0.135,1.535 -0.178,1.826 l -0.048,0.431 a 1.743,1.743 0 0 0 -1,-0.318 c -0.207,0 -0.49,0.076 -0.838,0.23 -0.357,0.153 -0.707,0.35 -1.061,0.588 a 6.062,6.062 0 0 0 -0.933,0.787 5.483,5.483 0 0 0 -1.174,1.937 6.84,6.84 0 0 0 -0.412,2.384 c 0,0.707 0.097,1.337 0.292,1.884 0.196,0.55 0.467,0.978 0.81,1.281 0.34,0.299 0.724,0.451 1.152,0.451 0.325,0 0.678,-0.072 1.044,-0.226 0.373,-0.153 0.876,-0.428 1.507,-0.83 0.025,0.197 0.073,0.56 0.152,1.083 l 0.256,-0.07 c 0.609,-0.107 1.21,-0.162 1.806,-0.162 a 4.946,4.946 0 0 1 -0.205,-0.836 12.487,12.487 0 0 1 -0.104,-1.501 c 0,-0.264 0.013,-0.514 0.035,-0.744 0.07,-1.146 0.158,-2.373 0.274,-3.685 0.083,-0.853 0.147,-1.552 0.2,-2.09 0.044,-0.54 0.09,-0.995 0.127,-1.374 0.035,-0.376 0.074,-0.753 0.118,-1.134 0.04,-0.375 0.099,-0.877 0.172,-1.501 l -0.168,0.015 c -0.35,0.143 -0.843,0.215 -1.497,0.215 z m -1.764,11.36 c -0.201,0.217 -0.408,0.33 -0.62,0.33 -0.314,0 -0.618,-0.164 -0.914,-0.488 -0.29,-0.324 -0.53,-0.756 -0.717,-1.285 a 5.041,5.041 0 0 1 -0.277,-1.662 c 0,-0.43 0.049,-0.869 0.141,-1.322 0.099,-0.453 0.223,-0.872 0.387,-1.26 0.165,-0.393 0.35,-0.702 0.555,-0.928 0.074,-0.088 0.205,-0.133 0.395,-0.133 0.28,0 0.628,0.09 1.046,0.273 0.418,0.184 0.782,0.412 1.09,0.674 l -0.262,2.9 c -0.106,1.458 -0.381,2.423 -0.824,2.901 z m -11.887,-4.532 a 8.13,8.13 0 0 1 0.716,-0.677 c -0.027,-0.604 -0.124,-1.115 -0.286,-1.545 -0.161,-0.43 -0.393,-0.754 -0.685,-0.984 a 1.64,1.64 0 0 0 -1.027,-0.346 c -0.263,0 -0.555,0.065 -0.892,0.196 -0.338,0.13 -0.66,0.298 -0.969,0.501 -0.71,0.48 -1.267,1.154 -1.67,2.021 a 6.588,6.588 0 0 0 -0.61,2.832 c 0,0.671 0.116,1.32 0.348,1.946 0.23,0.627 0.54,1.129 0.927,1.506 0.386,0.377 0.789,0.562 1.218,0.562 0.377,0 0.772,-0.129 1.195,-0.387 0.422,-0.26 0.807,-0.599 1.147,-1.019 0.34,-0.42 0.602,-0.882 0.774,-1.392 -0.2,0.08 -0.53,0.193 -1,0.346 -0.05,0.47 -0.134,0.794 -0.248,0.97 -0.116,0.174 -0.31,0.264 -0.584,0.264 -0.31,0 -0.609,-0.15 -0.903,-0.451 -0.294,-0.303 -0.528,-0.698 -0.706,-1.193 a 4.672,4.672 0 0 1 -0.263,-1.549 c 0,-0.055 0.012,-0.306 0.031,-0.748 0.348,-0.013 0.739,-0.017 1.178,-0.017 0.56,0 0.986,0.004 1.284,0.017 l 0.33,0.016 c 0.256,-0.35 0.488,-0.64 0.695,-0.869 z m -2.965,-1.876 c 0.083,-0.239 0.165,-0.403 0.244,-0.487 a 0.407,0.407 0 0 1 0.32,-0.126 c 0.419,0 0.765,0.175 1.034,0.517 0.153,0.197 0.265,0.42 0.33,0.681 0.064,0.256 0.095,0.614 0.095,1.068 a 6.443,6.443 0 0 1 -1.15,0.084 c -0.424,0 -0.768,-0.011 -1.031,-0.03 h -0.27 c 0.028,-0.456 0.173,-1.024 0.428,-1.707 z m -6.891,2.622 -0.126,1.478 a 89.09,89.09 0 0 1 -0.116,1.156 c -0.046,0.459 -0.089,0.843 -0.12,1.158 l -0.162,1.52 c 0.46,-0.165 0.886,-0.245 1.276,-0.245 h 0.656 V 24.71 c 0,-0.27 0.021,-0.77 0.066,-1.492 l 0.02,-0.15 0.015,-0.142 0.572,-6.477 0.033,-0.367 c 0.035,-0.274 0.064,-0.678 0.1,-1.21 0.028,-0.317 0.059,-0.64 0.093,-0.97 0.031,-0.33 0.056,-0.56 0.07,-0.688 0.014,-0.125 0.027,-0.276 0.048,-0.448 0.024,-0.171 0.033,-0.275 0.033,-0.308 0,-0.018 0.022,-0.129 0.066,-0.334 l -0.195,0.045 c -0.546,0.096 -1.128,0.152 -1.743,0.17 0,0.119 0,0.203 -0.006,0.254 -0.002,0.05 -0.004,0.105 -0.011,0.162 0,0.146 -0.025,0.615 -0.076,1.407 l -0.15,1.594 -0.343,4.15 z m -5.158,0 c -0.056,0.67 -0.099,1.164 -0.126,1.478 -0.029,0.314 -0.066,0.699 -0.114,1.156 -0.048,0.459 -0.085,0.843 -0.124,1.158 -0.03,0.314 -0.085,0.82 -0.156,1.52 a 3.76,3.76 0 0 1 1.276,-0.245 h 0.652 V 24.71 c 0,-0.27 0.025,-0.77 0.07,-1.492 l 0.017,-0.15 0.015,-0.142 0.573,-6.477 0.029,-0.367 c 0.035,-0.274 0.071,-0.678 0.102,-1.21 0.03,-0.317 0.056,-0.64 0.095,-0.97 0.03,-0.33 0.056,-0.56 0.072,-0.688 0.011,-0.125 0.027,-0.276 0.046,-0.448 0.021,-0.171 0.033,-0.275 0.033,-0.308 0,-0.018 0.02,-0.129 0.066,-0.334 l -0.196,0.045 c -0.549,0.096 -1.127,0.152 -1.744,0.17 0,0.119 0,0.203 -0.004,0.254 0,0.05 -0.006,0.105 -0.01,0.162 0,0.146 -0.025,0.615 -0.079,1.407 l -0.15,1.594 -0.343,4.15 z m -4.913,-5.663 0.116,0.018 c 0.33,0.031 0.61,0.049 0.84,0.049 0.379,0 0.673,-0.072 0.884,-0.211 0.214,-0.143 0.452,-0.428 0.713,-0.865 -0.272,0.06 -0.57,0.092 -0.895,0.092 -0.194,0 -0.544,-0.02 -1.043,-0.067 h -0.102 z m 0.517,1.607 h -0.484 l -0.048,1.143 c -0.045,0.572 -0.093,1.292 -0.155,2.165 -0.06,0.873 -0.131,1.73 -0.209,2.574 -0.042,0.39 -0.073,0.72 -0.098,0.988 -0.028,0.267 -0.053,0.55 -0.084,0.847 -0.033,0.297 -0.065,0.617 -0.108,0.959 -0.039,0.34 -0.062,0.558 -0.073,0.64 a 0.35,0.35 0 0 0 0.098,-0.017 4.426,4.426 0 0 1 1.112,-0.172 h 0.689 l 0.342,-4.43 0.066,-0.747 c 0.143,-1.651 0.25,-2.798 0.313,-3.43 0.031,-0.244 0.068,-0.492 0.12,-0.748 h -0.15 c -0.409,0.15 -0.852,0.228 -1.331,0.228 z m -11.32,-3.15 0.05,0.436 0.1,0.873 0.192,1.578 c 0.056,0.554 0.127,1.093 0.21,1.613 0.066,0.5 0.142,0.994 0.221,1.486 a 46.55,46.55 0 0 0 0.6,2.952 c 0.06,0.22 0.106,0.404 0.143,0.545 l 0.108,0.406 c 0.031,0.123 0.066,0.275 0.112,0.457 0.217,0.769 0.478,1.56 0.77,2.376 h 0.106 c 0.167,-0.13 0.368,-0.25 0.59,-0.355 0.219,-0.108 0.534,-0.23 0.944,-0.373 l 0.099,-0.051 0.102,-0.033 -0.311,-0.746 a 42.03,42.03 0 0 0 2.232,-3.63 c 0.661,-1.218 1.166,-2.3 1.522,-3.243 0.294,-0.805 0.497,-1.578 0.613,-2.332 0.072,-0.35 0.12,-0.697 0.147,-1.046 0.031,-0.346 0.045,-0.789 0.045,-1.326 v -0.164 c -0.101,0.02 -0.211,0.055 -0.327,0.115 -0.356,0.15 -0.681,0.254 -0.985,0.313 a 8.668,8.668 0 0 1 -0.72,0.101 c 0.051,0.547 0.074,0.933 0.074,1.158 0,1.449 -0.255,2.946 -0.762,4.497 -0.25,0.816 -0.56,1.59 -0.924,2.323 -0.279,0.578 -0.687,1.256 -1.227,2.033 h -0.083 c -0.079,-0.236 -0.154,-0.469 -0.226,-0.695 -0.073,-0.227 -0.159,-0.52 -0.263,-0.879 -0.099,-0.36 -0.168,-0.619 -0.2,-0.78 a 12.833,12.833 0 0 1 -0.166,-0.794 37.547,37.547 0 0 1 -0.236,-1.368 45.032,45.032 0 0 1 -0.276,-1.951 55.804,55.804 0 0 1 -0.2,-1.755 c -0.036,-0.4 -0.08,-1.01 -0.135,-1.826 l -0.035,-0.556 c -0.448,0.101 -0.744,0.162 -0.89,0.183 a 6.758,6.758 0 0 1 -0.72,0.027 l -0.165,0.018 h -0.182 l 0.052,0.414 z"
       fill="#00afef"
       id="path3700" />
  </g>
</svg>
