<?xml version="1.0"?>
<svg xmlns="http://www.w3.org/2000/svg" xmlns:xlink="http://www.w3.org/1999/xlink" viewBox="0 0 32.53 32.53" version="1.1">
  <defs id="defs71"/>
  <path d="M313.29 384.05A16.27 16.27 0 11297 367.78a16.26 16.26 0 0116.26 16.27" id="path60" fill="#00b096" transform="translate(-280.76 -367.78)"/>
  <g id="g76">
    <path id="path62" transform="translate(-280.76,-367.78)" class="cls-2" d="m 304.53,378.55 c 8.4e-4,0.26545 -0.12095,0.51641 -0.33,0.68 -0.21923,0.18853 -0.50097,0.28839 -0.79,0.28 h -12.72 c -0.28365,0.0125 -0.56065,-0.0882 -0.77,-0.28 -0.20038,-0.16848 -0.31424,-0.41824 -0.31,-0.68 v -5.17 c -0.004,-0.26176 0.10962,-0.51152 0.31,-0.68 0.20935,-0.1918 0.48635,-0.29252 0.77,-0.28 h 12.72 c 0.28903,-0.008 0.57077,0.0915 0.79,0.28 0.20905,0.16359 0.33084,0.41455 0.33,0.68 v 1.16 h 1.64 v 2.85 h -1.64 z m -13.29,-3.28 6.22,2.82 v -1.43 h 4.59 l -6.22,-2.82 v 1.43 z" style="fill:#ffffff"/>
    <path style="fill:#ffffff" class="cls-2" d="m 18.464683,16.328115 c -0.394892,3.2e-4 -0.773307,-0.158254 -1.05,-0.44 -0.285389,-0.255109 -0.451994,-0.617295 -0.46,-1 0.03081,-0.820848 0.689152,-1.479186 1.51,-1.51 0.38243,0.0092 0.744166,0.175595 1,0.46 0.281746,0.276693 0.44032,0.655108 0.44,1.05 -0.0085,0.37843 -0.166762,0.738039 -0.44,1 -0.263217,0.271437 -0.622049,0.429323 -1,0.44 z m -7.87,4.88 c 0.996331,-0.02022 1.956238,0.374612 2.65,1.09 0.707102,0.706019 1.09384,1.671057 1.07,2.67 0.03993,2.072403 -1.647498,3.764365 -3.72,3.73 -0.9980965,0.01918 -1.961378,-0.36685 -2.67,-1.07 -0.7200374,-0.694743 -1.1154783,-1.659764 -1.09,-2.66 -0.020964,-1.002334 0.3735484,-1.968708 1.09,-2.67 0.7039773,-0.712447 1.6685505,-1.106224 2.67,-1.09 z m 0,6.36 c 1.440558,0.01121 2.611211,-1.159441 2.6,-2.6 0.01073,-0.697664 -0.263774,-1.369479 -0.76,-1.86 -0.475625,-0.507083 -1.144977,-0.787193 -1.84,-0.77 -0.7005095,-0.01533 -1.3752991,0.264022 -1.86,0.77 -0.5055674,0.485774 -0.7878542,1.15892 -0.78,1.86 -0.011151,0.698805 0.2718926,1.370126 0.78,1.85 0.4921966,0.492558 1.1638015,0.763367 1.86,0.75 z m 4.32,-7.48 1.649999,1.72 v 4.64 h -1.469999 v -3.73 l -2.43,-2.1 c -0.311175,-0.258901 -0.469399,-0.65823 -0.42,-1.06 -0.01142,-0.393056 0.140658,-0.773249 0.42,-1.05 l 2.14,-2.11 c 0.258901,-0.311175 0.658229,-0.469399 1.059999,-0.42 0.433491,-0.003 0.854398,0.145604 1.190001,0.42 l 1.44,1.44 c 0.696842,0.72647 1.663419,1.131926 2.67,1.12 v 1.51 c -1.427975,0.02273 -2.80103,-0.549676 -3.79,-1.58 l -0.600001,-0.59 z m 6.15,1.12 c 2.085861,-0.02255 3.782552,1.674139 3.76,3.76 0.02548,1.000236 -0.369963,1.965257 -1.09,2.66 -0.706676,0.706105 -1.67127,1.092665 -2.67,1.07 -2.072502,0.03437 -3.759928,-1.657598 -3.72,-3.73 -0.02384,-0.998943 0.362898,-1.963981 1.07,-2.67 0.693762,-0.715388 1.653668,-1.110217 2.65,-1.09 z m 0,6.36 c 0.696199,0.01337 1.367803,-0.257442 1.86,-0.75 0.508107,-0.479874 0.791151,-1.151195 0.78,-1.85 0.0079,-0.70108 -0.274433,-1.374226 -0.78,-1.86 -0.484701,-0.505978 -1.159491,-0.785326 -1.86,-0.77 -0.694783,-0.01592 -1.363635,0.263984 -1.84,0.77 -0.496226,0.490521 -0.770731,1.162336 -0.76,1.86 -0.01121,1.440559 1.159441,2.611211 2.6,2.6 z" id="path5416"/>
  </g>
</svg>
