<?xml version="1.0"?>
<svg xmlns="http://www.w3.org/2000/svg" xmlns:xlink="http://www.w3.org/1999/xlink" viewBox="0 0 34 43" version="1.1">
  <defs>
    <circle id="a" cx="10.8" cy="10.8" r="10.8"/>
  </defs>
  <g fill="none">
    <g transform="translate(1.2 11.2)">
      <circle id="c" cx="10.8" cy="10.8" r="11.4" style="fill: var(--operatorbg);stroke:#fff; stroke-width:1.2"/>
      <circle cx="10.8" cy="10.8" r="11.4" stroke="#fff" stroke-width="1.2"/>
      <g transform="translate(1.8 1.8)">
        <path d="m7.2355 8.341 0.76284 1.9861-2.2428 0.216 1.48-2.2021zm4.3571-0.13176 0.59904 1.5635c0.2394 0.63324 0.63288 1.238 0.92844 1.5757 0.3096 0.36576 0.74556-0.01404 0.47844-0.35172-0.29556-0.36576-0.6192-0.9144-0.8442-1.4911l-1.0865-2.8699h0.87372l0.47808 1.21c0.07056 0.16884 0.1692 0.23904 0.32364 0.23904h1.1675c0.1692 0 0.28152-0.08424 0.32364-0.225l0.59112-1.7161c0.1404-0.3942-0.33768-0.56268-0.49248-0.22536-0.4644 1.0271-1.4206 0.88632-1.7723 0.47844-0.14112-0.16884-0.2394-0.25308-0.42228-0.25308h-1.2571l-0.0036-0.01008c0.00288-0.00468 0.00612-0.00936 9e-3 -0.01404 0.2628-0.40068 0.3366-0.53712 0.39888-0.84168 0.0612-0.29736 3.6e-4 -0.57492-0.17244-0.78408-0.18648-0.22536-0.46296-0.3672-0.80064-0.36036-0.4698 0.00756-0.8316 0.38376-0.87156 0.42732-0.11412 0.12276-0.10692 0.31536 0.01656 0.4302 0.1242 0.11376 0.3078 0.10152 0.43092-0.0162 0.06984-0.06768 0.25488-0.24048 0.43308-0.243 0.15192-0.00432 0.23436 0.06156 0.28152 0.11088 0.07092 0.07452 0.11664 0.21528 0.08208 0.34848-0.0252 0.0972-0.054 0.18936-0.25596 0.51264l-7.2e-4 -7.2e-4c-0.16416 0.19728-0.24552 0.38052-0.17532 0.57744l0.50544 1.3187c-0.95004 0.63684-1.6556 1.5617-1.9228 2.7562-0.18864-0.1008-0.39888-0.13104-0.64836-0.10404l-0.15228 0.01476-1.6535-4.3117c0.15552-0.04248 0.33444-0.07848 0.55368-0.09216l0.18288-0.01404c0.18288-0.01404 0.32328-0.12636 0.32328-0.29556 0-0.16848-0.12636-0.30924-0.35136-0.30924h-0.90036c-0.66132 0-0.774-0.01044-1.1534-0.01044-0.22536 0-0.36576 0.08064-0.36576 0.24948 0 0.35172 0.46404 0.67536 0.9 0.67536 0.07488 0 0.1458-0.00936 0.21708-0.02412l0.58104 1.5134-0.5868 0.87408c-0.59112-0.43632-1.2942-0.67536-2.0117-0.67536-0.83124 0-1.6092 0.30312-2.1686 0.76932-0.01836 0.01548-0.13608 0.12672-0.153 0.14364-0.16308 0.16308-0.11088 0.45468 0.11664 0.49536 0.02124 0.0036 0.1368 0.036 0.15768 0.04104 0.864 0.20844 1.6834 0.73872 2.3364 1.4411-0.17892 0.11916-0.28908 0.31032-0.28908 0.51372 0 0.36576 0.23904 0.6192 0.64692 0.66132l3.6716 0.39384c0.6894 0.07056 1.2521-0.225 1.3082-1.0688l0.01404-0.19728c0.06696-1.0883 0.63576-2.137 1.5815-2.8296z" style="fill: var(--operatorfg)"/>
        <path d="m4.9328 13.248c-1.1254 0-2.0398-0.90036-2.0398-2.0257 0-0.35172 0.09864-0.70344 0.3096-1.0411-0.16884-0.11268-0.3798-0.21096-0.56304-0.28152-0.23904 0.3942-0.36576 0.87264-0.36576 1.3226 0 1.463 1.1963 2.6446 2.659 2.6446 0.94248 0 1.7867-0.49212 2.2507-1.2521l-0.74556-0.08424c-0.33732 0.45-0.88632 0.71748-1.5052 0.71748" style="fill: var(--operatorfg)"/>
        <path d="m13.402 8.5771c-0.16884 0-0.32364 0.01404-0.4644 0.04212l0.225 0.59076c0.07056-0.01404 0.1548-0.01404 0.2394-0.01404 1.111 0 2.0254 0.9144 2.0254 2.0261 0 1.1254-0.9144 2.0257-2.0254 2.0257-1.1254 0-2.0257-0.90036-2.0257-2.0257 0-0.4644 0.1548-0.88632 0.40788-1.224l-0.25308-0.66132c-0.47844 0.47844-0.78804 1.1534-0.78804 1.8853 0 1.4627 1.1959 2.6446 2.659 2.6446 1.4627 0 2.6446-1.1819 2.6446-2.6446 0-1.4634-1.1819-2.6449-2.6446-2.6449" style="fill: var(--operatorfg)"/>
      </g>
      <circle cx="21.6" cy="0" r="10.2" style="fill: var(--badgecolor);stroke: #fff;stroke-width:1.2"/>
    </g>
    <path d="m10.8 32.8h2.4v8.4c0 0.66274-0.53726 1.2-1.2 1.2s-1.2-0.53726-1.2-1.2v-8.4z" fill="#333"/>
  </g>
</svg>
