<?xml version="1.0" encoding="UTF-8" standalone="no"?>
<svg
   version="1.1"
   width="600"
   height="600"
   style="clip-rule:evenodd;fill-rule:evenodd;image-rendering:optimizeQuality;shape-rendering:geometricPrecision;text-rendering:geometricPrecision"
   id="svg230"
   sodipodi:docname="share_birrer_ch.svg"
   inkscape:version="1.2.1 (9c6d41e410, 2022-07-14)"
   xmlns:inkscape="http://www.inkscape.org/namespaces/inkscape"
   xmlns:sodipodi="http://sodipodi.sourceforge.net/DTD/sodipodi-0.dtd"
   xmlns="http://www.w3.org/2000/svg"
   xmlns:svg="http://www.w3.org/2000/svg">
  <defs
     id="defs234" />
  <sodipodi:namedview
     id="namedview232"
     pagecolor="#ffffff"
     bordercolor="#000000"
     borderopacity="0.25"
     inkscape:showpageshadow="2"
     inkscape:pageopacity="0.0"
     inkscape:pagecheckerboard="0"
     inkscape:deskcolor="#d1d1d1"
     showgrid="false"
     inkscape:zoom="1.0283203"
     inkscape:cx="487.20229"
     inkscape:cy="352.03039"
     inkscape:window-width="1920"
     inkscape:window-height="1017"
     inkscape:window-x="-8"
     inkscape:window-y="-8"
     inkscape:window-maximized="1"
     inkscape:current-layer="g8" />
  <g
     id="g8"
     transform="translate(-213.08978,-81.659126)">
    <rect
       style="clip-rule:evenodd;fill:#ffffff;fill-rule:evenodd;stroke-width:1.61635;image-rendering:optimizeQuality;shape-rendering:geometricPrecision;text-rendering:geometricPrecision"
       id="rect290"
       width="600"
       height="600"
       x="213.08978"
       y="81.659126" />
    <path
       style="opacity:1"
       fill="#82358c"
       d="m 311.5,421.5 c 1,0 2,0 3,0 0,-8 0,-16 0,-24 -0.819,-21.751 4.014,-42.084 14.5,-61 3.524,-5.194 8.357,-8.361 14.5,-9.5 1.311,-4.746 -0.023,-8.746 -4,-12 -10.625,-4.93 -21.291,-9.764 -32,-14.5 -1.196,-1.059 -1.863,-2.393 -2,-4 1.139,-8.238 5.806,-11.572 14,-10 11.141,0.263 22.141,1.43 33,3.5 1.073,1.313 1.74,2.813 2,4.5 -0.861,5.526 -1.861,11.026 -3,16.5 1.029,3.371 3.196,5.871 6.5,7.5 10.091,-21.851 19.924,-43.851 29.5,-66 6.465,-3.87 13.465,-6.37 21,-7.5 33.654,-4.768 67.487,-6.935 101.5,-6.5 30.922,-0.316 61.755,1.184 92.5,4.5 7.333,1.333 14.667,2.667 22,4 5.543,1.399 10.71,3.566 15.5,6.5 9.373,22.315 19.206,44.315 29.5,66 1.693,-1.527 3.527,-2.86 5.5,-4 0.055,-6.017 -0.445,-12.017 -1.5,-18 -0.449,-3.137 0.551,-5.637 3,-7.5 12.269,-1.862 24.602,-2.529 37,-2 4.626,1.636 7.626,4.969 9,10 -0.601,1.605 -1.601,2.938 -3,4 -10.832,4.278 -21.499,8.944 -32,14 -3.475,3.096 -4.975,6.93 -4.5,11.5 6.516,1.926 11.849,5.593 16,11 0.688,0.832 0.521,1.498 -0.5,2 -62.185,29.007 -126.518,52.174 -193,69.5 -53.976,15.33 -108.642,27.663 -164,37 -23.575,3.117 -47.242,4.117 -71,3 -13.262,-0.888 -24.762,-5.721 -34.5,-14.5 -7.032,-14.143 -5.699,-27.477 4,-40 9.4,-11.442 20.9,-19.609 34.5,-24.5 -10.781,8.572 -17.448,19.572 -20,33 -0.26,6.822 2.74,11.489 9,14 3.557,1.408 7.224,2.408 11,3 12.329,0.5 24.662,0.667 37,0.5 z"
       id="path6" />
  </g>
  <g
     id="g12"
     transform="translate(-213.08978,-81.659126)">
    <path
       style="opacity:1"
       fill="#575656"
       d="m 740.5,279.5 c 13.475,-0.965 26.142,2.202 38,9.5 11.65,8.276 15.817,19.443 12.5,33.5 -3.301,9.939 -8.635,18.606 -16,26 -18.764,16.722 -39.431,30.722 -62,42 -0.333,29.667 -0.667,59.333 -1,89 -1.699,0.906 -3.533,1.239 -5.5,1 0.167,12.338 0,24.671 -0.5,37 -0.786,3.083 -2.619,5.249 -5.5,6.5 -27,0.667 -54,0.667 -81,0 -2.833,-1.5 -5,-3.667 -6.5,-6.5 -0.5,-8.327 -0.666,-16.66 -0.5,-25 -5.676,0.166 -11.343,-10e-4 -17,-0.5 -7.664,-5.501 -15.664,-10.501 -24,-15 -39.333,-0.667 -78.667,-0.667 -118,0 -8.266,4.604 -16.266,9.604 -24,15 -5.704,0.687 -11.37,0.521 -17,-0.5 0.166,8.673 0,17.34 -0.5,26 -1.167,2.5 -3,4.333 -5.5,5.5 -27.333,0.667 -54.667,0.667 -82,0 -2.881,-1.251 -4.714,-3.417 -5.5,-6.5 -0.5,-12.329 -0.667,-24.662 -0.5,-37 -1.333,0 -2.667,0 -4,0 -0.488,-3.211 0.179,-6.044 2,-8.5 125.437,-13.108 245.77,-45.108 361,-96 19.303,-8.982 37.969,-18.982 56,-30 11.763,-7.431 21.929,-16.597 30.5,-27.5 7.624,-12.495 5.458,-22.995 -6.5,-31.5 -5.273,-3.257 -10.939,-5.423 -17,-6.5 z"
       id="path10" />
  </g>
  <g
     id="g16"
     transform="translate(-213.08978,-81.659126)">
    <path
       style="opacity:1"
       fill="#d1b5d5"
       d="m 314.5,397.5 c 0,8 0,16 0,24 -1,0 -2,0 -3,0 1.602,-7.914 2.602,-15.914 3,-24 z"
       id="path14" />
  </g>
</svg>
