<?xml version="1.0" encoding="UTF-8" standalone="no"?>
<svg
   width="310"
   height="310"
   viewBox="0 0 309.99999 310"
   version="1.1"
   id="svg52"
   sodipodi:docname="liemobil_liechtenstein.svg"
   inkscape:version="1.2.1 (9c6d41e410, 2022-07-14)"
   xmlns:inkscape="http://www.inkscape.org/namespaces/inkscape"
   xmlns:sodipodi="http://sodipodi.sourceforge.net/DTD/sodipodi-0.dtd"
   xmlns="http://www.w3.org/2000/svg"
   xmlns:svg="http://www.w3.org/2000/svg">
  <sodipodi:namedview
     id="namedview54"
     pagecolor="#ffffff"
     bordercolor="#000000"
     borderopacity="0.25"
     inkscape:showpageshadow="2"
     inkscape:pageopacity="0.0"
     inkscape:pagecheckerboard="0"
     inkscape:deskcolor="#d1d1d1"
     showgrid="false"
     inkscape:zoom="2.1366456"
     inkscape:cx="151.17154"
     inkscape:cy="157.25584"
     inkscape:window-width="1920"
     inkscape:window-height="1017"
     inkscape:window-x="-8"
     inkscape:window-y="-8"
     inkscape:window-maximized="1"
     inkscape:current-layer="svg52" />
  <defs
     id="defs4">
    <style
       id="style2">.a{fill:#4B4B4B;}.b{fill:#C8D700;}</style>
  </defs>
  <rect
     style="fill:#ffffff;fill-rule:evenodd;stroke-width:2.02283"
     id="rect281"
     width="310"
     height="310"
     x="0"
     y="0" />
  <path
     class="a"
     d="m 4.4950657,160.04807 v -36.206 H 15.219066 v 26.6 h 10.932 v 9.609 z"
     id="path6" />
  <path
     class="a"
     d="m 32.211066,160.04807 v -36.206 h 10.724 v 36.209 z"
     id="path8" />
  <path
     class="a"
     d="m 52.753066,160.04807 v -36.206 h 23.542 v 8.425 h -12.818 v 5.292 h 12.118 v 8.148 h -12.118 v 5.779 h 12.818 v 8.565 z"
     id="path10" />
  <g
     transform="translate(-355.50493,-1.857933)"
     id="g14">
    <path
       class="b"
       d="m 489.873,161.906 h -10.445 l 4.108,-21.447 c 0.7,-3.482 0.209,-4.8 -1.393,-4.8 -3.2,0 -8.983,8.5 -10.584,16.782 l -1.81,9.47 h -10.376 l 4.108,-21.447 c 0.7,-3.482 0.209,-4.8 -1.392,-4.8 -3.2,0 -9.053,8.565 -10.585,16.782 l -1.81,9.47 h -10.445 l 5.083,-26.322 v -0.209 c -1.532,-0.278 -3.83,-0.556 -5.849,-0.7 l 1.323,-6.824 a 110.978,110.978 0 0 1 16.016,-0.627 57.358,57.358 0 0 1 -2.646,8.913 h 0.139 c 3.134,-5.361 7.312,-9.679 13.439,-9.679 4.109,0 7.1,2.159 7.1,6.825 a 13.541,13.541 0 0 1 -0.557,3.133 l 0.069,0.07 c 3.2,-5.78 7.521,-10.028 13.649,-10.028 6.755,0 8.7,4.875 7.451,11.351 z"
       id="path12" />
  </g>
  <path
     class="b"
     d="m 159.02307,160.74207 c -10.445,0 -15.6,-5.361 -15.6,-14.066 0,-11.907 8.7,-23.536 23.119,-23.536 9.261,0 15.18,5.083 15.18,14.484 a 23.058,23.058 0 0 1 -22.699,23.118 z m 5.71,-28.132 c -4.944,0 -10.306,4.109 -10.306,12.4 0,3.9 2.02,6.2 5.78,6.2 6.754,0 10.445,-6.615 10.445,-12.326 0,-3.835 -2.089,-6.272 -5.919,-6.272 z"
     id="path16" />
  <path
     class="b"
     d="m 212.78207,140.76007 v 0.069 c 2.3,0.836 3.83,2.994 3.83,6.058 0,6.755 -5.362,13.3 -18.174,13.3 -2.716,0 -7.8,-0.14 -14.136,-0.14 l 6.893,-36.205 c 4.039,0 10.864,-0.209 15.6,-0.209 8.5,0 12.4,2.576 12.4,7.868 -0.006,4.593 -2.722,7.587 -6.413,9.259 z m -12.187,3.969 c -0.835,0 -2.019,0 -2.994,0.069 l -1.462,7.73 c 1.044,0.069 2.228,0.139 3.272,0.139 3.622,0 5.989,-1.88 5.989,-5.014 0.001,-1.88 -1.462,-2.924 -4.805,-2.924 z m 2.855,-13.718 c -0.9,0 -2.228,0 -3.2,0.069 l -1.323,7.173 c 0.836,0.069 1.671,0.069 2.019,0.069 3.552,0 6.685,-1.462 6.685,-4.665 -0.002,-1.532 -0.907,-2.646 -4.18,-2.646 z"
     id="path18" />
  <path
     class="b"
     d="m 232.83907,160.04807 h -10.444 l 6.823,-36.209 h 10.515 z"
     id="path20" />
  <path
     class="b"
     d="m 263.68807,160.04807 h -21.1 l 6.824,-36.209 h 10.514 l -5.083,26.6 h 10.724 z"
     id="path22" />
  <g
     transform="translate(-355.50493,-1.857933)"
     id="g50">
    <path
       class="a"
       d="m 518.855,187.8 c -0.662,0 -1.936,-0.034 -3.5,-0.034 v -8.83 c 1,0 2.683,-0.05 3.855,-0.05 2.479,0 3.5,0.781 3.5,2.241 a 1.961,1.961 0 0 1 -1.223,1.885 v 0.017 a 1.888,1.888 0 0 1 1.325,1.936 c 0,1.479 -1.053,2.835 -3.957,2.835 z m -0.136,-7.115 c -0.22,0 -0.509,0 -0.781,0.017 v 1.749 c 0.238,0.017 0.442,0.017 0.544,0.017 0.849,0 1.46,-0.305 1.46,-0.95 0,-0.508 -0.323,-0.831 -1.223,-0.831 z m -0.085,3.345 c -0.186,0 -0.475,0 -0.7,0.018 v 1.885 c 0.272,0.016 0.578,0.034 0.832,0.034 0.849,0 1.274,-0.408 1.274,-1 0.004,-0.612 -0.455,-0.935 -1.406,-0.935 z"
       id="path24" />
    <path
       class="a"
       d="m 526.142,187.768 v -8.83 h 5.74 v 2.055 h -3.124 v 1.291 h 2.954 v 1.986 h -2.954 v 1.41 h 3.124 v 2.088 z"
       id="path26" />
    <path
       class="a"
       d="m 546.3,187.768 h -3.328 L 541.92,184 c -0.153,-0.492 -0.322,-1.341 -0.442,-1.935 h -0.034 c -0.1,0.577 -0.288,1.342 -0.441,1.868 l -1.087,3.837 h -3.073 l -2.6,-8.83 h 2.869 l 1.189,4.076 a 12.579,12.579 0 0 1 0.373,1.6 h 0.034 c 0.086,-0.492 0.238,-1.138 0.357,-1.562 l 1.189,-4.11 h 2.768 l 1.188,3.991 c 0.12,0.39 0.255,1.036 0.391,1.681 h 0.034 c 0.1,-0.56 0.272,-1.291 0.408,-1.749 l 1.137,-3.923 h 2.649 z"
       id="path28" />
    <path
       class="a"
       d="m 551.4,187.768 v -8.83 h 5.74 v 2.055 h -3.125 v 1.291 h 2.955 v 1.986 h -2.955 v 1.41 h 3.125 v 2.088 z"
       id="path30" />
    <path
       class="a"
       d="m 564.561,187.955 c -2.615,0 -4.618,-1.46 -4.618,-4.415 a 4.661,4.661 0 0 1 5.026,-4.772 10.364,10.364 0 0 1 3.006,0.459 l -0.527,2.225 a 6.159,6.159 0 0 0 -2.36,-0.476 2.195,2.195 0 0 0 -2.344,2.377 c 0,1.444 0.8,2.259 1.97,2.259 a 3.944,3.944 0 0 0 0.815,-0.1 v -2.53 h 2.615 v 4.245 a 9.364,9.364 0 0 1 -3.583,0.728 z"
       id="path32" />
    <path
       class="a"
       d="m 575.567,181.2 v 6.571 h -2.615 V 181.2 H 570.8 v -2.259 h 6.911 v 2.259 z"
       id="path34" />
    <path
       class="a"
       d="m 588.815,187.836 c -1.29,0 -2.343,-0.034 -3.226,-0.084 v -8.814 c 0.815,-0.016 2.581,-0.05 3.736,-0.05 2.836,0 4.771,1.188 4.771,4.279 0.004,3.277 -2.326,4.669 -5.281,4.669 z m 0.289,-6.809 c -0.306,0 -0.646,0.017 -0.9,0.034 v 4.517 a 7.705,7.705 0 0 0 0.849,0.051 2.142,2.142 0 0 0 2.259,-2.36 1.985,1.985 0 0 0 -2.212,-2.242 z"
       id="path36" />
    <path
       class="a"
       d="m 602.334,187.768 -0.458,-1.341 H 598.8 l -0.458,1.341 h -2.615 l 3.175,-8.83 h 3.141 l 3.176,8.83 z m -1.63,-4.856 c -0.119,-0.357 -0.272,-0.815 -0.373,-1.206 h -0.017 c -0.085,0.374 -0.2,0.781 -0.323,1.138 l -0.612,1.715 h 1.9 z"
       id="path38" />
    <path
       class="a"
       d="m 609.35,187.972 a 8.38,8.38 0 0 1 -1.613,-0.187 l 0.085,-2.258 a 4.963,4.963 0 0 0 1.749,0.289 c 0.628,0 1.019,-0.289 1.019,-0.731 0,-1.069 -3.176,-0.39 -3.176,-3.311 0,-1.8 1.325,-3.022 3.906,-3.022 a 9.3,9.3 0 0 1 1.511,0.136 l -0.068,2.156 a 5.749,5.749 0 0 0 -1.545,-0.221 c -0.713,0 -1,0.272 -1,0.679 0,0.951 3.227,0.6 3.227,3.261 -0.002,1.885 -1.429,3.209 -4.095,3.209 z"
       id="path40" />
    <path
       class="a"
       d="m 621.7,187.768 v -8.83 h 2.615 v 6.487 h 2.666 v 2.343 z"
       id="path42" />
    <path
       class="a"
       d="m 635.506,187.768 -0.458,-1.341 h -3.074 l -0.459,1.341 H 628.9 l 3.176,-8.83 h 3.141 l 3.176,8.83 z m -1.63,-4.856 c -0.119,-0.357 -0.272,-0.815 -0.374,-1.206 h -0.017 c -0.085,0.374 -0.2,0.781 -0.323,1.138 l -0.611,1.715 h 1.9 z"
       id="path44" />
    <path
       class="a"
       d="m 646.495,187.768 -2.19,-3.752 a 11.282,11.282 0 0 1 -0.73,-1.529 h -0.017 c 0.017,0.357 0.034,0.68 0.034,1.206 v 4.075 h -2.514 v -8.83 h 3.516 l 2.122,3.617 q 0.434,0.765 0.816,1.631 h 0.016 c -0.034,-0.476 -0.034,-1.07 -0.034,-1.733 l -0.017,-3.515 h 2.531 v 8.83 z"
       id="path46" />
    <path
       class="a"
       d="m 657.026,187.836 c -1.29,0 -2.343,-0.034 -3.227,-0.084 v -8.814 c 0.816,-0.016 2.582,-0.05 3.736,-0.05 2.836,0 4.772,1.188 4.772,4.279 0,3.277 -2.326,4.669 -5.281,4.669 z m 0.289,-6.809 c -0.306,0 -0.646,0.017 -0.9,0.034 v 4.517 a 7.67,7.67 0 0 0 0.849,0.051 2.141,2.141 0 0 0 2.258,-2.36 1.985,1.985 0 0 0 -2.207,-2.242 z"
       id="path48" />
  </g>
</svg>
