<?xml version="1.0" encoding="UTF-8" standalone="no"?>
<svg
   width="100.10282"
   height="100"
   viewBox="0 0 100.10282 100.00001"
   fill="none"
   version="1.1"
   id="svg58"
   sodipodi:docname="regiorad_stuttgart.svg"
   inkscape:version="1.2.1 (9c6d41e410, 2022-07-14)"
   xmlns:inkscape="http://www.inkscape.org/namespaces/inkscape"
   xmlns:sodipodi="http://sodipodi.sourceforge.net/DTD/sodipodi-0.dtd"
   xmlns="http://www.w3.org/2000/svg"
   xmlns:svg="http://www.w3.org/2000/svg">
  <sodipodi:namedview
     id="namedview60"
     pagecolor="#ffffff"
     bordercolor="#000000"
     borderopacity="0.25"
     inkscape:showpageshadow="2"
     inkscape:pageopacity="0.0"
     inkscape:pagecheckerboard="0"
     inkscape:deskcolor="#d1d1d1"
     showgrid="false"
     inkscape:zoom="5.7980769"
     inkscape:cx="101.06799"
     inkscape:cy="56.225539"
     inkscape:window-width="1920"
     inkscape:window-height="1017"
     inkscape:window-x="-8"
     inkscape:window-y="-8"
     inkscape:window-maximized="1"
     inkscape:current-layer="svg58" />
  <rect
     style="fill:#ffffff;fill-rule:evenodd;stroke-width:2.14406"
     id="rect615"
     width="100"
     height="100"
     x="0"
     y="0" />
  <circle
     cx="14.202763"
     cy="49.80143"
     r="14.099943"
     fill="#0066af"
     id="circle2"
     style="stroke-width:0.68854" />
  <mask
     id="mask0_754_24134"
     maskUnits="userSpaceOnUse"
     x="0"
     y="0"
     width="41"
     height="41">
    <circle
       cx="20.4359"
       cy="20.521799"
       r="20.4359"
       fill="#ffffff"
       id="circle4" />
  </mask>
  <g
     mask="url(#mask0_754_24134)"
     id="g17"
     transform="matrix(0.68854404,0,0,0.68854404,0.10281933,35.701488)">
    <path
       d="M 40.8718,0.0742188 H 0 V 40.946 h 40.8718 z"
       fill="url(#paint0_linear_754_24134)"
       id="path7"
       style="fill:url(#paint0_linear_754_24134)" />
    <path
       d="m 20.4065,2.72949 c -9.7655,0 -17.68189,7.91641 -17.68189,17.68181 0,9.7655 7.91639,17.6819 17.68189,17.6819 9.7654,0 17.6818,-7.9164 17.6818,-17.6819 0,-9.7654 -7.9164,-17.68181 -17.6818,-17.68181 z m 0,33.78381 c -8.8929,0 -16.10202,-7.209 -16.10202,-16.102 0,-8.8929 7.20912,-16.10193 16.10202,-16.10193 8.8928,0 16.1019,7.20943 16.1019,16.10193 0,8.8926 -7.209,16.102 -16.1019,16.102 z"
       fill="#ffffff"
       id="path9" />
    <path
       d="m 20.4063,4.48535 c -8.7955,0 -15.92559,7.13015 -15.92559,15.92565 0,8.7955 7.13009,15.9256 15.92559,15.9256 8.7955,0 15.9257,-7.1301 15.9257,-15.9256 0,-8.7955 -7.1302,-15.92565 -15.9257,-15.92565 z M 35.6272,20.411 c 0,0.4947 -0.0235,0.9856 -0.0705,1.4726 l -8.1135,-1.4266 8.1229,-1.4112 c 0.0399,0.4517 0.0603,0.9068 0.0611,1.3652 z m -2.466,8.31 c -0.5243,0.2478 -5.1809,2.5094 -9.3148,6.5212 -0.868,0.2003 -1.7519,0.3238 -2.6415,0.3689 5.1193,-4.8911 10.4587,-7.2398 12.6481,-8.0621 -0.2134,0.4015 -0.444,0.7921 -0.6918,1.172 z m 1.2702,-2.3856 c -0.0434,0.1026 -0.0882,0.2044 -0.1339,0.3059 -1.5966,0.5405 -8.097,3.001 -14.1207,8.9878 -0.6553,-0.0092 -1.3093,-0.0604 -1.958,-0.1532 3.6875,-3.626 7.9966,-6.0742 11.0314,-7.5114 1.7481,-0.8326 3.5482,-1.551 5.3891,-2.1508 -0.0661,0.1747 -0.1348,0.3489 -0.2079,0.5217 z m 0.4959,-1.3485 c -0.7201,0.2145 -3.04,0.9502 -5.9637,2.3336 -3.1871,1.5082 -7.7568,4.1131 -11.5954,8.0092 -0.6204,-0.1258 -1.2322,-0.2905 -1.8318,-0.4934 4.5706,-4.2912 9.696,-6.8706 13.2378,-8.2901 2.9036,-1.1634 5.2324,-1.7534 6.2818,-1.9874 -0.0405,0.1432 -0.0839,0.2859 -0.1287,0.4281 z m 0.5194,-2.2233 c -0.5769,0.0862 -1.9085,0.3063 -3.6982,0.7357 l -5.1224,-0.9135 -2.6428,-1.5275 3.0508,-0.53 8.5087,1.4959 c -0.0261,0.2477 -0.0582,0.4941 -0.0961,0.7394 z M 5.18548,20.411 c 0,-0.4828 0.02244,-0.9618 0.06731,-1.4371 l 5.28741,0.9291 -0.0215,1.1075 -5.25633,0.9436 C 5.21125,21.4442 5.18562,20.9299 5.18548,20.411 Z m 5.82142,-3.34 h -0.1611 c -0.0019,-0.002 0.0981,-0.001 0.1611,0 z m 0.0437,6e-4 h 0.0064 c 0.2796,-0.0549 0.3585,-0.3401 0.3806,-0.5101 l 2.5896,1.5122 -2.9663,-0.5046 z m -0.346,-1.9932 c -0.0443,10e-5 -0.0802,0.036 -0.0803,0.0802 v 0.4697 l -0.2995,0.0055 c 0,0 -0.051,-0.0048 -0.0893,0.0626 L 6.75873,13.6659 C 7.06589,13.0438 7.41551,12.4437 7.8051,11.8697 l 2.9683,1.7218 -0.0301,1.4871 z m 0.6231,0.5562 -0.2853,-0.0053 v -0.4707 c -1e-4,-0.0442 -0.036,-0.0801 -0.0802,-0.0802 h -0.0407 l -0.0157,-1.4096 4.6444,2.6942 1.9691,2.3052 -3.0978,-0.5269 -2.9748,-1.7371 0.0118,-0.4885 c 3e-4,-0.2934 -0.1308,-0.2811 -0.1308,-0.2811 z M 17.2226,14.855 18.3028,17.7961 15.6423,16.2526 9.83857,9.45812 C 10.3596,8.95462 10.9158,8.4888 11.5029,8.06416 Z M 11.617,7.98121 c 0.7998,-0.56677 1.6529,-1.05448 2.5471,-1.45626 l 2.9162,7.94225 z M 29.4983,8.2011 c 0.557,0.41645 1.0849,0.87031 1.5802,1.35844 l -5.6734,6.68406 -2.5724,1.4723 1.0713,-2.953 z m -5.4577,6.1836 2.8165,-7.7632 c 0.8889,0.41565 1.7352,0.91687 2.527,1.49658 z m 10.3908,0.1017 c 0.2981,0.7045 0.5423,1.4305 0.7306,2.1719 l -8.1824,1.4611 7.2138,-4.1646 c 0.0821,0.1755 0.1621,0.3525 0.238,0.5318 z M 9.75463,25.4949 10.4391,25.0937 10.4332,25.3984 c -0.2345,0.0318 -0.46066,0.0641 -0.67857,0.0967 z m 1.46727,-0.1965 -0.0136,-0.6554 3.1877,-1.8684 3.0854,-0.5356 -2.0141,2.3485 -0.736,0.4158 c -1.2883,0.0649 -2.466,0.1715 -3.5094,0.2955 z m 2.828,-4.7789 3.012,0.5293 -2.7151,1.5914 -3.1688,0.5502 -0.0447,-2.1472 z m -2.9196,0.3815 -0.0186,-0.8972 2.535,0.4455 z m 10.4712,4.2368 c -0.1598,-0.0192 -0.3223,-0.0369 -0.4898,-0.0532 l -0.5069,-1.3482 0.3441,-0.936 0.6526,0.785 z m 0.1409,-1.3828 1.3373,1.6088 c -0.4555,-0.0827 -0.8871,-0.1519 -1.3373,-0.2087 z m -6.6983,1.2337 0.1539,-0.0869 -0.0716,0.0835 c -0.0274,0.001 -0.055,0.002 -0.0823,0.0034 z m 0.5139,-0.2903 2.7154,-1.5339 -0.66,1.7731 c -0.795,-0.0036 -1.5612,0.011 -2.2946,0.0396 z m 2.6481,0.2451 C 18.0576,24.9411 17.91,24.9394 17.7635,24.9386 l 0.7004,-1.8818 0.8649,-0.4884 v 0.9878 L 18.21,24.9435 Z M 20.4063,21.26 c -0.3376,0 -0.6421,-0.2035 -0.7713,-0.5154 -0.1292,-0.312 -0.0578,-0.6711 0.181,-0.9099 0.2388,-0.2387 0.5979,-0.3102 0.9099,-0.1809 0.312,0.1292 0.5153,0.4337 0.5153,0.7714 -6e-4,0.4607 -0.3741,0.8341 -0.8349,0.8346 z m -0.9209,0.215 c 0.0522,0.046 0.1077,0.088 0.166,0.1257 l 0.0419,0.1114 -0.2235,0.0388 v -0.279 z m 0.2584,0.3714 0.101,0.2686 -0.375,0.2119 V 21.894 Z m 0.1409,-0.0245 0.2049,-0.0353 c 0.007,0.0016 0.0141,0.0039 0.0211,0.0054 l 0.0979,0.1178 -0.2396,0.1355 z m 0.4318,-0.0027 c 0.0158,0.001 0.0315,0.002 0.0474,0.0025 l -0.0309,0.0174 z m 0.2396,0.0557 0.088,0.0499 -0.1177,0.1461 -0.1014,-0.122 z m 0.1432,-0.0809 0.0058,-0.0033 c 0.0201,-0.0044 0.0397,-0.0101 0.0594,-0.0153 l -0.0308,0.0382 z m 1.0148,-1.8587 c -0.0039,-0.0105 -0.007,-0.0211 -0.0116,-0.0317 l 0.1533,0.0885 -0.0282,0.0776 z m -2.636,0.9247 -0.152,-0.0887 0.102,-0.119 c 0.0113,0.0704 0.028,0.1398 0.05,0.2077 z m -0.006,0.1597 -0.0837,0.2247 -0.4068,-0.0714 0.2513,-0.293 z m 0.1167,0.0907 c 0.038,0.0675 0.0816,0.1318 0.1302,0.1921 l -0.1894,-0.0332 z m 0.1402,0.337 v 0.3275 l -0.4145,0.0721 0.1651,-0.4441 z m 0,0.4709 v 0.488 l -0.7885,0.4454 0.3171,-0.8515 z m 0.141,0.5703 0.4253,-0.2401 0.155,0.413 -0.5805,0.7198 z m 0.5494,-0.3101 0.2811,-0.1587 0.1359,0.1634 -0.2832,0.3512 z m 0.5089,0.1153 0.3171,0.3811 -0.3159,0.8594 -0.3184,-0.8468 z m 0.0902,-0.1119 0.1505,-0.1865 0.2696,0.1531 -0.1374,0.3735 z m 0.2401,-0.2977 0.1295,-0.1605 0.1939,0.0346 -0.0941,0.256 z m 0.2894,-0.2749 c 0.0381,-0.024 0.0749,-0.0496 0.1103,-0.077 l 0.0071,-0.0013 -0.0342,0.0932 z m 0.3571,-0.3209 c 0.0036,-0.0046 0.007,-0.0093 0.0104,-0.0141 l 0.0862,-0.0498 v 0.1049 l -0.1194,0.0207 z m 0.2376,-0.4491 c 0.0209,-0.0694 0.0363,-0.1403 0.0463,-0.2121 l 0.0951,0.2716 -0.1414,0.0817 z m 0.0737,-0.56 -0.0183,0.0064 c -0.0012,-0.0133 -0.004,-0.0261 -0.0056,-0.0392 l 0.1072,0.1273 -0.0353,0.0418 z m 0.1168,-0.0845 0.0474,-0.1307 0.122,0.0705 -0.1105,0.1301 z m 0.0962,-0.2652 0.0957,-0.264 0.3268,0.0575 -0.2566,0.3023 z m -0.124,-0.0717 -0.1838,-0.1062 v -0.157 l 0.2623,0.0462 z m -0.3247,-0.1898 c -0.0228,-0.0352 -0.0473,-0.0692 -0.073,-0.1022 l 0.0016,-6e-4 -0.0031,-0.0085 0.0746,0.0131 z m -0.1304,-0.2642 -0.0528,-0.1442 0.1837,-0.0327 v 0.1998 z M 21.2727,19.3294 C 21.261,19.3201 21.2488,19.3113 21.2368,19.3025 v -0.0019 l -0.0037,-7e-4 C 21.2292,19.297 21.2253,19.2939 21.2212,19.291 l 0.0352,-0.0062 z m -0.5237,-0.2585 0.0166,-0.0095 0.0148,0.0176 C 20.77,19.0757 20.7595,19.0732 20.749,19.0706 Z m -1.0936,0.1762 c -0.0591,0.0378 -0.1153,0.08 -0.1681,0.1263 l -7e-4,-0.2278 0.1941,0.033 z m -0.4806,0.5159 -0.0563,-0.1531 0.1773,-0.0319 c -0.0452,0.0584 -0.0856,0.1202 -0.121,0.1849 z m -0.1091,0.1117 -0.2202,0.1288 -0.2553,-0.2989 0.3877,-0.0695 z m -0.0027,0.165 c -0.0162,0.0572 -0.0288,0.1154 -0.0376,0.1742 l -0.0866,-0.1015 z m -0.0546,0.3714 c 0,0.0047 -7e-4,0.0093 -7e-4,0.0141 0,0.0109 0.0014,0.0215 0.0017,0.0324 l -0.2072,0.2416 -0.4329,-0.2528 0.446,-0.2614 z m -0.2995,0.3967 -0.2889,0.3369 -0.9558,-0.1681 0.7655,-0.4486 z m -0.3955,0.4612 -0.6879,0.8021 -2.8825,0.5004 2.5335,-1.4849 z m 0.1613,0.0282 0.4635,0.0815 -0.1848,0.4964 -0.9097,0.1579 z m 0.2217,0.7308 -0.3466,0.9313 -2.5225,1.4248 1.8722,-2.1829 z m 0.6324,1.7526 v 1.191 c -0.2919,-0.0106 -0.6047,-0.0187 -0.9403,-0.025 z m 0.141,-0.1748 0.6381,-0.7913 0.3466,0.9219 -0.4652,1.2648 C 19.823,24.9922 19.6497,24.9841 19.4696,24.977 Z m 1.0606,0.3325 0.4253,1.1314 c -0.2584,-0.0232 -0.5296,-0.0432 -0.8191,-0.0602 z m 0.4747,-1.2912 0.1575,-0.4284 0.4389,0.2492 v 0.8967 z m 0.2069,-0.5625 0.1108,-0.3015 0.2787,0.0498 v 0.4729 z m 0.1602,-0.4358 0.0537,-0.1462 0.1756,-0.0305 v 0.2175 z m 0.3702,-0.2012 0.3148,-0.0547 0.141,0.4032 -0.456,-0.0813 z m 0,-0.1431 v -0.1621 l 0.1889,-0.109 0.0786,0.2243 z m 0.3131,-0.3425 0.2286,-0.132 0.2794,0.3318 -0.4126,0.0719 z m -0.0474,-0.1354 -0.0902,-0.2573 0.0736,-0.0867 0.2004,0.2379 z m 0.0759,-0.453 0.1425,-0.1678 0.4282,0.2475 -0.3389,0.1956 z m 0.2352,-0.2769 0.2934,-0.3458 0.9649,0.1696 -0.7819,0.4514 z m 0.3991,-0.4703 0.6033,-0.7107 2.8906,-0.5162 -2.4447,1.4113 z m -0.1609,-0.0282 -0.3837,-0.0675 0.1591,-0.4384 0.7708,-0.1376 z m -0.5247,-0.0923 -0.311,-0.0547 v -0.2498 l 0.4505,-0.0804 z m -0.3106,-0.4477 5e-4,-0.5448 0.8458,-0.484 -0.3404,0.9384 z m -0.141,0.0251 -0.2325,0.0416 -0.1202,-0.3285 0.3536,-0.2023 z m -0.3735,0.0668 -0.1586,0.0282 -0.1588,-0.1885 0.214,-0.1225 z m -0.4097,-0.2698 -0.2012,-0.2389 0.2973,-0.3487 0.1611,0.4404 z m -0.1243,0.0712 -0.1419,0.0812 c -0.035,-0.0031 -0.0704,-0.0049 -0.1063,-0.0054 l -0.1057,-0.0612 0.1841,-0.216 z m -0.4777,-0.0573 -0.2137,-0.1241 0.1642,-0.4445 0.2655,0.3152 z m -0.093,0.109 -0.0626,0.0735 c -0.0154,0.0043 -0.0314,0.0071 -0.0466,0.012 l -0.1216,-0.0206 0.0605,-0.1637 z m -0.3721,0.0407 -0.2442,-0.0415 -10e-4,-0.3573 0.3232,0.1875 z m -0.3853,-0.0654 -0.4889,-0.0832 -0.2869,-0.7814 0.7747,0.4493 z m 5e-4,0.143 9e-4,0.3042 -0.2772,0.0498 -0.157,-0.4277 z m -0.4172,0.3792 -0.444,0.0797 -0.605,-0.7083 0.8728,0.1485 z m -0.6048,0.1086 -1.0612,0.1903 -2.4949,-1.4571 2.8952,0.4925 z m 0.1058,0.1242 0.2924,0.3424 -0.4926,0.289 -0.7795,-0.4553 z m -0.3397,0.7129 -0.8404,0.4925 -2.797,-0.4915 2.7838,-0.4997 z m -4.0903,2.3972 -2.7949,1.6381 -0.0239,-1.1487 z m 9.2962,2.5598 -1.5536,-1.8692 v -0.9866 l 0.898,0.5096 0.8336,2.3796 C 23.4141,25.4256 23.3548,25.4145 23.296,25.4034 Z M 21.7424,22.3858 V 21.858 l 0.5095,0.0909 0.3176,0.9064 z m 0.6688,-0.4087 0.9872,0.1761 1.8916,2.2462 -2.5342,-1.4384 z m -0.0536,-0.1528 -0.1597,-0.456 0.4708,-0.0818 0.5879,0.6982 z m 0.4717,-0.5657 0.9374,-0.1629 2.4521,1.4172 -2.7453,-0.4895 z m -0.105,-0.1248 -0.3162,-0.3755 0.3876,-0.2237 0.7807,0.4511 z m 0.2122,-0.6805 0.8572,-0.4949 2.8309,0.4977 -2.8316,0.4922 z m 1.0472,-0.6046 2.6367,-1.5223 8.5747,-1.5312 c 0.1693,0.6938 0.2892,1.3987 0.3588,2.1094 l -8.5199,1.48 z m 2.5875,-1.6567 -3.1064,0.5547 2.0314,-2.393 7.6013,-4.35 c 0.387,0.5828 0.7332,1.1918 1.036,1.8225 z m -3.3243,0.5937 -0.8586,0.1533 0.3694,-1.0181 2.3789,-1.3613 z m -0.6041,-0.9616 -0.9199,0.5265 9e-4,-1.0318 1.9186,-2.25 z m -1.061,0.6073 -0.403,0.2305 -0.1801,-0.4926 0.584,-0.685 z m -0.6387,-0.4141 -0.34,-0.9291 0.9827,-2.6605 -0.0028,2.8394 z m -0.1051,0.1232 -0.3337,0.3914 -0.3021,-0.3583 0.3255,-0.881 z m -0.74,-0.0913 -0.6163,-0.7316 -0.009,-2.9082 0.9802,2.6788 z m -0.0564,0.1521 -0.1832,0.4969 -0.3735,-0.2166 -0.0027,-0.9444 z m -0.6977,0.1984 -0.8502,-0.4933 -1.0049,-2.7351 1.8518,2.1984 z m -0.965,-0.3967 0.3176,0.8648 -0.9597,-0.1632 -1.8183,-2.129 z m -4.0057,0.2724 2.6751,1.5628 -2.999,0.5384 -2.9409,-0.5168 -0.0447,-2.1471 z m -3.8299,1.485 -5.27705,-0.9272 c 0.07067,-0.6895 0.18878,-1.3733 0.35351,-2.0466 l 4.96474,0.8443 z m -0.0271,1.3938 -0.0423,2.1587 -4.8263,0.838 C 5.477,23.4748 5.35353,22.7877 5.27809,22.0945 Z m -0.0449,2.3022 -0.0287,1.4722 -1.06558,0.6246 C 7.8013,25.802 6.72977,26.055 6.31043,26.1611 6.06099,25.551 5.85169,24.9252 5.68389,24.2877 Z m 14.3033,2.2404 C 24.3614,25.6122 23.9865,25.5365 23.6344,25.468 l -0.8077,-2.3047 2.7247,1.5466 0.4402,0.5228 c -0.3959,0.145 -0.8016,0.2997 -1.2172,0.4641 z m 1.3581,-0.5155 -0.2281,-0.2709 0.3806,0.2161 c -0.0511,0.0183 -0.1014,0.0362 -0.1524,0.0548 z m 0.3275,-0.1176 -0.817,-0.4638 -2.0277,-2.4079 2.9617,0.5282 2.5564,1.4774 c -0.574,0.1691 -1.1714,0.3552 -1.7867,0.5606 -0.2879,0.0961 -0.5835,0.1979 -0.8869,0.3055 z m 2.8601,-0.9208 -2.3361,-1.35 4.4248,0.7893 c -0.6465,0.159 -1.3471,0.3453 -2.0887,0.5607 z m 3.6989,-12.2566 -7.2549,4.1518 5.4151,-6.37926 c 0.6822,0.68266 1.2983,1.42846 1.8398,2.22736 z M 26.7287,6.56174 23.7796,14.691 21.7241,17.1013 21.7272,14.0447 24.764,5.82335 c 0.5322,0.15873 1.0552,0.34655 1.5668,0.56262 0.1338,0.05659 0.2662,0.11551 0.3979,0.1757 z M 21.728,13.6368 21.7362,5.24812 c 0.9792,0.08373 1.9479,0.26298 2.8923,0.5352 z m -0.1324,-8.4008 -0.009,8.7836 -1.0583,2.8642 -1.0565,-2.888 -0.0253,-8.77488 c 0.3184,-0.01967 0.6383,-0.03066 0.9598,-0.03066 0.3988,0 0.7951,0.01513 1.1889,0.04567 z m -2.2659,8.3713 -2.8882,-7.89544 c 0.937,-0.25239 1.8961,-0.41392 2.8641,-0.48234 z m -3.025,-7.85879 3.0262,8.27239 0.0091,3.1288 -1.9936,-2.3666 -3.053,-8.31474 C 14.3562,6.4408 14.4187,6.41275 14.4819,6.38597 15.0753,6.1349 15.6842,5.92198 16.3047,5.74851 Z M 9.64356,9.6482 C 9.67443,9.61733 9.706,9.58745 9.73715,9.55658 l 5.53735,6.48272 -4.3705,-2.5352 -0.0211,-1.905 h -0.0691 l -0.0373,1.831 -2.89112,-1.677 C 8.40721,11.0002 8.99564,10.2958 9.64356,9.6482 Z m -2.94783,4.144 3.50227,2.0453 c -0.0023,0.0232 -0.0039,0.0482 -0.0039,0.0771 l 0.0125,0.5179 c 0,0 -0.0141,0.5592 0.3892,0.6385 l -0.0081,0.4177 -4.93446,-0.8394 c 0.18799,-0.7382 0.4315,-1.4612 0.72844,-2.1627 0.099,-0.2346 0.20368,-0.466 0.31405,-0.6942 z M 13.0792,33.756 c 4.5137,-4.381 10.3304,-6.9387 14.475,-8.3237 2.5312,-0.8506 5.1263,-1.4976 7.7605,-1.935 -0.0205,0.0995 -0.0416,0.1989 -0.064,0.298 -0.8305,0.1696 -3.3716,0.7498 -6.7201,2.0898 -3.6698,1.4688 -9.011,4.1635 -13.7312,8.6809 -0.1062,-0.0423 -0.212,-0.085 -0.3172,-0.1296 -0.479,-0.2028 -0.9473,-0.4298 -1.403,-0.6804 z m 18.0899,-2.5819 c -1.3864,1.3903 -3.0296,2.4982 -4.8383,3.2623 -0.3252,0.1375 -0.6538,0.263 -0.9859,0.3764 2.6511,-2.356 5.3582,-3.9872 6.8915,-4.8233 -0.3351,0.4129 -0.6913,0.8082 -1.0673,1.1843 z"
       fill="#ffffff"
       id="path11" />
    <path
       fill-rule="evenodd"
       clip-rule="evenodd"
       d="m 2.72485,20.4456 c 0,-9.7836 7.91615,-17.71513 17.68155,-17.71513 9.7653,0 17.6821,7.93153 17.6821,17.71513 0,9.7836 -7.9161,17.7152 -17.6821,17.7152 -9.766,0 -17.68155,-7.9316 -17.68155,-17.7152 z m 1.57994,0 c 0,8.9069 7.20941,16.1323 16.10221,16.1323 8.8929,0 16.1022,-7.2229 16.1022,-16.1323 0,-8.9094 -7.2093,-16.13225 -16.1022,-16.13225 -8.8928,0 -16.10221,7.22285 -16.10221,16.13225 z"
       fill="#ffffff"
       id="path13" />
    <path
       fill-rule="evenodd"
       clip-rule="evenodd"
       d="m 20.44,19.6348 c -0.4475,0 -0.8103,0.3628 -0.8103,0.8103 0,0.4476 0.3628,0.8103 0.8103,0.8103 0.4475,0 0.8103,-0.3627 0.8103,-0.8103 0,-0.4475 -0.3628,-0.8103 -0.8103,-0.8103 z m -1.91,0.8103 c 0,-1.0548 0.8552,-1.9099 1.91,-1.9099 1.0549,0 1.91,0.8551 1.91,1.9099 0,1.0549 -0.8551,1.91 -1.91,1.91 -1.0548,0 -1.91,-0.8551 -1.91,-1.91 z"
       fill="#ffffff"
       id="path15" />
  </g>
  <path
     d="m 94.237819,54.342236 h 1.041742 v 3.60494 c 0,1.430034 0.0297,2.827644 2.74041,2.827644 0.723646,0.0172 1.440366,-0.149 2.082849,-0.483282 l -0.358733,-1.743954 c -0.296182,0.15768 -0.626494,0.23824 -0.961932,0.234176 -0.72988,0 -0.886838,-0.249112 -0.886838,-1.10367 v -3.335854 h 1.693812 l 0.12464,-1.706561 H 97.895317 V 50.81702 h -1.427436 c -0.326288,0.964102 -0.869558,1.743885 -2.02071,2.02047 z m -3.216224,0.06226 c 0.11078,-0.0056 0.221786,0.01102 0.32627,0.04737 0.10966,0.04729 0.12468,0.10961 0.12468,0.326367 v 1.071233 l 2.035264,-0.12454 v -3.074293 c -0.458494,-0.162369 -0.943152,-0.241622 -1.429988,-0.234184 -0.470166,-0.01841 -0.935032,0.107147 -1.332302,0.360048 -0.396616,0.252831 -0.707188,0.620923 -0.889596,1.054983 h -0.02496 v -1.195802 h -3.238824 v 1.459923 l 0.543322,0.04485 c 0.263646,0.03239 0.358704,0.139514 0.358704,0.450942 v 4.023505 c 0,0.373672 -0.06216,0.498296 -0.373876,0.513238 l -0.52815,0.04972 v 1.39768 h 4.80051 v -1.444978 l -1.352254,-0.07724 v -3.405582 c 0,-0.71506 0.358706,-1.245728 0.979062,-1.245728 z m -8.559982,3.602526 c 0.0017,0.126 -0.02262,0.250974 -0.0722,0.366994 -0.04926,0.11602 -0.12176,0.220546 -0.214064,0.306824 -0.0916,0.08628 -0.200374,0.15238 -0.319484,0.19424 -0.11844,0.04186 -0.245164,0.05844 -0.370448,0.04872 -0.93439,0 -1.151262,-0.979114 -1.151262,-2.16003 0,-1.305417 0.29607,-2.491298 1.414944,-2.491298 0.243744,-0.0065 0.485476,0.0362 0.712638,0.124556 z m 2.56349,-5.002617 c -0.955056,-0.366995 -1.966534,-0.566736 -2.989694,-0.590419 -2.874702,0 -4.287594,1.803705 -4.287594,4.536676 0,2.065294 0.747818,3.821694 3.106774,3.821694 0.90197,0 1.599452,-0.358728 1.99323,-0.949158 l 0.04756,0.0174 0.10734,0.729932 h 2.797594 v -1.415032 l -0.403478,-0.02986 c -0.28159,-0.015 -0.35875,-0.12462 -0.35875,-0.450998 z M 73.846571,57.46391 c 0,0.68263 -0.356002,1.038874 -0.979052,1.038874 -0.996386,0 -1.16365,-0.946754 -1.16365,-2.065362 0,-1.118604 0.371098,-2.174892 1.365294,-2.174892 0.264492,-0.0017 0.526786,0.04069 0.777408,0.124544 z m 0.1721,2.578522 c 0,1.365248 -0.358722,2.095176 -1.602164,2.095176 -0.240318,0.004 -0.480632,-0.0279 -0.712642,-0.09212 -0.234162,-0.07726 -0.326362,-0.201808 -0.326362,-0.51324 v -0.6104 l -1.88113,0.12456 v 2.297042 c 0.667884,0.358742 2.035982,0.560554 2.989654,0.560554 3.338732,0 3.914288,-2.035404 3.914288,-4.235304 v -6.644398 c -0.986566,-0.3849 -2.03317,-0.590762 -3.09225,-0.607858 -2.740302,0 -4.192482,1.694105 -4.192482,4.235246 0,2.067842 0.822164,3.667256 3.074332,3.667256 0.839312,0 1.507282,-0.358734 1.818402,-0.854554 z M 61.250339,50.824455 h -1.427472 c -0.326382,0.964179 -0.869508,1.743953 -2.020478,2.020473 l -0.201814,1.494827 h 1.041364 v 3.652233 c 0,1.74396 0.635318,2.780348 2.685662,2.780348 0.696468,0.011 1.383636,-0.16084 1.993054,-0.498228 L 62.887157,58.59743 c -0.265784,0.13324 -0.557304,0.207258 -0.85449,0.216758 -0.652736,0 -0.777298,-0.480878 -0.777298,-1.133544 v -3.338408 h 2.41659 v 3.60494 c 0,1.430034 0.02986,2.827644 2.740472,2.827644 0.723176,0.0176 1.438984,-0.14858 2.080222,-0.483282 l -0.35625,-1.743954 c -0.296758,0.1574 -0.628222,0.23789 -0.964162,0.234176 -0.729922,0 -0.884362,-0.249112 -0.884362,-1.10367 v -3.335854 h 1.69409 l 0.12456,-1.706561 h -1.81865 V 50.81702 h -1.444984 c -0.266596,0.792242 -0.68517,1.45993 -1.44498,1.818655 h -2.145018 z m -4.80327,1.81122 h -3.288562 v 1.474869 l 0.341314,0.02985 c 0.279066,0.03239 0.373742,0.139504 0.373742,0.468352 v 2.902416 c 0,0.747416 -0.421046,1.24565 -1.056364,1.24565 -0.635252,0 -0.824604,-0.373678 -0.824604,-1.118612 v -5.002542 h -3.385706 v 1.474871 l 0.418492,0.02985 c 0.249188,0.03239 0.373748,0.12457 0.373748,0.450929 v 3.557644 c 0,1.786284 0.777294,2.625826 2.361772,2.625826 1.071238,0 1.848532,-0.48328 2.267104,-1.195802 h 0.04728 v 0.996554 h 3.119168 v -1.415106 l -0.421046,-0.04486 c -0.26407,-0.03244 -0.341314,-0.1395 -0.341314,-0.483362 z m -14.270354,1.706561 h 1.04142 v 3.60494 c 0,1.430034 0.02986,2.827644 2.740408,2.827644 0.723178,0.0176 1.438986,-0.14858 2.080302,-0.483282 l -0.356262,-1.743954 c -0.296756,0.1574 -0.628228,0.23789 -0.964166,0.234176 -0.729924,0 -0.884432,-0.249112 -0.884432,-1.10367 v -3.335854 h 1.694164 l 0.12202,-1.706561 H 45.833985 V 50.81702 h -1.429968 c -0.32637,0.964102 -0.869498,1.743885 -2.017984,2.02047 z m -4.835646,4.427062 c -0.31886,0.0054 -0.636972,-0.0315 -0.94675,-0.10708 -0.201748,-0.06234 -0.219228,-0.18688 -0.219228,-0.421046 v -0.86949 l -1.993058,0.12454 v 2.655786 c 1.066342,0.4278 2.207056,0.639528 3.355832,0.622794 2.49135,0 4.053384,-1.245644 4.053384,-3.418072 0,-2.172426 -1.507224,-2.625898 -2.919846,-3.076822 -1.04886,-0.333813 -1.656706,-0.558067 -1.656706,-1.287993 0,-0.682627 0.543128,-0.931745 1.148498,-0.931745 0.293314,-0.0058 0.58622,0.02575 0.871974,0.09213 0.201812,0.06236 0.216746,0.186866 0.216746,0.4061 v 0.774835 l 1.95567,-0.124555 v -2.531233 c -0.97904,-0.427236 -2.038568,-0.63882 -3.106638,-0.620306 -2.282106,0 -3.851636,1.180845 -3.851636,3.238712 0,2.057849 1.59941,2.740467 2.952258,3.091769 0.946686,0.249114 1.552046,0.498232 1.552046,1.24564 0,0.854556 -0.667676,1.133554 -1.412546,1.133554"
     fill="#0066af"
     id="path19"
     style="stroke-width:0.68854" />
  <path
     d="m 95.403507,45.611988 c -0.916418,0 -1.195374,-0.979049 -1.195374,-2.242185 0,-1.263099 0.326426,-2.424061 1.397804,-2.424061 0.25188,-0.0039 0.501282,0.04977 0.729878,0.156954 v 3.639859 c 0,0.433433 -0.249244,0.869433 -0.932308,0.869433 z m 3.488144,-0.264062 v -9.165611 h -3.440646 v 1.459918 l 0.513672,0.04734 c 0.248642,0.02989 0.371138,0.154462 0.371138,0.450934 v 1.118609 c -0.347826,-0.103598 -0.708496,-0.156466 -1.07134,-0.156954 -2.361788,0 -3.634878,2.035419 -3.634878,4.504288 0,2.020538 0.692634,3.861558 3.076404,3.861558 0.807666,0 1.55265,-0.281462 1.993306,-0.931733 l 0.0619,0.01492 0.10738,0.715051 h 2.797616 v -1.422555 l -0.420704,-0.04487 C 98.966693,45.76644 98.903997,45.689205 98.903997,45.347901 Z M 87.740691,44.69518 c 0.0017,0.126068 -0.0228,0.251045 -0.07228,0.367058 -0.04924,0.116024 -0.12182,0.220481 -0.214084,0.30675 -0.09164,0.08628 -0.200388,0.152442 -0.319504,0.194312 -0.11912,0.0418 -0.245122,0.05837 -0.371156,0.04865 -0.934364,0 -1.150464,-0.979044 -1.150464,-2.159971 0,-1.30545 0.295964,-2.491323 1.414794,-2.491323 0.243114,-0.0061 0.485544,0.03621 0.71275,0.124564 z m 2.563474,-5.002581 c -0.95507,-0.367001 -1.966376,-0.566741 -2.989686,-0.59044 -2.874664,0 -4.287494,1.803724 -4.287494,4.53673 0,2.065286 0.747034,3.821692 3.106642,3.821692 0.902,0 1.599582,-0.35873 1.99336,-0.94923 l 0.04732,0.01748 0.10742,0.729922 h 2.797518 v -1.415091 l -0.403454,-0.02985 c -0.281608,-0.01493 -0.358738,-0.124558 -0.358738,-0.450925 z m -13.86454,2.005523 V 38.76084 h 0.729834 c 1.10381,0 1.599504,0.326371 1.599504,1.382694 0,1.056323 -0.512948,1.554588 -1.42736,1.554588 z m -3.515018,5.560645 h 4.130632 v -1.49477 l -0.620408,-0.04737 v -2.32685 h 0.777274 c 0.52821,0 0.712748,0.201746 0.946794,0.65266 l 0.637648,1.245721 c 0.1074,0.216759 0.0922,0.40356 -0.15704,0.435982 l -0.433038,0.04489 v 1.47734 h 4.26963 v -1.509727 l -0.72983,-0.04739 -1.148452,-2.24217 c -0.103338,-0.244643 -0.258294,-0.464284 -0.453806,-0.643928 -0.195584,-0.179709 -0.426884,-0.315227 -0.679578,-0.397467 1.100928,-0.326363 2.032572,-1.118608 2.032572,-2.640815 0,-2.112645 -1.644274,-2.842605 -4.03835,-2.842605 h -4.518904 v 1.52719 l 0.824234,0.06229 v 6.726589 c 0,0.373668 -0.0619,0.465872 -0.358734,0.498306 l -0.480644,0.04482 z m -4.449574,-1.694093 c -0.9617,0 -1.101182,-1.118611 -1.101182,-2.516216 0,-1.335388 0.29401,-2.065348 1.101182,-2.065348 0.854674,0 1.103908,0.715012 1.103908,2.344344 0,1.494831 -0.31186,2.242183 -1.103908,2.242183 z m -3.774392,-2.217317 c 0,2.842643 1.320428,4.118186 3.652314,4.118186 2.331844,0 3.91413,-1.342805 3.91413,-4.369779 0,-3.652294 -2.454004,-3.986134 -3.682434,-3.986134 -1.694096,0 -3.88401,0.901862 -3.88401,4.235251 z m -4.290044,-6.278124 c 0,0.774798 0.575486,1.350297 1.494756,1.350297 0.919348,0 1.51728,-0.575499 1.51728,-1.397634 0,-0.822141 -0.622864,-1.320408 -1.522234,-1.320408 -0.899372,0 -1.49483,0.605394 -1.49483,1.367745 z m 2.984638,2.242195 h -3.46049 v 1.45992 l 0.528184,0.04484 c 0.278996,0.03239 0.37367,0.142004 0.37367,0.465874 v 4.018555 c 0,0.388616 -0.06234,0.480806 -0.358724,0.51317 l -0.54313,0.04489 v 1.400151 h 4.287574 v -1.445002 l -0.82461,-0.06225 z m -7.145166,4.840625 c 0,0.682626 -0.35625,1.038936 -0.979102,1.038936 -0.996536,0 -1.16344,-0.946739 -1.16344,-2.065341 0,-1.118598 0.371198,-2.17492 1.365238,-2.17492 0.264206,-0.0014 0.526744,0.04071 0.777304,0.124566 z m 0.17186,2.56862 c 0,1.365248 -0.35873,2.095171 -1.601898,2.095171 -0.240652,0.004 -0.480604,-0.02787 -0.712508,-0.09219 -0.234174,-0.07721 -0.32636,-0.201745 -0.32636,-0.513181 v -0.610396 l -1.880968,0.124566 v 2.29705 c 0.667684,0.35873 2.035404,0.560544 2.98958,0.560544 3.33842,0 3.913894,-2.035402 3.913894,-4.235302 v -6.639388 c -0.986602,-0.383146 -2.03347,-0.588119 -3.091764,-0.605388 -2.740404,0 -4.192888,1.694101 -4.192888,4.235278 0,2.065299 0.82212,3.667192 3.07429,3.667192 0.8396,0 1.507278,-0.35873 1.81871,-0.854491 z m -7.84018,-5.102271 c 0,0.747401 -0.652736,1.118625 -2.050422,1.073734 0.04738,-1.011449 0.575564,-1.7439 1.382742,-1.7439 0.0904,-0.01134 0.18212,-0.0019 0.268326,0.02767 0.08614,0.02954 0.16442,0.07839 0.228878,0.142804 0.06436,0.06442 0.11326,0.142694 0.1428,0.228865 0.02944,0.08616 0.03896,0.177948 0.02766,0.268332 z m -0.52818,-2.518736 c -2.688138,0 -4.07081,2.035418 -4.07081,4.36481 0,2.329418 1.056308,3.986121 3.77433,3.986121 1.06352,0.02279 2.11073,-0.263637 3.014512,-0.824609 l -0.682616,-1.724031 c -0.58334,0.39467 -1.268916,0.611073 -1.973096,0.62285 -1.008994,0 -1.47486,-0.590425 -1.554588,-1.320418 2.346826,0.02985 4.235224,-0.528116 4.235224,-2.740449 0,-1.629328 -1.118608,-2.376729 -2.740468,-2.376729 z M 37.452961,41.698122 V 38.76084 h 0.729992 c 1.101116,0 1.599416,0.326371 1.599416,1.382694 0,1.056323 -0.513238,1.554588 -1.427558,1.554588 z m -3.51027,5.560645 h 4.130578 v -1.49477 l -0.620308,-0.04735 v -2.326863 h 0.777296 c 0.528178,0 0.7125,0.201749 0.94668,0.652665 l 0.63532,1.245721 c 0.10962,0.216757 0.09468,0.40356 -0.15444,0.435982 l -0.433498,0.04485 v 1.477336 h 4.267656 v -1.509709 l -0.729994,-0.04736 -1.1485,-2.242176 c -0.103274,-0.244668 -0.257996,-0.464307 -0.453538,-0.643952 -0.195624,-0.179708 -0.42752,-0.315227 -0.680006,-0.397467 1.101186,-0.326363 2.032932,-1.118609 2.032932,-2.640814 0,-2.112646 -1.6468,-2.842606 -4.03846,-2.842606 h -4.516776 v 1.52719 l 0.82212,0.06229 v 6.726591 c 0,0.373665 -0.06226,0.465867 -0.35625,0.498303 l -0.480812,0.04481 z"
     fill="#0066af"
     id="path21"
     style="stroke-width:0.68854" />
  <defs
     id="defs56">
    <linearGradient
       id="paint0_linear_754_24134"
       x1="20.4359"
       y1="0.074218802"
       x2="20.4359"
       y2="40.945999"
       gradientUnits="userSpaceOnUse">
      <stop
         stop-color="#0066AF"
         id="stop51" />
      <stop
         offset="1"
         stop-color="#0066AF"
         id="stop53" />
    </linearGradient>
  </defs>
</svg>
