<?xml version="1.0" encoding="utf-8"?>
<!-- Generator: Adobe Illustrator 24.1.0, SVG Export Plug-In . SVG Version: 6.00 Build 0)  -->
<svg version="1.1" id="Ebene_1" xmlns="http://www.w3.org/2000/svg" xmlns:xlink="http://www.w3.org/1999/xlink" x="0px" y="0px"
	 viewBox="0 0 153.07 204.09" style="enable-background:new 0 0 153.07 204.09;" xml:space="preserve">
<style type="text/css">
	.st0{fill:#FFFFFF;}
	.st1{fill:#009EE3;}
	.st2{fill:#E3000B;}
	.st3{fill:#05A535;}
</style>
<g id="Ebene_2">
	<rect x="-2.61" y="-1.72" class="st0" width="157.52" height="208.66"/>
</g>
<g>
	<polygon points="70.64,138.21 65,155.78 64.93,155.78 59.36,138.21 53.69,138.21 61.81,163.2 68.01,163.2 76.31,138.21 	"/>
	<path d="M89.71,138.21H78.44v24.99h5.5v-8.96h5.77c6.23,0,8.65-3.96,8.65-8.02C98.36,142.17,95.94,138.21,89.71,138.21z
		 M88.21,149.97h-4.27v-7.49h4.27c2.55,0,4.83,0.56,4.83,3.74C93.04,149.41,90.76,149.97,88.21,149.97z"/>
	<polygon points="107.28,152.46 119.39,152.46 119.39,148.19 107.28,148.19 107.28,142.83 120.48,142.83 120.48,138.21 
		101.78,138.21 101.78,163.2 120.76,163.2 120.76,158.58 107.28,158.58 	"/>
	<polygon points="73.42,174.53 73.4,174.53 71.76,169.57 70.21,169.57 72.56,176.03 74.16,176.03 76.47,169.57 75,169.57 	"/>
	<path d="M83.26,169.4c-1.92,0-3.12,1.57-3.12,3.41c0,1.99,1.14,3.4,3.16,3.4c1.41,0,2.61-0.79,2.92-2.2h-1.35
		c-0.25,0.71-0.75,1.08-1.57,1.08c-1.19,0-1.74-0.9-1.74-1.91h4.75C86.55,171.23,85.3,169.4,83.26,169.4z M81.56,172.23
		c0.04-0.96,0.71-1.71,1.7-1.71c0.96,0,1.58,0.81,1.62,1.71H81.56z"/>
	<path d="M91.87,170.82h-0.03v-1.25h-1.34v6.46h1.42v-3.07c0-1.43,0.77-2.21,1.75-2.21c0.2,0,0.41,0.04,0.61,0.06v-1.38
		c-0.12-0.01-0.21-0.04-0.54-0.04C92.89,169.4,92.04,170.13,91.87,170.82z"/>
	<path d="M101.45,169.4c-0.72,0-1.54,0.39-1.92,1.01H99.5v-3.3h-1.42v8.92h1.35v-0.89h0.03c0.42,0.85,1.36,1.06,2.24,1.06
		c1.91,0,2.79-1.64,2.79-3.37C104.47,170.95,103.48,169.4,101.45,169.4z M101.26,175.08c-1.15,0-1.81-0.97-1.81-2.27
		c0-1.38,0.61-2.29,1.81-2.29c1.17,0,1.79,1.11,1.79,2.29C103.05,173.93,102.56,175.08,101.26,175.08z"/>
	<rect x="108.82" y="169.57" width="1.43" height="6.46"/>
	<rect x="108.82" y="167.11" width="1.43" height="1.35"/>
	<path d="M118.31,169.4c-0.85,0-1.59,0.44-2.01,1.15l-0.02-0.03v-0.95h-1.35v6.46h1.42v-3.81c0-0.95,0.61-1.7,1.56-1.7
		c0.84,0,1.24,0.44,1.26,1.45v4.06h1.43v-4.44C120.6,170.15,119.71,169.4,118.31,169.4z"/>
	<path d="M129.89,170.41h-0.03c-0.44-0.71-1.34-1.01-2.15-1.01c-1.41,0-2.8,1.03-2.8,3.36c0,1.94,0.99,3.45,3.03,3.45
		c0.81,0,1.62-0.31,2-1.05h0.03v0.88h1.35v-8.92h-1.42V170.41z M128.12,175.08c-1.24,0-1.79-1.1-1.79-2.21
		c0-1.16,0.48-2.35,1.81-2.35c1.1,0,1.79,0.85,1.79,2.28C129.94,173.92,129.4,175.08,128.12,175.08z"/>
	<path d="M138.79,169.4c-1.93,0-3.12,1.57-3.12,3.41c0,1.99,1.14,3.4,3.16,3.4c1.41,0,2.61-0.79,2.92-2.2h-1.35
		c-0.25,0.71-0.75,1.08-1.57,1.08c-1.19,0-1.74-0.9-1.74-1.91h4.75C142.07,171.23,140.82,169.4,138.79,169.4z M137.09,172.23
		c0.04-0.96,0.71-1.71,1.7-1.71c0.96,0,1.57,0.81,1.62,1.71H137.09z"/>
	<path d="M149.19,170.63v-1.06h-1.29v-1.94h-1.42v1.94h-1.08v1.06h1.08v3.81c0.03,1.07,0.3,1.65,1.79,1.65
		c0.31,0,0.61-0.05,0.92-0.08v-1.1c-0.2,0.05-0.4,0.05-0.6,0.05c-0.64,0-0.69-0.3-0.69-0.89v-3.45H149.19z"/>
</g>
<path class="st1" d="M129.91,36.75c-3.67-0.13-7.2,1.19-9.9,3.71s-4.26,5.93-4.39,9.62c-0.09,2.72,0.62,5.28,1.91,7.47l-9.27,8.44
	c-4.28-3.55-9.72-5.77-15.71-5.98c-1.87-0.07-3.71,0.07-5.48,0.38l1.69,5.73c1.17-0.17,2.37-0.23,3.59-0.19
	c6.59,0.23,12.33,3.6,15.83,8.63l2.14-1.94l0.02,0.02l11.56-10.53c2.04,1.34,4.45,2.16,7.06,2.26c0.16,0.01,0.33,0.01,0.49,0.01
	c7.4,0,13.54-5.88,13.8-13.33v0C143.5,43.43,137.52,37.02,129.91,36.75z M129.17,58.06c-4.13-0.15-7.38-3.63-7.24-7.76
	c0.07-2,0.92-3.85,2.38-5.22c1.4-1.31,3.21-2.02,5.11-2.02c0.09,0,0.18,0,0.27,0c4.13,0.14,7.38,3.62,7.23,7.76
	C136.78,54.96,133.32,58.23,129.17,58.06z"/>
<path class="st2" d="M138.19,92.8c-4.09-0.14-7.77,1.81-10.01,4.9l-11.41-4.74c0.52-1.92,0.84-3.92,0.91-5.99
	c0.21-6.13-1.71-11.84-5.09-16.42l-4.42,4.01c2.4,3.45,3.75,7.67,3.59,12.2c-0.13,3.58-1.18,6.91-2.92,9.76l5.51,2.34
	c0.01-0.01,0.01-0.02,0.01-0.03l11.62,4.8c-0.02,0.2-0.04,0.39-0.05,0.6c-0.23,6.53,4.9,12.02,11.42,12.25
	c0.14,0,0.28,0.01,0.42,0.01c3,0,5.85-1.12,8.07-3.18c2.32-2.16,3.65-5.09,3.76-8.25C149.84,98.52,144.71,93.03,138.19,92.8z
	 M141.54,108.68c-1.08,1.01-2.48,1.52-3.96,1.48c-3.05-0.11-5.44-2.67-5.33-5.72c0.1-2.98,2.56-5.33,5.53-5.33c0.06,0,0.13,0,0.19,0
	c3.04,0.11,5.43,2.67,5.33,5.71C143.25,106.3,142.62,107.67,141.54,108.68z"/>
<path class="st3" d="M104.32,114.91c-0.2-0.01-0.39,0-0.59,0.01l-1.54-5.04c5.13-2.28,9.41-6.15,12.16-11.02l-5.51-2.33
	c-3.66,6.01-10.37,9.92-17.91,9.66c-11.11-0.39-19.81-9.71-19.42-20.83c0.35-9.89,7.77-17.87,17.24-19.23l-1.69-5.73
	c-0.01,0-0.02,0-0.03,0.01l-9.95-33c3.18-2.09,5.35-5.63,5.49-9.72c0.23-6.69-5.02-12.32-11.7-12.55
	c-6.69-0.23-12.32,5.02-12.55,11.7c-0.23,6.69,5.02,12.32,11.71,12.55c0.36,0.01,0.71,0,1.05-0.02L81,62.26
	c-4.96,2.22-9.1,5.95-11.84,10.62L33.89,59.57c0.04-0.38,0.08-0.76,0.09-1.15c0.07-2.08-0.32-4.21-1.23-6.23
	c-3.18-7.08-11.52-10.25-18.6-7.07c-5.05,2.27-8.12,7.17-8.3,12.37c-0.07,2.08,0.32,4.21,1.23,6.23c3.18,7.08,11.52,10.25,18.6,7.07
	c2.59-1.17,4.66-3.03,6.08-5.27l34.87,13.16c-0.61,2.06-0.97,4.22-1.05,6.46c-0.23,6.68,2.07,12.85,6.04,17.6l-41.37,39.84
	c-0.35-0.2-0.7-0.39-1.07-0.57c-8.98-4.33-19.8-0.56-24.14,8.42c-1.12,2.32-1.7,4.78-1.79,7.21c-0.24,6.95,3.55,13.72,10.21,16.93
	c8.97,4.33,19.8,0.55,24.14-8.42c1.12-2.33,1.7-4.78,1.79-7.2c0.16-4.48-1.37-8.87-4.25-12.3l41.09-39.58
	c4.08,2.99,9.06,4.83,14.5,5.02c1.85,0.06,3.67-0.07,5.42-0.38l1.66,5.43c-2.03,1.7-3.37,4.21-3.47,7.06
	c-0.18,5.32,3.99,9.79,9.31,9.98c5.32,0.18,9.79-3.99,9.98-9.3C113.81,119.57,109.64,115.09,104.32,114.91z M64.63,17.05
	c0.11-3.21,2.81-5.72,6.02-5.61c3.21,0.11,5.72,2.81,5.61,6.02c-0.11,3.2-2.81,5.72-6.02,5.61C67.04,22.95,64.52,20.25,64.63,17.05z
	 M23.1,65.02c-3.9,1.75-8.5,0.01-10.25-3.9c-0.49-1.09-0.72-2.24-0.67-3.42c0.11-2.99,1.86-5.61,4.57-6.83
	c1.88-0.85,3.99-0.91,5.93-0.17c1.94,0.74,3.48,2.18,4.32,4.06c0.49,1.09,0.72,2.24,0.67,3.42C27.56,61.19,25.81,63.8,23.1,65.02z
	 M31.91,163.42c-1.36,2.82-3.75,4.95-6.72,5.98s-6.16,0.86-8.98-0.51c-4.2-2.02-6.8-6.35-6.64-11.03c0.06-1.63,0.45-3.2,1.16-4.68
	c1.36-2.82,3.75-4.95,6.72-5.98c2.97-1.04,6.16-0.86,8.98,0.51c4.2,2.03,6.8,6.35,6.64,11.03
	C33.02,160.36,32.63,161.94,31.91,163.42z M103.86,127.88c-1.84-0.06-3.28-1.61-3.21-3.44c0.06-1.84,1.61-3.28,3.45-3.21
	c1.84,0.06,3.28,1.61,3.22,3.45C107.25,126.5,105.7,127.94,103.86,127.88z"/>
</svg>
