<?xml version="1.0" encoding="UTF-8" standalone="no"?>
<!-- Generator: Adobe Illustrator 24.1.0, SVG Export Plug-In . SVG Version: 6.00 Build 0)  -->

<svg
   version="1.1"
   id="Ebene_1"
   x="0px"
   y="0px"
   viewBox="0 0 153.07 204.09"
   style="enable-background:new 0 0 153.07 204.09;"
   xml:space="preserve"
   sodipodi:docname="logo_ohne_schrift.svg"
   inkscape:version="1.1.2 (0a00cf5339, 2022-02-04, custom)"
   xmlns:inkscape="http://www.inkscape.org/namespaces/inkscape"
   xmlns:sodipodi="http://sodipodi.sourceforge.net/DTD/sodipodi-0.dtd"
   xmlns="http://www.w3.org/2000/svg"
   xmlns:svg="http://www.w3.org/2000/svg"><defs
   id="defs44"><inkscape:path-effect
     effect="fill_between_many"
     method="originald"
     linkedpaths="#path39,0,1|"
     id="path-effect11"
     join="true"
     close="true"
     autoreverse="true" /><inkscape:path-effect
     join="true"
     close="true"
     autoreverse="true"
     effect="fill_between_many"
     method="originald"
     linkedpaths="#path4938,0,1|"
     id="path-effect4940" /></defs><sodipodi:namedview
   id="namedview42"
   pagecolor="#ffffff"
   bordercolor="#666666"
   borderopacity="1.0"
   inkscape:pageshadow="2"
   inkscape:pageopacity="0.16470588"
   inkscape:pagecheckerboard="0"
   showgrid="false"
   inkscape:zoom="3.1897693"
   inkscape:cx="34.955506"
   inkscape:cy="95.6182"
   inkscape:window-width="1600"
   inkscape:window-height="837"
   inkscape:window-x="-8"
   inkscape:window-y="-8"
   inkscape:window-maximized="1"
   inkscape:current-layer="Ebene_1" />
<style
   type="text/css"
   id="style2">
	.st0{fill:#FFFFFF;}
	.st1{fill:#009EE3;}
	.st2{fill:#E3000B;}
	.st3{fill:#05A535;}
</style>
<g
   id="Ebene_2"
   style="fill:#05a535;fill-opacity:1">
	<rect
   x="-2.61"
   y="-1.72"
   class="st0"
   width="157.52"
   height="208.66"
   id="rect4"
   style="fill:#05a535;fill-opacity:1" />
</g>

<path
   class="st1"
   d="M129.91,36.75c-3.67-0.13-7.2,1.19-9.9,3.71s-4.26,5.93-4.39,9.62c-0.09,2.72,0.62,5.28,1.91,7.47l-9.27,8.44  c-4.28-3.55-9.72-5.77-15.71-5.98c-1.87-0.07-3.71,0.07-5.48,0.38l1.69,5.73c1.17-0.17,2.37-0.23,3.59-0.19  c6.59,0.23,12.33,3.6,15.83,8.63l2.14-1.94l0.02,0.02l11.56-10.53c2.04,1.34,4.45,2.16,7.06,2.26c0.16,0.01,0.33,0.01,0.49,0.01  c7.4,0,13.54-5.88,13.8-13.33v0C143.5,43.43,137.52,37.02,129.91,36.75z M129.17,58.06c-4.13-0.15-7.38-3.63-7.24-7.76  c0.07-2,0.92-3.85,2.38-5.22c1.4-1.31,3.21-2.02,5.11-2.02c0.09,0,0.18,0,0.27,0c4.13,0.14,7.38,3.62,7.23,7.76  C136.78,54.96,133.32,58.23,129.17,58.06z"
   id="path35" />
<path
   class="st2"
   d="M138.19,92.8c-4.09-0.14-7.77,1.81-10.01,4.9l-11.41-4.74c0.52-1.92,0.84-3.92,0.91-5.99  c0.21-6.13-1.71-11.84-5.09-16.42l-4.42,4.01c2.4,3.45,3.75,7.67,3.59,12.2c-0.13,3.58-1.18,6.91-2.92,9.76l5.51,2.34  c0.01-0.01,0.01-0.02,0.01-0.03l11.62,4.8c-0.02,0.2-0.04,0.39-0.05,0.6c-0.23,6.53,4.9,12.02,11.42,12.25  c0.14,0,0.28,0.01,0.42,0.01c3,0,5.85-1.12,8.07-3.18c2.32-2.16,3.65-5.09,3.76-8.25C149.84,98.52,144.71,93.03,138.19,92.8z   M141.54,108.68c-1.08,1.01-2.48,1.52-3.96,1.48c-3.05-0.11-5.44-2.67-5.33-5.72c0.1-2.98,2.56-5.33,5.53-5.33c0.06,0,0.13,0,0.19,0  c3.04,0.11,5.43,2.67,5.33,5.71C143.25,106.3,142.62,107.67,141.54,108.68z"
   id="path37" />
<path
   inkscape:original-d="M 0,0"
   inkscape:path-effect="#path-effect11"
   d="m 104.32,114.91 c -0.2,-0.01 -0.39,0 -0.59,0.01 l -1.54,-5.04 c 5.13,-2.28 9.41,-6.15 12.16,-11.02 l -5.51,-2.33 c -3.66,6.01 -10.37,9.92 -17.91,9.66 C 79.82,105.8 71.12,96.48 71.51,85.36 71.86,75.47 79.28,67.49 88.75,66.13 L 87.06,60.4 c -0.01,0 -0.02,0 -0.03,0.01 l -9.95,-33 c 3.18,-2.09 5.35,-5.63 5.49,-9.72 C 82.8,11 77.55,5.37 70.87,5.14 64.18,4.91 58.55,10.16 58.32,16.84 c -0.23,6.69 5.02,12.32 11.71,12.55 0.36,0.01 0.71,0 1.05,-0.02 L 81,62.26 c -4.96,2.22 -9.1,5.95 -11.84,10.62 L 33.89,59.57 c 0.04,-0.38 0.08,-0.76 0.09,-1.15 0.07,-2.08 -0.32,-4.21 -1.23,-6.23 -3.18,-7.08 -11.52,-10.25 -18.6,-7.07 -5.05,2.27 -8.12,7.17 -8.3,12.37 -0.07,2.08 0.32,4.21 1.23,6.23 3.18,7.08 11.52,10.25 18.6,7.07 2.59,-1.17 4.66,-3.03 6.08,-5.27 l 34.87,13.16 c -0.61,2.06 -0.97,4.22 -1.05,6.46 -0.23,6.68 2.07,12.85 6.04,17.6 l -41.37,39.84 c -0.35,-0.2 -0.7,-0.39 -1.07,-0.57 -8.98,-4.33 -19.8,-0.56 -24.14,8.42 -1.12,2.32 -1.7,4.78 -1.79,7.21 -0.24,6.95 3.55,13.72 10.21,16.93 8.97,4.33 19.8,0.55 24.14,-8.42 1.12,-2.33 1.7,-4.78 1.79,-7.2 0.16,-4.48 -1.37,-8.87 -4.25,-12.3 l 41.09,-39.58 c 4.08,2.99 9.06,4.83 14.5,5.02 1.85,0.06 3.67,-0.07 5.42,-0.38 l 1.66,5.43 c -2.03,1.7 -3.37,4.21 -3.47,7.06 -0.18,5.32 3.99,9.79 9.31,9.98 5.32,0.18 9.79,-3.99 9.98,-9.3 0.18,-5.31 -3.99,-9.79 -9.31,-9.97 z"
   id="path13" /><path
   class="st3"
   d="M104.32,114.91c-0.2-0.01-0.39,0-0.59,0.01l-1.54-5.04c5.13-2.28,9.41-6.15,12.16-11.02l-5.51-2.33  c-3.66,6.01-10.37,9.92-17.91,9.66c-11.11-0.39-19.81-9.71-19.42-20.83c0.35-9.89,7.77-17.87,17.24-19.23l-1.69-5.73  c-0.01,0-0.02,0-0.03,0.01l-9.95-33c3.18-2.09,5.35-5.63,5.49-9.72c0.23-6.69-5.02-12.32-11.7-12.55  c-6.69-0.23-12.32,5.02-12.55,11.7c-0.23,6.69,5.02,12.32,11.71,12.55c0.36,0.01,0.71,0,1.05-0.02L81,62.26  c-4.96,2.22-9.1,5.95-11.84,10.62L33.89,59.57c0.04-0.38,0.08-0.76,0.09-1.15c0.07-2.08-0.32-4.21-1.23-6.23  c-3.18-7.08-11.52-10.25-18.6-7.07c-5.05,2.27-8.12,7.17-8.3,12.37c-0.07,2.08,0.32,4.21,1.23,6.23c3.18,7.08,11.52,10.25,18.6,7.07  c2.59-1.17,4.66-3.03,6.08-5.27l34.87,13.16c-0.61,2.06-0.97,4.22-1.05,6.46c-0.23,6.68,2.07,12.85,6.04,17.6l-41.37,39.84  c-0.35-0.2-0.7-0.39-1.07-0.57c-8.98-4.33-19.8-0.56-24.14,8.42c-1.12,2.32-1.7,4.78-1.79,7.21c-0.24,6.95,3.55,13.72,10.21,16.93  c8.97,4.33,19.8,0.55,24.14-8.42c1.12-2.33,1.7-4.78,1.79-7.2c0.16-4.48-1.37-8.87-4.25-12.3l41.09-39.58  c4.08,2.99,9.06,4.83,14.5,5.02c1.85,0.06,3.67-0.07,5.42-0.38l1.66,5.43c-2.03,1.7-3.37,4.21-3.47,7.06  c-0.18,5.32,3.99,9.79,9.31,9.98c5.32,0.18,9.79-3.99,9.98-9.3C113.81,119.57,109.64,115.09,104.32,114.91z M64.63,17.05  c0.11-3.21,2.81-5.72,6.02-5.61c3.21,0.11,5.72,2.81,5.61,6.02c-0.11,3.2-2.81,5.72-6.02,5.61C67.04,22.95,64.52,20.25,64.63,17.05z   M23.1,65.02c-3.9,1.75-8.5,0.01-10.25-3.9c-0.49-1.09-0.72-2.24-0.67-3.42c0.11-2.99,1.86-5.61,4.57-6.83  c1.88-0.85,3.99-0.91,5.93-0.17c1.94,0.74,3.48,2.18,4.32,4.06c0.49,1.09,0.72,2.24,0.67,3.42C27.56,61.19,25.81,63.8,23.1,65.02z   M31.91,163.42c-1.36,2.82-3.75,4.95-6.72,5.98s-6.16,0.86-8.98-0.51c-4.2-2.02-6.8-6.35-6.64-11.03c0.06-1.63,0.45-3.2,1.16-4.68  c1.36-2.82,3.75-4.95,6.72-5.98c2.97-1.04,6.16-0.86,8.98,0.51c4.2,2.03,6.8,6.35,6.64,11.03  C33.02,160.36,32.63,161.94,31.91,163.42z M103.86,127.88c-1.84-0.06-3.28-1.61-3.21-3.44c0.06-1.84,1.61-3.28,3.45-3.21  c1.84,0.06,3.28,1.61,3.22,3.45C107.25,126.5,105.7,127.94,103.86,127.88z"
   id="path39" />
<path
   style="fill:#05a535;fill-opacity:1;stroke-width:0.313502"
   d="m 68.981959,22.684079 c -2.510881,-0.742935 -4.086984,-2.841375 -4.086984,-5.441453 0,-2.680771 1.602194,-4.739397 4.235156,-5.441664 3.998938,-1.066602 7.946933,2.939071 6.769636,6.868537 -0.912803,3.046664 -4.045281,4.864521 -6.917808,4.01458 z"
   id="path18813" /><path
   style="fill:#05a535;fill-opacity:1;stroke-width:0.313502"
   d="m 18.966889,65.460279 c -3.539384,-0.767183 -5.954779,-3.13194 -6.5495,-6.412192 -0.494409,-2.726974 1.213263,-6.174546 3.816356,-7.704732 1.236122,-0.726634 1.83968,-0.869485 3.673651,-0.869485 1.842082,0 2.43579,0.141822 3.69687,0.883093 5.31196,3.122403 5.08496,10.614102 -0.405096,13.369417 -1.1897,0.59708 -3.230695,0.950998 -4.232281,0.733899 z"
   id="path18852" /><path
   style="fill:#ffffff;fill-opacity:1;stroke-width:0.313502"
   d="m 17.557818,169.25644 c -2.992817,-1.08504 -5.470139,-3.38828 -6.859746,-6.37769 -0.677509,-1.4575 -0.8093402,-2.19561 -0.8154553,-4.56562 -0.00663,-2.5678 0.086837,-3.01836 1.0191473,-4.91312 1.295875,-2.63363 3.762623,-4.96075 6.263534,-5.909 5.623062,-2.13205 11.855329,0.39519 14.56925,5.90794 0.929648,1.88839 1.026442,2.3517 1.026442,4.91312 0,2.40728 -0.124107,3.09285 -0.834044,4.60728 -1.124636,2.39906 -3.136839,4.50395 -5.424521,5.67439 -1.621653,0.82968 -2.296292,0.98294 -4.714015,1.0709 -2.0373,0.0741 -3.213162,-0.0393 -4.230592,-0.4082 z"
   id="path18891" /><path
   style="fill:#ffffff;fill-opacity:1;stroke-width:0.313502"
   d="M 18.9362,176.04306 C 9.9959169,174.67295 3.4335357,167.12083 3.4531592,158.22485 c 0.016863,-7.64457 5.0233102,-14.49477 12.3787068,-16.93748 4.03193,-1.33899 8.391705,-1.14709 12.423367,0.54683 l 2.09643,0.88083 19.701299,-18.94897 C 60.888676,113.34413 70.22648,104.35364 70.803635,103.7872 l 1.049373,-1.02988 -1.118382,-1.46516 c -1.44438,-1.892241 -3.498682,-6.098006 -4.14961,-8.49548 -0.76604,-2.821452 -0.928954,-9.208221 -0.303056,-11.880787 0.278509,-1.189221 0.440097,-2.2285 0.359085,-2.309509 -0.08101,-0.08101 -7.939201,-3.089057 -17.462648,-6.684553 l -17.31536,-6.537259 -1.686715,1.863878 c -3.049444,3.369745 -8.079384,5.180613 -12.31669,4.434226 C 11.853142,70.624653 7.2310671,66.017881 6.2116825,60.073288 5.5072739,55.965493 6.833423,51.776061 9.8796766,48.485745 13.35036,44.736991 18.406388,43.241309 23.299616,44.515834 c 2.540841,0.661803 4.144439,1.55393 6.074782,3.379567 2.798817,2.647007 4.035652,5.360181 4.441593,9.743272 l 0.199008,2.14877 17.355848,6.550919 c 9.545715,3.603006 17.529133,6.550922 17.740932,6.550922 0.211799,0 0.537979,-0.317421 0.724848,-0.70538 1.251834,-2.59895 5.835523,-6.909566 9.267062,-8.714979 1.065159,-0.560407 1.969858,-1.042793 2.010437,-1.071974 0.04058,-0.02919 -2.15292,-7.441566 -4.874443,-16.471965 L 71.29146,29.506079 69.012223,29.12204 c -4.2547,-0.716894 -7.34254,-2.945793 -9.342036,-6.743372 -0.819552,-1.556552 -0.888506,-1.955148 -0.888506,-5.136042 0,-3.325538 0.03791,-3.518428 1.06291,-5.408571 4.805276,-8.861097 16.956311,-8.5849147 21.422358,0.486911 0.931249,1.89164 1.027404,2.352252 1.027404,4.92166 0,2.576621 -0.09472,3.027118 -1.040417,4.948093 -0.583836,1.185937 -1.718861,2.781215 -2.586394,3.635171 -0.850287,0.836981 -1.545977,1.694547 -1.545977,1.905704 0,0.211156 2.55499,8.843537 5.677755,19.183065 3.122762,10.339532 5.60529,18.87161 5.516725,18.960174 -0.08856,0.08856 -0.976099,0.373873 -1.972299,0.634015 -6.958836,1.817206 -12.531345,7.503175 -14.382884,14.675738 -0.62232,2.41077 -0.62232,7.332819 0,9.743589 1.875685,7.266093 7.40336,12.863135 14.588419,14.771475 2.434092,0.6465 7.259726,0.71526 9.695924,0.13816 0.948344,-0.22465 2.919139,-0.97735 4.379545,-1.67268 2.09115,-0.99564 3.16139,-1.77143 5.03751,-3.65157 1.31022,-1.313038 2.58418,-2.699307 2.83101,-3.080601 l 0.44878,-0.693257 2.50802,1.051574 c 1.37941,0.578368 2.48948,1.148058 2.46682,1.265985 -0.1346,0.700684 -2.26399,3.492279 -3.94933,5.177529 -1.88751,1.88741 -5.8762,4.77678 -7.15411,5.18237 -0.76803,0.24376 -0.75138,0.71379 0.12198,3.44367 l 0.70209,2.19451 1.61606,0.19878 c 3.24035,0.39856 5.97875,2.45677 7.40096,5.56264 0.97437,2.12788 0.93665,5.62317 -0.0831,7.69501 -0.96695,1.96468 -2.62944,3.62717 -4.59412,4.59412 -2.26899,1.11673 -5.9268,1.07891 -8.146784,-0.0842 -5.587802,-2.92771 -6.947461,-9.73252 -2.944081,-14.73451 0.509416,-0.63649 0.926211,-1.26406 0.926211,-1.39459 0,-0.13053 -0.349116,-1.3819 -0.775814,-2.78083 l -0.775815,-2.5435 -2.280833,0.25586 c -5.319036,0.59668 -11.807822,-1.07165 -16.932444,-4.3535 -0.857372,-0.54906 -0.857729,-0.54894 -2.194516,0.73726 -0.735354,0.70752 -9.872106,9.4902 -20.303894,19.51706 -10.431789,10.02686 -19.094855,18.41807 -19.251258,18.64715 -0.193114,0.28284 -0.019,0.76442 0.542566,1.50067 0.454817,0.59629 1.235807,1.99142 1.735536,3.10029 5.13572,11.3958 -2.558056,24.16692 -15.16083,25.16589 -1.034557,0.082 -2.600204,0.0389 -3.479214,-0.0958 z m 7.555222,-7.05182 c 2.442885,-1.1952 4.368865,-3.17718 5.58789,-5.75037 0.875092,-1.8472 0.99518,-2.42225 0.99518,-4.76546 0,-6.97253 -4.914168,-11.98033 -11.756336,-11.98033 -5.488222,0 -9.909,3.36596 -11.4690992,8.73251 -1.3558463,4.66395 0.7805682,10.33223 4.8876212,12.96772 2.354063,1.5106 3.8363,1.88511 7.069287,1.78616 2.384668,-0.073 3.134599,-0.23147 4.685457,-0.99023 z m 79.649298,-41.69371 c 1.05207,-0.68934 1.59805,-2.67661 1.07939,-3.92877 -0.96553,-2.331 -3.80054,-2.98294 -5.61221,-1.29059 -0.80797,0.75476 -0.97366,1.14769 -0.97366,2.30899 0,1.51138 0.80751,2.87661 2.00269,3.38587 0.86198,0.36729 2.57164,0.13527 3.50379,-0.4755 z M 23.420519,64.996559 c 1.509222,-0.703251 3.085146,-2.366139 3.788505,-3.997561 0.675418,-1.566618 0.638897,-4.913481 -0.06867,-6.292847 -0.77887,-1.518367 -2.295512,-3.06472 -3.784434,-3.858565 -1.658942,-0.884493 -5.141523,-0.933691 -6.740299,-0.09522 -1.372745,0.719933 -3.052666,2.283777 -3.623523,3.373147 -3.5618446,6.797103 3.460755,14.11777 10.42842,10.871046 z M 73.411513,22.380125 c 3.826998,-1.923172 3.919562,-7.934496 0.156137,-10.140011 -3.124518,-1.831089 -7.440084,-0.459507 -8.65273,2.75003 -0.46076,1.219506 -0.417346,3.48258 0.09011,4.697092 0.522881,1.251431 2.430408,2.968155 3.57935,3.221324 0.471009,0.103787 0.997458,0.235445 1.169884,0.292574 0.579653,0.192052 2.498503,-0.238707 3.657252,-0.821009 z"
   id="path30472" /><path
   inkscape:original-d="M 0,0"
   inkscape:path-effect="#path-effect4940"
   d="m 16.772373,168.71795 c -2.281816,-1.09576 -4.286687,-3.02383 -5.493046,-5.28264 -0.913828,-1.71107 -1.076345,-2.35383 -1.19032,-4.70771 -0.1219089,-2.51774 -0.06059,-2.87715 0.802263,-4.70254 1.323113,-2.79907 3.15715,-4.73205 5.656898,-5.96208 1.888922,-0.92946 2.355644,-1.02825 4.764407,-1.00846 2.168605,0.0178 2.994331,0.1717 4.394613,0.81898 2.571148,1.18852 4.496438,3.06609 5.78486,5.64149 1.003785,2.00645 1.112191,2.47467 1.112191,4.80367 0,2.329 -0.108406,2.79722 -1.112191,4.80366 -1.225167,2.44897 -3.045646,4.27899 -5.42046,5.44888 -1.172093,0.57739 -2.082728,0.73781 -4.596681,0.80976 -2.774047,0.0794 -3.31551,0.003 -4.702534,-0.66301 z"
   id="path4942" /><path
   style="fill:#05a535;fill-opacity:1;stroke-width:0.313502"
   d="m 16.772373,168.71795 c -2.281816,-1.09576 -4.286687,-3.02383 -5.493046,-5.28264 -0.913828,-1.71107 -1.076345,-2.35383 -1.19032,-4.70771 -0.1219089,-2.51774 -0.06059,-2.87715 0.802263,-4.70254 1.323113,-2.79907 3.15715,-4.73205 5.656898,-5.96208 1.888922,-0.92946 2.355644,-1.02825 4.764407,-1.00846 2.168605,0.0178 2.994331,0.1717 4.394613,0.81898 2.571148,1.18852 4.496438,3.06609 5.78486,5.64149 1.003785,2.00645 1.112191,2.47467 1.112191,4.80367 0,2.329 -0.108406,2.79722 -1.112191,4.80366 -1.225167,2.44897 -3.045646,4.27899 -5.42046,5.44888 -1.172093,0.57739 -2.082728,0.73781 -4.596681,0.80976 -2.774047,0.0794 -3.31551,0.003 -4.702534,-0.66301 z"
   id="path4938" /><path
   style="fill:#05a535;fill-opacity:1;stroke-width:0.313502;stroke:#91c96e;stroke-opacity:0"
   d="m 102.44476,127.27899 c -2.70871,-1.51909 -1.56943,-5.81268 1.53551,-5.78688 1.33221,0.0111 1.91762,0.35933 2.74759,1.63453 1.61116,2.47545 -1.64476,5.63198 -4.2831,4.15235 z"
   id="path59810" /><path
   style="fill:#05a535;fill-opacity:1;stroke-width:0.313502"
   d="m 135.27624,109.29926 c -1.26649,-0.7823 -1.91587,-1.55641 -2.52144,-3.00576 -1.28744,-3.08126 1.5178,-7.037009 5.00885,-7.063138 1.30739,-0.0098 3.50482,1.137068 4.28913,2.238518 1.90253,2.67186 0.98314,6.44357 -1.93903,7.95468 -1.24804,0.64539 -3.69316,0.58256 -4.83751,-0.1243 z"
   id="path59977" /><path
   style="fill:#05a535;fill-opacity:1;stroke-width:0.313502"
   d="m 126.65493,57.342096 c -2.62771,-1.136417 -4.48674,-3.926329 -4.49093,-6.739687 -0.005,-3.379412 2.07603,-6.099575 5.41365,-7.076218 4.54256,-1.329231 9.10935,2.229092 9.10935,7.097777 0,2.826975 -1.9249,5.672082 -4.59129,6.78617 -1.34898,0.563639 -4.05851,0.529754 -5.44078,-0.06804 z"
   id="path60016" /><path
   style="fill:#05a535;fill-opacity:1;stroke-width:0.313502"
   d="m 89.504906,105.94463 c -0.344853,-0.0791 -1.402923,-0.29549 -2.351268,-0.48091 -6.175395,-1.20744 -12.237704,-6.719607 -14.44847,-13.137294 -0.864492,-2.509555 -1.154309,-7.333404 -0.608533,-10.128708 1.153346,-5.9071 5.329684,-11.316144 10.783751,-13.96673 3.366466,-1.636047 5.353834,-2.079966 9.132538,-2.039938 8.495776,0.09 15.575086,5.288298 18.585346,13.647136 0.72832,2.022371 0.8281,2.771569 0.8281,6.218194 0,3.446626 -0.0998,4.195824 -0.8281,6.218194 -2.85876,7.938136 -9.75407,13.220246 -17.842939,13.668466 -1.442882,0.08 -2.905573,0.0807 -3.250425,0.002 z"
   id="path60074" /><g
   inkscape:groupmode="layer"
   id="layer2"
   inkscape:label="Logo" /><path
   style="fill:#05a535;fill-opacity:1;stroke-width:0.313502"
   d="M -2.3809654,102.89558 V -1.3439315 H 76.308111 154.99718 V 102.89558 207.1351 H 76.308111 -2.3809654 Z m 29.7899444,72.77227 c 7.017783,-2.44054 11.655044,-8.57273 12.124777,-16.03347 0.260984,-4.14517 -0.724366,-7.91548 -2.922218,-11.18148 -0.88618,-1.31685 -1.012249,-1.68884 -0.6812,-2.01003 0.223427,-0.21678 9.416277,-9.06241 20.428556,-19.65696 l 20.022329,-19.26283 2.150607,1.32594 c 4.067379,2.5077 9.491937,3.80733 14.709437,3.52413 l 2.9823,-0.16188 0.738564,2.44641 0.738565,2.44641 -0.963427,1.20356 c -2.276193,2.84352 -2.918678,6.39302 -1.777812,9.82177 0.786417,2.36349 3.424533,5.01328 5.765233,5.79073 2.25863,0.7502 5.91695,0.55383 7.80879,-0.41916 1.81455,-0.93325 3.53885,-2.71589 4.44747,-4.59794 1.03161,-2.1368 1.08721,-5.91514 0.118,-8.01946 -1.41275,-3.06737 -4.45997,-5.36981 -7.67045,-5.79569 l -1.49412,-0.19821 -0.64604,-2.12694 c -0.79336,-2.61197 -0.79466,-2.72394 -0.0343,-2.96526 1.29291,-0.41035 5.27249,-3.26964 7.10633,-5.10583 1.05503,-1.05638 2.43588,-2.70055 3.06856,-3.65372 l 1.15032,-1.733025 1.30474,0.522053 c 0.71761,0.287132 3.21635,1.316642 5.55276,2.287792 l 4.24801,1.76574 0.23224,1.84761 c 0.33531,2.66749 1.01867,4.4774 2.35794,6.24507 3.07371,4.05691 8.16075,5.77568 12.94966,4.37533 8.57259,-2.50676 11.48096,-13.01373 5.41565,-19.564978 -1.05126,-1.135487 -2.41251,-2.198068 -3.50032,-2.732304 -1.62553,-0.798328 -2.07942,-0.873411 -5.22858,-0.86495 -4.11838,0.01107 -5.54076,0.528022 -8.09217,2.941034 l -1.63981,1.550864 -4.85258,-2.013722 c -2.66892,-1.107547 -5.14586,-2.141556 -5.50432,-2.297796 -0.63003,-0.274613 -0.63828,-0.360826 -0.24757,-2.588128 0.73983,-4.217606 0.44497,-8.407542 -0.87918,-12.492878 -0.70842,-2.18566 -2.16273,-5.274883 -3.12521,-6.638549 l -0.592,-0.838757 4.43253,-4.020529 c 2.43789,-2.211291 4.59142,-3.995693 4.78561,-3.965337 0.1942,0.03035 1.27008,0.442101 2.39085,0.914985 2.52992,1.06745 6.34753,1.218856 9.1299,0.362092 4.21227,-1.297063 7.82791,-4.908139 9.09663,-9.085134 0.96975,-3.192685 0.73345,-7.227083 -0.58598,-10.004381 -2.58434,-5.439842 -7.64857,-8.407718 -13.70206,-8.030055 -3.43373,0.214223 -6.03554,1.382455 -8.66522,3.890746 -4.1414,3.950223 -5.38918,10.188589 -3.08653,15.431235 0.33149,0.754728 0.60271,1.399339 0.60271,1.432467 0,0.03312 -2.01993,1.902536 -4.48873,4.154241 l -4.48872,4.094011 -1.23269,-0.927108 c -0.67798,-0.509908 -2.52706,-1.559633 -4.10906,-2.332724 -3.904855,-1.908207 -7.581817,-2.672375 -12.287085,-2.55357 L 87.206836,60.25927 82.331421,44.073654 77.456006,27.888038 79.045729,26.298315 C 85.204118,20.139928 83.571282,10.277683 75.75624,6.4299445 73.819956,5.4766144 73.425207,5.3971413 70.671882,5.4063294 c -2.360421,0.00788 -3.362086,0.1601172 -4.786675,0.7275131 -2.511505,1.0003022 -4.986521,3.348424 -6.263535,5.9424055 -0.962822,1.955773 -1.026441,2.289838 -1.026441,5.389958 0,3.093304 0.06508,3.437147 1.016149,5.36905 1.850579,3.759057 5.48319,6.34667 9.541825,6.796912 l 1.959527,0.217379 0.761591,2.508018 c 0.418877,1.37941 2.623259,8.680622 4.898624,16.22491 l 4.137027,13.716895 -1.909054,1.06894 c -3.469536,1.942701 -7.829713,6.117959 -9.49337,9.090745 -0.256369,0.458108 -3.609474,-0.746957 -30.584588,-10.991745 l -4.624159,-1.756196 v -1.356377 c 0,-5.404005 -3.182907,-10.482702 -8.089449,-12.907648 -2.354537,-1.163674 -2.421523,-1.176436 -6.174905,-1.176436 -3.753382,0 -3.820369,0.01276 -6.174905,1.176436 -2.794388,1.381062 -5.3885587,3.962719 -6.6399314,6.607904 -2.5570629,5.405187 -1.4028362,11.936333 2.8522394,16.139277 5.812604,5.741393 15.077199,5.501884 20.481677,-0.52949 l 1.510809,-1.686059 17.166395,6.475265 c 9.441516,3.561392 17.194635,6.506796 17.229149,6.545341 0.03451,0.03854 -0.146745,1.057613 -0.402801,2.264597 -0.579459,2.731451 -0.377526,9.169346 0.373673,11.913087 0.669691,2.446042 2.63504,6.51738 4.020288,8.328279 l 1.094819,1.43122 -18.031853,17.37891 c -9.91752,9.5584 -19.209088,18.47819 -20.647929,19.82175 L 30.25,142.58 29.061004,141.98004 c -3.077582,-1.55292 -8.281598,-2.05573 -11.860585,-1.14597 -5.189199,1.31908 -9.6854066,4.83425 -11.8529581,9.26675 -1.7005013,3.47741 -2.1987326,5.82509 -1.9910587,9.38193 0.3995559,6.8432 4.0330522,12.36646 10.1960888,15.49904 3.748908,1.90552 9.527281,2.19162 13.856488,0.68606 z"
   id="path4757" /><path
   style="fill:#05a535;fill-opacity:1;stroke:#05a535;stroke-width:0.098;stroke-miterlimit:4;stroke-dasharray:none;stroke-opacity:0"
   d="m 17.952318,64.922968 c -2.237203,-0.757368 -3.645137,-1.934555 -4.59606,-3.842809 -1.033919,-2.074805 -1.058485,-3.959483 -0.07902,-6.062788 0.766497,-1.645985 2.519624,-3.420053 3.921845,-3.968689 1.330272,-0.520485 4.503302,-0.405934 5.799997,0.209388 0.636397,0.30199 1.71601,1.184044 2.399139,1.96012 2.021164,2.296163 2.418005,5.014435 1.134466,7.770818 -1.593298,3.421586 -5.203919,5.076998 -8.580362,3.93396 z"
   id="path54718" /><ellipse
   style="fill:#05a535;fill-opacity:1;stroke:#05a535;stroke-width:0.10453;stroke-miterlimit:4;stroke-dasharray:none;stroke-opacity:0"
   id="path55350"
   cx="69.440765"
   cy="16.45887"
   rx="6.4235325"
   ry="6.1100302" /><path
   id="path55454"
   style="fill:#05a535;stroke:#05a535;stroke-width:0.121038;stroke-opacity:0"
   d="m 108.14676,124.93066 a 4.2207623,3.9072597 0 0 1 -4.22076,3.90726 4.2207623,3.9072597 0 0 1 -4.22076,-3.90726 4.2207623,3.9072597 0 0 1 4.22076,-3.90726 4.2207623,3.9072597 0 0 1 4.22076,3.90726 z" /><path
   id="path55558"
   style="fill:#05a535;stroke:#05a535;stroke-width:0.0989505;stroke-opacity:0"
   d="m 28.21473,57.997925 a 8.4640875,8.1505842 0 0 1 -8.464087,8.150584 8.4640875,8.1505842 0 0 1 -8.464088,-8.150584 8.4640875,8.1505842 0 0 1 8.464088,-8.150584 8.4640875,8.1505842 0 0 1 8.464087,8.150584 z" /><path
   id="path55662"
   style="fill:#05a535;stroke:#05a535;stroke-width:0.104052;stroke-opacity:0"
   d="M 33.22822,158.16191 A 12.223564,12.066813 0 0 1 21.004656,170.22872 12.223564,12.066813 0 0 1 8.7810917,158.16191 12.223564,12.066813 0 0 1 21.004656,146.0951 12.223564,12.066813 0 0 1 33.22822,158.16191 Z" /><g
   id="g64566"
   transform="translate(56.116911,-4.7025344)"><g
     id="g64561"><path
       id="path61174"
       style="fill:#ffffff;stroke:#05a535;stroke-width:0.103657;stroke-opacity:0"
       d="M 25.390862,21.631659 A 11.596756,11.283254 0 0 1 13.794106,32.914912 11.596756,11.283254 0 0 1 2.197349,21.631659 11.596756,11.283254 0 0 1 13.794106,10.348404 11.596756,11.283254 0 0 1 25.390862,21.631659 Z" /></g><path
     id="path64474"
     style="fill:#05a535;stroke:#05a535;stroke-width:0.098;stroke-opacity:0"
     d="M 18.810137,21.94516 A 5.0160365,5.0160365 0 0 1 13.794101,26.961196 5.0160365,5.0160365 0 0 1 8.7780643,21.94516 5.0160365,5.0160365 0 0 1 13.794101,16.929123 5.0160365,5.0160365 0 0 1 18.810137,21.94516 Z" /></g></svg>
